%TF.GenerationSoftware,KiCad,Pcbnew,10.0.1*%
%TF.CreationDate,2026-08-07T23:35:23+09:00*%
%TF.ProjectId,AMP_BD_V2,414d505f-4244-45f5-9632-2e6b69636164,rev?*%
%TF.SameCoordinates,Original*%
%TF.FileFunction,Legend,Top*%
%TF.FilePolarity,Positive*%
%FSLAX46Y46*%
G04 Gerber Fmt 4.6, Leading zero omitted, Abs format (unit mm)*
G04 Created by KiCad (PCBNEW 10.0.1) date 2026-08-07 23:35:23*
%MOMM*%
%LPD*%
G01*
G04 APERTURE LIST*
%ADD10C,0.150000*%
%ADD11C,0.200000*%
G04 APERTURE END LIST*
D10*
X10352857Y14408919D02*
X9986190Y14932728D01*
X9724285Y14408919D02*
X9724285Y15508919D01*
X9724285Y15508919D02*
X10143333Y15508919D01*
X10143333Y15508919D02*
X10248095Y15456538D01*
X10248095Y15456538D02*
X10300476Y15404157D01*
X10300476Y15404157D02*
X10352857Y15299395D01*
X10352857Y15299395D02*
X10352857Y15142252D01*
X10352857Y15142252D02*
X10300476Y15037490D01*
X10300476Y15037490D02*
X10248095Y14985109D01*
X10248095Y14985109D02*
X10143333Y14932728D01*
X10143333Y14932728D02*
X9724285Y14932728D01*
X10771904Y15404157D02*
X10824285Y15456538D01*
X10824285Y15456538D02*
X10929047Y15508919D01*
X10929047Y15508919D02*
X11190952Y15508919D01*
X11190952Y15508919D02*
X11295714Y15456538D01*
X11295714Y15456538D02*
X11348095Y15404157D01*
X11348095Y15404157D02*
X11400476Y15299395D01*
X11400476Y15299395D02*
X11400476Y15194633D01*
X11400476Y15194633D02*
X11348095Y15037490D01*
X11348095Y15037490D02*
X10719523Y14408919D01*
X10719523Y14408919D02*
X11400476Y14408919D01*
X12081428Y15508919D02*
X12186190Y15508919D01*
X12186190Y15508919D02*
X12290952Y15456538D01*
X12290952Y15456538D02*
X12343333Y15404157D01*
X12343333Y15404157D02*
X12395714Y15299395D01*
X12395714Y15299395D02*
X12448095Y15089871D01*
X12448095Y15089871D02*
X12448095Y14827966D01*
X12448095Y14827966D02*
X12395714Y14618442D01*
X12395714Y14618442D02*
X12343333Y14513680D01*
X12343333Y14513680D02*
X12290952Y14461300D01*
X12290952Y14461300D02*
X12186190Y14408919D01*
X12186190Y14408919D02*
X12081428Y14408919D01*
X12081428Y14408919D02*
X11976666Y14461300D01*
X11976666Y14461300D02*
X11924285Y14513680D01*
X11924285Y14513680D02*
X11871904Y14618442D01*
X11871904Y14618442D02*
X11819523Y14827966D01*
X11819523Y14827966D02*
X11819523Y15089871D01*
X11819523Y15089871D02*
X11871904Y15299395D01*
X11871904Y15299395D02*
X11924285Y15404157D01*
X11924285Y15404157D02*
X11976666Y15456538D01*
X11976666Y15456538D02*
X12081428Y15508919D01*
D11*
X20288333Y74372873D02*
X19864999Y74977635D01*
X19562618Y74372873D02*
X19562618Y75642873D01*
X19562618Y75642873D02*
X20046428Y75642873D01*
X20046428Y75642873D02*
X20167380Y75582397D01*
X20167380Y75582397D02*
X20227857Y75521921D01*
X20227857Y75521921D02*
X20288333Y75400969D01*
X20288333Y75400969D02*
X20288333Y75219540D01*
X20288333Y75219540D02*
X20227857Y75098588D01*
X20227857Y75098588D02*
X20167380Y75038111D01*
X20167380Y75038111D02*
X20046428Y74977635D01*
X20046428Y74977635D02*
X19562618Y74977635D01*
X21497857Y74372873D02*
X20772142Y74372873D01*
X21134999Y74372873D02*
X21134999Y75642873D01*
X21134999Y75642873D02*
X21014047Y75461445D01*
X21014047Y75461445D02*
X20893095Y75340492D01*
X20893095Y75340492D02*
X20772142Y75280016D01*
X4928571Y66755257D02*
X4528571Y67326685D01*
X4242857Y66755257D02*
X4242857Y67955257D01*
X4242857Y67955257D02*
X4700000Y67955257D01*
X4700000Y67955257D02*
X4814285Y67898114D01*
X4814285Y67898114D02*
X4871428Y67840971D01*
X4871428Y67840971D02*
X4928571Y67726685D01*
X4928571Y67726685D02*
X4928571Y67555257D01*
X4928571Y67555257D02*
X4871428Y67440971D01*
X4871428Y67440971D02*
X4814285Y67383828D01*
X4814285Y67383828D02*
X4700000Y67326685D01*
X4700000Y67326685D02*
X4242857Y67326685D01*
X6071428Y66755257D02*
X5385714Y66755257D01*
X5728571Y66755257D02*
X5728571Y67955257D01*
X5728571Y67955257D02*
X5614285Y67783828D01*
X5614285Y67783828D02*
X5500000Y67669542D01*
X5500000Y67669542D02*
X5385714Y67612400D01*
X6471428Y67955257D02*
X7214285Y67955257D01*
X7214285Y67955257D02*
X6814285Y67498114D01*
X6814285Y67498114D02*
X6985714Y67498114D01*
X6985714Y67498114D02*
X7100000Y67440971D01*
X7100000Y67440971D02*
X7157142Y67383828D01*
X7157142Y67383828D02*
X7214285Y67269542D01*
X7214285Y67269542D02*
X7214285Y66983828D01*
X7214285Y66983828D02*
X7157142Y66869542D01*
X7157142Y66869542D02*
X7100000Y66812400D01*
X7100000Y66812400D02*
X6985714Y66755257D01*
X6985714Y66755257D02*
X6642857Y66755257D01*
X6642857Y66755257D02*
X6528571Y66812400D01*
X6528571Y66812400D02*
X6471428Y66869542D01*
D10*
X69104761Y89859942D02*
X69009523Y89907561D01*
X69009523Y89907561D02*
X68914285Y90002800D01*
X68914285Y90002800D02*
X68771428Y90145657D01*
X68771428Y90145657D02*
X68676190Y90193276D01*
X68676190Y90193276D02*
X68580952Y90193276D01*
X68628571Y89955180D02*
X68533333Y90002800D01*
X68533333Y90002800D02*
X68438095Y90098038D01*
X68438095Y90098038D02*
X68390476Y90288514D01*
X68390476Y90288514D02*
X68390476Y90621847D01*
X68390476Y90621847D02*
X68438095Y90812323D01*
X68438095Y90812323D02*
X68533333Y90907561D01*
X68533333Y90907561D02*
X68628571Y90955180D01*
X68628571Y90955180D02*
X68819047Y90955180D01*
X68819047Y90955180D02*
X68914285Y90907561D01*
X68914285Y90907561D02*
X69009523Y90812323D01*
X69009523Y90812323D02*
X69057142Y90621847D01*
X69057142Y90621847D02*
X69057142Y90288514D01*
X69057142Y90288514D02*
X69009523Y90098038D01*
X69009523Y90098038D02*
X68914285Y90002800D01*
X68914285Y90002800D02*
X68819047Y89955180D01*
X68819047Y89955180D02*
X68628571Y89955180D01*
X69438095Y90859942D02*
X69485714Y90907561D01*
X69485714Y90907561D02*
X69580952Y90955180D01*
X69580952Y90955180D02*
X69819047Y90955180D01*
X69819047Y90955180D02*
X69914285Y90907561D01*
X69914285Y90907561D02*
X69961904Y90859942D01*
X69961904Y90859942D02*
X70009523Y90764704D01*
X70009523Y90764704D02*
X70009523Y90669466D01*
X70009523Y90669466D02*
X69961904Y90526609D01*
X69961904Y90526609D02*
X69390476Y89955180D01*
X69390476Y89955180D02*
X70009523Y89955180D01*
X55928207Y92867609D02*
X55852017Y92905704D01*
X55852017Y92905704D02*
X55737731Y92905704D01*
X55737731Y92905704D02*
X55623445Y92867609D01*
X55623445Y92867609D02*
X55547255Y92791419D01*
X55547255Y92791419D02*
X55509160Y92715228D01*
X55509160Y92715228D02*
X55471064Y92562847D01*
X55471064Y92562847D02*
X55471064Y92448561D01*
X55471064Y92448561D02*
X55509160Y92296180D01*
X55509160Y92296180D02*
X55547255Y92219990D01*
X55547255Y92219990D02*
X55623445Y92143800D01*
X55623445Y92143800D02*
X55737731Y92105704D01*
X55737731Y92105704D02*
X55813922Y92105704D01*
X55813922Y92105704D02*
X55928207Y92143800D01*
X55928207Y92143800D02*
X55966303Y92181895D01*
X55966303Y92181895D02*
X55966303Y92448561D01*
X55966303Y92448561D02*
X55813922Y92448561D01*
X63981064Y92113800D02*
X64095350Y92075704D01*
X64095350Y92075704D02*
X64285826Y92075704D01*
X64285826Y92075704D02*
X64362017Y92113800D01*
X64362017Y92113800D02*
X64400112Y92151895D01*
X64400112Y92151895D02*
X64438207Y92228085D01*
X64438207Y92228085D02*
X64438207Y92304276D01*
X64438207Y92304276D02*
X64400112Y92380466D01*
X64400112Y92380466D02*
X64362017Y92418561D01*
X64362017Y92418561D02*
X64285826Y92456657D01*
X64285826Y92456657D02*
X64133445Y92494752D01*
X64133445Y92494752D02*
X64057255Y92532847D01*
X64057255Y92532847D02*
X64019160Y92570942D01*
X64019160Y92570942D02*
X63981064Y92647133D01*
X63981064Y92647133D02*
X63981064Y92723323D01*
X63981064Y92723323D02*
X64019160Y92799514D01*
X64019160Y92799514D02*
X64057255Y92837609D01*
X64057255Y92837609D02*
X64133445Y92875704D01*
X64133445Y92875704D02*
X64323922Y92875704D01*
X64323922Y92875704D02*
X64438207Y92837609D01*
X28371080Y83416667D02*
X27847271Y83050000D01*
X28371080Y82788095D02*
X27271080Y82788095D01*
X27271080Y82788095D02*
X27271080Y83207143D01*
X27271080Y83207143D02*
X27323461Y83311905D01*
X27323461Y83311905D02*
X27375842Y83364286D01*
X27375842Y83364286D02*
X27480604Y83416667D01*
X27480604Y83416667D02*
X27637747Y83416667D01*
X27637747Y83416667D02*
X27742509Y83364286D01*
X27742509Y83364286D02*
X27794890Y83311905D01*
X27794890Y83311905D02*
X27847271Y83207143D01*
X27847271Y83207143D02*
X27847271Y82788095D01*
X27375842Y83835714D02*
X27323461Y83888095D01*
X27323461Y83888095D02*
X27271080Y83992857D01*
X27271080Y83992857D02*
X27271080Y84254762D01*
X27271080Y84254762D02*
X27323461Y84359524D01*
X27323461Y84359524D02*
X27375842Y84411905D01*
X27375842Y84411905D02*
X27480604Y84464286D01*
X27480604Y84464286D02*
X27585366Y84464286D01*
X27585366Y84464286D02*
X27742509Y84411905D01*
X27742509Y84411905D02*
X28371080Y83783333D01*
X28371080Y83783333D02*
X28371080Y84464286D01*
X25786667Y74218919D02*
X25420000Y74742728D01*
X25158095Y74218919D02*
X25158095Y75318919D01*
X25158095Y75318919D02*
X25577143Y75318919D01*
X25577143Y75318919D02*
X25681905Y75266538D01*
X25681905Y75266538D02*
X25734286Y75214157D01*
X25734286Y75214157D02*
X25786667Y75109395D01*
X25786667Y75109395D02*
X25786667Y74952252D01*
X25786667Y74952252D02*
X25734286Y74847490D01*
X25734286Y74847490D02*
X25681905Y74795109D01*
X25681905Y74795109D02*
X25577143Y74742728D01*
X25577143Y74742728D02*
X25158095Y74742728D01*
X26415238Y74847490D02*
X26310476Y74899871D01*
X26310476Y74899871D02*
X26258095Y74952252D01*
X26258095Y74952252D02*
X26205714Y75057014D01*
X26205714Y75057014D02*
X26205714Y75109395D01*
X26205714Y75109395D02*
X26258095Y75214157D01*
X26258095Y75214157D02*
X26310476Y75266538D01*
X26310476Y75266538D02*
X26415238Y75318919D01*
X26415238Y75318919D02*
X26624762Y75318919D01*
X26624762Y75318919D02*
X26729524Y75266538D01*
X26729524Y75266538D02*
X26781905Y75214157D01*
X26781905Y75214157D02*
X26834286Y75109395D01*
X26834286Y75109395D02*
X26834286Y75057014D01*
X26834286Y75057014D02*
X26781905Y74952252D01*
X26781905Y74952252D02*
X26729524Y74899871D01*
X26729524Y74899871D02*
X26624762Y74847490D01*
X26624762Y74847490D02*
X26415238Y74847490D01*
X26415238Y74847490D02*
X26310476Y74795109D01*
X26310476Y74795109D02*
X26258095Y74742728D01*
X26258095Y74742728D02*
X26205714Y74637966D01*
X26205714Y74637966D02*
X26205714Y74428442D01*
X26205714Y74428442D02*
X26258095Y74323680D01*
X26258095Y74323680D02*
X26310476Y74271300D01*
X26310476Y74271300D02*
X26415238Y74218919D01*
X26415238Y74218919D02*
X26624762Y74218919D01*
X26624762Y74218919D02*
X26729524Y74271300D01*
X26729524Y74271300D02*
X26781905Y74323680D01*
X26781905Y74323680D02*
X26834286Y74428442D01*
X26834286Y74428442D02*
X26834286Y74637966D01*
X26834286Y74637966D02*
X26781905Y74742728D01*
X26781905Y74742728D02*
X26729524Y74795109D01*
X26729524Y74795109D02*
X26624762Y74847490D01*
X100371080Y83416667D02*
X99847271Y83050000D01*
X100371080Y82788095D02*
X99271080Y82788095D01*
X99271080Y82788095D02*
X99271080Y83207143D01*
X99271080Y83207143D02*
X99323461Y83311905D01*
X99323461Y83311905D02*
X99375842Y83364286D01*
X99375842Y83364286D02*
X99480604Y83416667D01*
X99480604Y83416667D02*
X99637747Y83416667D01*
X99637747Y83416667D02*
X99742509Y83364286D01*
X99742509Y83364286D02*
X99794890Y83311905D01*
X99794890Y83311905D02*
X99847271Y83207143D01*
X99847271Y83207143D02*
X99847271Y82788095D01*
X99271080Y84411905D02*
X99271080Y83888095D01*
X99271080Y83888095D02*
X99794890Y83835714D01*
X99794890Y83835714D02*
X99742509Y83888095D01*
X99742509Y83888095D02*
X99690128Y83992857D01*
X99690128Y83992857D02*
X99690128Y84254762D01*
X99690128Y84254762D02*
X99742509Y84359524D01*
X99742509Y84359524D02*
X99794890Y84411905D01*
X99794890Y84411905D02*
X99899652Y84464286D01*
X99899652Y84464286D02*
X100161557Y84464286D01*
X100161557Y84464286D02*
X100266319Y84411905D01*
X100266319Y84411905D02*
X100318700Y84359524D01*
X100318700Y84359524D02*
X100371080Y84254762D01*
X100371080Y84254762D02*
X100371080Y83992857D01*
X100371080Y83992857D02*
X100318700Y83888095D01*
X100318700Y83888095D02*
X100266319Y83835714D01*
X92631080Y9692857D02*
X92107271Y9326190D01*
X92631080Y9064285D02*
X91531080Y9064285D01*
X91531080Y9064285D02*
X91531080Y9483333D01*
X91531080Y9483333D02*
X91583461Y9588095D01*
X91583461Y9588095D02*
X91635842Y9640476D01*
X91635842Y9640476D02*
X91740604Y9692857D01*
X91740604Y9692857D02*
X91897747Y9692857D01*
X91897747Y9692857D02*
X92002509Y9640476D01*
X92002509Y9640476D02*
X92054890Y9588095D01*
X92054890Y9588095D02*
X92107271Y9483333D01*
X92107271Y9483333D02*
X92107271Y9064285D01*
X92631080Y10740476D02*
X92631080Y10111904D01*
X92631080Y10426190D02*
X91531080Y10426190D01*
X91531080Y10426190D02*
X91688223Y10321428D01*
X91688223Y10321428D02*
X91792985Y10216666D01*
X91792985Y10216666D02*
X91845366Y10111904D01*
X91531080Y11107142D02*
X91531080Y11840476D01*
X91531080Y11840476D02*
X92631080Y11369047D01*
X44631080Y9692857D02*
X44107271Y9326190D01*
X44631080Y9064285D02*
X43531080Y9064285D01*
X43531080Y9064285D02*
X43531080Y9483333D01*
X43531080Y9483333D02*
X43583461Y9588095D01*
X43583461Y9588095D02*
X43635842Y9640476D01*
X43635842Y9640476D02*
X43740604Y9692857D01*
X43740604Y9692857D02*
X43897747Y9692857D01*
X43897747Y9692857D02*
X44002509Y9640476D01*
X44002509Y9640476D02*
X44054890Y9588095D01*
X44054890Y9588095D02*
X44107271Y9483333D01*
X44107271Y9483333D02*
X44107271Y9064285D01*
X44631080Y10740476D02*
X44631080Y10111904D01*
X44631080Y10426190D02*
X43531080Y10426190D01*
X43531080Y10426190D02*
X43688223Y10321428D01*
X43688223Y10321428D02*
X43792985Y10216666D01*
X43792985Y10216666D02*
X43845366Y10111904D01*
X43531080Y11735714D02*
X43531080Y11211904D01*
X43531080Y11211904D02*
X44054890Y11159523D01*
X44054890Y11159523D02*
X44002509Y11211904D01*
X44002509Y11211904D02*
X43950128Y11316666D01*
X43950128Y11316666D02*
X43950128Y11578571D01*
X43950128Y11578571D02*
X44002509Y11683333D01*
X44002509Y11683333D02*
X44054890Y11735714D01*
X44054890Y11735714D02*
X44159652Y11788095D01*
X44159652Y11788095D02*
X44421557Y11788095D01*
X44421557Y11788095D02*
X44526319Y11735714D01*
X44526319Y11735714D02*
X44578700Y11683333D01*
X44578700Y11683333D02*
X44631080Y11578571D01*
X44631080Y11578571D02*
X44631080Y11316666D01*
X44631080Y11316666D02*
X44578700Y11211904D01*
X44578700Y11211904D02*
X44526319Y11159523D01*
X126872857Y14618919D02*
X126506190Y15142728D01*
X126244285Y14618919D02*
X126244285Y15718919D01*
X126244285Y15718919D02*
X126663333Y15718919D01*
X126663333Y15718919D02*
X126768095Y15666538D01*
X126768095Y15666538D02*
X126820476Y15614157D01*
X126820476Y15614157D02*
X126872857Y15509395D01*
X126872857Y15509395D02*
X126872857Y15352252D01*
X126872857Y15352252D02*
X126820476Y15247490D01*
X126820476Y15247490D02*
X126768095Y15195109D01*
X126768095Y15195109D02*
X126663333Y15142728D01*
X126663333Y15142728D02*
X126244285Y15142728D01*
X127920476Y14618919D02*
X127291904Y14618919D01*
X127606190Y14618919D02*
X127606190Y15718919D01*
X127606190Y15718919D02*
X127501428Y15561776D01*
X127501428Y15561776D02*
X127396666Y15457014D01*
X127396666Y15457014D02*
X127291904Y15404633D01*
X128444285Y14618919D02*
X128653809Y14618919D01*
X128653809Y14618919D02*
X128758571Y14671300D01*
X128758571Y14671300D02*
X128810952Y14723680D01*
X128810952Y14723680D02*
X128915714Y14880823D01*
X128915714Y14880823D02*
X128968095Y15090347D01*
X128968095Y15090347D02*
X128968095Y15509395D01*
X128968095Y15509395D02*
X128915714Y15614157D01*
X128915714Y15614157D02*
X128863333Y15666538D01*
X128863333Y15666538D02*
X128758571Y15718919D01*
X128758571Y15718919D02*
X128549047Y15718919D01*
X128549047Y15718919D02*
X128444285Y15666538D01*
X128444285Y15666538D02*
X128391904Y15614157D01*
X128391904Y15614157D02*
X128339523Y15509395D01*
X128339523Y15509395D02*
X128339523Y15247490D01*
X128339523Y15247490D02*
X128391904Y15142728D01*
X128391904Y15142728D02*
X128444285Y15090347D01*
X128444285Y15090347D02*
X128549047Y15037966D01*
X128549047Y15037966D02*
X128758571Y15037966D01*
X128758571Y15037966D02*
X128863333Y15090347D01*
X128863333Y15090347D02*
X128915714Y15142728D01*
X128915714Y15142728D02*
X128968095Y15247490D01*
D11*
X36214742Y72530000D02*
X35643314Y72130000D01*
X36214742Y71844286D02*
X35014742Y71844286D01*
X35014742Y71844286D02*
X35014742Y72301429D01*
X35014742Y72301429D02*
X35071885Y72415714D01*
X35071885Y72415714D02*
X35129028Y72472857D01*
X35129028Y72472857D02*
X35243314Y72530000D01*
X35243314Y72530000D02*
X35414742Y72530000D01*
X35414742Y72530000D02*
X35529028Y72472857D01*
X35529028Y72472857D02*
X35586171Y72415714D01*
X35586171Y72415714D02*
X35643314Y72301429D01*
X35643314Y72301429D02*
X35643314Y71844286D01*
X36214742Y73101429D02*
X36214742Y73330000D01*
X36214742Y73330000D02*
X36157600Y73444286D01*
X36157600Y73444286D02*
X36100457Y73501429D01*
X36100457Y73501429D02*
X35929028Y73615714D01*
X35929028Y73615714D02*
X35700457Y73672857D01*
X35700457Y73672857D02*
X35243314Y73672857D01*
X35243314Y73672857D02*
X35129028Y73615714D01*
X35129028Y73615714D02*
X35071885Y73558572D01*
X35071885Y73558572D02*
X35014742Y73444286D01*
X35014742Y73444286D02*
X35014742Y73215714D01*
X35014742Y73215714D02*
X35071885Y73101429D01*
X35071885Y73101429D02*
X35129028Y73044286D01*
X35129028Y73044286D02*
X35243314Y72987143D01*
X35243314Y72987143D02*
X35529028Y72987143D01*
X35529028Y72987143D02*
X35643314Y73044286D01*
X35643314Y73044286D02*
X35700457Y73101429D01*
X35700457Y73101429D02*
X35757600Y73215714D01*
X35757600Y73215714D02*
X35757600Y73444286D01*
X35757600Y73444286D02*
X35700457Y73558572D01*
X35700457Y73558572D02*
X35643314Y73615714D01*
X35643314Y73615714D02*
X35529028Y73672857D01*
D10*
X9197142Y82396942D02*
X9139999Y82339800D01*
X9139999Y82339800D02*
X8968571Y82282657D01*
X8968571Y82282657D02*
X8854285Y82282657D01*
X8854285Y82282657D02*
X8682856Y82339800D01*
X8682856Y82339800D02*
X8568571Y82454085D01*
X8568571Y82454085D02*
X8511428Y82568371D01*
X8511428Y82568371D02*
X8454285Y82796942D01*
X8454285Y82796942D02*
X8454285Y82968371D01*
X8454285Y82968371D02*
X8511428Y83196942D01*
X8511428Y83196942D02*
X8568571Y83311228D01*
X8568571Y83311228D02*
X8682856Y83425514D01*
X8682856Y83425514D02*
X8854285Y83482657D01*
X8854285Y83482657D02*
X8968571Y83482657D01*
X8968571Y83482657D02*
X9139999Y83425514D01*
X9139999Y83425514D02*
X9197142Y83368371D01*
X9711428Y82282657D02*
X9711428Y83482657D01*
X9711428Y82911228D02*
X10397142Y82911228D01*
X10397142Y82282657D02*
X10397142Y83482657D01*
X10682857Y82168371D02*
X11597142Y82168371D01*
X11882857Y82282657D02*
X11882857Y83482657D01*
X11882857Y82911228D02*
X12568571Y82911228D01*
X12568571Y82282657D02*
X12568571Y83482657D01*
D11*
X97154742Y19768571D02*
X96583314Y19368571D01*
X97154742Y19082857D02*
X95954742Y19082857D01*
X95954742Y19082857D02*
X95954742Y19540000D01*
X95954742Y19540000D02*
X96011885Y19654285D01*
X96011885Y19654285D02*
X96069028Y19711428D01*
X96069028Y19711428D02*
X96183314Y19768571D01*
X96183314Y19768571D02*
X96354742Y19768571D01*
X96354742Y19768571D02*
X96469028Y19711428D01*
X96469028Y19711428D02*
X96526171Y19654285D01*
X96526171Y19654285D02*
X96583314Y19540000D01*
X96583314Y19540000D02*
X96583314Y19082857D01*
X96069028Y20225714D02*
X96011885Y20282857D01*
X96011885Y20282857D02*
X95954742Y20397143D01*
X95954742Y20397143D02*
X95954742Y20682857D01*
X95954742Y20682857D02*
X96011885Y20797143D01*
X96011885Y20797143D02*
X96069028Y20854285D01*
X96069028Y20854285D02*
X96183314Y20911428D01*
X96183314Y20911428D02*
X96297600Y20911428D01*
X96297600Y20911428D02*
X96469028Y20854285D01*
X96469028Y20854285D02*
X97154742Y20168571D01*
X97154742Y20168571D02*
X97154742Y20911428D01*
X95954742Y21997142D02*
X95954742Y21425714D01*
X95954742Y21425714D02*
X96526171Y21368571D01*
X96526171Y21368571D02*
X96469028Y21425714D01*
X96469028Y21425714D02*
X96411885Y21540000D01*
X96411885Y21540000D02*
X96411885Y21825714D01*
X96411885Y21825714D02*
X96469028Y21940000D01*
X96469028Y21940000D02*
X96526171Y21997142D01*
X96526171Y21997142D02*
X96640457Y22054285D01*
X96640457Y22054285D02*
X96926171Y22054285D01*
X96926171Y22054285D02*
X97040457Y21997142D01*
X97040457Y21997142D02*
X97097600Y21940000D01*
X97097600Y21940000D02*
X97154742Y21825714D01*
X97154742Y21825714D02*
X97154742Y21540000D01*
X97154742Y21540000D02*
X97097600Y21425714D01*
X97097600Y21425714D02*
X97040457Y21368571D01*
D10*
X50614761Y2939942D02*
X50519523Y2987561D01*
X50519523Y2987561D02*
X50424285Y3082800D01*
X50424285Y3082800D02*
X50281428Y3225657D01*
X50281428Y3225657D02*
X50186190Y3273276D01*
X50186190Y3273276D02*
X50090952Y3273276D01*
X50138571Y3035180D02*
X50043333Y3082800D01*
X50043333Y3082800D02*
X49948095Y3178038D01*
X49948095Y3178038D02*
X49900476Y3368514D01*
X49900476Y3368514D02*
X49900476Y3701847D01*
X49900476Y3701847D02*
X49948095Y3892323D01*
X49948095Y3892323D02*
X50043333Y3987561D01*
X50043333Y3987561D02*
X50138571Y4035180D01*
X50138571Y4035180D02*
X50329047Y4035180D01*
X50329047Y4035180D02*
X50424285Y3987561D01*
X50424285Y3987561D02*
X50519523Y3892323D01*
X50519523Y3892323D02*
X50567142Y3701847D01*
X50567142Y3701847D02*
X50567142Y3368514D01*
X50567142Y3368514D02*
X50519523Y3178038D01*
X50519523Y3178038D02*
X50424285Y3082800D01*
X50424285Y3082800D02*
X50329047Y3035180D01*
X50329047Y3035180D02*
X50138571Y3035180D01*
X51424285Y4035180D02*
X51233809Y4035180D01*
X51233809Y4035180D02*
X51138571Y3987561D01*
X51138571Y3987561D02*
X51090952Y3939942D01*
X51090952Y3939942D02*
X50995714Y3797085D01*
X50995714Y3797085D02*
X50948095Y3606609D01*
X50948095Y3606609D02*
X50948095Y3225657D01*
X50948095Y3225657D02*
X50995714Y3130419D01*
X50995714Y3130419D02*
X51043333Y3082800D01*
X51043333Y3082800D02*
X51138571Y3035180D01*
X51138571Y3035180D02*
X51329047Y3035180D01*
X51329047Y3035180D02*
X51424285Y3082800D01*
X51424285Y3082800D02*
X51471904Y3130419D01*
X51471904Y3130419D02*
X51519523Y3225657D01*
X51519523Y3225657D02*
X51519523Y3463752D01*
X51519523Y3463752D02*
X51471904Y3558990D01*
X51471904Y3558990D02*
X51424285Y3606609D01*
X51424285Y3606609D02*
X51329047Y3654228D01*
X51329047Y3654228D02*
X51138571Y3654228D01*
X51138571Y3654228D02*
X51043333Y3606609D01*
X51043333Y3606609D02*
X50995714Y3558990D01*
X50995714Y3558990D02*
X50948095Y3463752D01*
X56018935Y1886200D02*
X55904649Y1924295D01*
X55904649Y1924295D02*
X55714173Y1924295D01*
X55714173Y1924295D02*
X55637982Y1886200D01*
X55637982Y1886200D02*
X55599887Y1848104D01*
X55599887Y1848104D02*
X55561792Y1771914D01*
X55561792Y1771914D02*
X55561792Y1695723D01*
X55561792Y1695723D02*
X55599887Y1619533D01*
X55599887Y1619533D02*
X55637982Y1581438D01*
X55637982Y1581438D02*
X55714173Y1543342D01*
X55714173Y1543342D02*
X55866554Y1505247D01*
X55866554Y1505247D02*
X55942744Y1467152D01*
X55942744Y1467152D02*
X55980839Y1429057D01*
X55980839Y1429057D02*
X56018935Y1352866D01*
X56018935Y1352866D02*
X56018935Y1276676D01*
X56018935Y1276676D02*
X55980839Y1200485D01*
X55980839Y1200485D02*
X55942744Y1162390D01*
X55942744Y1162390D02*
X55866554Y1124295D01*
X55866554Y1124295D02*
X55676077Y1124295D01*
X55676077Y1124295D02*
X55561792Y1162390D01*
X64071792Y1132390D02*
X64147982Y1094295D01*
X64147982Y1094295D02*
X64262268Y1094295D01*
X64262268Y1094295D02*
X64376554Y1132390D01*
X64376554Y1132390D02*
X64452744Y1208580D01*
X64452744Y1208580D02*
X64490839Y1284771D01*
X64490839Y1284771D02*
X64528935Y1437152D01*
X64528935Y1437152D02*
X64528935Y1551438D01*
X64528935Y1551438D02*
X64490839Y1703819D01*
X64490839Y1703819D02*
X64452744Y1780009D01*
X64452744Y1780009D02*
X64376554Y1856200D01*
X64376554Y1856200D02*
X64262268Y1894295D01*
X64262268Y1894295D02*
X64186077Y1894295D01*
X64186077Y1894295D02*
X64071792Y1856200D01*
X64071792Y1856200D02*
X64033696Y1818104D01*
X64033696Y1818104D02*
X64033696Y1551438D01*
X64033696Y1551438D02*
X64186077Y1551438D01*
X4050222Y43823714D02*
X4050222Y45023714D01*
X4621651Y43823714D02*
X4621651Y45023714D01*
X4621651Y45023714D02*
X5307365Y43823714D01*
X5307365Y43823714D02*
X5307365Y45023714D01*
X5593080Y43709428D02*
X6507365Y43709428D01*
X7364508Y43823714D02*
X6793080Y43823714D01*
X6793080Y43823714D02*
X6793080Y45023714D01*
D11*
X4168504Y27184299D02*
X4168504Y26277156D01*
X4168504Y26277156D02*
X4108027Y26095728D01*
X4108027Y26095728D02*
X3987075Y25974776D01*
X3987075Y25974776D02*
X3805646Y25914299D01*
X3805646Y25914299D02*
X3684694Y25914299D01*
X5317551Y27184299D02*
X5075646Y27184299D01*
X5075646Y27184299D02*
X4954694Y27123823D01*
X4954694Y27123823D02*
X4894218Y27063347D01*
X4894218Y27063347D02*
X4773265Y26881918D01*
X4773265Y26881918D02*
X4712789Y26640014D01*
X4712789Y26640014D02*
X4712789Y26156204D01*
X4712789Y26156204D02*
X4773265Y26035252D01*
X4773265Y26035252D02*
X4833742Y25974776D01*
X4833742Y25974776D02*
X4954694Y25914299D01*
X4954694Y25914299D02*
X5196599Y25914299D01*
X5196599Y25914299D02*
X5317551Y25974776D01*
X5317551Y25974776D02*
X5378027Y26035252D01*
X5378027Y26035252D02*
X5438504Y26156204D01*
X5438504Y26156204D02*
X5438504Y26458585D01*
X5438504Y26458585D02*
X5378027Y26579537D01*
X5378027Y26579537D02*
X5317551Y26640014D01*
X5317551Y26640014D02*
X5196599Y26700490D01*
X5196599Y26700490D02*
X4954694Y26700490D01*
X4954694Y26700490D02*
X4833742Y26640014D01*
X4833742Y26640014D02*
X4773265Y26579537D01*
X4773265Y26579537D02*
X4712789Y26458585D01*
D10*
X117164761Y89959942D02*
X117069523Y90007561D01*
X117069523Y90007561D02*
X116974285Y90102800D01*
X116974285Y90102800D02*
X116831428Y90245657D01*
X116831428Y90245657D02*
X116736190Y90293276D01*
X116736190Y90293276D02*
X116640952Y90293276D01*
X116688571Y90055180D02*
X116593333Y90102800D01*
X116593333Y90102800D02*
X116498095Y90198038D01*
X116498095Y90198038D02*
X116450476Y90388514D01*
X116450476Y90388514D02*
X116450476Y90721847D01*
X116450476Y90721847D02*
X116498095Y90912323D01*
X116498095Y90912323D02*
X116593333Y91007561D01*
X116593333Y91007561D02*
X116688571Y91055180D01*
X116688571Y91055180D02*
X116879047Y91055180D01*
X116879047Y91055180D02*
X116974285Y91007561D01*
X116974285Y91007561D02*
X117069523Y90912323D01*
X117069523Y90912323D02*
X117117142Y90721847D01*
X117117142Y90721847D02*
X117117142Y90388514D01*
X117117142Y90388514D02*
X117069523Y90198038D01*
X117069523Y90198038D02*
X116974285Y90102800D01*
X116974285Y90102800D02*
X116879047Y90055180D01*
X116879047Y90055180D02*
X116688571Y90055180D01*
X117974285Y90721847D02*
X117974285Y90055180D01*
X117736190Y91102800D02*
X117498095Y90388514D01*
X117498095Y90388514D02*
X118117142Y90388514D01*
X103928207Y92867609D02*
X103852017Y92905704D01*
X103852017Y92905704D02*
X103737731Y92905704D01*
X103737731Y92905704D02*
X103623445Y92867609D01*
X103623445Y92867609D02*
X103547255Y92791419D01*
X103547255Y92791419D02*
X103509160Y92715228D01*
X103509160Y92715228D02*
X103471064Y92562847D01*
X103471064Y92562847D02*
X103471064Y92448561D01*
X103471064Y92448561D02*
X103509160Y92296180D01*
X103509160Y92296180D02*
X103547255Y92219990D01*
X103547255Y92219990D02*
X103623445Y92143800D01*
X103623445Y92143800D02*
X103737731Y92105704D01*
X103737731Y92105704D02*
X103813922Y92105704D01*
X103813922Y92105704D02*
X103928207Y92143800D01*
X103928207Y92143800D02*
X103966303Y92181895D01*
X103966303Y92181895D02*
X103966303Y92448561D01*
X103966303Y92448561D02*
X103813922Y92448561D01*
X111981064Y92113800D02*
X112095350Y92075704D01*
X112095350Y92075704D02*
X112285826Y92075704D01*
X112285826Y92075704D02*
X112362017Y92113800D01*
X112362017Y92113800D02*
X112400112Y92151895D01*
X112400112Y92151895D02*
X112438207Y92228085D01*
X112438207Y92228085D02*
X112438207Y92304276D01*
X112438207Y92304276D02*
X112400112Y92380466D01*
X112400112Y92380466D02*
X112362017Y92418561D01*
X112362017Y92418561D02*
X112285826Y92456657D01*
X112285826Y92456657D02*
X112133445Y92494752D01*
X112133445Y92494752D02*
X112057255Y92532847D01*
X112057255Y92532847D02*
X112019160Y92570942D01*
X112019160Y92570942D02*
X111981064Y92647133D01*
X111981064Y92647133D02*
X111981064Y92723323D01*
X111981064Y92723323D02*
X112019160Y92799514D01*
X112019160Y92799514D02*
X112057255Y92837609D01*
X112057255Y92837609D02*
X112133445Y92875704D01*
X112133445Y92875704D02*
X112323922Y92875704D01*
X112323922Y92875704D02*
X112438207Y92837609D01*
X1995714Y82282657D02*
X1995714Y83482657D01*
X2567143Y82282657D02*
X2567143Y83482657D01*
X2567143Y83482657D02*
X3252857Y82282657D01*
X3252857Y82282657D02*
X3252857Y83482657D01*
X3538572Y82168371D02*
X4452857Y82168371D01*
X4738572Y82282657D02*
X4738572Y83482657D01*
X4738572Y82911228D02*
X5424286Y82911228D01*
X5424286Y82282657D02*
X5424286Y83482657D01*
D11*
X123716667Y58622873D02*
X123716667Y57715730D01*
X123716667Y57715730D02*
X123656190Y57534302D01*
X123656190Y57534302D02*
X123535238Y57413350D01*
X123535238Y57413350D02*
X123353809Y57352873D01*
X123353809Y57352873D02*
X123232857Y57352873D01*
X124865714Y58199540D02*
X124865714Y57352873D01*
X124563333Y58683350D02*
X124260952Y57776207D01*
X124260952Y57776207D02*
X125047143Y57776207D01*
D10*
X121804285Y51502657D02*
X122032857Y51502657D01*
X122032857Y51502657D02*
X122147142Y51445514D01*
X122147142Y51445514D02*
X122261428Y51331228D01*
X122261428Y51331228D02*
X122318571Y51102657D01*
X122318571Y51102657D02*
X122318571Y50702657D01*
X122318571Y50702657D02*
X122261428Y50474085D01*
X122261428Y50474085D02*
X122147142Y50359800D01*
X122147142Y50359800D02*
X122032857Y50302657D01*
X122032857Y50302657D02*
X121804285Y50302657D01*
X121804285Y50302657D02*
X121690000Y50359800D01*
X121690000Y50359800D02*
X121575714Y50474085D01*
X121575714Y50474085D02*
X121518571Y50702657D01*
X121518571Y50702657D02*
X121518571Y51102657D01*
X121518571Y51102657D02*
X121575714Y51331228D01*
X121575714Y51331228D02*
X121690000Y51445514D01*
X121690000Y51445514D02*
X121804285Y51502657D01*
X122832857Y51502657D02*
X122832857Y50531228D01*
X122832857Y50531228D02*
X122890000Y50416942D01*
X122890000Y50416942D02*
X122947143Y50359800D01*
X122947143Y50359800D02*
X123061428Y50302657D01*
X123061428Y50302657D02*
X123290000Y50302657D01*
X123290000Y50302657D02*
X123404285Y50359800D01*
X123404285Y50359800D02*
X123461428Y50416942D01*
X123461428Y50416942D02*
X123518571Y50531228D01*
X123518571Y50531228D02*
X123518571Y51502657D01*
X123918571Y51502657D02*
X124604286Y51502657D01*
X124261428Y50302657D02*
X124261428Y51502657D01*
X124718572Y50188371D02*
X125632857Y50188371D01*
X125918572Y50302657D02*
X125918572Y51502657D01*
X125918572Y50931228D02*
X126604286Y50931228D01*
X126604286Y50302657D02*
X126604286Y51502657D01*
X116631080Y9692857D02*
X116107271Y9326190D01*
X116631080Y9064285D02*
X115531080Y9064285D01*
X115531080Y9064285D02*
X115531080Y9483333D01*
X115531080Y9483333D02*
X115583461Y9588095D01*
X115583461Y9588095D02*
X115635842Y9640476D01*
X115635842Y9640476D02*
X115740604Y9692857D01*
X115740604Y9692857D02*
X115897747Y9692857D01*
X115897747Y9692857D02*
X116002509Y9640476D01*
X116002509Y9640476D02*
X116054890Y9588095D01*
X116054890Y9588095D02*
X116107271Y9483333D01*
X116107271Y9483333D02*
X116107271Y9064285D01*
X116631080Y10740476D02*
X116631080Y10111904D01*
X116631080Y10426190D02*
X115531080Y10426190D01*
X115531080Y10426190D02*
X115688223Y10321428D01*
X115688223Y10321428D02*
X115792985Y10216666D01*
X115792985Y10216666D02*
X115845366Y10111904D01*
X116002509Y11369047D02*
X115950128Y11264285D01*
X115950128Y11264285D02*
X115897747Y11211904D01*
X115897747Y11211904D02*
X115792985Y11159523D01*
X115792985Y11159523D02*
X115740604Y11159523D01*
X115740604Y11159523D02*
X115635842Y11211904D01*
X115635842Y11211904D02*
X115583461Y11264285D01*
X115583461Y11264285D02*
X115531080Y11369047D01*
X115531080Y11369047D02*
X115531080Y11578571D01*
X115531080Y11578571D02*
X115583461Y11683333D01*
X115583461Y11683333D02*
X115635842Y11735714D01*
X115635842Y11735714D02*
X115740604Y11788095D01*
X115740604Y11788095D02*
X115792985Y11788095D01*
X115792985Y11788095D02*
X115897747Y11735714D01*
X115897747Y11735714D02*
X115950128Y11683333D01*
X115950128Y11683333D02*
X116002509Y11578571D01*
X116002509Y11578571D02*
X116002509Y11369047D01*
X116002509Y11369047D02*
X116054890Y11264285D01*
X116054890Y11264285D02*
X116107271Y11211904D01*
X116107271Y11211904D02*
X116212033Y11159523D01*
X116212033Y11159523D02*
X116421557Y11159523D01*
X116421557Y11159523D02*
X116526319Y11211904D01*
X116526319Y11211904D02*
X116578700Y11264285D01*
X116578700Y11264285D02*
X116631080Y11369047D01*
X116631080Y11369047D02*
X116631080Y11578571D01*
X116631080Y11578571D02*
X116578700Y11683333D01*
X116578700Y11683333D02*
X116526319Y11735714D01*
X116526319Y11735714D02*
X116421557Y11788095D01*
X116421557Y11788095D02*
X116212033Y11788095D01*
X116212033Y11788095D02*
X116107271Y11735714D01*
X116107271Y11735714D02*
X116054890Y11683333D01*
X116054890Y11683333D02*
X116002509Y11578571D01*
D11*
X25154742Y19638571D02*
X24583314Y19238571D01*
X25154742Y18952857D02*
X23954742Y18952857D01*
X23954742Y18952857D02*
X23954742Y19410000D01*
X23954742Y19410000D02*
X24011885Y19524285D01*
X24011885Y19524285D02*
X24069028Y19581428D01*
X24069028Y19581428D02*
X24183314Y19638571D01*
X24183314Y19638571D02*
X24354742Y19638571D01*
X24354742Y19638571D02*
X24469028Y19581428D01*
X24469028Y19581428D02*
X24526171Y19524285D01*
X24526171Y19524285D02*
X24583314Y19410000D01*
X24583314Y19410000D02*
X24583314Y18952857D01*
X24069028Y20095714D02*
X24011885Y20152857D01*
X24011885Y20152857D02*
X23954742Y20267143D01*
X23954742Y20267143D02*
X23954742Y20552857D01*
X23954742Y20552857D02*
X24011885Y20667143D01*
X24011885Y20667143D02*
X24069028Y20724285D01*
X24069028Y20724285D02*
X24183314Y20781428D01*
X24183314Y20781428D02*
X24297600Y20781428D01*
X24297600Y20781428D02*
X24469028Y20724285D01*
X24469028Y20724285D02*
X25154742Y20038571D01*
X25154742Y20038571D02*
X25154742Y20781428D01*
X24069028Y21238571D02*
X24011885Y21295714D01*
X24011885Y21295714D02*
X23954742Y21410000D01*
X23954742Y21410000D02*
X23954742Y21695714D01*
X23954742Y21695714D02*
X24011885Y21810000D01*
X24011885Y21810000D02*
X24069028Y21867142D01*
X24069028Y21867142D02*
X24183314Y21924285D01*
X24183314Y21924285D02*
X24297600Y21924285D01*
X24297600Y21924285D02*
X24469028Y21867142D01*
X24469028Y21867142D02*
X25154742Y21181428D01*
X25154742Y21181428D02*
X25154742Y21924285D01*
D10*
X127376667Y70668919D02*
X127010000Y71192728D01*
X126748095Y70668919D02*
X126748095Y71768919D01*
X126748095Y71768919D02*
X127167143Y71768919D01*
X127167143Y71768919D02*
X127271905Y71716538D01*
X127271905Y71716538D02*
X127324286Y71664157D01*
X127324286Y71664157D02*
X127376667Y71559395D01*
X127376667Y71559395D02*
X127376667Y71402252D01*
X127376667Y71402252D02*
X127324286Y71297490D01*
X127324286Y71297490D02*
X127271905Y71245109D01*
X127271905Y71245109D02*
X127167143Y71192728D01*
X127167143Y71192728D02*
X126748095Y71192728D01*
X128319524Y71768919D02*
X128110000Y71768919D01*
X128110000Y71768919D02*
X128005238Y71716538D01*
X128005238Y71716538D02*
X127952857Y71664157D01*
X127952857Y71664157D02*
X127848095Y71507014D01*
X127848095Y71507014D02*
X127795714Y71297490D01*
X127795714Y71297490D02*
X127795714Y70878442D01*
X127795714Y70878442D02*
X127848095Y70773680D01*
X127848095Y70773680D02*
X127900476Y70721300D01*
X127900476Y70721300D02*
X128005238Y70668919D01*
X128005238Y70668919D02*
X128214762Y70668919D01*
X128214762Y70668919D02*
X128319524Y70721300D01*
X128319524Y70721300D02*
X128371905Y70773680D01*
X128371905Y70773680D02*
X128424286Y70878442D01*
X128424286Y70878442D02*
X128424286Y71140347D01*
X128424286Y71140347D02*
X128371905Y71245109D01*
X128371905Y71245109D02*
X128319524Y71297490D01*
X128319524Y71297490D02*
X128214762Y71349871D01*
X128214762Y71349871D02*
X128005238Y71349871D01*
X128005238Y71349871D02*
X127900476Y71297490D01*
X127900476Y71297490D02*
X127848095Y71245109D01*
X127848095Y71245109D02*
X127795714Y71140347D01*
D11*
X83954742Y71908571D02*
X83383314Y71508571D01*
X83954742Y71222857D02*
X82754742Y71222857D01*
X82754742Y71222857D02*
X82754742Y71680000D01*
X82754742Y71680000D02*
X82811885Y71794285D01*
X82811885Y71794285D02*
X82869028Y71851428D01*
X82869028Y71851428D02*
X82983314Y71908571D01*
X82983314Y71908571D02*
X83154742Y71908571D01*
X83154742Y71908571D02*
X83269028Y71851428D01*
X83269028Y71851428D02*
X83326171Y71794285D01*
X83326171Y71794285D02*
X83383314Y71680000D01*
X83383314Y71680000D02*
X83383314Y71222857D01*
X83954742Y73051428D02*
X83954742Y72365714D01*
X83954742Y72708571D02*
X82754742Y72708571D01*
X82754742Y72708571D02*
X82926171Y72594285D01*
X82926171Y72594285D02*
X83040457Y72480000D01*
X83040457Y72480000D02*
X83097600Y72365714D01*
X83954742Y74194285D02*
X83954742Y73508571D01*
X83954742Y73851428D02*
X82754742Y73851428D01*
X82754742Y73851428D02*
X82926171Y73737142D01*
X82926171Y73737142D02*
X83040457Y73622857D01*
X83040457Y73622857D02*
X83097600Y73508571D01*
D10*
X33006319Y62726667D02*
X33058700Y62674286D01*
X33058700Y62674286D02*
X33111080Y62517143D01*
X33111080Y62517143D02*
X33111080Y62412381D01*
X33111080Y62412381D02*
X33058700Y62255238D01*
X33058700Y62255238D02*
X32953938Y62150476D01*
X32953938Y62150476D02*
X32849176Y62098095D01*
X32849176Y62098095D02*
X32639652Y62045714D01*
X32639652Y62045714D02*
X32482509Y62045714D01*
X32482509Y62045714D02*
X32272985Y62098095D01*
X32272985Y62098095D02*
X32168223Y62150476D01*
X32168223Y62150476D02*
X32063461Y62255238D01*
X32063461Y62255238D02*
X32011080Y62412381D01*
X32011080Y62412381D02*
X32011080Y62517143D01*
X32011080Y62517143D02*
X32063461Y62674286D01*
X32063461Y62674286D02*
X32115842Y62726667D01*
X32011080Y63093333D02*
X32011080Y63774286D01*
X32011080Y63774286D02*
X32430128Y63407619D01*
X32430128Y63407619D02*
X32430128Y63564762D01*
X32430128Y63564762D02*
X32482509Y63669524D01*
X32482509Y63669524D02*
X32534890Y63721905D01*
X32534890Y63721905D02*
X32639652Y63774286D01*
X32639652Y63774286D02*
X32901557Y63774286D01*
X32901557Y63774286D02*
X33006319Y63721905D01*
X33006319Y63721905D02*
X33058700Y63669524D01*
X33058700Y63669524D02*
X33111080Y63564762D01*
X33111080Y63564762D02*
X33111080Y63250476D01*
X33111080Y63250476D02*
X33058700Y63145714D01*
X33058700Y63145714D02*
X33006319Y63093333D01*
X74604761Y2699942D02*
X74509523Y2747561D01*
X74509523Y2747561D02*
X74414285Y2842800D01*
X74414285Y2842800D02*
X74271428Y2985657D01*
X74271428Y2985657D02*
X74176190Y3033276D01*
X74176190Y3033276D02*
X74080952Y3033276D01*
X74128571Y2795180D02*
X74033333Y2842800D01*
X74033333Y2842800D02*
X73938095Y2938038D01*
X73938095Y2938038D02*
X73890476Y3128514D01*
X73890476Y3128514D02*
X73890476Y3461847D01*
X73890476Y3461847D02*
X73938095Y3652323D01*
X73938095Y3652323D02*
X74033333Y3747561D01*
X74033333Y3747561D02*
X74128571Y3795180D01*
X74128571Y3795180D02*
X74319047Y3795180D01*
X74319047Y3795180D02*
X74414285Y3747561D01*
X74414285Y3747561D02*
X74509523Y3652323D01*
X74509523Y3652323D02*
X74557142Y3461847D01*
X74557142Y3461847D02*
X74557142Y3128514D01*
X74557142Y3128514D02*
X74509523Y2938038D01*
X74509523Y2938038D02*
X74414285Y2842800D01*
X74414285Y2842800D02*
X74319047Y2795180D01*
X74319047Y2795180D02*
X74128571Y2795180D01*
X74890476Y3795180D02*
X75557142Y3795180D01*
X75557142Y3795180D02*
X75128571Y2795180D01*
X80018935Y1886200D02*
X79904649Y1924295D01*
X79904649Y1924295D02*
X79714173Y1924295D01*
X79714173Y1924295D02*
X79637982Y1886200D01*
X79637982Y1886200D02*
X79599887Y1848104D01*
X79599887Y1848104D02*
X79561792Y1771914D01*
X79561792Y1771914D02*
X79561792Y1695723D01*
X79561792Y1695723D02*
X79599887Y1619533D01*
X79599887Y1619533D02*
X79637982Y1581438D01*
X79637982Y1581438D02*
X79714173Y1543342D01*
X79714173Y1543342D02*
X79866554Y1505247D01*
X79866554Y1505247D02*
X79942744Y1467152D01*
X79942744Y1467152D02*
X79980839Y1429057D01*
X79980839Y1429057D02*
X80018935Y1352866D01*
X80018935Y1352866D02*
X80018935Y1276676D01*
X80018935Y1276676D02*
X79980839Y1200485D01*
X79980839Y1200485D02*
X79942744Y1162390D01*
X79942744Y1162390D02*
X79866554Y1124295D01*
X79866554Y1124295D02*
X79676077Y1124295D01*
X79676077Y1124295D02*
X79561792Y1162390D01*
X88071792Y1132390D02*
X88147982Y1094295D01*
X88147982Y1094295D02*
X88262268Y1094295D01*
X88262268Y1094295D02*
X88376554Y1132390D01*
X88376554Y1132390D02*
X88452744Y1208580D01*
X88452744Y1208580D02*
X88490839Y1284771D01*
X88490839Y1284771D02*
X88528935Y1437152D01*
X88528935Y1437152D02*
X88528935Y1551438D01*
X88528935Y1551438D02*
X88490839Y1703819D01*
X88490839Y1703819D02*
X88452744Y1780009D01*
X88452744Y1780009D02*
X88376554Y1856200D01*
X88376554Y1856200D02*
X88262268Y1894295D01*
X88262268Y1894295D02*
X88186077Y1894295D01*
X88186077Y1894295D02*
X88071792Y1856200D01*
X88071792Y1856200D02*
X88033696Y1818104D01*
X88033696Y1818104D02*
X88033696Y1551438D01*
X88033696Y1551438D02*
X88186077Y1551438D01*
X5912857Y14448919D02*
X5546190Y14972728D01*
X5284285Y14448919D02*
X5284285Y15548919D01*
X5284285Y15548919D02*
X5703333Y15548919D01*
X5703333Y15548919D02*
X5808095Y15496538D01*
X5808095Y15496538D02*
X5860476Y15444157D01*
X5860476Y15444157D02*
X5912857Y15339395D01*
X5912857Y15339395D02*
X5912857Y15182252D01*
X5912857Y15182252D02*
X5860476Y15077490D01*
X5860476Y15077490D02*
X5808095Y15025109D01*
X5808095Y15025109D02*
X5703333Y14972728D01*
X5703333Y14972728D02*
X5284285Y14972728D01*
X6331904Y15444157D02*
X6384285Y15496538D01*
X6384285Y15496538D02*
X6489047Y15548919D01*
X6489047Y15548919D02*
X6750952Y15548919D01*
X6750952Y15548919D02*
X6855714Y15496538D01*
X6855714Y15496538D02*
X6908095Y15444157D01*
X6908095Y15444157D02*
X6960476Y15339395D01*
X6960476Y15339395D02*
X6960476Y15234633D01*
X6960476Y15234633D02*
X6908095Y15077490D01*
X6908095Y15077490D02*
X6279523Y14448919D01*
X6279523Y14448919D02*
X6960476Y14448919D01*
X8008095Y14448919D02*
X7379523Y14448919D01*
X7693809Y14448919D02*
X7693809Y15548919D01*
X7693809Y15548919D02*
X7589047Y15391776D01*
X7589047Y15391776D02*
X7484285Y15287014D01*
X7484285Y15287014D02*
X7379523Y15234633D01*
X124816667Y65753680D02*
X124764286Y65701300D01*
X124764286Y65701300D02*
X124607143Y65648919D01*
X124607143Y65648919D02*
X124502381Y65648919D01*
X124502381Y65648919D02*
X124345238Y65701300D01*
X124345238Y65701300D02*
X124240476Y65806061D01*
X124240476Y65806061D02*
X124188095Y65910823D01*
X124188095Y65910823D02*
X124135714Y66120347D01*
X124135714Y66120347D02*
X124135714Y66277490D01*
X124135714Y66277490D02*
X124188095Y66487014D01*
X124188095Y66487014D02*
X124240476Y66591776D01*
X124240476Y66591776D02*
X124345238Y66696538D01*
X124345238Y66696538D02*
X124502381Y66748919D01*
X124502381Y66748919D02*
X124607143Y66748919D01*
X124607143Y66748919D02*
X124764286Y66696538D01*
X124764286Y66696538D02*
X124816667Y66644157D01*
X125235714Y66644157D02*
X125288095Y66696538D01*
X125288095Y66696538D02*
X125392857Y66748919D01*
X125392857Y66748919D02*
X125654762Y66748919D01*
X125654762Y66748919D02*
X125759524Y66696538D01*
X125759524Y66696538D02*
X125811905Y66644157D01*
X125811905Y66644157D02*
X125864286Y66539395D01*
X125864286Y66539395D02*
X125864286Y66434633D01*
X125864286Y66434633D02*
X125811905Y66277490D01*
X125811905Y66277490D02*
X125183333Y65648919D01*
X125183333Y65648919D02*
X125864286Y65648919D01*
D11*
X73154742Y19838571D02*
X72583314Y19438571D01*
X73154742Y19152857D02*
X71954742Y19152857D01*
X71954742Y19152857D02*
X71954742Y19610000D01*
X71954742Y19610000D02*
X72011885Y19724285D01*
X72011885Y19724285D02*
X72069028Y19781428D01*
X72069028Y19781428D02*
X72183314Y19838571D01*
X72183314Y19838571D02*
X72354742Y19838571D01*
X72354742Y19838571D02*
X72469028Y19781428D01*
X72469028Y19781428D02*
X72526171Y19724285D01*
X72526171Y19724285D02*
X72583314Y19610000D01*
X72583314Y19610000D02*
X72583314Y19152857D01*
X72069028Y20295714D02*
X72011885Y20352857D01*
X72011885Y20352857D02*
X71954742Y20467143D01*
X71954742Y20467143D02*
X71954742Y20752857D01*
X71954742Y20752857D02*
X72011885Y20867143D01*
X72011885Y20867143D02*
X72069028Y20924285D01*
X72069028Y20924285D02*
X72183314Y20981428D01*
X72183314Y20981428D02*
X72297600Y20981428D01*
X72297600Y20981428D02*
X72469028Y20924285D01*
X72469028Y20924285D02*
X73154742Y20238571D01*
X73154742Y20238571D02*
X73154742Y20981428D01*
X72354742Y22010000D02*
X73154742Y22010000D01*
X71897600Y21724285D02*
X72754742Y21438571D01*
X72754742Y21438571D02*
X72754742Y22181428D01*
X59924742Y71908571D02*
X59353314Y71508571D01*
X59924742Y71222857D02*
X58724742Y71222857D01*
X58724742Y71222857D02*
X58724742Y71680000D01*
X58724742Y71680000D02*
X58781885Y71794285D01*
X58781885Y71794285D02*
X58839028Y71851428D01*
X58839028Y71851428D02*
X58953314Y71908571D01*
X58953314Y71908571D02*
X59124742Y71908571D01*
X59124742Y71908571D02*
X59239028Y71851428D01*
X59239028Y71851428D02*
X59296171Y71794285D01*
X59296171Y71794285D02*
X59353314Y71680000D01*
X59353314Y71680000D02*
X59353314Y71222857D01*
X59924742Y73051428D02*
X59924742Y72365714D01*
X59924742Y72708571D02*
X58724742Y72708571D01*
X58724742Y72708571D02*
X58896171Y72594285D01*
X58896171Y72594285D02*
X59010457Y72480000D01*
X59010457Y72480000D02*
X59067600Y72365714D01*
X58724742Y73794285D02*
X58724742Y73908571D01*
X58724742Y73908571D02*
X58781885Y74022857D01*
X58781885Y74022857D02*
X58839028Y74080000D01*
X58839028Y74080000D02*
X58953314Y74137142D01*
X58953314Y74137142D02*
X59181885Y74194285D01*
X59181885Y74194285D02*
X59467600Y74194285D01*
X59467600Y74194285D02*
X59696171Y74137142D01*
X59696171Y74137142D02*
X59810457Y74080000D01*
X59810457Y74080000D02*
X59867600Y74022857D01*
X59867600Y74022857D02*
X59924742Y73908571D01*
X59924742Y73908571D02*
X59924742Y73794285D01*
X59924742Y73794285D02*
X59867600Y73680000D01*
X59867600Y73680000D02*
X59810457Y73622857D01*
X59810457Y73622857D02*
X59696171Y73565714D01*
X59696171Y73565714D02*
X59467600Y73508571D01*
X59467600Y73508571D02*
X59181885Y73508571D01*
X59181885Y73508571D02*
X58953314Y73565714D01*
X58953314Y73565714D02*
X58839028Y73622857D01*
X58839028Y73622857D02*
X58781885Y73680000D01*
X58781885Y73680000D02*
X58724742Y73794285D01*
D10*
X20469999Y82306942D02*
X20412856Y82249800D01*
X20412856Y82249800D02*
X20241428Y82192657D01*
X20241428Y82192657D02*
X20127142Y82192657D01*
X20127142Y82192657D02*
X19955713Y82249800D01*
X19955713Y82249800D02*
X19841428Y82364085D01*
X19841428Y82364085D02*
X19784285Y82478371D01*
X19784285Y82478371D02*
X19727142Y82706942D01*
X19727142Y82706942D02*
X19727142Y82878371D01*
X19727142Y82878371D02*
X19784285Y83106942D01*
X19784285Y83106942D02*
X19841428Y83221228D01*
X19841428Y83221228D02*
X19955713Y83335514D01*
X19955713Y83335514D02*
X20127142Y83392657D01*
X20127142Y83392657D02*
X20241428Y83392657D01*
X20241428Y83392657D02*
X20412856Y83335514D01*
X20412856Y83335514D02*
X20469999Y83278371D01*
X20984285Y82192657D02*
X20984285Y83392657D01*
X20984285Y82821228D02*
X21669999Y82821228D01*
X21669999Y82192657D02*
X21669999Y83392657D01*
X21955714Y82078371D02*
X22869999Y82078371D01*
X23727142Y82192657D02*
X23155714Y82192657D01*
X23155714Y82192657D02*
X23155714Y83392657D01*
D11*
X20483571Y37772873D02*
X20060237Y38377635D01*
X19757856Y37772873D02*
X19757856Y39042873D01*
X19757856Y39042873D02*
X20241666Y39042873D01*
X20241666Y39042873D02*
X20362618Y38982397D01*
X20362618Y38982397D02*
X20423095Y38921921D01*
X20423095Y38921921D02*
X20483571Y38800969D01*
X20483571Y38800969D02*
X20483571Y38619540D01*
X20483571Y38619540D02*
X20423095Y38498588D01*
X20423095Y38498588D02*
X20362618Y38438111D01*
X20362618Y38438111D02*
X20241666Y38377635D01*
X20241666Y38377635D02*
X19757856Y38377635D01*
X21693095Y37772873D02*
X20967380Y37772873D01*
X21330237Y37772873D02*
X21330237Y39042873D01*
X21330237Y39042873D02*
X21209285Y38861445D01*
X21209285Y38861445D02*
X21088333Y38740492D01*
X21088333Y38740492D02*
X20967380Y38680016D01*
X22781666Y38619540D02*
X22781666Y37772873D01*
X22479285Y39103350D02*
X22176904Y38196207D01*
X22176904Y38196207D02*
X22963095Y38196207D01*
D10*
X76371080Y83416667D02*
X75847271Y83050000D01*
X76371080Y82788095D02*
X75271080Y82788095D01*
X75271080Y82788095D02*
X75271080Y83207143D01*
X75271080Y83207143D02*
X75323461Y83311905D01*
X75323461Y83311905D02*
X75375842Y83364286D01*
X75375842Y83364286D02*
X75480604Y83416667D01*
X75480604Y83416667D02*
X75637747Y83416667D01*
X75637747Y83416667D02*
X75742509Y83364286D01*
X75742509Y83364286D02*
X75794890Y83311905D01*
X75794890Y83311905D02*
X75847271Y83207143D01*
X75847271Y83207143D02*
X75847271Y82788095D01*
X75637747Y84359524D02*
X76371080Y84359524D01*
X75218700Y84097619D02*
X76004414Y83835714D01*
X76004414Y83835714D02*
X76004414Y84516667D01*
D11*
X124041107Y43636073D02*
X124041107Y42728930D01*
X124041107Y42728930D02*
X123980630Y42547502D01*
X123980630Y42547502D02*
X123859678Y42426550D01*
X123859678Y42426550D02*
X123678249Y42366073D01*
X123678249Y42366073D02*
X123557297Y42366073D01*
X125250630Y43636073D02*
X124645868Y43636073D01*
X124645868Y43636073D02*
X124585392Y43031311D01*
X124585392Y43031311D02*
X124645868Y43091788D01*
X124645868Y43091788D02*
X124766821Y43152264D01*
X124766821Y43152264D02*
X125069202Y43152264D01*
X125069202Y43152264D02*
X125190154Y43091788D01*
X125190154Y43091788D02*
X125250630Y43031311D01*
X125250630Y43031311D02*
X125311107Y42910359D01*
X125311107Y42910359D02*
X125311107Y42607978D01*
X125311107Y42607978D02*
X125250630Y42487026D01*
X125250630Y42487026D02*
X125190154Y42426550D01*
X125190154Y42426550D02*
X125069202Y42366073D01*
X125069202Y42366073D02*
X124766821Y42366073D01*
X124766821Y42366073D02*
X124645868Y42426550D01*
X124645868Y42426550D02*
X124585392Y42487026D01*
D10*
X122077142Y36522657D02*
X122305714Y36522657D01*
X122305714Y36522657D02*
X122419999Y36465514D01*
X122419999Y36465514D02*
X122534285Y36351228D01*
X122534285Y36351228D02*
X122591428Y36122657D01*
X122591428Y36122657D02*
X122591428Y35722657D01*
X122591428Y35722657D02*
X122534285Y35494085D01*
X122534285Y35494085D02*
X122419999Y35379800D01*
X122419999Y35379800D02*
X122305714Y35322657D01*
X122305714Y35322657D02*
X122077142Y35322657D01*
X122077142Y35322657D02*
X121962857Y35379800D01*
X121962857Y35379800D02*
X121848571Y35494085D01*
X121848571Y35494085D02*
X121791428Y35722657D01*
X121791428Y35722657D02*
X121791428Y36122657D01*
X121791428Y36122657D02*
X121848571Y36351228D01*
X121848571Y36351228D02*
X121962857Y36465514D01*
X121962857Y36465514D02*
X122077142Y36522657D01*
X123105714Y36522657D02*
X123105714Y35551228D01*
X123105714Y35551228D02*
X123162857Y35436942D01*
X123162857Y35436942D02*
X123220000Y35379800D01*
X123220000Y35379800D02*
X123334285Y35322657D01*
X123334285Y35322657D02*
X123562857Y35322657D01*
X123562857Y35322657D02*
X123677142Y35379800D01*
X123677142Y35379800D02*
X123734285Y35436942D01*
X123734285Y35436942D02*
X123791428Y35551228D01*
X123791428Y35551228D02*
X123791428Y36522657D01*
X124191428Y36522657D02*
X124877143Y36522657D01*
X124534285Y35322657D02*
X124534285Y36522657D01*
X124991429Y35208371D02*
X125905714Y35208371D01*
X126762857Y35322657D02*
X126191429Y35322657D01*
X126191429Y35322657D02*
X126191429Y36522657D01*
X98684761Y2939942D02*
X98589523Y2987561D01*
X98589523Y2987561D02*
X98494285Y3082800D01*
X98494285Y3082800D02*
X98351428Y3225657D01*
X98351428Y3225657D02*
X98256190Y3273276D01*
X98256190Y3273276D02*
X98160952Y3273276D01*
X98208571Y3035180D02*
X98113333Y3082800D01*
X98113333Y3082800D02*
X98018095Y3178038D01*
X98018095Y3178038D02*
X97970476Y3368514D01*
X97970476Y3368514D02*
X97970476Y3701847D01*
X97970476Y3701847D02*
X98018095Y3892323D01*
X98018095Y3892323D02*
X98113333Y3987561D01*
X98113333Y3987561D02*
X98208571Y4035180D01*
X98208571Y4035180D02*
X98399047Y4035180D01*
X98399047Y4035180D02*
X98494285Y3987561D01*
X98494285Y3987561D02*
X98589523Y3892323D01*
X98589523Y3892323D02*
X98637142Y3701847D01*
X98637142Y3701847D02*
X98637142Y3368514D01*
X98637142Y3368514D02*
X98589523Y3178038D01*
X98589523Y3178038D02*
X98494285Y3082800D01*
X98494285Y3082800D02*
X98399047Y3035180D01*
X98399047Y3035180D02*
X98208571Y3035180D01*
X99208571Y3606609D02*
X99113333Y3654228D01*
X99113333Y3654228D02*
X99065714Y3701847D01*
X99065714Y3701847D02*
X99018095Y3797085D01*
X99018095Y3797085D02*
X99018095Y3844704D01*
X99018095Y3844704D02*
X99065714Y3939942D01*
X99065714Y3939942D02*
X99113333Y3987561D01*
X99113333Y3987561D02*
X99208571Y4035180D01*
X99208571Y4035180D02*
X99399047Y4035180D01*
X99399047Y4035180D02*
X99494285Y3987561D01*
X99494285Y3987561D02*
X99541904Y3939942D01*
X99541904Y3939942D02*
X99589523Y3844704D01*
X99589523Y3844704D02*
X99589523Y3797085D01*
X99589523Y3797085D02*
X99541904Y3701847D01*
X99541904Y3701847D02*
X99494285Y3654228D01*
X99494285Y3654228D02*
X99399047Y3606609D01*
X99399047Y3606609D02*
X99208571Y3606609D01*
X99208571Y3606609D02*
X99113333Y3558990D01*
X99113333Y3558990D02*
X99065714Y3511371D01*
X99065714Y3511371D02*
X99018095Y3416133D01*
X99018095Y3416133D02*
X99018095Y3225657D01*
X99018095Y3225657D02*
X99065714Y3130419D01*
X99065714Y3130419D02*
X99113333Y3082800D01*
X99113333Y3082800D02*
X99208571Y3035180D01*
X99208571Y3035180D02*
X99399047Y3035180D01*
X99399047Y3035180D02*
X99494285Y3082800D01*
X99494285Y3082800D02*
X99541904Y3130419D01*
X99541904Y3130419D02*
X99589523Y3225657D01*
X99589523Y3225657D02*
X99589523Y3416133D01*
X99589523Y3416133D02*
X99541904Y3511371D01*
X99541904Y3511371D02*
X99494285Y3558990D01*
X99494285Y3558990D02*
X99399047Y3606609D01*
X104018935Y1886200D02*
X103904649Y1924295D01*
X103904649Y1924295D02*
X103714173Y1924295D01*
X103714173Y1924295D02*
X103637982Y1886200D01*
X103637982Y1886200D02*
X103599887Y1848104D01*
X103599887Y1848104D02*
X103561792Y1771914D01*
X103561792Y1771914D02*
X103561792Y1695723D01*
X103561792Y1695723D02*
X103599887Y1619533D01*
X103599887Y1619533D02*
X103637982Y1581438D01*
X103637982Y1581438D02*
X103714173Y1543342D01*
X103714173Y1543342D02*
X103866554Y1505247D01*
X103866554Y1505247D02*
X103942744Y1467152D01*
X103942744Y1467152D02*
X103980839Y1429057D01*
X103980839Y1429057D02*
X104018935Y1352866D01*
X104018935Y1352866D02*
X104018935Y1276676D01*
X104018935Y1276676D02*
X103980839Y1200485D01*
X103980839Y1200485D02*
X103942744Y1162390D01*
X103942744Y1162390D02*
X103866554Y1124295D01*
X103866554Y1124295D02*
X103676077Y1124295D01*
X103676077Y1124295D02*
X103561792Y1162390D01*
X112071792Y1132390D02*
X112147982Y1094295D01*
X112147982Y1094295D02*
X112262268Y1094295D01*
X112262268Y1094295D02*
X112376554Y1132390D01*
X112376554Y1132390D02*
X112452744Y1208580D01*
X112452744Y1208580D02*
X112490839Y1284771D01*
X112490839Y1284771D02*
X112528935Y1437152D01*
X112528935Y1437152D02*
X112528935Y1551438D01*
X112528935Y1551438D02*
X112490839Y1703819D01*
X112490839Y1703819D02*
X112452744Y1780009D01*
X112452744Y1780009D02*
X112376554Y1856200D01*
X112376554Y1856200D02*
X112262268Y1894295D01*
X112262268Y1894295D02*
X112186077Y1894295D01*
X112186077Y1894295D02*
X112071792Y1856200D01*
X112071792Y1856200D02*
X112033696Y1818104D01*
X112033696Y1818104D02*
X112033696Y1551438D01*
X112033696Y1551438D02*
X112186077Y1551438D01*
X93114761Y89999942D02*
X93019523Y90047561D01*
X93019523Y90047561D02*
X92924285Y90142800D01*
X92924285Y90142800D02*
X92781428Y90285657D01*
X92781428Y90285657D02*
X92686190Y90333276D01*
X92686190Y90333276D02*
X92590952Y90333276D01*
X92638571Y90095180D02*
X92543333Y90142800D01*
X92543333Y90142800D02*
X92448095Y90238038D01*
X92448095Y90238038D02*
X92400476Y90428514D01*
X92400476Y90428514D02*
X92400476Y90761847D01*
X92400476Y90761847D02*
X92448095Y90952323D01*
X92448095Y90952323D02*
X92543333Y91047561D01*
X92543333Y91047561D02*
X92638571Y91095180D01*
X92638571Y91095180D02*
X92829047Y91095180D01*
X92829047Y91095180D02*
X92924285Y91047561D01*
X92924285Y91047561D02*
X93019523Y90952323D01*
X93019523Y90952323D02*
X93067142Y90761847D01*
X93067142Y90761847D02*
X93067142Y90428514D01*
X93067142Y90428514D02*
X93019523Y90238038D01*
X93019523Y90238038D02*
X92924285Y90142800D01*
X92924285Y90142800D02*
X92829047Y90095180D01*
X92829047Y90095180D02*
X92638571Y90095180D01*
X93400476Y91095180D02*
X94019523Y91095180D01*
X94019523Y91095180D02*
X93686190Y90714228D01*
X93686190Y90714228D02*
X93829047Y90714228D01*
X93829047Y90714228D02*
X93924285Y90666609D01*
X93924285Y90666609D02*
X93971904Y90618990D01*
X93971904Y90618990D02*
X94019523Y90523752D01*
X94019523Y90523752D02*
X94019523Y90285657D01*
X94019523Y90285657D02*
X93971904Y90190419D01*
X93971904Y90190419D02*
X93924285Y90142800D01*
X93924285Y90142800D02*
X93829047Y90095180D01*
X93829047Y90095180D02*
X93543333Y90095180D01*
X93543333Y90095180D02*
X93448095Y90142800D01*
X93448095Y90142800D02*
X93400476Y90190419D01*
X79928207Y92867609D02*
X79852017Y92905704D01*
X79852017Y92905704D02*
X79737731Y92905704D01*
X79737731Y92905704D02*
X79623445Y92867609D01*
X79623445Y92867609D02*
X79547255Y92791419D01*
X79547255Y92791419D02*
X79509160Y92715228D01*
X79509160Y92715228D02*
X79471064Y92562847D01*
X79471064Y92562847D02*
X79471064Y92448561D01*
X79471064Y92448561D02*
X79509160Y92296180D01*
X79509160Y92296180D02*
X79547255Y92219990D01*
X79547255Y92219990D02*
X79623445Y92143800D01*
X79623445Y92143800D02*
X79737731Y92105704D01*
X79737731Y92105704D02*
X79813922Y92105704D01*
X79813922Y92105704D02*
X79928207Y92143800D01*
X79928207Y92143800D02*
X79966303Y92181895D01*
X79966303Y92181895D02*
X79966303Y92448561D01*
X79966303Y92448561D02*
X79813922Y92448561D01*
X87981064Y92113800D02*
X88095350Y92075704D01*
X88095350Y92075704D02*
X88285826Y92075704D01*
X88285826Y92075704D02*
X88362017Y92113800D01*
X88362017Y92113800D02*
X88400112Y92151895D01*
X88400112Y92151895D02*
X88438207Y92228085D01*
X88438207Y92228085D02*
X88438207Y92304276D01*
X88438207Y92304276D02*
X88400112Y92380466D01*
X88400112Y92380466D02*
X88362017Y92418561D01*
X88362017Y92418561D02*
X88285826Y92456657D01*
X88285826Y92456657D02*
X88133445Y92494752D01*
X88133445Y92494752D02*
X88057255Y92532847D01*
X88057255Y92532847D02*
X88019160Y92570942D01*
X88019160Y92570942D02*
X87981064Y92647133D01*
X87981064Y92647133D02*
X87981064Y92723323D01*
X87981064Y92723323D02*
X88019160Y92799514D01*
X88019160Y92799514D02*
X88057255Y92837609D01*
X88057255Y92837609D02*
X88133445Y92875704D01*
X88133445Y92875704D02*
X88323922Y92875704D01*
X88323922Y92875704D02*
X88438207Y92837609D01*
X121728095Y70958919D02*
X121728095Y72058919D01*
X121728095Y72058919D02*
X121990000Y72058919D01*
X121990000Y72058919D02*
X122147143Y72006538D01*
X122147143Y72006538D02*
X122251905Y71901776D01*
X122251905Y71901776D02*
X122304286Y71797014D01*
X122304286Y71797014D02*
X122356667Y71587490D01*
X122356667Y71587490D02*
X122356667Y71430347D01*
X122356667Y71430347D02*
X122304286Y71220823D01*
X122304286Y71220823D02*
X122251905Y71116061D01*
X122251905Y71116061D02*
X122147143Y71011300D01*
X122147143Y71011300D02*
X121990000Y70958919D01*
X121990000Y70958919D02*
X121728095Y70958919D01*
X123404286Y70958919D02*
X122775714Y70958919D01*
X123090000Y70958919D02*
X123090000Y72058919D01*
X123090000Y72058919D02*
X122985238Y71901776D01*
X122985238Y71901776D02*
X122880476Y71797014D01*
X122880476Y71797014D02*
X122775714Y71744633D01*
X121758095Y14988919D02*
X121758095Y16088919D01*
X121758095Y16088919D02*
X122020000Y16088919D01*
X122020000Y16088919D02*
X122177143Y16036538D01*
X122177143Y16036538D02*
X122281905Y15931776D01*
X122281905Y15931776D02*
X122334286Y15827014D01*
X122334286Y15827014D02*
X122386667Y15617490D01*
X122386667Y15617490D02*
X122386667Y15460347D01*
X122386667Y15460347D02*
X122334286Y15250823D01*
X122334286Y15250823D02*
X122281905Y15146061D01*
X122281905Y15146061D02*
X122177143Y15041300D01*
X122177143Y15041300D02*
X122020000Y14988919D01*
X122020000Y14988919D02*
X121758095Y14988919D01*
X122805714Y15984157D02*
X122858095Y16036538D01*
X122858095Y16036538D02*
X122962857Y16088919D01*
X122962857Y16088919D02*
X123224762Y16088919D01*
X123224762Y16088919D02*
X123329524Y16036538D01*
X123329524Y16036538D02*
X123381905Y15984157D01*
X123381905Y15984157D02*
X123434286Y15879395D01*
X123434286Y15879395D02*
X123434286Y15774633D01*
X123434286Y15774633D02*
X123381905Y15617490D01*
X123381905Y15617490D02*
X122753333Y14988919D01*
X122753333Y14988919D02*
X123434286Y14988919D01*
D11*
X49154742Y19638571D02*
X48583314Y19238571D01*
X49154742Y18952857D02*
X47954742Y18952857D01*
X47954742Y18952857D02*
X47954742Y19410000D01*
X47954742Y19410000D02*
X48011885Y19524285D01*
X48011885Y19524285D02*
X48069028Y19581428D01*
X48069028Y19581428D02*
X48183314Y19638571D01*
X48183314Y19638571D02*
X48354742Y19638571D01*
X48354742Y19638571D02*
X48469028Y19581428D01*
X48469028Y19581428D02*
X48526171Y19524285D01*
X48526171Y19524285D02*
X48583314Y19410000D01*
X48583314Y19410000D02*
X48583314Y18952857D01*
X48069028Y20095714D02*
X48011885Y20152857D01*
X48011885Y20152857D02*
X47954742Y20267143D01*
X47954742Y20267143D02*
X47954742Y20552857D01*
X47954742Y20552857D02*
X48011885Y20667143D01*
X48011885Y20667143D02*
X48069028Y20724285D01*
X48069028Y20724285D02*
X48183314Y20781428D01*
X48183314Y20781428D02*
X48297600Y20781428D01*
X48297600Y20781428D02*
X48469028Y20724285D01*
X48469028Y20724285D02*
X49154742Y20038571D01*
X49154742Y20038571D02*
X49154742Y20781428D01*
X47954742Y21181428D02*
X47954742Y21924285D01*
X47954742Y21924285D02*
X48411885Y21524285D01*
X48411885Y21524285D02*
X48411885Y21695714D01*
X48411885Y21695714D02*
X48469028Y21810000D01*
X48469028Y21810000D02*
X48526171Y21867142D01*
X48526171Y21867142D02*
X48640457Y21924285D01*
X48640457Y21924285D02*
X48926171Y21924285D01*
X48926171Y21924285D02*
X49040457Y21867142D01*
X49040457Y21867142D02*
X49097600Y21810000D01*
X49097600Y21810000D02*
X49154742Y21695714D01*
X49154742Y21695714D02*
X49154742Y21352857D01*
X49154742Y21352857D02*
X49097600Y21238571D01*
X49097600Y21238571D02*
X49040457Y21181428D01*
D10*
X26724761Y2959942D02*
X26629523Y3007561D01*
X26629523Y3007561D02*
X26534285Y3102800D01*
X26534285Y3102800D02*
X26391428Y3245657D01*
X26391428Y3245657D02*
X26296190Y3293276D01*
X26296190Y3293276D02*
X26200952Y3293276D01*
X26248571Y3055180D02*
X26153333Y3102800D01*
X26153333Y3102800D02*
X26058095Y3198038D01*
X26058095Y3198038D02*
X26010476Y3388514D01*
X26010476Y3388514D02*
X26010476Y3721847D01*
X26010476Y3721847D02*
X26058095Y3912323D01*
X26058095Y3912323D02*
X26153333Y4007561D01*
X26153333Y4007561D02*
X26248571Y4055180D01*
X26248571Y4055180D02*
X26439047Y4055180D01*
X26439047Y4055180D02*
X26534285Y4007561D01*
X26534285Y4007561D02*
X26629523Y3912323D01*
X26629523Y3912323D02*
X26677142Y3721847D01*
X26677142Y3721847D02*
X26677142Y3388514D01*
X26677142Y3388514D02*
X26629523Y3198038D01*
X26629523Y3198038D02*
X26534285Y3102800D01*
X26534285Y3102800D02*
X26439047Y3055180D01*
X26439047Y3055180D02*
X26248571Y3055180D01*
X27581904Y4055180D02*
X27105714Y4055180D01*
X27105714Y4055180D02*
X27058095Y3578990D01*
X27058095Y3578990D02*
X27105714Y3626609D01*
X27105714Y3626609D02*
X27200952Y3674228D01*
X27200952Y3674228D02*
X27439047Y3674228D01*
X27439047Y3674228D02*
X27534285Y3626609D01*
X27534285Y3626609D02*
X27581904Y3578990D01*
X27581904Y3578990D02*
X27629523Y3483752D01*
X27629523Y3483752D02*
X27629523Y3245657D01*
X27629523Y3245657D02*
X27581904Y3150419D01*
X27581904Y3150419D02*
X27534285Y3102800D01*
X27534285Y3102800D02*
X27439047Y3055180D01*
X27439047Y3055180D02*
X27200952Y3055180D01*
X27200952Y3055180D02*
X27105714Y3102800D01*
X27105714Y3102800D02*
X27058095Y3150419D01*
X32018935Y1886200D02*
X31904649Y1924295D01*
X31904649Y1924295D02*
X31714173Y1924295D01*
X31714173Y1924295D02*
X31637982Y1886200D01*
X31637982Y1886200D02*
X31599887Y1848104D01*
X31599887Y1848104D02*
X31561792Y1771914D01*
X31561792Y1771914D02*
X31561792Y1695723D01*
X31561792Y1695723D02*
X31599887Y1619533D01*
X31599887Y1619533D02*
X31637982Y1581438D01*
X31637982Y1581438D02*
X31714173Y1543342D01*
X31714173Y1543342D02*
X31866554Y1505247D01*
X31866554Y1505247D02*
X31942744Y1467152D01*
X31942744Y1467152D02*
X31980839Y1429057D01*
X31980839Y1429057D02*
X32018935Y1352866D01*
X32018935Y1352866D02*
X32018935Y1276676D01*
X32018935Y1276676D02*
X31980839Y1200485D01*
X31980839Y1200485D02*
X31942744Y1162390D01*
X31942744Y1162390D02*
X31866554Y1124295D01*
X31866554Y1124295D02*
X31676077Y1124295D01*
X31676077Y1124295D02*
X31561792Y1162390D01*
X40071792Y1132390D02*
X40147982Y1094295D01*
X40147982Y1094295D02*
X40262268Y1094295D01*
X40262268Y1094295D02*
X40376554Y1132390D01*
X40376554Y1132390D02*
X40452744Y1208580D01*
X40452744Y1208580D02*
X40490839Y1284771D01*
X40490839Y1284771D02*
X40528935Y1437152D01*
X40528935Y1437152D02*
X40528935Y1551438D01*
X40528935Y1551438D02*
X40490839Y1703819D01*
X40490839Y1703819D02*
X40452744Y1780009D01*
X40452744Y1780009D02*
X40376554Y1856200D01*
X40376554Y1856200D02*
X40262268Y1894295D01*
X40262268Y1894295D02*
X40186077Y1894295D01*
X40186077Y1894295D02*
X40071792Y1856200D01*
X40071792Y1856200D02*
X40033696Y1818104D01*
X40033696Y1818104D02*
X40033696Y1551438D01*
X40033696Y1551438D02*
X40186077Y1551438D01*
X52371080Y83416667D02*
X51847271Y83050000D01*
X52371080Y82788095D02*
X51271080Y82788095D01*
X51271080Y82788095D02*
X51271080Y83207143D01*
X51271080Y83207143D02*
X51323461Y83311905D01*
X51323461Y83311905D02*
X51375842Y83364286D01*
X51375842Y83364286D02*
X51480604Y83416667D01*
X51480604Y83416667D02*
X51637747Y83416667D01*
X51637747Y83416667D02*
X51742509Y83364286D01*
X51742509Y83364286D02*
X51794890Y83311905D01*
X51794890Y83311905D02*
X51847271Y83207143D01*
X51847271Y83207143D02*
X51847271Y82788095D01*
X51271080Y83783333D02*
X51271080Y84464286D01*
X51271080Y84464286D02*
X51690128Y84097619D01*
X51690128Y84097619D02*
X51690128Y84254762D01*
X51690128Y84254762D02*
X51742509Y84359524D01*
X51742509Y84359524D02*
X51794890Y84411905D01*
X51794890Y84411905D02*
X51899652Y84464286D01*
X51899652Y84464286D02*
X52161557Y84464286D01*
X52161557Y84464286D02*
X52266319Y84411905D01*
X52266319Y84411905D02*
X52318700Y84359524D01*
X52318700Y84359524D02*
X52371080Y84254762D01*
X52371080Y84254762D02*
X52371080Y83940476D01*
X52371080Y83940476D02*
X52318700Y83835714D01*
X52318700Y83835714D02*
X52266319Y83783333D01*
X45074761Y89999942D02*
X44979523Y90047561D01*
X44979523Y90047561D02*
X44884285Y90142800D01*
X44884285Y90142800D02*
X44741428Y90285657D01*
X44741428Y90285657D02*
X44646190Y90333276D01*
X44646190Y90333276D02*
X44550952Y90333276D01*
X44598571Y90095180D02*
X44503333Y90142800D01*
X44503333Y90142800D02*
X44408095Y90238038D01*
X44408095Y90238038D02*
X44360476Y90428514D01*
X44360476Y90428514D02*
X44360476Y90761847D01*
X44360476Y90761847D02*
X44408095Y90952323D01*
X44408095Y90952323D02*
X44503333Y91047561D01*
X44503333Y91047561D02*
X44598571Y91095180D01*
X44598571Y91095180D02*
X44789047Y91095180D01*
X44789047Y91095180D02*
X44884285Y91047561D01*
X44884285Y91047561D02*
X44979523Y90952323D01*
X44979523Y90952323D02*
X45027142Y90761847D01*
X45027142Y90761847D02*
X45027142Y90428514D01*
X45027142Y90428514D02*
X44979523Y90238038D01*
X44979523Y90238038D02*
X44884285Y90142800D01*
X44884285Y90142800D02*
X44789047Y90095180D01*
X44789047Y90095180D02*
X44598571Y90095180D01*
X45979523Y90095180D02*
X45408095Y90095180D01*
X45693809Y90095180D02*
X45693809Y91095180D01*
X45693809Y91095180D02*
X45598571Y90952323D01*
X45598571Y90952323D02*
X45503333Y90857085D01*
X45503333Y90857085D02*
X45408095Y90809466D01*
X31928207Y92867609D02*
X31852017Y92905704D01*
X31852017Y92905704D02*
X31737731Y92905704D01*
X31737731Y92905704D02*
X31623445Y92867609D01*
X31623445Y92867609D02*
X31547255Y92791419D01*
X31547255Y92791419D02*
X31509160Y92715228D01*
X31509160Y92715228D02*
X31471064Y92562847D01*
X31471064Y92562847D02*
X31471064Y92448561D01*
X31471064Y92448561D02*
X31509160Y92296180D01*
X31509160Y92296180D02*
X31547255Y92219990D01*
X31547255Y92219990D02*
X31623445Y92143800D01*
X31623445Y92143800D02*
X31737731Y92105704D01*
X31737731Y92105704D02*
X31813922Y92105704D01*
X31813922Y92105704D02*
X31928207Y92143800D01*
X31928207Y92143800D02*
X31966303Y92181895D01*
X31966303Y92181895D02*
X31966303Y92448561D01*
X31966303Y92448561D02*
X31813922Y92448561D01*
X39981064Y92113800D02*
X40095350Y92075704D01*
X40095350Y92075704D02*
X40285826Y92075704D01*
X40285826Y92075704D02*
X40362017Y92113800D01*
X40362017Y92113800D02*
X40400112Y92151895D01*
X40400112Y92151895D02*
X40438207Y92228085D01*
X40438207Y92228085D02*
X40438207Y92304276D01*
X40438207Y92304276D02*
X40400112Y92380466D01*
X40400112Y92380466D02*
X40362017Y92418561D01*
X40362017Y92418561D02*
X40285826Y92456657D01*
X40285826Y92456657D02*
X40133445Y92494752D01*
X40133445Y92494752D02*
X40057255Y92532847D01*
X40057255Y92532847D02*
X40019160Y92570942D01*
X40019160Y92570942D02*
X39981064Y92647133D01*
X39981064Y92647133D02*
X39981064Y92723323D01*
X39981064Y92723323D02*
X40019160Y92799514D01*
X40019160Y92799514D02*
X40057255Y92837609D01*
X40057255Y92837609D02*
X40133445Y92875704D01*
X40133445Y92875704D02*
X40323922Y92875704D01*
X40323922Y92875704D02*
X40438207Y92837609D01*
X51710000Y57906942D02*
X51652857Y57849800D01*
X51652857Y57849800D02*
X51481429Y57792657D01*
X51481429Y57792657D02*
X51367143Y57792657D01*
X51367143Y57792657D02*
X51195714Y57849800D01*
X51195714Y57849800D02*
X51081429Y57964085D01*
X51081429Y57964085D02*
X51024286Y58078371D01*
X51024286Y58078371D02*
X50967143Y58306942D01*
X50967143Y58306942D02*
X50967143Y58478371D01*
X50967143Y58478371D02*
X51024286Y58706942D01*
X51024286Y58706942D02*
X51081429Y58821228D01*
X51081429Y58821228D02*
X51195714Y58935514D01*
X51195714Y58935514D02*
X51367143Y58992657D01*
X51367143Y58992657D02*
X51481429Y58992657D01*
X51481429Y58992657D02*
X51652857Y58935514D01*
X51652857Y58935514D02*
X51710000Y58878371D01*
X52738572Y58592657D02*
X52738572Y57792657D01*
X52452857Y59049800D02*
X52167143Y58192657D01*
X52167143Y58192657D02*
X52910000Y58192657D01*
X124816667Y9753680D02*
X124764286Y9701300D01*
X124764286Y9701300D02*
X124607143Y9648919D01*
X124607143Y9648919D02*
X124502381Y9648919D01*
X124502381Y9648919D02*
X124345238Y9701300D01*
X124345238Y9701300D02*
X124240476Y9806061D01*
X124240476Y9806061D02*
X124188095Y9910823D01*
X124188095Y9910823D02*
X124135714Y10120347D01*
X124135714Y10120347D02*
X124135714Y10277490D01*
X124135714Y10277490D02*
X124188095Y10487014D01*
X124188095Y10487014D02*
X124240476Y10591776D01*
X124240476Y10591776D02*
X124345238Y10696538D01*
X124345238Y10696538D02*
X124502381Y10748919D01*
X124502381Y10748919D02*
X124607143Y10748919D01*
X124607143Y10748919D02*
X124764286Y10696538D01*
X124764286Y10696538D02*
X124816667Y10644157D01*
X125811905Y10748919D02*
X125288095Y10748919D01*
X125288095Y10748919D02*
X125235714Y10225109D01*
X125235714Y10225109D02*
X125288095Y10277490D01*
X125288095Y10277490D02*
X125392857Y10329871D01*
X125392857Y10329871D02*
X125654762Y10329871D01*
X125654762Y10329871D02*
X125759524Y10277490D01*
X125759524Y10277490D02*
X125811905Y10225109D01*
X125811905Y10225109D02*
X125864286Y10120347D01*
X125864286Y10120347D02*
X125864286Y9858442D01*
X125864286Y9858442D02*
X125811905Y9753680D01*
X125811905Y9753680D02*
X125759524Y9701300D01*
X125759524Y9701300D02*
X125654762Y9648919D01*
X125654762Y9648919D02*
X125392857Y9648919D01*
X125392857Y9648919D02*
X125288095Y9701300D01*
X125288095Y9701300D02*
X125235714Y9753680D01*
X98190000Y35376942D02*
X98132857Y35319800D01*
X98132857Y35319800D02*
X97961429Y35262657D01*
X97961429Y35262657D02*
X97847143Y35262657D01*
X97847143Y35262657D02*
X97675714Y35319800D01*
X97675714Y35319800D02*
X97561429Y35434085D01*
X97561429Y35434085D02*
X97504286Y35548371D01*
X97504286Y35548371D02*
X97447143Y35776942D01*
X97447143Y35776942D02*
X97447143Y35948371D01*
X97447143Y35948371D02*
X97504286Y36176942D01*
X97504286Y36176942D02*
X97561429Y36291228D01*
X97561429Y36291228D02*
X97675714Y36405514D01*
X97675714Y36405514D02*
X97847143Y36462657D01*
X97847143Y36462657D02*
X97961429Y36462657D01*
X97961429Y36462657D02*
X98132857Y36405514D01*
X98132857Y36405514D02*
X98190000Y36348371D01*
X99332857Y35262657D02*
X98647143Y35262657D01*
X98990000Y35262657D02*
X98990000Y36462657D01*
X98990000Y36462657D02*
X98875714Y36291228D01*
X98875714Y36291228D02*
X98761429Y36176942D01*
X98761429Y36176942D02*
X98647143Y36119800D01*
X68631080Y9692857D02*
X68107271Y9326190D01*
X68631080Y9064285D02*
X67531080Y9064285D01*
X67531080Y9064285D02*
X67531080Y9483333D01*
X67531080Y9483333D02*
X67583461Y9588095D01*
X67583461Y9588095D02*
X67635842Y9640476D01*
X67635842Y9640476D02*
X67740604Y9692857D01*
X67740604Y9692857D02*
X67897747Y9692857D01*
X67897747Y9692857D02*
X68002509Y9640476D01*
X68002509Y9640476D02*
X68054890Y9588095D01*
X68054890Y9588095D02*
X68107271Y9483333D01*
X68107271Y9483333D02*
X68107271Y9064285D01*
X68631080Y10740476D02*
X68631080Y10111904D01*
X68631080Y10426190D02*
X67531080Y10426190D01*
X67531080Y10426190D02*
X67688223Y10321428D01*
X67688223Y10321428D02*
X67792985Y10216666D01*
X67792985Y10216666D02*
X67845366Y10111904D01*
X67531080Y11683333D02*
X67531080Y11473809D01*
X67531080Y11473809D02*
X67583461Y11369047D01*
X67583461Y11369047D02*
X67635842Y11316666D01*
X67635842Y11316666D02*
X67792985Y11211904D01*
X67792985Y11211904D02*
X68002509Y11159523D01*
X68002509Y11159523D02*
X68421557Y11159523D01*
X68421557Y11159523D02*
X68526319Y11211904D01*
X68526319Y11211904D02*
X68578700Y11264285D01*
X68578700Y11264285D02*
X68631080Y11369047D01*
X68631080Y11369047D02*
X68631080Y11578571D01*
X68631080Y11578571D02*
X68578700Y11683333D01*
X68578700Y11683333D02*
X68526319Y11735714D01*
X68526319Y11735714D02*
X68421557Y11788095D01*
X68421557Y11788095D02*
X68159652Y11788095D01*
X68159652Y11788095D02*
X68054890Y11735714D01*
X68054890Y11735714D02*
X68002509Y11683333D01*
X68002509Y11683333D02*
X67950128Y11578571D01*
X67950128Y11578571D02*
X67950128Y11369047D01*
X67950128Y11369047D02*
X68002509Y11264285D01*
X68002509Y11264285D02*
X68054890Y11211904D01*
X68054890Y11211904D02*
X68159652Y11159523D01*
D11*
X107894742Y71968571D02*
X107323314Y71568571D01*
X107894742Y71282857D02*
X106694742Y71282857D01*
X106694742Y71282857D02*
X106694742Y71740000D01*
X106694742Y71740000D02*
X106751885Y71854285D01*
X106751885Y71854285D02*
X106809028Y71911428D01*
X106809028Y71911428D02*
X106923314Y71968571D01*
X106923314Y71968571D02*
X107094742Y71968571D01*
X107094742Y71968571D02*
X107209028Y71911428D01*
X107209028Y71911428D02*
X107266171Y71854285D01*
X107266171Y71854285D02*
X107323314Y71740000D01*
X107323314Y71740000D02*
X107323314Y71282857D01*
X107894742Y73111428D02*
X107894742Y72425714D01*
X107894742Y72768571D02*
X106694742Y72768571D01*
X106694742Y72768571D02*
X106866171Y72654285D01*
X106866171Y72654285D02*
X106980457Y72540000D01*
X106980457Y72540000D02*
X107037600Y72425714D01*
X106809028Y73568571D02*
X106751885Y73625714D01*
X106751885Y73625714D02*
X106694742Y73740000D01*
X106694742Y73740000D02*
X106694742Y74025714D01*
X106694742Y74025714D02*
X106751885Y74140000D01*
X106751885Y74140000D02*
X106809028Y74197142D01*
X106809028Y74197142D02*
X106923314Y74254285D01*
X106923314Y74254285D02*
X107037600Y74254285D01*
X107037600Y74254285D02*
X107209028Y74197142D01*
X107209028Y74197142D02*
X107894742Y73511428D01*
X107894742Y73511428D02*
X107894742Y74254285D01*
D10*
X30416667Y74188919D02*
X30050000Y74712728D01*
X29788095Y74188919D02*
X29788095Y75288919D01*
X29788095Y75288919D02*
X30207143Y75288919D01*
X30207143Y75288919D02*
X30311905Y75236538D01*
X30311905Y75236538D02*
X30364286Y75184157D01*
X30364286Y75184157D02*
X30416667Y75079395D01*
X30416667Y75079395D02*
X30416667Y74922252D01*
X30416667Y74922252D02*
X30364286Y74817490D01*
X30364286Y74817490D02*
X30311905Y74765109D01*
X30311905Y74765109D02*
X30207143Y74712728D01*
X30207143Y74712728D02*
X29788095Y74712728D01*
X30783333Y75288919D02*
X31516667Y75288919D01*
X31516667Y75288919D02*
X31045238Y74188919D01*
X8486667Y1043680D02*
X8434286Y991300D01*
X8434286Y991300D02*
X8277143Y938919D01*
X8277143Y938919D02*
X8172381Y938919D01*
X8172381Y938919D02*
X8015238Y991300D01*
X8015238Y991300D02*
X7910476Y1096061D01*
X7910476Y1096061D02*
X7858095Y1200823D01*
X7858095Y1200823D02*
X7805714Y1410347D01*
X7805714Y1410347D02*
X7805714Y1567490D01*
X7805714Y1567490D02*
X7858095Y1777014D01*
X7858095Y1777014D02*
X7910476Y1881776D01*
X7910476Y1881776D02*
X8015238Y1986538D01*
X8015238Y1986538D02*
X8172381Y2038919D01*
X8172381Y2038919D02*
X8277143Y2038919D01*
X8277143Y2038919D02*
X8434286Y1986538D01*
X8434286Y1986538D02*
X8486667Y1934157D01*
X9429524Y2038919D02*
X9220000Y2038919D01*
X9220000Y2038919D02*
X9115238Y1986538D01*
X9115238Y1986538D02*
X9062857Y1934157D01*
X9062857Y1934157D02*
X8958095Y1777014D01*
X8958095Y1777014D02*
X8905714Y1567490D01*
X8905714Y1567490D02*
X8905714Y1148442D01*
X8905714Y1148442D02*
X8958095Y1043680D01*
X8958095Y1043680D02*
X9010476Y991300D01*
X9010476Y991300D02*
X9115238Y938919D01*
X9115238Y938919D02*
X9324762Y938919D01*
X9324762Y938919D02*
X9429524Y991300D01*
X9429524Y991300D02*
X9481905Y1043680D01*
X9481905Y1043680D02*
X9534286Y1148442D01*
X9534286Y1148442D02*
X9534286Y1410347D01*
X9534286Y1410347D02*
X9481905Y1515109D01*
X9481905Y1515109D02*
X9429524Y1567490D01*
X9429524Y1567490D02*
X9324762Y1619871D01*
X9324762Y1619871D02*
X9115238Y1619871D01*
X9115238Y1619871D02*
X9010476Y1567490D01*
X9010476Y1567490D02*
X8958095Y1515109D01*
X8958095Y1515109D02*
X8905714Y1410347D01*
%TO.C,R20*%
X12710000Y7822936D02*
X12710000Y12177064D01*
X9290000Y7822936D02*
X9290000Y12177064D01*
%TO.C,R1*%
D11*
X13000000Y75800000D02*
X19000000Y75800000D01*
X19000000Y60200000D01*
X13000000Y60200000D01*
X13000000Y75800000D01*
X16000000Y58500000D02*
X16000000Y60200000D01*
X16000000Y77500000D02*
X16000000Y75800000D01*
%TO.C,R13*%
X6000000Y78800000D02*
X6000000Y77800000D01*
X6000000Y54800000D02*
X6000000Y55800000D01*
X1100000Y77800000D02*
X10900000Y77800000D01*
X10900000Y55800000D01*
X1100000Y55800000D01*
X1100000Y77800000D01*
%TO.C,Q2*%
D10*
X52000000Y90700000D02*
X52500000Y93100000D01*
X52000000Y87900000D02*
X52000000Y90700000D01*
X67500000Y93100000D02*
X52500000Y93100000D01*
X68000000Y90700000D02*
X67500000Y93100000D01*
X68000000Y90700000D02*
X68000000Y87900000D01*
X68000000Y87900000D02*
X52000000Y87900000D01*
%TO.C,R2*%
X28790000Y81422936D02*
X28790000Y85777064D01*
X32210000Y81422936D02*
X32210000Y85777064D01*
%TO.C,R8*%
X24290000Y67822936D02*
X24290000Y72177064D01*
X27710000Y67822936D02*
X27710000Y72177064D01*
%TO.C,R5*%
X100790000Y81422936D02*
X100790000Y85777064D01*
X104210000Y81422936D02*
X104210000Y85777064D01*
%TO.C,R17*%
X87790000Y12577064D02*
X87790000Y8222936D01*
X91210000Y12577064D02*
X91210000Y8222936D01*
%TO.C,R15*%
X39790000Y12577064D02*
X39790000Y8222936D01*
X43210000Y12577064D02*
X43210000Y8222936D01*
%TO.C,R19*%
X125890000Y17822936D02*
X125890000Y22177064D01*
X129310000Y17822936D02*
X129310000Y22177064D01*
%TO.C,R9*%
D11*
X41500000Y84700000D02*
X41500000Y83700000D01*
X41500000Y60700000D02*
X41500000Y61700000D01*
X36600000Y83700000D02*
X46400000Y83700000D01*
X46400000Y61700000D01*
X36600000Y61700000D01*
X36600000Y83700000D01*
%TO.C,J2*%
X8200000Y92850000D02*
X12000000Y92850000D01*
X8200000Y84150000D02*
X8200000Y92850000D01*
X12000000Y92850000D02*
X12800000Y92100000D01*
X12000000Y84150000D02*
X8200000Y84150000D01*
X12800000Y92100000D02*
X12800000Y84900000D01*
X12800000Y84900000D02*
X12000000Y84150000D01*
%TO.C,R25*%
X102500000Y33430000D02*
X102500000Y32430000D01*
X102500000Y9430000D02*
X102500000Y10430000D01*
X97600000Y32430000D02*
X107400000Y32430000D01*
X107400000Y10430000D01*
X97600000Y10430000D01*
X97600000Y32430000D01*
%TO.C,Q6*%
D10*
X52000000Y6100000D02*
X68000000Y6100000D01*
X52000000Y3300000D02*
X52000000Y6100000D01*
X52000000Y3300000D02*
X52500000Y900000D01*
X52500000Y900000D02*
X67500000Y900000D01*
X68000000Y6100000D02*
X68000000Y3300000D01*
X68000000Y3300000D02*
X67500000Y900000D01*
%TO.C,J7*%
D11*
X1150000Y50300000D02*
X9850000Y50300000D01*
X1150000Y46500000D02*
X1150000Y50300000D01*
X1900000Y45700000D02*
X1150000Y46500000D01*
X9100000Y45700000D02*
X1900000Y45700000D01*
X9850000Y50300000D02*
X9850000Y46500000D01*
X9850000Y46500000D02*
X9100000Y45700000D01*
%TO.C,J6*%
X1500000Y40200000D02*
X1500000Y27800000D01*
X1500000Y40200000D02*
X7300000Y40200000D01*
X1500000Y27800000D02*
X7300000Y27800000D01*
X2150000Y40200000D02*
X2150000Y27800000D01*
X6000000Y40200000D02*
X7300000Y38950000D01*
X7300000Y40200000D02*
X7300000Y27800000D01*
%TO.C,Q4*%
D10*
X100000000Y90700000D02*
X100500000Y93100000D01*
X100000000Y87900000D02*
X100000000Y90700000D01*
X115500000Y93100000D02*
X100500000Y93100000D01*
X116000000Y90700000D02*
X115500000Y93100000D01*
X116000000Y90700000D02*
X116000000Y87900000D01*
X116000000Y87900000D02*
X100000000Y87900000D01*
%TO.C,J1*%
D11*
X1200000Y92850000D02*
X5000000Y92850000D01*
X1200000Y84150000D02*
X1200000Y92850000D01*
X5000000Y92850000D02*
X5800000Y92100000D01*
X5000000Y84150000D02*
X1200000Y84150000D01*
X5800000Y92100000D02*
X5800000Y84900000D01*
X5800000Y84900000D02*
X5000000Y84150000D01*
%TO.C,J4*%
X120150000Y56800000D02*
X128850000Y56800000D01*
X120150000Y53000000D02*
X120150000Y56800000D01*
X120900000Y52200000D02*
X120150000Y53000000D01*
X128100000Y52200000D02*
X120900000Y52200000D01*
X128850000Y56800000D02*
X128850000Y53000000D01*
X128850000Y53000000D02*
X128100000Y52200000D01*
%TO.C,R18*%
D10*
X111790000Y12577064D02*
X111790000Y8222936D01*
X115210000Y12577064D02*
X115210000Y8222936D01*
%TO.C,R22*%
D11*
X30500000Y33300000D02*
X30500000Y32300000D01*
X30500000Y9300000D02*
X30500000Y10300000D01*
X25600000Y32300000D02*
X35400000Y32300000D01*
X35400000Y10300000D01*
X25600000Y10300000D01*
X25600000Y32300000D01*
%TO.C,R6*%
D10*
X125890000Y73822936D02*
X125890000Y78177064D01*
X129310000Y73822936D02*
X129310000Y78177064D01*
%TO.C,R11*%
D11*
X89500000Y84700000D02*
X89500000Y83700000D01*
X89500000Y60700000D02*
X89500000Y61700000D01*
X84600000Y83700000D02*
X94400000Y83700000D01*
X94400000Y61700000D01*
X84600000Y61700000D01*
X84600000Y83700000D01*
%TO.C,C3*%
D10*
X29480000Y60700000D02*
X29480000Y65300000D01*
X29630000Y65450000D02*
X31370000Y65450000D01*
X29630000Y60550000D02*
X31370000Y60550000D01*
X31520000Y60700000D02*
X31520000Y65300000D01*
X29480000Y65300000D02*
G75*
G02*
X29630000Y65450000I150000J0D01*
G01*
X29630000Y60550000D02*
G75*
G02*
X29480000Y60700000I0J150000D01*
G01*
X31370000Y65450000D02*
G75*
G02*
X31520000Y65300000I0J-150000D01*
G01*
X31520000Y60700000D02*
G75*
G02*
X31370000Y60550000I-150000J0D01*
G01*
%TO.C,Q7*%
X76000000Y6100000D02*
X92000000Y6100000D01*
X76000000Y3300000D02*
X76000000Y6100000D01*
X76000000Y3300000D02*
X76500000Y900000D01*
X76500000Y900000D02*
X91500000Y900000D01*
X92000000Y6100000D02*
X92000000Y3300000D01*
X92000000Y3300000D02*
X91500000Y900000D01*
%TO.C,R21*%
X4790000Y7822936D02*
X4790000Y12177064D01*
X8210000Y7822936D02*
X8210000Y12177064D01*
%TO.C,C2*%
X122550000Y67130000D02*
X122550000Y68870000D01*
X127300000Y69020000D02*
X122700000Y69020000D01*
X127300000Y66980000D02*
X122700000Y66980000D01*
X127450000Y67130000D02*
X127450000Y68870000D01*
X122550000Y68870000D02*
G75*
G02*
X122700000Y69020000I150000J0D01*
G01*
X122700000Y66980000D02*
G75*
G02*
X122550000Y67130000I0J150000D01*
G01*
X127300000Y69020000D02*
G75*
G02*
X127450000Y68870000I0J-150000D01*
G01*
X127450000Y67130000D02*
G75*
G02*
X127300000Y66980000I-150000J0D01*
G01*
%TO.C,R24*%
D11*
X78500000Y33500000D02*
X78500000Y32500000D01*
X78500000Y9500000D02*
X78500000Y10500000D01*
X73600000Y32500000D02*
X83400000Y32500000D01*
X83400000Y10500000D01*
X73600000Y10500000D01*
X73600000Y32500000D01*
%TO.C,R10*%
X65500000Y84700000D02*
X65500000Y83700000D01*
X65500000Y60700000D02*
X65500000Y61700000D01*
X60600000Y83700000D02*
X70400000Y83700000D01*
X70400000Y61700000D01*
X60600000Y61700000D01*
X60600000Y83700000D01*
%TO.C,J3*%
X19200000Y92850000D02*
X23000000Y92850000D01*
X19200000Y84150000D02*
X19200000Y92850000D01*
X23000000Y92850000D02*
X23800000Y92100000D01*
X23000000Y84150000D02*
X19200000Y84150000D01*
X23800000Y92100000D02*
X23800000Y84900000D01*
X23800000Y84900000D02*
X23000000Y84150000D01*
%TO.C,R14*%
X18000000Y38500000D02*
X18000000Y36800000D01*
X18000000Y19500000D02*
X18000000Y21200000D01*
X15000000Y36800000D02*
X21000000Y36800000D01*
X21000000Y21200000D01*
X15000000Y21200000D01*
X15000000Y36800000D01*
%TO.C,R4*%
D10*
X76790000Y81422936D02*
X76790000Y85777064D01*
X80210000Y81422936D02*
X80210000Y85777064D01*
%TO.C,J5*%
D11*
X120150000Y41800000D02*
X128850000Y41800000D01*
X120150000Y38000000D02*
X120150000Y41800000D01*
X120900000Y37200000D02*
X120150000Y38000000D01*
X128100000Y37200000D02*
X120900000Y37200000D01*
X128850000Y41800000D02*
X128850000Y38000000D01*
X128850000Y38000000D02*
X128100000Y37200000D01*
%TO.C,Q8*%
D10*
X100000000Y6100000D02*
X116000000Y6100000D01*
X100000000Y3300000D02*
X100000000Y6100000D01*
X100000000Y3300000D02*
X100500000Y900000D01*
X100500000Y900000D02*
X115500000Y900000D01*
X116000000Y6100000D02*
X116000000Y3300000D01*
X116000000Y3300000D02*
X115500000Y900000D01*
%TO.C,Q3*%
X76000000Y90700000D02*
X76500000Y93100000D01*
X76000000Y87900000D02*
X76000000Y90700000D01*
X91500000Y93100000D02*
X76500000Y93100000D01*
X92000000Y90700000D02*
X91500000Y93100000D01*
X92000000Y90700000D02*
X92000000Y87900000D01*
X92000000Y87900000D02*
X76000000Y87900000D01*
%TO.C,D1*%
X120450000Y79700000D02*
X120450000Y73850000D01*
X122600000Y76900000D02*
X122600000Y76450000D01*
X122600000Y76400000D02*
X121650000Y75450000D01*
X122600000Y76400000D02*
X123550000Y75450000D01*
X122600000Y75050000D02*
X122600000Y75450000D01*
X123550000Y75450000D02*
X121650000Y75450000D01*
X123600000Y76400000D02*
X121600000Y76400000D01*
X124750000Y79700000D02*
X120450000Y79700000D01*
X124750000Y79700000D02*
X124750000Y73850000D01*
%TO.C,D2*%
X120450000Y23700000D02*
X120450000Y17850000D01*
X122600000Y20900000D02*
X122600000Y20450000D01*
X122600000Y20400000D02*
X121650000Y19450000D01*
X122600000Y20400000D02*
X123550000Y19450000D01*
X122600000Y19050000D02*
X122600000Y19450000D01*
X123550000Y19450000D02*
X121650000Y19450000D01*
X123600000Y20400000D02*
X121600000Y20400000D01*
X124750000Y23700000D02*
X120450000Y23700000D01*
X124750000Y23700000D02*
X124750000Y17850000D01*
%TO.C,R23*%
D11*
X54500000Y33300000D02*
X54500000Y32300000D01*
X54500000Y9300000D02*
X54500000Y10300000D01*
X49600000Y32300000D02*
X59400000Y32300000D01*
X59400000Y10300000D01*
X49600000Y10300000D01*
X49600000Y32300000D01*
%TO.C,Q5*%
D10*
X28000000Y6100000D02*
X44000000Y6100000D01*
X28000000Y3300000D02*
X28000000Y6100000D01*
X28000000Y3300000D02*
X28500000Y900000D01*
X28500000Y900000D02*
X43500000Y900000D01*
X44000000Y6100000D02*
X44000000Y3300000D01*
X44000000Y3300000D02*
X43500000Y900000D01*
%TO.C,R3*%
X52790000Y81422936D02*
X52790000Y85777064D01*
X56210000Y81422936D02*
X56210000Y85777064D01*
%TO.C,Q1*%
X28000000Y90700000D02*
X28500000Y93100000D01*
X28000000Y87900000D02*
X28000000Y90700000D01*
X43500000Y93100000D02*
X28500000Y93100000D01*
X44000000Y90700000D02*
X43500000Y93100000D01*
X44000000Y90700000D02*
X44000000Y87900000D01*
X44000000Y87900000D02*
X28000000Y87900000D01*
%TO.C,C4*%
D11*
X33700000Y47000000D02*
X34200000Y47000000D01*
X66300000Y47000000D02*
X65800000Y47000000D01*
X34200000Y57000000D02*
X65800000Y57000000D01*
X65800000Y37000000D01*
X34200000Y37000000D01*
X34200000Y57000000D01*
%TO.C,C5*%
D10*
X122550000Y11130000D02*
X122550000Y12870000D01*
X127300000Y13020000D02*
X122700000Y13020000D01*
X127300000Y10980000D02*
X122700000Y10980000D01*
X127450000Y11130000D02*
X127450000Y12870000D01*
X122550000Y12870000D02*
G75*
G02*
X122700000Y13020000I150000J0D01*
G01*
X122700000Y10980000D02*
G75*
G02*
X122550000Y11130000I0J150000D01*
G01*
X127300000Y13020000D02*
G75*
G02*
X127450000Y12870000I0J-150000D01*
G01*
X127450000Y11130000D02*
G75*
G02*
X127300000Y10980000I-150000J0D01*
G01*
%TO.C,C1*%
D11*
X73700000Y47000000D02*
X74200000Y47000000D01*
X106300000Y47000000D02*
X105800000Y47000000D01*
X74200000Y57000000D02*
X105800000Y57000000D01*
X105800000Y37000000D01*
X74200000Y37000000D01*
X74200000Y57000000D01*
%TO.C,R16*%
D10*
X63790000Y12577064D02*
X63790000Y8222936D01*
X67210000Y12577064D02*
X67210000Y8222936D01*
%TO.C,R12*%
D11*
X113500000Y84700000D02*
X113500000Y83700000D01*
X113500000Y60700000D02*
X113500000Y61700000D01*
X108600000Y83700000D02*
X118400000Y83700000D01*
X118400000Y61700000D01*
X108600000Y61700000D01*
X108600000Y83700000D01*
%TO.C,R7*%
D10*
X28790000Y67822936D02*
X28790000Y72177064D01*
X32210000Y67822936D02*
X32210000Y72177064D01*
%TO.C,C6*%
X6250000Y4370000D02*
X6250000Y2630000D01*
X6400000Y4520000D02*
X11000000Y4520000D01*
X6400000Y2480000D02*
X11000000Y2480000D01*
X11150000Y4370000D02*
X11150000Y2630000D01*
X6250000Y4370000D02*
G75*
G02*
X6400000Y4520000I150000J0D01*
G01*
X6400000Y2480000D02*
G75*
G02*
X6250000Y2630000I0J150000D01*
G01*
X11000000Y4520000D02*
G75*
G02*
X11150000Y4370000I0J-150000D01*
G01*
X11150000Y2630000D02*
G75*
G02*
X11000000Y2480000I-150000J0D01*
G01*
%TD*%
M02*
