M48
; DRILL file KiCad 10.0.1 date 2026-08-07T23:35:16
; FORMAT={-:-/ absolute / metric / decimal}
; #@! TF.CreationDate,2026-08-07T23:35:16+09:00
; #@! TF.GenerationSoftware,Kicad,Pcbnew,10.0.1
; #@! TF.FileFunction,Plated,1,2,PTH
FMAT,2
METRIC
; #@! TA.AperFunction,Plated,PTH,ViaDrill
T1C1.000
; #@! TA.AperFunction,Plated,PTH,ComponentDrill
T2C1.000
; #@! TA.AperFunction,Plated,PTH,ComponentDrill
T3C1.100
; #@! TA.AperFunction,Plated,PTH,ComponentDrill
T4C1.150
; #@! TA.AperFunction,Plated,PTH,ComponentDrill
T5C1.420
; #@! TA.AperFunction,Plated,PTH,ComponentDrill
T6C1.740
%
G90
G05
T1
X19.5Y81.4
X28.25Y57.0
X28.25Y31.05
X29.65Y29.6
X39.0Y23.8
X41.5Y23.8
X44.0Y23.8
X63.0Y23.8
X65.5Y23.8
X68.0Y23.8
X87.0Y23.8
X89.5Y23.8
X92.0Y23.8
X104.8Y23.8
X106.3Y22.3
X108.6Y20.0
X108.6Y18.0
X111.5Y81.0
X111.5Y78.5
X111.5Y76.0
X119.4Y17.9
X119.4Y16.0
T2
X4.0Y37.75
X4.0Y35.25
X4.0Y32.75
X4.0Y30.25
T3
X6.0Y80.3
X6.0Y53.3
X16.0Y79.0
X16.0Y57.0
X18.0Y40.0
X18.0Y18.0
X30.5Y34.8
X30.5Y7.8
X41.5Y86.2
X41.5Y59.2
X54.5Y34.8
X54.5Y7.8
X65.5Y86.2
X65.5Y59.2
X78.5Y35.0
X78.5Y8.0
X89.5Y86.2
X89.5Y59.2
X102.5Y34.93
X102.5Y7.93
X113.5Y86.2
X113.5Y59.2
T4
X32.0Y47.0
X68.0Y47.0
X72.0Y47.0
X108.0Y47.0
T5
X30.55Y90.5
X30.55Y3.5
X36.0Y90.5
X36.0Y3.5
X41.45Y90.5
X41.45Y3.5
X54.55Y90.5
X54.55Y3.5
X60.0Y90.5
X60.0Y3.5
X65.45Y90.5
X65.45Y3.5
X78.55Y90.5
X78.55Y3.5
X84.0Y90.5
X84.0Y3.5
X89.45Y90.5
X89.45Y3.5
X102.55Y90.5
X102.55Y3.5
X108.0Y90.5
X108.0Y3.5
X113.45Y90.5
X113.45Y3.5
T6
X3.0Y48.0
X3.5Y91.0
X3.5Y86.0
X8.0Y48.0
X10.5Y91.0
X10.5Y86.0
X21.5Y91.0
X21.5Y86.0
X122.0Y54.5
X122.0Y39.5
X127.0Y54.5
X127.0Y39.5
M30
