%TF.GenerationSoftware,KiCad,Pcbnew,10.0.1*%
%TF.CreationDate,2026-08-07T23:35:16+09:00*%
%TF.ProjectId,AMP_BD_V2,414d505f-4244-45f5-9632-2e6b69636164,rev?*%
%TF.SameCoordinates,Original*%
%TF.FileFunction,Drillmap*%
%TF.FilePolarity,Positive*%
%FSLAX45Y45*%
G04 Gerber Fmt 4.5, Leading zero omitted, Abs format (unit mm)*
G04 Created by KiCad (PCBNEW 10.0.1) date 2026-08-07 23:35:16*
%MOMM*%
%LPD*%
G01*
G04 APERTURE LIST*
%ADD10C,0.050000*%
%ADD11C,0.200000*%
%ADD12C,0.100000*%
%ADD13C,0.110000*%
%ADD14C,0.115000*%
%ADD15C,0.142000*%
%ADD16C,0.174000*%
G04 APERTURE END LIST*
D10*
X0Y9400000D02*
X13000000Y9400000D01*
X13000000Y0D01*
X0Y0D01*
X0Y9400000D01*
D11*
D12*
X1900000Y8190000D02*
X2000000Y8090000D01*
X2000000Y8190000D02*
X1900000Y8090000D01*
X2775000Y5750000D02*
X2875000Y5650000D01*
X2875000Y5750000D02*
X2775000Y5650000D01*
X2775000Y3155000D02*
X2875000Y3055000D01*
X2875000Y3155000D02*
X2775000Y3055000D01*
X2915000Y3010000D02*
X3015000Y2910000D01*
X3015000Y3010000D02*
X2915000Y2910000D01*
X3850000Y2430000D02*
X3950000Y2330000D01*
X3950000Y2430000D02*
X3850000Y2330000D01*
X4100000Y2430000D02*
X4200000Y2330000D01*
X4200000Y2430000D02*
X4100000Y2330000D01*
X4350000Y2430000D02*
X4450000Y2330000D01*
X4450000Y2430000D02*
X4350000Y2330000D01*
X6250000Y2430000D02*
X6350000Y2330000D01*
X6350000Y2430000D02*
X6250000Y2330000D01*
X6500000Y2430000D02*
X6600000Y2330000D01*
X6600000Y2430000D02*
X6500000Y2330000D01*
X6750000Y2430000D02*
X6850000Y2330000D01*
X6850000Y2430000D02*
X6750000Y2330000D01*
X8650000Y2430000D02*
X8750000Y2330000D01*
X8750000Y2430000D02*
X8650000Y2330000D01*
X8900000Y2430000D02*
X9000000Y2330000D01*
X9000000Y2430000D02*
X8900000Y2330000D01*
X9150000Y2430000D02*
X9250000Y2330000D01*
X9250000Y2430000D02*
X9150000Y2330000D01*
X10430000Y2430000D02*
X10530000Y2330000D01*
X10530000Y2430000D02*
X10430000Y2330000D01*
X10580000Y2280000D02*
X10680000Y2180000D01*
X10680000Y2280000D02*
X10580000Y2180000D01*
X10810000Y2050000D02*
X10910000Y1950000D01*
X10910000Y2050000D02*
X10810000Y1950000D01*
X10810000Y1850000D02*
X10910000Y1750000D01*
X10910000Y1850000D02*
X10810000Y1750000D01*
X11100000Y8150000D02*
X11200000Y8050000D01*
X11200000Y8150000D02*
X11100000Y8050000D01*
X11100000Y7900000D02*
X11200000Y7800000D01*
X11200000Y7900000D02*
X11100000Y7800000D01*
X11100000Y7650000D02*
X11200000Y7550000D01*
X11200000Y7650000D02*
X11100000Y7550000D01*
X11890000Y1840000D02*
X11990000Y1740000D01*
X11990000Y1840000D02*
X11890000Y1740000D01*
X11890000Y1650000D02*
X11990000Y1550000D01*
X11990000Y1650000D02*
X11890000Y1550000D01*
X450000Y3775000D02*
G75*
G02*
X350000Y3775000I-50000J0D01*
G01*
X350000Y3775000D02*
G75*
G02*
X450000Y3775000I50000J0D01*
G01*
X450000Y3525000D02*
G75*
G02*
X350000Y3525000I-50000J0D01*
G01*
X350000Y3525000D02*
G75*
G02*
X450000Y3525000I50000J0D01*
G01*
X450000Y3275000D02*
G75*
G02*
X350000Y3275000I-50000J0D01*
G01*
X350000Y3275000D02*
G75*
G02*
X450000Y3275000I50000J0D01*
G01*
X450000Y3025000D02*
G75*
G02*
X350000Y3025000I-50000J0D01*
G01*
X350000Y3025000D02*
G75*
G02*
X450000Y3025000I50000J0D01*
G01*
D13*
X600000Y8085000D02*
X600000Y7975000D01*
X545000Y8030000D02*
X655000Y8030000D01*
X600000Y5385000D02*
X600000Y5275000D01*
X545000Y5330000D02*
X655000Y5330000D01*
X1600000Y7955000D02*
X1600000Y7845000D01*
X1545000Y7900000D02*
X1655000Y7900000D01*
X1600000Y5755000D02*
X1600000Y5645000D01*
X1545000Y5700000D02*
X1655000Y5700000D01*
X1800000Y4055000D02*
X1800000Y3945000D01*
X1745000Y4000000D02*
X1855000Y4000000D01*
X1800000Y1855000D02*
X1800000Y1745000D01*
X1745000Y1800000D02*
X1855000Y1800000D01*
X3050000Y3535000D02*
X3050000Y3425000D01*
X2995000Y3480000D02*
X3105000Y3480000D01*
X3050000Y835000D02*
X3050000Y725000D01*
X2995000Y780000D02*
X3105000Y780000D01*
X4150000Y8675000D02*
X4150000Y8565000D01*
X4095000Y8620000D02*
X4205000Y8620000D01*
X4150000Y5975000D02*
X4150000Y5865000D01*
X4095000Y5920000D02*
X4205000Y5920000D01*
X5450000Y3535000D02*
X5450000Y3425000D01*
X5395000Y3480000D02*
X5505000Y3480000D01*
X5450000Y835000D02*
X5450000Y725000D01*
X5395000Y780000D02*
X5505000Y780000D01*
X6550000Y8675000D02*
X6550000Y8565000D01*
X6495000Y8620000D02*
X6605000Y8620000D01*
X6550000Y5975000D02*
X6550000Y5865000D01*
X6495000Y5920000D02*
X6605000Y5920000D01*
X7850000Y3555000D02*
X7850000Y3445000D01*
X7795000Y3500000D02*
X7905000Y3500000D01*
X7850000Y855000D02*
X7850000Y745000D01*
X7795000Y800000D02*
X7905000Y800000D01*
X8950000Y8675000D02*
X8950000Y8565000D01*
X8895000Y8620000D02*
X9005000Y8620000D01*
X8950000Y5975000D02*
X8950000Y5865000D01*
X8895000Y5920000D02*
X9005000Y5920000D01*
X10250000Y3548000D02*
X10250000Y3438000D01*
X10195000Y3493000D02*
X10305000Y3493000D01*
X10250000Y848000D02*
X10250000Y738000D01*
X10195000Y793000D02*
X10305000Y793000D01*
X11350000Y8675000D02*
X11350000Y8565000D01*
X11295000Y8620000D02*
X11405000Y8620000D01*
X11350000Y5975000D02*
X11350000Y5865000D01*
X11295000Y5920000D02*
X11405000Y5920000D01*
D14*
X3240659Y4659341D02*
X3240659Y4740659D01*
X3159341Y4740659D01*
X3159341Y4659341D01*
X3240659Y4659341D01*
X6840659Y4659341D02*
X6840659Y4740659D01*
X6759341Y4740659D01*
X6759341Y4659341D01*
X6840659Y4659341D01*
X7240659Y4659341D02*
X7240659Y4740659D01*
X7159341Y4740659D01*
X7159341Y4659341D01*
X7240659Y4659341D01*
X10840659Y4659341D02*
X10840659Y4740659D01*
X10759341Y4740659D01*
X10759341Y4659341D01*
X10840659Y4659341D01*
D15*
X3055000Y8979000D02*
X3126000Y9050000D01*
X3055000Y9121000D01*
X2984000Y9050000D01*
X3055000Y8979000D01*
X3055000Y279000D02*
X3126000Y350000D01*
X3055000Y421000D01*
X2984000Y350000D01*
X3055000Y279000D01*
X3600000Y8979000D02*
X3671000Y9050000D01*
X3600000Y9121000D01*
X3529000Y9050000D01*
X3600000Y8979000D01*
X3600000Y279000D02*
X3671000Y350000D01*
X3600000Y421000D01*
X3529000Y350000D01*
X3600000Y279000D01*
X4145000Y8979000D02*
X4216000Y9050000D01*
X4145000Y9121000D01*
X4074000Y9050000D01*
X4145000Y8979000D01*
X4145000Y279000D02*
X4216000Y350000D01*
X4145000Y421000D01*
X4074000Y350000D01*
X4145000Y279000D01*
X5455000Y8979000D02*
X5526000Y9050000D01*
X5455000Y9121000D01*
X5384000Y9050000D01*
X5455000Y8979000D01*
X5455000Y279000D02*
X5526000Y350000D01*
X5455000Y421000D01*
X5384000Y350000D01*
X5455000Y279000D01*
X6000000Y8979000D02*
X6071000Y9050000D01*
X6000000Y9121000D01*
X5929000Y9050000D01*
X6000000Y8979000D01*
X6000000Y279000D02*
X6071000Y350000D01*
X6000000Y421000D01*
X5929000Y350000D01*
X6000000Y279000D01*
X6545000Y8979000D02*
X6616000Y9050000D01*
X6545000Y9121000D01*
X6474000Y9050000D01*
X6545000Y8979000D01*
X6545000Y279000D02*
X6616000Y350000D01*
X6545000Y421000D01*
X6474000Y350000D01*
X6545000Y279000D01*
X7855000Y8979000D02*
X7926000Y9050000D01*
X7855000Y9121000D01*
X7784000Y9050000D01*
X7855000Y8979000D01*
X7855000Y279000D02*
X7926000Y350000D01*
X7855000Y421000D01*
X7784000Y350000D01*
X7855000Y279000D01*
X8400000Y8979000D02*
X8471000Y9050000D01*
X8400000Y9121000D01*
X8329000Y9050000D01*
X8400000Y8979000D01*
X8400000Y279000D02*
X8471000Y350000D01*
X8400000Y421000D01*
X8329000Y350000D01*
X8400000Y279000D01*
X8945000Y8979000D02*
X9016000Y9050000D01*
X8945000Y9121000D01*
X8874000Y9050000D01*
X8945000Y8979000D01*
X8945000Y279000D02*
X9016000Y350000D01*
X8945000Y421000D01*
X8874000Y350000D01*
X8945000Y279000D01*
X10255000Y8979000D02*
X10326000Y9050000D01*
X10255000Y9121000D01*
X10184000Y9050000D01*
X10255000Y8979000D01*
X10255000Y279000D02*
X10326000Y350000D01*
X10255000Y421000D01*
X10184000Y350000D01*
X10255000Y279000D01*
X10800000Y8979000D02*
X10871000Y9050000D01*
X10800000Y9121000D01*
X10729000Y9050000D01*
X10800000Y8979000D01*
X10800000Y279000D02*
X10871000Y350000D01*
X10800000Y421000D01*
X10729000Y350000D01*
X10800000Y279000D01*
X11345000Y8979000D02*
X11416000Y9050000D01*
X11345000Y9121000D01*
X11274000Y9050000D01*
X11345000Y8979000D01*
X11345000Y279000D02*
X11416000Y350000D01*
X11345000Y421000D01*
X11274000Y350000D01*
X11345000Y279000D01*
D16*
X213000Y4887000D02*
X387000Y4713000D01*
X387000Y4887000D02*
X213000Y4713000D01*
X387000Y4800000D02*
G75*
G02*
X213000Y4800000I-87000J0D01*
G01*
X213000Y4800000D02*
G75*
G02*
X387000Y4800000I87000J0D01*
G01*
X263000Y9187000D02*
X437000Y9013000D01*
X437000Y9187000D02*
X263000Y9013000D01*
X437000Y9100000D02*
G75*
G02*
X263000Y9100000I-87000J0D01*
G01*
X263000Y9100000D02*
G75*
G02*
X437000Y9100000I87000J0D01*
G01*
X263000Y8687000D02*
X437000Y8513000D01*
X437000Y8687000D02*
X263000Y8513000D01*
X437000Y8600000D02*
G75*
G02*
X263000Y8600000I-87000J0D01*
G01*
X263000Y8600000D02*
G75*
G02*
X437000Y8600000I87000J0D01*
G01*
X713000Y4887000D02*
X887000Y4713000D01*
X887000Y4887000D02*
X713000Y4713000D01*
X887000Y4800000D02*
G75*
G02*
X713000Y4800000I-87000J0D01*
G01*
X713000Y4800000D02*
G75*
G02*
X887000Y4800000I87000J0D01*
G01*
X963000Y9187000D02*
X1137000Y9013000D01*
X1137000Y9187000D02*
X963000Y9013000D01*
X1137000Y9100000D02*
G75*
G02*
X963000Y9100000I-87000J0D01*
G01*
X963000Y9100000D02*
G75*
G02*
X1137000Y9100000I87000J0D01*
G01*
X963000Y8687000D02*
X1137000Y8513000D01*
X1137000Y8687000D02*
X963000Y8513000D01*
X1137000Y8600000D02*
G75*
G02*
X963000Y8600000I-87000J0D01*
G01*
X963000Y8600000D02*
G75*
G02*
X1137000Y8600000I87000J0D01*
G01*
X2063000Y9187000D02*
X2237000Y9013000D01*
X2237000Y9187000D02*
X2063000Y9013000D01*
X2237000Y9100000D02*
G75*
G02*
X2063000Y9100000I-87000J0D01*
G01*
X2063000Y9100000D02*
G75*
G02*
X2237000Y9100000I87000J0D01*
G01*
X2063000Y8687000D02*
X2237000Y8513000D01*
X2237000Y8687000D02*
X2063000Y8513000D01*
X2237000Y8600000D02*
G75*
G02*
X2063000Y8600000I-87000J0D01*
G01*
X2063000Y8600000D02*
G75*
G02*
X2237000Y8600000I87000J0D01*
G01*
X12113000Y5537000D02*
X12287000Y5363000D01*
X12287000Y5537000D02*
X12113000Y5363000D01*
X12287000Y5450000D02*
G75*
G02*
X12113000Y5450000I-87000J0D01*
G01*
X12113000Y5450000D02*
G75*
G02*
X12287000Y5450000I87000J0D01*
G01*
X12113000Y4037000D02*
X12287000Y3863000D01*
X12287000Y4037000D02*
X12113000Y3863000D01*
X12287000Y3950000D02*
G75*
G02*
X12113000Y3950000I-87000J0D01*
G01*
X12113000Y3950000D02*
G75*
G02*
X12287000Y3950000I87000J0D01*
G01*
X12613000Y5537000D02*
X12787000Y5363000D01*
X12787000Y5537000D02*
X12613000Y5363000D01*
X12787000Y5450000D02*
G75*
G02*
X12613000Y5450000I-87000J0D01*
G01*
X12613000Y5450000D02*
G75*
G02*
X12787000Y5450000I87000J0D01*
G01*
X12613000Y4037000D02*
X12787000Y3863000D01*
X12787000Y4037000D02*
X12613000Y3863000D01*
X12787000Y3950000D02*
G75*
G02*
X12613000Y3950000I-87000J0D01*
G01*
X12613000Y3950000D02*
G75*
G02*
X12787000Y3950000I87000J0D01*
G01*
D11*
X258277Y-313984D02*
X258277Y-113984D01*
X258277Y-113984D02*
X305896Y-113984D01*
X305896Y-113984D02*
X334467Y-123508D01*
X334467Y-123508D02*
X353515Y-142555D01*
X353515Y-142555D02*
X363039Y-161603D01*
X363039Y-161603D02*
X372562Y-199698D01*
X372562Y-199698D02*
X372562Y-228269D01*
X372562Y-228269D02*
X363039Y-266365D01*
X363039Y-266365D02*
X353515Y-285412D01*
X353515Y-285412D02*
X334467Y-304460D01*
X334467Y-304460D02*
X305896Y-313984D01*
X305896Y-313984D02*
X258277Y-313984D01*
X458277Y-313984D02*
X458277Y-180650D01*
X458277Y-218746D02*
X467801Y-199698D01*
X467801Y-199698D02*
X477324Y-190174D01*
X477324Y-190174D02*
X496372Y-180650D01*
X496372Y-180650D02*
X515420Y-180650D01*
X582086Y-313984D02*
X582086Y-180650D01*
X582086Y-113984D02*
X572563Y-123508D01*
X572563Y-123508D02*
X582086Y-133031D01*
X582086Y-133031D02*
X591610Y-123508D01*
X591610Y-123508D02*
X582086Y-113984D01*
X582086Y-113984D02*
X582086Y-133031D01*
X705896Y-313984D02*
X686848Y-304460D01*
X686848Y-304460D02*
X677324Y-285412D01*
X677324Y-285412D02*
X677324Y-113984D01*
X810658Y-313984D02*
X791610Y-304460D01*
X791610Y-304460D02*
X782086Y-285412D01*
X782086Y-285412D02*
X782086Y-113984D01*
X1039229Y-313984D02*
X1039229Y-113984D01*
X1039229Y-113984D02*
X1105896Y-256841D01*
X1105896Y-256841D02*
X1172563Y-113984D01*
X1172563Y-113984D02*
X1172563Y-313984D01*
X1353515Y-313984D02*
X1353515Y-209222D01*
X1353515Y-209222D02*
X1343991Y-190174D01*
X1343991Y-190174D02*
X1324944Y-180650D01*
X1324944Y-180650D02*
X1286848Y-180650D01*
X1286848Y-180650D02*
X1267801Y-190174D01*
X1353515Y-304460D02*
X1334467Y-313984D01*
X1334467Y-313984D02*
X1286848Y-313984D01*
X1286848Y-313984D02*
X1267801Y-304460D01*
X1267801Y-304460D02*
X1258277Y-285412D01*
X1258277Y-285412D02*
X1258277Y-266365D01*
X1258277Y-266365D02*
X1267801Y-247317D01*
X1267801Y-247317D02*
X1286848Y-237793D01*
X1286848Y-237793D02*
X1334467Y-237793D01*
X1334467Y-237793D02*
X1353515Y-228269D01*
X1448753Y-180650D02*
X1448753Y-380650D01*
X1448753Y-190174D02*
X1467801Y-180650D01*
X1467801Y-180650D02*
X1505896Y-180650D01*
X1505896Y-180650D02*
X1524943Y-190174D01*
X1524943Y-190174D02*
X1534467Y-199698D01*
X1534467Y-199698D02*
X1543991Y-218746D01*
X1543991Y-218746D02*
X1543991Y-275889D01*
X1543991Y-275889D02*
X1534467Y-294936D01*
X1534467Y-294936D02*
X1524943Y-304460D01*
X1524943Y-304460D02*
X1505896Y-313984D01*
X1505896Y-313984D02*
X1467801Y-313984D01*
X1467801Y-313984D02*
X1448753Y-304460D01*
X1629705Y-294936D02*
X1639229Y-304460D01*
X1639229Y-304460D02*
X1629705Y-313984D01*
X1629705Y-313984D02*
X1620182Y-304460D01*
X1620182Y-304460D02*
X1629705Y-294936D01*
X1629705Y-294936D02*
X1629705Y-313984D01*
X1629705Y-190174D02*
X1639229Y-199698D01*
X1639229Y-199698D02*
X1629705Y-209222D01*
X1629705Y-209222D02*
X1620182Y-199698D01*
X1620182Y-199698D02*
X1629705Y-190174D01*
X1629705Y-190174D02*
X1629705Y-209222D01*
D12*
X-102500Y-592500D02*
X-2500Y-692500D01*
X-2500Y-592500D02*
X-102500Y-692500D01*
D11*
X363039Y-733984D02*
X248753Y-733984D01*
X305896Y-733984D02*
X305896Y-533984D01*
X305896Y-533984D02*
X286848Y-562555D01*
X286848Y-562555D02*
X267801Y-581603D01*
X267801Y-581603D02*
X248753Y-591127D01*
X448753Y-714936D02*
X458277Y-724460D01*
X458277Y-724460D02*
X448753Y-733984D01*
X448753Y-733984D02*
X439229Y-724460D01*
X439229Y-724460D02*
X448753Y-714936D01*
X448753Y-714936D02*
X448753Y-733984D01*
X582086Y-533984D02*
X601134Y-533984D01*
X601134Y-533984D02*
X620182Y-543508D01*
X620182Y-543508D02*
X629705Y-553031D01*
X629705Y-553031D02*
X639229Y-572079D01*
X639229Y-572079D02*
X648753Y-610174D01*
X648753Y-610174D02*
X648753Y-657793D01*
X648753Y-657793D02*
X639229Y-695889D01*
X639229Y-695889D02*
X629705Y-714936D01*
X629705Y-714936D02*
X620182Y-724460D01*
X620182Y-724460D02*
X601134Y-733984D01*
X601134Y-733984D02*
X582086Y-733984D01*
X582086Y-733984D02*
X563039Y-724460D01*
X563039Y-724460D02*
X553515Y-714936D01*
X553515Y-714936D02*
X543991Y-695889D01*
X543991Y-695889D02*
X534467Y-657793D01*
X534467Y-657793D02*
X534467Y-610174D01*
X534467Y-610174D02*
X543991Y-572079D01*
X543991Y-572079D02*
X553515Y-553031D01*
X553515Y-553031D02*
X563039Y-543508D01*
X563039Y-543508D02*
X582086Y-533984D01*
X772562Y-533984D02*
X791610Y-533984D01*
X791610Y-533984D02*
X810658Y-543508D01*
X810658Y-543508D02*
X820182Y-553031D01*
X820182Y-553031D02*
X829705Y-572079D01*
X829705Y-572079D02*
X839229Y-610174D01*
X839229Y-610174D02*
X839229Y-657793D01*
X839229Y-657793D02*
X829705Y-695889D01*
X829705Y-695889D02*
X820182Y-714936D01*
X820182Y-714936D02*
X810658Y-724460D01*
X810658Y-724460D02*
X791610Y-733984D01*
X791610Y-733984D02*
X772562Y-733984D01*
X772562Y-733984D02*
X753515Y-724460D01*
X753515Y-724460D02*
X743991Y-714936D01*
X743991Y-714936D02*
X734467Y-695889D01*
X734467Y-695889D02*
X724943Y-657793D01*
X724943Y-657793D02*
X724943Y-610174D01*
X724943Y-610174D02*
X734467Y-572079D01*
X734467Y-572079D02*
X743991Y-553031D01*
X743991Y-553031D02*
X753515Y-543508D01*
X753515Y-543508D02*
X772562Y-533984D01*
X963039Y-533984D02*
X982086Y-533984D01*
X982086Y-533984D02*
X1001134Y-543508D01*
X1001134Y-543508D02*
X1010658Y-553031D01*
X1010658Y-553031D02*
X1020182Y-572079D01*
X1020182Y-572079D02*
X1029705Y-610174D01*
X1029705Y-610174D02*
X1029705Y-657793D01*
X1029705Y-657793D02*
X1020182Y-695889D01*
X1020182Y-695889D02*
X1010658Y-714936D01*
X1010658Y-714936D02*
X1001134Y-724460D01*
X1001134Y-724460D02*
X982086Y-733984D01*
X982086Y-733984D02*
X963039Y-733984D01*
X963039Y-733984D02*
X943991Y-724460D01*
X943991Y-724460D02*
X934467Y-714936D01*
X934467Y-714936D02*
X924943Y-695889D01*
X924943Y-695889D02*
X915420Y-657793D01*
X915420Y-657793D02*
X915420Y-610174D01*
X915420Y-610174D02*
X924943Y-572079D01*
X924943Y-572079D02*
X934467Y-553031D01*
X934467Y-553031D02*
X943991Y-543508D01*
X943991Y-543508D02*
X963039Y-533984D01*
X1115420Y-733984D02*
X1115420Y-600650D01*
X1115420Y-619698D02*
X1124944Y-610174D01*
X1124944Y-610174D02*
X1143991Y-600650D01*
X1143991Y-600650D02*
X1172563Y-600650D01*
X1172563Y-600650D02*
X1191610Y-610174D01*
X1191610Y-610174D02*
X1201134Y-629222D01*
X1201134Y-629222D02*
X1201134Y-733984D01*
X1201134Y-629222D02*
X1210658Y-610174D01*
X1210658Y-610174D02*
X1229705Y-600650D01*
X1229705Y-600650D02*
X1258277Y-600650D01*
X1258277Y-600650D02*
X1277325Y-610174D01*
X1277325Y-610174D02*
X1286848Y-629222D01*
X1286848Y-629222D02*
X1286848Y-733984D01*
X1382086Y-733984D02*
X1382086Y-600650D01*
X1382086Y-619698D02*
X1391610Y-610174D01*
X1391610Y-610174D02*
X1410658Y-600650D01*
X1410658Y-600650D02*
X1439229Y-600650D01*
X1439229Y-600650D02*
X1458277Y-610174D01*
X1458277Y-610174D02*
X1467801Y-629222D01*
X1467801Y-629222D02*
X1467801Y-733984D01*
X1467801Y-629222D02*
X1477324Y-610174D01*
X1477324Y-610174D02*
X1496372Y-600650D01*
X1496372Y-600650D02*
X1524943Y-600650D01*
X1524943Y-600650D02*
X1543991Y-610174D01*
X1543991Y-610174D02*
X1553515Y-629222D01*
X1553515Y-629222D02*
X1553515Y-733984D01*
X1943991Y-524460D02*
X1772563Y-781603D01*
X2201134Y-533984D02*
X2220182Y-533984D01*
X2220182Y-533984D02*
X2239229Y-543508D01*
X2239229Y-543508D02*
X2248753Y-553031D01*
X2248753Y-553031D02*
X2258277Y-572079D01*
X2258277Y-572079D02*
X2267801Y-610174D01*
X2267801Y-610174D02*
X2267801Y-657793D01*
X2267801Y-657793D02*
X2258277Y-695889D01*
X2258277Y-695889D02*
X2248753Y-714936D01*
X2248753Y-714936D02*
X2239229Y-724460D01*
X2239229Y-724460D02*
X2220182Y-733984D01*
X2220182Y-733984D02*
X2201134Y-733984D01*
X2201134Y-733984D02*
X2182087Y-724460D01*
X2182087Y-724460D02*
X2172563Y-714936D01*
X2172563Y-714936D02*
X2163039Y-695889D01*
X2163039Y-695889D02*
X2153515Y-657793D01*
X2153515Y-657793D02*
X2153515Y-610174D01*
X2153515Y-610174D02*
X2163039Y-572079D01*
X2163039Y-572079D02*
X2172563Y-553031D01*
X2172563Y-553031D02*
X2182087Y-543508D01*
X2182087Y-543508D02*
X2201134Y-533984D01*
X2353515Y-714936D02*
X2363039Y-724460D01*
X2363039Y-724460D02*
X2353515Y-733984D01*
X2353515Y-733984D02*
X2343991Y-724460D01*
X2343991Y-724460D02*
X2353515Y-714936D01*
X2353515Y-714936D02*
X2353515Y-733984D01*
X2486848Y-533984D02*
X2505896Y-533984D01*
X2505896Y-533984D02*
X2524944Y-543508D01*
X2524944Y-543508D02*
X2534468Y-553031D01*
X2534468Y-553031D02*
X2543991Y-572079D01*
X2543991Y-572079D02*
X2553515Y-610174D01*
X2553515Y-610174D02*
X2553515Y-657793D01*
X2553515Y-657793D02*
X2543991Y-695889D01*
X2543991Y-695889D02*
X2534468Y-714936D01*
X2534468Y-714936D02*
X2524944Y-724460D01*
X2524944Y-724460D02*
X2505896Y-733984D01*
X2505896Y-733984D02*
X2486848Y-733984D01*
X2486848Y-733984D02*
X2467801Y-724460D01*
X2467801Y-724460D02*
X2458277Y-714936D01*
X2458277Y-714936D02*
X2448753Y-695889D01*
X2448753Y-695889D02*
X2439229Y-657793D01*
X2439229Y-657793D02*
X2439229Y-610174D01*
X2439229Y-610174D02*
X2448753Y-572079D01*
X2448753Y-572079D02*
X2458277Y-553031D01*
X2458277Y-553031D02*
X2467801Y-543508D01*
X2467801Y-543508D02*
X2486848Y-533984D01*
X2620182Y-533984D02*
X2743991Y-533984D01*
X2743991Y-533984D02*
X2677325Y-610174D01*
X2677325Y-610174D02*
X2705896Y-610174D01*
X2705896Y-610174D02*
X2724944Y-619698D01*
X2724944Y-619698D02*
X2734468Y-629222D01*
X2734468Y-629222D02*
X2743991Y-648270D01*
X2743991Y-648270D02*
X2743991Y-695889D01*
X2743991Y-695889D02*
X2734468Y-714936D01*
X2734468Y-714936D02*
X2724944Y-724460D01*
X2724944Y-724460D02*
X2705896Y-733984D01*
X2705896Y-733984D02*
X2648753Y-733984D01*
X2648753Y-733984D02*
X2629706Y-724460D01*
X2629706Y-724460D02*
X2620182Y-714936D01*
X2839229Y-733984D02*
X2877325Y-733984D01*
X2877325Y-733984D02*
X2896372Y-724460D01*
X2896372Y-724460D02*
X2905896Y-714936D01*
X2905896Y-714936D02*
X2924944Y-686365D01*
X2924944Y-686365D02*
X2934467Y-648270D01*
X2934467Y-648270D02*
X2934467Y-572079D01*
X2934467Y-572079D02*
X2924944Y-553031D01*
X2924944Y-553031D02*
X2915420Y-543508D01*
X2915420Y-543508D02*
X2896372Y-533984D01*
X2896372Y-533984D02*
X2858277Y-533984D01*
X2858277Y-533984D02*
X2839229Y-543508D01*
X2839229Y-543508D02*
X2829706Y-553031D01*
X2829706Y-553031D02*
X2820182Y-572079D01*
X2820182Y-572079D02*
X2820182Y-619698D01*
X2820182Y-619698D02*
X2829706Y-638746D01*
X2829706Y-638746D02*
X2839229Y-648270D01*
X2839229Y-648270D02*
X2858277Y-657793D01*
X2858277Y-657793D02*
X2896372Y-657793D01*
X2896372Y-657793D02*
X2915420Y-648270D01*
X2915420Y-648270D02*
X2924944Y-638746D01*
X2924944Y-638746D02*
X2934467Y-619698D01*
X3105896Y-600650D02*
X3105896Y-733984D01*
X3058277Y-524460D02*
X3010658Y-667317D01*
X3010658Y-667317D02*
X3134467Y-667317D01*
X3201134Y-533984D02*
X3201134Y-572079D01*
X3277325Y-533984D02*
X3277325Y-572079D01*
X3572563Y-810174D02*
X3563039Y-800650D01*
X3563039Y-800650D02*
X3543991Y-772079D01*
X3543991Y-772079D02*
X3534468Y-753031D01*
X3534468Y-753031D02*
X3524944Y-724460D01*
X3524944Y-724460D02*
X3515420Y-676841D01*
X3515420Y-676841D02*
X3515420Y-638746D01*
X3515420Y-638746D02*
X3524944Y-591127D01*
X3524944Y-591127D02*
X3534468Y-562555D01*
X3534468Y-562555D02*
X3543991Y-543508D01*
X3543991Y-543508D02*
X3563039Y-514936D01*
X3563039Y-514936D02*
X3572563Y-505412D01*
X3639229Y-553031D02*
X3648753Y-543508D01*
X3648753Y-543508D02*
X3667801Y-533984D01*
X3667801Y-533984D02*
X3715420Y-533984D01*
X3715420Y-533984D02*
X3734468Y-543508D01*
X3734468Y-543508D02*
X3743991Y-553031D01*
X3743991Y-553031D02*
X3753515Y-572079D01*
X3753515Y-572079D02*
X3753515Y-591127D01*
X3753515Y-591127D02*
X3743991Y-619698D01*
X3743991Y-619698D02*
X3629706Y-733984D01*
X3629706Y-733984D02*
X3753515Y-733984D01*
X3829706Y-553031D02*
X3839229Y-543508D01*
X3839229Y-543508D02*
X3858277Y-533984D01*
X3858277Y-533984D02*
X3905896Y-533984D01*
X3905896Y-533984D02*
X3924944Y-543508D01*
X3924944Y-543508D02*
X3934468Y-553031D01*
X3934468Y-553031D02*
X3943991Y-572079D01*
X3943991Y-572079D02*
X3943991Y-591127D01*
X3943991Y-591127D02*
X3934468Y-619698D01*
X3934468Y-619698D02*
X3820182Y-733984D01*
X3820182Y-733984D02*
X3943991Y-733984D01*
X4182087Y-733984D02*
X4182087Y-533984D01*
X4267801Y-733984D02*
X4267801Y-629222D01*
X4267801Y-629222D02*
X4258277Y-610174D01*
X4258277Y-610174D02*
X4239230Y-600650D01*
X4239230Y-600650D02*
X4210658Y-600650D01*
X4210658Y-600650D02*
X4191610Y-610174D01*
X4191610Y-610174D02*
X4182087Y-619698D01*
X4391611Y-733984D02*
X4372563Y-724460D01*
X4372563Y-724460D02*
X4363039Y-714936D01*
X4363039Y-714936D02*
X4353515Y-695889D01*
X4353515Y-695889D02*
X4353515Y-638746D01*
X4353515Y-638746D02*
X4363039Y-619698D01*
X4363039Y-619698D02*
X4372563Y-610174D01*
X4372563Y-610174D02*
X4391611Y-600650D01*
X4391611Y-600650D02*
X4420182Y-600650D01*
X4420182Y-600650D02*
X4439230Y-610174D01*
X4439230Y-610174D02*
X4448753Y-619698D01*
X4448753Y-619698D02*
X4458277Y-638746D01*
X4458277Y-638746D02*
X4458277Y-695889D01*
X4458277Y-695889D02*
X4448753Y-714936D01*
X4448753Y-714936D02*
X4439230Y-724460D01*
X4439230Y-724460D02*
X4420182Y-733984D01*
X4420182Y-733984D02*
X4391611Y-733984D01*
X4572563Y-733984D02*
X4553515Y-724460D01*
X4553515Y-724460D02*
X4543992Y-705412D01*
X4543992Y-705412D02*
X4543992Y-533984D01*
X4724944Y-724460D02*
X4705896Y-733984D01*
X4705896Y-733984D02*
X4667801Y-733984D01*
X4667801Y-733984D02*
X4648753Y-724460D01*
X4648753Y-724460D02*
X4639230Y-705412D01*
X4639230Y-705412D02*
X4639230Y-629222D01*
X4639230Y-629222D02*
X4648753Y-610174D01*
X4648753Y-610174D02*
X4667801Y-600650D01*
X4667801Y-600650D02*
X4705896Y-600650D01*
X4705896Y-600650D02*
X4724944Y-610174D01*
X4724944Y-610174D02*
X4734468Y-629222D01*
X4734468Y-629222D02*
X4734468Y-648270D01*
X4734468Y-648270D02*
X4639230Y-667317D01*
X4810658Y-724460D02*
X4829706Y-733984D01*
X4829706Y-733984D02*
X4867801Y-733984D01*
X4867801Y-733984D02*
X4886849Y-724460D01*
X4886849Y-724460D02*
X4896373Y-705412D01*
X4896373Y-705412D02*
X4896373Y-695889D01*
X4896373Y-695889D02*
X4886849Y-676841D01*
X4886849Y-676841D02*
X4867801Y-667317D01*
X4867801Y-667317D02*
X4839230Y-667317D01*
X4839230Y-667317D02*
X4820182Y-657793D01*
X4820182Y-657793D02*
X4810658Y-638746D01*
X4810658Y-638746D02*
X4810658Y-629222D01*
X4810658Y-629222D02*
X4820182Y-610174D01*
X4820182Y-610174D02*
X4839230Y-600650D01*
X4839230Y-600650D02*
X4867801Y-600650D01*
X4867801Y-600650D02*
X4886849Y-610174D01*
X4963039Y-810174D02*
X4972563Y-800650D01*
X4972563Y-800650D02*
X4991611Y-772079D01*
X4991611Y-772079D02*
X5001134Y-753031D01*
X5001134Y-753031D02*
X5010658Y-724460D01*
X5010658Y-724460D02*
X5020182Y-676841D01*
X5020182Y-676841D02*
X5020182Y-638746D01*
X5020182Y-638746D02*
X5010658Y-591127D01*
X5010658Y-591127D02*
X5001134Y-562555D01*
X5001134Y-562555D02*
X4991611Y-543508D01*
X4991611Y-543508D02*
X4972563Y-514936D01*
X4972563Y-514936D02*
X4963039Y-505412D01*
D12*
X-2500Y-906500D02*
G75*
G02*
X-102500Y-906500I-50000J0D01*
G01*
X-102500Y-906500D02*
G75*
G02*
X-2500Y-906500I50000J0D01*
G01*
D11*
X363039Y-997984D02*
X248753Y-997984D01*
X305896Y-997984D02*
X305896Y-797984D01*
X305896Y-797984D02*
X286848Y-826555D01*
X286848Y-826555D02*
X267801Y-845603D01*
X267801Y-845603D02*
X248753Y-855127D01*
X448753Y-978936D02*
X458277Y-988460D01*
X458277Y-988460D02*
X448753Y-997984D01*
X448753Y-997984D02*
X439229Y-988460D01*
X439229Y-988460D02*
X448753Y-978936D01*
X448753Y-978936D02*
X448753Y-997984D01*
X582086Y-797984D02*
X601134Y-797984D01*
X601134Y-797984D02*
X620182Y-807508D01*
X620182Y-807508D02*
X629705Y-817031D01*
X629705Y-817031D02*
X639229Y-836079D01*
X639229Y-836079D02*
X648753Y-874174D01*
X648753Y-874174D02*
X648753Y-921793D01*
X648753Y-921793D02*
X639229Y-959888D01*
X639229Y-959888D02*
X629705Y-978936D01*
X629705Y-978936D02*
X620182Y-988460D01*
X620182Y-988460D02*
X601134Y-997984D01*
X601134Y-997984D02*
X582086Y-997984D01*
X582086Y-997984D02*
X563039Y-988460D01*
X563039Y-988460D02*
X553515Y-978936D01*
X553515Y-978936D02*
X543991Y-959888D01*
X543991Y-959888D02*
X534467Y-921793D01*
X534467Y-921793D02*
X534467Y-874174D01*
X534467Y-874174D02*
X543991Y-836079D01*
X543991Y-836079D02*
X553515Y-817031D01*
X553515Y-817031D02*
X563039Y-807508D01*
X563039Y-807508D02*
X582086Y-797984D01*
X772562Y-797984D02*
X791610Y-797984D01*
X791610Y-797984D02*
X810658Y-807508D01*
X810658Y-807508D02*
X820182Y-817031D01*
X820182Y-817031D02*
X829705Y-836079D01*
X829705Y-836079D02*
X839229Y-874174D01*
X839229Y-874174D02*
X839229Y-921793D01*
X839229Y-921793D02*
X829705Y-959888D01*
X829705Y-959888D02*
X820182Y-978936D01*
X820182Y-978936D02*
X810658Y-988460D01*
X810658Y-988460D02*
X791610Y-997984D01*
X791610Y-997984D02*
X772562Y-997984D01*
X772562Y-997984D02*
X753515Y-988460D01*
X753515Y-988460D02*
X743991Y-978936D01*
X743991Y-978936D02*
X734467Y-959888D01*
X734467Y-959888D02*
X724943Y-921793D01*
X724943Y-921793D02*
X724943Y-874174D01*
X724943Y-874174D02*
X734467Y-836079D01*
X734467Y-836079D02*
X743991Y-817031D01*
X743991Y-817031D02*
X753515Y-807508D01*
X753515Y-807508D02*
X772562Y-797984D01*
X963039Y-797984D02*
X982086Y-797984D01*
X982086Y-797984D02*
X1001134Y-807508D01*
X1001134Y-807508D02*
X1010658Y-817031D01*
X1010658Y-817031D02*
X1020182Y-836079D01*
X1020182Y-836079D02*
X1029705Y-874174D01*
X1029705Y-874174D02*
X1029705Y-921793D01*
X1029705Y-921793D02*
X1020182Y-959888D01*
X1020182Y-959888D02*
X1010658Y-978936D01*
X1010658Y-978936D02*
X1001134Y-988460D01*
X1001134Y-988460D02*
X982086Y-997984D01*
X982086Y-997984D02*
X963039Y-997984D01*
X963039Y-997984D02*
X943991Y-988460D01*
X943991Y-988460D02*
X934467Y-978936D01*
X934467Y-978936D02*
X924943Y-959888D01*
X924943Y-959888D02*
X915420Y-921793D01*
X915420Y-921793D02*
X915420Y-874174D01*
X915420Y-874174D02*
X924943Y-836079D01*
X924943Y-836079D02*
X934467Y-817031D01*
X934467Y-817031D02*
X943991Y-807508D01*
X943991Y-807508D02*
X963039Y-797984D01*
X1115420Y-997984D02*
X1115420Y-864650D01*
X1115420Y-883698D02*
X1124944Y-874174D01*
X1124944Y-874174D02*
X1143991Y-864650D01*
X1143991Y-864650D02*
X1172563Y-864650D01*
X1172563Y-864650D02*
X1191610Y-874174D01*
X1191610Y-874174D02*
X1201134Y-893222D01*
X1201134Y-893222D02*
X1201134Y-997984D01*
X1201134Y-893222D02*
X1210658Y-874174D01*
X1210658Y-874174D02*
X1229705Y-864650D01*
X1229705Y-864650D02*
X1258277Y-864650D01*
X1258277Y-864650D02*
X1277325Y-874174D01*
X1277325Y-874174D02*
X1286848Y-893222D01*
X1286848Y-893222D02*
X1286848Y-997984D01*
X1382086Y-997984D02*
X1382086Y-864650D01*
X1382086Y-883698D02*
X1391610Y-874174D01*
X1391610Y-874174D02*
X1410658Y-864650D01*
X1410658Y-864650D02*
X1439229Y-864650D01*
X1439229Y-864650D02*
X1458277Y-874174D01*
X1458277Y-874174D02*
X1467801Y-893222D01*
X1467801Y-893222D02*
X1467801Y-997984D01*
X1467801Y-893222D02*
X1477324Y-874174D01*
X1477324Y-874174D02*
X1496372Y-864650D01*
X1496372Y-864650D02*
X1524943Y-864650D01*
X1524943Y-864650D02*
X1543991Y-874174D01*
X1543991Y-874174D02*
X1553515Y-893222D01*
X1553515Y-893222D02*
X1553515Y-997984D01*
X1943991Y-788460D02*
X1772563Y-1045603D01*
X2201134Y-797984D02*
X2220182Y-797984D01*
X2220182Y-797984D02*
X2239229Y-807508D01*
X2239229Y-807508D02*
X2248753Y-817031D01*
X2248753Y-817031D02*
X2258277Y-836079D01*
X2258277Y-836079D02*
X2267801Y-874174D01*
X2267801Y-874174D02*
X2267801Y-921793D01*
X2267801Y-921793D02*
X2258277Y-959888D01*
X2258277Y-959888D02*
X2248753Y-978936D01*
X2248753Y-978936D02*
X2239229Y-988460D01*
X2239229Y-988460D02*
X2220182Y-997984D01*
X2220182Y-997984D02*
X2201134Y-997984D01*
X2201134Y-997984D02*
X2182087Y-988460D01*
X2182087Y-988460D02*
X2172563Y-978936D01*
X2172563Y-978936D02*
X2163039Y-959888D01*
X2163039Y-959888D02*
X2153515Y-921793D01*
X2153515Y-921793D02*
X2153515Y-874174D01*
X2153515Y-874174D02*
X2163039Y-836079D01*
X2163039Y-836079D02*
X2172563Y-817031D01*
X2172563Y-817031D02*
X2182087Y-807508D01*
X2182087Y-807508D02*
X2201134Y-797984D01*
X2353515Y-978936D02*
X2363039Y-988460D01*
X2363039Y-988460D02*
X2353515Y-997984D01*
X2353515Y-997984D02*
X2343991Y-988460D01*
X2343991Y-988460D02*
X2353515Y-978936D01*
X2353515Y-978936D02*
X2353515Y-997984D01*
X2486848Y-797984D02*
X2505896Y-797984D01*
X2505896Y-797984D02*
X2524944Y-807508D01*
X2524944Y-807508D02*
X2534468Y-817031D01*
X2534468Y-817031D02*
X2543991Y-836079D01*
X2543991Y-836079D02*
X2553515Y-874174D01*
X2553515Y-874174D02*
X2553515Y-921793D01*
X2553515Y-921793D02*
X2543991Y-959888D01*
X2543991Y-959888D02*
X2534468Y-978936D01*
X2534468Y-978936D02*
X2524944Y-988460D01*
X2524944Y-988460D02*
X2505896Y-997984D01*
X2505896Y-997984D02*
X2486848Y-997984D01*
X2486848Y-997984D02*
X2467801Y-988460D01*
X2467801Y-988460D02*
X2458277Y-978936D01*
X2458277Y-978936D02*
X2448753Y-959888D01*
X2448753Y-959888D02*
X2439229Y-921793D01*
X2439229Y-921793D02*
X2439229Y-874174D01*
X2439229Y-874174D02*
X2448753Y-836079D01*
X2448753Y-836079D02*
X2458277Y-817031D01*
X2458277Y-817031D02*
X2467801Y-807508D01*
X2467801Y-807508D02*
X2486848Y-797984D01*
X2620182Y-797984D02*
X2743991Y-797984D01*
X2743991Y-797984D02*
X2677325Y-874174D01*
X2677325Y-874174D02*
X2705896Y-874174D01*
X2705896Y-874174D02*
X2724944Y-883698D01*
X2724944Y-883698D02*
X2734468Y-893222D01*
X2734468Y-893222D02*
X2743991Y-912269D01*
X2743991Y-912269D02*
X2743991Y-959888D01*
X2743991Y-959888D02*
X2734468Y-978936D01*
X2734468Y-978936D02*
X2724944Y-988460D01*
X2724944Y-988460D02*
X2705896Y-997984D01*
X2705896Y-997984D02*
X2648753Y-997984D01*
X2648753Y-997984D02*
X2629706Y-988460D01*
X2629706Y-988460D02*
X2620182Y-978936D01*
X2839229Y-997984D02*
X2877325Y-997984D01*
X2877325Y-997984D02*
X2896372Y-988460D01*
X2896372Y-988460D02*
X2905896Y-978936D01*
X2905896Y-978936D02*
X2924944Y-950365D01*
X2924944Y-950365D02*
X2934467Y-912269D01*
X2934467Y-912269D02*
X2934467Y-836079D01*
X2934467Y-836079D02*
X2924944Y-817031D01*
X2924944Y-817031D02*
X2915420Y-807508D01*
X2915420Y-807508D02*
X2896372Y-797984D01*
X2896372Y-797984D02*
X2858277Y-797984D01*
X2858277Y-797984D02*
X2839229Y-807508D01*
X2839229Y-807508D02*
X2829706Y-817031D01*
X2829706Y-817031D02*
X2820182Y-836079D01*
X2820182Y-836079D02*
X2820182Y-883698D01*
X2820182Y-883698D02*
X2829706Y-902746D01*
X2829706Y-902746D02*
X2839229Y-912269D01*
X2839229Y-912269D02*
X2858277Y-921793D01*
X2858277Y-921793D02*
X2896372Y-921793D01*
X2896372Y-921793D02*
X2915420Y-912269D01*
X2915420Y-912269D02*
X2924944Y-902746D01*
X2924944Y-902746D02*
X2934467Y-883698D01*
X3105896Y-864650D02*
X3105896Y-997984D01*
X3058277Y-788460D02*
X3010658Y-931317D01*
X3010658Y-931317D02*
X3134467Y-931317D01*
X3201134Y-797984D02*
X3201134Y-836079D01*
X3277325Y-797984D02*
X3277325Y-836079D01*
X3572563Y-1074174D02*
X3563039Y-1064650D01*
X3563039Y-1064650D02*
X3543991Y-1036079D01*
X3543991Y-1036079D02*
X3534468Y-1017031D01*
X3534468Y-1017031D02*
X3524944Y-988460D01*
X3524944Y-988460D02*
X3515420Y-940841D01*
X3515420Y-940841D02*
X3515420Y-902746D01*
X3515420Y-902746D02*
X3524944Y-855127D01*
X3524944Y-855127D02*
X3534468Y-826555D01*
X3534468Y-826555D02*
X3543991Y-807508D01*
X3543991Y-807508D02*
X3563039Y-778936D01*
X3563039Y-778936D02*
X3572563Y-769412D01*
X3734468Y-864650D02*
X3734468Y-997984D01*
X3686848Y-788460D02*
X3639229Y-931317D01*
X3639229Y-931317D02*
X3763039Y-931317D01*
X3991610Y-997984D02*
X3991610Y-797984D01*
X4077325Y-997984D02*
X4077325Y-893222D01*
X4077325Y-893222D02*
X4067801Y-874174D01*
X4067801Y-874174D02*
X4048753Y-864650D01*
X4048753Y-864650D02*
X4020182Y-864650D01*
X4020182Y-864650D02*
X4001134Y-874174D01*
X4001134Y-874174D02*
X3991610Y-883698D01*
X4201134Y-997984D02*
X4182087Y-988460D01*
X4182087Y-988460D02*
X4172563Y-978936D01*
X4172563Y-978936D02*
X4163039Y-959888D01*
X4163039Y-959888D02*
X4163039Y-902746D01*
X4163039Y-902746D02*
X4172563Y-883698D01*
X4172563Y-883698D02*
X4182087Y-874174D01*
X4182087Y-874174D02*
X4201134Y-864650D01*
X4201134Y-864650D02*
X4229706Y-864650D01*
X4229706Y-864650D02*
X4248753Y-874174D01*
X4248753Y-874174D02*
X4258277Y-883698D01*
X4258277Y-883698D02*
X4267801Y-902746D01*
X4267801Y-902746D02*
X4267801Y-959888D01*
X4267801Y-959888D02*
X4258277Y-978936D01*
X4258277Y-978936D02*
X4248753Y-988460D01*
X4248753Y-988460D02*
X4229706Y-997984D01*
X4229706Y-997984D02*
X4201134Y-997984D01*
X4382087Y-997984D02*
X4363039Y-988460D01*
X4363039Y-988460D02*
X4353515Y-969412D01*
X4353515Y-969412D02*
X4353515Y-797984D01*
X4534468Y-988460D02*
X4515420Y-997984D01*
X4515420Y-997984D02*
X4477325Y-997984D01*
X4477325Y-997984D02*
X4458277Y-988460D01*
X4458277Y-988460D02*
X4448753Y-969412D01*
X4448753Y-969412D02*
X4448753Y-893222D01*
X4448753Y-893222D02*
X4458277Y-874174D01*
X4458277Y-874174D02*
X4477325Y-864650D01*
X4477325Y-864650D02*
X4515420Y-864650D01*
X4515420Y-864650D02*
X4534468Y-874174D01*
X4534468Y-874174D02*
X4543992Y-893222D01*
X4543992Y-893222D02*
X4543992Y-912269D01*
X4543992Y-912269D02*
X4448753Y-931317D01*
X4620182Y-988460D02*
X4639230Y-997984D01*
X4639230Y-997984D02*
X4677325Y-997984D01*
X4677325Y-997984D02*
X4696373Y-988460D01*
X4696373Y-988460D02*
X4705896Y-969412D01*
X4705896Y-969412D02*
X4705896Y-959888D01*
X4705896Y-959888D02*
X4696373Y-940841D01*
X4696373Y-940841D02*
X4677325Y-931317D01*
X4677325Y-931317D02*
X4648753Y-931317D01*
X4648753Y-931317D02*
X4629706Y-921793D01*
X4629706Y-921793D02*
X4620182Y-902746D01*
X4620182Y-902746D02*
X4620182Y-893222D01*
X4620182Y-893222D02*
X4629706Y-874174D01*
X4629706Y-874174D02*
X4648753Y-864650D01*
X4648753Y-864650D02*
X4677325Y-864650D01*
X4677325Y-864650D02*
X4696373Y-874174D01*
X4772563Y-1074174D02*
X4782087Y-1064650D01*
X4782087Y-1064650D02*
X4801134Y-1036079D01*
X4801134Y-1036079D02*
X4810658Y-1017031D01*
X4810658Y-1017031D02*
X4820182Y-988460D01*
X4820182Y-988460D02*
X4829706Y-940841D01*
X4829706Y-940841D02*
X4829706Y-902746D01*
X4829706Y-902746D02*
X4820182Y-855127D01*
X4820182Y-855127D02*
X4810658Y-826555D01*
X4810658Y-826555D02*
X4801134Y-807508D01*
X4801134Y-807508D02*
X4782087Y-778936D01*
X4782087Y-778936D02*
X4772563Y-769412D01*
D13*
X-57500Y-1115500D02*
X-57500Y-1225500D01*
X-112500Y-1170500D02*
X-2500Y-1170500D01*
D11*
X363039Y-1261984D02*
X248753Y-1261984D01*
X305896Y-1261984D02*
X305896Y-1061984D01*
X305896Y-1061984D02*
X286848Y-1090555D01*
X286848Y-1090555D02*
X267801Y-1109603D01*
X267801Y-1109603D02*
X248753Y-1119127D01*
X448753Y-1242936D02*
X458277Y-1252460D01*
X458277Y-1252460D02*
X448753Y-1261984D01*
X448753Y-1261984D02*
X439229Y-1252460D01*
X439229Y-1252460D02*
X448753Y-1242936D01*
X448753Y-1242936D02*
X448753Y-1261984D01*
X648753Y-1261984D02*
X534467Y-1261984D01*
X591610Y-1261984D02*
X591610Y-1061984D01*
X591610Y-1061984D02*
X572563Y-1090555D01*
X572563Y-1090555D02*
X553515Y-1109603D01*
X553515Y-1109603D02*
X534467Y-1119127D01*
X772562Y-1061984D02*
X791610Y-1061984D01*
X791610Y-1061984D02*
X810658Y-1071508D01*
X810658Y-1071508D02*
X820182Y-1081031D01*
X820182Y-1081031D02*
X829705Y-1100079D01*
X829705Y-1100079D02*
X839229Y-1138174D01*
X839229Y-1138174D02*
X839229Y-1185793D01*
X839229Y-1185793D02*
X829705Y-1223889D01*
X829705Y-1223889D02*
X820182Y-1242936D01*
X820182Y-1242936D02*
X810658Y-1252460D01*
X810658Y-1252460D02*
X791610Y-1261984D01*
X791610Y-1261984D02*
X772562Y-1261984D01*
X772562Y-1261984D02*
X753515Y-1252460D01*
X753515Y-1252460D02*
X743991Y-1242936D01*
X743991Y-1242936D02*
X734467Y-1223889D01*
X734467Y-1223889D02*
X724943Y-1185793D01*
X724943Y-1185793D02*
X724943Y-1138174D01*
X724943Y-1138174D02*
X734467Y-1100079D01*
X734467Y-1100079D02*
X743991Y-1081031D01*
X743991Y-1081031D02*
X753515Y-1071508D01*
X753515Y-1071508D02*
X772562Y-1061984D01*
X963039Y-1061984D02*
X982086Y-1061984D01*
X982086Y-1061984D02*
X1001134Y-1071508D01*
X1001134Y-1071508D02*
X1010658Y-1081031D01*
X1010658Y-1081031D02*
X1020182Y-1100079D01*
X1020182Y-1100079D02*
X1029705Y-1138174D01*
X1029705Y-1138174D02*
X1029705Y-1185793D01*
X1029705Y-1185793D02*
X1020182Y-1223889D01*
X1020182Y-1223889D02*
X1010658Y-1242936D01*
X1010658Y-1242936D02*
X1001134Y-1252460D01*
X1001134Y-1252460D02*
X982086Y-1261984D01*
X982086Y-1261984D02*
X963039Y-1261984D01*
X963039Y-1261984D02*
X943991Y-1252460D01*
X943991Y-1252460D02*
X934467Y-1242936D01*
X934467Y-1242936D02*
X924943Y-1223889D01*
X924943Y-1223889D02*
X915420Y-1185793D01*
X915420Y-1185793D02*
X915420Y-1138174D01*
X915420Y-1138174D02*
X924943Y-1100079D01*
X924943Y-1100079D02*
X934467Y-1081031D01*
X934467Y-1081031D02*
X943991Y-1071508D01*
X943991Y-1071508D02*
X963039Y-1061984D01*
X1115420Y-1261984D02*
X1115420Y-1128650D01*
X1115420Y-1147698D02*
X1124944Y-1138174D01*
X1124944Y-1138174D02*
X1143991Y-1128650D01*
X1143991Y-1128650D02*
X1172563Y-1128650D01*
X1172563Y-1128650D02*
X1191610Y-1138174D01*
X1191610Y-1138174D02*
X1201134Y-1157222D01*
X1201134Y-1157222D02*
X1201134Y-1261984D01*
X1201134Y-1157222D02*
X1210658Y-1138174D01*
X1210658Y-1138174D02*
X1229705Y-1128650D01*
X1229705Y-1128650D02*
X1258277Y-1128650D01*
X1258277Y-1128650D02*
X1277325Y-1138174D01*
X1277325Y-1138174D02*
X1286848Y-1157222D01*
X1286848Y-1157222D02*
X1286848Y-1261984D01*
X1382086Y-1261984D02*
X1382086Y-1128650D01*
X1382086Y-1147698D02*
X1391610Y-1138174D01*
X1391610Y-1138174D02*
X1410658Y-1128650D01*
X1410658Y-1128650D02*
X1439229Y-1128650D01*
X1439229Y-1128650D02*
X1458277Y-1138174D01*
X1458277Y-1138174D02*
X1467801Y-1157222D01*
X1467801Y-1157222D02*
X1467801Y-1261984D01*
X1467801Y-1157222D02*
X1477324Y-1138174D01*
X1477324Y-1138174D02*
X1496372Y-1128650D01*
X1496372Y-1128650D02*
X1524943Y-1128650D01*
X1524943Y-1128650D02*
X1543991Y-1138174D01*
X1543991Y-1138174D02*
X1553515Y-1157222D01*
X1553515Y-1157222D02*
X1553515Y-1261984D01*
X1943991Y-1052460D02*
X1772563Y-1309603D01*
X2201134Y-1061984D02*
X2220182Y-1061984D01*
X2220182Y-1061984D02*
X2239229Y-1071508D01*
X2239229Y-1071508D02*
X2248753Y-1081031D01*
X2248753Y-1081031D02*
X2258277Y-1100079D01*
X2258277Y-1100079D02*
X2267801Y-1138174D01*
X2267801Y-1138174D02*
X2267801Y-1185793D01*
X2267801Y-1185793D02*
X2258277Y-1223889D01*
X2258277Y-1223889D02*
X2248753Y-1242936D01*
X2248753Y-1242936D02*
X2239229Y-1252460D01*
X2239229Y-1252460D02*
X2220182Y-1261984D01*
X2220182Y-1261984D02*
X2201134Y-1261984D01*
X2201134Y-1261984D02*
X2182087Y-1252460D01*
X2182087Y-1252460D02*
X2172563Y-1242936D01*
X2172563Y-1242936D02*
X2163039Y-1223889D01*
X2163039Y-1223889D02*
X2153515Y-1185793D01*
X2153515Y-1185793D02*
X2153515Y-1138174D01*
X2153515Y-1138174D02*
X2163039Y-1100079D01*
X2163039Y-1100079D02*
X2172563Y-1081031D01*
X2172563Y-1081031D02*
X2182087Y-1071508D01*
X2182087Y-1071508D02*
X2201134Y-1061984D01*
X2353515Y-1242936D02*
X2363039Y-1252460D01*
X2363039Y-1252460D02*
X2353515Y-1261984D01*
X2353515Y-1261984D02*
X2343991Y-1252460D01*
X2343991Y-1252460D02*
X2353515Y-1242936D01*
X2353515Y-1242936D02*
X2353515Y-1261984D01*
X2486848Y-1061984D02*
X2505896Y-1061984D01*
X2505896Y-1061984D02*
X2524944Y-1071508D01*
X2524944Y-1071508D02*
X2534468Y-1081031D01*
X2534468Y-1081031D02*
X2543991Y-1100079D01*
X2543991Y-1100079D02*
X2553515Y-1138174D01*
X2553515Y-1138174D02*
X2553515Y-1185793D01*
X2553515Y-1185793D02*
X2543991Y-1223889D01*
X2543991Y-1223889D02*
X2534468Y-1242936D01*
X2534468Y-1242936D02*
X2524944Y-1252460D01*
X2524944Y-1252460D02*
X2505896Y-1261984D01*
X2505896Y-1261984D02*
X2486848Y-1261984D01*
X2486848Y-1261984D02*
X2467801Y-1252460D01*
X2467801Y-1252460D02*
X2458277Y-1242936D01*
X2458277Y-1242936D02*
X2448753Y-1223889D01*
X2448753Y-1223889D02*
X2439229Y-1185793D01*
X2439229Y-1185793D02*
X2439229Y-1138174D01*
X2439229Y-1138174D02*
X2448753Y-1100079D01*
X2448753Y-1100079D02*
X2458277Y-1081031D01*
X2458277Y-1081031D02*
X2467801Y-1071508D01*
X2467801Y-1071508D02*
X2486848Y-1061984D01*
X2724944Y-1128650D02*
X2724944Y-1261984D01*
X2677325Y-1052460D02*
X2629706Y-1195317D01*
X2629706Y-1195317D02*
X2753515Y-1195317D01*
X2810658Y-1061984D02*
X2934467Y-1061984D01*
X2934467Y-1061984D02*
X2867801Y-1138174D01*
X2867801Y-1138174D02*
X2896372Y-1138174D01*
X2896372Y-1138174D02*
X2915420Y-1147698D01*
X2915420Y-1147698D02*
X2924944Y-1157222D01*
X2924944Y-1157222D02*
X2934467Y-1176270D01*
X2934467Y-1176270D02*
X2934467Y-1223889D01*
X2934467Y-1223889D02*
X2924944Y-1242936D01*
X2924944Y-1242936D02*
X2915420Y-1252460D01*
X2915420Y-1252460D02*
X2896372Y-1261984D01*
X2896372Y-1261984D02*
X2839229Y-1261984D01*
X2839229Y-1261984D02*
X2820182Y-1252460D01*
X2820182Y-1252460D02*
X2810658Y-1242936D01*
X3001134Y-1061984D02*
X3124944Y-1061984D01*
X3124944Y-1061984D02*
X3058277Y-1138174D01*
X3058277Y-1138174D02*
X3086848Y-1138174D01*
X3086848Y-1138174D02*
X3105896Y-1147698D01*
X3105896Y-1147698D02*
X3115420Y-1157222D01*
X3115420Y-1157222D02*
X3124944Y-1176270D01*
X3124944Y-1176270D02*
X3124944Y-1223889D01*
X3124944Y-1223889D02*
X3115420Y-1242936D01*
X3115420Y-1242936D02*
X3105896Y-1252460D01*
X3105896Y-1252460D02*
X3086848Y-1261984D01*
X3086848Y-1261984D02*
X3029706Y-1261984D01*
X3029706Y-1261984D02*
X3010658Y-1252460D01*
X3010658Y-1252460D02*
X3001134Y-1242936D01*
X3201134Y-1061984D02*
X3201134Y-1100079D01*
X3277325Y-1061984D02*
X3277325Y-1100079D01*
X3572563Y-1338174D02*
X3563039Y-1328650D01*
X3563039Y-1328650D02*
X3543991Y-1300079D01*
X3543991Y-1300079D02*
X3534468Y-1281031D01*
X3534468Y-1281031D02*
X3524944Y-1252460D01*
X3524944Y-1252460D02*
X3515420Y-1204841D01*
X3515420Y-1204841D02*
X3515420Y-1166746D01*
X3515420Y-1166746D02*
X3524944Y-1119127D01*
X3524944Y-1119127D02*
X3534468Y-1090555D01*
X3534468Y-1090555D02*
X3543991Y-1071508D01*
X3543991Y-1071508D02*
X3563039Y-1042936D01*
X3563039Y-1042936D02*
X3572563Y-1033412D01*
X3639229Y-1081031D02*
X3648753Y-1071508D01*
X3648753Y-1071508D02*
X3667801Y-1061984D01*
X3667801Y-1061984D02*
X3715420Y-1061984D01*
X3715420Y-1061984D02*
X3734468Y-1071508D01*
X3734468Y-1071508D02*
X3743991Y-1081031D01*
X3743991Y-1081031D02*
X3753515Y-1100079D01*
X3753515Y-1100079D02*
X3753515Y-1119127D01*
X3753515Y-1119127D02*
X3743991Y-1147698D01*
X3743991Y-1147698D02*
X3629706Y-1261984D01*
X3629706Y-1261984D02*
X3753515Y-1261984D01*
X3829706Y-1081031D02*
X3839229Y-1071508D01*
X3839229Y-1071508D02*
X3858277Y-1061984D01*
X3858277Y-1061984D02*
X3905896Y-1061984D01*
X3905896Y-1061984D02*
X3924944Y-1071508D01*
X3924944Y-1071508D02*
X3934468Y-1081031D01*
X3934468Y-1081031D02*
X3943991Y-1100079D01*
X3943991Y-1100079D02*
X3943991Y-1119127D01*
X3943991Y-1119127D02*
X3934468Y-1147698D01*
X3934468Y-1147698D02*
X3820182Y-1261984D01*
X3820182Y-1261984D02*
X3943991Y-1261984D01*
X4182087Y-1261984D02*
X4182087Y-1061984D01*
X4267801Y-1261984D02*
X4267801Y-1157222D01*
X4267801Y-1157222D02*
X4258277Y-1138174D01*
X4258277Y-1138174D02*
X4239230Y-1128650D01*
X4239230Y-1128650D02*
X4210658Y-1128650D01*
X4210658Y-1128650D02*
X4191610Y-1138174D01*
X4191610Y-1138174D02*
X4182087Y-1147698D01*
X4391611Y-1261984D02*
X4372563Y-1252460D01*
X4372563Y-1252460D02*
X4363039Y-1242936D01*
X4363039Y-1242936D02*
X4353515Y-1223889D01*
X4353515Y-1223889D02*
X4353515Y-1166746D01*
X4353515Y-1166746D02*
X4363039Y-1147698D01*
X4363039Y-1147698D02*
X4372563Y-1138174D01*
X4372563Y-1138174D02*
X4391611Y-1128650D01*
X4391611Y-1128650D02*
X4420182Y-1128650D01*
X4420182Y-1128650D02*
X4439230Y-1138174D01*
X4439230Y-1138174D02*
X4448753Y-1147698D01*
X4448753Y-1147698D02*
X4458277Y-1166746D01*
X4458277Y-1166746D02*
X4458277Y-1223889D01*
X4458277Y-1223889D02*
X4448753Y-1242936D01*
X4448753Y-1242936D02*
X4439230Y-1252460D01*
X4439230Y-1252460D02*
X4420182Y-1261984D01*
X4420182Y-1261984D02*
X4391611Y-1261984D01*
X4572563Y-1261984D02*
X4553515Y-1252460D01*
X4553515Y-1252460D02*
X4543992Y-1233412D01*
X4543992Y-1233412D02*
X4543992Y-1061984D01*
X4724944Y-1252460D02*
X4705896Y-1261984D01*
X4705896Y-1261984D02*
X4667801Y-1261984D01*
X4667801Y-1261984D02*
X4648753Y-1252460D01*
X4648753Y-1252460D02*
X4639230Y-1233412D01*
X4639230Y-1233412D02*
X4639230Y-1157222D01*
X4639230Y-1157222D02*
X4648753Y-1138174D01*
X4648753Y-1138174D02*
X4667801Y-1128650D01*
X4667801Y-1128650D02*
X4705896Y-1128650D01*
X4705896Y-1128650D02*
X4724944Y-1138174D01*
X4724944Y-1138174D02*
X4734468Y-1157222D01*
X4734468Y-1157222D02*
X4734468Y-1176270D01*
X4734468Y-1176270D02*
X4639230Y-1195317D01*
X4810658Y-1252460D02*
X4829706Y-1261984D01*
X4829706Y-1261984D02*
X4867801Y-1261984D01*
X4867801Y-1261984D02*
X4886849Y-1252460D01*
X4886849Y-1252460D02*
X4896373Y-1233412D01*
X4896373Y-1233412D02*
X4896373Y-1223889D01*
X4896373Y-1223889D02*
X4886849Y-1204841D01*
X4886849Y-1204841D02*
X4867801Y-1195317D01*
X4867801Y-1195317D02*
X4839230Y-1195317D01*
X4839230Y-1195317D02*
X4820182Y-1185793D01*
X4820182Y-1185793D02*
X4810658Y-1166746D01*
X4810658Y-1166746D02*
X4810658Y-1157222D01*
X4810658Y-1157222D02*
X4820182Y-1138174D01*
X4820182Y-1138174D02*
X4839230Y-1128650D01*
X4839230Y-1128650D02*
X4867801Y-1128650D01*
X4867801Y-1128650D02*
X4886849Y-1138174D01*
X4963039Y-1338174D02*
X4972563Y-1328650D01*
X4972563Y-1328650D02*
X4991611Y-1300079D01*
X4991611Y-1300079D02*
X5001134Y-1281031D01*
X5001134Y-1281031D02*
X5010658Y-1252460D01*
X5010658Y-1252460D02*
X5020182Y-1204841D01*
X5020182Y-1204841D02*
X5020182Y-1166746D01*
X5020182Y-1166746D02*
X5010658Y-1119127D01*
X5010658Y-1119127D02*
X5001134Y-1090555D01*
X5001134Y-1090555D02*
X4991611Y-1071508D01*
X4991611Y-1071508D02*
X4972563Y-1042936D01*
X4972563Y-1042936D02*
X4963039Y-1033412D01*
D14*
X-19341Y-1475159D02*
X-19341Y-1393841D01*
X-100659Y-1393841D01*
X-100659Y-1475159D01*
X-19341Y-1475159D01*
D11*
X363039Y-1525984D02*
X248753Y-1525984D01*
X305896Y-1525984D02*
X305896Y-1325984D01*
X305896Y-1325984D02*
X286848Y-1354555D01*
X286848Y-1354555D02*
X267801Y-1373603D01*
X267801Y-1373603D02*
X248753Y-1383127D01*
X448753Y-1506936D02*
X458277Y-1516460D01*
X458277Y-1516460D02*
X448753Y-1525984D01*
X448753Y-1525984D02*
X439229Y-1516460D01*
X439229Y-1516460D02*
X448753Y-1506936D01*
X448753Y-1506936D02*
X448753Y-1525984D01*
X648753Y-1525984D02*
X534467Y-1525984D01*
X591610Y-1525984D02*
X591610Y-1325984D01*
X591610Y-1325984D02*
X572563Y-1354555D01*
X572563Y-1354555D02*
X553515Y-1373603D01*
X553515Y-1373603D02*
X534467Y-1383127D01*
X829705Y-1325984D02*
X734467Y-1325984D01*
X734467Y-1325984D02*
X724943Y-1421222D01*
X724943Y-1421222D02*
X734467Y-1411698D01*
X734467Y-1411698D02*
X753515Y-1402174D01*
X753515Y-1402174D02*
X801134Y-1402174D01*
X801134Y-1402174D02*
X820182Y-1411698D01*
X820182Y-1411698D02*
X829705Y-1421222D01*
X829705Y-1421222D02*
X839229Y-1440269D01*
X839229Y-1440269D02*
X839229Y-1487888D01*
X839229Y-1487888D02*
X829705Y-1506936D01*
X829705Y-1506936D02*
X820182Y-1516460D01*
X820182Y-1516460D02*
X801134Y-1525984D01*
X801134Y-1525984D02*
X753515Y-1525984D01*
X753515Y-1525984D02*
X734467Y-1516460D01*
X734467Y-1516460D02*
X724943Y-1506936D01*
X963039Y-1325984D02*
X982086Y-1325984D01*
X982086Y-1325984D02*
X1001134Y-1335508D01*
X1001134Y-1335508D02*
X1010658Y-1345031D01*
X1010658Y-1345031D02*
X1020182Y-1364079D01*
X1020182Y-1364079D02*
X1029705Y-1402174D01*
X1029705Y-1402174D02*
X1029705Y-1449793D01*
X1029705Y-1449793D02*
X1020182Y-1487888D01*
X1020182Y-1487888D02*
X1010658Y-1506936D01*
X1010658Y-1506936D02*
X1001134Y-1516460D01*
X1001134Y-1516460D02*
X982086Y-1525984D01*
X982086Y-1525984D02*
X963039Y-1525984D01*
X963039Y-1525984D02*
X943991Y-1516460D01*
X943991Y-1516460D02*
X934467Y-1506936D01*
X934467Y-1506936D02*
X924943Y-1487888D01*
X924943Y-1487888D02*
X915420Y-1449793D01*
X915420Y-1449793D02*
X915420Y-1402174D01*
X915420Y-1402174D02*
X924943Y-1364079D01*
X924943Y-1364079D02*
X934467Y-1345031D01*
X934467Y-1345031D02*
X943991Y-1335508D01*
X943991Y-1335508D02*
X963039Y-1325984D01*
X1115420Y-1525984D02*
X1115420Y-1392650D01*
X1115420Y-1411698D02*
X1124944Y-1402174D01*
X1124944Y-1402174D02*
X1143991Y-1392650D01*
X1143991Y-1392650D02*
X1172563Y-1392650D01*
X1172563Y-1392650D02*
X1191610Y-1402174D01*
X1191610Y-1402174D02*
X1201134Y-1421222D01*
X1201134Y-1421222D02*
X1201134Y-1525984D01*
X1201134Y-1421222D02*
X1210658Y-1402174D01*
X1210658Y-1402174D02*
X1229705Y-1392650D01*
X1229705Y-1392650D02*
X1258277Y-1392650D01*
X1258277Y-1392650D02*
X1277325Y-1402174D01*
X1277325Y-1402174D02*
X1286848Y-1421222D01*
X1286848Y-1421222D02*
X1286848Y-1525984D01*
X1382086Y-1525984D02*
X1382086Y-1392650D01*
X1382086Y-1411698D02*
X1391610Y-1402174D01*
X1391610Y-1402174D02*
X1410658Y-1392650D01*
X1410658Y-1392650D02*
X1439229Y-1392650D01*
X1439229Y-1392650D02*
X1458277Y-1402174D01*
X1458277Y-1402174D02*
X1467801Y-1421222D01*
X1467801Y-1421222D02*
X1467801Y-1525984D01*
X1467801Y-1421222D02*
X1477324Y-1402174D01*
X1477324Y-1402174D02*
X1496372Y-1392650D01*
X1496372Y-1392650D02*
X1524943Y-1392650D01*
X1524943Y-1392650D02*
X1543991Y-1402174D01*
X1543991Y-1402174D02*
X1553515Y-1421222D01*
X1553515Y-1421222D02*
X1553515Y-1525984D01*
X1943991Y-1316460D02*
X1772563Y-1573603D01*
X2201134Y-1325984D02*
X2220182Y-1325984D01*
X2220182Y-1325984D02*
X2239229Y-1335508D01*
X2239229Y-1335508D02*
X2248753Y-1345031D01*
X2248753Y-1345031D02*
X2258277Y-1364079D01*
X2258277Y-1364079D02*
X2267801Y-1402174D01*
X2267801Y-1402174D02*
X2267801Y-1449793D01*
X2267801Y-1449793D02*
X2258277Y-1487888D01*
X2258277Y-1487888D02*
X2248753Y-1506936D01*
X2248753Y-1506936D02*
X2239229Y-1516460D01*
X2239229Y-1516460D02*
X2220182Y-1525984D01*
X2220182Y-1525984D02*
X2201134Y-1525984D01*
X2201134Y-1525984D02*
X2182087Y-1516460D01*
X2182087Y-1516460D02*
X2172563Y-1506936D01*
X2172563Y-1506936D02*
X2163039Y-1487888D01*
X2163039Y-1487888D02*
X2153515Y-1449793D01*
X2153515Y-1449793D02*
X2153515Y-1402174D01*
X2153515Y-1402174D02*
X2163039Y-1364079D01*
X2163039Y-1364079D02*
X2172563Y-1345031D01*
X2172563Y-1345031D02*
X2182087Y-1335508D01*
X2182087Y-1335508D02*
X2201134Y-1325984D01*
X2353515Y-1506936D02*
X2363039Y-1516460D01*
X2363039Y-1516460D02*
X2353515Y-1525984D01*
X2353515Y-1525984D02*
X2343991Y-1516460D01*
X2343991Y-1516460D02*
X2353515Y-1506936D01*
X2353515Y-1506936D02*
X2353515Y-1525984D01*
X2486848Y-1325984D02*
X2505896Y-1325984D01*
X2505896Y-1325984D02*
X2524944Y-1335508D01*
X2524944Y-1335508D02*
X2534468Y-1345031D01*
X2534468Y-1345031D02*
X2543991Y-1364079D01*
X2543991Y-1364079D02*
X2553515Y-1402174D01*
X2553515Y-1402174D02*
X2553515Y-1449793D01*
X2553515Y-1449793D02*
X2543991Y-1487888D01*
X2543991Y-1487888D02*
X2534468Y-1506936D01*
X2534468Y-1506936D02*
X2524944Y-1516460D01*
X2524944Y-1516460D02*
X2505896Y-1525984D01*
X2505896Y-1525984D02*
X2486848Y-1525984D01*
X2486848Y-1525984D02*
X2467801Y-1516460D01*
X2467801Y-1516460D02*
X2458277Y-1506936D01*
X2458277Y-1506936D02*
X2448753Y-1487888D01*
X2448753Y-1487888D02*
X2439229Y-1449793D01*
X2439229Y-1449793D02*
X2439229Y-1402174D01*
X2439229Y-1402174D02*
X2448753Y-1364079D01*
X2448753Y-1364079D02*
X2458277Y-1345031D01*
X2458277Y-1345031D02*
X2467801Y-1335508D01*
X2467801Y-1335508D02*
X2486848Y-1325984D01*
X2724944Y-1392650D02*
X2724944Y-1525984D01*
X2677325Y-1316460D02*
X2629706Y-1459317D01*
X2629706Y-1459317D02*
X2753515Y-1459317D01*
X2924944Y-1325984D02*
X2829706Y-1325984D01*
X2829706Y-1325984D02*
X2820182Y-1421222D01*
X2820182Y-1421222D02*
X2829706Y-1411698D01*
X2829706Y-1411698D02*
X2848753Y-1402174D01*
X2848753Y-1402174D02*
X2896372Y-1402174D01*
X2896372Y-1402174D02*
X2915420Y-1411698D01*
X2915420Y-1411698D02*
X2924944Y-1421222D01*
X2924944Y-1421222D02*
X2934467Y-1440269D01*
X2934467Y-1440269D02*
X2934467Y-1487888D01*
X2934467Y-1487888D02*
X2924944Y-1506936D01*
X2924944Y-1506936D02*
X2915420Y-1516460D01*
X2915420Y-1516460D02*
X2896372Y-1525984D01*
X2896372Y-1525984D02*
X2848753Y-1525984D01*
X2848753Y-1525984D02*
X2829706Y-1516460D01*
X2829706Y-1516460D02*
X2820182Y-1506936D01*
X3001134Y-1325984D02*
X3124944Y-1325984D01*
X3124944Y-1325984D02*
X3058277Y-1402174D01*
X3058277Y-1402174D02*
X3086848Y-1402174D01*
X3086848Y-1402174D02*
X3105896Y-1411698D01*
X3105896Y-1411698D02*
X3115420Y-1421222D01*
X3115420Y-1421222D02*
X3124944Y-1440269D01*
X3124944Y-1440269D02*
X3124944Y-1487888D01*
X3124944Y-1487888D02*
X3115420Y-1506936D01*
X3115420Y-1506936D02*
X3105896Y-1516460D01*
X3105896Y-1516460D02*
X3086848Y-1525984D01*
X3086848Y-1525984D02*
X3029706Y-1525984D01*
X3029706Y-1525984D02*
X3010658Y-1516460D01*
X3010658Y-1516460D02*
X3001134Y-1506936D01*
X3201134Y-1325984D02*
X3201134Y-1364079D01*
X3277325Y-1325984D02*
X3277325Y-1364079D01*
X3572563Y-1602174D02*
X3563039Y-1592650D01*
X3563039Y-1592650D02*
X3543991Y-1564079D01*
X3543991Y-1564079D02*
X3534468Y-1545031D01*
X3534468Y-1545031D02*
X3524944Y-1516460D01*
X3524944Y-1516460D02*
X3515420Y-1468841D01*
X3515420Y-1468841D02*
X3515420Y-1430746D01*
X3515420Y-1430746D02*
X3524944Y-1383127D01*
X3524944Y-1383127D02*
X3534468Y-1354555D01*
X3534468Y-1354555D02*
X3543991Y-1335508D01*
X3543991Y-1335508D02*
X3563039Y-1306936D01*
X3563039Y-1306936D02*
X3572563Y-1297412D01*
X3734468Y-1392650D02*
X3734468Y-1525984D01*
X3686848Y-1316460D02*
X3639229Y-1459317D01*
X3639229Y-1459317D02*
X3763039Y-1459317D01*
X3991610Y-1525984D02*
X3991610Y-1325984D01*
X4077325Y-1525984D02*
X4077325Y-1421222D01*
X4077325Y-1421222D02*
X4067801Y-1402174D01*
X4067801Y-1402174D02*
X4048753Y-1392650D01*
X4048753Y-1392650D02*
X4020182Y-1392650D01*
X4020182Y-1392650D02*
X4001134Y-1402174D01*
X4001134Y-1402174D02*
X3991610Y-1411698D01*
X4201134Y-1525984D02*
X4182087Y-1516460D01*
X4182087Y-1516460D02*
X4172563Y-1506936D01*
X4172563Y-1506936D02*
X4163039Y-1487888D01*
X4163039Y-1487888D02*
X4163039Y-1430746D01*
X4163039Y-1430746D02*
X4172563Y-1411698D01*
X4172563Y-1411698D02*
X4182087Y-1402174D01*
X4182087Y-1402174D02*
X4201134Y-1392650D01*
X4201134Y-1392650D02*
X4229706Y-1392650D01*
X4229706Y-1392650D02*
X4248753Y-1402174D01*
X4248753Y-1402174D02*
X4258277Y-1411698D01*
X4258277Y-1411698D02*
X4267801Y-1430746D01*
X4267801Y-1430746D02*
X4267801Y-1487888D01*
X4267801Y-1487888D02*
X4258277Y-1506936D01*
X4258277Y-1506936D02*
X4248753Y-1516460D01*
X4248753Y-1516460D02*
X4229706Y-1525984D01*
X4229706Y-1525984D02*
X4201134Y-1525984D01*
X4382087Y-1525984D02*
X4363039Y-1516460D01*
X4363039Y-1516460D02*
X4353515Y-1497412D01*
X4353515Y-1497412D02*
X4353515Y-1325984D01*
X4534468Y-1516460D02*
X4515420Y-1525984D01*
X4515420Y-1525984D02*
X4477325Y-1525984D01*
X4477325Y-1525984D02*
X4458277Y-1516460D01*
X4458277Y-1516460D02*
X4448753Y-1497412D01*
X4448753Y-1497412D02*
X4448753Y-1421222D01*
X4448753Y-1421222D02*
X4458277Y-1402174D01*
X4458277Y-1402174D02*
X4477325Y-1392650D01*
X4477325Y-1392650D02*
X4515420Y-1392650D01*
X4515420Y-1392650D02*
X4534468Y-1402174D01*
X4534468Y-1402174D02*
X4543992Y-1421222D01*
X4543992Y-1421222D02*
X4543992Y-1440269D01*
X4543992Y-1440269D02*
X4448753Y-1459317D01*
X4620182Y-1516460D02*
X4639230Y-1525984D01*
X4639230Y-1525984D02*
X4677325Y-1525984D01*
X4677325Y-1525984D02*
X4696373Y-1516460D01*
X4696373Y-1516460D02*
X4705896Y-1497412D01*
X4705896Y-1497412D02*
X4705896Y-1487888D01*
X4705896Y-1487888D02*
X4696373Y-1468841D01*
X4696373Y-1468841D02*
X4677325Y-1459317D01*
X4677325Y-1459317D02*
X4648753Y-1459317D01*
X4648753Y-1459317D02*
X4629706Y-1449793D01*
X4629706Y-1449793D02*
X4620182Y-1430746D01*
X4620182Y-1430746D02*
X4620182Y-1421222D01*
X4620182Y-1421222D02*
X4629706Y-1402174D01*
X4629706Y-1402174D02*
X4648753Y-1392650D01*
X4648753Y-1392650D02*
X4677325Y-1392650D01*
X4677325Y-1392650D02*
X4696373Y-1402174D01*
X4772563Y-1602174D02*
X4782087Y-1592650D01*
X4782087Y-1592650D02*
X4801134Y-1564079D01*
X4801134Y-1564079D02*
X4810658Y-1545031D01*
X4810658Y-1545031D02*
X4820182Y-1516460D01*
X4820182Y-1516460D02*
X4829706Y-1468841D01*
X4829706Y-1468841D02*
X4829706Y-1430746D01*
X4829706Y-1430746D02*
X4820182Y-1383127D01*
X4820182Y-1383127D02*
X4810658Y-1354555D01*
X4810658Y-1354555D02*
X4801134Y-1335508D01*
X4801134Y-1335508D02*
X4782087Y-1306936D01*
X4782087Y-1306936D02*
X4772563Y-1297412D01*
D15*
X-73500Y-1769500D02*
X-2500Y-1698500D01*
X-73500Y-1627500D01*
X-144500Y-1698500D01*
X-73500Y-1769500D01*
D11*
X363039Y-1789984D02*
X248753Y-1789984D01*
X305896Y-1789984D02*
X305896Y-1589984D01*
X305896Y-1589984D02*
X286848Y-1618555D01*
X286848Y-1618555D02*
X267801Y-1637603D01*
X267801Y-1637603D02*
X248753Y-1647127D01*
X448753Y-1770936D02*
X458277Y-1780460D01*
X458277Y-1780460D02*
X448753Y-1789984D01*
X448753Y-1789984D02*
X439229Y-1780460D01*
X439229Y-1780460D02*
X448753Y-1770936D01*
X448753Y-1770936D02*
X448753Y-1789984D01*
X629705Y-1656650D02*
X629705Y-1789984D01*
X582086Y-1580460D02*
X534467Y-1723317D01*
X534467Y-1723317D02*
X658277Y-1723317D01*
X724943Y-1609031D02*
X734467Y-1599508D01*
X734467Y-1599508D02*
X753515Y-1589984D01*
X753515Y-1589984D02*
X801134Y-1589984D01*
X801134Y-1589984D02*
X820182Y-1599508D01*
X820182Y-1599508D02*
X829705Y-1609031D01*
X829705Y-1609031D02*
X839229Y-1628079D01*
X839229Y-1628079D02*
X839229Y-1647127D01*
X839229Y-1647127D02*
X829705Y-1675698D01*
X829705Y-1675698D02*
X715420Y-1789984D01*
X715420Y-1789984D02*
X839229Y-1789984D01*
X963039Y-1589984D02*
X982086Y-1589984D01*
X982086Y-1589984D02*
X1001134Y-1599508D01*
X1001134Y-1599508D02*
X1010658Y-1609031D01*
X1010658Y-1609031D02*
X1020182Y-1628079D01*
X1020182Y-1628079D02*
X1029705Y-1666174D01*
X1029705Y-1666174D02*
X1029705Y-1713793D01*
X1029705Y-1713793D02*
X1020182Y-1751888D01*
X1020182Y-1751888D02*
X1010658Y-1770936D01*
X1010658Y-1770936D02*
X1001134Y-1780460D01*
X1001134Y-1780460D02*
X982086Y-1789984D01*
X982086Y-1789984D02*
X963039Y-1789984D01*
X963039Y-1789984D02*
X943991Y-1780460D01*
X943991Y-1780460D02*
X934467Y-1770936D01*
X934467Y-1770936D02*
X924943Y-1751888D01*
X924943Y-1751888D02*
X915420Y-1713793D01*
X915420Y-1713793D02*
X915420Y-1666174D01*
X915420Y-1666174D02*
X924943Y-1628079D01*
X924943Y-1628079D02*
X934467Y-1609031D01*
X934467Y-1609031D02*
X943991Y-1599508D01*
X943991Y-1599508D02*
X963039Y-1589984D01*
X1115420Y-1789984D02*
X1115420Y-1656650D01*
X1115420Y-1675698D02*
X1124944Y-1666174D01*
X1124944Y-1666174D02*
X1143991Y-1656650D01*
X1143991Y-1656650D02*
X1172563Y-1656650D01*
X1172563Y-1656650D02*
X1191610Y-1666174D01*
X1191610Y-1666174D02*
X1201134Y-1685222D01*
X1201134Y-1685222D02*
X1201134Y-1789984D01*
X1201134Y-1685222D02*
X1210658Y-1666174D01*
X1210658Y-1666174D02*
X1229705Y-1656650D01*
X1229705Y-1656650D02*
X1258277Y-1656650D01*
X1258277Y-1656650D02*
X1277325Y-1666174D01*
X1277325Y-1666174D02*
X1286848Y-1685222D01*
X1286848Y-1685222D02*
X1286848Y-1789984D01*
X1382086Y-1789984D02*
X1382086Y-1656650D01*
X1382086Y-1675698D02*
X1391610Y-1666174D01*
X1391610Y-1666174D02*
X1410658Y-1656650D01*
X1410658Y-1656650D02*
X1439229Y-1656650D01*
X1439229Y-1656650D02*
X1458277Y-1666174D01*
X1458277Y-1666174D02*
X1467801Y-1685222D01*
X1467801Y-1685222D02*
X1467801Y-1789984D01*
X1467801Y-1685222D02*
X1477324Y-1666174D01*
X1477324Y-1666174D02*
X1496372Y-1656650D01*
X1496372Y-1656650D02*
X1524943Y-1656650D01*
X1524943Y-1656650D02*
X1543991Y-1666174D01*
X1543991Y-1666174D02*
X1553515Y-1685222D01*
X1553515Y-1685222D02*
X1553515Y-1789984D01*
X1943991Y-1580460D02*
X1772563Y-1837603D01*
X2201134Y-1589984D02*
X2220182Y-1589984D01*
X2220182Y-1589984D02*
X2239229Y-1599508D01*
X2239229Y-1599508D02*
X2248753Y-1609031D01*
X2248753Y-1609031D02*
X2258277Y-1628079D01*
X2258277Y-1628079D02*
X2267801Y-1666174D01*
X2267801Y-1666174D02*
X2267801Y-1713793D01*
X2267801Y-1713793D02*
X2258277Y-1751888D01*
X2258277Y-1751888D02*
X2248753Y-1770936D01*
X2248753Y-1770936D02*
X2239229Y-1780460D01*
X2239229Y-1780460D02*
X2220182Y-1789984D01*
X2220182Y-1789984D02*
X2201134Y-1789984D01*
X2201134Y-1789984D02*
X2182087Y-1780460D01*
X2182087Y-1780460D02*
X2172563Y-1770936D01*
X2172563Y-1770936D02*
X2163039Y-1751888D01*
X2163039Y-1751888D02*
X2153515Y-1713793D01*
X2153515Y-1713793D02*
X2153515Y-1666174D01*
X2153515Y-1666174D02*
X2163039Y-1628079D01*
X2163039Y-1628079D02*
X2172563Y-1609031D01*
X2172563Y-1609031D02*
X2182087Y-1599508D01*
X2182087Y-1599508D02*
X2201134Y-1589984D01*
X2353515Y-1770936D02*
X2363039Y-1780460D01*
X2363039Y-1780460D02*
X2353515Y-1789984D01*
X2353515Y-1789984D02*
X2343991Y-1780460D01*
X2343991Y-1780460D02*
X2353515Y-1770936D01*
X2353515Y-1770936D02*
X2353515Y-1789984D01*
X2486848Y-1589984D02*
X2505896Y-1589984D01*
X2505896Y-1589984D02*
X2524944Y-1599508D01*
X2524944Y-1599508D02*
X2534468Y-1609031D01*
X2534468Y-1609031D02*
X2543991Y-1628079D01*
X2543991Y-1628079D02*
X2553515Y-1666174D01*
X2553515Y-1666174D02*
X2553515Y-1713793D01*
X2553515Y-1713793D02*
X2543991Y-1751888D01*
X2543991Y-1751888D02*
X2534468Y-1770936D01*
X2534468Y-1770936D02*
X2524944Y-1780460D01*
X2524944Y-1780460D02*
X2505896Y-1789984D01*
X2505896Y-1789984D02*
X2486848Y-1789984D01*
X2486848Y-1789984D02*
X2467801Y-1780460D01*
X2467801Y-1780460D02*
X2458277Y-1770936D01*
X2458277Y-1770936D02*
X2448753Y-1751888D01*
X2448753Y-1751888D02*
X2439229Y-1713793D01*
X2439229Y-1713793D02*
X2439229Y-1666174D01*
X2439229Y-1666174D02*
X2448753Y-1628079D01*
X2448753Y-1628079D02*
X2458277Y-1609031D01*
X2458277Y-1609031D02*
X2467801Y-1599508D01*
X2467801Y-1599508D02*
X2486848Y-1589984D01*
X2734468Y-1589984D02*
X2639229Y-1589984D01*
X2639229Y-1589984D02*
X2629706Y-1685222D01*
X2629706Y-1685222D02*
X2639229Y-1675698D01*
X2639229Y-1675698D02*
X2658277Y-1666174D01*
X2658277Y-1666174D02*
X2705896Y-1666174D01*
X2705896Y-1666174D02*
X2724944Y-1675698D01*
X2724944Y-1675698D02*
X2734468Y-1685222D01*
X2734468Y-1685222D02*
X2743991Y-1704269D01*
X2743991Y-1704269D02*
X2743991Y-1751888D01*
X2743991Y-1751888D02*
X2734468Y-1770936D01*
X2734468Y-1770936D02*
X2724944Y-1780460D01*
X2724944Y-1780460D02*
X2705896Y-1789984D01*
X2705896Y-1789984D02*
X2658277Y-1789984D01*
X2658277Y-1789984D02*
X2639229Y-1780460D01*
X2639229Y-1780460D02*
X2629706Y-1770936D01*
X2924944Y-1589984D02*
X2829706Y-1589984D01*
X2829706Y-1589984D02*
X2820182Y-1685222D01*
X2820182Y-1685222D02*
X2829706Y-1675698D01*
X2829706Y-1675698D02*
X2848753Y-1666174D01*
X2848753Y-1666174D02*
X2896372Y-1666174D01*
X2896372Y-1666174D02*
X2915420Y-1675698D01*
X2915420Y-1675698D02*
X2924944Y-1685222D01*
X2924944Y-1685222D02*
X2934467Y-1704269D01*
X2934467Y-1704269D02*
X2934467Y-1751888D01*
X2934467Y-1751888D02*
X2924944Y-1770936D01*
X2924944Y-1770936D02*
X2915420Y-1780460D01*
X2915420Y-1780460D02*
X2896372Y-1789984D01*
X2896372Y-1789984D02*
X2848753Y-1789984D01*
X2848753Y-1789984D02*
X2829706Y-1780460D01*
X2829706Y-1780460D02*
X2820182Y-1770936D01*
X3029706Y-1789984D02*
X3067801Y-1789984D01*
X3067801Y-1789984D02*
X3086848Y-1780460D01*
X3086848Y-1780460D02*
X3096372Y-1770936D01*
X3096372Y-1770936D02*
X3115420Y-1742365D01*
X3115420Y-1742365D02*
X3124944Y-1704269D01*
X3124944Y-1704269D02*
X3124944Y-1628079D01*
X3124944Y-1628079D02*
X3115420Y-1609031D01*
X3115420Y-1609031D02*
X3105896Y-1599508D01*
X3105896Y-1599508D02*
X3086848Y-1589984D01*
X3086848Y-1589984D02*
X3048753Y-1589984D01*
X3048753Y-1589984D02*
X3029706Y-1599508D01*
X3029706Y-1599508D02*
X3020182Y-1609031D01*
X3020182Y-1609031D02*
X3010658Y-1628079D01*
X3010658Y-1628079D02*
X3010658Y-1675698D01*
X3010658Y-1675698D02*
X3020182Y-1694746D01*
X3020182Y-1694746D02*
X3029706Y-1704269D01*
X3029706Y-1704269D02*
X3048753Y-1713793D01*
X3048753Y-1713793D02*
X3086848Y-1713793D01*
X3086848Y-1713793D02*
X3105896Y-1704269D01*
X3105896Y-1704269D02*
X3115420Y-1694746D01*
X3115420Y-1694746D02*
X3124944Y-1675698D01*
X3201134Y-1589984D02*
X3201134Y-1628079D01*
X3277325Y-1589984D02*
X3277325Y-1628079D01*
X3572563Y-1866174D02*
X3563039Y-1856650D01*
X3563039Y-1856650D02*
X3543991Y-1828079D01*
X3543991Y-1828079D02*
X3534468Y-1809031D01*
X3534468Y-1809031D02*
X3524944Y-1780460D01*
X3524944Y-1780460D02*
X3515420Y-1732841D01*
X3515420Y-1732841D02*
X3515420Y-1694746D01*
X3515420Y-1694746D02*
X3524944Y-1647127D01*
X3524944Y-1647127D02*
X3534468Y-1618555D01*
X3534468Y-1618555D02*
X3543991Y-1599508D01*
X3543991Y-1599508D02*
X3563039Y-1570936D01*
X3563039Y-1570936D02*
X3572563Y-1561412D01*
X3639229Y-1609031D02*
X3648753Y-1599508D01*
X3648753Y-1599508D02*
X3667801Y-1589984D01*
X3667801Y-1589984D02*
X3715420Y-1589984D01*
X3715420Y-1589984D02*
X3734468Y-1599508D01*
X3734468Y-1599508D02*
X3743991Y-1609031D01*
X3743991Y-1609031D02*
X3753515Y-1628079D01*
X3753515Y-1628079D02*
X3753515Y-1647127D01*
X3753515Y-1647127D02*
X3743991Y-1675698D01*
X3743991Y-1675698D02*
X3629706Y-1789984D01*
X3629706Y-1789984D02*
X3753515Y-1789984D01*
X3924944Y-1656650D02*
X3924944Y-1789984D01*
X3877325Y-1580460D02*
X3829706Y-1723317D01*
X3829706Y-1723317D02*
X3953515Y-1723317D01*
X4182087Y-1789984D02*
X4182087Y-1589984D01*
X4267801Y-1789984D02*
X4267801Y-1685222D01*
X4267801Y-1685222D02*
X4258277Y-1666174D01*
X4258277Y-1666174D02*
X4239230Y-1656650D01*
X4239230Y-1656650D02*
X4210658Y-1656650D01*
X4210658Y-1656650D02*
X4191610Y-1666174D01*
X4191610Y-1666174D02*
X4182087Y-1675698D01*
X4391611Y-1789984D02*
X4372563Y-1780460D01*
X4372563Y-1780460D02*
X4363039Y-1770936D01*
X4363039Y-1770936D02*
X4353515Y-1751888D01*
X4353515Y-1751888D02*
X4353515Y-1694746D01*
X4353515Y-1694746D02*
X4363039Y-1675698D01*
X4363039Y-1675698D02*
X4372563Y-1666174D01*
X4372563Y-1666174D02*
X4391611Y-1656650D01*
X4391611Y-1656650D02*
X4420182Y-1656650D01*
X4420182Y-1656650D02*
X4439230Y-1666174D01*
X4439230Y-1666174D02*
X4448753Y-1675698D01*
X4448753Y-1675698D02*
X4458277Y-1694746D01*
X4458277Y-1694746D02*
X4458277Y-1751888D01*
X4458277Y-1751888D02*
X4448753Y-1770936D01*
X4448753Y-1770936D02*
X4439230Y-1780460D01*
X4439230Y-1780460D02*
X4420182Y-1789984D01*
X4420182Y-1789984D02*
X4391611Y-1789984D01*
X4572563Y-1789984D02*
X4553515Y-1780460D01*
X4553515Y-1780460D02*
X4543992Y-1761412D01*
X4543992Y-1761412D02*
X4543992Y-1589984D01*
X4724944Y-1780460D02*
X4705896Y-1789984D01*
X4705896Y-1789984D02*
X4667801Y-1789984D01*
X4667801Y-1789984D02*
X4648753Y-1780460D01*
X4648753Y-1780460D02*
X4639230Y-1761412D01*
X4639230Y-1761412D02*
X4639230Y-1685222D01*
X4639230Y-1685222D02*
X4648753Y-1666174D01*
X4648753Y-1666174D02*
X4667801Y-1656650D01*
X4667801Y-1656650D02*
X4705896Y-1656650D01*
X4705896Y-1656650D02*
X4724944Y-1666174D01*
X4724944Y-1666174D02*
X4734468Y-1685222D01*
X4734468Y-1685222D02*
X4734468Y-1704269D01*
X4734468Y-1704269D02*
X4639230Y-1723317D01*
X4810658Y-1780460D02*
X4829706Y-1789984D01*
X4829706Y-1789984D02*
X4867801Y-1789984D01*
X4867801Y-1789984D02*
X4886849Y-1780460D01*
X4886849Y-1780460D02*
X4896373Y-1761412D01*
X4896373Y-1761412D02*
X4896373Y-1751888D01*
X4896373Y-1751888D02*
X4886849Y-1732841D01*
X4886849Y-1732841D02*
X4867801Y-1723317D01*
X4867801Y-1723317D02*
X4839230Y-1723317D01*
X4839230Y-1723317D02*
X4820182Y-1713793D01*
X4820182Y-1713793D02*
X4810658Y-1694746D01*
X4810658Y-1694746D02*
X4810658Y-1685222D01*
X4810658Y-1685222D02*
X4820182Y-1666174D01*
X4820182Y-1666174D02*
X4839230Y-1656650D01*
X4839230Y-1656650D02*
X4867801Y-1656650D01*
X4867801Y-1656650D02*
X4886849Y-1666174D01*
X4963039Y-1866174D02*
X4972563Y-1856650D01*
X4972563Y-1856650D02*
X4991611Y-1828079D01*
X4991611Y-1828079D02*
X5001134Y-1809031D01*
X5001134Y-1809031D02*
X5010658Y-1780460D01*
X5010658Y-1780460D02*
X5020182Y-1732841D01*
X5020182Y-1732841D02*
X5020182Y-1694746D01*
X5020182Y-1694746D02*
X5010658Y-1647127D01*
X5010658Y-1647127D02*
X5001134Y-1618555D01*
X5001134Y-1618555D02*
X4991611Y-1599508D01*
X4991611Y-1599508D02*
X4972563Y-1570936D01*
X4972563Y-1570936D02*
X4963039Y-1561412D01*
D16*
X-176500Y-1875500D02*
X-2500Y-2049500D01*
X-2500Y-1875500D02*
X-176500Y-2049500D01*
X-2500Y-1962500D02*
G75*
G02*
X-176500Y-1962500I-87000J0D01*
G01*
X-176500Y-1962500D02*
G75*
G02*
X-2500Y-1962500I87000J0D01*
G01*
D11*
X363039Y-2053984D02*
X248753Y-2053984D01*
X305896Y-2053984D02*
X305896Y-1853984D01*
X305896Y-1853984D02*
X286848Y-1882555D01*
X286848Y-1882555D02*
X267801Y-1901603D01*
X267801Y-1901603D02*
X248753Y-1911127D01*
X448753Y-2034936D02*
X458277Y-2044460D01*
X458277Y-2044460D02*
X448753Y-2053984D01*
X448753Y-2053984D02*
X439229Y-2044460D01*
X439229Y-2044460D02*
X448753Y-2034936D01*
X448753Y-2034936D02*
X448753Y-2053984D01*
X524944Y-1853984D02*
X658277Y-1853984D01*
X658277Y-1853984D02*
X572563Y-2053984D01*
X820182Y-1920650D02*
X820182Y-2053984D01*
X772562Y-1844460D02*
X724943Y-1987317D01*
X724943Y-1987317D02*
X848753Y-1987317D01*
X963039Y-1853984D02*
X982086Y-1853984D01*
X982086Y-1853984D02*
X1001134Y-1863508D01*
X1001134Y-1863508D02*
X1010658Y-1873031D01*
X1010658Y-1873031D02*
X1020182Y-1892079D01*
X1020182Y-1892079D02*
X1029705Y-1930174D01*
X1029705Y-1930174D02*
X1029705Y-1977793D01*
X1029705Y-1977793D02*
X1020182Y-2015888D01*
X1020182Y-2015888D02*
X1010658Y-2034936D01*
X1010658Y-2034936D02*
X1001134Y-2044460D01*
X1001134Y-2044460D02*
X982086Y-2053984D01*
X982086Y-2053984D02*
X963039Y-2053984D01*
X963039Y-2053984D02*
X943991Y-2044460D01*
X943991Y-2044460D02*
X934467Y-2034936D01*
X934467Y-2034936D02*
X924943Y-2015888D01*
X924943Y-2015888D02*
X915420Y-1977793D01*
X915420Y-1977793D02*
X915420Y-1930174D01*
X915420Y-1930174D02*
X924943Y-1892079D01*
X924943Y-1892079D02*
X934467Y-1873031D01*
X934467Y-1873031D02*
X943991Y-1863508D01*
X943991Y-1863508D02*
X963039Y-1853984D01*
X1115420Y-2053984D02*
X1115420Y-1920650D01*
X1115420Y-1939698D02*
X1124944Y-1930174D01*
X1124944Y-1930174D02*
X1143991Y-1920650D01*
X1143991Y-1920650D02*
X1172563Y-1920650D01*
X1172563Y-1920650D02*
X1191610Y-1930174D01*
X1191610Y-1930174D02*
X1201134Y-1949222D01*
X1201134Y-1949222D02*
X1201134Y-2053984D01*
X1201134Y-1949222D02*
X1210658Y-1930174D01*
X1210658Y-1930174D02*
X1229705Y-1920650D01*
X1229705Y-1920650D02*
X1258277Y-1920650D01*
X1258277Y-1920650D02*
X1277325Y-1930174D01*
X1277325Y-1930174D02*
X1286848Y-1949222D01*
X1286848Y-1949222D02*
X1286848Y-2053984D01*
X1382086Y-2053984D02*
X1382086Y-1920650D01*
X1382086Y-1939698D02*
X1391610Y-1930174D01*
X1391610Y-1930174D02*
X1410658Y-1920650D01*
X1410658Y-1920650D02*
X1439229Y-1920650D01*
X1439229Y-1920650D02*
X1458277Y-1930174D01*
X1458277Y-1930174D02*
X1467801Y-1949222D01*
X1467801Y-1949222D02*
X1467801Y-2053984D01*
X1467801Y-1949222D02*
X1477324Y-1930174D01*
X1477324Y-1930174D02*
X1496372Y-1920650D01*
X1496372Y-1920650D02*
X1524943Y-1920650D01*
X1524943Y-1920650D02*
X1543991Y-1930174D01*
X1543991Y-1930174D02*
X1553515Y-1949222D01*
X1553515Y-1949222D02*
X1553515Y-2053984D01*
X1943991Y-1844460D02*
X1772563Y-2101603D01*
X2201134Y-1853984D02*
X2220182Y-1853984D01*
X2220182Y-1853984D02*
X2239229Y-1863508D01*
X2239229Y-1863508D02*
X2248753Y-1873031D01*
X2248753Y-1873031D02*
X2258277Y-1892079D01*
X2258277Y-1892079D02*
X2267801Y-1930174D01*
X2267801Y-1930174D02*
X2267801Y-1977793D01*
X2267801Y-1977793D02*
X2258277Y-2015888D01*
X2258277Y-2015888D02*
X2248753Y-2034936D01*
X2248753Y-2034936D02*
X2239229Y-2044460D01*
X2239229Y-2044460D02*
X2220182Y-2053984D01*
X2220182Y-2053984D02*
X2201134Y-2053984D01*
X2201134Y-2053984D02*
X2182087Y-2044460D01*
X2182087Y-2044460D02*
X2172563Y-2034936D01*
X2172563Y-2034936D02*
X2163039Y-2015888D01*
X2163039Y-2015888D02*
X2153515Y-1977793D01*
X2153515Y-1977793D02*
X2153515Y-1930174D01*
X2153515Y-1930174D02*
X2163039Y-1892079D01*
X2163039Y-1892079D02*
X2172563Y-1873031D01*
X2172563Y-1873031D02*
X2182087Y-1863508D01*
X2182087Y-1863508D02*
X2201134Y-1853984D01*
X2353515Y-2034936D02*
X2363039Y-2044460D01*
X2363039Y-2044460D02*
X2353515Y-2053984D01*
X2353515Y-2053984D02*
X2343991Y-2044460D01*
X2343991Y-2044460D02*
X2353515Y-2034936D01*
X2353515Y-2034936D02*
X2353515Y-2053984D01*
X2486848Y-1853984D02*
X2505896Y-1853984D01*
X2505896Y-1853984D02*
X2524944Y-1863508D01*
X2524944Y-1863508D02*
X2534468Y-1873031D01*
X2534468Y-1873031D02*
X2543991Y-1892079D01*
X2543991Y-1892079D02*
X2553515Y-1930174D01*
X2553515Y-1930174D02*
X2553515Y-1977793D01*
X2553515Y-1977793D02*
X2543991Y-2015888D01*
X2543991Y-2015888D02*
X2534468Y-2034936D01*
X2534468Y-2034936D02*
X2524944Y-2044460D01*
X2524944Y-2044460D02*
X2505896Y-2053984D01*
X2505896Y-2053984D02*
X2486848Y-2053984D01*
X2486848Y-2053984D02*
X2467801Y-2044460D01*
X2467801Y-2044460D02*
X2458277Y-2034936D01*
X2458277Y-2034936D02*
X2448753Y-2015888D01*
X2448753Y-2015888D02*
X2439229Y-1977793D01*
X2439229Y-1977793D02*
X2439229Y-1930174D01*
X2439229Y-1930174D02*
X2448753Y-1892079D01*
X2448753Y-1892079D02*
X2458277Y-1873031D01*
X2458277Y-1873031D02*
X2467801Y-1863508D01*
X2467801Y-1863508D02*
X2486848Y-1853984D01*
X2724944Y-1853984D02*
X2686848Y-1853984D01*
X2686848Y-1853984D02*
X2667801Y-1863508D01*
X2667801Y-1863508D02*
X2658277Y-1873031D01*
X2658277Y-1873031D02*
X2639229Y-1901603D01*
X2639229Y-1901603D02*
X2629706Y-1939698D01*
X2629706Y-1939698D02*
X2629706Y-2015888D01*
X2629706Y-2015888D02*
X2639229Y-2034936D01*
X2639229Y-2034936D02*
X2648753Y-2044460D01*
X2648753Y-2044460D02*
X2667801Y-2053984D01*
X2667801Y-2053984D02*
X2705896Y-2053984D01*
X2705896Y-2053984D02*
X2724944Y-2044460D01*
X2724944Y-2044460D02*
X2734468Y-2034936D01*
X2734468Y-2034936D02*
X2743991Y-2015888D01*
X2743991Y-2015888D02*
X2743991Y-1968269D01*
X2743991Y-1968269D02*
X2734468Y-1949222D01*
X2734468Y-1949222D02*
X2724944Y-1939698D01*
X2724944Y-1939698D02*
X2705896Y-1930174D01*
X2705896Y-1930174D02*
X2667801Y-1930174D01*
X2667801Y-1930174D02*
X2648753Y-1939698D01*
X2648753Y-1939698D02*
X2639229Y-1949222D01*
X2639229Y-1949222D02*
X2629706Y-1968269D01*
X2858277Y-1939698D02*
X2839229Y-1930174D01*
X2839229Y-1930174D02*
X2829706Y-1920650D01*
X2829706Y-1920650D02*
X2820182Y-1901603D01*
X2820182Y-1901603D02*
X2820182Y-1892079D01*
X2820182Y-1892079D02*
X2829706Y-1873031D01*
X2829706Y-1873031D02*
X2839229Y-1863508D01*
X2839229Y-1863508D02*
X2858277Y-1853984D01*
X2858277Y-1853984D02*
X2896372Y-1853984D01*
X2896372Y-1853984D02*
X2915420Y-1863508D01*
X2915420Y-1863508D02*
X2924944Y-1873031D01*
X2924944Y-1873031D02*
X2934467Y-1892079D01*
X2934467Y-1892079D02*
X2934467Y-1901603D01*
X2934467Y-1901603D02*
X2924944Y-1920650D01*
X2924944Y-1920650D02*
X2915420Y-1930174D01*
X2915420Y-1930174D02*
X2896372Y-1939698D01*
X2896372Y-1939698D02*
X2858277Y-1939698D01*
X2858277Y-1939698D02*
X2839229Y-1949222D01*
X2839229Y-1949222D02*
X2829706Y-1958746D01*
X2829706Y-1958746D02*
X2820182Y-1977793D01*
X2820182Y-1977793D02*
X2820182Y-2015888D01*
X2820182Y-2015888D02*
X2829706Y-2034936D01*
X2829706Y-2034936D02*
X2839229Y-2044460D01*
X2839229Y-2044460D02*
X2858277Y-2053984D01*
X2858277Y-2053984D02*
X2896372Y-2053984D01*
X2896372Y-2053984D02*
X2915420Y-2044460D01*
X2915420Y-2044460D02*
X2924944Y-2034936D01*
X2924944Y-2034936D02*
X2934467Y-2015888D01*
X2934467Y-2015888D02*
X2934467Y-1977793D01*
X2934467Y-1977793D02*
X2924944Y-1958746D01*
X2924944Y-1958746D02*
X2915420Y-1949222D01*
X2915420Y-1949222D02*
X2896372Y-1939698D01*
X3115420Y-1853984D02*
X3020182Y-1853984D01*
X3020182Y-1853984D02*
X3010658Y-1949222D01*
X3010658Y-1949222D02*
X3020182Y-1939698D01*
X3020182Y-1939698D02*
X3039229Y-1930174D01*
X3039229Y-1930174D02*
X3086848Y-1930174D01*
X3086848Y-1930174D02*
X3105896Y-1939698D01*
X3105896Y-1939698D02*
X3115420Y-1949222D01*
X3115420Y-1949222D02*
X3124944Y-1968269D01*
X3124944Y-1968269D02*
X3124944Y-2015888D01*
X3124944Y-2015888D02*
X3115420Y-2034936D01*
X3115420Y-2034936D02*
X3105896Y-2044460D01*
X3105896Y-2044460D02*
X3086848Y-2053984D01*
X3086848Y-2053984D02*
X3039229Y-2053984D01*
X3039229Y-2053984D02*
X3020182Y-2044460D01*
X3020182Y-2044460D02*
X3010658Y-2034936D01*
X3201134Y-1853984D02*
X3201134Y-1892079D01*
X3277325Y-1853984D02*
X3277325Y-1892079D01*
X3572563Y-2130174D02*
X3563039Y-2120650D01*
X3563039Y-2120650D02*
X3543991Y-2092079D01*
X3543991Y-2092079D02*
X3534468Y-2073031D01*
X3534468Y-2073031D02*
X3524944Y-2044460D01*
X3524944Y-2044460D02*
X3515420Y-1996841D01*
X3515420Y-1996841D02*
X3515420Y-1958746D01*
X3515420Y-1958746D02*
X3524944Y-1911127D01*
X3524944Y-1911127D02*
X3534468Y-1882555D01*
X3534468Y-1882555D02*
X3543991Y-1863508D01*
X3543991Y-1863508D02*
X3563039Y-1834936D01*
X3563039Y-1834936D02*
X3572563Y-1825412D01*
X3753515Y-2053984D02*
X3639229Y-2053984D01*
X3696372Y-2053984D02*
X3696372Y-1853984D01*
X3696372Y-1853984D02*
X3677325Y-1882555D01*
X3677325Y-1882555D02*
X3658277Y-1901603D01*
X3658277Y-1901603D02*
X3639229Y-1911127D01*
X3829706Y-1873031D02*
X3839229Y-1863508D01*
X3839229Y-1863508D02*
X3858277Y-1853984D01*
X3858277Y-1853984D02*
X3905896Y-1853984D01*
X3905896Y-1853984D02*
X3924944Y-1863508D01*
X3924944Y-1863508D02*
X3934468Y-1873031D01*
X3934468Y-1873031D02*
X3943991Y-1892079D01*
X3943991Y-1892079D02*
X3943991Y-1911127D01*
X3943991Y-1911127D02*
X3934468Y-1939698D01*
X3934468Y-1939698D02*
X3820182Y-2053984D01*
X3820182Y-2053984D02*
X3943991Y-2053984D01*
X4182087Y-2053984D02*
X4182087Y-1853984D01*
X4267801Y-2053984D02*
X4267801Y-1949222D01*
X4267801Y-1949222D02*
X4258277Y-1930174D01*
X4258277Y-1930174D02*
X4239230Y-1920650D01*
X4239230Y-1920650D02*
X4210658Y-1920650D01*
X4210658Y-1920650D02*
X4191610Y-1930174D01*
X4191610Y-1930174D02*
X4182087Y-1939698D01*
X4391611Y-2053984D02*
X4372563Y-2044460D01*
X4372563Y-2044460D02*
X4363039Y-2034936D01*
X4363039Y-2034936D02*
X4353515Y-2015888D01*
X4353515Y-2015888D02*
X4353515Y-1958746D01*
X4353515Y-1958746D02*
X4363039Y-1939698D01*
X4363039Y-1939698D02*
X4372563Y-1930174D01*
X4372563Y-1930174D02*
X4391611Y-1920650D01*
X4391611Y-1920650D02*
X4420182Y-1920650D01*
X4420182Y-1920650D02*
X4439230Y-1930174D01*
X4439230Y-1930174D02*
X4448753Y-1939698D01*
X4448753Y-1939698D02*
X4458277Y-1958746D01*
X4458277Y-1958746D02*
X4458277Y-2015888D01*
X4458277Y-2015888D02*
X4448753Y-2034936D01*
X4448753Y-2034936D02*
X4439230Y-2044460D01*
X4439230Y-2044460D02*
X4420182Y-2053984D01*
X4420182Y-2053984D02*
X4391611Y-2053984D01*
X4572563Y-2053984D02*
X4553515Y-2044460D01*
X4553515Y-2044460D02*
X4543992Y-2025412D01*
X4543992Y-2025412D02*
X4543992Y-1853984D01*
X4724944Y-2044460D02*
X4705896Y-2053984D01*
X4705896Y-2053984D02*
X4667801Y-2053984D01*
X4667801Y-2053984D02*
X4648753Y-2044460D01*
X4648753Y-2044460D02*
X4639230Y-2025412D01*
X4639230Y-2025412D02*
X4639230Y-1949222D01*
X4639230Y-1949222D02*
X4648753Y-1930174D01*
X4648753Y-1930174D02*
X4667801Y-1920650D01*
X4667801Y-1920650D02*
X4705896Y-1920650D01*
X4705896Y-1920650D02*
X4724944Y-1930174D01*
X4724944Y-1930174D02*
X4734468Y-1949222D01*
X4734468Y-1949222D02*
X4734468Y-1968269D01*
X4734468Y-1968269D02*
X4639230Y-1987317D01*
X4810658Y-2044460D02*
X4829706Y-2053984D01*
X4829706Y-2053984D02*
X4867801Y-2053984D01*
X4867801Y-2053984D02*
X4886849Y-2044460D01*
X4886849Y-2044460D02*
X4896373Y-2025412D01*
X4896373Y-2025412D02*
X4896373Y-2015888D01*
X4896373Y-2015888D02*
X4886849Y-1996841D01*
X4886849Y-1996841D02*
X4867801Y-1987317D01*
X4867801Y-1987317D02*
X4839230Y-1987317D01*
X4839230Y-1987317D02*
X4820182Y-1977793D01*
X4820182Y-1977793D02*
X4810658Y-1958746D01*
X4810658Y-1958746D02*
X4810658Y-1949222D01*
X4810658Y-1949222D02*
X4820182Y-1930174D01*
X4820182Y-1930174D02*
X4839230Y-1920650D01*
X4839230Y-1920650D02*
X4867801Y-1920650D01*
X4867801Y-1920650D02*
X4886849Y-1930174D01*
X4963039Y-2130174D02*
X4972563Y-2120650D01*
X4972563Y-2120650D02*
X4991611Y-2092079D01*
X4991611Y-2092079D02*
X5001134Y-2073031D01*
X5001134Y-2073031D02*
X5010658Y-2044460D01*
X5010658Y-2044460D02*
X5020182Y-1996841D01*
X5020182Y-1996841D02*
X5020182Y-1958746D01*
X5020182Y-1958746D02*
X5010658Y-1911127D01*
X5010658Y-1911127D02*
X5001134Y-1882555D01*
X5001134Y-1882555D02*
X4991611Y-1863508D01*
X4991611Y-1863508D02*
X4972563Y-1834936D01*
X4972563Y-1834936D02*
X4963039Y-1825412D01*
M02*
