%TF.GenerationSoftware,KiCad,Pcbnew,10.0.1*%
%TF.CreationDate,2026-08-07T23:35:23+09:00*%
%TF.ProjectId,AMP_BD_V2,414d505f-4244-45f5-9632-2e6b69636164,rev?*%
%TF.SameCoordinates,Original*%
%TF.FileFunction,Copper,L1,Top*%
%TF.FilePolarity,Positive*%
%FSLAX46Y46*%
G04 Gerber Fmt 4.6, Leading zero omitted, Abs format (unit mm)*
G04 Created by KiCad (PCBNEW 10.0.1) date 2026-08-07 23:35:23*
%MOMM*%
%LPD*%
G01*
G04 APERTURE LIST*
G04 Aperture macros list*
%AMRoundRect*
0 Rectangle with rounded corners*
0 $1 Rounding radius*
0 $2 $3 $4 $5 $6 $7 $8 $9 X,Y pos of 4 corners*
0 Add a 4 corners polygon primitive as box body*
4,1,4,$2,$3,$4,$5,$6,$7,$8,$9,$2,$3,0*
0 Add four circle primitives for the rounded corners*
1,1,$1+$1,$2,$3*
1,1,$1+$1,$4,$5*
1,1,$1+$1,$6,$7*
1,1,$1+$1,$8,$9*
0 Add four rect primitives between the rounded corners*
20,1,$1+$1,$2,$3,$4,$5,0*
20,1,$1+$1,$4,$5,$6,$7,0*
20,1,$1+$1,$6,$7,$8,$9,0*
20,1,$1+$1,$8,$9,$2,$3,0*%
G04 Aperture macros list end*
%TA.AperFunction,SMDPad,CuDef*%
%ADD10RoundRect,0.249999X1.425001X-0.450001X1.425001X0.450001X-1.425001X0.450001X-1.425001X-0.450001X0*%
%TD*%
%TA.AperFunction,ComponentPad*%
%ADD11C,2.500000*%
%TD*%
%TA.AperFunction,ComponentPad*%
%ADD12C,3.600000*%
%TD*%
%TA.AperFunction,ComponentPad*%
%ADD13RoundRect,0.720000X-1.080000X-1.080000X1.080000X-1.080000X1.080000X1.080000X-1.080000X1.080000X0*%
%TD*%
%TA.AperFunction,SMDPad,CuDef*%
%ADD14RoundRect,0.249999X-1.425001X0.450001X-1.425001X-0.450001X1.425001X-0.450001X1.425001X0.450001X0*%
%TD*%
%TA.AperFunction,ComponentPad*%
%ADD15O,4.300000X3.400000*%
%TD*%
%TA.AperFunction,ComponentPad*%
%ADD16RoundRect,0.720000X1.080000X1.080000X-1.080000X1.080000X-1.080000X-1.080000X1.080000X-1.080000X0*%
%TD*%
%TA.AperFunction,ComponentPad*%
%ADD17O,3.400000X4.300000*%
%TD*%
%TA.AperFunction,ComponentPad*%
%ADD18RoundRect,0.216000X-0.684000X0.684000X-0.684000X-0.684000X0.684000X-0.684000X0.684000X0.684000X0*%
%TD*%
%TA.AperFunction,ComponentPad*%
%ADD19C,1.800000*%
%TD*%
%TA.AperFunction,SMDPad,CuDef*%
%ADD20RoundRect,0.150000X0.750000X-0.530000X0.750000X0.530000X-0.750000X0.530000X-0.750000X-0.530000X0*%
%TD*%
%TA.AperFunction,SMDPad,CuDef*%
%ADD21RoundRect,0.150000X0.530000X0.750000X-0.530000X0.750000X-0.530000X-0.750000X0.530000X-0.750000X0*%
%TD*%
%TA.AperFunction,SMDPad,CuDef*%
%ADD22RoundRect,0.271739X-1.128261X0.978261X-1.128261X-0.978261X1.128261X-0.978261X1.128261X0.978261X0*%
%TD*%
%TA.AperFunction,ComponentPad*%
%ADD23C,2.800000*%
%TD*%
%TA.AperFunction,SMDPad,CuDef*%
%ADD24RoundRect,0.150000X-0.530000X-0.750000X0.530000X-0.750000X0.530000X0.750000X-0.530000X0.750000X0*%
%TD*%
%TA.AperFunction,ViaPad*%
%ADD25C,1.800000*%
%TD*%
%TA.AperFunction,Conductor*%
%ADD26C,1.500000*%
%TD*%
%TA.AperFunction,Conductor*%
%ADD27C,2.000000*%
%TD*%
%TA.AperFunction,Conductor*%
%ADD28C,2.500000*%
%TD*%
%TA.AperFunction,Conductor*%
%ADD29C,3.800000*%
%TD*%
%TA.AperFunction,Conductor*%
%ADD30C,3.500000*%
%TD*%
%TA.AperFunction,Conductor*%
%ADD31C,1.200000*%
%TD*%
G04 APERTURE END LIST*
D10*
%TO.P,R20,2*%
%TO.N,/GATE2*%
X11000000Y13050000D03*
%TO.P,R20,1*%
%TO.N,Net-(C6-Pad2)*%
X11000000Y6950000D03*
%TD*%
D11*
%TO.P,R1,2*%
%TO.N,/SOURCE1*%
X16000000Y57000000D03*
%TO.P,R1,1*%
%TO.N,/VDD*%
X16000000Y79000000D03*
%TD*%
%TO.P,R13,1*%
%TO.N,Net-(J1-Pin_1)*%
X6000000Y80300000D03*
%TO.P,R13,2*%
%TO.N,/SOURCE2*%
X6000000Y53300000D03*
%TD*%
D12*
%TO.P,Q2,1,G_1*%
%TO.N,Net-(Q2-G)*%
X54550000Y90500000D03*
D13*
%TO.P,Q2,2,D_2*%
%TO.N,/VDD*%
X60000000Y90500000D03*
D12*
%TO.P,Q2,3,S_3*%
%TO.N,Net-(Q2-S)*%
X65450000Y90500000D03*
%TD*%
D10*
%TO.P,R2,1*%
%TO.N,/GATE1*%
X30500000Y80550000D03*
%TO.P,R2,2*%
%TO.N,Net-(Q1-G)*%
X30500000Y86650000D03*
%TD*%
%TO.P,R8,1*%
%TO.N,/SOURCE1*%
X26000000Y66950000D03*
%TO.P,R8,2*%
%TO.N,/GATE1*%
X26000000Y73050000D03*
%TD*%
%TO.P,R5,1*%
%TO.N,/GATE1*%
X102500000Y80550000D03*
%TO.P,R5,2*%
%TO.N,Net-(Q4-G)*%
X102500000Y86650000D03*
%TD*%
D14*
%TO.P,R17,1*%
%TO.N,/GATE2*%
X89500000Y13450000D03*
%TO.P,R17,2*%
%TO.N,Net-(Q7-G)*%
X89500000Y7350000D03*
%TD*%
%TO.P,R15,1*%
%TO.N,/GATE2*%
X41500000Y13450000D03*
%TO.P,R15,2*%
%TO.N,Net-(Q5-G)*%
X41500000Y7350000D03*
%TD*%
D10*
%TO.P,R19,1*%
%TO.N,Net-(C5-Pad1)*%
X127600000Y16950000D03*
%TO.P,R19,2*%
%TO.N,/SOURCE1*%
X127600000Y23050000D03*
%TD*%
D11*
%TO.P,R9,1*%
%TO.N,Net-(Q1-S)*%
X41500000Y86200000D03*
%TO.P,R9,2*%
%TO.N,/SOURCE1*%
X41500000Y59200000D03*
%TD*%
D15*
%TO.P,J2,1,Pin_1_1*%
%TO.N,Net-(J1-Pin_1)*%
X10500000Y86000000D03*
%TO.P,J2,2,Pin_2_2*%
X10500000Y91000000D03*
%TD*%
D11*
%TO.P,R25,1*%
%TO.N,Net-(Q8-S)*%
X102500000Y7930000D03*
%TO.P,R25,2*%
%TO.N,/SOURCE2*%
X102500000Y34930000D03*
%TD*%
D12*
%TO.P,Q6,1,G_1*%
%TO.N,Net-(Q6-G)*%
X65450000Y3500000D03*
D16*
%TO.P,Q6,2,D_2*%
%TO.N,/SOURCE1*%
X60000000Y3500000D03*
D12*
%TO.P,Q6,3,S_3*%
%TO.N,Net-(Q6-S)*%
X54550000Y3500000D03*
%TD*%
D17*
%TO.P,J7,1,Pin_1_1*%
%TO.N,/SOURCE2*%
X3000000Y48000000D03*
%TO.P,J7,2,Pin_2_2*%
X8000000Y48000000D03*
%TD*%
D18*
%TO.P,J6,1,1_1*%
%TO.N,/GATE1*%
X4000000Y37750000D03*
D19*
%TO.P,J6,2,2_2*%
%TO.N,/SOURCE1*%
X4000000Y35250000D03*
%TO.P,J6,3,3_3*%
%TO.N,/GATE2*%
X4000000Y32750000D03*
%TO.P,J6,4,4_4*%
%TO.N,/SOURCE2*%
X4000000Y30250000D03*
%TD*%
D12*
%TO.P,Q4,1,G_1*%
%TO.N,Net-(Q4-G)*%
X102550000Y90500000D03*
D13*
%TO.P,Q4,2,D_2*%
%TO.N,/VDD*%
X108000000Y90500000D03*
D12*
%TO.P,Q4,3,S_3*%
%TO.N,Net-(Q4-S)*%
X113450000Y90500000D03*
%TD*%
D15*
%TO.P,J1,1,Pin_1_1*%
%TO.N,Net-(J1-Pin_1)*%
X3500000Y86000000D03*
%TO.P,J1,2,Pin_2_2*%
X3500000Y91000000D03*
%TD*%
D17*
%TO.P,J4,1,Pin_1_1*%
%TO.N,/SOURCE1*%
X122000000Y54500000D03*
%TO.P,J4,2,Pin_2_2*%
X127000000Y54500000D03*
%TD*%
D14*
%TO.P,R18,1*%
%TO.N,/GATE2*%
X113500000Y13450000D03*
%TO.P,R18,2*%
%TO.N,Net-(Q8-G)*%
X113500000Y7350000D03*
%TD*%
D11*
%TO.P,R22,1*%
%TO.N,Net-(Q5-S)*%
X30500000Y7800000D03*
%TO.P,R22,2*%
%TO.N,/SOURCE2*%
X30500000Y34800000D03*
%TD*%
D10*
%TO.P,R6,1*%
%TO.N,Net-(C2-Pad1)*%
X127600000Y72950000D03*
%TO.P,R6,2*%
%TO.N,/VDD*%
X127600000Y79050000D03*
%TD*%
D11*
%TO.P,R11,1*%
%TO.N,Net-(Q3-S)*%
X89500000Y86200000D03*
%TO.P,R11,2*%
%TO.N,/SOURCE1*%
X89500000Y59200000D03*
%TD*%
D20*
%TO.P,C3,1*%
%TO.N,/SOURCE1*%
X30500000Y61350000D03*
%TO.P,C3,2*%
%TO.N,Net-(C3-Pad2)*%
X30500000Y64650000D03*
%TD*%
D12*
%TO.P,Q7,1,G_1*%
%TO.N,Net-(Q7-G)*%
X89450000Y3500000D03*
D16*
%TO.P,Q7,2,D_2*%
%TO.N,/SOURCE1*%
X84000000Y3500000D03*
D12*
%TO.P,Q7,3,S_3*%
%TO.N,Net-(Q7-S)*%
X78550000Y3500000D03*
%TD*%
D10*
%TO.P,R21,1*%
%TO.N,/SOURCE2*%
X6500000Y6950000D03*
%TO.P,R21,2*%
%TO.N,/GATE2*%
X6500000Y13050000D03*
%TD*%
D21*
%TO.P,C2,1*%
%TO.N,Net-(C2-Pad1)*%
X126650000Y68000000D03*
%TO.P,C2,2*%
%TO.N,/SOURCE1*%
X123350000Y68000000D03*
%TD*%
D11*
%TO.P,R24,1*%
%TO.N,Net-(Q7-S)*%
X78500000Y8000000D03*
%TO.P,R24,2*%
%TO.N,/SOURCE2*%
X78500000Y35000000D03*
%TD*%
%TO.P,R10,1*%
%TO.N,Net-(Q2-S)*%
X65500000Y86200000D03*
%TO.P,R10,2*%
%TO.N,/SOURCE1*%
X65500000Y59200000D03*
%TD*%
D15*
%TO.P,J3,1,Pin_1_1*%
%TO.N,/VDD*%
X21500000Y86000000D03*
%TO.P,J3,2,Pin_2_2*%
X21500000Y91000000D03*
%TD*%
D11*
%TO.P,R14,1*%
%TO.N,/SOURCE1*%
X18000000Y40000000D03*
%TO.P,R14,2*%
%TO.N,/SOURCE2*%
X18000000Y18000000D03*
%TD*%
D10*
%TO.P,R4,1*%
%TO.N,/GATE1*%
X78500000Y80550000D03*
%TO.P,R4,2*%
%TO.N,Net-(Q3-G)*%
X78500000Y86650000D03*
%TD*%
D17*
%TO.P,J5,1,Pin_1_1*%
%TO.N,Net-(J5-Pin_1)*%
X122000000Y39500000D03*
%TO.P,J5,2,Pin_2_2*%
X127000000Y39500000D03*
%TD*%
D12*
%TO.P,Q8,1,G_1*%
%TO.N,Net-(Q8-G)*%
X113450000Y3500000D03*
D16*
%TO.P,Q8,2,D_2*%
%TO.N,/SOURCE1*%
X108000000Y3500000D03*
D12*
%TO.P,Q8,3,S_3*%
%TO.N,Net-(Q8-S)*%
X102550000Y3500000D03*
%TD*%
%TO.P,Q3,1,G_1*%
%TO.N,Net-(Q3-G)*%
X78550000Y90500000D03*
D13*
%TO.P,Q3,2,D_2*%
%TO.N,/VDD*%
X84000000Y90500000D03*
D12*
%TO.P,Q3,3,S_3*%
%TO.N,Net-(Q3-S)*%
X89450000Y90500000D03*
%TD*%
D22*
%TO.P,D1,1,K_1*%
%TO.N,/VDD*%
X122600000Y78350000D03*
%TO.P,D1,2,A_2*%
%TO.N,/SOURCE1*%
X122600000Y73650000D03*
%TD*%
%TO.P,D2,1,K_1*%
%TO.N,/SOURCE1*%
X122600000Y22350000D03*
%TO.P,D2,2,A_2*%
%TO.N,/SOURCE2*%
X122600000Y17650000D03*
%TD*%
D11*
%TO.P,R23,1*%
%TO.N,Net-(Q6-S)*%
X54500000Y7800000D03*
%TO.P,R23,2*%
%TO.N,/SOURCE2*%
X54500000Y34800000D03*
%TD*%
D12*
%TO.P,Q5,1,G_1*%
%TO.N,Net-(Q5-G)*%
X41450000Y3500000D03*
D16*
%TO.P,Q5,2,D_2*%
%TO.N,/SOURCE1*%
X36000000Y3500000D03*
D12*
%TO.P,Q5,3,S_3*%
%TO.N,Net-(Q5-S)*%
X30550000Y3500000D03*
%TD*%
D10*
%TO.P,R3,1*%
%TO.N,/GATE1*%
X54500000Y80550000D03*
%TO.P,R3,2*%
%TO.N,Net-(Q2-G)*%
X54500000Y86650000D03*
%TD*%
D12*
%TO.P,Q1,1,G_1*%
%TO.N,Net-(Q1-G)*%
X30550000Y90500000D03*
D13*
%TO.P,Q1,2,D_2*%
%TO.N,/VDD*%
X36000000Y90500000D03*
D12*
%TO.P,Q1,3,S_3*%
%TO.N,Net-(Q1-S)*%
X41450000Y90500000D03*
%TD*%
D23*
%TO.P,C4,1,1_1*%
%TO.N,/SOURCE2*%
X32000000Y47000000D03*
%TO.P,C4,2,2_2*%
%TO.N,Net-(J5-Pin_1)*%
X68000000Y47000000D03*
%TD*%
D21*
%TO.P,C5,1*%
%TO.N,Net-(C5-Pad1)*%
X126650000Y12000000D03*
%TO.P,C5,2*%
%TO.N,/SOURCE2*%
X123350000Y12000000D03*
%TD*%
D23*
%TO.P,C1,1,1_1*%
%TO.N,Net-(J5-Pin_1)*%
X72000000Y47000000D03*
%TO.P,C1,2,2_2*%
%TO.N,/VDD*%
X108000000Y47000000D03*
%TD*%
D14*
%TO.P,R16,1*%
%TO.N,/GATE2*%
X65500000Y13450000D03*
%TO.P,R16,2*%
%TO.N,Net-(Q6-G)*%
X65500000Y7350000D03*
%TD*%
D11*
%TO.P,R12,1*%
%TO.N,Net-(Q4-S)*%
X113500000Y86200000D03*
%TO.P,R12,2*%
%TO.N,/SOURCE1*%
X113500000Y59200000D03*
%TD*%
D10*
%TO.P,R7,1*%
%TO.N,Net-(C3-Pad2)*%
X30500000Y66950000D03*
%TO.P,R7,2*%
%TO.N,/GATE1*%
X30500000Y73050000D03*
%TD*%
D24*
%TO.P,C6,1*%
%TO.N,/SOURCE2*%
X7050000Y3500000D03*
%TO.P,C6,2*%
%TO.N,Net-(C6-Pad2)*%
X10350000Y3500000D03*
%TD*%
D25*
%TO.N,/SOURCE2*%
X28250000Y31050000D03*
X29650000Y29600000D03*
%TO.N,/SOURCE1*%
X28250000Y57000000D03*
%TO.N,/VDD*%
X19500000Y81400000D03*
%TO.N,/SOURCE2*%
X119400000Y16000000D03*
X119400000Y17900000D03*
%TO.N,/VDD*%
X111500000Y78500000D03*
X111500000Y81000000D03*
X111500000Y76000000D03*
%TO.N,/SOURCE1*%
X106300000Y22300000D03*
X108600000Y20000000D03*
X68000000Y23800000D03*
X108600000Y18000000D03*
X44000000Y23800000D03*
X63000000Y23800000D03*
X65500000Y23800000D03*
X41500000Y23800000D03*
X89500000Y23800000D03*
X104800000Y23800000D03*
X39000000Y23800000D03*
X92000000Y23800000D03*
X87000000Y23800000D03*
%TD*%
%TO.N,/SOURCE1*%
D26*
X27500000Y56170000D02*
X30480000Y59150000D01*
X27500000Y49550000D02*
X27500000Y56170000D01*
X18000000Y40050000D02*
X27500000Y49550000D01*
X18000000Y40000000D02*
X18000000Y40050000D01*
X13250000Y35250000D02*
X18000000Y40000000D01*
X4000000Y35250000D02*
X13250000Y35250000D01*
%TO.N,/GATE2*%
X7650000Y32750000D02*
X4000000Y32750000D01*
X12000000Y28400000D02*
X7650000Y32750000D01*
X12000000Y14050000D02*
X12000000Y28400000D01*
%TO.N,/GATE1*%
X23650000Y73050000D02*
X26000000Y73050000D01*
X7800000Y37750000D02*
X21150000Y51100000D01*
X21150000Y70550000D02*
X23650000Y73050000D01*
X4000000Y37750000D02*
X7800000Y37750000D01*
X21150000Y51100000D02*
X21150000Y70550000D01*
%TO.N,/SOURCE2*%
X4400000Y6950000D02*
X6500000Y6950000D01*
X1900000Y28150000D02*
X1900000Y9450000D01*
X1900000Y9450000D02*
X4400000Y6950000D01*
X4000000Y30250000D02*
X1900000Y28150000D01*
X6500000Y6950000D02*
X6500000Y4050000D01*
X6500000Y4050000D02*
X7050000Y3500000D01*
%TO.N,Net-(C6-Pad2)*%
X11000000Y4150000D02*
X10350000Y3500000D01*
X11000000Y6950000D02*
X11000000Y4150000D01*
%TO.N,/GATE2*%
D27*
X12000000Y14050000D02*
X12600000Y13450000D01*
X12600000Y13450000D02*
X41500000Y13450000D01*
D26*
X11000000Y13050000D02*
X12000000Y14050000D01*
X6500000Y13050000D02*
X11000000Y13050000D01*
%TO.N,/VDD*%
D28*
X19400000Y82250000D02*
X19400000Y81500000D01*
X21500000Y86000000D02*
X21500000Y84350000D01*
X21500000Y84350000D02*
X19400000Y82250000D01*
X19400000Y81500000D02*
X19500000Y81400000D01*
X18400000Y81400000D02*
X16000000Y79000000D01*
X19500000Y81400000D02*
X18400000Y81400000D01*
%TO.N,Net-(J1-Pin_1)*%
D29*
X10500000Y86000000D02*
X6000000Y86000000D01*
X6000000Y86000000D02*
X3500000Y86000000D01*
D30*
X6000000Y80300000D02*
X6000000Y86000000D01*
D29*
X10500000Y91000000D02*
X3500000Y91000000D01*
X3500000Y86000000D02*
X3500000Y91000000D01*
X10500000Y86000000D02*
X10500000Y91000000D01*
%TO.N,/SOURCE2*%
D26*
X122350000Y17900000D02*
X122600000Y17650000D01*
D29*
X3000000Y48000000D02*
X8000000Y48000000D01*
D26*
X119400000Y17900000D02*
X122350000Y17900000D01*
X123350000Y12000000D02*
X123350000Y16900000D01*
D31*
X8000000Y51300000D02*
X6000000Y53300000D01*
X8000000Y48000000D02*
X8000000Y51300000D01*
D26*
X123350000Y16900000D02*
X122600000Y17650000D01*
X119400000Y16000000D02*
X119400000Y17900000D01*
%TO.N,Net-(Q2-G)*%
X54500000Y90450000D02*
X54550000Y90500000D01*
X54500000Y86650000D02*
X54500000Y90450000D01*
%TO.N,/VDD*%
D28*
X111500000Y78500000D02*
X111500000Y76000000D01*
D29*
X21500000Y91500000D02*
X21500000Y86500000D01*
D28*
X122600000Y78350000D02*
X111650000Y78350000D01*
X111650000Y78350000D02*
X111500000Y78500000D01*
X111500000Y78500000D02*
X111500000Y81000000D01*
D26*
X127600000Y79050000D02*
X123300000Y79050000D01*
X123300000Y79050000D02*
X122600000Y78350000D01*
%TO.N,Net-(Q2-S)*%
D30*
X65500000Y86200000D02*
X65500000Y90450000D01*
X65500000Y90450000D02*
X65450000Y90500000D01*
%TO.N,/GATE1*%
D26*
X78500000Y80550000D02*
X102500000Y80550000D01*
X54500000Y80550000D02*
X78500000Y80550000D01*
X30500000Y73050000D02*
X26000000Y73050000D01*
X30500000Y73050000D02*
X30500000Y80550000D01*
X30500000Y80550000D02*
X54500000Y80550000D01*
%TO.N,Net-(Q1-G)*%
X30500000Y90450000D02*
X30550000Y90500000D01*
X30500000Y86650000D02*
X30500000Y90450000D01*
%TO.N,/SOURCE1*%
X28650000Y61350000D02*
X26010000Y63990000D01*
X115700000Y31700000D02*
X114425000Y30425000D01*
X65500000Y59200000D02*
X61900000Y59200000D01*
X106400000Y22400000D02*
X106400000Y22300000D01*
X122600000Y73650000D02*
X122600000Y68750000D01*
D31*
X30550000Y59200000D02*
X30500000Y59150000D01*
D26*
X113500000Y59200000D02*
X115700000Y57000000D01*
D31*
X26010000Y66940000D02*
X26000000Y66950000D01*
D26*
X116000000Y54500000D02*
X122000000Y54500000D01*
X30500000Y61350000D02*
X28650000Y61350000D01*
X113500000Y59200000D02*
X122800000Y68500000D01*
X61900000Y59200000D02*
X61900000Y40600000D01*
X123300000Y23050000D02*
X122600000Y22350000D01*
X30500000Y59150000D02*
X30500000Y61350000D01*
X115700000Y54200000D02*
X115700000Y31700000D01*
X89500000Y59200000D02*
X89500000Y23900000D01*
X114525000Y30425000D02*
X114425000Y30425000D01*
X127600000Y23050000D02*
X123300000Y23050000D01*
X115700000Y54200000D02*
X116000000Y54500000D01*
X122600000Y68750000D02*
X122850000Y68500000D01*
X41500000Y59200000D02*
X41500000Y23600000D01*
X41500000Y59200000D02*
X30550000Y59200000D01*
D31*
X30480000Y59150000D02*
X30500000Y59150000D01*
D26*
X122850000Y68500000D02*
X123350000Y68000000D01*
X65600000Y36900000D02*
X65600000Y23800000D01*
X114425000Y30425000D02*
X106400000Y22400000D01*
X122600000Y22350000D02*
X114525000Y30425000D01*
X26010000Y63990000D02*
X26010000Y66940000D01*
X61900000Y40600000D02*
X65600000Y36900000D01*
X115700000Y57000000D02*
X115700000Y54200000D01*
X122800000Y68500000D02*
X122850000Y68500000D01*
%TO.N,Net-(Q4-G)*%
X102500000Y90450000D02*
X102550000Y90500000D01*
X102500000Y86650000D02*
X102500000Y90450000D01*
%TO.N,/GATE2*%
D27*
X65500000Y13450000D02*
X41500000Y13450000D01*
X113500000Y13450000D02*
X89500000Y13450000D01*
X89500000Y13450000D02*
X65500000Y13450000D01*
%TO.N,Net-(Q7-G)*%
D26*
X89500000Y3550000D02*
X89450000Y3500000D01*
X89590000Y3640000D02*
X89450000Y3500000D01*
X89500000Y7350000D02*
X89500000Y3550000D01*
%TO.N,Net-(Q5-G)*%
X41500000Y7350000D02*
X41500000Y3550000D01*
X41500000Y3550000D02*
X41450000Y3500000D01*
%TO.N,Net-(C5-Pad1)*%
X127600000Y16950000D02*
X127600000Y12950000D01*
X127600000Y12950000D02*
X126650000Y12000000D01*
%TO.N,Net-(Q1-S)*%
D30*
X41500000Y86200000D02*
X41500000Y90450000D01*
X41500000Y90450000D02*
X41450000Y90500000D01*
%TO.N,Net-(Q8-S)*%
X102500000Y3550000D02*
X102550000Y3500000D01*
X102500000Y7930000D02*
X102500000Y3550000D01*
%TO.N,Net-(Q6-G)*%
D26*
X65500000Y7350000D02*
X65500000Y3550000D01*
X65500000Y3550000D02*
X65450000Y3500000D01*
%TO.N,Net-(Q6-S)*%
D29*
X54500000Y7800000D02*
X54500000Y3550000D01*
X54500000Y3550000D02*
X54550000Y3500000D01*
%TO.N,Net-(Q4-S)*%
D30*
X113500000Y86200000D02*
X113500000Y90450000D01*
X113500000Y90450000D02*
X113450000Y90500000D01*
%TO.N,Net-(Q8-G)*%
D26*
X113500000Y7350000D02*
X113500000Y3550000D01*
X113500000Y3550000D02*
X113450000Y3500000D01*
%TO.N,Net-(Q5-S)*%
D30*
X30500000Y7800000D02*
X30500000Y3550000D01*
X30500000Y3550000D02*
X30550000Y3500000D01*
%TO.N,Net-(C2-Pad1)*%
D26*
X127600000Y72950000D02*
X127600000Y68950000D01*
X127600000Y68950000D02*
X126650000Y68000000D01*
%TO.N,Net-(Q3-S)*%
D30*
X89500000Y86200000D02*
X89500000Y90450000D01*
X89500000Y90450000D02*
X89450000Y90500000D01*
%TO.N,Net-(C3-Pad2)*%
D26*
X30500000Y64650000D02*
X30500000Y66950000D01*
%TO.N,Net-(Q7-S)*%
D30*
X78500000Y3550000D02*
X78550000Y3500000D01*
X78500000Y8000000D02*
X78500000Y3550000D01*
%TO.N,Net-(Q3-G)*%
D26*
X78500000Y86650000D02*
X78500000Y90450000D01*
X78500000Y90450000D02*
X78550000Y90500000D01*
%TO.N,Net-(J5-Pin_1)*%
D29*
X122000000Y39500000D02*
X127000000Y39500000D01*
%TD*%
%TA.AperFunction,Conductor*%
%TO.N,/SOURCE1*%
G36*
X123815677Y74880315D02*
G01*
X123836319Y74863681D01*
X124163681Y74536319D01*
X124197166Y74474996D01*
X124200000Y74448638D01*
X124200000Y60099999D01*
X126199999Y58100000D01*
X126200000Y58100000D01*
X128748638Y58100000D01*
X128815677Y58080315D01*
X128836319Y58063681D01*
X129463181Y57436819D01*
X129496666Y57375496D01*
X129499500Y57349138D01*
X129499500Y51450862D01*
X129479815Y51383823D01*
X129463181Y51363181D01*
X128836319Y50736319D01*
X128774996Y50702834D01*
X128748638Y50700000D01*
X120100000Y50700000D01*
X120099999Y50699999D01*
X117500000Y48100000D01*
X117500000Y30499999D01*
X120399999Y27600000D01*
X120400000Y27600000D01*
X128248638Y27600000D01*
X128315677Y27580315D01*
X128336319Y27563681D01*
X129463181Y26436819D01*
X129496666Y26375496D01*
X129499500Y26349138D01*
X129499500Y22500862D01*
X129479815Y22433823D01*
X129463181Y22413181D01*
X128186319Y21136319D01*
X128124996Y21102834D01*
X128098638Y21100000D01*
X121401362Y21100000D01*
X121334323Y21119685D01*
X121313681Y21136319D01*
X119950000Y22500000D01*
X119949999Y22500000D01*
X114000001Y22500000D01*
X114000000Y22500000D01*
X113999999Y22499999D01*
X110800000Y19300000D01*
X110800000Y17751362D01*
X110780315Y17684323D01*
X110763681Y17663681D01*
X109936319Y16836319D01*
X109874996Y16802834D01*
X109848638Y16800000D01*
X106151362Y16800000D01*
X106084323Y16819685D01*
X106063681Y16836319D01*
X105148638Y17751362D01*
X103300000Y19600000D01*
X103299999Y19600000D01*
X38251362Y19600000D01*
X38184323Y19619685D01*
X38163681Y19636319D01*
X36836319Y20963681D01*
X36802834Y21025004D01*
X36800000Y21051362D01*
X36800000Y22600000D01*
X38600000Y20800000D01*
X46800000Y20800000D01*
X48700000Y22700000D01*
X48700000Y27500000D01*
X47800000Y28400000D01*
X59800000Y28400000D01*
X59300000Y27900000D01*
X59300000Y23200000D01*
X61800000Y20700000D01*
X69600000Y20700000D01*
X71800000Y22900000D01*
X71800000Y27350000D01*
X70750000Y28400000D01*
X84050000Y28400000D01*
X82800000Y27150000D01*
X82800000Y23100000D01*
X84600000Y21300000D01*
X94600000Y21300000D01*
X97100000Y23800000D01*
X97100000Y26850000D01*
X95550000Y28400000D01*
X110000000Y28400000D01*
X112200000Y30600000D01*
X112200000Y53000000D01*
X110105797Y55094203D01*
X119800000Y55094203D01*
X119800000Y54750000D01*
X121162683Y54750000D01*
X121130000Y54585688D01*
X121130000Y54414312D01*
X121162683Y54250000D01*
X119800000Y54250000D01*
X119800000Y53905796D01*
X119837643Y53619881D01*
X119912283Y53341317D01*
X120022644Y53074883D01*
X120022648Y53074873D01*
X120166841Y52825123D01*
X120342402Y52596328D01*
X120342408Y52596321D01*
X120546321Y52392408D01*
X120546328Y52392402D01*
X120775123Y52216841D01*
X121024873Y52072648D01*
X121024883Y52072644D01*
X121291317Y51962283D01*
X121569881Y51887643D01*
X121749999Y51863928D01*
X121750000Y51863928D01*
X121750000Y53662683D01*
X121914312Y53630000D01*
X122085688Y53630000D01*
X122250000Y53662683D01*
X122250000Y51863928D01*
X122430118Y51887643D01*
X122708682Y51962283D01*
X122975116Y52072644D01*
X122975126Y52072648D01*
X123224876Y52216841D01*
X123453671Y52392402D01*
X123453678Y52392408D01*
X123657591Y52596321D01*
X123657597Y52596328D01*
X123833158Y52825123D01*
X123977351Y53074873D01*
X123977355Y53074883D01*
X124087716Y53341317D01*
X124162356Y53619881D01*
X124199999Y53905796D01*
X124200000Y53905810D01*
X124200000Y54250000D01*
X122837317Y54250000D01*
X122870000Y54414312D01*
X122870000Y54585688D01*
X122837317Y54750000D01*
X124200000Y54750000D01*
X124200000Y55094189D01*
X124199999Y55094203D01*
X124800000Y55094203D01*
X124800000Y54750000D01*
X126162683Y54750000D01*
X126130000Y54585688D01*
X126130000Y54414312D01*
X126162683Y54250000D01*
X124800000Y54250000D01*
X124800000Y53905796D01*
X124837643Y53619881D01*
X124912283Y53341317D01*
X125022644Y53074883D01*
X125022648Y53074873D01*
X125166841Y52825123D01*
X125342402Y52596328D01*
X125342408Y52596321D01*
X125546321Y52392408D01*
X125546328Y52392402D01*
X125775123Y52216841D01*
X126024873Y52072648D01*
X126024883Y52072644D01*
X126291317Y51962283D01*
X126569881Y51887643D01*
X126749999Y51863928D01*
X126750000Y51863928D01*
X126750000Y53662683D01*
X126914312Y53630000D01*
X127085688Y53630000D01*
X127250000Y53662683D01*
X127250000Y51863928D01*
X127430118Y51887643D01*
X127708682Y51962283D01*
X127975116Y52072644D01*
X127975126Y52072648D01*
X128224876Y52216841D01*
X128453671Y52392402D01*
X128453678Y52392408D01*
X128657591Y52596321D01*
X128657597Y52596328D01*
X128833158Y52825123D01*
X128977351Y53074873D01*
X128977355Y53074883D01*
X129087716Y53341317D01*
X129162356Y53619881D01*
X129199999Y53905796D01*
X129200000Y53905810D01*
X129200000Y54250000D01*
X127837317Y54250000D01*
X127870000Y54414312D01*
X127870000Y54585688D01*
X127837317Y54750000D01*
X129200000Y54750000D01*
X129200000Y55094189D01*
X129199999Y55094203D01*
X129162356Y55380118D01*
X129087716Y55658682D01*
X128977355Y55925116D01*
X128977351Y55925126D01*
X128833158Y56174876D01*
X128657597Y56403671D01*
X128657591Y56403678D01*
X128453678Y56607591D01*
X128453671Y56607597D01*
X128224876Y56783158D01*
X127975126Y56927351D01*
X127975116Y56927355D01*
X127708682Y57037716D01*
X127430118Y57112357D01*
X127250000Y57136069D01*
X127250000Y55337316D01*
X127085688Y55370000D01*
X126914312Y55370000D01*
X126750000Y55337316D01*
X126750000Y57136070D01*
X126569881Y57112357D01*
X126291317Y57037716D01*
X126024883Y56927355D01*
X126024873Y56927351D01*
X125775123Y56783158D01*
X125546328Y56607597D01*
X125546321Y56607591D01*
X125342408Y56403678D01*
X125342402Y56403671D01*
X125166841Y56174876D01*
X125022648Y55925126D01*
X125022644Y55925116D01*
X124912283Y55658682D01*
X124837643Y55380118D01*
X124800000Y55094203D01*
X124199999Y55094203D01*
X124162356Y55380118D01*
X124087716Y55658682D01*
X123977355Y55925116D01*
X123977351Y55925126D01*
X123833158Y56174876D01*
X123657597Y56403671D01*
X123657591Y56403678D01*
X123453678Y56607591D01*
X123453671Y56607597D01*
X123224876Y56783158D01*
X122975126Y56927351D01*
X122975116Y56927355D01*
X122708682Y57037716D01*
X122430118Y57112357D01*
X122250000Y57136069D01*
X122250000Y55337316D01*
X122085688Y55370000D01*
X121914312Y55370000D01*
X121750000Y55337316D01*
X121750000Y57136070D01*
X121569881Y57112357D01*
X121291317Y57037716D01*
X121024883Y56927355D01*
X121024873Y56927351D01*
X120775123Y56783158D01*
X120546328Y56607597D01*
X120546321Y56607591D01*
X120342408Y56403678D01*
X120342402Y56403671D01*
X120166841Y56174876D01*
X120022648Y55925126D01*
X120022644Y55925116D01*
X119912283Y55658682D01*
X119837643Y55380118D01*
X119800000Y55094203D01*
X110105797Y55094203D01*
X110100000Y55100000D01*
X110099999Y55100000D01*
X95900001Y55100000D01*
X95900000Y55100000D01*
X96300000Y55500000D01*
X96300000Y57400000D01*
X95100000Y58600000D01*
X91145658Y58600000D01*
X91160681Y58636269D01*
X91220057Y58857862D01*
X91249998Y59085289D01*
X91250000Y59085305D01*
X91250000Y59314694D01*
X111750000Y59314694D01*
X111750000Y59085305D01*
X111750001Y59085289D01*
X111779942Y58857862D01*
X111839318Y58636269D01*
X111927102Y58424340D01*
X111927106Y58424330D01*
X112041801Y58225673D01*
X112041810Y58225659D01*
X112098380Y58151934D01*
X112976212Y59029765D01*
X112987482Y58987708D01*
X113059890Y58862292D01*
X113162292Y58759890D01*
X113287708Y58687482D01*
X113329766Y58676212D01*
X112451934Y57798380D01*
X112525659Y57741810D01*
X112525673Y57741801D01*
X112724330Y57627106D01*
X112724340Y57627102D01*
X112936269Y57539318D01*
X113157862Y57479942D01*
X113385289Y57450001D01*
X113385306Y57450000D01*
X113614694Y57450000D01*
X113614710Y57450001D01*
X113842137Y57479942D01*
X114063730Y57539318D01*
X114275659Y57627102D01*
X114275669Y57627106D01*
X114474324Y57741799D01*
X114474331Y57741805D01*
X114548064Y57798380D01*
X114548064Y57798381D01*
X113670233Y58676212D01*
X113712292Y58687482D01*
X113837708Y58759890D01*
X113940110Y58862292D01*
X114012518Y58987708D01*
X114023787Y59029764D01*
X114901617Y58151934D01*
X114901618Y58151934D01*
X114958194Y58225666D01*
X115072893Y58424330D01*
X115072897Y58424340D01*
X115160681Y58636269D01*
X115220057Y58857862D01*
X115249998Y59085289D01*
X115250000Y59085305D01*
X115250000Y59314694D01*
X115249998Y59314710D01*
X115220057Y59542137D01*
X115160681Y59763730D01*
X115072897Y59975659D01*
X115072893Y59975668D01*
X114958197Y60174327D01*
X114958192Y60174334D01*
X114901617Y60248064D01*
X114023787Y59370234D01*
X114012518Y59412292D01*
X113940110Y59537708D01*
X113837708Y59640110D01*
X113712292Y59712518D01*
X113670234Y59723787D01*
X114548064Y60601617D01*
X114474334Y60658192D01*
X114474327Y60658197D01*
X114275668Y60772893D01*
X114275659Y60772897D01*
X114063730Y60860681D01*
X113842137Y60920057D01*
X113614710Y60949998D01*
X113614694Y60950000D01*
X113385306Y60950000D01*
X113385289Y60949998D01*
X113157862Y60920057D01*
X112936269Y60860681D01*
X112724340Y60772897D01*
X112724330Y60772893D01*
X112525666Y60658194D01*
X112451934Y60601618D01*
X112451934Y60601617D01*
X113329765Y59723787D01*
X113287708Y59712518D01*
X113162292Y59640110D01*
X113059890Y59537708D01*
X112987482Y59412292D01*
X112976212Y59370233D01*
X112098381Y60248064D01*
X112098380Y60248064D01*
X112041805Y60174331D01*
X112041799Y60174324D01*
X111927106Y59975669D01*
X111927102Y59975659D01*
X111839318Y59763730D01*
X111779942Y59542137D01*
X111750001Y59314710D01*
X111750000Y59314694D01*
X91250000Y59314694D01*
X91249998Y59314710D01*
X91220057Y59542137D01*
X91160681Y59763730D01*
X91072897Y59975659D01*
X91072893Y59975668D01*
X90958197Y60174327D01*
X90958192Y60174334D01*
X90901617Y60248064D01*
X90023787Y59370234D01*
X90012518Y59412292D01*
X89940110Y59537708D01*
X89837708Y59640110D01*
X89712292Y59712518D01*
X89670234Y59723787D01*
X90548064Y60601617D01*
X90474334Y60658192D01*
X90474327Y60658197D01*
X90275668Y60772893D01*
X90275659Y60772897D01*
X90063730Y60860681D01*
X89842137Y60920057D01*
X89614710Y60949998D01*
X89614694Y60950000D01*
X89385306Y60950000D01*
X89385289Y60949998D01*
X89157862Y60920057D01*
X88936269Y60860681D01*
X88724340Y60772897D01*
X88724330Y60772893D01*
X88525666Y60658194D01*
X88451934Y60601618D01*
X88451934Y60601617D01*
X89329765Y59723787D01*
X89287708Y59712518D01*
X89162292Y59640110D01*
X89059890Y59537708D01*
X88987482Y59412292D01*
X88976212Y59370233D01*
X88098381Y60248064D01*
X88098380Y60248064D01*
X88041805Y60174331D01*
X88041799Y60174324D01*
X87927106Y59975669D01*
X87927102Y59975659D01*
X87839318Y59763730D01*
X87779942Y59542137D01*
X87750001Y59314710D01*
X87750000Y59314694D01*
X87750000Y59085305D01*
X87750001Y59085289D01*
X87779942Y58857862D01*
X87839318Y58636269D01*
X87854341Y58600000D01*
X67145658Y58600000D01*
X67160681Y58636269D01*
X67220057Y58857862D01*
X67249998Y59085289D01*
X67250000Y59085305D01*
X67250000Y59314694D01*
X67249998Y59314710D01*
X67220057Y59542137D01*
X67160681Y59763730D01*
X67072897Y59975659D01*
X67072893Y59975668D01*
X66958197Y60174327D01*
X66958192Y60174334D01*
X66901617Y60248064D01*
X66023787Y59370234D01*
X66012518Y59412292D01*
X65940110Y59537708D01*
X65837708Y59640110D01*
X65712292Y59712518D01*
X65670234Y59723787D01*
X66548064Y60601617D01*
X66474334Y60658192D01*
X66474327Y60658197D01*
X66275668Y60772893D01*
X66275659Y60772897D01*
X66063730Y60860681D01*
X65842137Y60920057D01*
X65614710Y60949998D01*
X65614694Y60950000D01*
X65385306Y60950000D01*
X65385289Y60949998D01*
X65157862Y60920057D01*
X64936269Y60860681D01*
X64724340Y60772897D01*
X64724330Y60772893D01*
X64525666Y60658194D01*
X64451934Y60601618D01*
X64451934Y60601617D01*
X65329765Y59723787D01*
X65287708Y59712518D01*
X65162292Y59640110D01*
X65059890Y59537708D01*
X64987482Y59412292D01*
X64976212Y59370233D01*
X64098381Y60248064D01*
X64098380Y60248064D01*
X64041805Y60174331D01*
X64041799Y60174324D01*
X63927106Y59975669D01*
X63927102Y59975659D01*
X63839318Y59763730D01*
X63779942Y59542137D01*
X63750001Y59314710D01*
X63750000Y59314694D01*
X63750000Y59085305D01*
X63750001Y59085289D01*
X63779942Y58857862D01*
X63839318Y58636269D01*
X63854341Y58600000D01*
X43145658Y58600000D01*
X43160681Y58636269D01*
X43220057Y58857862D01*
X43249998Y59085289D01*
X43250000Y59085305D01*
X43250000Y59314694D01*
X43249998Y59314710D01*
X43220057Y59542137D01*
X43160681Y59763730D01*
X43072897Y59975659D01*
X43072893Y59975668D01*
X42958197Y60174327D01*
X42958192Y60174334D01*
X42901617Y60248064D01*
X42023787Y59370234D01*
X42012518Y59412292D01*
X41940110Y59537708D01*
X41837708Y59640110D01*
X41712292Y59712518D01*
X41670234Y59723787D01*
X42548064Y60601617D01*
X42474334Y60658192D01*
X42474327Y60658197D01*
X42275668Y60772893D01*
X42275659Y60772897D01*
X42063730Y60860681D01*
X41842137Y60920057D01*
X41614710Y60949998D01*
X41614694Y60950000D01*
X41385306Y60950000D01*
X41385289Y60949998D01*
X41157862Y60920057D01*
X40936269Y60860681D01*
X40724340Y60772897D01*
X40724330Y60772893D01*
X40525666Y60658194D01*
X40451934Y60601618D01*
X40451934Y60601617D01*
X41329765Y59723787D01*
X41287708Y59712518D01*
X41162292Y59640110D01*
X41059890Y59537708D01*
X40987482Y59412292D01*
X40976212Y59370233D01*
X40098381Y60248064D01*
X40098380Y60248064D01*
X40041805Y60174331D01*
X40041799Y60174324D01*
X39927106Y59975669D01*
X39927102Y59975659D01*
X39839318Y59763730D01*
X39779942Y59542137D01*
X39750001Y59314710D01*
X39750000Y59314694D01*
X39750000Y59085305D01*
X39750001Y59085289D01*
X39779942Y58857862D01*
X39839318Y58636269D01*
X39927102Y58424340D01*
X39927106Y58424330D01*
X40041801Y58225673D01*
X40041810Y58225659D01*
X40098380Y58151934D01*
X40976212Y59029765D01*
X40987482Y58987708D01*
X41059890Y58862292D01*
X41162292Y58759890D01*
X41287708Y58687482D01*
X41329766Y58676212D01*
X40451934Y57798380D01*
X40478214Y57778214D01*
X37900000Y55200000D01*
X37900000Y55100000D01*
X36536319Y56463681D01*
X36502834Y56525004D01*
X36500000Y56551362D01*
X36500000Y61948638D01*
X36519685Y62015677D01*
X36536319Y62036319D01*
X37963681Y63463681D01*
X38025004Y63497166D01*
X38051362Y63500000D01*
X115300000Y63500000D01*
X118700000Y66900000D01*
X118700000Y73948638D01*
X118719685Y74015677D01*
X118736319Y74036319D01*
X119563681Y74863681D01*
X119625004Y74897166D01*
X119651362Y74900000D01*
X123748638Y74900000D01*
X123815677Y74880315D01*
G37*
%TD.AperFunction*%
%TA.AperFunction,Conductor*%
G36*
X54700000Y55100000D02*
G01*
X54699999Y55100000D01*
X47900001Y55100000D01*
X47900000Y55100000D01*
X48600000Y55800000D01*
X54000000Y55800000D01*
X54700000Y55100000D01*
G37*
%TD.AperFunction*%
%TA.AperFunction,Conductor*%
G36*
X83700000Y55100000D02*
G01*
X83699999Y55100000D01*
X65050001Y55100000D01*
X65050000Y55100000D01*
X65750000Y55800000D01*
X83000000Y55800000D01*
X83700000Y55100000D01*
G37*
%TD.AperFunction*%
%TA.AperFunction,Conductor*%
G36*
X42453551Y58600000D02*
G01*
X41746445Y58600000D01*
X41670233Y58676212D01*
X41712292Y58687482D01*
X41837708Y58759890D01*
X41940110Y58862292D01*
X42012518Y58987708D01*
X42023787Y59029764D01*
X42453551Y58600000D01*
G37*
%TD.AperFunction*%
%TA.AperFunction,Conductor*%
G36*
X64987482Y58987708D02*
G01*
X65059890Y58862292D01*
X65162292Y58759890D01*
X65287708Y58687482D01*
X65329766Y58676212D01*
X65253554Y58600000D01*
X64546447Y58600000D01*
X64976212Y59029765D01*
X64987482Y58987708D01*
G37*
%TD.AperFunction*%
%TA.AperFunction,Conductor*%
G36*
X66453551Y58600000D02*
G01*
X65746445Y58600000D01*
X65670233Y58676212D01*
X65712292Y58687482D01*
X65837708Y58759890D01*
X65940110Y58862292D01*
X66012518Y58987708D01*
X66023787Y59029764D01*
X66453551Y58600000D01*
G37*
%TD.AperFunction*%
%TA.AperFunction,Conductor*%
G36*
X88987482Y58987708D02*
G01*
X89059890Y58862292D01*
X89162292Y58759890D01*
X89287708Y58687482D01*
X89329766Y58676212D01*
X89253554Y58600000D01*
X88546447Y58600000D01*
X88976212Y59029765D01*
X88987482Y58987708D01*
G37*
%TD.AperFunction*%
%TA.AperFunction,Conductor*%
G36*
X90453551Y58600000D02*
G01*
X89746445Y58600000D01*
X89670233Y58676212D01*
X89712292Y58687482D01*
X89837708Y58759890D01*
X89940110Y58862292D01*
X90012518Y58987708D01*
X90023787Y59029764D01*
X90453551Y58600000D01*
G37*
%TD.AperFunction*%
%TD*%
%TA.AperFunction,Conductor*%
%TO.N,/SOURCE1*%
G36*
X42901617Y58151934D02*
G01*
X42901618Y58151934D01*
X42958194Y58225666D01*
X43072893Y58424330D01*
X43072897Y58424340D01*
X43145658Y58600000D01*
X63854341Y58600000D01*
X63927102Y58424340D01*
X63927106Y58424330D01*
X64041801Y58225673D01*
X64041810Y58225659D01*
X64098380Y58151934D01*
X64098381Y58151934D01*
X64546447Y58600000D01*
X65253554Y58600000D01*
X64451934Y57798380D01*
X64525659Y57741810D01*
X64525673Y57741801D01*
X64724330Y57627106D01*
X64724340Y57627102D01*
X64936269Y57539318D01*
X65157862Y57479942D01*
X65385289Y57450001D01*
X65385306Y57450000D01*
X65614694Y57450000D01*
X65614710Y57450001D01*
X65842137Y57479942D01*
X66063730Y57539318D01*
X66275659Y57627102D01*
X66275669Y57627106D01*
X66474324Y57741799D01*
X66474331Y57741805D01*
X66548064Y57798380D01*
X66548064Y57798381D01*
X65746446Y58600000D01*
X66453551Y58600000D01*
X66901617Y58151934D01*
X66901618Y58151934D01*
X66958194Y58225666D01*
X67072893Y58424330D01*
X67072897Y58424340D01*
X67145658Y58600000D01*
X87854341Y58600000D01*
X87927102Y58424340D01*
X87927106Y58424330D01*
X88041801Y58225673D01*
X88041810Y58225659D01*
X88098380Y58151934D01*
X88098381Y58151934D01*
X88546447Y58600000D01*
X89253554Y58600000D01*
X88451934Y57798380D01*
X88525659Y57741810D01*
X88525673Y57741801D01*
X88724330Y57627106D01*
X88724340Y57627102D01*
X88936269Y57539318D01*
X89157862Y57479942D01*
X89385289Y57450001D01*
X89385306Y57450000D01*
X89614694Y57450000D01*
X89614710Y57450001D01*
X89842137Y57479942D01*
X90063730Y57539318D01*
X90275659Y57627102D01*
X90275669Y57627106D01*
X90474324Y57741799D01*
X90474331Y57741805D01*
X90548064Y57798380D01*
X90548064Y57798381D01*
X89746446Y58600000D01*
X90453551Y58600000D01*
X90901617Y58151934D01*
X90901618Y58151934D01*
X90958194Y58225666D01*
X91072893Y58424330D01*
X91072897Y58424340D01*
X91145658Y58600000D01*
X95100000Y58600000D01*
X96300000Y57400000D01*
X96300000Y55500000D01*
X95899999Y55099999D01*
X93800000Y53000000D01*
X93800000Y30149999D01*
X95549999Y28400000D01*
X95550000Y28400000D01*
X97100000Y26850000D01*
X97100000Y23800000D01*
X94600000Y21300000D01*
X84600000Y21300000D01*
X82800000Y23100000D01*
X82800000Y27150000D01*
X85800000Y30150000D01*
X85800000Y53000000D01*
X83000000Y55800000D01*
X65750000Y55800000D01*
X65050000Y55100000D01*
X65049999Y55099999D01*
X63000000Y53050000D01*
X63000000Y42999999D01*
X68599999Y37400000D01*
X68600000Y37400000D01*
X68648638Y37400000D01*
X68678078Y37391355D01*
X68708065Y37384832D01*
X68713080Y37381077D01*
X68715677Y37380315D01*
X68736319Y37363681D01*
X68863681Y37236319D01*
X68897166Y37174996D01*
X68900000Y37148638D01*
X68900000Y30249999D01*
X70749999Y28400000D01*
X70750000Y28400000D01*
X71800000Y27350000D01*
X71800000Y22900000D01*
X69600000Y20700000D01*
X61800000Y20700000D01*
X59300000Y23200000D01*
X59300000Y27900000D01*
X61700000Y30300000D01*
X61700000Y34900000D01*
X56736319Y39863681D01*
X56702834Y39925004D01*
X56700000Y39951362D01*
X56700000Y53099999D01*
X56700000Y53100000D01*
X54000000Y55800000D01*
X48600000Y55800000D01*
X47899999Y55099999D01*
X45900000Y53100000D01*
X45900000Y30299999D01*
X47799999Y28400000D01*
X47800000Y28400000D01*
X48700000Y27500000D01*
X48700000Y22700000D01*
X46800000Y20800000D01*
X38600000Y20800000D01*
X36800000Y22600000D01*
X36800000Y27948638D01*
X36819685Y28015677D01*
X36836319Y28036319D01*
X37900000Y29100000D01*
X37900000Y55100000D01*
X37900000Y55200000D01*
X40478215Y57778215D01*
X40525661Y57741809D01*
X40724331Y57627106D01*
X40724340Y57627102D01*
X40936269Y57539318D01*
X41157862Y57479942D01*
X41385289Y57450001D01*
X41385306Y57450000D01*
X41614694Y57450000D01*
X41614710Y57450001D01*
X41842137Y57479942D01*
X42063730Y57539318D01*
X42275659Y57627102D01*
X42275669Y57627106D01*
X42474324Y57741799D01*
X42474331Y57741805D01*
X42548064Y57798380D01*
X42548064Y57798381D01*
X41746446Y58600000D01*
X42453551Y58600000D01*
X42901617Y58151934D01*
G37*
%TD.AperFunction*%
%TD*%
%TA.AperFunction,Conductor*%
%TO.N,/SOURCE2*%
G36*
X123815677Y19080315D02*
G01*
X123836319Y19063681D01*
X124263681Y18636319D01*
X124297166Y18574996D01*
X124300000Y18548638D01*
X124300000Y13451362D01*
X124280315Y13384323D01*
X124263681Y13363681D01*
X124100000Y13200000D01*
X124100000Y10851362D01*
X124091355Y10821921D01*
X124084832Y10791935D01*
X124081077Y10786919D01*
X124080315Y10784323D01*
X124063681Y10763681D01*
X123936319Y10636319D01*
X123874996Y10602834D01*
X123848638Y10600000D01*
X122151362Y10600000D01*
X122084323Y10619685D01*
X122063681Y10636319D01*
X121936319Y10763681D01*
X121902834Y10825004D01*
X121900000Y10851362D01*
X121900000Y13799999D01*
X121900000Y13800000D01*
X120700000Y15000000D01*
X120699999Y15000000D01*
X119051362Y15000000D01*
X118984323Y15019685D01*
X118963681Y15036319D01*
X118436319Y15563681D01*
X118402834Y15625004D01*
X118400000Y15651362D01*
X118400000Y18448638D01*
X118419685Y18515677D01*
X118436319Y18536319D01*
X118963681Y19063681D01*
X119025004Y19097166D01*
X119051362Y19100000D01*
X123748638Y19100000D01*
X123815677Y19080315D01*
G37*
%TD.AperFunction*%
%TD*%
%TA.AperFunction,Conductor*%
%TO.N,/SOURCE2*%
G36*
X30615677Y32280315D02*
G01*
X30636319Y32263681D01*
X31063681Y31836319D01*
X31097166Y31774996D01*
X31100000Y31748638D01*
X31100000Y26851362D01*
X31080315Y26784323D01*
X31063681Y26763681D01*
X20836319Y16536319D01*
X20774996Y16502834D01*
X20748638Y16500000D01*
X19174010Y16500000D01*
X19106971Y16519685D01*
X19061216Y16572489D01*
X19058352Y16588093D01*
X18170233Y17476212D01*
X18212292Y17487482D01*
X18337708Y17559890D01*
X18440110Y17662292D01*
X18512518Y17787708D01*
X18523787Y17829764D01*
X19401617Y16951934D01*
X19401618Y16951934D01*
X19458194Y17025666D01*
X19572893Y17224330D01*
X19572897Y17224340D01*
X19660681Y17436269D01*
X19720057Y17657862D01*
X19749998Y17885289D01*
X19750000Y17885305D01*
X19750000Y18114694D01*
X19749998Y18114710D01*
X19720057Y18342137D01*
X19660681Y18563730D01*
X19572897Y18775659D01*
X19572893Y18775668D01*
X19458197Y18974327D01*
X19458192Y18974334D01*
X19401617Y19048064D01*
X18523787Y18170234D01*
X18512518Y18212292D01*
X18440110Y18337708D01*
X18337708Y18440110D01*
X18212292Y18512518D01*
X18170234Y18523787D01*
X19048064Y19401617D01*
X18974334Y19458192D01*
X18974327Y19458197D01*
X18775668Y19572893D01*
X18775659Y19572897D01*
X18561902Y19661439D01*
X18507499Y19705280D01*
X18485434Y19771574D01*
X18502713Y19839273D01*
X18553850Y19886884D01*
X18609355Y19900000D01*
X19700000Y19900000D01*
X27200000Y27400000D01*
X27200000Y31648638D01*
X27219685Y31715677D01*
X27236319Y31736319D01*
X27763681Y32263681D01*
X27825004Y32297166D01*
X27851362Y32300000D01*
X30548638Y32300000D01*
X30615677Y32280315D01*
G37*
%TD.AperFunction*%
%TA.AperFunction,Conductor*%
G36*
X17457684Y19880315D02*
G01*
X17503439Y19827511D01*
X17513383Y19758353D01*
X17484358Y19694797D01*
X17438098Y19661439D01*
X17224340Y19572897D01*
X17224330Y19572893D01*
X17025666Y19458194D01*
X16951934Y19401618D01*
X16951934Y19401617D01*
X17829765Y18523787D01*
X17787708Y18512518D01*
X17662292Y18440110D01*
X17559890Y18337708D01*
X17487482Y18212292D01*
X17476212Y18170233D01*
X16598381Y19048064D01*
X16598380Y19048064D01*
X16541805Y18974331D01*
X16541799Y18974324D01*
X16427106Y18775669D01*
X16427099Y18775654D01*
X16338561Y18561902D01*
X16294720Y18507498D01*
X16228426Y18485433D01*
X16160727Y18502712D01*
X16113116Y18553849D01*
X16100000Y18609354D01*
X16100000Y19148638D01*
X16119685Y19215677D01*
X16136319Y19236319D01*
X16763681Y19863681D01*
X16825004Y19897166D01*
X16851362Y19900000D01*
X17390645Y19900000D01*
X17457684Y19880315D01*
G37*
%TD.AperFunction*%
%TD*%
%TA.AperFunction,Conductor*%
%TO.N,/SOURCE1*%
G36*
X19039585Y42136944D02*
G01*
X20087137Y41089392D01*
X20090564Y41081119D01*
X20088898Y41075102D01*
X19145815Y39502337D01*
X19138622Y39497004D01*
X19130963Y39497691D01*
X17974906Y40020059D01*
X17969687Y40024711D01*
X17352707Y41056053D01*
X17351401Y41064911D01*
X17356446Y41071917D01*
X17361429Y41075102D01*
X19025010Y42138529D01*
X19033827Y42140098D01*
X19039585Y42136944D01*
G37*
%TD.AperFunction*%
%TD*%
%TA.AperFunction,Conductor*%
%TO.N,/SOURCE1*%
G36*
X16921240Y40603131D02*
G01*
X18000495Y40005058D01*
X18005058Y40000495D01*
X18603131Y38921240D01*
X18604143Y38912343D01*
X18599049Y38905617D01*
X16949939Y37886272D01*
X16941103Y37884838D01*
X16935519Y37887950D01*
X15887951Y38935518D01*
X15884525Y38943790D01*
X15886272Y38949939D01*
X16905617Y40599049D01*
X16912882Y40604284D01*
X16921240Y40603131D01*
G37*
%TD.AperFunction*%
%TD*%
M02*
