%TF.GenerationSoftware,KiCad,Pcbnew,10.0.1*%
%TF.CreationDate,2026-08-07T23:35:23+09:00*%
%TF.ProjectId,AMP_BD_V2,414d505f-4244-45f5-9632-2e6b69636164,rev?*%
%TF.SameCoordinates,Original*%
%TF.FileFunction,Copper,L2,Bot*%
%TF.FilePolarity,Positive*%
%FSLAX46Y46*%
G04 Gerber Fmt 4.6, Leading zero omitted, Abs format (unit mm)*
G04 Created by KiCad (PCBNEW 10.0.1) date 2026-08-07 23:35:23*
%MOMM*%
%LPD*%
G01*
G04 APERTURE LIST*
G04 Aperture macros list*
%AMRoundRect*
0 Rectangle with rounded corners*
0 $1 Rounding radius*
0 $2 $3 $4 $5 $6 $7 $8 $9 X,Y pos of 4 corners*
0 Add a 4 corners polygon primitive as box body*
4,1,4,$2,$3,$4,$5,$6,$7,$8,$9,$2,$3,0*
0 Add four circle primitives for the rounded corners*
1,1,$1+$1,$2,$3*
1,1,$1+$1,$4,$5*
1,1,$1+$1,$6,$7*
1,1,$1+$1,$8,$9*
0 Add four rect primitives between the rounded corners*
20,1,$1+$1,$2,$3,$4,$5,0*
20,1,$1+$1,$4,$5,$6,$7,0*
20,1,$1+$1,$6,$7,$8,$9,0*
20,1,$1+$1,$8,$9,$2,$3,0*%
G04 Aperture macros list end*
%TA.AperFunction,ComponentPad*%
%ADD10C,2.500000*%
%TD*%
%TA.AperFunction,ComponentPad*%
%ADD11C,3.600000*%
%TD*%
%TA.AperFunction,ComponentPad*%
%ADD12RoundRect,0.720000X-1.080000X-1.080000X1.080000X-1.080000X1.080000X1.080000X-1.080000X1.080000X0*%
%TD*%
%TA.AperFunction,ComponentPad*%
%ADD13O,4.300000X3.400000*%
%TD*%
%TA.AperFunction,ComponentPad*%
%ADD14RoundRect,0.720000X1.080000X1.080000X-1.080000X1.080000X-1.080000X-1.080000X1.080000X-1.080000X0*%
%TD*%
%TA.AperFunction,ComponentPad*%
%ADD15O,3.400000X4.300000*%
%TD*%
%TA.AperFunction,ComponentPad*%
%ADD16RoundRect,0.216000X-0.684000X0.684000X-0.684000X-0.684000X0.684000X-0.684000X0.684000X0.684000X0*%
%TD*%
%TA.AperFunction,ComponentPad*%
%ADD17C,1.800000*%
%TD*%
%TA.AperFunction,ComponentPad*%
%ADD18C,2.800000*%
%TD*%
%TA.AperFunction,ViaPad*%
%ADD19C,1.800000*%
%TD*%
%TA.AperFunction,Conductor*%
%ADD20C,2.000000*%
%TD*%
%TA.AperFunction,Conductor*%
%ADD21C,1.500000*%
%TD*%
%TA.AperFunction,Conductor*%
%ADD22C,3.500000*%
%TD*%
%TA.AperFunction,Conductor*%
%ADD23C,3.800000*%
%TD*%
G04 APERTURE END LIST*
D10*
%TO.P,R1,2*%
%TO.N,/SOURCE1*%
X16000000Y57000000D03*
%TO.P,R1,1*%
%TO.N,/VDD*%
X16000000Y79000000D03*
%TD*%
%TO.P,R13,1*%
%TO.N,Net-(J1-Pin_1)*%
X6000000Y80300000D03*
%TO.P,R13,2*%
%TO.N,/SOURCE2*%
X6000000Y53300000D03*
%TD*%
D11*
%TO.P,Q2,1,G_1*%
%TO.N,Net-(Q2-G)*%
X54550000Y90500000D03*
D12*
%TO.P,Q2,2,D_2*%
%TO.N,/VDD*%
X60000000Y90500000D03*
D11*
%TO.P,Q2,3,S_3*%
%TO.N,Net-(Q2-S)*%
X65450000Y90500000D03*
%TD*%
D10*
%TO.P,R9,1*%
%TO.N,Net-(Q1-S)*%
X41500000Y86200000D03*
%TO.P,R9,2*%
%TO.N,/SOURCE1*%
X41500000Y59200000D03*
%TD*%
D13*
%TO.P,J2,1,Pin_1_1*%
%TO.N,Net-(J1-Pin_1)*%
X10500000Y86000000D03*
%TO.P,J2,2,Pin_2_2*%
X10500000Y91000000D03*
%TD*%
D10*
%TO.P,R25,1*%
%TO.N,Net-(Q8-S)*%
X102500000Y7930000D03*
%TO.P,R25,2*%
%TO.N,/SOURCE2*%
X102500000Y34930000D03*
%TD*%
D11*
%TO.P,Q6,1,G_1*%
%TO.N,Net-(Q6-G)*%
X65450000Y3500000D03*
D14*
%TO.P,Q6,2,D_2*%
%TO.N,/SOURCE1*%
X60000000Y3500000D03*
D11*
%TO.P,Q6,3,S_3*%
%TO.N,Net-(Q6-S)*%
X54550000Y3500000D03*
%TD*%
D15*
%TO.P,J7,1,Pin_1_1*%
%TO.N,/SOURCE2*%
X3000000Y48000000D03*
%TO.P,J7,2,Pin_2_2*%
X8000000Y48000000D03*
%TD*%
D16*
%TO.P,J6,1,1_1*%
%TO.N,/GATE1*%
X4000000Y37750000D03*
D17*
%TO.P,J6,2,2_2*%
%TO.N,/SOURCE1*%
X4000000Y35250000D03*
%TO.P,J6,3,3_3*%
%TO.N,/GATE2*%
X4000000Y32750000D03*
%TO.P,J6,4,4_4*%
%TO.N,/SOURCE2*%
X4000000Y30250000D03*
%TD*%
D11*
%TO.P,Q4,1,G_1*%
%TO.N,Net-(Q4-G)*%
X102550000Y90500000D03*
D12*
%TO.P,Q4,2,D_2*%
%TO.N,/VDD*%
X108000000Y90500000D03*
D11*
%TO.P,Q4,3,S_3*%
%TO.N,Net-(Q4-S)*%
X113450000Y90500000D03*
%TD*%
D13*
%TO.P,J1,1,Pin_1_1*%
%TO.N,Net-(J1-Pin_1)*%
X3500000Y86000000D03*
%TO.P,J1,2,Pin_2_2*%
X3500000Y91000000D03*
%TD*%
D15*
%TO.P,J4,1,Pin_1_1*%
%TO.N,/SOURCE1*%
X122000000Y54500000D03*
%TO.P,J4,2,Pin_2_2*%
X127000000Y54500000D03*
%TD*%
D10*
%TO.P,R22,1*%
%TO.N,Net-(Q5-S)*%
X30500000Y7800000D03*
%TO.P,R22,2*%
%TO.N,/SOURCE2*%
X30500000Y34800000D03*
%TD*%
%TO.P,R11,1*%
%TO.N,Net-(Q3-S)*%
X89500000Y86200000D03*
%TO.P,R11,2*%
%TO.N,/SOURCE1*%
X89500000Y59200000D03*
%TD*%
D11*
%TO.P,Q7,1,G_1*%
%TO.N,Net-(Q7-G)*%
X89450000Y3500000D03*
D14*
%TO.P,Q7,2,D_2*%
%TO.N,/SOURCE1*%
X84000000Y3500000D03*
D11*
%TO.P,Q7,3,S_3*%
%TO.N,Net-(Q7-S)*%
X78550000Y3500000D03*
%TD*%
D10*
%TO.P,R24,1*%
%TO.N,Net-(Q7-S)*%
X78500000Y8000000D03*
%TO.P,R24,2*%
%TO.N,/SOURCE2*%
X78500000Y35000000D03*
%TD*%
%TO.P,R10,1*%
%TO.N,Net-(Q2-S)*%
X65500000Y86200000D03*
%TO.P,R10,2*%
%TO.N,/SOURCE1*%
X65500000Y59200000D03*
%TD*%
D13*
%TO.P,J3,1,Pin_1_1*%
%TO.N,/VDD*%
X21500000Y86000000D03*
%TO.P,J3,2,Pin_2_2*%
X21500000Y91000000D03*
%TD*%
D10*
%TO.P,R14,1*%
%TO.N,/SOURCE1*%
X18000000Y40000000D03*
%TO.P,R14,2*%
%TO.N,/SOURCE2*%
X18000000Y18000000D03*
%TD*%
D15*
%TO.P,J5,1,Pin_1_1*%
%TO.N,Net-(J5-Pin_1)*%
X122000000Y39500000D03*
%TO.P,J5,2,Pin_2_2*%
X127000000Y39500000D03*
%TD*%
D11*
%TO.P,Q8,1,G_1*%
%TO.N,Net-(Q8-G)*%
X113450000Y3500000D03*
D14*
%TO.P,Q8,2,D_2*%
%TO.N,/SOURCE1*%
X108000000Y3500000D03*
D11*
%TO.P,Q8,3,S_3*%
%TO.N,Net-(Q8-S)*%
X102550000Y3500000D03*
%TD*%
%TO.P,Q3,1,G_1*%
%TO.N,Net-(Q3-G)*%
X78550000Y90500000D03*
D12*
%TO.P,Q3,2,D_2*%
%TO.N,/VDD*%
X84000000Y90500000D03*
D11*
%TO.P,Q3,3,S_3*%
%TO.N,Net-(Q3-S)*%
X89450000Y90500000D03*
%TD*%
D10*
%TO.P,R23,1*%
%TO.N,Net-(Q6-S)*%
X54500000Y7800000D03*
%TO.P,R23,2*%
%TO.N,/SOURCE2*%
X54500000Y34800000D03*
%TD*%
D11*
%TO.P,Q5,1,G_1*%
%TO.N,Net-(Q5-G)*%
X41450000Y3500000D03*
D14*
%TO.P,Q5,2,D_2*%
%TO.N,/SOURCE1*%
X36000000Y3500000D03*
D11*
%TO.P,Q5,3,S_3*%
%TO.N,Net-(Q5-S)*%
X30550000Y3500000D03*
%TD*%
%TO.P,Q1,1,G_1*%
%TO.N,Net-(Q1-G)*%
X30550000Y90500000D03*
D12*
%TO.P,Q1,2,D_2*%
%TO.N,/VDD*%
X36000000Y90500000D03*
D11*
%TO.P,Q1,3,S_3*%
%TO.N,Net-(Q1-S)*%
X41450000Y90500000D03*
%TD*%
D18*
%TO.P,C4,1,1_1*%
%TO.N,/SOURCE2*%
X32000000Y47000000D03*
%TO.P,C4,2,2_2*%
%TO.N,Net-(J5-Pin_1)*%
X68000000Y47000000D03*
%TD*%
%TO.P,C1,1,1_1*%
%TO.N,Net-(J5-Pin_1)*%
X72000000Y47000000D03*
%TO.P,C1,2,2_2*%
%TO.N,/VDD*%
X108000000Y47000000D03*
%TD*%
D10*
%TO.P,R12,1*%
%TO.N,Net-(Q4-S)*%
X113500000Y86200000D03*
%TO.P,R12,2*%
%TO.N,/SOURCE1*%
X113500000Y59200000D03*
%TD*%
D19*
%TO.N,/SOURCE2*%
X28250000Y31050000D03*
X29650000Y29600000D03*
%TO.N,/SOURCE1*%
X28250000Y57000000D03*
%TO.N,/VDD*%
X19500000Y81400000D03*
%TO.N,/SOURCE2*%
X119400000Y16000000D03*
X119400000Y17900000D03*
%TO.N,/VDD*%
X111500000Y78500000D03*
X111500000Y81000000D03*
X111500000Y76000000D03*
%TO.N,/SOURCE1*%
X106300000Y22300000D03*
X108600000Y20000000D03*
X68000000Y23800000D03*
X108600000Y18000000D03*
X44000000Y23800000D03*
X63000000Y23800000D03*
X65500000Y23800000D03*
X41500000Y23800000D03*
X89500000Y23800000D03*
X104800000Y23800000D03*
X39000000Y23800000D03*
X92000000Y23800000D03*
X87000000Y23800000D03*
%TD*%
%TO.N,/SOURCE2*%
D20*
X29650000Y27100000D02*
X29650000Y29600000D01*
X20550000Y18000000D02*
X29650000Y27100000D01*
X18000000Y18000000D02*
X20550000Y18000000D01*
D21*
X30500000Y30250000D02*
X30500000Y34800000D01*
X29650000Y29600000D02*
X29850000Y29600000D01*
X29850000Y29600000D02*
X30500000Y30250000D01*
%TO.N,/SOURCE1*%
X30450000Y59200000D02*
X28250000Y57000000D01*
X41500000Y59200000D02*
X30450000Y59200000D01*
D20*
X16000000Y57000000D02*
X28250000Y57000000D01*
%TO.N,/SOURCE2*%
D21*
X1400000Y31200000D02*
X1400000Y43600000D01*
D20*
X107200000Y29800000D02*
X119100000Y17900000D01*
D21*
X2350000Y30250000D02*
X1400000Y31200000D01*
X1400000Y43600000D02*
X3000000Y45200000D01*
X3000000Y45200000D02*
X3000000Y48000000D01*
D20*
X102220000Y34930000D02*
X105470000Y34930000D01*
X107200000Y33200000D02*
X107200000Y29800000D01*
X105470000Y34930000D02*
X107200000Y33200000D01*
X119100000Y17900000D02*
X119400000Y17900000D01*
D21*
X4000000Y30250000D02*
X2350000Y30250000D01*
%TO.N,/VDD*%
D22*
X36000000Y90500000D02*
X36000000Y72700000D01*
X83900000Y72700000D02*
X84000000Y72800000D01*
X107900000Y72800000D02*
X108000000Y72900000D01*
X106800000Y71700000D02*
X106800000Y48200000D01*
X60000000Y72700000D02*
X83900000Y72700000D01*
X108000000Y90500000D02*
X108000000Y72900000D01*
X84000000Y72800000D02*
X107900000Y72800000D01*
X108000000Y72900000D02*
X106800000Y71700000D01*
X84000000Y90500000D02*
X84000000Y72800000D01*
X36000000Y72700000D02*
X60000000Y72700000D01*
X106800000Y48200000D02*
X108000000Y47000000D01*
X60000000Y90500000D02*
X60000000Y72700000D01*
%TO.N,/SOURCE1*%
X84100000Y21200000D02*
X84000000Y21100000D01*
X60000000Y21000000D02*
X83900000Y21000000D01*
X60000000Y3500000D02*
X60000000Y21000000D01*
X108000000Y18600000D02*
X105400000Y21200000D01*
X105400000Y21200000D02*
X84100000Y21200000D01*
X84000000Y21100000D02*
X84000000Y3500000D01*
X83900000Y21000000D02*
X84000000Y21100000D01*
X36000000Y3500000D02*
X36000000Y20800000D01*
D23*
X127000000Y54500000D02*
X122000000Y54500000D01*
D22*
X108000000Y3500000D02*
X108000000Y18600000D01*
X36000000Y20800000D02*
X59800000Y20800000D01*
X59800000Y20800000D02*
X60000000Y21000000D01*
%TD*%
%TA.AperFunction,Conductor*%
%TO.N,/SOURCE2*%
G36*
X123815677Y19080315D02*
G01*
X123836319Y19063681D01*
X124263681Y18636319D01*
X124297166Y18574996D01*
X124300000Y18548638D01*
X124300000Y13451362D01*
X124280315Y13384323D01*
X124263681Y13363681D01*
X124100000Y13200000D01*
X124100000Y10851362D01*
X124091355Y10821921D01*
X124084832Y10791935D01*
X124081077Y10786919D01*
X124080315Y10784323D01*
X124063681Y10763681D01*
X123936319Y10636319D01*
X123874996Y10602834D01*
X123848638Y10600000D01*
X122151362Y10600000D01*
X122084323Y10619685D01*
X122063681Y10636319D01*
X121936319Y10763681D01*
X121902834Y10825004D01*
X121900000Y10851362D01*
X121900000Y13799999D01*
X121900000Y13800000D01*
X120700000Y15000000D01*
X120699999Y15000000D01*
X119051362Y15000000D01*
X118984323Y15019685D01*
X118963681Y15036319D01*
X118436319Y15563681D01*
X118402834Y15625004D01*
X118400000Y15651362D01*
X118400000Y16899999D01*
X118400000Y16900000D01*
X118500000Y16800000D01*
X122000000Y16800000D01*
X122400000Y17200000D01*
X122400000Y18750000D01*
X122050000Y19100000D01*
X123748638Y19100000D01*
X123815677Y19080315D01*
G37*
%TD.AperFunction*%
%TD*%
%TA.AperFunction,Conductor*%
%TO.N,/SOURCE1*%
G36*
X104515677Y25480315D02*
G01*
X104536319Y25463681D01*
X110263681Y19736319D01*
X110297166Y19674996D01*
X110300000Y19648638D01*
X110300000Y15051362D01*
X110280315Y14984323D01*
X110263681Y14963681D01*
X109836319Y14536319D01*
X109774996Y14502834D01*
X109748638Y14500000D01*
X106251362Y14500000D01*
X106184323Y14519685D01*
X106163681Y14536319D01*
X105648638Y15051362D01*
X104100000Y16600000D01*
X104099999Y16600000D01*
X87900001Y16600000D01*
X87900000Y16600000D01*
X87899999Y16599999D01*
X85836319Y14536319D01*
X85774996Y14502834D01*
X85748638Y14500000D01*
X82251362Y14500000D01*
X82184323Y14519685D01*
X82163681Y14536319D01*
X81648638Y15051362D01*
X80100000Y16600000D01*
X80099999Y16600000D01*
X63900001Y16600000D01*
X63900000Y16600000D01*
X63899999Y16599999D01*
X61836319Y14536319D01*
X61774996Y14502834D01*
X61748638Y14500000D01*
X58251362Y14500000D01*
X58184323Y14519685D01*
X58163681Y14536319D01*
X57648638Y15051362D01*
X56100000Y16600000D01*
X56099999Y16600000D01*
X39900001Y16600000D01*
X39900000Y16600000D01*
X39899999Y16599999D01*
X37836319Y14536319D01*
X37774996Y14502834D01*
X37748638Y14500000D01*
X34251362Y14500000D01*
X34184323Y14519685D01*
X34163681Y14536319D01*
X32536319Y16163681D01*
X32502834Y16225004D01*
X32500000Y16251362D01*
X32500000Y22948638D01*
X32519685Y23015677D01*
X32536319Y23036319D01*
X34963681Y25463681D01*
X35025004Y25497166D01*
X35051362Y25500000D01*
X104448638Y25500000D01*
X104515677Y25480315D01*
G37*
%TD.AperFunction*%
%TD*%
%TA.AperFunction,Conductor*%
%TO.N,/VDD*%
G36*
X23616177Y93479815D02*
G01*
X23636819Y93463181D01*
X24563681Y92536319D01*
X24597166Y92474996D01*
X24600000Y92448638D01*
X24600000Y85100000D01*
X26399999Y83300000D01*
X26400000Y83300000D01*
X32600000Y83300000D01*
X34363681Y85063681D01*
X34425004Y85097166D01*
X34451362Y85100000D01*
X36548638Y85100000D01*
X36615677Y85080315D01*
X36636319Y85063681D01*
X37063681Y84636319D01*
X37097166Y84574996D01*
X37100000Y84548638D01*
X37100000Y74700000D01*
X36500000Y74100000D01*
X33500000Y74100000D01*
X31200000Y76400000D01*
X31199999Y76400000D01*
X22651362Y76400000D01*
X22584323Y76419685D01*
X22563681Y76436319D01*
X18236319Y80763681D01*
X18202834Y80825004D01*
X18200000Y80851362D01*
X18200000Y86250000D01*
X18863930Y86250000D01*
X20662683Y86250000D01*
X20630000Y86085688D01*
X20630000Y85914312D01*
X20662683Y85750000D01*
X18863930Y85750000D01*
X18887642Y85569881D01*
X18962283Y85291317D01*
X19072644Y85024883D01*
X19072648Y85024873D01*
X19216841Y84775123D01*
X19392402Y84546328D01*
X19392408Y84546321D01*
X19596321Y84342408D01*
X19596328Y84342402D01*
X19825123Y84166841D01*
X20074873Y84022648D01*
X20074883Y84022644D01*
X20341317Y83912283D01*
X20619881Y83837643D01*
X20905796Y83800000D01*
X21250000Y83800000D01*
X21250000Y85162683D01*
X21414312Y85130000D01*
X21585688Y85130000D01*
X21750000Y85162683D01*
X21750000Y83800000D01*
X22094203Y83800000D01*
X22380118Y83837643D01*
X22658682Y83912283D01*
X22925116Y84022644D01*
X22925126Y84022648D01*
X23174876Y84166841D01*
X23403671Y84342402D01*
X23403678Y84342408D01*
X23607591Y84546321D01*
X23607597Y84546328D01*
X23783158Y84775123D01*
X23927351Y85024873D01*
X23927355Y85024883D01*
X24037716Y85291317D01*
X24112357Y85569881D01*
X24136070Y85750000D01*
X22337317Y85750000D01*
X22370000Y85914312D01*
X22370000Y86085688D01*
X22337317Y86250000D01*
X24136070Y86250000D01*
X24112357Y86430118D01*
X24037716Y86708682D01*
X23927355Y86975116D01*
X23927351Y86975126D01*
X23783158Y87224876D01*
X23607597Y87453671D01*
X23607591Y87453678D01*
X23403678Y87657591D01*
X23403671Y87657597D01*
X23174876Y87833158D01*
X22925126Y87977351D01*
X22925116Y87977355D01*
X22658682Y88087716D01*
X22380118Y88162356D01*
X22094203Y88199999D01*
X22094189Y88200000D01*
X21750000Y88200000D01*
X21750000Y86837316D01*
X21585688Y86870000D01*
X21414312Y86870000D01*
X21250000Y86837316D01*
X21250000Y88200000D01*
X20905811Y88200000D01*
X20905796Y88199999D01*
X20619881Y88162356D01*
X20341317Y88087716D01*
X20074883Y87977355D01*
X20074873Y87977351D01*
X19825123Y87833158D01*
X19596328Y87657597D01*
X19596321Y87657591D01*
X19392408Y87453678D01*
X19392402Y87453671D01*
X19216841Y87224876D01*
X19072648Y86975126D01*
X19072644Y86975116D01*
X18962283Y86708682D01*
X18887642Y86430118D01*
X18863930Y86250000D01*
X18200000Y86250000D01*
X18200000Y91250000D01*
X18863930Y91250000D01*
X20662683Y91250000D01*
X20630000Y91085688D01*
X20630000Y90914312D01*
X20662683Y90750000D01*
X18863930Y90750000D01*
X18887642Y90569881D01*
X18962283Y90291317D01*
X19072644Y90024883D01*
X19072648Y90024873D01*
X19216841Y89775123D01*
X19392402Y89546328D01*
X19392408Y89546321D01*
X19596321Y89342408D01*
X19596328Y89342402D01*
X19825123Y89166841D01*
X20074873Y89022648D01*
X20074883Y89022644D01*
X20341317Y88912283D01*
X20619881Y88837643D01*
X20905796Y88800000D01*
X21250000Y88800000D01*
X21250000Y90162683D01*
X21414312Y90130000D01*
X21585688Y90130000D01*
X21750000Y90162683D01*
X21750000Y88800000D01*
X22094203Y88800000D01*
X22380118Y88837643D01*
X22658682Y88912283D01*
X22925116Y89022644D01*
X22925126Y89022648D01*
X23174876Y89166841D01*
X23403671Y89342402D01*
X23403678Y89342408D01*
X23607591Y89546321D01*
X23607597Y89546328D01*
X23783158Y89775123D01*
X23927351Y90024873D01*
X23927355Y90024883D01*
X24037716Y90291317D01*
X24112357Y90569881D01*
X24136070Y90750000D01*
X22337317Y90750000D01*
X22370000Y90914312D01*
X22370000Y91085688D01*
X22337317Y91250000D01*
X24136070Y91250000D01*
X24112357Y91430118D01*
X24037716Y91708682D01*
X23927355Y91975116D01*
X23927351Y91975126D01*
X23783158Y92224876D01*
X23607597Y92453671D01*
X23607591Y92453678D01*
X23403678Y92657591D01*
X23403671Y92657597D01*
X23174876Y92833158D01*
X22925126Y92977351D01*
X22925116Y92977355D01*
X22658682Y93087716D01*
X22380118Y93162356D01*
X22094203Y93199999D01*
X22094189Y93200000D01*
X21750000Y93200000D01*
X21750000Y91837316D01*
X21585688Y91870000D01*
X21414312Y91870000D01*
X21250000Y91837316D01*
X21250000Y93200000D01*
X20905811Y93200000D01*
X20905796Y93199999D01*
X20619881Y93162356D01*
X20341317Y93087716D01*
X20074883Y92977355D01*
X20074873Y92977351D01*
X19825123Y92833158D01*
X19596328Y92657597D01*
X19596321Y92657591D01*
X19392408Y92453678D01*
X19392402Y92453671D01*
X19216841Y92224876D01*
X19072648Y91975126D01*
X19072644Y91975116D01*
X18962283Y91708682D01*
X18887642Y91430118D01*
X18863930Y91250000D01*
X18200000Y91250000D01*
X18200000Y92348638D01*
X18219685Y92415677D01*
X18236319Y92436319D01*
X19263181Y93463181D01*
X19324504Y93496666D01*
X19350862Y93499500D01*
X23549138Y93499500D01*
X23616177Y93479815D01*
G37*
%TD.AperFunction*%
%TD*%
%TA.AperFunction,Conductor*%
%TO.N,/VDD*%
G36*
X109715677Y84880315D02*
G01*
X109736319Y84863681D01*
X114963681Y79636319D01*
X114997166Y79574996D01*
X115000000Y79548638D01*
X115000000Y77151362D01*
X114980315Y77084323D01*
X114963681Y77063681D01*
X113800000Y75900000D01*
X113800000Y71951362D01*
X113780315Y71884323D01*
X113763681Y71863681D01*
X109700000Y67800000D01*
X109700000Y50799999D01*
X110763681Y49736319D01*
X110797166Y49674996D01*
X110800000Y49648638D01*
X110800000Y46151362D01*
X110780315Y46084323D01*
X110763681Y46063681D01*
X109936319Y45236319D01*
X109874996Y45202834D01*
X109848638Y45200000D01*
X109140579Y45200000D01*
X109073540Y45219685D01*
X109027785Y45272489D01*
X109017841Y45341647D01*
X109046866Y45405203D01*
X109065092Y45422376D01*
X109155045Y45491400D01*
X108190646Y46455799D01*
X108221942Y46464185D01*
X108353058Y46539885D01*
X108460115Y46646942D01*
X108535815Y46778058D01*
X108544200Y46809351D01*
X109508598Y45844953D01*
X109583180Y45942150D01*
X109583186Y45942158D01*
X109707711Y46157840D01*
X109707716Y46157851D01*
X109803026Y46387950D01*
X109867491Y46628536D01*
X109900000Y46875466D01*
X109900000Y47124533D01*
X109867491Y47371463D01*
X109803026Y47612049D01*
X109707716Y47842148D01*
X109707711Y47842159D01*
X109583178Y48057855D01*
X109508600Y48155045D01*
X109508597Y48155045D01*
X108544200Y47190648D01*
X108535815Y47221942D01*
X108460115Y47353058D01*
X108353058Y47460115D01*
X108221942Y47535815D01*
X108190647Y47544200D01*
X109155045Y48508597D01*
X109155045Y48508600D01*
X109057855Y48583178D01*
X108842159Y48707711D01*
X108842148Y48707716D01*
X108612049Y48803026D01*
X108371463Y48867491D01*
X108124534Y48900000D01*
X107875466Y48900000D01*
X107628536Y48867491D01*
X107387950Y48803026D01*
X107157851Y48707716D01*
X107157840Y48707711D01*
X106942158Y48583186D01*
X106942150Y48583180D01*
X106844953Y48508598D01*
X107809352Y47544200D01*
X107778058Y47535815D01*
X107646942Y47460115D01*
X107539885Y47353058D01*
X107464185Y47221942D01*
X107455799Y47190646D01*
X106491400Y48155045D01*
X106416819Y48057849D01*
X106416813Y48057841D01*
X106292288Y47842159D01*
X106292283Y47842148D01*
X106196973Y47612049D01*
X106132508Y47371463D01*
X106100000Y47124533D01*
X106100000Y46875465D01*
X106109245Y46805238D01*
X106098479Y46736203D01*
X106052099Y46683948D01*
X105984829Y46665063D01*
X105918029Y46685544D01*
X105898635Y46701364D01*
X101936317Y50663682D01*
X101902834Y50725003D01*
X101900000Y50751361D01*
X101900000Y62599999D01*
X101900000Y62600000D01*
X97100000Y67400000D01*
X97099999Y67400000D01*
X34451362Y67400000D01*
X34384323Y67419685D01*
X34363681Y67436319D01*
X33036319Y68763681D01*
X33002834Y68825004D01*
X33000000Y68851362D01*
X33000000Y74599999D01*
X33000000Y74600000D01*
X33500000Y74100000D01*
X36500000Y74100000D01*
X37100000Y74700000D01*
X37100000Y77800000D01*
X37648638Y77800000D01*
X37715677Y77780315D01*
X37736319Y77763681D01*
X39099999Y76400000D01*
X39100000Y76400000D01*
X56800000Y76400000D01*
X58163681Y77763681D01*
X58225004Y77797166D01*
X58251362Y77800000D01*
X61648638Y77800000D01*
X61715677Y77780315D01*
X61736319Y77763681D01*
X63099999Y76400000D01*
X63100000Y76400000D01*
X80800000Y76400000D01*
X82163681Y77763681D01*
X82225004Y77797166D01*
X82251362Y77800000D01*
X85748638Y77800000D01*
X85815677Y77780315D01*
X85836319Y77763681D01*
X87199999Y76400000D01*
X87200000Y76400000D01*
X104800000Y76400000D01*
X106200000Y77800000D01*
X106200000Y83348638D01*
X106219685Y83415677D01*
X106236319Y83436319D01*
X107663681Y84863681D01*
X107725004Y84897166D01*
X107751362Y84900000D01*
X109648638Y84900000D01*
X109715677Y84880315D01*
G37*
%TD.AperFunction*%
%TD*%
%TA.AperFunction,Conductor*%
%TO.N,/SOURCE2*%
G36*
X9965745Y56494976D02*
G01*
X9990986Y56487564D01*
X10043730Y56456269D01*
X11451069Y55048929D01*
X11451072Y55048928D01*
X11472223Y55020674D01*
X11484831Y54997585D01*
X11500000Y54938156D01*
X11500000Y50899998D01*
X12699998Y49700000D01*
X12699999Y49700000D01*
X12700000Y49700000D01*
X33030808Y49700000D01*
X33030810Y49699999D01*
X33030811Y49700000D01*
X33065745Y49694976D01*
X33090986Y49687564D01*
X33143730Y49656269D01*
X35051073Y47748926D01*
X35072223Y47720674D01*
X35084831Y47697585D01*
X35100000Y47638156D01*
X35100000Y40399998D01*
X38099998Y37400000D01*
X38099999Y37400000D01*
X38100000Y37400000D01*
X105630808Y37400000D01*
X105630810Y37399999D01*
X105630811Y37400000D01*
X105665745Y37394976D01*
X105690986Y37387564D01*
X105743730Y37356269D01*
X108251073Y34848926D01*
X108272223Y34820674D01*
X108284831Y34797585D01*
X108300000Y34738156D01*
X108300000Y32850000D01*
X108250000Y32900000D01*
X106400000Y32900000D01*
X105500000Y32000000D01*
X105500000Y29800000D01*
X106600000Y28700000D01*
X28969192Y28700000D01*
X28934260Y28705022D01*
X28927425Y28707028D01*
X28909015Y28712434D01*
X28856271Y28743728D01*
X25348923Y32251076D01*
X25327775Y32279326D01*
X25315167Y32302418D01*
X25300000Y32361843D01*
X25300000Y34914701D01*
X28750000Y34914701D01*
X28750000Y34685297D01*
X28750003Y34685273D01*
X28779941Y34457865D01*
X28839318Y34236268D01*
X28926820Y34025019D01*
X28927074Y34024393D01*
X28927104Y34024332D01*
X29041791Y33825688D01*
X29041799Y33825676D01*
X29041812Y33825656D01*
X29098380Y33751934D01*
X29853694Y34507248D01*
X29915016Y34540732D01*
X29984708Y34535748D01*
X30040641Y34493876D01*
X30048760Y34481568D01*
X30059887Y34462295D01*
X30059891Y34462290D01*
X30162290Y34359891D01*
X30162295Y34359887D01*
X30181568Y34348760D01*
X30229783Y34298192D01*
X30243004Y34229584D01*
X30217035Y34164720D01*
X30207247Y34153693D01*
X29451934Y33398380D01*
X29451934Y33398379D01*
X29525656Y33341812D01*
X29525676Y33341799D01*
X29525688Y33341791D01*
X29724332Y33227104D01*
X29724393Y33227074D01*
X29725019Y33226820D01*
X29936268Y33139318D01*
X30157865Y33079941D01*
X30385286Y33050001D01*
X30385278Y33050001D01*
X30385300Y33050000D01*
X30385306Y33050000D01*
X30385312Y33050000D01*
X30614694Y33050000D01*
X30614701Y33050000D01*
X30614708Y33050000D01*
X30614710Y33050001D01*
X30626233Y33051518D01*
X30842133Y33079941D01*
X31063727Y33139317D01*
X31063728Y33139317D01*
X31063730Y33139318D01*
X31274989Y33226824D01*
X31275616Y33227080D01*
X31275666Y33227104D01*
X31474323Y33341798D01*
X31475452Y33342598D01*
X31477000Y33343853D01*
X31494239Y33357080D01*
X31548064Y33398380D01*
X31548064Y33398381D01*
X30792749Y34153695D01*
X30759266Y34215016D01*
X30764250Y34284707D01*
X30806122Y34340641D01*
X30818433Y34348762D01*
X30837707Y34359889D01*
X30940108Y34462290D01*
X30940112Y34462295D01*
X30951237Y34481564D01*
X31001804Y34529779D01*
X31070411Y34543003D01*
X31135275Y34517035D01*
X31146305Y34507245D01*
X31901617Y33751934D01*
X31901618Y33751934D01*
X31958194Y33825666D01*
X32072893Y34024330D01*
X32072894Y34024334D01*
X32072916Y34024376D01*
X32073178Y34025019D01*
X32160681Y34236269D01*
X32220057Y34457862D01*
X32249998Y34685289D01*
X32250000Y34685305D01*
X32250000Y34914694D01*
X32249999Y34914701D01*
X52750000Y34914701D01*
X52750000Y34685297D01*
X52750003Y34685273D01*
X52779941Y34457865D01*
X52839318Y34236268D01*
X52926820Y34025019D01*
X52927074Y34024393D01*
X52927104Y34024332D01*
X53041791Y33825688D01*
X53041799Y33825676D01*
X53041812Y33825656D01*
X53098380Y33751934D01*
X53853694Y34507248D01*
X53915016Y34540732D01*
X53984708Y34535748D01*
X54040641Y34493876D01*
X54048760Y34481568D01*
X54059887Y34462295D01*
X54059891Y34462290D01*
X54162290Y34359891D01*
X54162295Y34359887D01*
X54181568Y34348760D01*
X54229783Y34298192D01*
X54243004Y34229584D01*
X54217035Y34164720D01*
X54207247Y34153693D01*
X53451934Y33398380D01*
X53451934Y33398379D01*
X53525656Y33341812D01*
X53525676Y33341799D01*
X53525688Y33341791D01*
X53724332Y33227104D01*
X53724393Y33227074D01*
X53725019Y33226820D01*
X53936268Y33139318D01*
X54157865Y33079941D01*
X54385286Y33050001D01*
X54385278Y33050001D01*
X54385300Y33050000D01*
X54385306Y33050000D01*
X54385312Y33050000D01*
X54614694Y33050000D01*
X54614701Y33050000D01*
X54614708Y33050000D01*
X54614710Y33050001D01*
X54626233Y33051518D01*
X54842133Y33079941D01*
X55063727Y33139317D01*
X55063728Y33139317D01*
X55063730Y33139318D01*
X55274989Y33226824D01*
X55275616Y33227080D01*
X55275666Y33227104D01*
X55474323Y33341798D01*
X55475452Y33342598D01*
X55477000Y33343853D01*
X55494239Y33357080D01*
X55548064Y33398380D01*
X55548064Y33398381D01*
X54792749Y34153695D01*
X54759266Y34215016D01*
X54764250Y34284707D01*
X54806122Y34340641D01*
X54818433Y34348762D01*
X54837707Y34359889D01*
X54940108Y34462290D01*
X54940112Y34462295D01*
X54951237Y34481564D01*
X55001804Y34529779D01*
X55070411Y34543003D01*
X55135275Y34517035D01*
X55146305Y34507245D01*
X55901617Y33751934D01*
X55901618Y33751934D01*
X55958194Y33825666D01*
X56072893Y34024330D01*
X56072894Y34024334D01*
X56072916Y34024376D01*
X56073178Y34025019D01*
X56160681Y34236269D01*
X56220057Y34457862D01*
X56249998Y34685289D01*
X56250000Y34685305D01*
X56250000Y34914694D01*
X56249998Y34914711D01*
X56225266Y35102575D01*
X56223669Y35114701D01*
X76750000Y35114701D01*
X76750000Y34885297D01*
X76750003Y34885273D01*
X76779941Y34657865D01*
X76839318Y34436268D01*
X76926820Y34225019D01*
X76927074Y34224393D01*
X76927104Y34224332D01*
X77041791Y34025688D01*
X77041799Y34025676D01*
X77041812Y34025656D01*
X77098380Y33951934D01*
X77853694Y34707248D01*
X77915016Y34740732D01*
X77984708Y34735748D01*
X78040641Y34693876D01*
X78048760Y34681568D01*
X78059887Y34662295D01*
X78059891Y34662290D01*
X78162290Y34559891D01*
X78162295Y34559887D01*
X78181568Y34548760D01*
X78229783Y34498192D01*
X78243004Y34429584D01*
X78217035Y34364720D01*
X78207247Y34353693D01*
X77451934Y33598380D01*
X77451934Y33598379D01*
X77525656Y33541812D01*
X77525676Y33541799D01*
X77525688Y33541791D01*
X77724332Y33427104D01*
X77724393Y33427074D01*
X77725019Y33426820D01*
X77936268Y33339318D01*
X78157865Y33279941D01*
X78385286Y33250001D01*
X78385278Y33250001D01*
X78385300Y33250000D01*
X78385306Y33250000D01*
X78385312Y33250000D01*
X78614694Y33250000D01*
X78614701Y33250000D01*
X78614708Y33250000D01*
X78614710Y33250001D01*
X78626233Y33251518D01*
X78842133Y33279941D01*
X79063727Y33339317D01*
X79063728Y33339317D01*
X79063730Y33339318D01*
X79274989Y33426824D01*
X79275616Y33427080D01*
X79275666Y33427104D01*
X79474323Y33541798D01*
X79475452Y33542598D01*
X79477000Y33543853D01*
X79548064Y33598380D01*
X79548064Y33598381D01*
X78792749Y34353695D01*
X78759266Y34415016D01*
X78764250Y34484707D01*
X78806122Y34540641D01*
X78818433Y34548762D01*
X78837707Y34559889D01*
X78940108Y34662290D01*
X78940112Y34662295D01*
X78951237Y34681564D01*
X79001804Y34729779D01*
X79070411Y34743003D01*
X79135275Y34717035D01*
X79146305Y34707245D01*
X79901617Y33951934D01*
X79901618Y33951934D01*
X79958194Y34025666D01*
X80072893Y34224330D01*
X80072894Y34224334D01*
X80072916Y34224376D01*
X80073178Y34225019D01*
X80160681Y34436269D01*
X80220057Y34657862D01*
X80249998Y34885289D01*
X80250000Y34885305D01*
X80250000Y35044701D01*
X100750000Y35044701D01*
X100750000Y34815297D01*
X100750003Y34815273D01*
X100779941Y34587865D01*
X100839318Y34366268D01*
X100926820Y34155019D01*
X100927074Y34154393D01*
X100927104Y34154332D01*
X101041791Y33955688D01*
X101041799Y33955676D01*
X101041812Y33955656D01*
X101098380Y33881934D01*
X101853694Y34637248D01*
X101915016Y34670732D01*
X101984708Y34665748D01*
X102040641Y34623876D01*
X102048760Y34611568D01*
X102059887Y34592295D01*
X102059891Y34592290D01*
X102162290Y34489891D01*
X102162295Y34489887D01*
X102181568Y34478760D01*
X102229783Y34428192D01*
X102243004Y34359584D01*
X102217035Y34294720D01*
X102207247Y34283693D01*
X101451934Y33528380D01*
X101451934Y33528379D01*
X101525656Y33471812D01*
X101525676Y33471799D01*
X101525688Y33471791D01*
X101724332Y33357104D01*
X101724393Y33357074D01*
X101725019Y33356820D01*
X101936268Y33269318D01*
X102157865Y33209941D01*
X102385286Y33180001D01*
X102385278Y33180001D01*
X102385300Y33180000D01*
X102385306Y33180000D01*
X102385312Y33180000D01*
X102614694Y33180000D01*
X102614701Y33180000D01*
X102614708Y33180000D01*
X102614710Y33180001D01*
X102626233Y33181518D01*
X102842133Y33209941D01*
X103063727Y33269317D01*
X103063728Y33269317D01*
X103063730Y33269318D01*
X103274989Y33356824D01*
X103275616Y33357080D01*
X103275666Y33357104D01*
X103474323Y33471798D01*
X103475452Y33472598D01*
X103477000Y33473853D01*
X103548064Y33528380D01*
X103548064Y33528381D01*
X102792749Y34283695D01*
X102759266Y34345016D01*
X102764250Y34414707D01*
X102806122Y34470641D01*
X102818433Y34478762D01*
X102837707Y34489889D01*
X102940108Y34592290D01*
X102940112Y34592295D01*
X102951237Y34611564D01*
X103001804Y34659779D01*
X103070411Y34673003D01*
X103135275Y34647035D01*
X103146305Y34637245D01*
X103901617Y33881934D01*
X103901618Y33881934D01*
X103958194Y33955666D01*
X104072893Y34154330D01*
X104072894Y34154334D01*
X104072916Y34154376D01*
X104073178Y34155019D01*
X104160681Y34366269D01*
X104220057Y34587862D01*
X104249998Y34815289D01*
X104250000Y34815305D01*
X104250000Y35044694D01*
X104249998Y35044710D01*
X104220057Y35272137D01*
X104160681Y35493730D01*
X104072897Y35705659D01*
X104072893Y35705668D01*
X103958197Y35904327D01*
X103958192Y35904334D01*
X103901617Y35978064D01*
X103901616Y35978063D01*
X103146305Y35222752D01*
X103084982Y35189267D01*
X103015290Y35194251D01*
X102959357Y35236123D01*
X102951238Y35248433D01*
X102940110Y35267708D01*
X102837708Y35370110D01*
X102818437Y35381236D01*
X102770220Y35431798D01*
X102756994Y35500405D01*
X102782958Y35565271D01*
X102792752Y35576305D01*
X103548063Y36331616D01*
X103548064Y36331617D01*
X103474334Y36388192D01*
X103474327Y36388197D01*
X103275668Y36502893D01*
X103275659Y36502897D01*
X103063730Y36590681D01*
X102842137Y36650057D01*
X102614710Y36679998D01*
X102614694Y36680000D01*
X102614690Y36680000D01*
X102385314Y36680000D01*
X102385306Y36680000D01*
X102385289Y36679998D01*
X102157862Y36650057D01*
X101936269Y36590681D01*
X101724929Y36503141D01*
X101724376Y36502916D01*
X101724334Y36502894D01*
X101724330Y36502893D01*
X101525666Y36388194D01*
X101505725Y36372893D01*
X101451934Y36331618D01*
X101451934Y36331616D01*
X102207246Y35576305D01*
X102240731Y35514982D01*
X102235747Y35445290D01*
X102193875Y35389357D01*
X102181563Y35381236D01*
X102162295Y35370112D01*
X102162290Y35370108D01*
X102059889Y35267707D01*
X102055017Y35259267D01*
X102050380Y35251235D01*
X102048762Y35248433D01*
X101998195Y35200217D01*
X101929588Y35186993D01*
X101864723Y35212961D01*
X101853701Y35222743D01*
X101098381Y35978064D01*
X101098380Y35978064D01*
X101095510Y35974323D01*
X101043853Y35907000D01*
X101042598Y35905452D01*
X101041798Y35904323D01*
X100927104Y35705666D01*
X100927080Y35705616D01*
X100926824Y35704989D01*
X100848249Y35515290D01*
X100839317Y35493727D01*
X100779941Y35272133D01*
X100750003Y35044725D01*
X100750000Y35044701D01*
X80250000Y35044701D01*
X80250000Y35114694D01*
X80249998Y35114710D01*
X80220057Y35342137D01*
X80160681Y35563730D01*
X80072897Y35775659D01*
X80072893Y35775668D01*
X79958197Y35974327D01*
X79958192Y35974334D01*
X79901617Y36048064D01*
X79901616Y36048063D01*
X79146305Y35292752D01*
X79084982Y35259267D01*
X79015290Y35264251D01*
X78959357Y35306123D01*
X78951238Y35318433D01*
X78940110Y35337708D01*
X78837708Y35440110D01*
X78818437Y35451236D01*
X78770220Y35501798D01*
X78756994Y35570405D01*
X78782958Y35635271D01*
X78792752Y35646305D01*
X79548063Y36401616D01*
X79548064Y36401617D01*
X79474334Y36458192D01*
X79474327Y36458197D01*
X79275668Y36572893D01*
X79275659Y36572897D01*
X79063730Y36660681D01*
X78842137Y36720057D01*
X78614710Y36749998D01*
X78614694Y36750000D01*
X78614690Y36750000D01*
X78385314Y36750000D01*
X78385306Y36750000D01*
X78385289Y36749998D01*
X78157862Y36720057D01*
X77936269Y36660681D01*
X77724929Y36573141D01*
X77724376Y36572916D01*
X77724334Y36572894D01*
X77724330Y36572893D01*
X77525666Y36458194D01*
X77451934Y36401618D01*
X77451934Y36401616D01*
X78207246Y35646305D01*
X78240731Y35584982D01*
X78235747Y35515290D01*
X78193875Y35459357D01*
X78181563Y35451236D01*
X78162295Y35440112D01*
X78162290Y35440108D01*
X78059889Y35337707D01*
X78048762Y35318433D01*
X77998195Y35270217D01*
X77929588Y35256993D01*
X77864723Y35282961D01*
X77853701Y35292743D01*
X77098381Y36048064D01*
X77098380Y36048064D01*
X77044669Y35978064D01*
X77043853Y35977000D01*
X77042598Y35975452D01*
X77041798Y35974323D01*
X76927104Y35775666D01*
X76927080Y35775616D01*
X76926824Y35774989D01*
X76839957Y35565271D01*
X76839317Y35563727D01*
X76779941Y35342133D01*
X76750003Y35114725D01*
X76750000Y35114701D01*
X56223669Y35114701D01*
X56220057Y35142137D01*
X56160681Y35363730D01*
X56072897Y35575659D01*
X56072893Y35575668D01*
X55958197Y35774327D01*
X55958192Y35774334D01*
X55901617Y35848064D01*
X55901616Y35848063D01*
X55146305Y35092752D01*
X55084982Y35059267D01*
X55015290Y35064251D01*
X54959357Y35106123D01*
X54951238Y35118433D01*
X54940110Y35137708D01*
X54837708Y35240110D01*
X54818437Y35251236D01*
X54770220Y35301800D01*
X54756995Y35370407D01*
X54782961Y35435272D01*
X54792753Y35446305D01*
X55548063Y36201615D01*
X55548063Y36201616D01*
X55548064Y36201617D01*
X55478119Y36255289D01*
X55478117Y36255291D01*
X55474344Y36258186D01*
X55474327Y36258197D01*
X55275668Y36372893D01*
X55275659Y36372897D01*
X55063730Y36460681D01*
X54842137Y36520057D01*
X54614710Y36549998D01*
X54614694Y36550000D01*
X54614690Y36550000D01*
X54385314Y36550000D01*
X54385306Y36550000D01*
X54385289Y36549998D01*
X54157862Y36520057D01*
X53936269Y36460681D01*
X53724929Y36373141D01*
X53724376Y36372916D01*
X53724334Y36372894D01*
X53724330Y36372893D01*
X53525666Y36258194D01*
X53521883Y36255291D01*
X53451934Y36201618D01*
X53451934Y36201616D01*
X54207246Y35446305D01*
X54240731Y35384982D01*
X54235747Y35315290D01*
X54193875Y35259357D01*
X54181563Y35251236D01*
X54162295Y35240112D01*
X54162290Y35240108D01*
X54059889Y35137707D01*
X54048762Y35118433D01*
X53998195Y35070217D01*
X53929588Y35056993D01*
X53864723Y35082961D01*
X53853701Y35092743D01*
X53098381Y35848064D01*
X53098380Y35848064D01*
X53043853Y35777000D01*
X53042598Y35775452D01*
X53041798Y35774323D01*
X52927104Y35575666D01*
X52927080Y35575616D01*
X52926824Y35574989D01*
X52846569Y35381234D01*
X52839317Y35363727D01*
X52779941Y35142133D01*
X52750003Y34914725D01*
X52750000Y34914701D01*
X32249999Y34914701D01*
X32249998Y34914710D01*
X32220057Y35142137D01*
X32160681Y35363730D01*
X32072897Y35575659D01*
X32072893Y35575668D01*
X31958197Y35774327D01*
X31958192Y35774334D01*
X31901617Y35848064D01*
X31901616Y35848063D01*
X31146305Y35092752D01*
X31084982Y35059267D01*
X31015290Y35064251D01*
X30959357Y35106123D01*
X30951238Y35118433D01*
X30940110Y35137708D01*
X30837708Y35240110D01*
X30818437Y35251236D01*
X30770220Y35301798D01*
X30756994Y35370405D01*
X30782958Y35435271D01*
X30792752Y35446305D01*
X31548063Y36201616D01*
X31548064Y36201617D01*
X31474334Y36258192D01*
X31474327Y36258197D01*
X31275668Y36372893D01*
X31275659Y36372897D01*
X31063730Y36460681D01*
X30842137Y36520057D01*
X30614710Y36549998D01*
X30614694Y36550000D01*
X30614690Y36550000D01*
X30385314Y36550000D01*
X30385306Y36550000D01*
X30385289Y36549998D01*
X30157862Y36520057D01*
X29936269Y36460681D01*
X29724929Y36373141D01*
X29724376Y36372916D01*
X29724334Y36372894D01*
X29724330Y36372893D01*
X29525666Y36258194D01*
X29521883Y36255291D01*
X29451934Y36201618D01*
X29451934Y36201616D01*
X30207246Y35446305D01*
X30240731Y35384982D01*
X30235747Y35315290D01*
X30193875Y35259357D01*
X30181563Y35251236D01*
X30162295Y35240112D01*
X30162290Y35240108D01*
X30059889Y35137707D01*
X30048762Y35118433D01*
X29998195Y35070217D01*
X29929588Y35056993D01*
X29864723Y35082961D01*
X29853701Y35092743D01*
X29098381Y35848064D01*
X29098380Y35848064D01*
X29043853Y35777000D01*
X29042598Y35775452D01*
X29041798Y35774323D01*
X28927104Y35575666D01*
X28927080Y35575616D01*
X28926824Y35574989D01*
X28846569Y35381234D01*
X28839317Y35363727D01*
X28779941Y35142133D01*
X28750003Y34914725D01*
X28750000Y34914701D01*
X25300000Y34914701D01*
X25300000Y40199999D01*
X25300000Y40200000D01*
X22700000Y42800000D01*
X22699999Y42800000D01*
X2669192Y42800000D01*
X2634260Y42805022D01*
X2627425Y42807028D01*
X2609015Y42812434D01*
X2556271Y42843728D01*
X549423Y44850576D01*
X528275Y44878826D01*
X515667Y44901918D01*
X500500Y44961343D01*
X500500Y48594203D01*
X800000Y48594203D01*
X800000Y48250000D01*
X2011589Y48250000D01*
X2078628Y48230315D01*
X2124383Y48177511D01*
X2134327Y48108353D01*
X2133207Y48101810D01*
X2130000Y48085686D01*
X2130000Y47914313D01*
X2133207Y47898190D01*
X2126978Y47828599D01*
X2084115Y47773422D01*
X2018225Y47750178D01*
X2011589Y47750000D01*
X800000Y47750000D01*
X800000Y47405795D01*
X812474Y47311052D01*
X837643Y47119881D01*
X848697Y47078628D01*
X912283Y46841317D01*
X912286Y46841307D01*
X1022362Y46575563D01*
X1022618Y46574933D01*
X1022646Y46574875D01*
X1166841Y46325122D01*
X1342403Y46096327D01*
X1342409Y46096320D01*
X1342416Y46096312D01*
X1546312Y45892416D01*
X1546320Y45892409D01*
X1546327Y45892403D01*
X1775122Y45716841D01*
X2024875Y45572646D01*
X2024933Y45572618D01*
X2025563Y45572362D01*
X2291307Y45462286D01*
X2291317Y45462283D01*
X2461015Y45416813D01*
X2569881Y45387643D01*
X2569883Y45387642D01*
X2569887Y45387642D01*
X2749992Y45363928D01*
X2749999Y45363928D01*
X2750000Y45363928D01*
X2750000Y47011589D01*
X2769685Y47078628D01*
X2822489Y47124383D01*
X2891647Y47134327D01*
X2898182Y47133208D01*
X2914312Y47130000D01*
X3085687Y47130000D01*
X3085688Y47130000D01*
X3101810Y47133206D01*
X3171401Y47126978D01*
X3226578Y47084115D01*
X3249822Y47018225D01*
X3250000Y47011589D01*
X3250000Y45363928D01*
X3430111Y45387642D01*
X3430112Y45387642D01*
X3430118Y45387643D01*
X3708682Y45462283D01*
X3708684Y45462284D01*
X3708691Y45462286D01*
X3947967Y45561398D01*
X3974447Y45572366D01*
X3975073Y45572622D01*
X3975123Y45572646D01*
X4224876Y45716841D01*
X4453671Y45892402D01*
X4453678Y45892408D01*
X4657591Y46096321D01*
X4657597Y46096328D01*
X4833158Y46325123D01*
X4977351Y46574873D01*
X4977352Y46574875D01*
X4977374Y46574919D01*
X4977599Y46575472D01*
X5087716Y46841317D01*
X5162356Y47119881D01*
X5199999Y47405796D01*
X5200000Y47405810D01*
X5200000Y47750000D01*
X3988411Y47750000D01*
X3921372Y47769685D01*
X3875617Y47822489D01*
X3865673Y47891647D01*
X3866793Y47898190D01*
X3870000Y47914313D01*
X3870000Y48085686D01*
X3866793Y48101810D01*
X3873022Y48171401D01*
X3915885Y48226578D01*
X3981775Y48249822D01*
X3988411Y48250000D01*
X5200000Y48250000D01*
X5200000Y48594185D01*
X5200000Y48594189D01*
X5199999Y48594203D01*
X5800000Y48594203D01*
X5800000Y48250000D01*
X7011589Y48250000D01*
X7078628Y48230315D01*
X7124383Y48177511D01*
X7134327Y48108353D01*
X7133207Y48101810D01*
X7130000Y48085686D01*
X7130000Y47914313D01*
X7133207Y47898190D01*
X7126978Y47828599D01*
X7084115Y47773422D01*
X7018225Y47750178D01*
X7011589Y47750000D01*
X5800000Y47750000D01*
X5800000Y47405795D01*
X5812474Y47311052D01*
X5837643Y47119881D01*
X5848697Y47078628D01*
X5912283Y46841317D01*
X5912286Y46841307D01*
X6022362Y46575563D01*
X6022618Y46574933D01*
X6022646Y46574875D01*
X6166841Y46325122D01*
X6342403Y46096327D01*
X6342409Y46096320D01*
X6342416Y46096312D01*
X6546312Y45892416D01*
X6546320Y45892409D01*
X6546327Y45892403D01*
X6775122Y45716841D01*
X7024875Y45572646D01*
X7024933Y45572618D01*
X7025563Y45572362D01*
X7291307Y45462286D01*
X7291317Y45462283D01*
X7461015Y45416813D01*
X7569881Y45387643D01*
X7569883Y45387642D01*
X7569887Y45387642D01*
X7749992Y45363928D01*
X7749999Y45363928D01*
X7750000Y45363928D01*
X7750000Y47011589D01*
X7769685Y47078628D01*
X7822489Y47124383D01*
X7891647Y47134327D01*
X7898182Y47133208D01*
X7914312Y47130000D01*
X8085687Y47130000D01*
X8085688Y47130000D01*
X8101810Y47133206D01*
X8171401Y47126978D01*
X8226578Y47084115D01*
X8249822Y47018225D01*
X8250000Y47011589D01*
X8250000Y45363928D01*
X8430111Y45387642D01*
X8430112Y45387642D01*
X8430118Y45387643D01*
X8708682Y45462283D01*
X8708684Y45462284D01*
X8708691Y45462286D01*
X8967333Y45569420D01*
X8967334Y45569420D01*
X8975116Y45572644D01*
X8975126Y45572648D01*
X9103457Y45646740D01*
X9104990Y45647625D01*
X9224871Y45716837D01*
X9391834Y45844953D01*
X9453671Y45892402D01*
X9453678Y45892408D01*
X9657591Y46096321D01*
X9657597Y46096328D01*
X9833158Y46325123D01*
X9977351Y46574873D01*
X9977352Y46574875D01*
X9977374Y46574919D01*
X9977599Y46575472D01*
X10087716Y46841317D01*
X10162356Y47119880D01*
X10162969Y47124533D01*
X30100000Y47124533D01*
X30100000Y46875465D01*
X30132506Y46628546D01*
X30132509Y46628533D01*
X30196973Y46387947D01*
X30292284Y46157846D01*
X30416818Y45942150D01*
X30416829Y45942134D01*
X30491398Y45844953D01*
X30491399Y45844953D01*
X30491400Y45844953D01*
X31335392Y46688945D01*
X31396715Y46722430D01*
X31466407Y46717446D01*
X31522340Y46675574D01*
X31530457Y46663269D01*
X31539880Y46646948D01*
X31539887Y46646939D01*
X31646939Y46539887D01*
X31646948Y46539880D01*
X31663268Y46530458D01*
X31711482Y46479890D01*
X31724703Y46411282D01*
X31698733Y46346418D01*
X31688946Y46335393D01*
X31245969Y45892416D01*
X30844953Y45491400D01*
X30844953Y45491398D01*
X30942134Y45416829D01*
X30942150Y45416818D01*
X31157846Y45292284D01*
X31387947Y45196973D01*
X31581342Y45145153D01*
X31628536Y45132508D01*
X31628539Y45132507D01*
X31628546Y45132506D01*
X31875465Y45100000D01*
X32124534Y45100000D01*
X32124535Y45100000D01*
X32371459Y45132507D01*
X32371467Y45132509D01*
X32612049Y45196973D01*
X32612053Y45196974D01*
X32842154Y45292285D01*
X33057833Y45416808D01*
X33057846Y45416816D01*
X33155044Y45491399D01*
X33155045Y45491400D01*
X32311050Y46335394D01*
X32277567Y46396715D01*
X32282551Y46466406D01*
X32324423Y46522340D01*
X32336725Y46530455D01*
X32353058Y46539885D01*
X32460115Y46646942D01*
X32469538Y46663263D01*
X32520105Y46711479D01*
X32588712Y46724701D01*
X32653577Y46698733D01*
X32664606Y46688944D01*
X33508597Y45844953D01*
X33508598Y45844953D01*
X33583180Y45942150D01*
X33583186Y45942158D01*
X33707711Y46157840D01*
X33707716Y46157851D01*
X33803026Y46387950D01*
X33867491Y46628536D01*
X33900000Y46875466D01*
X33900000Y47124533D01*
X33867491Y47371463D01*
X33803026Y47612049D01*
X33707716Y47842148D01*
X33707711Y47842159D01*
X33583178Y48057855D01*
X33508600Y48155045D01*
X33508599Y48155045D01*
X33508598Y48155045D01*
X33508597Y48155045D01*
X33028549Y47674996D01*
X32664607Y47311054D01*
X32603284Y47277569D01*
X32533593Y47282553D01*
X32477659Y47324425D01*
X32469539Y47336735D01*
X32460115Y47353058D01*
X32353058Y47460115D01*
X32336734Y47469539D01*
X32288520Y47520106D01*
X32275296Y47588713D01*
X32301264Y47653578D01*
X32311054Y47664607D01*
X32704281Y48057833D01*
X33155045Y48508597D01*
X33155045Y48508600D01*
X33057855Y48583178D01*
X32842159Y48707711D01*
X32842148Y48707716D01*
X32612049Y48803026D01*
X32371463Y48867491D01*
X32124534Y48900000D01*
X32124527Y48900000D01*
X31875473Y48900000D01*
X31875466Y48900000D01*
X31628536Y48867491D01*
X31387950Y48803026D01*
X31157851Y48707716D01*
X31157840Y48707711D01*
X30961209Y48594185D01*
X30942165Y48583190D01*
X30942152Y48583182D01*
X30911284Y48559496D01*
X30844953Y48508598D01*
X30844953Y48508597D01*
X31688945Y47664606D01*
X31722430Y47603283D01*
X31717446Y47533591D01*
X31675574Y47477658D01*
X31663266Y47469539D01*
X31646942Y47460115D01*
X31539885Y47353058D01*
X31530459Y47336732D01*
X31479894Y47288518D01*
X31411287Y47275294D01*
X31346422Y47301262D01*
X31335400Y47311044D01*
X30491400Y48155045D01*
X30491399Y48155044D01*
X30416816Y48057846D01*
X30416808Y48057833D01*
X30292285Y47842154D01*
X30196973Y47612051D01*
X30194624Y47603283D01*
X30132508Y47371463D01*
X30132507Y47371457D01*
X30132506Y47371452D01*
X30100000Y47124533D01*
X10162969Y47124533D01*
X10165635Y47144779D01*
X10199998Y47405794D01*
X10200000Y47405810D01*
X10200000Y47750000D01*
X8988411Y47750000D01*
X8921372Y47769685D01*
X8875617Y47822489D01*
X8865673Y47891647D01*
X8866793Y47898190D01*
X8870000Y47914313D01*
X8870000Y48085686D01*
X8866793Y48101810D01*
X8873022Y48171401D01*
X8915885Y48226578D01*
X8981775Y48249822D01*
X8988411Y48250000D01*
X10200000Y48250000D01*
X10200000Y48594177D01*
X10200000Y48594189D01*
X10199999Y48594203D01*
X10162356Y48880118D01*
X10087716Y49158682D01*
X9977573Y49424587D01*
X9977373Y49425081D01*
X9977352Y49425123D01*
X9977351Y49425126D01*
X9833158Y49674876D01*
X9657597Y49903671D01*
X9657591Y49903678D01*
X9453678Y50107591D01*
X9453671Y50107597D01*
X9224876Y50283158D01*
X8975126Y50427351D01*
X8975121Y50427353D01*
X8975081Y50427373D01*
X8974587Y50427573D01*
X8708682Y50537716D01*
X8430118Y50612357D01*
X8250000Y50636069D01*
X8250000Y50636068D01*
X8250000Y48988410D01*
X8230315Y48921371D01*
X8177511Y48875616D01*
X8108353Y48865672D01*
X8101820Y48866790D01*
X8090296Y48869083D01*
X8085689Y48870000D01*
X8085688Y48870000D01*
X7914312Y48870000D01*
X7914311Y48870000D01*
X7909703Y48869083D01*
X7898195Y48866794D01*
X7828605Y48873018D01*
X7773426Y48915879D01*
X7750178Y48981767D01*
X7750000Y48988410D01*
X7750000Y50636070D01*
X7569881Y50612357D01*
X7291317Y50537716D01*
X7025472Y50427599D01*
X7024919Y50427374D01*
X7024875Y50427352D01*
X7024873Y50427351D01*
X6775123Y50283158D01*
X6546328Y50107597D01*
X6546321Y50107591D01*
X6342408Y49903678D01*
X6342402Y49903671D01*
X6186119Y49700000D01*
X6166841Y49674876D01*
X6022646Y49425123D01*
X6022622Y49425073D01*
X6022362Y49424435D01*
X5912286Y49158691D01*
X5912284Y49158684D01*
X5912283Y49158682D01*
X5837643Y48880118D01*
X5800000Y48594203D01*
X5199999Y48594203D01*
X5162356Y48880118D01*
X5087716Y49158682D01*
X4977573Y49424587D01*
X4977373Y49425081D01*
X4977352Y49425123D01*
X4977351Y49425126D01*
X4833158Y49674876D01*
X4657597Y49903671D01*
X4657591Y49903678D01*
X4453678Y50107591D01*
X4453671Y50107597D01*
X4224876Y50283158D01*
X3975126Y50427351D01*
X3975121Y50427353D01*
X3975081Y50427373D01*
X3974587Y50427573D01*
X3708682Y50537716D01*
X3430118Y50612357D01*
X3250000Y50636069D01*
X3250000Y50636068D01*
X3250000Y48988410D01*
X3230315Y48921371D01*
X3177511Y48875616D01*
X3108353Y48865672D01*
X3101820Y48866790D01*
X3090296Y48869083D01*
X3085689Y48870000D01*
X3085688Y48870000D01*
X2914312Y48870000D01*
X2914311Y48870000D01*
X2909703Y48869083D01*
X2898195Y48866794D01*
X2828605Y48873018D01*
X2773426Y48915879D01*
X2750178Y48981767D01*
X2750000Y48988410D01*
X2750000Y50636070D01*
X2569881Y50612357D01*
X2291317Y50537716D01*
X2025472Y50427599D01*
X2024919Y50427374D01*
X2024875Y50427352D01*
X2024873Y50427351D01*
X1775123Y50283158D01*
X1546328Y50107597D01*
X1546321Y50107591D01*
X1342408Y49903678D01*
X1342402Y49903671D01*
X1186119Y49700000D01*
X1166841Y49674876D01*
X1022646Y49425123D01*
X1022622Y49425073D01*
X1022362Y49424435D01*
X912286Y49158691D01*
X912284Y49158684D01*
X912283Y49158682D01*
X837643Y48880118D01*
X800000Y48594203D01*
X500500Y48594203D01*
X500500Y53414701D01*
X4250000Y53414701D01*
X4250000Y53185297D01*
X4250003Y53185273D01*
X4279941Y52957865D01*
X4339318Y52736268D01*
X4426820Y52525019D01*
X4427074Y52524393D01*
X4427104Y52524332D01*
X4541791Y52325688D01*
X4541799Y52325676D01*
X4541812Y52325656D01*
X4598380Y52251934D01*
X5353694Y53007248D01*
X5415016Y53040732D01*
X5484708Y53035748D01*
X5540641Y52993876D01*
X5548760Y52981568D01*
X5559887Y52962295D01*
X5559891Y52962290D01*
X5662290Y52859891D01*
X5662295Y52859887D01*
X5681568Y52848760D01*
X5729783Y52798192D01*
X5743004Y52729584D01*
X5717035Y52664720D01*
X5707247Y52653693D01*
X4951934Y51898380D01*
X4951934Y51898379D01*
X5025656Y51841812D01*
X5025676Y51841799D01*
X5025688Y51841791D01*
X5224332Y51727104D01*
X5224393Y51727074D01*
X5225019Y51726820D01*
X5436268Y51639318D01*
X5657865Y51579941D01*
X5885286Y51550001D01*
X5885278Y51550001D01*
X5885300Y51550000D01*
X5885306Y51550000D01*
X5885312Y51550000D01*
X6114694Y51550000D01*
X6114701Y51550000D01*
X6114708Y51550000D01*
X6114710Y51550001D01*
X6126233Y51551518D01*
X6342133Y51579941D01*
X6563727Y51639317D01*
X6563728Y51639317D01*
X6563730Y51639318D01*
X6774989Y51726824D01*
X6775616Y51727080D01*
X6775666Y51727104D01*
X6974323Y51841798D01*
X6975452Y51842598D01*
X6977000Y51843853D01*
X7048064Y51898380D01*
X7048064Y51898381D01*
X6292749Y52653695D01*
X6259266Y52715016D01*
X6264250Y52784707D01*
X6306122Y52840641D01*
X6318433Y52848762D01*
X6337707Y52859889D01*
X6440108Y52962290D01*
X6440112Y52962295D01*
X6451237Y52981564D01*
X6501804Y53029779D01*
X6570411Y53043003D01*
X6635275Y53017035D01*
X6646305Y53007245D01*
X7401617Y52251934D01*
X7401618Y52251934D01*
X7458194Y52325666D01*
X7572893Y52524330D01*
X7572894Y52524334D01*
X7572916Y52524376D01*
X7573178Y52525019D01*
X7660681Y52736269D01*
X7720057Y52957862D01*
X7749998Y53185289D01*
X7750000Y53185305D01*
X7750000Y53414694D01*
X7749998Y53414710D01*
X7720057Y53642137D01*
X7660681Y53863730D01*
X7572897Y54075659D01*
X7572893Y54075668D01*
X7458197Y54274327D01*
X7458192Y54274334D01*
X7401617Y54348064D01*
X7401616Y54348063D01*
X6646305Y53592752D01*
X6584982Y53559267D01*
X6515290Y53564251D01*
X6459357Y53606123D01*
X6451238Y53618433D01*
X6440110Y53637708D01*
X6337708Y53740110D01*
X6318437Y53751236D01*
X6270220Y53801798D01*
X6256994Y53870405D01*
X6282958Y53935271D01*
X6292752Y53946305D01*
X7048063Y54701616D01*
X7048064Y54701617D01*
X6974334Y54758192D01*
X6974327Y54758197D01*
X6775668Y54872893D01*
X6775659Y54872897D01*
X6563730Y54960681D01*
X6342137Y55020057D01*
X6114710Y55049998D01*
X6114694Y55050000D01*
X6114690Y55050000D01*
X5885314Y55050000D01*
X5885306Y55050000D01*
X5885289Y55049998D01*
X5657862Y55020057D01*
X5436269Y54960681D01*
X5224929Y54873141D01*
X5224376Y54872916D01*
X5224334Y54872894D01*
X5224330Y54872893D01*
X5025666Y54758194D01*
X4951934Y54701618D01*
X4951934Y54701616D01*
X5707246Y53946305D01*
X5740731Y53884982D01*
X5735747Y53815290D01*
X5693875Y53759357D01*
X5681563Y53751236D01*
X5662295Y53740112D01*
X5662290Y53740108D01*
X5559889Y53637707D01*
X5548762Y53618433D01*
X5498195Y53570217D01*
X5429588Y53556993D01*
X5364723Y53582961D01*
X5353701Y53592743D01*
X4598381Y54348064D01*
X4598380Y54348064D01*
X4543853Y54277000D01*
X4542598Y54275452D01*
X4541798Y54274323D01*
X4427104Y54075666D01*
X4427080Y54075616D01*
X4426820Y54074978D01*
X4339317Y53863727D01*
X4279941Y53642133D01*
X4250003Y53414725D01*
X4250000Y53414701D01*
X500500Y53414701D01*
X500500Y54931308D01*
X505522Y54966241D01*
X508093Y54974996D01*
X512934Y54991484D01*
X544230Y55044230D01*
X1951073Y56451073D01*
X1979325Y56472223D01*
X2002414Y56484831D01*
X2061843Y56500000D01*
X9930808Y56500000D01*
X9965745Y56494976D01*
G37*
%TD.AperFunction*%
%TD*%
%TA.AperFunction,Conductor*%
%TO.N,/SOURCE2*%
G36*
X108300000Y32850000D02*
G01*
X108300000Y32849999D01*
X122049999Y19100000D01*
X122050000Y19100000D01*
X122400000Y18750000D01*
X122400000Y17200000D01*
X122000000Y16800000D01*
X118500000Y16800000D01*
X105500000Y29800000D01*
X105500000Y32000000D01*
X106400000Y32900000D01*
X108250000Y32900000D01*
X108300000Y32850000D01*
G37*
%TD.AperFunction*%
%TD*%
%TA.AperFunction,Conductor*%
%TO.N,Net-(J1-Pin_1)*%
G36*
X13116177Y93479815D02*
G01*
X13136819Y93463181D01*
X13863681Y92736319D01*
X13897166Y92674996D01*
X13900000Y92648638D01*
X13900000Y84051362D01*
X13880315Y83984323D01*
X13863681Y83963681D01*
X12936319Y83036319D01*
X12874996Y83002834D01*
X12848638Y83000000D01*
X9100000Y83000000D01*
X9099999Y82999999D01*
X8400000Y82300000D01*
X8400000Y78951362D01*
X8380315Y78884323D01*
X8363681Y78863681D01*
X7636319Y78136319D01*
X7574996Y78102834D01*
X7548638Y78100000D01*
X4451362Y78100000D01*
X4384323Y78119685D01*
X4363681Y78136319D01*
X3636319Y78863681D01*
X3602834Y78925004D01*
X3600000Y78951362D01*
X3600000Y80414694D01*
X4250000Y80414694D01*
X4250000Y80185305D01*
X4250001Y80185289D01*
X4279942Y79957862D01*
X4339318Y79736269D01*
X4427102Y79524340D01*
X4427106Y79524330D01*
X4541801Y79325673D01*
X4541810Y79325659D01*
X4598380Y79251934D01*
X5476212Y80129765D01*
X5487482Y80087708D01*
X5559890Y79962292D01*
X5662292Y79859890D01*
X5787708Y79787482D01*
X5829766Y79776212D01*
X4951934Y78898380D01*
X5025659Y78841810D01*
X5025673Y78841801D01*
X5224330Y78727106D01*
X5224340Y78727102D01*
X5436269Y78639318D01*
X5657862Y78579942D01*
X5885289Y78550001D01*
X5885306Y78550000D01*
X6114694Y78550000D01*
X6114710Y78550001D01*
X6342137Y78579942D01*
X6563730Y78639318D01*
X6775659Y78727102D01*
X6775669Y78727106D01*
X6974324Y78841799D01*
X6974331Y78841805D01*
X7048064Y78898380D01*
X7048064Y78898381D01*
X6170233Y79776212D01*
X6212292Y79787482D01*
X6337708Y79859890D01*
X6440110Y79962292D01*
X6512518Y80087708D01*
X6523787Y80129764D01*
X7401617Y79251934D01*
X7401618Y79251934D01*
X7458194Y79325666D01*
X7572893Y79524330D01*
X7572897Y79524340D01*
X7660681Y79736269D01*
X7720057Y79957862D01*
X7749998Y80185289D01*
X7750000Y80185305D01*
X7750000Y80414694D01*
X7749998Y80414710D01*
X7720057Y80642137D01*
X7660681Y80863730D01*
X7572897Y81075659D01*
X7572893Y81075668D01*
X7458197Y81274327D01*
X7458192Y81274334D01*
X7401617Y81348064D01*
X6523787Y80470234D01*
X6512518Y80512292D01*
X6440110Y80637708D01*
X6337708Y80740110D01*
X6212292Y80812518D01*
X6170234Y80823787D01*
X7048064Y81701617D01*
X6974334Y81758192D01*
X6974327Y81758197D01*
X6775668Y81872893D01*
X6775659Y81872897D01*
X6563730Y81960681D01*
X6342137Y82020057D01*
X6114710Y82049998D01*
X6114694Y82050000D01*
X5885306Y82050000D01*
X5885289Y82049998D01*
X5657862Y82020057D01*
X5436269Y81960681D01*
X5224340Y81872897D01*
X5224330Y81872893D01*
X5025666Y81758194D01*
X4951934Y81701618D01*
X4951934Y81701617D01*
X5829765Y80823787D01*
X5787708Y80812518D01*
X5662292Y80740110D01*
X5559890Y80637708D01*
X5487482Y80512292D01*
X5476212Y80470233D01*
X4598381Y81348064D01*
X4598380Y81348064D01*
X4541805Y81274331D01*
X4541799Y81274324D01*
X4427106Y81075669D01*
X4427102Y81075659D01*
X4339318Y80863730D01*
X4279942Y80642137D01*
X4250001Y80414710D01*
X4250000Y80414694D01*
X3600000Y80414694D01*
X3600000Y82299999D01*
X3600000Y82300000D01*
X2900000Y83000000D01*
X2899999Y83000000D01*
X1251362Y83000000D01*
X1184323Y83019685D01*
X1163681Y83036319D01*
X536819Y83663181D01*
X503334Y83724504D01*
X500500Y83750862D01*
X500500Y86250000D01*
X863930Y86250000D01*
X2662683Y86250000D01*
X2630000Y86085688D01*
X2630000Y85914312D01*
X2662683Y85750000D01*
X863930Y85750000D01*
X887642Y85569881D01*
X962283Y85291317D01*
X1072644Y85024883D01*
X1072648Y85024873D01*
X1216841Y84775123D01*
X1392402Y84546328D01*
X1392408Y84546321D01*
X1596321Y84342408D01*
X1596328Y84342402D01*
X1825123Y84166841D01*
X2074873Y84022648D01*
X2074883Y84022644D01*
X2341317Y83912283D01*
X2619881Y83837643D01*
X2905796Y83800000D01*
X3250000Y83800000D01*
X3250000Y85162683D01*
X3414312Y85130000D01*
X3585688Y85130000D01*
X3750000Y85162683D01*
X3750000Y83800000D01*
X4094203Y83800000D01*
X4380118Y83837643D01*
X4658682Y83912283D01*
X4925116Y84022644D01*
X4925126Y84022648D01*
X5174876Y84166841D01*
X5403671Y84342402D01*
X5403678Y84342408D01*
X5607591Y84546321D01*
X5607597Y84546328D01*
X5783158Y84775123D01*
X5927351Y85024873D01*
X5927355Y85024883D01*
X6037716Y85291317D01*
X6112357Y85569881D01*
X6136070Y85750000D01*
X4337317Y85750000D01*
X4370000Y85914312D01*
X4370000Y86085688D01*
X4337317Y86250000D01*
X6136070Y86250000D01*
X7863930Y86250000D01*
X9662683Y86250000D01*
X9630000Y86085688D01*
X9630000Y85914312D01*
X9662683Y85750000D01*
X7863930Y85750000D01*
X7887642Y85569881D01*
X7962283Y85291317D01*
X8072644Y85024883D01*
X8072648Y85024873D01*
X8216841Y84775123D01*
X8392402Y84546328D01*
X8392408Y84546321D01*
X8596321Y84342408D01*
X8596328Y84342402D01*
X8825123Y84166841D01*
X9074873Y84022648D01*
X9074883Y84022644D01*
X9341317Y83912283D01*
X9619881Y83837643D01*
X9905796Y83800000D01*
X10250000Y83800000D01*
X10250000Y85162683D01*
X10414312Y85130000D01*
X10585688Y85130000D01*
X10750000Y85162683D01*
X10750000Y83800000D01*
X11094203Y83800000D01*
X11380118Y83837643D01*
X11658682Y83912283D01*
X11925116Y84022644D01*
X11925126Y84022648D01*
X12174876Y84166841D01*
X12403671Y84342402D01*
X12403678Y84342408D01*
X12607591Y84546321D01*
X12607597Y84546328D01*
X12783158Y84775123D01*
X12927351Y85024873D01*
X12927355Y85024883D01*
X13037716Y85291317D01*
X13112357Y85569881D01*
X13136070Y85750000D01*
X11337317Y85750000D01*
X11370000Y85914312D01*
X11370000Y86085688D01*
X11337317Y86250000D01*
X13136070Y86250000D01*
X13112357Y86430118D01*
X13037716Y86708682D01*
X12927355Y86975116D01*
X12927351Y86975126D01*
X12783158Y87224876D01*
X12607597Y87453671D01*
X12607591Y87453678D01*
X12403678Y87657591D01*
X12403671Y87657597D01*
X12174876Y87833158D01*
X11925126Y87977351D01*
X11925116Y87977355D01*
X11658682Y88087716D01*
X11380118Y88162356D01*
X11094203Y88199999D01*
X11094189Y88200000D01*
X10750000Y88200000D01*
X10750000Y86837316D01*
X10585688Y86870000D01*
X10414312Y86870000D01*
X10250000Y86837316D01*
X10250000Y88200000D01*
X9905811Y88200000D01*
X9905796Y88199999D01*
X9619881Y88162356D01*
X9341317Y88087716D01*
X9074883Y87977355D01*
X9074873Y87977351D01*
X8825123Y87833158D01*
X8596328Y87657597D01*
X8596321Y87657591D01*
X8392408Y87453678D01*
X8392402Y87453671D01*
X8216841Y87224876D01*
X8072648Y86975126D01*
X8072644Y86975116D01*
X7962283Y86708682D01*
X7887642Y86430118D01*
X7863930Y86250000D01*
X6136070Y86250000D01*
X6112357Y86430118D01*
X6037716Y86708682D01*
X5927355Y86975116D01*
X5927351Y86975126D01*
X5783158Y87224876D01*
X5607597Y87453671D01*
X5607591Y87453678D01*
X5403678Y87657591D01*
X5403671Y87657597D01*
X5174876Y87833158D01*
X4925126Y87977351D01*
X4925116Y87977355D01*
X4658682Y88087716D01*
X4380118Y88162356D01*
X4094203Y88199999D01*
X4094189Y88200000D01*
X3750000Y88200000D01*
X3750000Y86837316D01*
X3585688Y86870000D01*
X3414312Y86870000D01*
X3250000Y86837316D01*
X3250000Y88200000D01*
X2905811Y88200000D01*
X2905796Y88199999D01*
X2619881Y88162356D01*
X2341317Y88087716D01*
X2074883Y87977355D01*
X2074873Y87977351D01*
X1825123Y87833158D01*
X1596328Y87657597D01*
X1596321Y87657591D01*
X1392408Y87453678D01*
X1392402Y87453671D01*
X1216841Y87224876D01*
X1072648Y86975126D01*
X1072644Y86975116D01*
X962283Y86708682D01*
X887642Y86430118D01*
X863930Y86250000D01*
X500500Y86250000D01*
X500500Y91250000D01*
X863930Y91250000D01*
X2662683Y91250000D01*
X2630000Y91085688D01*
X2630000Y90914312D01*
X2662683Y90750000D01*
X863930Y90750000D01*
X887642Y90569881D01*
X962283Y90291317D01*
X1072644Y90024883D01*
X1072648Y90024873D01*
X1216841Y89775123D01*
X1392402Y89546328D01*
X1392408Y89546321D01*
X1596321Y89342408D01*
X1596328Y89342402D01*
X1825123Y89166841D01*
X2074873Y89022648D01*
X2074883Y89022644D01*
X2341317Y88912283D01*
X2619881Y88837643D01*
X2905796Y88800000D01*
X3250000Y88800000D01*
X3250000Y90162683D01*
X3414312Y90130000D01*
X3585688Y90130000D01*
X3750000Y90162683D01*
X3750000Y88800000D01*
X4094203Y88800000D01*
X4380118Y88837643D01*
X4658682Y88912283D01*
X4925116Y89022644D01*
X4925126Y89022648D01*
X5174876Y89166841D01*
X5403671Y89342402D01*
X5403678Y89342408D01*
X5607591Y89546321D01*
X5607597Y89546328D01*
X5783158Y89775123D01*
X5927351Y90024873D01*
X5927355Y90024883D01*
X6037716Y90291317D01*
X6112357Y90569881D01*
X6136070Y90750000D01*
X4337317Y90750000D01*
X4370000Y90914312D01*
X4370000Y91085688D01*
X4337317Y91250000D01*
X6136070Y91250000D01*
X7863930Y91250000D01*
X9662683Y91250000D01*
X9630000Y91085688D01*
X9630000Y90914312D01*
X9662683Y90750000D01*
X7863930Y90750000D01*
X7887642Y90569881D01*
X7962283Y90291317D01*
X8072644Y90024883D01*
X8072648Y90024873D01*
X8216841Y89775123D01*
X8392402Y89546328D01*
X8392408Y89546321D01*
X8596321Y89342408D01*
X8596328Y89342402D01*
X8825123Y89166841D01*
X9074873Y89022648D01*
X9074883Y89022644D01*
X9341317Y88912283D01*
X9619881Y88837643D01*
X9905796Y88800000D01*
X10250000Y88800000D01*
X10250000Y90162683D01*
X10414312Y90130000D01*
X10585688Y90130000D01*
X10750000Y90162683D01*
X10750000Y88800000D01*
X11094203Y88800000D01*
X11380118Y88837643D01*
X11658682Y88912283D01*
X11925116Y89022644D01*
X11925126Y89022648D01*
X12174876Y89166841D01*
X12403671Y89342402D01*
X12403678Y89342408D01*
X12607591Y89546321D01*
X12607597Y89546328D01*
X12783158Y89775123D01*
X12927351Y90024873D01*
X12927355Y90024883D01*
X13037716Y90291317D01*
X13112357Y90569881D01*
X13136070Y90750000D01*
X11337317Y90750000D01*
X11370000Y90914312D01*
X11370000Y91085688D01*
X11337317Y91250000D01*
X13136070Y91250000D01*
X13112357Y91430118D01*
X13037716Y91708682D01*
X12927355Y91975116D01*
X12927351Y91975126D01*
X12783158Y92224876D01*
X12607597Y92453671D01*
X12607591Y92453678D01*
X12403678Y92657591D01*
X12403671Y92657597D01*
X12174876Y92833158D01*
X11925126Y92977351D01*
X11925116Y92977355D01*
X11658682Y93087716D01*
X11380118Y93162356D01*
X11094203Y93199999D01*
X11094189Y93200000D01*
X10750000Y93200000D01*
X10750000Y91837316D01*
X10585688Y91870000D01*
X10414312Y91870000D01*
X10250000Y91837316D01*
X10250000Y93200000D01*
X9905811Y93200000D01*
X9905796Y93199999D01*
X9619881Y93162356D01*
X9341317Y93087716D01*
X9074883Y92977355D01*
X9074873Y92977351D01*
X8825123Y92833158D01*
X8596328Y92657597D01*
X8596321Y92657591D01*
X8392408Y92453678D01*
X8392402Y92453671D01*
X8216841Y92224876D01*
X8072648Y91975126D01*
X8072644Y91975116D01*
X7962283Y91708682D01*
X7887642Y91430118D01*
X7863930Y91250000D01*
X6136070Y91250000D01*
X6112357Y91430118D01*
X6037716Y91708682D01*
X5927355Y91975116D01*
X5927351Y91975126D01*
X5783158Y92224876D01*
X5607597Y92453671D01*
X5607591Y92453678D01*
X5403678Y92657591D01*
X5403671Y92657597D01*
X5174876Y92833158D01*
X4925126Y92977351D01*
X4925116Y92977355D01*
X4658682Y93087716D01*
X4380118Y93162356D01*
X4094203Y93199999D01*
X4094189Y93200000D01*
X3750000Y93200000D01*
X3750000Y91837316D01*
X3585688Y91870000D01*
X3414312Y91870000D01*
X3250000Y91837316D01*
X3250000Y93200000D01*
X2905811Y93200000D01*
X2905796Y93199999D01*
X2619881Y93162356D01*
X2341317Y93087716D01*
X2074883Y92977355D01*
X2074873Y92977351D01*
X1825123Y92833158D01*
X1596328Y92657597D01*
X1596321Y92657591D01*
X1392408Y92453678D01*
X1392402Y92453671D01*
X1216841Y92224876D01*
X1072648Y91975126D01*
X1072644Y91975116D01*
X962283Y91708682D01*
X887642Y91430118D01*
X863930Y91250000D01*
X500500Y91250000D01*
X500500Y92849138D01*
X520185Y92916177D01*
X536819Y92936819D01*
X1063181Y93463181D01*
X1124504Y93496666D01*
X1150862Y93499500D01*
X13049138Y93499500D01*
X13116177Y93479815D01*
G37*
%TD.AperFunction*%
%TD*%
%TA.AperFunction,Conductor*%
%TO.N,Net-(J5-Pin_1)*%
G36*
X74015677Y49980315D02*
G01*
X74036319Y49963681D01*
X74963681Y49036319D01*
X74997166Y48974996D01*
X75000000Y48948638D01*
X75000000Y47099999D01*
X76799999Y45300000D01*
X76800000Y45300000D01*
X105048638Y45300000D01*
X105115677Y45280315D01*
X105136319Y45263681D01*
X106499999Y43900000D01*
X106500000Y43900000D01*
X128548638Y43900000D01*
X128615677Y43880315D01*
X128636319Y43863681D01*
X129463181Y43036819D01*
X129496666Y42975496D01*
X129499500Y42949138D01*
X129499500Y35950862D01*
X129479815Y35883823D01*
X129463181Y35863181D01*
X128636319Y35036319D01*
X128574996Y35002834D01*
X128548638Y35000000D01*
X118951362Y35000000D01*
X118884323Y35019685D01*
X118863681Y35036319D01*
X117300000Y36600000D01*
X117299999Y36600000D01*
X109548959Y36600000D01*
X109481920Y36619685D01*
X109464248Y36633446D01*
X109192520Y36887643D01*
X106827587Y39100000D01*
X74351362Y39100000D01*
X74321921Y39108644D01*
X74291935Y39115168D01*
X74286919Y39118922D01*
X74284323Y39119685D01*
X74263681Y39136319D01*
X73389426Y40010574D01*
X73305797Y40094203D01*
X119800000Y40094203D01*
X119800000Y39750000D01*
X121162683Y39750000D01*
X121130000Y39585688D01*
X121130000Y39414312D01*
X121162683Y39250000D01*
X119800000Y39250000D01*
X119800000Y38905796D01*
X119837643Y38619881D01*
X119912283Y38341317D01*
X120022644Y38074883D01*
X120022648Y38074873D01*
X120166841Y37825123D01*
X120342402Y37596328D01*
X120342408Y37596321D01*
X120546321Y37392408D01*
X120546328Y37392402D01*
X120775123Y37216841D01*
X121024873Y37072648D01*
X121024883Y37072644D01*
X121291317Y36962283D01*
X121569881Y36887643D01*
X121749999Y36863928D01*
X121750000Y36863928D01*
X121750000Y38662683D01*
X121914312Y38630000D01*
X122085688Y38630000D01*
X122250000Y38662683D01*
X122250000Y36863928D01*
X122430118Y36887643D01*
X122708682Y36962283D01*
X122975116Y37072644D01*
X122975126Y37072648D01*
X123224876Y37216841D01*
X123453671Y37392402D01*
X123453678Y37392408D01*
X123657591Y37596321D01*
X123657597Y37596328D01*
X123833158Y37825123D01*
X123977351Y38074873D01*
X123977355Y38074883D01*
X124087716Y38341317D01*
X124162356Y38619881D01*
X124199999Y38905796D01*
X124200000Y38905810D01*
X124200000Y39250000D01*
X122837317Y39250000D01*
X122870000Y39414312D01*
X122870000Y39585688D01*
X122837317Y39750000D01*
X124200000Y39750000D01*
X124200000Y40094189D01*
X124199999Y40094203D01*
X124800000Y40094203D01*
X124800000Y39750000D01*
X126162683Y39750000D01*
X126130000Y39585688D01*
X126130000Y39414312D01*
X126162683Y39250000D01*
X124800000Y39250000D01*
X124800000Y38905796D01*
X124837643Y38619881D01*
X124912283Y38341317D01*
X125022644Y38074883D01*
X125022648Y38074873D01*
X125166841Y37825123D01*
X125342402Y37596328D01*
X125342408Y37596321D01*
X125546321Y37392408D01*
X125546328Y37392402D01*
X125775123Y37216841D01*
X126024873Y37072648D01*
X126024883Y37072644D01*
X126291317Y36962283D01*
X126569881Y36887643D01*
X126749999Y36863928D01*
X126750000Y36863928D01*
X126750000Y38662683D01*
X126914312Y38630000D01*
X127085688Y38630000D01*
X127250000Y38662683D01*
X127250000Y36863928D01*
X127430118Y36887643D01*
X127708682Y36962283D01*
X127975116Y37072644D01*
X127975126Y37072648D01*
X128224876Y37216841D01*
X128453671Y37392402D01*
X128453678Y37392408D01*
X128657591Y37596321D01*
X128657597Y37596328D01*
X128833158Y37825123D01*
X128977351Y38074873D01*
X128977355Y38074883D01*
X129087716Y38341317D01*
X129162356Y38619881D01*
X129199999Y38905796D01*
X129200000Y38905810D01*
X129200000Y39250000D01*
X127837317Y39250000D01*
X127870000Y39414312D01*
X127870000Y39585688D01*
X127837317Y39750000D01*
X129200000Y39750000D01*
X129200000Y40094189D01*
X129199999Y40094203D01*
X129162356Y40380118D01*
X129087716Y40658682D01*
X128977355Y40925116D01*
X128977351Y40925126D01*
X128833158Y41174876D01*
X128657597Y41403671D01*
X128657591Y41403678D01*
X128453678Y41607591D01*
X128453671Y41607597D01*
X128224876Y41783158D01*
X127975126Y41927351D01*
X127975116Y41927355D01*
X127708682Y42037716D01*
X127430118Y42112357D01*
X127250000Y42136069D01*
X127250000Y40337316D01*
X127085688Y40370000D01*
X126914312Y40370000D01*
X126750000Y40337316D01*
X126750000Y42136070D01*
X126569881Y42112357D01*
X126291317Y42037716D01*
X126024883Y41927355D01*
X126024873Y41927351D01*
X125775123Y41783158D01*
X125546328Y41607597D01*
X125546321Y41607591D01*
X125342408Y41403678D01*
X125342402Y41403671D01*
X125166841Y41174876D01*
X125022648Y40925126D01*
X125022644Y40925116D01*
X124912283Y40658682D01*
X124837643Y40380118D01*
X124800000Y40094203D01*
X124199999Y40094203D01*
X124162356Y40380118D01*
X124087716Y40658682D01*
X123977355Y40925116D01*
X123977351Y40925126D01*
X123833158Y41174876D01*
X123657597Y41403671D01*
X123657591Y41403678D01*
X123453678Y41607591D01*
X123453671Y41607597D01*
X123224876Y41783158D01*
X122975126Y41927351D01*
X122975116Y41927355D01*
X122708682Y42037716D01*
X122430118Y42112357D01*
X122250000Y42136069D01*
X122250000Y40337316D01*
X122085688Y40370000D01*
X121914312Y40370000D01*
X121750000Y40337316D01*
X121750000Y42136070D01*
X121569881Y42112357D01*
X121291317Y42037716D01*
X121024883Y41927355D01*
X121024873Y41927351D01*
X120775123Y41783158D01*
X120546328Y41607597D01*
X120546321Y41607591D01*
X120342408Y41403678D01*
X120342402Y41403671D01*
X120166841Y41174876D01*
X120022648Y40925126D01*
X120022644Y40925116D01*
X119912283Y40658682D01*
X119837643Y40380118D01*
X119800000Y40094203D01*
X73305797Y40094203D01*
X73019882Y40380118D01*
X72200000Y41200000D01*
X72199999Y41200000D01*
X66051362Y41200000D01*
X65984323Y41219685D01*
X65963681Y41236319D01*
X65036319Y42163681D01*
X65002834Y42225004D01*
X65000000Y42251362D01*
X65000000Y47124533D01*
X66100000Y47124533D01*
X66100000Y46875466D01*
X66132508Y46628536D01*
X66196973Y46387950D01*
X66292283Y46157851D01*
X66292285Y46157847D01*
X66416823Y45942143D01*
X66491399Y45844953D01*
X66491400Y45844953D01*
X67455799Y46809352D01*
X67464185Y46778058D01*
X67539885Y46646942D01*
X67646942Y46539885D01*
X67778058Y46464185D01*
X67809353Y46455799D01*
X66844953Y45491400D01*
X66844953Y45491399D01*
X66942143Y45416823D01*
X67157847Y45292285D01*
X67157851Y45292283D01*
X67387950Y45196973D01*
X67628536Y45132508D01*
X67875466Y45100000D01*
X68124534Y45100000D01*
X68371463Y45132508D01*
X68612049Y45196973D01*
X68842148Y45292283D01*
X68842159Y45292288D01*
X69057841Y45416813D01*
X69057849Y45416819D01*
X69155045Y45491400D01*
X68190646Y46455799D01*
X68221942Y46464185D01*
X68353058Y46539885D01*
X68460115Y46646942D01*
X68535815Y46778058D01*
X68544200Y46809351D01*
X69508598Y45844953D01*
X69583180Y45942150D01*
X69583186Y45942158D01*
X69707711Y46157840D01*
X69707716Y46157851D01*
X69803026Y46387950D01*
X69867491Y46628536D01*
X69877061Y46701225D01*
X69905327Y46765122D01*
X69963652Y46803593D01*
X70033517Y46804424D01*
X70092740Y46767352D01*
X70122519Y46704146D01*
X70122939Y46701225D01*
X70132508Y46628536D01*
X70196973Y46387950D01*
X70292283Y46157851D01*
X70292285Y46157847D01*
X70416823Y45942143D01*
X70491399Y45844953D01*
X70491400Y45844953D01*
X71455799Y46809352D01*
X71464185Y46778058D01*
X71539885Y46646942D01*
X71646942Y46539885D01*
X71778058Y46464185D01*
X71809353Y46455799D01*
X70844953Y45491400D01*
X70844953Y45491399D01*
X70942143Y45416823D01*
X71157847Y45292285D01*
X71157851Y45292283D01*
X71387950Y45196973D01*
X71628536Y45132508D01*
X71875466Y45100000D01*
X72124534Y45100000D01*
X72371463Y45132508D01*
X72612049Y45196973D01*
X72842148Y45292283D01*
X72842159Y45292288D01*
X73057841Y45416813D01*
X73057849Y45416819D01*
X73155045Y45491400D01*
X72190646Y46455799D01*
X72221942Y46464185D01*
X72353058Y46539885D01*
X72460115Y46646942D01*
X72535815Y46778058D01*
X72544200Y46809351D01*
X73508598Y45844953D01*
X73583180Y45942150D01*
X73583186Y45942158D01*
X73707711Y46157840D01*
X73707716Y46157851D01*
X73803026Y46387950D01*
X73867491Y46628536D01*
X73900000Y46875466D01*
X73900000Y47124533D01*
X73867491Y47371463D01*
X73803026Y47612049D01*
X73707716Y47842148D01*
X73707711Y47842159D01*
X73583178Y48057855D01*
X73508600Y48155045D01*
X73508597Y48155045D01*
X72544200Y47190648D01*
X72535815Y47221942D01*
X72460115Y47353058D01*
X72353058Y47460115D01*
X72221942Y47535815D01*
X72190647Y47544200D01*
X73155045Y48508597D01*
X73155045Y48508600D01*
X73057855Y48583178D01*
X72842159Y48707711D01*
X72842148Y48707716D01*
X72612049Y48803026D01*
X72371463Y48867491D01*
X72124534Y48900000D01*
X71875466Y48900000D01*
X71628536Y48867491D01*
X71387950Y48803026D01*
X71157851Y48707716D01*
X71157840Y48707711D01*
X70942158Y48583186D01*
X70942150Y48583180D01*
X70844953Y48508598D01*
X71809352Y47544200D01*
X71778058Y47535815D01*
X71646942Y47460115D01*
X71539885Y47353058D01*
X71464185Y47221942D01*
X71455799Y47190646D01*
X70491400Y48155045D01*
X70416819Y48057849D01*
X70416813Y48057841D01*
X70292288Y47842159D01*
X70292283Y47842148D01*
X70196973Y47612049D01*
X70132508Y47371463D01*
X70122939Y47298774D01*
X70094673Y47234877D01*
X70036348Y47196406D01*
X69966484Y47195575D01*
X69907260Y47232647D01*
X69877481Y47295852D01*
X69877061Y47298774D01*
X69867491Y47371463D01*
X69803026Y47612049D01*
X69707716Y47842148D01*
X69707711Y47842159D01*
X69583178Y48057855D01*
X69508600Y48155045D01*
X69508597Y48155045D01*
X68544200Y47190648D01*
X68535815Y47221942D01*
X68460115Y47353058D01*
X68353058Y47460115D01*
X68221942Y47535815D01*
X68190647Y47544200D01*
X69155045Y48508597D01*
X69155045Y48508600D01*
X69057855Y48583178D01*
X68842159Y48707711D01*
X68842148Y48707716D01*
X68612049Y48803026D01*
X68371463Y48867491D01*
X68124534Y48900000D01*
X67875466Y48900000D01*
X67628536Y48867491D01*
X67387950Y48803026D01*
X67157851Y48707716D01*
X67157840Y48707711D01*
X66942158Y48583186D01*
X66942150Y48583180D01*
X66844953Y48508598D01*
X67809352Y47544200D01*
X67778058Y47535815D01*
X67646942Y47460115D01*
X67539885Y47353058D01*
X67464185Y47221942D01*
X67455799Y47190646D01*
X66491400Y48155045D01*
X66416819Y48057849D01*
X66416813Y48057841D01*
X66292288Y47842159D01*
X66292283Y47842148D01*
X66196973Y47612049D01*
X66132508Y47371463D01*
X66100000Y47124533D01*
X65000000Y47124533D01*
X65000000Y48848638D01*
X65019685Y48915677D01*
X65036319Y48936319D01*
X66063681Y49963681D01*
X66125004Y49997166D01*
X66151362Y50000000D01*
X73948638Y50000000D01*
X74015677Y49980315D01*
G37*
%TD.AperFunction*%
%TD*%
%TA.AperFunction,Conductor*%
%TO.N,/SOURCE2*%
G36*
X20235668Y19001099D02*
G01*
X20243538Y18996828D01*
X20246147Y18989463D01*
X20246147Y17010536D01*
X20242720Y17002263D01*
X20235670Y16998901D01*
X18349152Y16801023D01*
X18340568Y16803568D01*
X18336688Y16809430D01*
X17996072Y17996775D01*
X17996072Y18003226D01*
X18336688Y19190567D01*
X18342262Y19197574D01*
X18349154Y19198976D01*
X20235668Y19001099D01*
G37*
%TD.AperFunction*%
%TD*%
%TA.AperFunction,Conductor*%
%TO.N,/SOURCE1*%
G36*
X18235668Y58001099D02*
G01*
X18243538Y57996828D01*
X18246147Y57989463D01*
X18246147Y56010536D01*
X18242720Y56002263D01*
X18235670Y55998901D01*
X16349152Y55801023D01*
X16340568Y55803568D01*
X16336688Y55809430D01*
X15996072Y56996775D01*
X15996072Y57003226D01*
X16336688Y58190567D01*
X16342262Y58197574D01*
X16349154Y58198976D01*
X18235668Y58001099D01*
G37*
%TD.AperFunction*%
%TD*%
M02*
