%TF.GenerationSoftware,KiCad,Pcbnew,10.0.1*%
%TF.CreationDate,2026-08-07T23:35:23+09:00*%
%TF.ProjectId,AMP_BD_V2,414d505f-4244-45f5-9632-2e6b69636164,rev?*%
%TF.SameCoordinates,Original*%
%TF.FileFunction,Paste,Top*%
%TF.FilePolarity,Positive*%
%FSLAX46Y46*%
G04 Gerber Fmt 4.6, Leading zero omitted, Abs format (unit mm)*
G04 Created by KiCad (PCBNEW 10.0.1) date 2026-08-07 23:35:23*
%MOMM*%
%LPD*%
G01*
G04 APERTURE LIST*
G04 Aperture macros list*
%AMRoundRect*
0 Rectangle with rounded corners*
0 $1 Rounding radius*
0 $2 $3 $4 $5 $6 $7 $8 $9 X,Y pos of 4 corners*
0 Add a 4 corners polygon primitive as box body*
4,1,4,$2,$3,$4,$5,$6,$7,$8,$9,$2,$3,0*
0 Add four circle primitives for the rounded corners*
1,1,$1+$1,$2,$3*
1,1,$1+$1,$4,$5*
1,1,$1+$1,$6,$7*
1,1,$1+$1,$8,$9*
0 Add four rect primitives between the rounded corners*
20,1,$1+$1,$2,$3,$4,$5,0*
20,1,$1+$1,$4,$5,$6,$7,0*
20,1,$1+$1,$6,$7,$8,$9,0*
20,1,$1+$1,$8,$9,$2,$3,0*%
G04 Aperture macros list end*
%ADD10RoundRect,0.249999X1.425001X-0.450001X1.425001X0.450001X-1.425001X0.450001X-1.425001X-0.450001X0*%
%ADD11RoundRect,0.249999X-1.425001X0.450001X-1.425001X-0.450001X1.425001X-0.450001X1.425001X0.450001X0*%
%ADD12RoundRect,0.150000X0.750000X-0.530000X0.750000X0.530000X-0.750000X0.530000X-0.750000X-0.530000X0*%
%ADD13RoundRect,0.150000X0.530000X0.750000X-0.530000X0.750000X-0.530000X-0.750000X0.530000X-0.750000X0*%
%ADD14RoundRect,0.271739X-1.128261X0.978261X-1.128261X-0.978261X1.128261X-0.978261X1.128261X0.978261X0*%
%ADD15RoundRect,0.150000X-0.530000X-0.750000X0.530000X-0.750000X0.530000X0.750000X-0.530000X0.750000X0*%
G04 APERTURE END LIST*
D10*
%TO.C,R20*%
X11000000Y13050000D03*
X11000000Y6950000D03*
%TD*%
%TO.C,R2*%
X30500000Y80550000D03*
X30500000Y86650000D03*
%TD*%
%TO.C,R8*%
X26000000Y66950000D03*
X26000000Y73050000D03*
%TD*%
%TO.C,R5*%
X102500000Y80550000D03*
X102500000Y86650000D03*
%TD*%
D11*
%TO.C,R17*%
X89500000Y13450000D03*
X89500000Y7350000D03*
%TD*%
%TO.C,R15*%
X41500000Y13450000D03*
X41500000Y7350000D03*
%TD*%
D10*
%TO.C,R19*%
X127600000Y16950000D03*
X127600000Y23050000D03*
%TD*%
D11*
%TO.C,R18*%
X113500000Y13450000D03*
X113500000Y7350000D03*
%TD*%
D10*
%TO.C,R6*%
X127600000Y72950000D03*
X127600000Y79050000D03*
%TD*%
D12*
%TO.C,C3*%
X30500000Y61350000D03*
X30500000Y64650000D03*
%TD*%
D10*
%TO.C,R21*%
X6500000Y6950000D03*
X6500000Y13050000D03*
%TD*%
D13*
%TO.C,C2*%
X126650000Y68000000D03*
X123350000Y68000000D03*
%TD*%
D10*
%TO.C,R4*%
X78500000Y80550000D03*
X78500000Y86650000D03*
%TD*%
D14*
%TO.C,D1*%
X122600000Y78350000D03*
X122600000Y73650000D03*
%TD*%
%TO.C,D2*%
X122600000Y22350000D03*
X122600000Y17650000D03*
%TD*%
D10*
%TO.C,R3*%
X54500000Y80550000D03*
X54500000Y86650000D03*
%TD*%
D13*
%TO.C,C5*%
X126650000Y12000000D03*
X123350000Y12000000D03*
%TD*%
D11*
%TO.C,R16*%
X65500000Y13450000D03*
X65500000Y7350000D03*
%TD*%
D10*
%TO.C,R7*%
X30500000Y66950000D03*
X30500000Y73050000D03*
%TD*%
D15*
%TO.C,C6*%
X7050000Y3500000D03*
X10350000Y3500000D03*
%TD*%
M02*
