%TF.GenerationSoftware,KiCad,Pcbnew,9.0.7*%
%TF.CreationDate,2026-02-24T00:50:47+09:00*%
%TF.ProjectId,POWER_BD_SV3,504f5745-525f-4424-945f-5356332e6b69,rev?*%
%TF.SameCoordinates,Original*%
%TF.FileFunction,Paste,Top*%
%TF.FilePolarity,Positive*%
%FSLAX46Y46*%
G04 Gerber Fmt 4.6, Leading zero omitted, Abs format (unit mm)*
G04 Created by KiCad (PCBNEW 9.0.7) date 2026-02-24 00:50:47*
%MOMM*%
%LPD*%
G01*
G04 APERTURE LIST*
G04 Aperture macros list*
%AMRoundRect*
0 Rectangle with rounded corners*
0 $1 Rounding radius*
0 $2 $3 $4 $5 $6 $7 $8 $9 X,Y pos of 4 corners*
0 Add a 4 corners polygon primitive as box body*
4,1,4,$2,$3,$4,$5,$6,$7,$8,$9,$2,$3,0*
0 Add four circle primitives for the rounded corners*
1,1,$1+$1,$2,$3*
1,1,$1+$1,$4,$5*
1,1,$1+$1,$6,$7*
1,1,$1+$1,$8,$9*
0 Add four rect primitives between the rounded corners*
20,1,$1+$1,$2,$3,$4,$5,0*
20,1,$1+$1,$4,$5,$6,$7,0*
20,1,$1+$1,$6,$7,$8,$9,0*
20,1,$1+$1,$8,$9,$2,$3,0*%
G04 Aperture macros list end*
%ADD10RoundRect,0.150000X-0.530000X-0.750000X0.530000X-0.750000X0.530000X0.750000X-0.530000X0.750000X0*%
%ADD11RoundRect,0.150000X-0.750000X0.530000X-0.750000X-0.530000X0.750000X-0.530000X0.750000X0.530000X0*%
%ADD12RoundRect,0.150000X0.530000X0.750000X-0.530000X0.750000X-0.530000X-0.750000X0.530000X-0.750000X0*%
%ADD13RoundRect,0.150000X0.750000X-0.530000X0.750000X0.530000X-0.750000X0.530000X-0.750000X-0.530000X0*%
%ADD14RoundRect,0.150000X-0.480000X-0.550000X0.480000X-0.550000X0.480000X0.550000X-0.480000X0.550000X0*%
G04 APERTURE END LIST*
D10*
%TO.C,R2*%
X116350000Y22500000D03*
X119650000Y22500000D03*
%TD*%
%TO.C,R23*%
X105850000Y3500000D03*
X109150000Y3500000D03*
%TD*%
%TO.C,C13*%
X61850000Y12000000D03*
X65150000Y12000000D03*
%TD*%
D11*
%TO.C,C6*%
X48500000Y57450000D03*
X48500000Y54150000D03*
%TD*%
D10*
%TO.C,R20*%
X53850000Y18000000D03*
X57150000Y18000000D03*
%TD*%
%TO.C,C15*%
X61850000Y24000000D03*
X65150000Y24000000D03*
%TD*%
D12*
%TO.C,R21*%
X99650000Y3500000D03*
X96350000Y3500000D03*
%TD*%
%TO.C,R10*%
X77650000Y13000000D03*
X74350000Y13000000D03*
%TD*%
%TO.C,R22*%
X8650000Y57000000D03*
X5350000Y57000000D03*
%TD*%
%TO.C,R11*%
X77650000Y19000000D03*
X74350000Y19000000D03*
%TD*%
%TO.C,C9*%
X56140000Y33590000D03*
X52840000Y33590000D03*
%TD*%
D10*
%TO.C,R15*%
X36350000Y56000000D03*
X39650000Y56000000D03*
%TD*%
D13*
%TO.C,C28*%
X23400000Y13450000D03*
X23400000Y16750000D03*
%TD*%
D10*
%TO.C,R19*%
X61850000Y27000000D03*
X65150000Y27000000D03*
%TD*%
D13*
%TO.C,C30*%
X17900000Y13450000D03*
X17900000Y16750000D03*
%TD*%
D12*
%TO.C,R12*%
X77650000Y22000000D03*
X74350000Y22000000D03*
%TD*%
%TO.C,C26*%
X23650000Y70000000D03*
X20350000Y70000000D03*
%TD*%
D11*
%TO.C,R7*%
X63000000Y46650000D03*
X63000000Y43350000D03*
%TD*%
D10*
%TO.C,R17*%
X61850000Y21000000D03*
X65150000Y21000000D03*
%TD*%
%TO.C,R13*%
X74350000Y25000000D03*
X77650000Y25000000D03*
%TD*%
D13*
%TO.C,R6*%
X109000000Y19350000D03*
X109000000Y22650000D03*
%TD*%
D10*
%TO.C,R16*%
X45350000Y22000000D03*
X48650000Y22000000D03*
%TD*%
D13*
%TO.C,R8*%
X66000000Y43350000D03*
X66000000Y46650000D03*
%TD*%
%TO.C,C27*%
X26000000Y41550000D03*
X26000000Y44850000D03*
%TD*%
D12*
%TO.C,C8*%
X119650000Y19000000D03*
X116350000Y19000000D03*
%TD*%
%TO.C,R9*%
X77650000Y16000000D03*
X74350000Y16000000D03*
%TD*%
D14*
%TO.C,LED2*%
X6170000Y52000000D03*
X8230000Y52000000D03*
%TD*%
D11*
%TO.C,R14*%
X17500000Y87150000D03*
X17500000Y83850000D03*
%TD*%
D10*
%TO.C,C11*%
X61850000Y15000000D03*
X65150000Y15000000D03*
%TD*%
D11*
%TO.C,C5*%
X53000000Y57450000D03*
X53000000Y54150000D03*
%TD*%
D12*
%TO.C,R18*%
X65150000Y30000000D03*
X61850000Y30000000D03*
%TD*%
D13*
%TO.C,R27*%
X89500000Y6850000D03*
X89500000Y10150000D03*
%TD*%
D12*
%TO.C,C12*%
X87150000Y19000000D03*
X83850000Y19000000D03*
%TD*%
%TO.C,C19*%
X65150000Y18000000D03*
X61850000Y18000000D03*
%TD*%
D14*
%TO.C,LED1*%
X90970000Y3500000D03*
X93030000Y3500000D03*
%TD*%
M02*
