%TF.GenerationSoftware,KiCad,Pcbnew,9.0.7*%
%TF.CreationDate,2026-02-24T00:51:52+09:00*%
%TF.ProjectId,POWER_BD_SV3,504f5745-525f-4424-945f-5356332e6b69,rev?*%
%TF.SameCoordinates,Original*%
%TF.FileFunction,Drillmap*%
%TF.FilePolarity,Positive*%
%FSLAX45Y45*%
G04 Gerber Fmt 4.5, Leading zero omitted, Abs format (unit mm)*
G04 Created by KiCad (PCBNEW 9.0.7) date 2026-02-24 00:51:52*
%MOMM*%
%LPD*%
G01*
G04 APERTURE LIST*
%ADD10C,0.050000*%
%ADD11C,0.100000*%
%ADD12C,0.200000*%
%ADD13C,0.350000*%
G04 APERTURE END LIST*
D10*
X7720000Y3420000D02*
X8720000Y3420000D01*
X8720000Y3580000D02*
X7720000Y3580000D01*
X7720000Y3420000D02*
G75*
G02*
X7720000Y3580000I0J80000D01*
G01*
D11*
X0Y9800000D02*
X15000000Y9800000D01*
X15000000Y0D01*
X0Y0D01*
X0Y9800000D01*
D10*
X8720000Y3580000D02*
G75*
G02*
X8720000Y3420000I0J-80000D01*
G01*
D12*
D13*
X13425000Y675000D02*
X13775000Y325000D01*
X13775000Y675000D02*
X13425000Y325000D01*
D12*
X255777Y-316484D02*
X255777Y-116484D01*
X255777Y-116484D02*
X303396Y-116484D01*
X303396Y-116484D02*
X331967Y-126008D01*
X331967Y-126008D02*
X351015Y-145055D01*
X351015Y-145055D02*
X360539Y-164103D01*
X360539Y-164103D02*
X370062Y-202198D01*
X370062Y-202198D02*
X370062Y-230769D01*
X370062Y-230769D02*
X360539Y-268865D01*
X360539Y-268865D02*
X351015Y-287912D01*
X351015Y-287912D02*
X331967Y-306960D01*
X331967Y-306960D02*
X303396Y-316484D01*
X303396Y-316484D02*
X255777Y-316484D01*
X455777Y-316484D02*
X455777Y-183150D01*
X455777Y-221246D02*
X465301Y-202198D01*
X465301Y-202198D02*
X474824Y-192674D01*
X474824Y-192674D02*
X493872Y-183150D01*
X493872Y-183150D02*
X512920Y-183150D01*
X579586Y-316484D02*
X579586Y-183150D01*
X579586Y-116484D02*
X570063Y-126008D01*
X570063Y-126008D02*
X579586Y-135531D01*
X579586Y-135531D02*
X589110Y-126008D01*
X589110Y-126008D02*
X579586Y-116484D01*
X579586Y-116484D02*
X579586Y-135531D01*
X703396Y-316484D02*
X684348Y-306960D01*
X684348Y-306960D02*
X674824Y-287912D01*
X674824Y-287912D02*
X674824Y-116484D01*
X808158Y-316484D02*
X789110Y-306960D01*
X789110Y-306960D02*
X779586Y-287912D01*
X779586Y-287912D02*
X779586Y-116484D01*
X1036729Y-316484D02*
X1036729Y-116484D01*
X1036729Y-116484D02*
X1103396Y-259341D01*
X1103396Y-259341D02*
X1170063Y-116484D01*
X1170063Y-116484D02*
X1170063Y-316484D01*
X1351015Y-316484D02*
X1351015Y-211722D01*
X1351015Y-211722D02*
X1341491Y-192674D01*
X1341491Y-192674D02*
X1322444Y-183150D01*
X1322444Y-183150D02*
X1284348Y-183150D01*
X1284348Y-183150D02*
X1265301Y-192674D01*
X1351015Y-306960D02*
X1331967Y-316484D01*
X1331967Y-316484D02*
X1284348Y-316484D01*
X1284348Y-316484D02*
X1265301Y-306960D01*
X1265301Y-306960D02*
X1255777Y-287912D01*
X1255777Y-287912D02*
X1255777Y-268865D01*
X1255777Y-268865D02*
X1265301Y-249817D01*
X1265301Y-249817D02*
X1284348Y-240293D01*
X1284348Y-240293D02*
X1331967Y-240293D01*
X1331967Y-240293D02*
X1351015Y-230769D01*
X1446253Y-183150D02*
X1446253Y-383150D01*
X1446253Y-192674D02*
X1465301Y-183150D01*
X1465301Y-183150D02*
X1503396Y-183150D01*
X1503396Y-183150D02*
X1522443Y-192674D01*
X1522443Y-192674D02*
X1531967Y-202198D01*
X1531967Y-202198D02*
X1541491Y-221246D01*
X1541491Y-221246D02*
X1541491Y-278389D01*
X1541491Y-278389D02*
X1531967Y-297436D01*
X1531967Y-297436D02*
X1522443Y-306960D01*
X1522443Y-306960D02*
X1503396Y-316484D01*
X1503396Y-316484D02*
X1465301Y-316484D01*
X1465301Y-316484D02*
X1446253Y-306960D01*
X1627205Y-297436D02*
X1636729Y-306960D01*
X1636729Y-306960D02*
X1627205Y-316484D01*
X1627205Y-316484D02*
X1617682Y-306960D01*
X1617682Y-306960D02*
X1627205Y-297436D01*
X1627205Y-297436D02*
X1627205Y-316484D01*
X1627205Y-192674D02*
X1636729Y-202198D01*
X1636729Y-202198D02*
X1627205Y-211722D01*
X1627205Y-211722D02*
X1617682Y-202198D01*
X1617682Y-202198D02*
X1627205Y-192674D01*
X1627205Y-192674D02*
X1627205Y-211722D01*
X-205000Y-545000D02*
X-5000Y-745000D01*
X-5000Y-545000D02*
X-205000Y-745000D01*
X236729Y-536484D02*
X360539Y-536484D01*
X360539Y-536484D02*
X293872Y-612674D01*
X293872Y-612674D02*
X322444Y-612674D01*
X322444Y-612674D02*
X341491Y-622198D01*
X341491Y-622198D02*
X351015Y-631722D01*
X351015Y-631722D02*
X360539Y-650770D01*
X360539Y-650770D02*
X360539Y-698389D01*
X360539Y-698389D02*
X351015Y-717436D01*
X351015Y-717436D02*
X341491Y-726960D01*
X341491Y-726960D02*
X322444Y-736484D01*
X322444Y-736484D02*
X265301Y-736484D01*
X265301Y-736484D02*
X246253Y-726960D01*
X246253Y-726960D02*
X236729Y-717436D01*
X446253Y-717436D02*
X455777Y-726960D01*
X455777Y-726960D02*
X446253Y-736484D01*
X446253Y-736484D02*
X436729Y-726960D01*
X436729Y-726960D02*
X446253Y-717436D01*
X446253Y-717436D02*
X446253Y-736484D01*
X636729Y-536484D02*
X541491Y-536484D01*
X541491Y-536484D02*
X531967Y-631722D01*
X531967Y-631722D02*
X541491Y-622198D01*
X541491Y-622198D02*
X560539Y-612674D01*
X560539Y-612674D02*
X608158Y-612674D01*
X608158Y-612674D02*
X627205Y-622198D01*
X627205Y-622198D02*
X636729Y-631722D01*
X636729Y-631722D02*
X646253Y-650770D01*
X646253Y-650770D02*
X646253Y-698389D01*
X646253Y-698389D02*
X636729Y-717436D01*
X636729Y-717436D02*
X627205Y-726960D01*
X627205Y-726960D02*
X608158Y-736484D01*
X608158Y-736484D02*
X560539Y-736484D01*
X560539Y-736484D02*
X541491Y-726960D01*
X541491Y-726960D02*
X531967Y-717436D01*
X770062Y-536484D02*
X789110Y-536484D01*
X789110Y-536484D02*
X808158Y-546008D01*
X808158Y-546008D02*
X817682Y-555531D01*
X817682Y-555531D02*
X827205Y-574579D01*
X827205Y-574579D02*
X836729Y-612674D01*
X836729Y-612674D02*
X836729Y-660293D01*
X836729Y-660293D02*
X827205Y-698389D01*
X827205Y-698389D02*
X817682Y-717436D01*
X817682Y-717436D02*
X808158Y-726960D01*
X808158Y-726960D02*
X789110Y-736484D01*
X789110Y-736484D02*
X770062Y-736484D01*
X770062Y-736484D02*
X751015Y-726960D01*
X751015Y-726960D02*
X741491Y-717436D01*
X741491Y-717436D02*
X731967Y-698389D01*
X731967Y-698389D02*
X722443Y-660293D01*
X722443Y-660293D02*
X722443Y-612674D01*
X722443Y-612674D02*
X731967Y-574579D01*
X731967Y-574579D02*
X741491Y-555531D01*
X741491Y-555531D02*
X751015Y-546008D01*
X751015Y-546008D02*
X770062Y-536484D01*
X960539Y-536484D02*
X979586Y-536484D01*
X979586Y-536484D02*
X998634Y-546008D01*
X998634Y-546008D02*
X1008158Y-555531D01*
X1008158Y-555531D02*
X1017682Y-574579D01*
X1017682Y-574579D02*
X1027205Y-612674D01*
X1027205Y-612674D02*
X1027205Y-660293D01*
X1027205Y-660293D02*
X1017682Y-698389D01*
X1017682Y-698389D02*
X1008158Y-717436D01*
X1008158Y-717436D02*
X998634Y-726960D01*
X998634Y-726960D02*
X979586Y-736484D01*
X979586Y-736484D02*
X960539Y-736484D01*
X960539Y-736484D02*
X941491Y-726960D01*
X941491Y-726960D02*
X931967Y-717436D01*
X931967Y-717436D02*
X922443Y-698389D01*
X922443Y-698389D02*
X912920Y-660293D01*
X912920Y-660293D02*
X912920Y-612674D01*
X912920Y-612674D02*
X922443Y-574579D01*
X922443Y-574579D02*
X931967Y-555531D01*
X931967Y-555531D02*
X941491Y-546008D01*
X941491Y-546008D02*
X960539Y-536484D01*
X1112920Y-736484D02*
X1112920Y-603150D01*
X1112920Y-622198D02*
X1122444Y-612674D01*
X1122444Y-612674D02*
X1141491Y-603150D01*
X1141491Y-603150D02*
X1170063Y-603150D01*
X1170063Y-603150D02*
X1189110Y-612674D01*
X1189110Y-612674D02*
X1198634Y-631722D01*
X1198634Y-631722D02*
X1198634Y-736484D01*
X1198634Y-631722D02*
X1208158Y-612674D01*
X1208158Y-612674D02*
X1227205Y-603150D01*
X1227205Y-603150D02*
X1255777Y-603150D01*
X1255777Y-603150D02*
X1274825Y-612674D01*
X1274825Y-612674D02*
X1284348Y-631722D01*
X1284348Y-631722D02*
X1284348Y-736484D01*
X1379586Y-736484D02*
X1379586Y-603150D01*
X1379586Y-622198D02*
X1389110Y-612674D01*
X1389110Y-612674D02*
X1408158Y-603150D01*
X1408158Y-603150D02*
X1436729Y-603150D01*
X1436729Y-603150D02*
X1455777Y-612674D01*
X1455777Y-612674D02*
X1465301Y-631722D01*
X1465301Y-631722D02*
X1465301Y-736484D01*
X1465301Y-631722D02*
X1474824Y-612674D01*
X1474824Y-612674D02*
X1493872Y-603150D01*
X1493872Y-603150D02*
X1522443Y-603150D01*
X1522443Y-603150D02*
X1541491Y-612674D01*
X1541491Y-612674D02*
X1551015Y-631722D01*
X1551015Y-631722D02*
X1551015Y-736484D01*
X1941491Y-526960D02*
X1770063Y-784103D01*
X2198634Y-536484D02*
X2217682Y-536484D01*
X2217682Y-536484D02*
X2236729Y-546008D01*
X2236729Y-546008D02*
X2246253Y-555531D01*
X2246253Y-555531D02*
X2255777Y-574579D01*
X2255777Y-574579D02*
X2265301Y-612674D01*
X2265301Y-612674D02*
X2265301Y-660293D01*
X2265301Y-660293D02*
X2255777Y-698389D01*
X2255777Y-698389D02*
X2246253Y-717436D01*
X2246253Y-717436D02*
X2236729Y-726960D01*
X2236729Y-726960D02*
X2217682Y-736484D01*
X2217682Y-736484D02*
X2198634Y-736484D01*
X2198634Y-736484D02*
X2179587Y-726960D01*
X2179587Y-726960D02*
X2170063Y-717436D01*
X2170063Y-717436D02*
X2160539Y-698389D01*
X2160539Y-698389D02*
X2151015Y-660293D01*
X2151015Y-660293D02*
X2151015Y-612674D01*
X2151015Y-612674D02*
X2160539Y-574579D01*
X2160539Y-574579D02*
X2170063Y-555531D01*
X2170063Y-555531D02*
X2179587Y-546008D01*
X2179587Y-546008D02*
X2198634Y-536484D01*
X2351015Y-717436D02*
X2360539Y-726960D01*
X2360539Y-726960D02*
X2351015Y-736484D01*
X2351015Y-736484D02*
X2341491Y-726960D01*
X2341491Y-726960D02*
X2351015Y-717436D01*
X2351015Y-717436D02*
X2351015Y-736484D01*
X2551015Y-736484D02*
X2436729Y-736484D01*
X2493872Y-736484D02*
X2493872Y-536484D01*
X2493872Y-536484D02*
X2474825Y-565055D01*
X2474825Y-565055D02*
X2455777Y-584103D01*
X2455777Y-584103D02*
X2436729Y-593627D01*
X2617682Y-536484D02*
X2741491Y-536484D01*
X2741491Y-536484D02*
X2674825Y-612674D01*
X2674825Y-612674D02*
X2703396Y-612674D01*
X2703396Y-612674D02*
X2722444Y-622198D01*
X2722444Y-622198D02*
X2731968Y-631722D01*
X2731968Y-631722D02*
X2741491Y-650770D01*
X2741491Y-650770D02*
X2741491Y-698389D01*
X2741491Y-698389D02*
X2731968Y-717436D01*
X2731968Y-717436D02*
X2722444Y-726960D01*
X2722444Y-726960D02*
X2703396Y-736484D01*
X2703396Y-736484D02*
X2646253Y-736484D01*
X2646253Y-736484D02*
X2627206Y-726960D01*
X2627206Y-726960D02*
X2617682Y-717436D01*
X2808158Y-536484D02*
X2941491Y-536484D01*
X2941491Y-536484D02*
X2855777Y-736484D01*
X3046253Y-622198D02*
X3027206Y-612674D01*
X3027206Y-612674D02*
X3017682Y-603150D01*
X3017682Y-603150D02*
X3008158Y-584103D01*
X3008158Y-584103D02*
X3008158Y-574579D01*
X3008158Y-574579D02*
X3017682Y-555531D01*
X3017682Y-555531D02*
X3027206Y-546008D01*
X3027206Y-546008D02*
X3046253Y-536484D01*
X3046253Y-536484D02*
X3084348Y-536484D01*
X3084348Y-536484D02*
X3103396Y-546008D01*
X3103396Y-546008D02*
X3112920Y-555531D01*
X3112920Y-555531D02*
X3122444Y-574579D01*
X3122444Y-574579D02*
X3122444Y-584103D01*
X3122444Y-584103D02*
X3112920Y-603150D01*
X3112920Y-603150D02*
X3103396Y-612674D01*
X3103396Y-612674D02*
X3084348Y-622198D01*
X3084348Y-622198D02*
X3046253Y-622198D01*
X3046253Y-622198D02*
X3027206Y-631722D01*
X3027206Y-631722D02*
X3017682Y-641246D01*
X3017682Y-641246D02*
X3008158Y-660293D01*
X3008158Y-660293D02*
X3008158Y-698389D01*
X3008158Y-698389D02*
X3017682Y-717436D01*
X3017682Y-717436D02*
X3027206Y-726960D01*
X3027206Y-726960D02*
X3046253Y-736484D01*
X3046253Y-736484D02*
X3084348Y-736484D01*
X3084348Y-736484D02*
X3103396Y-726960D01*
X3103396Y-726960D02*
X3112920Y-717436D01*
X3112920Y-717436D02*
X3122444Y-698389D01*
X3122444Y-698389D02*
X3122444Y-660293D01*
X3122444Y-660293D02*
X3112920Y-641246D01*
X3112920Y-641246D02*
X3103396Y-631722D01*
X3103396Y-631722D02*
X3084348Y-622198D01*
X3198634Y-536484D02*
X3198634Y-574579D01*
X3274825Y-536484D02*
X3274825Y-574579D01*
X3570063Y-812674D02*
X3560539Y-803150D01*
X3560539Y-803150D02*
X3541491Y-774579D01*
X3541491Y-774579D02*
X3531968Y-755531D01*
X3531968Y-755531D02*
X3522444Y-726960D01*
X3522444Y-726960D02*
X3512920Y-679341D01*
X3512920Y-679341D02*
X3512920Y-641246D01*
X3512920Y-641246D02*
X3522444Y-593627D01*
X3522444Y-593627D02*
X3531968Y-565055D01*
X3531968Y-565055D02*
X3541491Y-546008D01*
X3541491Y-546008D02*
X3560539Y-517436D01*
X3560539Y-517436D02*
X3570063Y-507912D01*
X3751015Y-736484D02*
X3636729Y-736484D01*
X3693872Y-736484D02*
X3693872Y-536484D01*
X3693872Y-536484D02*
X3674825Y-565055D01*
X3674825Y-565055D02*
X3655777Y-584103D01*
X3655777Y-584103D02*
X3636729Y-593627D01*
X3989110Y-736484D02*
X3989110Y-536484D01*
X4074825Y-736484D02*
X4074825Y-631722D01*
X4074825Y-631722D02*
X4065301Y-612674D01*
X4065301Y-612674D02*
X4046253Y-603150D01*
X4046253Y-603150D02*
X4017682Y-603150D01*
X4017682Y-603150D02*
X3998634Y-612674D01*
X3998634Y-612674D02*
X3989110Y-622198D01*
X4198634Y-736484D02*
X4179587Y-726960D01*
X4179587Y-726960D02*
X4170063Y-717436D01*
X4170063Y-717436D02*
X4160539Y-698389D01*
X4160539Y-698389D02*
X4160539Y-641246D01*
X4160539Y-641246D02*
X4170063Y-622198D01*
X4170063Y-622198D02*
X4179587Y-612674D01*
X4179587Y-612674D02*
X4198634Y-603150D01*
X4198634Y-603150D02*
X4227206Y-603150D01*
X4227206Y-603150D02*
X4246253Y-612674D01*
X4246253Y-612674D02*
X4255777Y-622198D01*
X4255777Y-622198D02*
X4265301Y-641246D01*
X4265301Y-641246D02*
X4265301Y-698389D01*
X4265301Y-698389D02*
X4255777Y-717436D01*
X4255777Y-717436D02*
X4246253Y-726960D01*
X4246253Y-726960D02*
X4227206Y-736484D01*
X4227206Y-736484D02*
X4198634Y-736484D01*
X4379587Y-736484D02*
X4360539Y-726960D01*
X4360539Y-726960D02*
X4351015Y-707912D01*
X4351015Y-707912D02*
X4351015Y-536484D01*
X4531968Y-726960D02*
X4512920Y-736484D01*
X4512920Y-736484D02*
X4474825Y-736484D01*
X4474825Y-736484D02*
X4455777Y-726960D01*
X4455777Y-726960D02*
X4446253Y-707912D01*
X4446253Y-707912D02*
X4446253Y-631722D01*
X4446253Y-631722D02*
X4455777Y-612674D01*
X4455777Y-612674D02*
X4474825Y-603150D01*
X4474825Y-603150D02*
X4512920Y-603150D01*
X4512920Y-603150D02*
X4531968Y-612674D01*
X4531968Y-612674D02*
X4541492Y-631722D01*
X4541492Y-631722D02*
X4541492Y-650770D01*
X4541492Y-650770D02*
X4446253Y-669817D01*
X4608158Y-812674D02*
X4617682Y-803150D01*
X4617682Y-803150D02*
X4636730Y-774579D01*
X4636730Y-774579D02*
X4646253Y-755531D01*
X4646253Y-755531D02*
X4655777Y-726960D01*
X4655777Y-726960D02*
X4665301Y-679341D01*
X4665301Y-679341D02*
X4665301Y-641246D01*
X4665301Y-641246D02*
X4655777Y-593627D01*
X4655777Y-593627D02*
X4646253Y-565055D01*
X4646253Y-565055D02*
X4636730Y-546008D01*
X4636730Y-546008D02*
X4617682Y-517436D01*
X4617682Y-517436D02*
X4608158Y-507912D01*
X4970063Y-812674D02*
X4960539Y-803150D01*
X4960539Y-803150D02*
X4941492Y-774579D01*
X4941492Y-774579D02*
X4931968Y-755531D01*
X4931968Y-755531D02*
X4922444Y-726960D01*
X4922444Y-726960D02*
X4912920Y-679341D01*
X4912920Y-679341D02*
X4912920Y-641246D01*
X4912920Y-641246D02*
X4922444Y-593627D01*
X4922444Y-593627D02*
X4931968Y-565055D01*
X4931968Y-565055D02*
X4941492Y-546008D01*
X4941492Y-546008D02*
X4960539Y-517436D01*
X4960539Y-517436D02*
X4970063Y-507912D01*
X5046253Y-603150D02*
X5046253Y-736484D01*
X5046253Y-622198D02*
X5055777Y-612674D01*
X5055777Y-612674D02*
X5074825Y-603150D01*
X5074825Y-603150D02*
X5103396Y-603150D01*
X5103396Y-603150D02*
X5122444Y-612674D01*
X5122444Y-612674D02*
X5131968Y-631722D01*
X5131968Y-631722D02*
X5131968Y-736484D01*
X5255777Y-736484D02*
X5236730Y-726960D01*
X5236730Y-726960D02*
X5227206Y-717436D01*
X5227206Y-717436D02*
X5217682Y-698389D01*
X5217682Y-698389D02*
X5217682Y-641246D01*
X5217682Y-641246D02*
X5227206Y-622198D01*
X5227206Y-622198D02*
X5236730Y-612674D01*
X5236730Y-612674D02*
X5255777Y-603150D01*
X5255777Y-603150D02*
X5284349Y-603150D01*
X5284349Y-603150D02*
X5303396Y-612674D01*
X5303396Y-612674D02*
X5312920Y-622198D01*
X5312920Y-622198D02*
X5322444Y-641246D01*
X5322444Y-641246D02*
X5322444Y-698389D01*
X5322444Y-698389D02*
X5312920Y-717436D01*
X5312920Y-717436D02*
X5303396Y-726960D01*
X5303396Y-726960D02*
X5284349Y-736484D01*
X5284349Y-736484D02*
X5255777Y-736484D01*
X5379587Y-603150D02*
X5455777Y-603150D01*
X5408158Y-536484D02*
X5408158Y-707912D01*
X5408158Y-707912D02*
X5417682Y-726960D01*
X5417682Y-726960D02*
X5436730Y-736484D01*
X5436730Y-736484D02*
X5455777Y-736484D01*
X5674825Y-603150D02*
X5674825Y-803150D01*
X5674825Y-612674D02*
X5693872Y-603150D01*
X5693872Y-603150D02*
X5731968Y-603150D01*
X5731968Y-603150D02*
X5751015Y-612674D01*
X5751015Y-612674D02*
X5760539Y-622198D01*
X5760539Y-622198D02*
X5770063Y-641246D01*
X5770063Y-641246D02*
X5770063Y-698389D01*
X5770063Y-698389D02*
X5760539Y-717436D01*
X5760539Y-717436D02*
X5751015Y-726960D01*
X5751015Y-726960D02*
X5731968Y-736484D01*
X5731968Y-736484D02*
X5693872Y-736484D01*
X5693872Y-736484D02*
X5674825Y-726960D01*
X5884349Y-736484D02*
X5865301Y-726960D01*
X5865301Y-726960D02*
X5855777Y-707912D01*
X5855777Y-707912D02*
X5855777Y-536484D01*
X6046253Y-736484D02*
X6046253Y-631722D01*
X6046253Y-631722D02*
X6036730Y-612674D01*
X6036730Y-612674D02*
X6017682Y-603150D01*
X6017682Y-603150D02*
X5979587Y-603150D01*
X5979587Y-603150D02*
X5960539Y-612674D01*
X6046253Y-726960D02*
X6027206Y-736484D01*
X6027206Y-736484D02*
X5979587Y-736484D01*
X5979587Y-736484D02*
X5960539Y-726960D01*
X5960539Y-726960D02*
X5951015Y-707912D01*
X5951015Y-707912D02*
X5951015Y-688865D01*
X5951015Y-688865D02*
X5960539Y-669817D01*
X5960539Y-669817D02*
X5979587Y-660293D01*
X5979587Y-660293D02*
X6027206Y-660293D01*
X6027206Y-660293D02*
X6046253Y-650770D01*
X6112920Y-603150D02*
X6189111Y-603150D01*
X6141492Y-536484D02*
X6141492Y-707912D01*
X6141492Y-707912D02*
X6151015Y-726960D01*
X6151015Y-726960D02*
X6170063Y-736484D01*
X6170063Y-736484D02*
X6189111Y-736484D01*
X6331968Y-726960D02*
X6312920Y-736484D01*
X6312920Y-736484D02*
X6274825Y-736484D01*
X6274825Y-736484D02*
X6255777Y-726960D01*
X6255777Y-726960D02*
X6246253Y-707912D01*
X6246253Y-707912D02*
X6246253Y-631722D01*
X6246253Y-631722D02*
X6255777Y-612674D01*
X6255777Y-612674D02*
X6274825Y-603150D01*
X6274825Y-603150D02*
X6312920Y-603150D01*
X6312920Y-603150D02*
X6331968Y-612674D01*
X6331968Y-612674D02*
X6341492Y-631722D01*
X6341492Y-631722D02*
X6341492Y-650770D01*
X6341492Y-650770D02*
X6246253Y-669817D01*
X6512920Y-736484D02*
X6512920Y-536484D01*
X6512920Y-726960D02*
X6493873Y-736484D01*
X6493873Y-736484D02*
X6455777Y-736484D01*
X6455777Y-736484D02*
X6436730Y-726960D01*
X6436730Y-726960D02*
X6427206Y-717436D01*
X6427206Y-717436D02*
X6417682Y-698389D01*
X6417682Y-698389D02*
X6417682Y-641246D01*
X6417682Y-641246D02*
X6427206Y-622198D01*
X6427206Y-622198D02*
X6436730Y-612674D01*
X6436730Y-612674D02*
X6455777Y-603150D01*
X6455777Y-603150D02*
X6493873Y-603150D01*
X6493873Y-603150D02*
X6512920Y-612674D01*
X6589111Y-812674D02*
X6598634Y-803150D01*
X6598634Y-803150D02*
X6617682Y-774579D01*
X6617682Y-774579D02*
X6627206Y-755531D01*
X6627206Y-755531D02*
X6636730Y-726960D01*
X6636730Y-726960D02*
X6646253Y-679341D01*
X6646253Y-679341D02*
X6646253Y-641246D01*
X6646253Y-641246D02*
X6636730Y-593627D01*
X6636730Y-593627D02*
X6627206Y-565055D01*
X6627206Y-565055D02*
X6617682Y-546008D01*
X6617682Y-546008D02*
X6598634Y-517436D01*
X6598634Y-517436D02*
X6589111Y-507912D01*
M02*
