%TF.GenerationSoftware,KiCad,Pcbnew,9.0.7*%
%TF.CreationDate,2026-02-24T00:50:47+09:00*%
%TF.ProjectId,POWER_BD_SV3,504f5745-525f-4424-945f-5356332e6b69,rev?*%
%TF.SameCoordinates,Original*%
%TF.FileFunction,Copper,L2,Bot*%
%TF.FilePolarity,Positive*%
%FSLAX46Y46*%
G04 Gerber Fmt 4.6, Leading zero omitted, Abs format (unit mm)*
G04 Created by KiCad (PCBNEW 9.0.7) date 2026-02-24 00:50:47*
%MOMM*%
%LPD*%
G01*
G04 APERTURE LIST*
G04 Aperture macros list*
%AMRoundRect*
0 Rectangle with rounded corners*
0 $1 Rounding radius*
0 $2 $3 $4 $5 $6 $7 $8 $9 X,Y pos of 4 corners*
0 Add a 4 corners polygon primitive as box body*
4,1,4,$2,$3,$4,$5,$6,$7,$8,$9,$2,$3,0*
0 Add four circle primitives for the rounded corners*
1,1,$1+$1,$2,$3*
1,1,$1+$1,$4,$5*
1,1,$1+$1,$6,$7*
1,1,$1+$1,$8,$9*
0 Add four rect primitives between the rounded corners*
20,1,$1+$1,$2,$3,$4,$5,0*
20,1,$1+$1,$4,$5,$6,$7,0*
20,1,$1+$1,$6,$7,$8,$9,0*
20,1,$1+$1,$8,$9,$2,$3,0*%
G04 Aperture macros list end*
%TA.AperFunction,ComponentPad*%
%ADD10RoundRect,0.291667X0.758333X-0.758333X0.758333X0.758333X-0.758333X0.758333X-0.758333X-0.758333X0*%
%TD*%
%TA.AperFunction,ComponentPad*%
%ADD11C,2.100000*%
%TD*%
%TA.AperFunction,ComponentPad*%
%ADD12RoundRect,0.286416X-0.413584X-0.413584X0.413584X-0.413584X0.413584X0.413584X-0.413584X0.413584X0*%
%TD*%
%TA.AperFunction,ComponentPad*%
%ADD13C,1.400000*%
%TD*%
%TA.AperFunction,ComponentPad*%
%ADD14RoundRect,0.250000X0.550000X-0.850000X0.550000X0.850000X-0.550000X0.850000X-0.550000X-0.850000X0*%
%TD*%
%TA.AperFunction,ComponentPad*%
%ADD15O,1.600000X2.200000*%
%TD*%
%TA.AperFunction,ComponentPad*%
%ADD16C,1.850000*%
%TD*%
%TA.AperFunction,ComponentPad*%
%ADD17C,2.200000*%
%TD*%
%TA.AperFunction,ComponentPad*%
%ADD18C,1.600000*%
%TD*%
%TA.AperFunction,ComponentPad*%
%ADD19RoundRect,0.262500X-0.787500X0.787500X-0.787500X-0.787500X0.787500X-0.787500X0.787500X0.787500X0*%
%TD*%
%TA.AperFunction,ComponentPad*%
%ADD20C,2.000000*%
%TD*%
%TA.AperFunction,ComponentPad*%
%ADD21RoundRect,0.500000X0.900000X0.900000X-0.900000X0.900000X-0.900000X-0.900000X0.900000X-0.900000X0*%
%TD*%
%TA.AperFunction,ComponentPad*%
%ADD22C,2.800000*%
%TD*%
%TA.AperFunction,ComponentPad*%
%ADD23RoundRect,0.216000X-0.684000X0.684000X-0.684000X-0.684000X0.684000X-0.684000X0.684000X0.684000X0*%
%TD*%
%TA.AperFunction,ComponentPad*%
%ADD24C,1.800000*%
%TD*%
%TA.AperFunction,ComponentPad*%
%ADD25C,1.700000*%
%TD*%
%TA.AperFunction,ComponentPad*%
%ADD26RoundRect,0.250000X-0.550000X0.550000X-0.550000X-0.550000X0.550000X-0.550000X0.550000X0.550000X0*%
%TD*%
%TA.AperFunction,ComponentPad*%
%ADD27O,3.400000X4.300000*%
%TD*%
%TA.AperFunction,ComponentPad*%
%ADD28RoundRect,0.250000X-0.600000X-0.600000X0.600000X-0.600000X0.600000X0.600000X-0.600000X0.600000X0*%
%TD*%
%TA.AperFunction,ComponentPad*%
%ADD29RoundRect,0.366667X0.733333X-0.733333X0.733333X0.733333X-0.733333X0.733333X-0.733333X-0.733333X0*%
%TD*%
%TA.AperFunction,ComponentPad*%
%ADD30RoundRect,0.250000X-0.475000X0.475000X-0.475000X-0.475000X0.475000X-0.475000X0.475000X0.475000X0*%
%TD*%
%TA.AperFunction,ComponentPad*%
%ADD31C,1.450000*%
%TD*%
%TA.AperFunction,ComponentPad*%
%ADD32RoundRect,0.250000X-0.800000X0.800000X-0.800000X-0.800000X0.800000X-0.800000X0.800000X0.800000X0*%
%TD*%
%TA.AperFunction,ComponentPad*%
%ADD33C,7.300000*%
%TD*%
%TA.AperFunction,ComponentPad*%
%ADD34O,4.300000X3.400000*%
%TD*%
%TA.AperFunction,ComponentPad*%
%ADD35C,2.300000*%
%TD*%
%TA.AperFunction,ComponentPad*%
%ADD36C,1.950000*%
%TD*%
%TA.AperFunction,ComponentPad*%
%ADD37RoundRect,0.243750X-0.731250X0.731250X-0.731250X-0.731250X0.731250X-0.731250X0.731250X0.731250X0*%
%TD*%
%TA.AperFunction,ComponentPad*%
%ADD38RoundRect,0.260417X0.989583X0.989583X-0.989583X0.989583X-0.989583X-0.989583X0.989583X-0.989583X0*%
%TD*%
%TA.AperFunction,ComponentPad*%
%ADD39C,2.500000*%
%TD*%
%TA.AperFunction,ComponentPad*%
%ADD40C,2.400000*%
%TD*%
%TA.AperFunction,ComponentPad*%
%ADD41O,2.500000X6.000000*%
%TD*%
%TA.AperFunction,ComponentPad*%
%ADD42RoundRect,0.250000X-0.550000X0.850000X-0.550000X-0.850000X0.550000X-0.850000X0.550000X0.850000X0*%
%TD*%
%TA.AperFunction,ComponentPad*%
%ADD43RoundRect,0.229167X-0.870833X0.870833X-0.870833X-0.870833X0.870833X-0.870833X0.870833X0.870833X0*%
%TD*%
%TA.AperFunction,ComponentPad*%
%ADD44RoundRect,0.243750X0.731250X-0.731250X0.731250X0.731250X-0.731250X0.731250X-0.731250X-0.731250X0*%
%TD*%
%TA.AperFunction,ComponentPad*%
%ADD45RoundRect,0.250000X-0.850000X-0.550000X0.850000X-0.550000X0.850000X0.550000X-0.850000X0.550000X0*%
%TD*%
%TA.AperFunction,ComponentPad*%
%ADD46O,2.200000X1.600000*%
%TD*%
%TA.AperFunction,ComponentPad*%
%ADD47RoundRect,0.250000X0.850000X0.550000X-0.850000X0.550000X-0.850000X-0.550000X0.850000X-0.550000X0*%
%TD*%
%TA.AperFunction,ViaPad*%
%ADD48C,0.800000*%
%TD*%
%TA.AperFunction,Conductor*%
%ADD49C,0.800000*%
%TD*%
%TA.AperFunction,Conductor*%
%ADD50C,1.200000*%
%TD*%
%TA.AperFunction,Conductor*%
%ADD51C,1.000000*%
%TD*%
%TA.AperFunction,Conductor*%
%ADD52C,1.500000*%
%TD*%
G04 APERTURE END LIST*
D10*
%TO.P,LF1,1,1*%
%TO.N,/L01*%
X86900000Y81200000D03*
D11*
%TO.P,LF1,2,2*%
%TO.N,Net-(C2-Pad2)*%
X86900000Y94200000D03*
%TO.P,LF1,3,3*%
%TO.N,Net-(D1-Pad2)*%
X76900000Y94200000D03*
%TO.P,LF1,4,4*%
%TO.N,Net-(D1-Pad3)*%
X76900000Y81200000D03*
%TD*%
D12*
%TO.P,RV2,1,1*%
%TO.N,+5V*%
X79930000Y4285000D03*
D13*
%TO.P,RV2,2,2*%
%TO.N,Net-(R27-Pad1)*%
X82470000Y6825000D03*
%TO.P,RV2,3,3*%
%TO.N,GND*%
X85010000Y4285000D03*
%TD*%
D14*
%TO.P,U3,1*%
%TO.N,+12V*%
X76330000Y31175000D03*
D15*
%TO.P,U3,2*%
%TO.N,Net-(R12-Pad1)*%
X78870000Y31175000D03*
%TO.P,U3,3*%
%TO.N,Earth*%
X78870000Y38795000D03*
%TO.P,U3,4*%
%TO.N,Net-(U1-FB)*%
X76330000Y38795000D03*
%TD*%
D16*
%TO.P,C3,1,1*%
%TO.N,/N01*%
X102500000Y72500000D03*
%TO.P,C3,2,2*%
%TO.N,/L01*%
X117500000Y72500000D03*
%TD*%
D17*
%TO.P,L3,1,1*%
%TO.N,Net-(D7-K)*%
X49150000Y14400000D03*
%TO.P,L3,2,2*%
%TO.N,+8V*%
X45650000Y14400000D03*
%TD*%
D18*
%TO.P,C18,1*%
%TO.N,Net-(C18-Pad1)*%
X49500000Y26000000D03*
%TO.P,C18,2*%
%TO.N,Net-(D7-K)*%
X44500000Y26000000D03*
%TD*%
D17*
%TO.P,C33,1,1*%
%TO.N,/L01*%
X117100000Y80700000D03*
%TO.P,C33,2,2*%
%TO.N,/N01*%
X101100000Y80700000D03*
%TD*%
%TO.P,U6,1,VI*%
%TO.N,+8V*%
X25700000Y25260000D03*
%TO.P,U6,2,GND*%
%TO.N,GND*%
X25700000Y27800000D03*
%TO.P,U6,3,VO*%
%TO.N,+5V*%
X25700000Y30340000D03*
%TD*%
D19*
%TO.P,C21,1*%
%TO.N,Net-(D6-K)*%
X17100000Y56700000D03*
D11*
%TO.P,C21,2*%
%TO.N,GND*%
X17100000Y51700000D03*
%TD*%
D20*
%TO.P,D6,1,A*%
%TO.N,Net-(T2-N2)*%
X18950000Y63700000D03*
%TO.P,D6,2,K*%
%TO.N,Net-(D6-K)*%
X21500000Y63700000D03*
%TO.P,D6,3,A*%
%TO.N,Net-(T2-N2)*%
X24050000Y63700000D03*
%TD*%
D21*
%TO.P,D1,1,+*%
%TO.N,Net-(D1-+)*%
X88650000Y74800000D03*
D22*
%TO.P,D1,2*%
%TO.N,Net-(D1-Pad2)*%
X81150000Y74800000D03*
%TO.P,D1,3*%
%TO.N,Net-(D1-Pad3)*%
X73650000Y74800000D03*
%TO.P,D1,4,-*%
%TO.N,Earth*%
X66150000Y74800000D03*
%TD*%
D23*
%TO.P,J2,1,1*%
%TO.N,+12V*%
X3500000Y32250000D03*
D24*
%TO.P,J2,2,2*%
%TO.N,GND*%
X3500000Y29750000D03*
%TO.P,J2,3,3*%
%TO.N,+5V*%
X3500000Y27250000D03*
%TO.P,J2,4,4*%
%TO.N,GND*%
X3500000Y24750000D03*
%TO.P,J2,5,5*%
%TO.N,unconnected-(J2-Pad5)*%
X3500000Y22250000D03*
%TO.P,J2,6,6*%
%TO.N,/PWM_PW*%
X3500000Y19750000D03*
%TD*%
D25*
%TO.P,C2,1*%
%TO.N,GNDPWR*%
X130285000Y77950000D03*
%TO.P,C2,2*%
%TO.N,Net-(C2-Pad2)*%
X122965000Y80050000D03*
%TD*%
D24*
%TO.P,R4,1*%
%TO.N,Earth*%
X64237500Y53400000D03*
%TO.P,R4,2*%
%TO.N,Net-(U1-CS)*%
X64237500Y68000000D03*
%TD*%
D26*
%TO.P,C10,1*%
%TO.N,Net-(D3-K)*%
X72700000Y46100000D03*
D18*
%TO.P,C10,2*%
%TO.N,Earth*%
X72700000Y44100000D03*
%TD*%
D27*
%TO.P,ACL2,1,Pin_1*%
%TO.N,/L01*%
X126500000Y93000000D03*
%TO.P,ACL2,2,Pin_2*%
X131500000Y93000000D03*
%TD*%
D25*
%TO.P,D4,1,K*%
%TO.N,Net-(D4-K)*%
X79390000Y46200000D03*
D28*
%TO.P,D4,2,A*%
%TO.N,Earth*%
X87010000Y46200000D03*
%TD*%
D18*
%TO.P,C7,1*%
%TO.N,Net-(D1-+)*%
X65800000Y80400000D03*
%TO.P,C7,2*%
%TO.N,Net-(D2-K)*%
X70800000Y80400000D03*
%TD*%
%TO.P,C16,1*%
%TO.N,Net-(C16-Pad1)*%
X21400000Y80100000D03*
%TO.P,C16,2*%
%TO.N,Net-(D5-K)*%
X26400000Y80100000D03*
%TD*%
D29*
%TO.P,T2,1,P0*%
%TO.N,Net-(D1-+)*%
X51150000Y68600000D03*
D17*
%TO.P,T2,2,P1*%
%TO.N,unconnected-(T2-P1-Pad2)*%
X51150000Y73600000D03*
%TO.P,T2,3,P2*%
%TO.N,Net-(D2-A)*%
X51150000Y78600000D03*
%TO.P,T2,4,NC1*%
%TO.N,unconnected-(T2-NC1-Pad4)*%
X51150000Y83600000D03*
%TO.P,T2,5,Vcc*%
%TO.N,Net-(D3-A)*%
X51150000Y88600000D03*
%TO.P,T2,6,Vcc_GND*%
%TO.N,Earth*%
X51150000Y93600000D03*
%TO.P,T2,7,N_GND1*%
%TO.N,GND*%
X33650000Y93600000D03*
%TO.P,T2,8,N1*%
%TO.N,Net-(T2-N1)*%
X33650000Y88600000D03*
%TO.P,T2,9,N2*%
%TO.N,Net-(T2-N2)*%
X33650000Y83600000D03*
%TO.P,T2,10,NC2*%
%TO.N,unconnected-(T2-NC2-Pad10)*%
X33650000Y78600000D03*
%TO.P,T2,11,N_GND2*%
%TO.N,GND*%
X33650000Y73600000D03*
%TO.P,T2,12,N3*%
%TO.N,Net-(T2-N3)*%
X33650000Y68600000D03*
%TD*%
D24*
%TO.P,R25,1*%
%TO.N,Net-(A2-Pin_1)*%
X146000000Y18300000D03*
%TO.P,R25,2*%
%TO.N,Net-(C31-Pad1)*%
X146000000Y3700000D03*
%TD*%
D17*
%TO.P,C32,1,1*%
%TO.N,/N01*%
X118000000Y62000000D03*
%TO.P,C32,2,2*%
%TO.N,Net-(A2-Pin_1)*%
X134000000Y62000000D03*
%TD*%
%TO.P,L2,1,1*%
%TO.N,Net-(D6-K)*%
X36800000Y44550000D03*
%TO.P,L2,2,2*%
%TO.N,+12V*%
X36800000Y41050000D03*
%TD*%
%TO.P,L1,1,1*%
%TO.N,Net-(D5-K)*%
X3350000Y77500000D03*
%TO.P,L1,2,2*%
%TO.N,+24V*%
X6850000Y77500000D03*
%TD*%
D24*
%TO.P,R3,1*%
%TO.N,Earth*%
X70200000Y53400000D03*
%TO.P,R3,2*%
%TO.N,Net-(U1-CS)*%
X70200000Y68000000D03*
%TD*%
D19*
%TO.P,C24,1*%
%TO.N,+12V*%
X17100000Y44800000D03*
D11*
%TO.P,C24,2*%
%TO.N,GND*%
X17100000Y39800000D03*
%TD*%
D30*
%TO.P,VR1,1*%
%TO.N,Net-(C19-Pad2)*%
X55500000Y27500000D03*
D31*
%TO.P,VR1,2*%
%TO.N,GND*%
X55500000Y25000000D03*
%TO.P,VR1,3*%
%TO.N,Net-(C15-Pad1)*%
X55500000Y22500000D03*
%TD*%
D32*
%TO.P,C4,1*%
%TO.N,Net-(D1-+)*%
X83500000Y64750000D03*
D11*
%TO.P,C4,2*%
%TO.N,Earth*%
X83500000Y57250000D03*
%TD*%
D20*
%TO.P,D5,1,A*%
%TO.N,Net-(T2-N3)*%
X24300000Y92450000D03*
%TO.P,D5,2,K*%
%TO.N,Net-(D5-K)*%
X24300000Y89900000D03*
%TO.P,D5,3,A*%
%TO.N,Net-(T2-N3)*%
X24300000Y87350000D03*
%TD*%
D27*
%TO.P,FG1,1,Pin_1*%
%TO.N,GNDPWR*%
X124300000Y71100000D03*
%TO.P,FG1,2,Pin_2*%
X129300000Y71100000D03*
%TD*%
D20*
%TO.P,D7,1,A*%
%TO.N,Net-(T2-N1)*%
X33075000Y34100000D03*
%TO.P,D7,2,K*%
%TO.N,Net-(D7-K)*%
X35625000Y34100000D03*
%TO.P,D7,3,A*%
%TO.N,Net-(T2-N1)*%
X38175000Y34100000D03*
%TD*%
D18*
%TO.P,C17,1*%
%TO.N,Net-(C17-Pad1)*%
X40500000Y52000000D03*
%TO.P,C17,2*%
%TO.N,Net-(D6-K)*%
X35500000Y52000000D03*
%TD*%
D33*
%TO.P,H2,1,1*%
%TO.N,GND*%
X16000000Y75000000D03*
%TD*%
D34*
%TO.P,ACN1,1,Pin_1*%
%TO.N,/N01*%
X101000000Y89500000D03*
%TO.P,ACN1,2,Pin_2*%
X101000000Y94500000D03*
%TD*%
D26*
%TO.P,C29,1*%
%TO.N,+5V*%
X17100000Y29250000D03*
D18*
%TO.P,C29,2*%
%TO.N,GND*%
X17100000Y26750000D03*
%TD*%
D33*
%TO.P,H3,1,1*%
%TO.N,GND*%
X16000000Y5000000D03*
%TD*%
%TO.P,H1,1,1*%
%TO.N,GNDPWR*%
X136000000Y75000000D03*
%TD*%
D35*
%TO.P,RV1,1,1*%
%TO.N,/N01*%
X108750000Y63510000D03*
%TO.P,RV1,2,2*%
%TO.N,/L01*%
X107250000Y55890000D03*
%TD*%
D36*
%TO.P,D2,1,K*%
%TO.N,Net-(D2-K)*%
X66400000Y95480000D03*
D37*
%TO.P,D2,2,A*%
%TO.N,Net-(D2-A)*%
X66400000Y85320000D03*
%TD*%
D25*
%TO.P,C1,1*%
%TO.N,/L01*%
X122955000Y84750000D03*
%TO.P,C1,2*%
%TO.N,GNDPWR*%
X130275000Y82650000D03*
%TD*%
D38*
%TO.P,T1,1,AA*%
%TO.N,/N01*%
X111200000Y49000000D03*
D39*
%TO.P,T1,2,AB*%
%TO.N,/L01*%
X101200000Y49000000D03*
D40*
%TO.P,T1,3,SA*%
%TO.N,Net-(T1-SA)*%
X101200000Y27000000D03*
D39*
%TO.P,T1,4,SB*%
%TO.N,Net-(T1-SB)*%
X111200000Y27000000D03*
D41*
%TO.P,T1,5*%
%TO.N,unconnected-(T1-Pad5)*%
X91900000Y38000000D03*
%TO.P,T1,6*%
%TO.N,unconnected-(T1-Pad6)*%
X120500000Y38000000D03*
%TD*%
D35*
%TO.P,R5,1*%
%TO.N,Net-(D1-+)*%
X60100000Y75040000D03*
%TO.P,R5,2*%
%TO.N,Net-(D2-K)*%
X60100000Y95360000D03*
%TD*%
D34*
%TO.P,ACL1,1,Pin_1*%
%TO.N,/L01*%
X113000000Y89500000D03*
%TO.P,ACL1,2,Pin_2*%
X113000000Y94500000D03*
%TD*%
D27*
%TO.P,A1,1,Pin_1*%
%TO.N,/N01*%
X142500000Y54000000D03*
%TO.P,A1,2,Pin_2*%
X147500000Y54000000D03*
%TD*%
D42*
%TO.P,U2,1*%
%TO.N,Net-(R2-Pad2)*%
X131070000Y16820000D03*
D15*
%TO.P,U2,2*%
%TO.N,Net-(T1-SA)*%
X128530000Y16820000D03*
%TO.P,U2,3*%
%TO.N,unconnected-(U2-Pad3)*%
X125990000Y16820000D03*
%TO.P,U2,4*%
%TO.N,GND*%
X125990000Y9200000D03*
%TO.P,U2,5*%
%TO.N,/ZVC*%
X128530000Y9200000D03*
%TO.P,U2,6*%
%TO.N,unconnected-(U2-Pad6)*%
X131070000Y9200000D03*
%TD*%
D27*
%TO.P,G1,1,Pin_1*%
%TO.N,Net-(G1-Pin_1)*%
X142500000Y44000000D03*
%TO.P,G1,2,Pin_2*%
X147500000Y44000000D03*
%TD*%
D24*
%TO.P,R24,1*%
%TO.N,Net-(R24-Pad1)*%
X116400000Y2900000D03*
%TO.P,R24,2*%
%TO.N,Net-(C31-Pad1)*%
X131000000Y2900000D03*
%TD*%
D27*
%TO.P,A2,1,Pin_1*%
%TO.N,Net-(A2-Pin_1)*%
X142500000Y64000000D03*
%TO.P,A2,2,Pin_2*%
X147500000Y64000000D03*
%TD*%
D18*
%TO.P,F2,1,1*%
%TO.N,/N01*%
X101140000Y59200000D03*
%TO.P,F2,2,2*%
%TO.N,Net-(C2-Pad2)*%
X96060000Y59200000D03*
%TD*%
D19*
%TO.P,C23,1*%
%TO.N,+24V*%
X6600000Y68000000D03*
D11*
%TO.P,C23,2*%
%TO.N,GND*%
X6600000Y63000000D03*
%TD*%
D43*
%TO.P,C20,1*%
%TO.N,Net-(D5-K)*%
X7800000Y92800000D03*
D17*
%TO.P,C20,2*%
%TO.N,GND*%
X7800000Y87800000D03*
%TD*%
D24*
%TO.P,R1,1*%
%TO.N,/L01*%
X95000000Y68700000D03*
%TO.P,R1,2*%
%TO.N,Net-(C2-Pad2)*%
X95000000Y83300000D03*
%TD*%
D36*
%TO.P,D3,1,K*%
%TO.N,Net-(D3-K)*%
X58725000Y53570000D03*
D44*
%TO.P,D3,2,A*%
%TO.N,Net-(D3-A)*%
X58725000Y63730000D03*
%TD*%
D40*
%TO.P,C31,1*%
%TO.N,Net-(C31-Pad1)*%
X128900000Y27600000D03*
%TO.P,C31,2*%
%TO.N,/N01*%
X128900000Y48800000D03*
%TO.P,C31,3*%
%TO.N,Net-(C31-Pad1)*%
X128900000Y33200000D03*
%TO.P,C31,4*%
%TO.N,/N01*%
X128900000Y43200000D03*
%TD*%
D19*
%TO.P,C25,1*%
%TO.N,+8V*%
X35800000Y11500000D03*
D11*
%TO.P,C25,2*%
%TO.N,GND*%
X35800000Y6500000D03*
%TD*%
D45*
%TO.P,U4,1,(PCINT5/RESET\u002A/ADC0/dW)_PB5*%
%TO.N,Net-(U4-(PCINT5{slash}RESET\u002A{slash}ADC0{slash}dW)_PB5)*%
X95990000Y16310000D03*
D46*
%TO.P,U4,2,(PCINT3/XTAL1/CLKI/OC1B\u002A/ADC3)_PB3*%
%TO.N,Net-(U4-(PCINT3{slash}XTAL1{slash}CLKI{slash}OC1B\u002A{slash}ADC3)_PB3)*%
X95990000Y13770000D03*
%TO.P,U4,3,(PCINT4/XTAL2/CLKO/OC1B/ADC2)_PB4*%
%TO.N,Net-(U4-(PCINT4{slash}XTAL2{slash}CLKO{slash}OC1B{slash}ADC2)_PB4)*%
X95990000Y11230000D03*
%TO.P,U4,4,GND*%
%TO.N,GND*%
X95990000Y8690000D03*
%TO.P,U4,5,PB0_(MOSI/DI/SDA/AIN0/OC0A/OC1A/AREF/PCINT0)*%
%TO.N,Net-(U4-PB0_(MOSI{slash}DI{slash}SDA{slash}AIN0{slash}OC0A{slash}OC1A{slash}AREF{slash}PCINT0))*%
X103610000Y8690000D03*
%TO.P,U4,6,PB1_(MISO/DO/AIN1/OC0B/OC1A\u002A/PCINT1)*%
%TO.N,Net-(U4-PB1_(MISO{slash}DO{slash}AIN1{slash}OC0B{slash}OC1A\u002A{slash}PCINT1))*%
X103610000Y11230000D03*
%TO.P,U4,7,PB2_(SCK/USCK/SCL/ADC1/T0/INT0/PCINT2)*%
%TO.N,/ZVC*%
X103610000Y13770000D03*
%TO.P,U4,8,VCC*%
%TO.N,+5V*%
X103610000Y16310000D03*
%TD*%
D47*
%TO.P,U5,1*%
%TO.N,Net-(R23-Pad2)*%
X117910000Y8724000D03*
D46*
%TO.P,U5,2*%
%TO.N,GND*%
X117910000Y11264000D03*
%TO.P,U5,3*%
%TO.N,unconnected-(U5-Pad3)*%
X117910000Y13804000D03*
%TO.P,U5,4*%
%TO.N,Net-(G1-Pin_1)*%
X110290000Y13804000D03*
%TO.P,U5,5*%
%TO.N,unconnected-(U5-Pad5)*%
X110290000Y11264000D03*
%TO.P,U5,6*%
%TO.N,Net-(R24-Pad1)*%
X110290000Y8724000D03*
%TD*%
D23*
%TO.P,J3,1,1*%
%TO.N,+24V*%
X3500000Y45250000D03*
D24*
%TO.P,J3,2,2*%
%TO.N,GND*%
X3500000Y42750000D03*
%TD*%
D42*
%TO.P,U1,1,BA*%
%TO.N,Net-(U1-BA)*%
X55710000Y46310000D03*
D15*
%TO.P,U1,2,FB*%
%TO.N,Net-(U1-FB)*%
X53170000Y46310000D03*
%TO.P,U1,3,CS*%
%TO.N,Net-(U1-CS)*%
X50630000Y46310000D03*
%TO.P,U1,4,DRAIN_1*%
%TO.N,Net-(D2-A)*%
X48090000Y46310000D03*
%TO.P,U1,5,DRAIN_2*%
X48090000Y38690000D03*
%TO.P,U1,6,N.C*%
%TO.N,unconnected-(U1-N.C-Pad6)*%
X50630000Y38690000D03*
%TO.P,U1,7,VCC*%
%TO.N,Net-(U1-VCC)*%
X53170000Y38690000D03*
%TO.P,U1,8,GND*%
%TO.N,Earth*%
X55710000Y38690000D03*
%TD*%
D18*
%TO.P,R26,1*%
%TO.N,Net-(G1-Pin_1)*%
X137920000Y32000000D03*
%TO.P,R26,2*%
%TO.N,/N01*%
X148080000Y32000000D03*
%TD*%
D27*
%TO.P,ACN2,1,Pin_1*%
%TO.N,Net-(A2-Pin_1)*%
X140500000Y93000000D03*
%TO.P,ACN2,2,Pin_2*%
X145500000Y93000000D03*
%TD*%
D19*
%TO.P,C22,1*%
%TO.N,Net-(D7-K)*%
X35800000Y26000000D03*
D11*
%TO.P,C22,2*%
%TO.N,GND*%
X35800000Y21000000D03*
%TD*%
D25*
%TO.P,C14,1*%
%TO.N,Earth*%
X85750000Y38660000D03*
%TO.P,C14,2*%
%TO.N,GND*%
X83650000Y31340000D03*
%TD*%
D48*
%TO.N,GND*%
X121440000Y16820000D03*
%TO.N,Net-(U4-(PCINT5{slash}RESET\u002A{slash}ADC0{slash}dW)_PB5)*%
X84320000Y16310000D03*
%TO.N,Net-(U4-(PCINT3{slash}XTAL1{slash}CLKI{slash}OC1B\u002A{slash}ADC3)_PB3)*%
X72740000Y12980000D03*
%TO.N,/PWM_PW*%
X77640000Y10600000D03*
%TO.N,+5V*%
X68160000Y9710000D03*
X69820000Y15990000D03*
%TO.N,GND*%
X51990000Y18510000D03*
%TO.N,Net-(C15-Pad1)*%
X71470000Y24940000D03*
%TO.N,Net-(D3-K)*%
X63010000Y50480000D03*
%TO.N,Net-(T2-N3)*%
X17500000Y90500000D03*
%TD*%
D49*
%TO.N,GND*%
X120294000Y11264000D02*
X121440000Y12410000D01*
X117910000Y11264000D02*
X120294000Y11264000D01*
X121440000Y12410000D02*
X121440000Y16820000D01*
D50*
%TO.N,Net-(C31-Pad1)*%
X128900000Y25520000D02*
X146000000Y8420000D01*
X146000000Y8420000D02*
X146000000Y3700000D01*
X128900000Y27600000D02*
X128900000Y25520000D01*
%TO.N,Net-(G1-Pin_1)*%
X136930000Y30460000D02*
X137920000Y31450000D01*
X123960000Y30460000D02*
X136930000Y30460000D01*
X110290000Y16790000D02*
X123960000Y30460000D01*
D51*
X137920000Y31450000D02*
X137920000Y32000000D01*
D50*
X110290000Y13804000D02*
X110290000Y16790000D01*
D51*
%TO.N,Net-(R24-Pad1)*%
X114470000Y2900000D02*
X116400000Y2900000D01*
X110290000Y8724000D02*
X110290000Y7080000D01*
X110290000Y7080000D02*
X114470000Y2900000D01*
D49*
%TO.N,Net-(U4-(PCINT5{slash}RESET\u002A{slash}ADC0{slash}dW)_PB5)*%
X95990000Y16310000D02*
X84320000Y16310000D01*
%TO.N,Net-(U4-(PCINT3{slash}XTAL1{slash}CLKI{slash}OC1B\u002A{slash}ADC3)_PB3)*%
X92100000Y13770000D02*
X95990000Y13770000D01*
X91310000Y12980000D02*
X92100000Y13770000D01*
X72740000Y12980000D02*
X91310000Y12980000D01*
%TO.N,/PWM_PW*%
X22700000Y10300000D02*
X29990000Y3010000D01*
X11300000Y10300000D02*
X22700000Y10300000D01*
X77640000Y5260000D02*
X77640000Y10600000D01*
X3500000Y18100000D02*
X11300000Y10300000D01*
X29990000Y3010000D02*
X75390000Y3010000D01*
X3500000Y19750000D02*
X3500000Y18100000D01*
X75390000Y3010000D02*
X77640000Y5260000D01*
D51*
%TO.N,+5V*%
X68160000Y14330000D02*
X68160000Y9710000D01*
X69820000Y15990000D02*
X68160000Y14330000D01*
%TO.N,GND*%
X51990000Y23940000D02*
X51990000Y18510000D01*
X53040000Y24990000D02*
X51990000Y23940000D01*
X54040000Y24990000D02*
X53040000Y24990000D01*
X55500000Y25000000D02*
X54050000Y25000000D01*
X54050000Y25000000D02*
X54040000Y24990000D01*
%TO.N,Net-(C15-Pad1)*%
X55500000Y22500000D02*
X57340000Y22500000D01*
X57340000Y22500000D02*
X59780000Y24940000D01*
X59780000Y24940000D02*
X71470000Y24940000D01*
D50*
%TO.N,Net-(T2-N1)*%
X38175000Y36405000D02*
X37665000Y36915000D01*
X38175000Y34100000D02*
X38175000Y36405000D01*
X33075000Y36915000D02*
X37665000Y36915000D01*
X33075000Y36915000D02*
X33075000Y34100000D01*
X31900000Y61300000D02*
X31900000Y38090000D01*
X35300000Y88600000D02*
X36600000Y87300000D01*
X36600000Y87300000D02*
X36600000Y66000000D01*
X33650000Y88600000D02*
X35300000Y88600000D01*
X36600000Y66000000D02*
X31900000Y61300000D01*
X31900000Y38090000D02*
X33075000Y36915000D01*
%TO.N,Net-(D7-K)*%
X35625000Y26175000D02*
X35800000Y26000000D01*
X35625000Y34100000D02*
X35625000Y26175000D01*
D51*
X49150000Y21350000D02*
X44500000Y26000000D01*
X49150000Y14400000D02*
X49150000Y21350000D01*
X35800000Y26000000D02*
X44500000Y26000000D01*
D52*
%TO.N,Net-(A2-Pin_1)*%
X143600000Y34200000D02*
X134100000Y43700000D01*
X136000000Y64000000D02*
X134000000Y62000000D01*
X146000000Y18300000D02*
X143600000Y20700000D01*
X142500000Y64000000D02*
X136000000Y64000000D01*
X134100000Y43700000D02*
X134100000Y44200000D01*
X134100000Y44200000D02*
X134000000Y44300000D01*
X134000000Y44300000D02*
X134000000Y62000000D01*
X143600000Y20700000D02*
X143600000Y34200000D01*
%TO.N,/L01*%
X113800000Y68800000D02*
X117500000Y72500000D01*
X117500000Y72500000D02*
X119600000Y72500000D01*
X126500000Y88000000D02*
X126500000Y93000000D01*
X126000000Y84200000D02*
X125600000Y84600000D01*
X111890000Y55890000D02*
X113800000Y57800000D01*
X125600000Y84600000D02*
X125600000Y87100000D01*
X125600000Y87100000D02*
X126500000Y88000000D01*
X107250000Y55890000D02*
X111890000Y55890000D01*
X113800000Y57800000D02*
X113800000Y68800000D01*
X126000000Y78900000D02*
X126000000Y84200000D01*
X119600000Y72500000D02*
X126000000Y78900000D01*
%TO.N,GNDPWR*%
X132100000Y71100000D02*
X136000000Y75000000D01*
X124300000Y71100000D02*
X129300000Y71100000D01*
X129300000Y71100000D02*
X132100000Y71100000D01*
%TO.N,Net-(C2-Pad2)*%
X95000000Y83300000D02*
X91300000Y87000000D01*
D50*
X99200000Y76200000D02*
X95000000Y80400000D01*
D52*
X96060000Y61540000D02*
X92100000Y65500000D01*
X91300000Y91800000D02*
X88900000Y94200000D01*
X92100000Y65500000D02*
X92100000Y80400000D01*
D50*
X122965000Y80050000D02*
X119115000Y76200000D01*
D52*
X96060000Y59200000D02*
X96060000Y61540000D01*
X91300000Y87000000D02*
X91300000Y91800000D01*
X88900000Y94200000D02*
X86900000Y94200000D01*
X92100000Y80400000D02*
X95000000Y83300000D01*
D50*
X95000000Y80400000D02*
X95000000Y83300000D01*
X119115000Y76200000D02*
X99200000Y76200000D01*
D52*
%TO.N,Earth*%
X59700000Y88900000D02*
X55000000Y93600000D01*
X87010000Y53740000D02*
X83500000Y57250000D01*
X55000000Y93600000D02*
X51150000Y93600000D01*
X69970000Y70800000D02*
X72500000Y70800000D01*
X85750000Y38660000D02*
X83500000Y40910000D01*
X83500000Y40910000D02*
X83500000Y57250000D01*
X78870000Y38795000D02*
X81385000Y38795000D01*
X83450000Y57250000D02*
X83500000Y57250000D01*
X72500000Y70800000D02*
X78400000Y64900000D01*
X72700000Y44100000D02*
X76200000Y44100000D01*
X64237500Y53400000D02*
X70200000Y53400000D01*
X76200000Y44100000D02*
X76400000Y44100000D01*
X76400000Y44100000D02*
X78870000Y41630000D01*
X76200000Y44100000D02*
X76500000Y44400000D01*
X81385000Y38795000D02*
X83500000Y40910000D01*
X59700000Y81070000D02*
X59700000Y88900000D01*
X78400000Y62350000D02*
X83500000Y57250000D01*
X79600000Y53400000D02*
X83450000Y57250000D01*
X87010000Y46200000D02*
X87010000Y53740000D01*
X65970000Y74800000D02*
X69970000Y70800000D01*
X76400000Y53400000D02*
X76500000Y53300000D01*
X70200000Y53400000D02*
X76400000Y53400000D01*
X65970000Y74800000D02*
X59700000Y81070000D01*
X78400000Y64900000D02*
X78400000Y62350000D01*
X76600000Y53400000D02*
X79600000Y53400000D01*
X76500000Y53300000D02*
X76600000Y53400000D01*
X76500000Y44400000D02*
X76500000Y53300000D01*
X78870000Y41630000D02*
X78870000Y38795000D01*
X83200000Y57200000D02*
X83250000Y57250000D01*
D51*
%TO.N,Net-(U1-FB)*%
X54510000Y41980000D02*
X53170000Y43320000D01*
X62375000Y38795000D02*
X59190000Y41980000D01*
X53170000Y43320000D02*
X53170000Y46310000D01*
X59190000Y41980000D02*
X54510000Y41980000D01*
X76330000Y38795000D02*
X62375000Y38795000D01*
%TO.N,Net-(D3-K)*%
X58725000Y51815000D02*
X60060000Y50480000D01*
X63010000Y50480000D02*
X70630000Y50480000D01*
X58725000Y53570000D02*
X58725000Y51815000D01*
X72700000Y48410000D02*
X72700000Y46100000D01*
X70630000Y50480000D02*
X72700000Y48410000D01*
X60060000Y50480000D02*
X63010000Y50480000D01*
%TO.N,+8V*%
X37900000Y11500000D02*
X40800000Y14400000D01*
X40800000Y14400000D02*
X45650000Y14400000D01*
X35800000Y11500000D02*
X37800000Y11500000D01*
X35800000Y11500000D02*
X37900000Y11500000D01*
D50*
%TO.N,Net-(C31-Pad1)*%
X146000000Y2700000D02*
X146000000Y3700000D01*
X131000000Y2900000D02*
X132200000Y1700000D01*
X145000000Y1700000D02*
X146000000Y2700000D01*
X132200000Y1700000D02*
X145000000Y1700000D01*
D52*
%TO.N,Net-(D1-Pad3)*%
X73590000Y77890000D02*
X76900000Y81200000D01*
X73590000Y74800000D02*
X73590000Y77890000D01*
%TO.N,Net-(D1-Pad2)*%
X81210000Y89890000D02*
X81210000Y74800000D01*
X76900000Y94200000D02*
X81210000Y89890000D01*
D51*
%TO.N,Net-(D2-A)*%
X48090000Y38690000D02*
X48000000Y38780000D01*
D50*
%TO.N,Net-(D3-A)*%
X55700000Y70200000D02*
X55700000Y86500000D01*
X58725000Y63730000D02*
X58725000Y67175000D01*
X55700000Y86500000D02*
X53600000Y88600000D01*
X58725000Y67175000D02*
X55700000Y70200000D01*
X53600000Y88600000D02*
X51150000Y88600000D01*
%TO.N,Net-(U1-CS)*%
X47800000Y61600000D02*
X62200000Y61600000D01*
X50630000Y48870000D02*
X49300000Y50200000D01*
X45400000Y59200000D02*
X47800000Y61600000D01*
X64237500Y68000000D02*
X70200000Y68000000D01*
X47200000Y50200000D02*
X45400000Y52000000D01*
X49300000Y50200000D02*
X47200000Y50200000D01*
X50630000Y46310000D02*
X50630000Y48870000D01*
X64237500Y63637500D02*
X64237500Y68000000D01*
X62200000Y61600000D02*
X64237500Y63637500D01*
X45400000Y52000000D02*
X45400000Y59200000D01*
%TO.N,Net-(T2-N3)*%
X23950000Y92100000D02*
X24300000Y92450000D01*
X21050000Y87350000D02*
X20700000Y87700000D01*
X29300000Y71400000D02*
X32100000Y68600000D01*
X32100000Y68600000D02*
X33650000Y68600000D01*
X24300000Y87350000D02*
X27650000Y87350000D01*
X27650000Y87350000D02*
X29300000Y85700000D01*
X17500000Y91700000D02*
X18250000Y92450000D01*
X24300000Y87350000D02*
X21050000Y87350000D01*
X20700000Y87700000D02*
X20700000Y92300000D01*
X20700000Y92300000D02*
X20850000Y92450000D01*
X17500000Y90500000D02*
X17500000Y91700000D01*
X18250000Y92450000D02*
X20850000Y92450000D01*
X29300000Y85700000D02*
X29300000Y71400000D01*
X20850000Y92450000D02*
X24300000Y92450000D01*
%TD*%
%TA.AperFunction,Conductor*%
%TO.N,Net-(A2-Pin_1)*%
G36*
X148315677Y97180315D02*
G01*
X148336319Y97163681D01*
X149463181Y96036819D01*
X149496666Y95975496D01*
X149499500Y95949138D01*
X149499500Y65823388D01*
X149479815Y65756349D01*
X149427011Y65710594D01*
X149357853Y65700650D01*
X149294297Y65729675D01*
X149277124Y65747902D01*
X149157597Y65903671D01*
X149157591Y65903678D01*
X148953678Y66107591D01*
X148953671Y66107597D01*
X148724876Y66283158D01*
X148475126Y66427351D01*
X148475116Y66427355D01*
X148208682Y66537716D01*
X147930118Y66612357D01*
X147750000Y66636069D01*
X147750000Y64883197D01*
X147590120Y64915000D01*
X147409880Y64915000D01*
X147250000Y64883197D01*
X147250000Y66636070D01*
X147069881Y66612357D01*
X146791317Y66537716D01*
X146524883Y66427355D01*
X146524873Y66427351D01*
X146275123Y66283158D01*
X146046328Y66107597D01*
X146046321Y66107591D01*
X145842408Y65903678D01*
X145842402Y65903671D01*
X145666841Y65674876D01*
X145522648Y65425126D01*
X145522644Y65425116D01*
X145412283Y65158682D01*
X145337643Y64880118D01*
X145300000Y64594203D01*
X145300000Y64250000D01*
X146616802Y64250000D01*
X146585000Y64090120D01*
X146585000Y63909880D01*
X146616802Y63750000D01*
X145300000Y63750000D01*
X145300000Y63405796D01*
X145337643Y63119881D01*
X145412283Y62841317D01*
X145522644Y62574883D01*
X145522648Y62574873D01*
X145666841Y62325123D01*
X145842402Y62096328D01*
X145842408Y62096321D01*
X146046321Y61892408D01*
X146046328Y61892402D01*
X146275123Y61716841D01*
X146524873Y61572648D01*
X146524883Y61572644D01*
X146791317Y61462283D01*
X147069881Y61387643D01*
X147249999Y61363928D01*
X147250000Y61363928D01*
X147250000Y63116802D01*
X147409880Y63085000D01*
X147590120Y63085000D01*
X147750000Y63116802D01*
X147750000Y61363928D01*
X147930118Y61387643D01*
X148208682Y61462283D01*
X148475116Y61572644D01*
X148475126Y61572648D01*
X148724876Y61716841D01*
X148953671Y61892402D01*
X148953678Y61892408D01*
X149157591Y62096321D01*
X149277124Y62252098D01*
X149333552Y62293300D01*
X149403299Y62297455D01*
X149464219Y62263242D01*
X149496971Y62201525D01*
X149499500Y62176611D01*
X149499500Y61350862D01*
X149479815Y61283823D01*
X149463181Y61263181D01*
X148936319Y60736319D01*
X148874996Y60702834D01*
X148848638Y60700000D01*
X139851362Y60700000D01*
X139784323Y60719685D01*
X139763681Y60736319D01*
X139136319Y61363681D01*
X139102834Y61425004D01*
X139100000Y61451362D01*
X139100000Y64594203D01*
X140300000Y64594203D01*
X140300000Y64250000D01*
X141616802Y64250000D01*
X141585000Y64090120D01*
X141585000Y63909880D01*
X141616802Y63750000D01*
X140300000Y63750000D01*
X140300000Y63405796D01*
X140337643Y63119881D01*
X140412283Y62841317D01*
X140522644Y62574883D01*
X140522648Y62574873D01*
X140666841Y62325123D01*
X140842402Y62096328D01*
X140842408Y62096321D01*
X141046321Y61892408D01*
X141046328Y61892402D01*
X141275123Y61716841D01*
X141524873Y61572648D01*
X141524883Y61572644D01*
X141791317Y61462283D01*
X142069881Y61387643D01*
X142249999Y61363928D01*
X142250000Y61363928D01*
X142250000Y63116802D01*
X142409880Y63085000D01*
X142590120Y63085000D01*
X142750000Y63116802D01*
X142750000Y61363928D01*
X142930118Y61387643D01*
X143208682Y61462283D01*
X143475116Y61572644D01*
X143475126Y61572648D01*
X143724876Y61716841D01*
X143953671Y61892402D01*
X143953678Y61892408D01*
X144157591Y62096321D01*
X144157597Y62096328D01*
X144333158Y62325123D01*
X144477351Y62574873D01*
X144477355Y62574883D01*
X144587716Y62841317D01*
X144662356Y63119881D01*
X144699999Y63405796D01*
X144700000Y63405810D01*
X144700000Y63750000D01*
X143383198Y63750000D01*
X143415000Y63909880D01*
X143415000Y64090120D01*
X143383198Y64250000D01*
X144700000Y64250000D01*
X144700000Y64594189D01*
X144699999Y64594203D01*
X144662356Y64880118D01*
X144587716Y65158682D01*
X144477355Y65425116D01*
X144477351Y65425126D01*
X144333158Y65674876D01*
X144157597Y65903671D01*
X144157591Y65903678D01*
X143953678Y66107591D01*
X143953671Y66107597D01*
X143724876Y66283158D01*
X143475126Y66427351D01*
X143475116Y66427355D01*
X143208682Y66537716D01*
X142930118Y66612357D01*
X142750000Y66636069D01*
X142750000Y64883197D01*
X142590120Y64915000D01*
X142409880Y64915000D01*
X142250000Y64883197D01*
X142250000Y66636070D01*
X142069881Y66612357D01*
X141791317Y66537716D01*
X141524883Y66427355D01*
X141524873Y66427351D01*
X141275123Y66283158D01*
X141046328Y66107597D01*
X141046321Y66107591D01*
X140842408Y65903678D01*
X140842402Y65903671D01*
X140666841Y65674876D01*
X140522648Y65425126D01*
X140522644Y65425116D01*
X140412283Y65158682D01*
X140337643Y64880118D01*
X140300000Y64594203D01*
X139100000Y64594203D01*
X139100000Y67248638D01*
X139119685Y67315677D01*
X139136319Y67336319D01*
X140900000Y69100000D01*
X140900000Y85399999D01*
X140900000Y85400000D01*
X138036319Y88263681D01*
X138002834Y88325004D01*
X138000000Y88351362D01*
X138000000Y93594203D01*
X138300000Y93594203D01*
X138300000Y93250000D01*
X139616802Y93250000D01*
X139585000Y93090120D01*
X139585000Y92909880D01*
X139616802Y92750000D01*
X138300000Y92750000D01*
X138300000Y92405796D01*
X138337643Y92119881D01*
X138412283Y91841317D01*
X138522644Y91574883D01*
X138522648Y91574873D01*
X138666841Y91325123D01*
X138842402Y91096328D01*
X138842408Y91096321D01*
X139046321Y90892408D01*
X139046328Y90892402D01*
X139275123Y90716841D01*
X139524873Y90572648D01*
X139524883Y90572644D01*
X139791317Y90462283D01*
X140069881Y90387643D01*
X140249999Y90363928D01*
X140250000Y90363928D01*
X140250000Y92116802D01*
X140409880Y92085000D01*
X140590120Y92085000D01*
X140750000Y92116802D01*
X140750000Y90363928D01*
X140930118Y90387643D01*
X141208682Y90462283D01*
X141475116Y90572644D01*
X141475126Y90572648D01*
X141724876Y90716841D01*
X141953671Y90892402D01*
X141953678Y90892408D01*
X142157591Y91096321D01*
X142157597Y91096328D01*
X142333158Y91325123D01*
X142477351Y91574873D01*
X142477355Y91574883D01*
X142587716Y91841317D01*
X142662356Y92119881D01*
X142699999Y92405796D01*
X142700000Y92405810D01*
X142700000Y92750000D01*
X141383198Y92750000D01*
X141415000Y92909880D01*
X141415000Y93090120D01*
X141383198Y93250000D01*
X142700000Y93250000D01*
X142700000Y93594189D01*
X142699999Y93594203D01*
X143300000Y93594203D01*
X143300000Y93250000D01*
X144616802Y93250000D01*
X144585000Y93090120D01*
X144585000Y92909880D01*
X144616802Y92750000D01*
X143300000Y92750000D01*
X143300000Y92405796D01*
X143337643Y92119881D01*
X143412283Y91841317D01*
X143522644Y91574883D01*
X143522648Y91574873D01*
X143666841Y91325123D01*
X143842402Y91096328D01*
X143842408Y91096321D01*
X144046321Y90892408D01*
X144046328Y90892402D01*
X144275123Y90716841D01*
X144524873Y90572648D01*
X144524883Y90572644D01*
X144791317Y90462283D01*
X145069881Y90387643D01*
X145249999Y90363928D01*
X145250000Y90363928D01*
X145250000Y92116802D01*
X145409880Y92085000D01*
X145590120Y92085000D01*
X145750000Y92116802D01*
X145750000Y90363928D01*
X145930118Y90387643D01*
X146208682Y90462283D01*
X146475116Y90572644D01*
X146475126Y90572648D01*
X146724876Y90716841D01*
X146953671Y90892402D01*
X146953678Y90892408D01*
X147157591Y91096321D01*
X147157597Y91096328D01*
X147333158Y91325123D01*
X147477351Y91574873D01*
X147477355Y91574883D01*
X147587716Y91841317D01*
X147662356Y92119881D01*
X147699999Y92405796D01*
X147700000Y92405810D01*
X147700000Y92750000D01*
X146383198Y92750000D01*
X146415000Y92909880D01*
X146415000Y93090120D01*
X146383198Y93250000D01*
X147700000Y93250000D01*
X147700000Y93594189D01*
X147699999Y93594203D01*
X147662356Y93880118D01*
X147587716Y94158682D01*
X147477355Y94425116D01*
X147477351Y94425126D01*
X147333158Y94674876D01*
X147157597Y94903671D01*
X147157591Y94903678D01*
X146953678Y95107591D01*
X146953671Y95107597D01*
X146724876Y95283158D01*
X146475126Y95427351D01*
X146475116Y95427355D01*
X146208682Y95537716D01*
X145930118Y95612357D01*
X145750000Y95636069D01*
X145750000Y93883197D01*
X145590120Y93915000D01*
X145409880Y93915000D01*
X145250000Y93883197D01*
X145250000Y95636070D01*
X145069881Y95612357D01*
X144791317Y95537716D01*
X144524883Y95427355D01*
X144524873Y95427351D01*
X144275123Y95283158D01*
X144046328Y95107597D01*
X144046321Y95107591D01*
X143842408Y94903678D01*
X143842402Y94903671D01*
X143666841Y94674876D01*
X143522648Y94425126D01*
X143522644Y94425116D01*
X143412283Y94158682D01*
X143337643Y93880118D01*
X143300000Y93594203D01*
X142699999Y93594203D01*
X142662356Y93880118D01*
X142587716Y94158682D01*
X142477355Y94425116D01*
X142477351Y94425126D01*
X142333158Y94674876D01*
X142157597Y94903671D01*
X142157591Y94903678D01*
X141953678Y95107591D01*
X141953671Y95107597D01*
X141724876Y95283158D01*
X141475126Y95427351D01*
X141475116Y95427355D01*
X141208682Y95537716D01*
X140930118Y95612357D01*
X140750000Y95636069D01*
X140750000Y93883197D01*
X140590120Y93915000D01*
X140409880Y93915000D01*
X140250000Y93883197D01*
X140250000Y95636070D01*
X140069881Y95612357D01*
X139791317Y95537716D01*
X139524883Y95427355D01*
X139524873Y95427351D01*
X139275123Y95283158D01*
X139046328Y95107597D01*
X139046321Y95107591D01*
X138842408Y94903678D01*
X138842402Y94903671D01*
X138666841Y94674876D01*
X138522648Y94425126D01*
X138522644Y94425116D01*
X138412283Y94158682D01*
X138337643Y93880118D01*
X138300000Y93594203D01*
X138000000Y93594203D01*
X138000000Y96248638D01*
X138019685Y96315677D01*
X138036319Y96336319D01*
X138863681Y97163681D01*
X138925004Y97197166D01*
X138951362Y97200000D01*
X148248638Y97200000D01*
X148315677Y97180315D01*
G37*
%TD.AperFunction*%
%TD*%
%TA.AperFunction,Conductor*%
%TO.N,/L01*%
G36*
X133615677Y97180315D02*
G01*
X133636319Y97163681D01*
X134463681Y96336319D01*
X134497166Y96274996D01*
X134500000Y96248638D01*
X134500000Y90051362D01*
X134480315Y89984323D01*
X134463681Y89963681D01*
X133636319Y89136319D01*
X133574996Y89102834D01*
X133548638Y89100000D01*
X128900000Y89100000D01*
X128899999Y89099999D01*
X126600000Y86800000D01*
X126600000Y84651362D01*
X126580315Y84584323D01*
X126563681Y84563681D01*
X125636319Y83636319D01*
X125574996Y83602834D01*
X125548638Y83600000D01*
X123756282Y83600000D01*
X123755566Y83600536D01*
X123754645Y83600807D01*
X123747352Y83606683D01*
X123737163Y83614308D01*
X123737088Y83614357D01*
X123734031Y83617412D01*
X123734027Y83617418D01*
X123734013Y83617432D01*
X123734003Y83617441D01*
X123035419Y84316026D01*
X123124834Y84339985D01*
X123225166Y84397912D01*
X123307088Y84479834D01*
X123365015Y84580166D01*
X123388973Y84669579D01*
X124070269Y83988282D01*
X124070270Y83988282D01*
X124109624Y84042449D01*
X124206095Y84231782D01*
X124271757Y84433869D01*
X124271757Y84433872D01*
X124305000Y84643753D01*
X124305000Y84856246D01*
X124271757Y85066127D01*
X124271757Y85066130D01*
X124206095Y85268217D01*
X124109622Y85457554D01*
X124070270Y85511716D01*
X124070270Y85511717D01*
X123388973Y84830420D01*
X123365015Y84919834D01*
X123307088Y85020166D01*
X123225166Y85102088D01*
X123124834Y85160015D01*
X123035419Y85183973D01*
X123716717Y85865270D01*
X123662554Y85904622D01*
X123473217Y86001095D01*
X123271129Y86066757D01*
X123061246Y86100000D01*
X122848754Y86100000D01*
X122638872Y86066757D01*
X122638869Y86066757D01*
X122436782Y86001095D01*
X122247449Y85904624D01*
X122193282Y85865270D01*
X122193282Y85865269D01*
X122874580Y85183973D01*
X122785166Y85160015D01*
X122684834Y85102088D01*
X122602912Y85020166D01*
X122544985Y84919834D01*
X122521026Y84830419D01*
X121839728Y85511716D01*
X121800375Y85457550D01*
X121703904Y85268217D01*
X121638242Y85066130D01*
X121638242Y85066127D01*
X121605000Y84856246D01*
X121605000Y84643753D01*
X121638242Y84433872D01*
X121638242Y84433869D01*
X121703904Y84231782D01*
X121800380Y84042439D01*
X121839727Y83988282D01*
X121839728Y83988282D01*
X122521026Y84669580D01*
X122544985Y84580166D01*
X122602912Y84479834D01*
X122684834Y84397912D01*
X122785166Y84339985D01*
X122874580Y84316026D01*
X122172940Y83614386D01*
X122146594Y83600000D01*
X118351362Y83600000D01*
X118284323Y83619685D01*
X118263681Y83636319D01*
X116136319Y85763681D01*
X116102834Y85825004D01*
X116100000Y85851362D01*
X116100000Y85900000D01*
X111051362Y85900000D01*
X110984323Y85919685D01*
X110963681Y85936319D01*
X110036319Y86863681D01*
X110002834Y86925004D01*
X110000000Y86951362D01*
X110000000Y89750000D01*
X110363930Y89750000D01*
X112116802Y89750000D01*
X112085000Y89590120D01*
X112085000Y89409880D01*
X112116802Y89250000D01*
X110363930Y89250000D01*
X110387642Y89069881D01*
X110462283Y88791317D01*
X110572644Y88524883D01*
X110572648Y88524873D01*
X110716841Y88275123D01*
X110892402Y88046328D01*
X110892408Y88046321D01*
X111096321Y87842408D01*
X111096328Y87842402D01*
X111325123Y87666841D01*
X111574873Y87522648D01*
X111574883Y87522644D01*
X111841317Y87412283D01*
X112119881Y87337643D01*
X112405796Y87300000D01*
X112750000Y87300000D01*
X112750000Y88616802D01*
X112909880Y88585000D01*
X113090120Y88585000D01*
X113250000Y88616802D01*
X113250000Y87300000D01*
X113594203Y87300000D01*
X113880118Y87337643D01*
X114158682Y87412283D01*
X114425116Y87522644D01*
X114425126Y87522648D01*
X114674876Y87666841D01*
X114903671Y87842402D01*
X114903678Y87842408D01*
X115107591Y88046321D01*
X115107597Y88046328D01*
X115283158Y88275123D01*
X115427351Y88524873D01*
X115427355Y88524883D01*
X115537716Y88791317D01*
X115612357Y89069881D01*
X115636070Y89250000D01*
X113883198Y89250000D01*
X113915000Y89409880D01*
X113915000Y89590120D01*
X113883198Y89750000D01*
X115636070Y89750000D01*
X115612357Y89930118D01*
X115537716Y90208682D01*
X115427355Y90475116D01*
X115427351Y90475126D01*
X115283158Y90724876D01*
X115107597Y90953671D01*
X115107591Y90953678D01*
X114903678Y91157591D01*
X114903671Y91157597D01*
X114674876Y91333158D01*
X114425126Y91477351D01*
X114425116Y91477355D01*
X114158682Y91587716D01*
X113880118Y91662356D01*
X113594203Y91699999D01*
X113594189Y91700000D01*
X113250000Y91700000D01*
X113250000Y90383197D01*
X113090120Y90415000D01*
X112909880Y90415000D01*
X112750000Y90383197D01*
X112750000Y91700000D01*
X112405811Y91700000D01*
X112405796Y91699999D01*
X112119881Y91662356D01*
X111841317Y91587716D01*
X111574883Y91477355D01*
X111574873Y91477351D01*
X111325123Y91333158D01*
X111096328Y91157597D01*
X111096321Y91157591D01*
X110892408Y90953678D01*
X110892402Y90953671D01*
X110716841Y90724876D01*
X110572648Y90475126D01*
X110572644Y90475116D01*
X110462283Y90208682D01*
X110387642Y89930118D01*
X110363930Y89750000D01*
X110000000Y89750000D01*
X110000000Y94750000D01*
X110363930Y94750000D01*
X112116802Y94750000D01*
X112085000Y94590120D01*
X112085000Y94409880D01*
X112116802Y94250000D01*
X110363930Y94250000D01*
X110387642Y94069881D01*
X110462283Y93791317D01*
X110572644Y93524883D01*
X110572648Y93524873D01*
X110716841Y93275123D01*
X110892402Y93046328D01*
X110892408Y93046321D01*
X111096321Y92842408D01*
X111096328Y92842402D01*
X111325123Y92666841D01*
X111574873Y92522648D01*
X111574883Y92522644D01*
X111841317Y92412283D01*
X112119881Y92337643D01*
X112405796Y92300000D01*
X112750000Y92300000D01*
X112750000Y93616802D01*
X112909880Y93585000D01*
X113090120Y93585000D01*
X113250000Y93616802D01*
X113250000Y92300000D01*
X113594203Y92300000D01*
X113880118Y92337643D01*
X114158682Y92412283D01*
X114425116Y92522644D01*
X114425126Y92522648D01*
X114674876Y92666841D01*
X114903671Y92842402D01*
X114903678Y92842408D01*
X115107591Y93046321D01*
X115107597Y93046328D01*
X115283158Y93275123D01*
X115427351Y93524873D01*
X115427355Y93524883D01*
X115456069Y93594203D01*
X124300000Y93594203D01*
X124300000Y93250000D01*
X125616802Y93250000D01*
X125585000Y93090120D01*
X125585000Y92909880D01*
X125616802Y92750000D01*
X124300000Y92750000D01*
X124300000Y92405796D01*
X124337643Y92119881D01*
X124412283Y91841317D01*
X124522644Y91574883D01*
X124522648Y91574873D01*
X124666841Y91325123D01*
X124842402Y91096328D01*
X124842408Y91096321D01*
X125046321Y90892408D01*
X125046328Y90892402D01*
X125275123Y90716841D01*
X125524873Y90572648D01*
X125524883Y90572644D01*
X125791317Y90462283D01*
X126069881Y90387643D01*
X126249999Y90363928D01*
X126250000Y90363928D01*
X126250000Y92116802D01*
X126409880Y92085000D01*
X126590120Y92085000D01*
X126750000Y92116802D01*
X126750000Y90363928D01*
X126930118Y90387643D01*
X127208682Y90462283D01*
X127475116Y90572644D01*
X127475126Y90572648D01*
X127724876Y90716841D01*
X127953671Y90892402D01*
X127953678Y90892408D01*
X128157591Y91096321D01*
X128157597Y91096328D01*
X128333158Y91325123D01*
X128477351Y91574873D01*
X128477355Y91574883D01*
X128587716Y91841317D01*
X128662356Y92119881D01*
X128699999Y92405796D01*
X128700000Y92405810D01*
X128700000Y92750000D01*
X127383198Y92750000D01*
X127415000Y92909880D01*
X127415000Y93090120D01*
X127383198Y93250000D01*
X128700000Y93250000D01*
X128700000Y93594189D01*
X128699999Y93594203D01*
X129300000Y93594203D01*
X129300000Y93250000D01*
X130616802Y93250000D01*
X130585000Y93090120D01*
X130585000Y92909880D01*
X130616802Y92750000D01*
X129300000Y92750000D01*
X129300000Y92405796D01*
X129337643Y92119881D01*
X129412283Y91841317D01*
X129522644Y91574883D01*
X129522648Y91574873D01*
X129666841Y91325123D01*
X129842402Y91096328D01*
X129842408Y91096321D01*
X130046321Y90892408D01*
X130046328Y90892402D01*
X130275123Y90716841D01*
X130524873Y90572648D01*
X130524883Y90572644D01*
X130791317Y90462283D01*
X131069881Y90387643D01*
X131249999Y90363928D01*
X131250000Y90363928D01*
X131250000Y92116802D01*
X131409880Y92085000D01*
X131590120Y92085000D01*
X131750000Y92116802D01*
X131750000Y90363928D01*
X131930118Y90387643D01*
X132208682Y90462283D01*
X132475116Y90572644D01*
X132475126Y90572648D01*
X132724876Y90716841D01*
X132953671Y90892402D01*
X132953678Y90892408D01*
X133157591Y91096321D01*
X133157597Y91096328D01*
X133333158Y91325123D01*
X133477351Y91574873D01*
X133477355Y91574883D01*
X133587716Y91841317D01*
X133662356Y92119881D01*
X133699999Y92405796D01*
X133700000Y92405810D01*
X133700000Y92750000D01*
X132383198Y92750000D01*
X132415000Y92909880D01*
X132415000Y93090120D01*
X132383198Y93250000D01*
X133700000Y93250000D01*
X133700000Y93594189D01*
X133699999Y93594203D01*
X133662356Y93880118D01*
X133587716Y94158682D01*
X133477355Y94425116D01*
X133477351Y94425126D01*
X133333158Y94674876D01*
X133157597Y94903671D01*
X133157591Y94903678D01*
X132953678Y95107591D01*
X132953671Y95107597D01*
X132724876Y95283158D01*
X132475126Y95427351D01*
X132475116Y95427355D01*
X132208682Y95537716D01*
X131930118Y95612357D01*
X131750000Y95636069D01*
X131750000Y93883197D01*
X131590120Y93915000D01*
X131409880Y93915000D01*
X131250000Y93883197D01*
X131250000Y95636070D01*
X131069881Y95612357D01*
X130791317Y95537716D01*
X130524883Y95427355D01*
X130524873Y95427351D01*
X130275123Y95283158D01*
X130046328Y95107597D01*
X130046321Y95107591D01*
X129842408Y94903678D01*
X129842402Y94903671D01*
X129666841Y94674876D01*
X129522648Y94425126D01*
X129522644Y94425116D01*
X129412283Y94158682D01*
X129337643Y93880118D01*
X129300000Y93594203D01*
X128699999Y93594203D01*
X128662356Y93880118D01*
X128587716Y94158682D01*
X128477355Y94425116D01*
X128477351Y94425126D01*
X128333158Y94674876D01*
X128157597Y94903671D01*
X128157591Y94903678D01*
X127953678Y95107591D01*
X127953671Y95107597D01*
X127724876Y95283158D01*
X127475126Y95427351D01*
X127475116Y95427355D01*
X127208682Y95537716D01*
X126930118Y95612357D01*
X126750000Y95636069D01*
X126750000Y93883197D01*
X126590120Y93915000D01*
X126409880Y93915000D01*
X126250000Y93883197D01*
X126250000Y95636070D01*
X126069881Y95612357D01*
X125791317Y95537716D01*
X125524883Y95427355D01*
X125524873Y95427351D01*
X125275123Y95283158D01*
X125046328Y95107597D01*
X125046321Y95107591D01*
X124842408Y94903678D01*
X124842402Y94903671D01*
X124666841Y94674876D01*
X124522648Y94425126D01*
X124522644Y94425116D01*
X124412283Y94158682D01*
X124337643Y93880118D01*
X124300000Y93594203D01*
X115456069Y93594203D01*
X115477403Y93645708D01*
X115537716Y93791317D01*
X115612357Y94069881D01*
X115636070Y94250000D01*
X113883198Y94250000D01*
X113915000Y94409880D01*
X113915000Y94590120D01*
X113883198Y94750000D01*
X115636070Y94750000D01*
X115612357Y94930118D01*
X115537716Y95208682D01*
X115427355Y95475116D01*
X115427351Y95475126D01*
X115283158Y95724876D01*
X115107597Y95953671D01*
X115107591Y95953678D01*
X114903678Y96157591D01*
X114903671Y96157597D01*
X114674876Y96333158D01*
X114425126Y96477351D01*
X114425116Y96477355D01*
X114158682Y96587716D01*
X113880118Y96662356D01*
X113594203Y96699999D01*
X113594189Y96700000D01*
X113250000Y96700000D01*
X113250000Y95383197D01*
X113090120Y95415000D01*
X112909880Y95415000D01*
X112750000Y95383197D01*
X112750000Y96700000D01*
X112405811Y96700000D01*
X112405796Y96699999D01*
X112119881Y96662356D01*
X111841317Y96587716D01*
X111574883Y96477355D01*
X111574873Y96477351D01*
X111325123Y96333158D01*
X111096328Y96157597D01*
X111096321Y96157591D01*
X110892408Y95953678D01*
X110892402Y95953671D01*
X110716841Y95724876D01*
X110572648Y95475126D01*
X110572644Y95475116D01*
X110462283Y95208682D01*
X110387642Y94930118D01*
X110363930Y94750000D01*
X110000000Y94750000D01*
X110000000Y96548638D01*
X110019685Y96615677D01*
X110036319Y96636319D01*
X110563681Y97163681D01*
X110625004Y97197166D01*
X110651362Y97200000D01*
X133548638Y97200000D01*
X133615677Y97180315D01*
G37*
%TD.AperFunction*%
%TD*%
%TA.AperFunction,Conductor*%
%TO.N,Net-(G1-Pin_1)*%
G36*
X149015677Y46980315D02*
G01*
X149036319Y46963681D01*
X149463181Y46536819D01*
X149496666Y46475496D01*
X149499500Y46449138D01*
X149499500Y45823388D01*
X149479815Y45756349D01*
X149427011Y45710594D01*
X149357853Y45700650D01*
X149294297Y45729675D01*
X149277124Y45747902D01*
X149157597Y45903671D01*
X149157591Y45903678D01*
X148953678Y46107591D01*
X148953671Y46107597D01*
X148724876Y46283158D01*
X148475126Y46427351D01*
X148475116Y46427355D01*
X148208684Y46537715D01*
X147930113Y46612358D01*
X147900001Y46616322D01*
X147900000Y46616321D01*
X147900000Y44824703D01*
X147766896Y44879837D01*
X147590120Y44915000D01*
X147409880Y44915000D01*
X147233104Y44879837D01*
X147100000Y44824703D01*
X147100000Y46616321D01*
X147099998Y46616322D01*
X147069886Y46612358D01*
X146791315Y46537715D01*
X146524883Y46427355D01*
X146524873Y46427351D01*
X146275123Y46283158D01*
X146046328Y46107597D01*
X146046321Y46107591D01*
X145842408Y45903678D01*
X145842402Y45903671D01*
X145666841Y45674876D01*
X145522648Y45425126D01*
X145522644Y45425116D01*
X145412283Y45158682D01*
X145337643Y44880118D01*
X145300000Y44594203D01*
X145300000Y44400000D01*
X146675297Y44400000D01*
X146620163Y44266896D01*
X146585000Y44090120D01*
X146585000Y43909880D01*
X146620163Y43733104D01*
X146675297Y43600000D01*
X145300000Y43600000D01*
X145300000Y43405796D01*
X145337643Y43119881D01*
X145412283Y42841317D01*
X145522644Y42574883D01*
X145522648Y42574873D01*
X145666841Y42325123D01*
X145842402Y42096328D01*
X145842408Y42096321D01*
X146046321Y41892408D01*
X146046328Y41892402D01*
X146275123Y41716841D01*
X146524873Y41572648D01*
X146524883Y41572644D01*
X146791317Y41462283D01*
X147069881Y41387642D01*
X147100000Y41383676D01*
X147100000Y43175296D01*
X147233104Y43120163D01*
X147409880Y43085000D01*
X147590120Y43085000D01*
X147766896Y43120163D01*
X147900000Y43175296D01*
X147900000Y41383676D01*
X147930118Y41387642D01*
X148208682Y41462283D01*
X148475116Y41572644D01*
X148475126Y41572648D01*
X148724876Y41716841D01*
X148953671Y41892402D01*
X148953678Y41892408D01*
X149157591Y42096321D01*
X149277124Y42252098D01*
X149333552Y42293300D01*
X149403299Y42297455D01*
X149464219Y42263242D01*
X149496971Y42201525D01*
X149499500Y42176611D01*
X149499500Y41550862D01*
X149479815Y41483823D01*
X149463181Y41463181D01*
X149136319Y41136319D01*
X149074996Y41102834D01*
X149048638Y41100000D01*
X140451362Y41100000D01*
X140384323Y41119685D01*
X140363681Y41136319D01*
X139936319Y41563681D01*
X139902834Y41625004D01*
X139900000Y41651362D01*
X139900000Y44594203D01*
X140300000Y44594203D01*
X140300000Y44400000D01*
X141675297Y44400000D01*
X141620163Y44266896D01*
X141585000Y44090120D01*
X141585000Y43909880D01*
X141620163Y43733104D01*
X141675297Y43600000D01*
X140300000Y43600000D01*
X140300000Y43405796D01*
X140337643Y43119881D01*
X140412283Y42841317D01*
X140522644Y42574883D01*
X140522648Y42574873D01*
X140666841Y42325123D01*
X140842402Y42096328D01*
X140842408Y42096321D01*
X141046321Y41892408D01*
X141046328Y41892402D01*
X141275123Y41716841D01*
X141524873Y41572648D01*
X141524883Y41572644D01*
X141791317Y41462283D01*
X142069881Y41387642D01*
X142100000Y41383676D01*
X142100000Y43175296D01*
X142233104Y43120163D01*
X142409880Y43085000D01*
X142590120Y43085000D01*
X142766896Y43120163D01*
X142900000Y43175296D01*
X142900000Y41383676D01*
X142930118Y41387642D01*
X143208682Y41462283D01*
X143475116Y41572644D01*
X143475126Y41572648D01*
X143724876Y41716841D01*
X143953671Y41892402D01*
X143953678Y41892408D01*
X144157591Y42096321D01*
X144157597Y42096328D01*
X144333158Y42325123D01*
X144477351Y42574873D01*
X144477355Y42574883D01*
X144587716Y42841317D01*
X144662356Y43119881D01*
X144699999Y43405796D01*
X144700000Y43405810D01*
X144700000Y43600000D01*
X143324703Y43600000D01*
X143379837Y43733104D01*
X143415000Y43909880D01*
X143415000Y44090120D01*
X143379837Y44266896D01*
X143324703Y44400000D01*
X144700000Y44400000D01*
X144700000Y44594189D01*
X144699999Y44594203D01*
X144662356Y44880118D01*
X144587716Y45158682D01*
X144477355Y45425116D01*
X144477351Y45425126D01*
X144333158Y45674876D01*
X144157597Y45903671D01*
X144157591Y45903678D01*
X143953678Y46107591D01*
X143953671Y46107597D01*
X143724876Y46283158D01*
X143475126Y46427351D01*
X143475116Y46427355D01*
X143208684Y46537715D01*
X142930113Y46612358D01*
X142900001Y46616322D01*
X142900000Y46616321D01*
X142900000Y44824703D01*
X142766896Y44879837D01*
X142590120Y44915000D01*
X142409880Y44915000D01*
X142233104Y44879837D01*
X142100000Y44824703D01*
X142100000Y46616321D01*
X142099998Y46616322D01*
X142069886Y46612358D01*
X141791315Y46537715D01*
X141524883Y46427355D01*
X141524873Y46427351D01*
X141275123Y46283158D01*
X141046328Y46107597D01*
X141046321Y46107591D01*
X140842408Y45903678D01*
X140842402Y45903671D01*
X140666841Y45674876D01*
X140522648Y45425126D01*
X140522644Y45425116D01*
X140412283Y45158682D01*
X140337643Y44880118D01*
X140300000Y44594203D01*
X139900000Y44594203D01*
X139900000Y46448638D01*
X139919685Y46515677D01*
X139936319Y46536319D01*
X140363681Y46963681D01*
X140425004Y46997166D01*
X140451362Y47000000D01*
X148948638Y47000000D01*
X149015677Y46980315D01*
G37*
%TD.AperFunction*%
%TD*%
%TA.AperFunction,Conductor*%
%TO.N,GND*%
G36*
X34915677Y97280315D02*
G01*
X34936319Y97263681D01*
X37163681Y95036319D01*
X37197166Y94974996D01*
X37200000Y94948638D01*
X37200000Y88697125D01*
X37180315Y88630086D01*
X37127511Y88584331D01*
X37058353Y88574387D01*
X36994797Y88603412D01*
X36988319Y88609444D01*
X36740413Y88857350D01*
X36082074Y89515690D01*
X35929199Y89626760D01*
X35760832Y89712547D01*
X35581118Y89770940D01*
X35561558Y89774038D01*
X35394486Y89800500D01*
X35394481Y89800500D01*
X34905733Y89800500D01*
X34838694Y89820185D01*
X34818051Y89836820D01*
X34773628Y89881243D01*
X34773624Y89881247D01*
X34596774Y90016948D01*
X34403726Y90128405D01*
X34197781Y90213710D01*
X33982463Y90271404D01*
X33761457Y90300500D01*
X33538543Y90300500D01*
X33317537Y90271404D01*
X33102219Y90213710D01*
X32896274Y90128405D01*
X32703226Y90016948D01*
X32703217Y90016941D01*
X32526377Y89881248D01*
X32526370Y89881242D01*
X32368757Y89723629D01*
X32368751Y89723622D01*
X32312860Y89650783D01*
X32233052Y89546774D01*
X32121595Y89353726D01*
X32121593Y89353722D01*
X32036293Y89147790D01*
X32036291Y89147783D01*
X32036290Y89147781D01*
X31978596Y88932463D01*
X31978595Y88932457D01*
X31978594Y88932452D01*
X31949501Y88711466D01*
X31949500Y88711450D01*
X31949500Y88488549D01*
X31949501Y88488533D01*
X31978594Y88267547D01*
X31978595Y88267540D01*
X31978596Y88267537D01*
X31992488Y88215690D01*
X32036290Y88052219D01*
X32036293Y88052209D01*
X32121593Y87846277D01*
X32121595Y87846273D01*
X32233052Y87653226D01*
X32233058Y87653217D01*
X32368751Y87476377D01*
X32368757Y87476370D01*
X32526370Y87318757D01*
X32526377Y87318751D01*
X32703217Y87183058D01*
X32703226Y87183052D01*
X32896273Y87071595D01*
X32896277Y87071593D01*
X33102209Y86986293D01*
X33102219Y86986290D01*
X33317537Y86928596D01*
X33317540Y86928595D01*
X33317547Y86928594D01*
X33538533Y86899501D01*
X33538537Y86899500D01*
X33538543Y86899500D01*
X33538550Y86899500D01*
X33761450Y86899500D01*
X33761457Y86899500D01*
X33761463Y86899500D01*
X33761466Y86899501D01*
X33982452Y86928594D01*
X33982457Y86928595D01*
X33982463Y86928596D01*
X34197781Y86986290D01*
X34197783Y86986291D01*
X34197790Y86986293D01*
X34403722Y87071593D01*
X34403726Y87071595D01*
X34596774Y87183052D01*
X34596777Y87183054D01*
X34596783Y87183058D01*
X34749512Y87300250D01*
X34814682Y87325444D01*
X34883126Y87311405D01*
X34912679Y87289555D01*
X35363181Y86839054D01*
X35396666Y86777731D01*
X35399500Y86751373D01*
X35399500Y84433553D01*
X35379815Y84366514D01*
X35327011Y84320759D01*
X35257853Y84310815D01*
X35194297Y84339840D01*
X35168113Y84371552D01*
X35066948Y84546774D01*
X34931247Y84723624D01*
X34773624Y84881247D01*
X34596774Y85016948D01*
X34403726Y85128405D01*
X34197781Y85213710D01*
X33982463Y85271404D01*
X33761457Y85300500D01*
X33538543Y85300500D01*
X33317537Y85271404D01*
X33102219Y85213710D01*
X32896274Y85128405D01*
X32703226Y85016948D01*
X32703217Y85016941D01*
X32526377Y84881248D01*
X32526370Y84881242D01*
X32368757Y84723629D01*
X32368751Y84723622D01*
X32261112Y84583343D01*
X32233052Y84546774D01*
X32154281Y84410340D01*
X32121595Y84353726D01*
X32121593Y84353722D01*
X32036293Y84147790D01*
X32036291Y84147783D01*
X32036290Y84147781D01*
X31978596Y83932463D01*
X31978595Y83932457D01*
X31978594Y83932452D01*
X31949501Y83711466D01*
X31949500Y83711450D01*
X31949500Y83488549D01*
X31949501Y83488533D01*
X31978594Y83267547D01*
X31978597Y83267534D01*
X32036290Y83052219D01*
X32036293Y83052209D01*
X32121593Y82846277D01*
X32121595Y82846273D01*
X32233052Y82653226D01*
X32233058Y82653217D01*
X32368751Y82476377D01*
X32368757Y82476370D01*
X32526370Y82318757D01*
X32526377Y82318751D01*
X32703217Y82183058D01*
X32703226Y82183052D01*
X32896273Y82071595D01*
X32896277Y82071593D01*
X33102209Y81986293D01*
X33102219Y81986290D01*
X33317537Y81928596D01*
X33317540Y81928595D01*
X33317547Y81928594D01*
X33538533Y81899501D01*
X33538537Y81899500D01*
X33538543Y81899500D01*
X33538550Y81899500D01*
X33761450Y81899500D01*
X33761457Y81899500D01*
X33761463Y81899500D01*
X33761466Y81899501D01*
X33982452Y81928594D01*
X33982457Y81928595D01*
X33982463Y81928596D01*
X34197781Y81986290D01*
X34197783Y81986291D01*
X34197790Y81986293D01*
X34403722Y82071593D01*
X34403726Y82071595D01*
X34482279Y82116948D01*
X34596774Y82183052D01*
X34655880Y82228405D01*
X34773622Y82318751D01*
X34773629Y82318757D01*
X34931242Y82476370D01*
X34931248Y82476377D01*
X35066941Y82653217D01*
X35066948Y82653226D01*
X35155731Y82807002D01*
X35168113Y82828447D01*
X35218681Y82876662D01*
X35287288Y82889884D01*
X35352152Y82863916D01*
X35392680Y82807002D01*
X35399500Y82766446D01*
X35399500Y79433553D01*
X35379815Y79366514D01*
X35327011Y79320759D01*
X35257853Y79310815D01*
X35194297Y79339840D01*
X35168113Y79371552D01*
X35140861Y79418753D01*
X35066948Y79546774D01*
X34931247Y79723624D01*
X34773624Y79881247D01*
X34596774Y80016948D01*
X34403726Y80128405D01*
X34197781Y80213710D01*
X33982463Y80271404D01*
X33761457Y80300500D01*
X33538543Y80300500D01*
X33317537Y80271404D01*
X33102219Y80213710D01*
X33102210Y80213706D01*
X33102209Y80213706D01*
X33082285Y80205453D01*
X32896274Y80128405D01*
X32703226Y80016948D01*
X32703217Y80016941D01*
X32526377Y79881248D01*
X32526370Y79881242D01*
X32368757Y79723629D01*
X32368751Y79723622D01*
X32245037Y79562393D01*
X32233052Y79546774D01*
X32159139Y79418753D01*
X32121595Y79353726D01*
X32121593Y79353722D01*
X32036293Y79147790D01*
X32036291Y79147783D01*
X32036290Y79147781D01*
X31978596Y78932463D01*
X31978595Y78932457D01*
X31978594Y78932452D01*
X31949501Y78711466D01*
X31949500Y78711450D01*
X31949500Y78488549D01*
X31949501Y78488533D01*
X31978594Y78267547D01*
X31978597Y78267534D01*
X32036290Y78052219D01*
X32036293Y78052209D01*
X32121593Y77846277D01*
X32121595Y77846273D01*
X32233052Y77653226D01*
X32233058Y77653217D01*
X32368751Y77476377D01*
X32368757Y77476370D01*
X32526370Y77318757D01*
X32526377Y77318751D01*
X32703217Y77183058D01*
X32703226Y77183052D01*
X32896273Y77071595D01*
X32896277Y77071593D01*
X33102209Y76986293D01*
X33102219Y76986290D01*
X33317537Y76928596D01*
X33317540Y76928595D01*
X33317547Y76928594D01*
X33538533Y76899501D01*
X33538537Y76899500D01*
X33538543Y76899500D01*
X33538550Y76899500D01*
X33761450Y76899500D01*
X33761457Y76899500D01*
X33761463Y76899500D01*
X33761466Y76899501D01*
X33982452Y76928594D01*
X33982457Y76928595D01*
X33982463Y76928596D01*
X34197781Y76986290D01*
X34197783Y76986291D01*
X34197790Y76986293D01*
X34403722Y77071593D01*
X34403726Y77071595D01*
X34445563Y77095750D01*
X34596774Y77183052D01*
X34730898Y77285968D01*
X34773622Y77318751D01*
X34773629Y77318757D01*
X34931242Y77476370D01*
X34931248Y77476377D01*
X35066941Y77653217D01*
X35066948Y77653226D01*
X35168113Y77828447D01*
X35218681Y77876662D01*
X35287288Y77889884D01*
X35352152Y77863916D01*
X35392680Y77807002D01*
X35399500Y77766446D01*
X35399500Y74432551D01*
X35379815Y74365512D01*
X35327011Y74319757D01*
X35257853Y74309813D01*
X35194297Y74338838D01*
X35168113Y74370552D01*
X35066535Y74546491D01*
X35066533Y74546494D01*
X34969905Y74672418D01*
X34969904Y74672418D01*
X34143214Y73845727D01*
X34090110Y73937708D01*
X33987708Y74040110D01*
X33895727Y74093214D01*
X34722418Y74919904D01*
X34722418Y74919905D01*
X34596494Y75016533D01*
X34596491Y75016535D01*
X34403520Y75127945D01*
X34403502Y75127954D01*
X34197618Y75213236D01*
X33982367Y75270911D01*
X33982354Y75270914D01*
X33761425Y75300000D01*
X33538575Y75300000D01*
X33317645Y75270914D01*
X33317632Y75270911D01*
X33102381Y75213236D01*
X32896497Y75127954D01*
X32896479Y75127945D01*
X32703508Y75016535D01*
X32703504Y75016533D01*
X32577580Y74919906D01*
X32577580Y74919904D01*
X33404272Y74093214D01*
X33312292Y74040110D01*
X33209890Y73937708D01*
X33156785Y73845726D01*
X32330094Y74672418D01*
X32330092Y74672418D01*
X32233466Y74546495D01*
X32233464Y74546491D01*
X32122054Y74353520D01*
X32122045Y74353502D01*
X32036763Y74147618D01*
X31979088Y73932367D01*
X31979085Y73932354D01*
X31950000Y73711424D01*
X31950000Y73488575D01*
X31979085Y73267645D01*
X31979088Y73267632D01*
X32036763Y73052381D01*
X32122045Y72846497D01*
X32122054Y72846479D01*
X32233462Y72653511D01*
X32330093Y72527580D01*
X33156785Y73354272D01*
X33209890Y73262292D01*
X33312292Y73159890D01*
X33404273Y73106785D01*
X32577580Y72280093D01*
X32703511Y72183462D01*
X32896479Y72072054D01*
X32896497Y72072045D01*
X33102381Y71986763D01*
X33317632Y71929088D01*
X33317645Y71929085D01*
X33538575Y71900000D01*
X33761425Y71900000D01*
X33982354Y71929085D01*
X33982367Y71929088D01*
X34197618Y71986763D01*
X34403502Y72072045D01*
X34403520Y72072054D01*
X34596491Y72183464D01*
X34596495Y72183466D01*
X34722418Y72280092D01*
X34722418Y72280094D01*
X33895726Y73106785D01*
X33987708Y73159890D01*
X34090110Y73262292D01*
X34143213Y73354271D01*
X34969904Y72527580D01*
X34969906Y72527580D01*
X35066532Y72653503D01*
X35168113Y72829448D01*
X35218680Y72877663D01*
X35287287Y72890887D01*
X35352151Y72864919D01*
X35392680Y72808005D01*
X35399500Y72767448D01*
X35399500Y69433553D01*
X35379815Y69366514D01*
X35327011Y69320759D01*
X35257853Y69310815D01*
X35194297Y69339840D01*
X35168113Y69371552D01*
X35066948Y69546774D01*
X34931247Y69723624D01*
X34773624Y69881247D01*
X34596774Y70016948D01*
X34403726Y70128405D01*
X34197781Y70213710D01*
X33982463Y70271404D01*
X33761457Y70300500D01*
X33538543Y70300500D01*
X33317537Y70271404D01*
X33102219Y70213710D01*
X32896274Y70128405D01*
X32703226Y70016948D01*
X32703217Y70016941D01*
X32607069Y69943165D01*
X32541900Y69917971D01*
X32473455Y69932010D01*
X32443905Y69953857D01*
X30536817Y71860946D01*
X30503334Y71922267D01*
X30500500Y71948625D01*
X30500500Y85794486D01*
X30470940Y85981118D01*
X30434187Y86094231D01*
X30412547Y86160832D01*
X30326760Y86329199D01*
X30297830Y86369018D01*
X30215690Y86482074D01*
X28432074Y88265690D01*
X28279199Y88376760D01*
X28110832Y88462547D01*
X27931118Y88520940D01*
X27744486Y88550500D01*
X27744481Y88550500D01*
X25513311Y88550500D01*
X25446272Y88570185D01*
X25400517Y88622989D01*
X25390573Y88692147D01*
X25419598Y88755703D01*
X25425630Y88762181D01*
X25520794Y88857345D01*
X25520798Y88857350D01*
X25668867Y89061151D01*
X25668870Y89061155D01*
X25748040Y89216535D01*
X25783239Y89285616D01*
X25783241Y89285621D01*
X25861090Y89525215D01*
X25900500Y89774038D01*
X25900500Y90025962D01*
X25861090Y90274785D01*
X25783241Y90514379D01*
X25668870Y90738845D01*
X25520793Y90942656D01*
X25376130Y91087319D01*
X25342645Y91148642D01*
X25347629Y91218334D01*
X25376130Y91262681D01*
X25520794Y91407345D01*
X25520798Y91407350D01*
X25668867Y91611151D01*
X25668870Y91611155D01*
X25765346Y91800500D01*
X25783239Y91835616D01*
X25790196Y91857026D01*
X25861090Y92075215D01*
X25900500Y92324038D01*
X25900500Y92575962D01*
X25861090Y92824785D01*
X25783241Y93064379D01*
X25668870Y93288845D01*
X25520793Y93492656D01*
X25342656Y93670793D01*
X25286732Y93711424D01*
X31950000Y93711424D01*
X31950000Y93488575D01*
X31979085Y93267645D01*
X31979088Y93267632D01*
X32036763Y93052381D01*
X32122045Y92846497D01*
X32122054Y92846479D01*
X32233462Y92653511D01*
X32330093Y92527580D01*
X33156785Y93354272D01*
X33209890Y93262292D01*
X33312292Y93159890D01*
X33404273Y93106785D01*
X32577580Y92280093D01*
X32703511Y92183462D01*
X32896479Y92072054D01*
X32896497Y92072045D01*
X33102381Y91986763D01*
X33317632Y91929088D01*
X33317645Y91929085D01*
X33538575Y91900000D01*
X33761425Y91900000D01*
X33982354Y91929085D01*
X33982367Y91929088D01*
X34197618Y91986763D01*
X34403502Y92072045D01*
X34403520Y92072054D01*
X34596491Y92183464D01*
X34596495Y92183466D01*
X34722418Y92280092D01*
X34722418Y92280094D01*
X33895726Y93106785D01*
X33987708Y93159890D01*
X34090110Y93262292D01*
X34143213Y93354271D01*
X34969904Y92527580D01*
X34969906Y92527580D01*
X35066533Y92653504D01*
X35066535Y92653508D01*
X35177945Y92846479D01*
X35177954Y92846497D01*
X35263236Y93052381D01*
X35320911Y93267632D01*
X35320914Y93267645D01*
X35350000Y93488575D01*
X35350000Y93711424D01*
X35320914Y93932354D01*
X35320911Y93932367D01*
X35263236Y94147618D01*
X35177954Y94353502D01*
X35177945Y94353520D01*
X35066535Y94546491D01*
X35066533Y94546494D01*
X34969905Y94672418D01*
X34969904Y94672418D01*
X34143214Y93845727D01*
X34090110Y93937708D01*
X33987708Y94040110D01*
X33895727Y94093214D01*
X34722418Y94919904D01*
X34722418Y94919905D01*
X34596494Y95016533D01*
X34596491Y95016535D01*
X34403520Y95127945D01*
X34403502Y95127954D01*
X34197618Y95213236D01*
X33982367Y95270911D01*
X33982354Y95270914D01*
X33761425Y95300000D01*
X33538575Y95300000D01*
X33317645Y95270914D01*
X33317632Y95270911D01*
X33102381Y95213236D01*
X32896497Y95127954D01*
X32896479Y95127945D01*
X32703508Y95016535D01*
X32703504Y95016533D01*
X32577580Y94919906D01*
X32577580Y94919904D01*
X33404272Y94093214D01*
X33312292Y94040110D01*
X33209890Y93937708D01*
X33156785Y93845726D01*
X32330094Y94672418D01*
X32330092Y94672418D01*
X32233466Y94546495D01*
X32233464Y94546491D01*
X32122054Y94353520D01*
X32122045Y94353502D01*
X32036763Y94147618D01*
X31979088Y93932367D01*
X31979085Y93932354D01*
X31950000Y93711424D01*
X25286732Y93711424D01*
X25138845Y93818870D01*
X24914379Y93933241D01*
X24674785Y94011090D01*
X24425962Y94050500D01*
X24174038Y94050500D01*
X23925215Y94011090D01*
X23685621Y93933241D01*
X23685618Y93933239D01*
X23685616Y93933239D01*
X23623108Y93901389D01*
X23461155Y93818870D01*
X23452101Y93812292D01*
X23262007Y93674182D01*
X23196201Y93650702D01*
X23189122Y93650500D01*
X18155513Y93650500D01*
X18038870Y93632025D01*
X17968882Y93620940D01*
X17789168Y93562547D01*
X17620801Y93476760D01*
X17467926Y93365690D01*
X17467923Y93365687D01*
X16584306Y92482070D01*
X16499511Y92365357D01*
X16499509Y92365355D01*
X16473242Y92329202D01*
X16473236Y92329191D01*
X16387454Y92160836D01*
X16329059Y91981118D01*
X16299500Y91794486D01*
X16299500Y90405513D01*
X16329059Y90218881D01*
X16387454Y90039163D01*
X16473240Y89870800D01*
X16510015Y89820185D01*
X16584310Y89717927D01*
X16584312Y89717925D01*
X16584312Y89717924D01*
X16717924Y89584312D01*
X16870800Y89473240D01*
X17039163Y89387454D01*
X17218881Y89329059D01*
X17405514Y89299500D01*
X17405519Y89299500D01*
X17594486Y89299500D01*
X17781118Y89329059D01*
X17960836Y89387454D01*
X18129199Y89473240D01*
X18282073Y89584310D01*
X18415690Y89717927D01*
X18526760Y89870801D01*
X18601225Y90016947D01*
X18612545Y90039163D01*
X18670940Y90218881D01*
X18700500Y90405513D01*
X18700500Y91125500D01*
X18720185Y91192539D01*
X18772989Y91238294D01*
X18824500Y91249500D01*
X19375500Y91249500D01*
X19442539Y91229815D01*
X19488294Y91177011D01*
X19499500Y91125500D01*
X19499500Y87605513D01*
X19529059Y87418881D01*
X19587454Y87239163D01*
X19673240Y87070800D01*
X19784312Y86917923D01*
X20134310Y86567927D01*
X20267924Y86434312D01*
X20420800Y86323240D01*
X20589163Y86237454D01*
X20768881Y86179059D01*
X20955514Y86149500D01*
X20955519Y86149500D01*
X23189122Y86149500D01*
X23256161Y86129815D01*
X23262007Y86125818D01*
X23461151Y85981132D01*
X23685616Y85866760D01*
X23925214Y85788910D01*
X24049626Y85769205D01*
X24174038Y85749500D01*
X24174039Y85749500D01*
X24425961Y85749500D01*
X24425962Y85749500D01*
X24674785Y85788910D01*
X24691946Y85794486D01*
X24914383Y85866760D01*
X25068747Y85945413D01*
X25138845Y85981130D01*
X25138848Y85981132D01*
X25337993Y86125818D01*
X25403799Y86149298D01*
X25410878Y86149500D01*
X27101374Y86149500D01*
X27168413Y86129815D01*
X27189055Y86113181D01*
X28063181Y85239055D01*
X28096666Y85177732D01*
X28099500Y85151374D01*
X28099500Y71305513D01*
X28129059Y71118881D01*
X28187454Y70939163D01*
X28273240Y70770800D01*
X28384312Y70617923D01*
X31317923Y67684312D01*
X31317929Y67684307D01*
X31384650Y67635832D01*
X31451654Y67587151D01*
X31456206Y67583843D01*
X31470799Y67573240D01*
X31639163Y67487454D01*
X31818881Y67429059D01*
X32005514Y67399500D01*
X32005519Y67399500D01*
X32394267Y67399500D01*
X32461306Y67379815D01*
X32481949Y67363180D01*
X32526371Y67318756D01*
X32526377Y67318751D01*
X32703217Y67183058D01*
X32703226Y67183052D01*
X32896273Y67071595D01*
X32896277Y67071593D01*
X33102209Y66986293D01*
X33102219Y66986290D01*
X33317537Y66928596D01*
X33317540Y66928595D01*
X33317547Y66928594D01*
X33538533Y66899501D01*
X33538537Y66899500D01*
X33538543Y66899500D01*
X33538550Y66899500D01*
X33761450Y66899500D01*
X33761457Y66899500D01*
X33761463Y66899500D01*
X33761466Y66899501D01*
X33982452Y66928594D01*
X33982457Y66928595D01*
X33982463Y66928596D01*
X34197781Y66986290D01*
X34197783Y66986291D01*
X34197790Y66986293D01*
X34403722Y67071593D01*
X34403726Y67071595D01*
X34517796Y67137454D01*
X34596774Y67183052D01*
X34666360Y67236447D01*
X34773622Y67318751D01*
X34773629Y67318757D01*
X34931242Y67476370D01*
X34931248Y67476377D01*
X35066941Y67653217D01*
X35066948Y67653226D01*
X35168113Y67828447D01*
X35218681Y67876662D01*
X35287288Y67889884D01*
X35352152Y67863916D01*
X35392680Y67807002D01*
X35399500Y67766446D01*
X35399500Y66548625D01*
X35379815Y66481586D01*
X35363181Y66460944D01*
X33037000Y64134764D01*
X30984308Y62082072D01*
X30984306Y62082070D01*
X30962016Y62051389D01*
X30949206Y62033757D01*
X30897124Y61962072D01*
X30873240Y61929199D01*
X30787454Y61760836D01*
X30729059Y61581118D01*
X30699500Y61394486D01*
X30699500Y37995513D01*
X30729059Y37808881D01*
X30787454Y37629163D01*
X30873240Y37460800D01*
X30984312Y37307923D01*
X31838181Y36454055D01*
X31871666Y36392732D01*
X31874500Y36366374D01*
X31874500Y35210877D01*
X31854815Y35143838D01*
X31850818Y35137992D01*
X31728542Y34969693D01*
X31706130Y34938845D01*
X31690320Y34907816D01*
X31591760Y34714383D01*
X31513910Y34474785D01*
X31474500Y34225961D01*
X31474500Y33974038D01*
X31513910Y33725214D01*
X31591760Y33485616D01*
X31706132Y33261151D01*
X31854201Y33057350D01*
X31854205Y33057345D01*
X32032345Y32879205D01*
X32032350Y32879201D01*
X32236151Y32731132D01*
X32460616Y32616760D01*
X32700214Y32538910D01*
X32824626Y32519205D01*
X32949038Y32499500D01*
X32949039Y32499500D01*
X33200961Y32499500D01*
X33200962Y32499500D01*
X33449785Y32538910D01*
X33689383Y32616760D01*
X33843747Y32695413D01*
X33913845Y32731130D01*
X33913848Y32731132D01*
X34117649Y32879201D01*
X34117654Y32879205D01*
X34212819Y32974370D01*
X34274142Y33007855D01*
X34343834Y33002871D01*
X34399767Y32960999D01*
X34424184Y32895535D01*
X34424500Y32886689D01*
X34424500Y27477126D01*
X34404815Y27410087D01*
X34397152Y27399446D01*
X34315524Y27297896D01*
X34281063Y27255024D01*
X34197660Y27086858D01*
X34152358Y26904695D01*
X34149500Y26862543D01*
X34149500Y25137456D01*
X34152358Y25095304D01*
X34197660Y24913141D01*
X34281062Y24744978D01*
X34281063Y24744976D01*
X34281064Y24744975D01*
X34398668Y24598668D01*
X34544975Y24481064D01*
X34544976Y24481063D01*
X34544978Y24481062D01*
X34713141Y24397660D01*
X34895306Y24352358D01*
X34895302Y24352358D01*
X34926917Y24350214D01*
X34937454Y24349500D01*
X34937456Y24349500D01*
X36662544Y24349500D01*
X36662546Y24349500D01*
X36679404Y24350643D01*
X36704695Y24352358D01*
X36886858Y24397660D01*
X37055021Y24481062D01*
X37055025Y24481064D01*
X37201332Y24598668D01*
X37318936Y24744975D01*
X37318936Y24744976D01*
X37318938Y24744978D01*
X37361400Y24830595D01*
X37408821Y24881908D01*
X37472488Y24899500D01*
X43591745Y24899500D01*
X43658784Y24879815D01*
X43664630Y24875818D01*
X43765974Y24802187D01*
X43962393Y24702104D01*
X43962396Y24702103D01*
X44172047Y24633985D01*
X44295779Y24614387D01*
X44358913Y24584457D01*
X44364061Y24579595D01*
X48013181Y20930476D01*
X48046666Y20869153D01*
X48049500Y20842795D01*
X48049500Y15755733D01*
X48029815Y15688694D01*
X48013185Y15668056D01*
X47932383Y15587254D01*
X47868750Y15523621D01*
X47733952Y15347947D01*
X47733052Y15346774D01*
X47661073Y15222103D01*
X47621595Y15153726D01*
X47621593Y15153722D01*
X47536293Y14947790D01*
X47536291Y14947783D01*
X47536290Y14947781D01*
X47519774Y14886142D01*
X47483410Y14826483D01*
X47420563Y14795954D01*
X47351188Y14804249D01*
X47297310Y14848734D01*
X47280226Y14886141D01*
X47263710Y14947781D01*
X47178405Y15153726D01*
X47066948Y15346774D01*
X46931247Y15523624D01*
X46773624Y15681247D01*
X46596774Y15816948D01*
X46403726Y15928405D01*
X46197781Y16013710D01*
X45982463Y16071404D01*
X45761457Y16100500D01*
X45538543Y16100500D01*
X45317537Y16071404D01*
X45102219Y16013710D01*
X44896274Y15928405D01*
X44703226Y15816948D01*
X44703217Y15816941D01*
X44526378Y15681249D01*
X44526377Y15681248D01*
X44526376Y15681247D01*
X44381946Y15536817D01*
X44320626Y15503334D01*
X44294267Y15500500D01*
X40886610Y15500500D01*
X40713389Y15500500D01*
X40542299Y15473402D01*
X40377554Y15419873D01*
X40377551Y15419871D01*
X40377549Y15419871D01*
X40333921Y15397641D01*
X40223212Y15341232D01*
X40083072Y15239414D01*
X40083069Y15239411D01*
X37533748Y12690090D01*
X37472425Y12656605D01*
X37402733Y12661589D01*
X37346800Y12703461D01*
X37334981Y12722671D01*
X37318936Y12755025D01*
X37201332Y12901332D01*
X37055025Y13018936D01*
X36886857Y13102340D01*
X36704696Y13147641D01*
X36704695Y13147641D01*
X36704692Y13147642D01*
X36662546Y13150500D01*
X34937454Y13150500D01*
X34895308Y13147642D01*
X34713143Y13102340D01*
X34544975Y13018936D01*
X34398668Y12901332D01*
X34281064Y12755025D01*
X34281062Y12755021D01*
X34197660Y12586858D01*
X34152358Y12404695D01*
X34149500Y12362543D01*
X34149500Y10637456D01*
X34152358Y10595304D01*
X34197660Y10413141D01*
X34281062Y10244978D01*
X34281063Y10244976D01*
X34281064Y10244975D01*
X34398668Y10098668D01*
X34544975Y9981064D01*
X34544976Y9981063D01*
X34544978Y9981062D01*
X34713141Y9897660D01*
X34895306Y9852358D01*
X34895302Y9852358D01*
X34926917Y9850214D01*
X34937454Y9849500D01*
X34937456Y9849500D01*
X36662544Y9849500D01*
X36662546Y9849500D01*
X36679404Y9850643D01*
X36704695Y9852358D01*
X36886858Y9897660D01*
X37055021Y9981062D01*
X37055025Y9981064D01*
X37201332Y10098668D01*
X37318936Y10244975D01*
X37318936Y10244976D01*
X37318938Y10244978D01*
X37361400Y10330595D01*
X37408821Y10381908D01*
X37472488Y10399500D01*
X37986610Y10399500D01*
X37986611Y10399500D01*
X38065792Y10412041D01*
X38157697Y10426597D01*
X38157699Y10426597D01*
X38157701Y10426598D01*
X38322445Y10480127D01*
X38476788Y10558768D01*
X38616928Y10660586D01*
X41219523Y13263181D01*
X41280846Y13296666D01*
X41307204Y13299500D01*
X44294267Y13299500D01*
X44361306Y13279815D01*
X44381943Y13263185D01*
X44454163Y13190965D01*
X44526378Y13118750D01*
X44703217Y12983058D01*
X44703226Y12983052D01*
X44896273Y12871595D01*
X44896277Y12871593D01*
X45102209Y12786293D01*
X45102219Y12786290D01*
X45317537Y12728596D01*
X45317540Y12728595D01*
X45317547Y12728594D01*
X45538533Y12699501D01*
X45538537Y12699500D01*
X45538543Y12699500D01*
X45538550Y12699500D01*
X45761450Y12699500D01*
X45761457Y12699500D01*
X45761463Y12699500D01*
X45761466Y12699501D01*
X45982452Y12728594D01*
X45982457Y12728595D01*
X45982463Y12728596D01*
X46197781Y12786290D01*
X46197783Y12786291D01*
X46197790Y12786293D01*
X46403722Y12871593D01*
X46403726Y12871595D01*
X46455230Y12901331D01*
X46596774Y12983052D01*
X46596782Y12983058D01*
X46773622Y13118751D01*
X46773629Y13118757D01*
X46931242Y13276370D01*
X46931248Y13276377D01*
X47066941Y13453217D01*
X47066948Y13453226D01*
X47178405Y13646274D01*
X47263710Y13852219D01*
X47280225Y13913857D01*
X47316590Y13973516D01*
X47379437Y14004045D01*
X47448813Y13995750D01*
X47502691Y13951265D01*
X47519773Y13913858D01*
X47532428Y13866632D01*
X47536291Y13852216D01*
X47536293Y13852209D01*
X47621593Y13646277D01*
X47621595Y13646273D01*
X47733052Y13453226D01*
X47733058Y13453217D01*
X47868751Y13276377D01*
X47868757Y13276370D01*
X48026370Y13118757D01*
X48026377Y13118751D01*
X48203217Y12983058D01*
X48203226Y12983052D01*
X48396273Y12871595D01*
X48396277Y12871593D01*
X48602209Y12786293D01*
X48602219Y12786290D01*
X48817537Y12728596D01*
X48817540Y12728595D01*
X48817547Y12728594D01*
X49038533Y12699501D01*
X49038537Y12699500D01*
X49038543Y12699500D01*
X49038550Y12699500D01*
X49261450Y12699500D01*
X49261457Y12699500D01*
X49261463Y12699500D01*
X49261466Y12699501D01*
X49482452Y12728594D01*
X49482457Y12728595D01*
X49482463Y12728596D01*
X49697781Y12786290D01*
X49697783Y12786291D01*
X49697790Y12786293D01*
X49903722Y12871593D01*
X49903726Y12871595D01*
X49955230Y12901331D01*
X50096774Y12983052D01*
X50096782Y12983058D01*
X50273622Y13118751D01*
X50273629Y13118757D01*
X50431242Y13276370D01*
X50431248Y13276377D01*
X50566941Y13453217D01*
X50566948Y13453226D01*
X50678405Y13646274D01*
X50763710Y13852219D01*
X50821404Y14067537D01*
X50850500Y14288543D01*
X50850500Y14416610D01*
X67059500Y14416610D01*
X67059500Y9623389D01*
X67086597Y9452302D01*
X67140128Y9287552D01*
X67218768Y9133211D01*
X67250163Y9090000D01*
X67320586Y8993072D01*
X67320588Y8993070D01*
X67320588Y8993069D01*
X67443069Y8870588D01*
X67583211Y8768768D01*
X67737552Y8690128D01*
X67902302Y8636597D01*
X67902301Y8636597D01*
X68041192Y8614599D01*
X68073389Y8609500D01*
X68073390Y8609500D01*
X68246610Y8609500D01*
X68246611Y8609500D01*
X68298239Y8617677D01*
X68417697Y8636597D01*
X68417699Y8636597D01*
X68417701Y8636598D01*
X68582445Y8690127D01*
X68736788Y8768768D01*
X68876928Y8870586D01*
X68999414Y8993072D01*
X69101232Y9133212D01*
X69179873Y9287555D01*
X69233402Y9452299D01*
X69260500Y9623389D01*
X69260500Y12881456D01*
X71739499Y12881456D01*
X71777947Y12688170D01*
X71777950Y12688160D01*
X71853364Y12506092D01*
X71853371Y12506079D01*
X71962860Y12342218D01*
X71962863Y12342214D01*
X72102214Y12202863D01*
X72102218Y12202860D01*
X72266079Y12093371D01*
X72266092Y12093364D01*
X72448160Y12017950D01*
X72448170Y12017947D01*
X72641457Y11979500D01*
X72641459Y11979500D01*
X91408544Y11979500D01*
X91496864Y11997068D01*
X91505188Y11998724D01*
X91601836Y12017949D01*
X91657821Y12041139D01*
X91664617Y12043954D01*
X91664624Y12043956D01*
X91783907Y12093364D01*
X91783920Y12093371D01*
X91947780Y12202859D01*
X92008602Y12263681D01*
X92087139Y12342218D01*
X92087140Y12342220D01*
X92094206Y12349286D01*
X92094206Y12349285D01*
X92094209Y12349289D01*
X92478102Y12733181D01*
X92539425Y12766666D01*
X92565783Y12769500D01*
X94658531Y12769500D01*
X94681027Y12762894D01*
X94704370Y12760716D01*
X94717200Y12752272D01*
X94725570Y12749815D01*
X94734973Y12743135D01*
X94740893Y12738499D01*
X94777635Y12701758D01*
X94919035Y12599025D01*
X94920811Y12597635D01*
X94939897Y12570953D01*
X94959920Y12544988D01*
X94960117Y12542687D01*
X94961462Y12540808D01*
X94963093Y12508044D01*
X94965899Y12475375D01*
X94964821Y12473332D01*
X94964936Y12471025D01*
X94948597Y12442584D01*
X94933293Y12413580D01*
X94930587Y12411235D01*
X94930131Y12410441D01*
X94928985Y12409847D01*
X94917254Y12399682D01*
X94777641Y12298247D01*
X94777636Y12298243D01*
X94621756Y12142363D01*
X94621752Y12142358D01*
X94492187Y11964025D01*
X94392104Y11767606D01*
X94392103Y11767603D01*
X94323985Y11557952D01*
X94289500Y11340221D01*
X94289500Y11119778D01*
X94323985Y10902047D01*
X94392103Y10692396D01*
X94392104Y10692393D01*
X94492187Y10495974D01*
X94621752Y10317641D01*
X94621756Y10317636D01*
X94777636Y10161756D01*
X94917681Y10060008D01*
X94960346Y10004678D01*
X94966325Y9935065D01*
X94933719Y9873270D01*
X94917680Y9859372D01*
X94777964Y9757862D01*
X94777958Y9757857D01*
X94622142Y9602041D01*
X94492613Y9423760D01*
X94392567Y9227410D01*
X94324473Y9017838D01*
X94324473Y9017835D01*
X94300266Y8865000D01*
X95629156Y8865000D01*
X95617259Y8844394D01*
X95590000Y8742661D01*
X95590000Y8637339D01*
X95617259Y8535606D01*
X95629156Y8515000D01*
X94300266Y8515000D01*
X94324473Y8362164D01*
X94324473Y8362161D01*
X94392567Y8152589D01*
X94492613Y7956239D01*
X94622142Y7777958D01*
X94777958Y7622142D01*
X94956239Y7492613D01*
X95152589Y7392567D01*
X95362164Y7324473D01*
X95579819Y7290000D01*
X95815000Y7290000D01*
X95815000Y8329155D01*
X95835606Y8317259D01*
X95937339Y8290000D01*
X96042661Y8290000D01*
X96144394Y8317259D01*
X96165000Y8329155D01*
X96165000Y7290000D01*
X96400181Y7290000D01*
X96617835Y7324473D01*
X96827410Y7392567D01*
X97023760Y7492613D01*
X97202041Y7622142D01*
X97357857Y7777958D01*
X97487386Y7956239D01*
X97587432Y8152589D01*
X97655526Y8362161D01*
X97655526Y8362164D01*
X97679734Y8515000D01*
X96350844Y8515000D01*
X96362741Y8535606D01*
X96390000Y8637339D01*
X96390000Y8742661D01*
X96362741Y8844394D01*
X96350844Y8865000D01*
X97679734Y8865000D01*
X97655526Y9017835D01*
X97655526Y9017838D01*
X97587432Y9227410D01*
X97487386Y9423760D01*
X97357857Y9602041D01*
X97202041Y9757857D01*
X97202035Y9757862D01*
X97062319Y9859372D01*
X97019653Y9914702D01*
X97013674Y9984315D01*
X97046279Y10046110D01*
X97062319Y10060008D01*
X97202358Y10161752D01*
X97202363Y10161756D01*
X97358243Y10317636D01*
X97358247Y10317641D01*
X97487812Y10495974D01*
X97487815Y10495978D01*
X97571689Y10660588D01*
X97587895Y10692393D01*
X97587896Y10692396D01*
X97644148Y10865526D01*
X97656015Y10902049D01*
X97690500Y11119778D01*
X97690500Y11340222D01*
X97656015Y11557951D01*
X97587895Y11767606D01*
X97487815Y11964022D01*
X97358242Y12142365D01*
X97202365Y12298242D01*
X97155568Y12332242D01*
X97062745Y12399682D01*
X97020079Y12455011D01*
X97014100Y12524625D01*
X97046705Y12586420D01*
X97062745Y12600318D01*
X97202358Y12701752D01*
X97202363Y12701756D01*
X97358243Y12857636D01*
X97358247Y12857641D01*
X97487812Y13035974D01*
X97487815Y13035978D01*
X97553237Y13164375D01*
X97587895Y13232393D01*
X97587896Y13232396D01*
X97656014Y13442047D01*
X97656015Y13442049D01*
X97690500Y13659778D01*
X97690500Y13880222D01*
X97656015Y14097951D01*
X97587895Y14307606D01*
X97487815Y14504022D01*
X97382371Y14649153D01*
X97358248Y14682357D01*
X97358247Y14682358D01*
X97358242Y14682365D01*
X97222742Y14817864D01*
X97189260Y14879183D01*
X97194244Y14948875D01*
X97236115Y15004809D01*
X97255330Y15016630D01*
X97300753Y15039158D01*
X97444940Y15155059D01*
X97520579Y15249158D01*
X97560842Y15299247D01*
X97643037Y15464979D01*
X97687683Y15644505D01*
X97690500Y15686046D01*
X97690500Y16420221D01*
X101909500Y16420221D01*
X101909500Y16199778D01*
X101943985Y15982047D01*
X102012103Y15772396D01*
X102012104Y15772393D01*
X102112187Y15575974D01*
X102241752Y15397641D01*
X102241756Y15397636D01*
X102397636Y15241756D01*
X102397641Y15241752D01*
X102537254Y15140318D01*
X102579920Y15084988D01*
X102585899Y15015375D01*
X102553293Y14953580D01*
X102537254Y14939682D01*
X102397641Y14838247D01*
X102397636Y14838243D01*
X102241756Y14682363D01*
X102241752Y14682358D01*
X102112187Y14504025D01*
X102012104Y14307606D01*
X102012103Y14307603D01*
X101955032Y14131952D01*
X101943985Y14097951D01*
X101919293Y13942049D01*
X101909500Y13880221D01*
X101909500Y13659778D01*
X101943985Y13442047D01*
X102012103Y13232396D01*
X102012104Y13232393D01*
X102112187Y13035974D01*
X102241752Y12857641D01*
X102241756Y12857636D01*
X102397636Y12701756D01*
X102397641Y12701752D01*
X102537254Y12600318D01*
X102579920Y12544988D01*
X102585899Y12475375D01*
X102553293Y12413580D01*
X102537254Y12399682D01*
X102397641Y12298247D01*
X102397636Y12298243D01*
X102241756Y12142363D01*
X102241752Y12142358D01*
X102112187Y11964025D01*
X102012104Y11767606D01*
X102012103Y11767603D01*
X101943985Y11557952D01*
X101909500Y11340221D01*
X101909500Y11119778D01*
X101943985Y10902047D01*
X102012103Y10692396D01*
X102012104Y10692393D01*
X102112187Y10495974D01*
X102241752Y10317641D01*
X102241756Y10317636D01*
X102397636Y10161756D01*
X102397641Y10161752D01*
X102537254Y10060318D01*
X102579920Y10004988D01*
X102585899Y9935375D01*
X102553293Y9873580D01*
X102537254Y9859682D01*
X102397641Y9758247D01*
X102397636Y9758243D01*
X102241756Y9602363D01*
X102241752Y9602358D01*
X102112187Y9424025D01*
X102112185Y9424022D01*
X102087207Y9375000D01*
X102012104Y9227606D01*
X102012103Y9227603D01*
X101943985Y9017952D01*
X101909500Y8800221D01*
X101909500Y8579778D01*
X101943985Y8362047D01*
X102012103Y8152396D01*
X102012104Y8152393D01*
X102112187Y7955974D01*
X102241752Y7777641D01*
X102241756Y7777636D01*
X102397636Y7621756D01*
X102397641Y7621752D01*
X102575974Y7492187D01*
X102772393Y7392104D01*
X102772396Y7392103D01*
X102982047Y7323985D01*
X103127201Y7300995D01*
X103199778Y7289500D01*
X103199779Y7289500D01*
X104020221Y7289500D01*
X104020222Y7289500D01*
X104133572Y7307453D01*
X104237952Y7323985D01*
X104447603Y7392103D01*
X104447606Y7392104D01*
X104581096Y7460122D01*
X104644022Y7492185D01*
X104644611Y7492613D01*
X104822358Y7621752D01*
X104822363Y7621756D01*
X104978243Y7777636D01*
X104978247Y7777641D01*
X105107812Y7955974D01*
X105107815Y7955978D01*
X105194192Y8125500D01*
X105207895Y8152393D01*
X105207896Y8152396D01*
X105261462Y8317259D01*
X105276015Y8362049D01*
X105310500Y8579778D01*
X105310500Y8800222D01*
X105276015Y9017951D01*
X105207895Y9227606D01*
X105107815Y9424022D01*
X104978242Y9602365D01*
X104822365Y9758242D01*
X104775568Y9792242D01*
X104682745Y9859682D01*
X104640079Y9915011D01*
X104634100Y9984625D01*
X104666705Y10046420D01*
X104682745Y10060318D01*
X104822358Y10161752D01*
X104822363Y10161756D01*
X104978243Y10317636D01*
X104978247Y10317641D01*
X105107812Y10495974D01*
X105107815Y10495978D01*
X105191689Y10660588D01*
X105207895Y10692393D01*
X105207896Y10692396D01*
X105264148Y10865526D01*
X105276015Y10902049D01*
X105310500Y11119778D01*
X105310500Y11340222D01*
X105276015Y11557951D01*
X105207895Y11767606D01*
X105107815Y11964022D01*
X104978242Y12142365D01*
X104822365Y12298242D01*
X104775568Y12332242D01*
X104682745Y12399682D01*
X104640079Y12455011D01*
X104634100Y12524625D01*
X104666705Y12586420D01*
X104682745Y12600318D01*
X104822358Y12701752D01*
X104822363Y12701756D01*
X104978243Y12857636D01*
X104978247Y12857641D01*
X105107812Y13035974D01*
X105107815Y13035978D01*
X105173237Y13164375D01*
X105207895Y13232393D01*
X105207896Y13232396D01*
X105276014Y13442047D01*
X105276015Y13442049D01*
X105310500Y13659778D01*
X105310500Y13880222D01*
X105276015Y14097951D01*
X105207895Y14307606D01*
X105107815Y14504022D01*
X104978242Y14682365D01*
X104822365Y14838242D01*
X104775568Y14872242D01*
X104682745Y14939682D01*
X104640079Y14995011D01*
X104634100Y15064625D01*
X104666705Y15126420D01*
X104682745Y15140318D01*
X104822358Y15241752D01*
X104822363Y15241756D01*
X104978243Y15397636D01*
X104978247Y15397641D01*
X105107812Y15575974D01*
X105107815Y15575978D01*
X105187466Y15732300D01*
X105207895Y15772393D01*
X105207896Y15772396D01*
X105250456Y15903385D01*
X105276015Y15982049D01*
X105310500Y16199778D01*
X105310500Y16420222D01*
X105276015Y16637951D01*
X105207895Y16847606D01*
X105107815Y17044022D01*
X104978242Y17222365D01*
X104822365Y17378242D01*
X104644022Y17507815D01*
X104447606Y17607895D01*
X104237951Y17676015D01*
X104020222Y17710500D01*
X103199778Y17710500D01*
X102982049Y17676015D01*
X102925382Y17657603D01*
X102772396Y17607896D01*
X102772393Y17607895D01*
X102719302Y17580843D01*
X102575978Y17507815D01*
X102575974Y17507812D01*
X102397641Y17378247D01*
X102397636Y17378243D01*
X102241756Y17222363D01*
X102241752Y17222358D01*
X102112187Y17044025D01*
X102012104Y16847606D01*
X102012103Y16847603D01*
X101943985Y16637952D01*
X101909500Y16420221D01*
X97690500Y16420221D01*
X97690500Y16933954D01*
X97687683Y16975495D01*
X97643037Y17155021D01*
X97560842Y17320753D01*
X97444940Y17464940D01*
X97300753Y17580842D01*
X97135021Y17663037D01*
X96955499Y17707682D01*
X96955498Y17707682D01*
X96955495Y17707683D01*
X96913954Y17710500D01*
X95066046Y17710500D01*
X95024505Y17707683D01*
X95024501Y17707682D01*
X95024500Y17707682D01*
X94980566Y17696756D01*
X94844979Y17663037D01*
X94679247Y17580842D01*
X94588395Y17507812D01*
X94535060Y17464940D01*
X94448143Y17356812D01*
X94390799Y17316894D01*
X94351496Y17310500D01*
X84221457Y17310500D01*
X84028170Y17272052D01*
X84028165Y17272051D01*
X84028160Y17272049D01*
X83846092Y17196635D01*
X83846079Y17196628D01*
X83682218Y17087139D01*
X83682214Y17087136D01*
X83542863Y16947785D01*
X83542860Y16947781D01*
X83433371Y16783920D01*
X83433364Y16783907D01*
X83357950Y16601839D01*
X83357947Y16601829D01*
X83319500Y16408543D01*
X83319500Y16211456D01*
X83319499Y16211456D01*
X83357947Y16018170D01*
X83357950Y16018160D01*
X83433364Y15836092D01*
X83433371Y15836079D01*
X83542860Y15672218D01*
X83542863Y15672214D01*
X83682214Y15532863D01*
X83682218Y15532860D01*
X83846079Y15423371D01*
X83846092Y15423364D01*
X84028160Y15347950D01*
X84028170Y15347947D01*
X84221457Y15309500D01*
X84221459Y15309500D01*
X84418541Y15309500D01*
X94351496Y15309500D01*
X94418535Y15289815D01*
X94448143Y15263188D01*
X94535059Y15155060D01*
X94679248Y15039157D01*
X94724670Y15016629D01*
X94745803Y14997097D01*
X94768840Y14979852D01*
X94771142Y14973678D01*
X94775981Y14969207D01*
X94783199Y14941352D01*
X94793257Y14914388D01*
X94791856Y14907949D01*
X94793509Y14901572D01*
X94784522Y14874237D01*
X94778405Y14846115D01*
X94772828Y14838665D01*
X94771688Y14835197D01*
X94757254Y14817861D01*
X94746212Y14806819D01*
X94684889Y14773334D01*
X94658531Y14770500D01*
X92001459Y14770500D01*
X91979093Y14766051D01*
X91808165Y14732052D01*
X91764825Y14714099D01*
X91717150Y14694352D01*
X91717128Y14694342D01*
X91717125Y14694341D01*
X91626086Y14656632D01*
X91626085Y14656631D01*
X91626082Y14656630D01*
X91513104Y14581140D01*
X91462216Y14547138D01*
X91462213Y14547135D01*
X90931899Y14016819D01*
X90870576Y13983334D01*
X90844218Y13980500D01*
X72641457Y13980500D01*
X72494486Y13951265D01*
X72448165Y13942051D01*
X72448160Y13942049D01*
X72266092Y13866635D01*
X72266079Y13866628D01*
X72102218Y13757139D01*
X72102214Y13757136D01*
X71962863Y13617785D01*
X71962860Y13617781D01*
X71853371Y13453920D01*
X71853364Y13453907D01*
X71777950Y13271839D01*
X71777947Y13271829D01*
X71739500Y13078543D01*
X71739500Y12881456D01*
X71739499Y12881456D01*
X69260500Y12881456D01*
X69260500Y13822796D01*
X69280185Y13889835D01*
X69296819Y13910477D01*
X70659420Y15273078D01*
X70761229Y15413208D01*
X70766408Y15423371D01*
X70822197Y15532863D01*
X70839871Y15567550D01*
X70841929Y15573883D01*
X70893403Y15732300D01*
X70906951Y15817845D01*
X70920500Y15903385D01*
X70920500Y16076615D01*
X70902217Y16192049D01*
X70893403Y16247701D01*
X70839873Y16412446D01*
X70761232Y16566788D01*
X70735766Y16601839D01*
X70659420Y16706922D01*
X70659417Y16706924D01*
X70659415Y16706928D01*
X70536928Y16829415D01*
X70536924Y16829417D01*
X70536922Y16829420D01*
X70396792Y16931229D01*
X70396788Y16931232D01*
X70242446Y17009873D01*
X70077701Y17063403D01*
X69975047Y17079661D01*
X69906615Y17090500D01*
X69906611Y17090500D01*
X69733390Y17090500D01*
X69733386Y17090500D01*
X69657350Y17078456D01*
X69562300Y17063403D01*
X69397555Y17009873D01*
X69397552Y17009871D01*
X69397550Y17009871D01*
X69330092Y16975499D01*
X69243213Y16931232D01*
X69243210Y16931230D01*
X69243208Y16931229D01*
X69103078Y16829420D01*
X69103073Y16829415D01*
X67443072Y15169414D01*
X67320586Y15046928D01*
X67218768Y14906788D01*
X67140127Y14752445D01*
X67108995Y14656631D01*
X67086597Y14587697D01*
X67059500Y14416610D01*
X50850500Y14416610D01*
X50850500Y14511457D01*
X50821404Y14732463D01*
X50763710Y14947781D01*
X50678405Y15153726D01*
X50566948Y15346774D01*
X50431247Y15523624D01*
X50286817Y15668053D01*
X50253334Y15729374D01*
X50250500Y15755733D01*
X50250500Y21436610D01*
X50246231Y21463566D01*
X50223402Y21607701D01*
X50169873Y21772445D01*
X50091232Y21926788D01*
X49989414Y22066928D01*
X49866928Y22189414D01*
X45946119Y26110221D01*
X48099500Y26110221D01*
X48099500Y25889778D01*
X48133985Y25672047D01*
X48202103Y25462396D01*
X48202104Y25462393D01*
X48302187Y25265974D01*
X48431752Y25087641D01*
X48431756Y25087636D01*
X48587636Y24931756D01*
X48587641Y24931752D01*
X48765974Y24802187D01*
X48962393Y24702104D01*
X48962396Y24702103D01*
X49172047Y24633985D01*
X49295785Y24614387D01*
X49389778Y24599500D01*
X49389779Y24599500D01*
X49610221Y24599500D01*
X49610222Y24599500D01*
X49719086Y24616742D01*
X49827952Y24633985D01*
X50037603Y24702103D01*
X50037606Y24702104D01*
X50182404Y24775884D01*
X50234022Y24802185D01*
X50234025Y24802187D01*
X50412358Y24931752D01*
X50412363Y24931756D01*
X50568243Y25087636D01*
X50568247Y25087641D01*
X50636827Y25182033D01*
X50636829Y25182037D01*
X50697815Y25265978D01*
X50797895Y25462393D01*
X50797896Y25462396D01*
X50840157Y25592465D01*
X50866015Y25672049D01*
X50900500Y25889778D01*
X50900500Y26110222D01*
X50866015Y26327951D01*
X50797895Y26537606D01*
X50697815Y26734022D01*
X50568242Y26912365D01*
X50412365Y27068242D01*
X50234022Y27197815D01*
X50037606Y27297895D01*
X49827951Y27366015D01*
X49610222Y27400500D01*
X49389778Y27400500D01*
X49172049Y27366015D01*
X49128958Y27352014D01*
X48962396Y27297896D01*
X48962393Y27297895D01*
X48941816Y27287410D01*
X48765978Y27197815D01*
X48765974Y27197812D01*
X48587641Y27068247D01*
X48587636Y27068243D01*
X48431756Y26912363D01*
X48431752Y26912358D01*
X48313793Y26749999D01*
X48302185Y26734022D01*
X48271606Y26674008D01*
X48202104Y26537606D01*
X48202103Y26537603D01*
X48133985Y26327952D01*
X48130216Y26304157D01*
X48114029Y26201951D01*
X48099500Y26110221D01*
X45946119Y26110221D01*
X45920401Y26135939D01*
X45886918Y26197260D01*
X45885618Y26204173D01*
X45866015Y26327951D01*
X45797895Y26537606D01*
X45697815Y26734022D01*
X45568242Y26912365D01*
X45412365Y27068242D01*
X45234022Y27197815D01*
X45037606Y27297895D01*
X44827951Y27366015D01*
X44610222Y27400500D01*
X44389778Y27400500D01*
X44172049Y27366015D01*
X44128958Y27352014D01*
X43962396Y27297896D01*
X43962393Y27297895D01*
X43941816Y27287410D01*
X43765978Y27197815D01*
X43765974Y27197812D01*
X43664630Y27124182D01*
X43598824Y27100702D01*
X43591745Y27100500D01*
X37472488Y27100500D01*
X37405449Y27120185D01*
X37361400Y27169405D01*
X37318938Y27255021D01*
X37318936Y27255024D01*
X37318936Y27255025D01*
X37201332Y27401332D01*
X37055025Y27518936D01*
X36894401Y27598598D01*
X36843093Y27646015D01*
X36825500Y27709683D01*
X36825500Y28048951D01*
X54174500Y28048951D01*
X54174500Y26951048D01*
X54177317Y26909500D01*
X54221963Y26729978D01*
X54221964Y26729976D01*
X54304156Y26564249D01*
X54420059Y26420059D01*
X54564247Y26304157D01*
X54663961Y26254704D01*
X54715273Y26207283D01*
X54732802Y26139648D01*
X54710983Y26073272D01*
X54695079Y26056964D01*
X54694746Y26052738D01*
X55397165Y25350321D01*
X55359115Y25340126D01*
X55275884Y25292073D01*
X55207927Y25224116D01*
X55159874Y25140885D01*
X55149678Y25102834D01*
X54447260Y25805252D01*
X54447259Y25805251D01*
X54366761Y25694454D01*
X54272075Y25508627D01*
X54207626Y25310272D01*
X54175000Y25104279D01*
X54175000Y24895720D01*
X54207626Y24689727D01*
X54272075Y24491372D01*
X54366757Y24305552D01*
X54447260Y24194747D01*
X55149678Y24897166D01*
X55159874Y24859115D01*
X55207927Y24775884D01*
X55275884Y24707927D01*
X55359115Y24659874D01*
X55397166Y24649678D01*
X54694747Y23947260D01*
X54805555Y23866755D01*
X54805556Y23866754D01*
X54817313Y23860764D01*
X54868108Y23812788D01*
X54884901Y23744967D01*
X54862361Y23678832D01*
X54817309Y23639796D01*
X54805286Y23633670D01*
X54636495Y23511035D01*
X54636493Y23511033D01*
X54488966Y23363506D01*
X54366330Y23194714D01*
X54271612Y23008820D01*
X54207137Y22810389D01*
X54174500Y22604324D01*
X54174500Y22395675D01*
X54207137Y22189610D01*
X54271612Y21991179D01*
X54366330Y21805285D01*
X54488966Y21636493D01*
X54636493Y21488966D01*
X54805285Y21366330D01*
X54991179Y21271612D01*
X55189610Y21207137D01*
X55395676Y21174500D01*
X55395681Y21174500D01*
X55604324Y21174500D01*
X55810389Y21207137D01*
X56008820Y21271612D01*
X56194714Y21366330D01*
X56207773Y21375818D01*
X56273580Y21399298D01*
X56280659Y21399500D01*
X57426610Y21399500D01*
X57426611Y21399500D01*
X57478239Y21407677D01*
X57597697Y21426597D01*
X57597699Y21426597D01*
X57597701Y21426598D01*
X57762445Y21480127D01*
X57916788Y21558768D01*
X58056928Y21660586D01*
X60199523Y23803181D01*
X60260846Y23836666D01*
X60287204Y23839500D01*
X71556610Y23839500D01*
X71556611Y23839500D01*
X71608239Y23847677D01*
X71727697Y23866597D01*
X71727699Y23866597D01*
X71727701Y23866598D01*
X71892445Y23920127D01*
X72046788Y23998768D01*
X72186928Y24100586D01*
X72309414Y24223072D01*
X72411232Y24363212D01*
X72489873Y24517555D01*
X72543402Y24682299D01*
X72570500Y24853389D01*
X72570500Y25026611D01*
X72543402Y25197701D01*
X72489873Y25362445D01*
X72411232Y25516788D01*
X72309414Y25656928D01*
X72186928Y25779414D01*
X72046788Y25881232D01*
X71892445Y25959873D01*
X71727701Y26013402D01*
X71556611Y26040500D01*
X59866611Y26040500D01*
X59693389Y26040500D01*
X59522299Y26013402D01*
X59357555Y25959873D01*
X59203212Y25881232D01*
X59063072Y25779414D01*
X59063069Y25779411D01*
X56920477Y23636819D01*
X56859154Y23603334D01*
X56832796Y23600500D01*
X56280659Y23600500D01*
X56264057Y23605219D01*
X56247776Y23604940D01*
X56222819Y23616944D01*
X56215424Y23619047D01*
X56211496Y23621476D01*
X56194714Y23633670D01*
X56178110Y23642129D01*
X56173749Y23644828D01*
X56153710Y23667164D01*
X56131896Y23687766D01*
X56130624Y23692899D01*
X56127092Y23696837D01*
X56122310Y23726464D01*
X56115098Y23755586D01*
X56116803Y23760592D01*
X56115961Y23765814D01*
X56127954Y23793319D01*
X56137632Y23821722D01*
X56141983Y23825492D01*
X56143888Y23829860D01*
X56157521Y23838957D01*
X56182689Y23860765D01*
X56194449Y23866757D01*
X56194450Y23866758D01*
X56305251Y23947259D01*
X56305252Y23947260D01*
X55602833Y24649678D01*
X55640885Y24659874D01*
X55724116Y24707927D01*
X55792073Y24775884D01*
X55840126Y24859115D01*
X55850321Y24897165D01*
X56552738Y24194746D01*
X56552739Y24194747D01*
X56633238Y24305545D01*
X56727924Y24491372D01*
X56792373Y24689727D01*
X56825000Y24895720D01*
X56825000Y25104279D01*
X56792373Y25310272D01*
X56727924Y25508627D01*
X56633240Y25694451D01*
X56552738Y25805251D01*
X56552738Y25805252D01*
X55850321Y25102834D01*
X55840126Y25140885D01*
X55792073Y25224116D01*
X55724116Y25292073D01*
X55640885Y25340126D01*
X55602834Y25350321D01*
X56305252Y26052738D01*
X56304602Y26060989D01*
X56275581Y26098624D01*
X56269600Y26168237D01*
X56302204Y26230033D01*
X56336037Y26254703D01*
X56435750Y26304156D01*
X56435751Y26304157D01*
X56435753Y26304158D01*
X56477785Y26337945D01*
X56579940Y26420059D01*
X56660070Y26519745D01*
X56695842Y26564247D01*
X56778037Y26729979D01*
X56815840Y26881989D01*
X56822682Y26909500D01*
X56822682Y26909501D01*
X56822683Y26909505D01*
X56825500Y26951046D01*
X56825500Y28048954D01*
X56822683Y28090495D01*
X56778037Y28270021D01*
X56695842Y28435753D01*
X56579940Y28579940D01*
X56435753Y28695842D01*
X56270021Y28778037D01*
X56090499Y28822682D01*
X56090498Y28822682D01*
X56090495Y28822683D01*
X56048954Y28825500D01*
X54951046Y28825500D01*
X54909505Y28822683D01*
X54909501Y28822682D01*
X54909500Y28822682D01*
X54865566Y28811756D01*
X54729979Y28778037D01*
X54564247Y28695842D01*
X54530352Y28668596D01*
X54420059Y28579940D01*
X54304156Y28435750D01*
X54221964Y28270023D01*
X54221963Y28270021D01*
X54177317Y28090499D01*
X54174500Y28048951D01*
X36825500Y28048951D01*
X36825500Y32886689D01*
X36845185Y32953728D01*
X36897989Y32999483D01*
X36967147Y33009427D01*
X37030703Y32980402D01*
X37037181Y32974370D01*
X37132345Y32879205D01*
X37132350Y32879201D01*
X37336151Y32731132D01*
X37560616Y32616760D01*
X37800214Y32538910D01*
X37924626Y32519205D01*
X38049038Y32499500D01*
X38049039Y32499500D01*
X38300961Y32499500D01*
X38300962Y32499500D01*
X38549785Y32538910D01*
X38789383Y32616760D01*
X38943747Y32695413D01*
X39013845Y32731130D01*
X39013848Y32731132D01*
X39217649Y32879201D01*
X39217654Y32879205D01*
X39395794Y33057345D01*
X39395798Y33057350D01*
X39543867Y33261151D01*
X39543870Y33261155D01*
X39647062Y33463681D01*
X39658239Y33485616D01*
X39679813Y33552014D01*
X39736090Y33725215D01*
X39775500Y33974038D01*
X39775500Y34225962D01*
X39736090Y34474785D01*
X39658241Y34714379D01*
X39543870Y34938845D01*
X39399182Y35137992D01*
X39375702Y35203798D01*
X39375500Y35210877D01*
X39375500Y36499486D01*
X39345940Y36686118D01*
X39287547Y36865832D01*
X39201760Y37034199D01*
X39090690Y37187073D01*
X38957073Y37320690D01*
X38447074Y37830690D01*
X38294199Y37941760D01*
X38125832Y38027547D01*
X37946118Y38085940D01*
X37759486Y38115500D01*
X37759481Y38115500D01*
X33623625Y38115500D01*
X33556586Y38135185D01*
X33535944Y38151819D01*
X33136819Y38550944D01*
X33103334Y38612267D01*
X33100500Y38638625D01*
X33100500Y44661450D01*
X35099500Y44661450D01*
X35099500Y44438549D01*
X35099501Y44438533D01*
X35128594Y44217547D01*
X35128597Y44217534D01*
X35186290Y44002219D01*
X35186293Y44002209D01*
X35271593Y43796277D01*
X35271595Y43796273D01*
X35383052Y43603226D01*
X35383058Y43603217D01*
X35518751Y43426377D01*
X35518757Y43426370D01*
X35676370Y43268757D01*
X35676377Y43268751D01*
X35853217Y43133058D01*
X35853226Y43133052D01*
X36046273Y43021595D01*
X36046277Y43021593D01*
X36252209Y42936293D01*
X36252216Y42936291D01*
X36252217Y42936290D01*
X36252219Y42936290D01*
X36313857Y42919774D01*
X36373516Y42883410D01*
X36404045Y42820563D01*
X36395750Y42751187D01*
X36351265Y42697309D01*
X36313858Y42680226D01*
X36252219Y42663710D01*
X36046274Y42578405D01*
X35853226Y42466948D01*
X35853217Y42466941D01*
X35676377Y42331248D01*
X35676370Y42331242D01*
X35518757Y42173629D01*
X35518751Y42173622D01*
X35383058Y41996782D01*
X35383052Y41996774D01*
X35364031Y41963828D01*
X35271595Y41803726D01*
X35271593Y41803722D01*
X35186293Y41597790D01*
X35186291Y41597783D01*
X35186290Y41597781D01*
X35128596Y41382463D01*
X35128595Y41382457D01*
X35128594Y41382452D01*
X35099501Y41161466D01*
X35099500Y41161450D01*
X35099500Y40938549D01*
X35099501Y40938533D01*
X35128594Y40717547D01*
X35128597Y40717534D01*
X35186290Y40502219D01*
X35186293Y40502209D01*
X35271593Y40296277D01*
X35271595Y40296273D01*
X35383052Y40103226D01*
X35383058Y40103217D01*
X35518751Y39926377D01*
X35518757Y39926370D01*
X35676370Y39768757D01*
X35676377Y39768751D01*
X35853217Y39633058D01*
X35853226Y39633052D01*
X36046273Y39521595D01*
X36046277Y39521593D01*
X36252209Y39436293D01*
X36252219Y39436290D01*
X36467537Y39378596D01*
X36467540Y39378595D01*
X36467547Y39378594D01*
X36688533Y39349501D01*
X36688537Y39349500D01*
X36688543Y39349500D01*
X36688550Y39349500D01*
X36911450Y39349500D01*
X36911457Y39349500D01*
X36911463Y39349500D01*
X36911466Y39349501D01*
X37132452Y39378594D01*
X37132457Y39378595D01*
X37132463Y39378596D01*
X37347781Y39436290D01*
X37347783Y39436291D01*
X37347790Y39436293D01*
X37553722Y39521593D01*
X37553726Y39521595D01*
X37607275Y39552512D01*
X37746774Y39633052D01*
X37795111Y39670142D01*
X37923622Y39768751D01*
X37923629Y39768757D01*
X38081242Y39926370D01*
X38081248Y39926377D01*
X38216941Y40103217D01*
X38216948Y40103226D01*
X38328405Y40296274D01*
X38413710Y40502219D01*
X38471404Y40717537D01*
X38500500Y40938543D01*
X38500500Y41161457D01*
X38471404Y41382463D01*
X38413710Y41597781D01*
X38328405Y41803726D01*
X38216948Y41996774D01*
X38081247Y42173624D01*
X37923624Y42331247D01*
X37746774Y42466948D01*
X37553726Y42578405D01*
X37347781Y42663710D01*
X37286142Y42680225D01*
X37226483Y42716590D01*
X37195954Y42779437D01*
X37204249Y42848812D01*
X37248734Y42902690D01*
X37286141Y42919773D01*
X37347781Y42936290D01*
X37347783Y42936291D01*
X37347790Y42936293D01*
X37553722Y43021593D01*
X37553726Y43021595D01*
X37624227Y43062299D01*
X37746774Y43133052D01*
X37810028Y43181588D01*
X37923622Y43268751D01*
X37923629Y43268757D01*
X38081242Y43426370D01*
X38081248Y43426377D01*
X38216941Y43603217D01*
X38216948Y43603226D01*
X38328405Y43796274D01*
X38413710Y44002219D01*
X38471404Y44217537D01*
X38500500Y44438543D01*
X38500500Y44661457D01*
X38471404Y44882463D01*
X38413710Y45097781D01*
X38328405Y45303726D01*
X38216948Y45496774D01*
X38081247Y45673624D01*
X37923624Y45831247D01*
X37746774Y45966948D01*
X37553726Y46078405D01*
X37347781Y46163710D01*
X37132463Y46221404D01*
X36911457Y46250500D01*
X36688543Y46250500D01*
X36467537Y46221404D01*
X36252219Y46163710D01*
X36046274Y46078405D01*
X35853226Y45966948D01*
X35853217Y45966941D01*
X35676377Y45831248D01*
X35676370Y45831242D01*
X35518757Y45673629D01*
X35518751Y45673622D01*
X35405513Y45526046D01*
X35383052Y45496774D01*
X35356336Y45450500D01*
X35271595Y45303726D01*
X35271593Y45303722D01*
X35186293Y45097790D01*
X35186291Y45097783D01*
X35186290Y45097781D01*
X35128596Y44882463D01*
X35128595Y44882457D01*
X35128594Y44882452D01*
X35099501Y44661466D01*
X35099500Y44661450D01*
X33100500Y44661450D01*
X33100500Y52110221D01*
X34099500Y52110221D01*
X34099500Y51889778D01*
X34133985Y51672047D01*
X34202103Y51462396D01*
X34202104Y51462393D01*
X34302187Y51265974D01*
X34431752Y51087641D01*
X34431756Y51087636D01*
X34587636Y50931756D01*
X34587641Y50931752D01*
X34765974Y50802187D01*
X34962393Y50702104D01*
X34962396Y50702103D01*
X35172047Y50633985D01*
X35317201Y50610995D01*
X35389778Y50599500D01*
X35389779Y50599500D01*
X35610221Y50599500D01*
X35610222Y50599500D01*
X35719086Y50616742D01*
X35827952Y50633985D01*
X36037603Y50702103D01*
X36037606Y50702104D01*
X36171096Y50770122D01*
X36234022Y50802185D01*
X36279475Y50835208D01*
X36412358Y50931752D01*
X36412363Y50931756D01*
X36568243Y51087636D01*
X36568247Y51087641D01*
X36697812Y51265974D01*
X36697815Y51265978D01*
X36792860Y51452512D01*
X36797895Y51462393D01*
X36797896Y51462396D01*
X36866014Y51672047D01*
X36866015Y51672049D01*
X36900500Y51889778D01*
X36900500Y52110222D01*
X36866015Y52327951D01*
X36797895Y52537606D01*
X36697815Y52734022D01*
X36568242Y52912365D01*
X36412365Y53068242D01*
X36234022Y53197815D01*
X36037606Y53297895D01*
X35827951Y53366015D01*
X35610222Y53400500D01*
X35389778Y53400500D01*
X35172049Y53366015D01*
X35067221Y53331955D01*
X34962396Y53297896D01*
X34962393Y53297895D01*
X34931018Y53281908D01*
X34765978Y53197815D01*
X34765974Y53197812D01*
X34587641Y53068247D01*
X34587636Y53068243D01*
X34431756Y52912363D01*
X34431752Y52912358D01*
X34302187Y52734025D01*
X34202104Y52537606D01*
X34202103Y52537603D01*
X34133985Y52327952D01*
X34099500Y52110221D01*
X33100500Y52110221D01*
X33100500Y60751374D01*
X33120185Y60818413D01*
X33136819Y60839055D01*
X36988319Y64690555D01*
X37049642Y64724040D01*
X37119334Y64719056D01*
X37175267Y64677184D01*
X37199684Y64611720D01*
X37200000Y64602874D01*
X37200000Y55799999D01*
X38163681Y54836319D01*
X38197166Y54774996D01*
X38200000Y54748638D01*
X38200000Y48599999D01*
X41063681Y45736319D01*
X41097166Y45674996D01*
X41100000Y45648638D01*
X41100000Y35199999D01*
X46099999Y30200000D01*
X46100000Y30200000D01*
X55648638Y30200000D01*
X55715677Y30180315D01*
X55736319Y30163681D01*
X55749999Y30150000D01*
X55750000Y30150000D01*
X71560000Y30150000D01*
X72640000Y31230000D01*
X72640000Y32098951D01*
X74929500Y32098951D01*
X74929500Y30251048D01*
X74932317Y30209500D01*
X74976963Y30029978D01*
X74976964Y30029976D01*
X75059156Y29864249D01*
X75175059Y29720059D01*
X75319249Y29604156D01*
X75484976Y29521964D01*
X75484978Y29521963D01*
X75664502Y29477317D01*
X75664498Y29477317D01*
X75696814Y29475126D01*
X75706046Y29474500D01*
X75706048Y29474500D01*
X76953952Y29474500D01*
X76953954Y29474500D01*
X76967801Y29475439D01*
X76995499Y29477317D01*
X77175021Y29521963D01*
X77175023Y29521964D01*
X77340750Y29604156D01*
X77340751Y29604157D01*
X77340753Y29604158D01*
X77431602Y29677185D01*
X77484940Y29720059D01*
X77600842Y29864247D01*
X77623369Y29909668D01*
X77670790Y29960980D01*
X77738425Y29978509D01*
X77804801Y29956690D01*
X77822138Y29942255D01*
X77957642Y29806751D01*
X78135974Y29677187D01*
X78332393Y29577104D01*
X78332396Y29577103D01*
X78542047Y29508985D01*
X78687201Y29485995D01*
X78759778Y29474500D01*
X78759779Y29474500D01*
X78980221Y29474500D01*
X78980222Y29474500D01*
X79089086Y29491742D01*
X79197952Y29508985D01*
X79407603Y29577103D01*
X79407606Y29577104D01*
X79541096Y29645122D01*
X79604022Y29677185D01*
X79604025Y29677187D01*
X79782358Y29806752D01*
X79782363Y29806756D01*
X79938243Y29962636D01*
X79938247Y29962641D01*
X80067815Y30140978D01*
X80067816Y30140979D01*
X80149515Y30301319D01*
X80149517Y30301325D01*
X80167895Y30337393D01*
X80167896Y30337396D01*
X80227500Y30520843D01*
X80236015Y30547049D01*
X80270500Y30764778D01*
X80270500Y31454116D01*
X82200000Y31454116D01*
X82200000Y31225883D01*
X82235704Y31000455D01*
X82306230Y30783395D01*
X82409851Y30580030D01*
X82507768Y30445257D01*
X82507770Y30445256D01*
X83238441Y31175927D01*
X83239985Y31170166D01*
X83297912Y31069834D01*
X83379834Y30987912D01*
X83480166Y30929985D01*
X83485928Y30928440D01*
X82755256Y30197770D01*
X82755257Y30197768D01*
X82890030Y30099851D01*
X83093395Y29996230D01*
X83310455Y29925704D01*
X83535884Y29890000D01*
X83764116Y29890000D01*
X83989544Y29925704D01*
X84206604Y29996230D01*
X84409966Y30099849D01*
X84544741Y30197770D01*
X84544742Y30197770D01*
X83814071Y30928440D01*
X83819834Y30929985D01*
X83920166Y30987912D01*
X84002088Y31069834D01*
X84060015Y31170166D01*
X84061558Y31175926D01*
X84792228Y30445256D01*
X84792228Y30445257D01*
X84890150Y30580033D01*
X84993769Y30783395D01*
X85064295Y31000455D01*
X85100000Y31225883D01*
X85100000Y31454116D01*
X85064295Y31679544D01*
X84993769Y31896604D01*
X84890154Y32099958D01*
X84890150Y32099964D01*
X84792228Y32234741D01*
X84792228Y32234742D01*
X84061558Y31504072D01*
X84060015Y31509834D01*
X84002088Y31610166D01*
X83920166Y31692088D01*
X83819834Y31750015D01*
X83814072Y31751558D01*
X84544742Y32482228D01*
X84409964Y32580150D01*
X84409958Y32580154D01*
X84206604Y32683769D01*
X83989544Y32754295D01*
X83764116Y32790000D01*
X83535884Y32790000D01*
X83310455Y32754295D01*
X83093395Y32683769D01*
X82890033Y32580150D01*
X82755257Y32482228D01*
X82755256Y32482228D01*
X83485927Y31751558D01*
X83480166Y31750015D01*
X83379834Y31692088D01*
X83297912Y31610166D01*
X83239985Y31509834D01*
X83238441Y31504071D01*
X82507770Y32234742D01*
X82507770Y32234741D01*
X82409849Y32099966D01*
X82306230Y31896604D01*
X82235704Y31679544D01*
X82200000Y31454116D01*
X80270500Y31454116D01*
X80270500Y31585222D01*
X80236015Y31802951D01*
X80167895Y32012606D01*
X80067815Y32209022D01*
X79938242Y32387365D01*
X79782365Y32543242D01*
X79604022Y32672815D01*
X79407606Y32772895D01*
X79197951Y32841015D01*
X78980222Y32875500D01*
X78759778Y32875500D01*
X78542049Y32841015D01*
X78437221Y32806955D01*
X78332396Y32772896D01*
X78332393Y32772895D01*
X78279302Y32745843D01*
X78135978Y32672815D01*
X78135974Y32672812D01*
X77957641Y32543247D01*
X77957636Y32543243D01*
X77822138Y32407745D01*
X77760815Y32374260D01*
X77691123Y32379244D01*
X77635190Y32421116D01*
X77623369Y32440332D01*
X77600843Y32485750D01*
X77600842Y32485753D01*
X77484940Y32629940D01*
X77340753Y32745842D01*
X77175021Y32828037D01*
X76995499Y32872682D01*
X76995498Y32872682D01*
X76995495Y32872683D01*
X76953954Y32875500D01*
X75706046Y32875500D01*
X75664505Y32872683D01*
X75664501Y32872682D01*
X75664500Y32872682D01*
X75620566Y32861756D01*
X75484979Y32828037D01*
X75319247Y32745842D01*
X75300945Y32731130D01*
X75175059Y32629940D01*
X75135040Y32580154D01*
X75070209Y32499500D01*
X75059156Y32485750D01*
X74976964Y32320023D01*
X74976963Y32320021D01*
X74932317Y32140499D01*
X74932317Y32140495D01*
X74929569Y32099964D01*
X74929500Y32098951D01*
X72640000Y32098951D01*
X72640000Y32118638D01*
X72659685Y32185677D01*
X72676319Y32206319D01*
X73933681Y33463681D01*
X73995004Y33497166D01*
X74021362Y33500000D01*
X87948638Y33500000D01*
X88015677Y33480315D01*
X88036319Y33463681D01*
X90763681Y30736319D01*
X90797166Y30674996D01*
X90800000Y30648638D01*
X90800000Y26199999D01*
X91999999Y25000000D01*
X92000000Y25000000D01*
X116502874Y25000000D01*
X116569913Y24980315D01*
X116615668Y24927511D01*
X116625612Y24858353D01*
X116596587Y24794797D01*
X116590555Y24788319D01*
X109374310Y17572074D01*
X109296473Y17464940D01*
X109296472Y17464938D01*
X109296471Y17464938D01*
X109263240Y17419199D01*
X109177454Y17250836D01*
X109119059Y17071118D01*
X109089500Y16884486D01*
X109089500Y14935469D01*
X109069815Y14868430D01*
X109053181Y14847788D01*
X108921756Y14716363D01*
X108921752Y14716358D01*
X108798808Y14547138D01*
X108792185Y14538022D01*
X108774861Y14504022D01*
X108692104Y14341606D01*
X108692103Y14341603D01*
X108623985Y14131952D01*
X108623985Y14131951D01*
X108599998Y13980500D01*
X108589500Y13914221D01*
X108589500Y13693778D01*
X108623985Y13476047D01*
X108692103Y13266396D01*
X108692104Y13266393D01*
X108792187Y13069974D01*
X108921752Y12891641D01*
X108921756Y12891636D01*
X109077636Y12735756D01*
X109077641Y12735752D01*
X109217254Y12634318D01*
X109259920Y12578988D01*
X109265899Y12509375D01*
X109233293Y12447580D01*
X109217254Y12433682D01*
X109077641Y12332247D01*
X109077636Y12332243D01*
X108921756Y12176363D01*
X108921752Y12176358D01*
X108806661Y12017947D01*
X108792185Y11998022D01*
X108774861Y11964022D01*
X108692104Y11801606D01*
X108692103Y11801603D01*
X108623985Y11591952D01*
X108589500Y11374221D01*
X108589500Y11153778D01*
X108623985Y10936047D01*
X108692103Y10726396D01*
X108692104Y10726393D01*
X108792187Y10529974D01*
X108921752Y10351641D01*
X108921756Y10351636D01*
X109077636Y10195756D01*
X109077641Y10195752D01*
X109217254Y10094318D01*
X109259920Y10038988D01*
X109265899Y9969375D01*
X109233293Y9907580D01*
X109217254Y9893682D01*
X109077641Y9792247D01*
X109077636Y9792243D01*
X108921756Y9636363D01*
X108921752Y9636358D01*
X108792187Y9458025D01*
X108792185Y9458022D01*
X108760122Y9395096D01*
X108692104Y9261606D01*
X108692103Y9261603D01*
X108623985Y9051952D01*
X108589500Y8834221D01*
X108589500Y8613778D01*
X108623985Y8396047D01*
X108692103Y8186396D01*
X108692104Y8186393D01*
X108792187Y7989974D01*
X108921752Y7811641D01*
X108921756Y7811636D01*
X109077635Y7655757D01*
X109138387Y7611618D01*
X109181052Y7556287D01*
X109189500Y7511301D01*
X109189500Y6993389D01*
X109216597Y6822302D01*
X109270128Y6657552D01*
X109348768Y6503211D01*
X109365633Y6479999D01*
X109450586Y6363072D01*
X109450588Y6363070D01*
X109450588Y6363069D01*
X113753069Y2060588D01*
X113893211Y1958768D01*
X114047552Y1880128D01*
X114212302Y1826597D01*
X114212301Y1826597D01*
X114351192Y1804599D01*
X114383389Y1799500D01*
X114383390Y1799500D01*
X114556611Y1799500D01*
X115327111Y1799500D01*
X115394150Y1779815D01*
X115414792Y1763181D01*
X115422487Y1755485D01*
X115613566Y1616657D01*
X115824003Y1509433D01*
X116048631Y1436446D01*
X116281903Y1399500D01*
X116281908Y1399500D01*
X116518097Y1399500D01*
X116751368Y1436446D01*
X116975996Y1509433D01*
X117186433Y1616657D01*
X117377510Y1755483D01*
X117544517Y1922490D01*
X117683343Y2113567D01*
X117744126Y2232861D01*
X117790566Y2324003D01*
X117792255Y2329199D01*
X117863553Y2548632D01*
X117874174Y2615690D01*
X117900500Y2781902D01*
X117900500Y3018097D01*
X117863553Y3251368D01*
X117837004Y3333076D01*
X117790568Y3475992D01*
X117683343Y3686433D01*
X117544517Y3877510D01*
X117377510Y4044517D01*
X117186433Y4183343D01*
X116975992Y4290568D01*
X116751368Y4363553D01*
X116518097Y4400500D01*
X116518092Y4400500D01*
X116281908Y4400500D01*
X116281903Y4400500D01*
X116048631Y4363553D01*
X115944412Y4329689D01*
X115824008Y4290568D01*
X115824005Y4290566D01*
X115824003Y4290566D01*
X115712991Y4234002D01*
X115613567Y4183343D01*
X115422490Y4044517D01*
X115422487Y4044514D01*
X115414792Y4036819D01*
X115353469Y4003334D01*
X115327111Y4000500D01*
X114977204Y4000500D01*
X114910165Y4020185D01*
X114889523Y4036819D01*
X113200560Y5725782D01*
X111470778Y7455563D01*
X111437295Y7516884D01*
X111442279Y7586576D01*
X111484151Y7642509D01*
X111485514Y7643515D01*
X111502365Y7655758D01*
X111658242Y7811635D01*
X111658243Y7811636D01*
X111658247Y7811641D01*
X111787812Y7989974D01*
X111787815Y7989978D01*
X111869351Y8150000D01*
X111887895Y8186393D01*
X111887896Y8186396D01*
X111945005Y8362164D01*
X111956015Y8396049D01*
X111990500Y8613778D01*
X111990500Y8834222D01*
X111956015Y9051951D01*
X111887895Y9261606D01*
X111787815Y9458022D01*
X111658242Y9636365D01*
X111502365Y9792242D01*
X111453375Y9827835D01*
X111362745Y9893682D01*
X111320079Y9949011D01*
X111314100Y10018625D01*
X111346705Y10080420D01*
X111362745Y10094318D01*
X111502358Y10195752D01*
X111502363Y10195756D01*
X111658243Y10351636D01*
X111658247Y10351641D01*
X111787812Y10529974D01*
X111787815Y10529978D01*
X111854365Y10660588D01*
X111887895Y10726393D01*
X111887896Y10726396D01*
X111933101Y10865526D01*
X111956015Y10936049D01*
X111990500Y11153778D01*
X111990500Y11374222D01*
X111956015Y11591951D01*
X111887895Y11801606D01*
X111787815Y11998022D01*
X111658242Y12176365D01*
X111502365Y12332242D01*
X111478902Y12349289D01*
X111362745Y12433682D01*
X111320079Y12489011D01*
X111314100Y12558625D01*
X111346705Y12620420D01*
X111362745Y12634318D01*
X111502358Y12735752D01*
X111502363Y12735756D01*
X111658243Y12891636D01*
X111658247Y12891641D01*
X111787812Y13069974D01*
X111787815Y13069978D01*
X111853237Y13198375D01*
X111887895Y13266393D01*
X111887896Y13266396D01*
X111944968Y13442049D01*
X111956015Y13476049D01*
X111990500Y13693778D01*
X111990500Y13914221D01*
X116209500Y13914221D01*
X116209500Y13693778D01*
X116243985Y13476047D01*
X116312103Y13266396D01*
X116312104Y13266393D01*
X116412187Y13069974D01*
X116541752Y12891641D01*
X116541756Y12891636D01*
X116697636Y12735756D01*
X116837681Y12634008D01*
X116880346Y12578678D01*
X116886325Y12509065D01*
X116853719Y12447270D01*
X116837680Y12433372D01*
X116697964Y12331862D01*
X116697958Y12331857D01*
X116542142Y12176041D01*
X116412613Y11997760D01*
X116312567Y11801410D01*
X116244473Y11591838D01*
X116244473Y11591835D01*
X116220266Y11439000D01*
X117549156Y11439000D01*
X117537259Y11418394D01*
X117510000Y11316661D01*
X117510000Y11211339D01*
X117537259Y11109606D01*
X117549156Y11089000D01*
X116220266Y11089000D01*
X116244473Y10936164D01*
X116244473Y10936161D01*
X116312567Y10726589D01*
X116412613Y10530239D01*
X116542139Y10351962D01*
X116677729Y10216372D01*
X116711213Y10155049D01*
X116706229Y10085357D01*
X116664357Y10029424D01*
X116645145Y10017605D01*
X116619705Y10004988D01*
X116599247Y9994842D01*
X116455059Y9878940D01*
X116339156Y9734750D01*
X116256964Y9569023D01*
X116256963Y9569021D01*
X116212317Y9389499D01*
X116212317Y9389495D01*
X116209500Y9347954D01*
X116209500Y8100046D01*
X116210304Y8088177D01*
X116212317Y8058500D01*
X116256963Y7878978D01*
X116256964Y7878976D01*
X116339156Y7713249D01*
X116455059Y7569059D01*
X116599249Y7453156D01*
X116764976Y7370964D01*
X116764978Y7370963D01*
X116944502Y7326317D01*
X116944498Y7326317D01*
X116975384Y7324223D01*
X116986046Y7323500D01*
X116986048Y7323500D01*
X118833952Y7323500D01*
X118833954Y7323500D01*
X118848302Y7324473D01*
X118875499Y7326317D01*
X119055021Y7370963D01*
X119055023Y7370964D01*
X119220750Y7453156D01*
X119220751Y7453157D01*
X119220753Y7453158D01*
X119269837Y7492613D01*
X119364940Y7569059D01*
X119434632Y7655760D01*
X119480842Y7713247D01*
X119563037Y7878979D01*
X119607683Y8058505D01*
X119610500Y8100046D01*
X119610500Y9347954D01*
X119607683Y9389495D01*
X119563037Y9569021D01*
X119542624Y9610181D01*
X124590000Y9610181D01*
X124590000Y9375000D01*
X125629156Y9375000D01*
X125617259Y9354394D01*
X125590000Y9252661D01*
X125590000Y9147339D01*
X125617259Y9045606D01*
X125629156Y9025000D01*
X124590000Y9025000D01*
X124590000Y8789818D01*
X124624473Y8572164D01*
X124692567Y8362589D01*
X124792613Y8166239D01*
X124922142Y7987958D01*
X125077958Y7832142D01*
X125256239Y7702613D01*
X125452589Y7602567D01*
X125662163Y7534473D01*
X125815000Y7510265D01*
X125815000Y8839155D01*
X125835606Y8827259D01*
X125937339Y8800000D01*
X126042661Y8800000D01*
X126144394Y8827259D01*
X126165000Y8839155D01*
X126165000Y7510265D01*
X126317835Y7534473D01*
X126317838Y7534473D01*
X126527410Y7602567D01*
X126723760Y7702613D01*
X126902041Y7832142D01*
X127057857Y7987958D01*
X127057862Y7987964D01*
X127159372Y8127680D01*
X127214702Y8170346D01*
X127284315Y8176325D01*
X127346110Y8143719D01*
X127360008Y8127681D01*
X127461756Y7987636D01*
X127617636Y7831756D01*
X127617641Y7831752D01*
X127795974Y7702187D01*
X127992393Y7602104D01*
X127992396Y7602103D01*
X128202047Y7533985D01*
X128310020Y7516884D01*
X128419778Y7499500D01*
X128419779Y7499500D01*
X128640221Y7499500D01*
X128640222Y7499500D01*
X128749980Y7516884D01*
X128857952Y7533985D01*
X129067603Y7602103D01*
X129067606Y7602104D01*
X129205211Y7672219D01*
X129264022Y7702185D01*
X129279248Y7713247D01*
X129442358Y7831752D01*
X129442363Y7831756D01*
X129598243Y7987636D01*
X129598247Y7987641D01*
X129699682Y8127254D01*
X129755012Y8169920D01*
X129824625Y8175899D01*
X129886420Y8143293D01*
X129900318Y8127254D01*
X130001752Y7987641D01*
X130001756Y7987636D01*
X130157636Y7831756D01*
X130157641Y7831752D01*
X130335974Y7702187D01*
X130532393Y7602104D01*
X130532396Y7602103D01*
X130742047Y7533985D01*
X130850020Y7516884D01*
X130959778Y7499500D01*
X130959779Y7499500D01*
X131180221Y7499500D01*
X131180222Y7499500D01*
X131289980Y7516884D01*
X131397952Y7533985D01*
X131607603Y7602103D01*
X131607606Y7602104D01*
X131745211Y7672219D01*
X131804022Y7702185D01*
X131819248Y7713247D01*
X131982358Y7831752D01*
X131982363Y7831756D01*
X132138243Y7987636D01*
X132138247Y7987641D01*
X132267812Y8165974D01*
X132267815Y8165978D01*
X132349106Y8325518D01*
X132367895Y8362393D01*
X132367896Y8362396D01*
X132436014Y8572047D01*
X132436015Y8572049D01*
X132470500Y8789778D01*
X132470500Y9610222D01*
X132436015Y9827951D01*
X132367895Y10037606D01*
X132267815Y10234022D01*
X132138242Y10412365D01*
X131982365Y10568242D01*
X131804022Y10697815D01*
X131607606Y10797895D01*
X131397951Y10866015D01*
X131180222Y10900500D01*
X130959778Y10900500D01*
X130742049Y10866015D01*
X130637221Y10831955D01*
X130532396Y10797896D01*
X130532393Y10797895D01*
X130464375Y10763237D01*
X130335978Y10697815D01*
X130335974Y10697812D01*
X130157641Y10568247D01*
X130157636Y10568243D01*
X130001756Y10412363D01*
X130001752Y10412358D01*
X129900318Y10272745D01*
X129844989Y10230079D01*
X129775375Y10224100D01*
X129713580Y10256705D01*
X129699682Y10272745D01*
X129598247Y10412358D01*
X129598243Y10412363D01*
X129598242Y10412365D01*
X129442365Y10568242D01*
X129264022Y10697815D01*
X129067606Y10797895D01*
X128857951Y10866015D01*
X128640222Y10900500D01*
X128419778Y10900500D01*
X128202049Y10866015D01*
X128097221Y10831955D01*
X127992396Y10797896D01*
X127992393Y10797895D01*
X127924375Y10763237D01*
X127795978Y10697815D01*
X127795974Y10697812D01*
X127617641Y10568247D01*
X127617636Y10568243D01*
X127461756Y10412363D01*
X127461752Y10412358D01*
X127360008Y10272319D01*
X127304678Y10229653D01*
X127235065Y10223674D01*
X127173270Y10256279D01*
X127159372Y10272319D01*
X127057862Y10412035D01*
X127057857Y10412041D01*
X126902041Y10567857D01*
X126723760Y10697386D01*
X126527410Y10797432D01*
X126317835Y10865526D01*
X126165000Y10889732D01*
X126165000Y9560844D01*
X126144394Y9572741D01*
X126042661Y9600000D01*
X125937339Y9600000D01*
X125835606Y9572741D01*
X125815000Y9560844D01*
X125815000Y10889733D01*
X125662164Y10865526D01*
X125452589Y10797432D01*
X125256239Y10697386D01*
X125077958Y10567857D01*
X124922142Y10412041D01*
X124792613Y10233760D01*
X124692567Y10037410D01*
X124624473Y9827835D01*
X124590000Y9610181D01*
X119542624Y9610181D01*
X119480842Y9734753D01*
X119364940Y9878940D01*
X119220753Y9994842D01*
X119174858Y10017603D01*
X119123546Y10065022D01*
X119106015Y10132656D01*
X119127834Y10199032D01*
X119142271Y10216372D01*
X119277857Y10351958D01*
X119407386Y10530239D01*
X119507432Y10726589D01*
X119575526Y10936161D01*
X119575526Y10936164D01*
X119599734Y11089000D01*
X118270844Y11089000D01*
X118282741Y11109606D01*
X118310000Y11211339D01*
X118310000Y11316661D01*
X118282741Y11418394D01*
X118270844Y11439000D01*
X119599734Y11439000D01*
X119575526Y11591835D01*
X119575526Y11591838D01*
X119507432Y11801410D01*
X119407386Y11997760D01*
X119277857Y12176041D01*
X119122041Y12331857D01*
X119122035Y12331862D01*
X118982319Y12433372D01*
X118939653Y12488702D01*
X118933674Y12558315D01*
X118966279Y12620110D01*
X118982319Y12634008D01*
X119122358Y12735752D01*
X119122363Y12735756D01*
X119278243Y12891636D01*
X119278247Y12891641D01*
X119407812Y13069974D01*
X119407815Y13069978D01*
X119473237Y13198375D01*
X119507895Y13266393D01*
X119507896Y13266396D01*
X119564968Y13442049D01*
X119576015Y13476049D01*
X119610500Y13693778D01*
X119610500Y13914222D01*
X119576015Y14131951D01*
X119507895Y14341606D01*
X119407815Y14538022D01*
X119278242Y14716365D01*
X119122365Y14872242D01*
X118944022Y15001815D01*
X118747606Y15101895D01*
X118537951Y15170015D01*
X118320222Y15204500D01*
X117499778Y15204500D01*
X117282049Y15170015D01*
X117231916Y15153726D01*
X117072396Y15101896D01*
X117072393Y15101895D01*
X117039212Y15084988D01*
X116875978Y15001815D01*
X116875974Y15001812D01*
X116697641Y14872247D01*
X116697636Y14872243D01*
X116541756Y14716363D01*
X116541752Y14716358D01*
X116418808Y14547138D01*
X116412185Y14538022D01*
X116394861Y14504022D01*
X116312104Y14341606D01*
X116312103Y14341603D01*
X116243985Y14131952D01*
X116243985Y14131951D01*
X116219998Y13980500D01*
X116209500Y13914221D01*
X111990500Y13914221D01*
X111990500Y13914222D01*
X111956015Y14131951D01*
X111887895Y14341606D01*
X111787815Y14538022D01*
X111658242Y14716365D01*
X111526819Y14847788D01*
X111493334Y14909111D01*
X111490500Y14935469D01*
X111490500Y16241374D01*
X111510185Y16308413D01*
X111526819Y16329055D01*
X112427985Y17230221D01*
X124589500Y17230221D01*
X124589500Y16409778D01*
X124623985Y16192047D01*
X124692103Y15982396D01*
X124692104Y15982393D01*
X124792187Y15785974D01*
X124921752Y15607641D01*
X124921756Y15607636D01*
X125077636Y15451756D01*
X125077641Y15451752D01*
X125255974Y15322187D01*
X125452393Y15222104D01*
X125452396Y15222103D01*
X125662047Y15153985D01*
X125807201Y15130995D01*
X125879778Y15119500D01*
X125879779Y15119500D01*
X126100221Y15119500D01*
X126100222Y15119500D01*
X126231661Y15140318D01*
X126317952Y15153985D01*
X126527603Y15222103D01*
X126527606Y15222104D01*
X126679008Y15299249D01*
X126724022Y15322185D01*
X126757866Y15346774D01*
X126902358Y15451752D01*
X126902363Y15451756D01*
X127058243Y15607636D01*
X127058247Y15607641D01*
X127159682Y15747254D01*
X127215012Y15789920D01*
X127284625Y15795899D01*
X127346420Y15763293D01*
X127360318Y15747254D01*
X127461752Y15607641D01*
X127461756Y15607636D01*
X127617636Y15451756D01*
X127617641Y15451752D01*
X127795974Y15322187D01*
X127992393Y15222104D01*
X127992396Y15222103D01*
X128202047Y15153985D01*
X128347201Y15130995D01*
X128419778Y15119500D01*
X128419779Y15119500D01*
X128640221Y15119500D01*
X128640222Y15119500D01*
X128771661Y15140318D01*
X128857952Y15153985D01*
X129067603Y15222103D01*
X129067606Y15222104D01*
X129219008Y15299249D01*
X129264022Y15322185D01*
X129297866Y15346774D01*
X129442358Y15451752D01*
X129442363Y15451756D01*
X129577861Y15587254D01*
X129639184Y15620739D01*
X129708876Y15615755D01*
X129764809Y15573883D01*
X129776629Y15554670D01*
X129799157Y15509248D01*
X129915059Y15365059D01*
X130059249Y15249156D01*
X130224976Y15166964D01*
X130224978Y15166963D01*
X130404502Y15122317D01*
X130404498Y15122317D01*
X130436814Y15120126D01*
X130446046Y15119500D01*
X130446048Y15119500D01*
X131693952Y15119500D01*
X131693954Y15119500D01*
X131707801Y15120439D01*
X131735499Y15122317D01*
X131915021Y15166963D01*
X131915023Y15166964D01*
X132080750Y15249156D01*
X132080751Y15249157D01*
X132080753Y15249158D01*
X132143066Y15299247D01*
X132224940Y15365059D01*
X132294631Y15451758D01*
X132340842Y15509247D01*
X132423037Y15674979D01*
X132463101Y15836079D01*
X132467682Y15854500D01*
X132467682Y15854501D01*
X132467683Y15854505D01*
X132470500Y15896046D01*
X132470500Y17743954D01*
X132467683Y17785495D01*
X132423037Y17965021D01*
X132340842Y18130753D01*
X132224940Y18274940D01*
X132080753Y18390842D01*
X131915021Y18473037D01*
X131735499Y18517682D01*
X131735498Y18517682D01*
X131735495Y18517683D01*
X131693954Y18520500D01*
X130446046Y18520500D01*
X130404505Y18517683D01*
X130404501Y18517682D01*
X130404500Y18517682D01*
X130360566Y18506756D01*
X130224979Y18473037D01*
X130059247Y18390842D01*
X129997173Y18340945D01*
X129915059Y18274940D01*
X129799158Y18130753D01*
X129776630Y18085330D01*
X129729208Y18034018D01*
X129661573Y18016490D01*
X129595198Y18038310D01*
X129577871Y18052735D01*
X129442365Y18188242D01*
X129264022Y18317815D01*
X129067606Y18417895D01*
X128857951Y18486015D01*
X128640222Y18520500D01*
X128419778Y18520500D01*
X128202049Y18486015D01*
X128097221Y18451955D01*
X127992396Y18417896D01*
X127992393Y18417895D01*
X127939302Y18390843D01*
X127795978Y18317815D01*
X127795974Y18317812D01*
X127617641Y18188247D01*
X127617636Y18188243D01*
X127461756Y18032363D01*
X127461752Y18032358D01*
X127360318Y17892745D01*
X127304989Y17850079D01*
X127235375Y17844100D01*
X127173580Y17876705D01*
X127159682Y17892745D01*
X127058247Y18032358D01*
X127058243Y18032363D01*
X127058242Y18032365D01*
X126902365Y18188242D01*
X126724022Y18317815D01*
X126527606Y18417895D01*
X126317951Y18486015D01*
X126100222Y18520500D01*
X125879778Y18520500D01*
X125662049Y18486015D01*
X125557221Y18451955D01*
X125452396Y18417896D01*
X125452393Y18417895D01*
X125399302Y18390843D01*
X125255978Y18317815D01*
X125255974Y18317812D01*
X125077641Y18188247D01*
X125077636Y18188243D01*
X124921756Y18032363D01*
X124921752Y18032358D01*
X124808665Y17876705D01*
X124792185Y17854022D01*
X124760122Y17791096D01*
X124692104Y17657606D01*
X124692103Y17657603D01*
X124623985Y17447952D01*
X124589500Y17230221D01*
X112427985Y17230221D01*
X120161445Y24963681D01*
X120222768Y24997166D01*
X120249126Y25000000D01*
X127741614Y25000000D01*
X127808653Y24980315D01*
X127852097Y24932295D01*
X127855815Y24925000D01*
X127873238Y24890804D01*
X127873243Y24890796D01*
X127984312Y24737923D01*
X134383681Y18338555D01*
X134417166Y18277232D01*
X134420000Y18250874D01*
X134420000Y9121362D01*
X134400315Y9054323D01*
X134383681Y9033681D01*
X131866319Y6516319D01*
X131804996Y6482834D01*
X131778638Y6480000D01*
X127980000Y6480000D01*
X127979999Y6479999D01*
X122236319Y736319D01*
X122174996Y702834D01*
X122148638Y700000D01*
X12851362Y700000D01*
X12784323Y719685D01*
X12763681Y736319D01*
X1236319Y12263681D01*
X1202834Y12325004D01*
X1200000Y12351362D01*
X1200000Y32979855D01*
X1999500Y32979855D01*
X1999500Y31520149D01*
X1999501Y31520145D01*
X2014933Y31383166D01*
X2014936Y31383154D01*
X2075703Y31209494D01*
X2173596Y31053699D01*
X2303700Y30923595D01*
X2325270Y30910042D01*
X2371560Y30857707D01*
X2382207Y30788653D01*
X2357149Y30732271D01*
X2358728Y30731125D01*
X2217085Y30536171D01*
X2109897Y30325802D01*
X2036934Y30101247D01*
X2009020Y29925000D01*
X3029254Y29925000D01*
X3000000Y29815826D01*
X3000000Y29684174D01*
X3029254Y29575000D01*
X2009020Y29575000D01*
X2036934Y29398752D01*
X2109897Y29174197D01*
X2217085Y28963828D01*
X2355866Y28772813D01*
X2522813Y28605866D01*
X2530025Y28600627D01*
X2572690Y28545297D01*
X2578669Y28475683D01*
X2546063Y28413888D01*
X2530027Y28399993D01*
X2522490Y28394517D01*
X2355483Y28227510D01*
X2225754Y28048954D01*
X2216657Y28036433D01*
X2109433Y27825996D01*
X2036446Y27601368D01*
X1999500Y27368097D01*
X1999500Y27131902D01*
X2036446Y26898631D01*
X2109433Y26674003D01*
X2216657Y26463566D01*
X2281005Y26375000D01*
X2355483Y26272490D01*
X2355485Y26272488D01*
X2355485Y26272487D01*
X2522487Y26105485D01*
X2522493Y26105480D01*
X2530029Y26100005D01*
X2572692Y26044673D01*
X2578667Y25975059D01*
X2546058Y25913266D01*
X2530022Y25899372D01*
X2522819Y25894139D01*
X2355866Y25727186D01*
X2217085Y25536171D01*
X2109897Y25325802D01*
X2036934Y25101247D01*
X2009020Y24925000D01*
X3029254Y24925000D01*
X3000000Y24815826D01*
X3000000Y24684174D01*
X3029254Y24575000D01*
X2009020Y24575000D01*
X2036934Y24398752D01*
X2109897Y24174197D01*
X2217085Y23963828D01*
X2355866Y23772813D01*
X2522813Y23605866D01*
X2530025Y23600627D01*
X2572690Y23545297D01*
X2578669Y23475683D01*
X2546063Y23413888D01*
X2530027Y23399993D01*
X2522490Y23394517D01*
X2355483Y23227510D01*
X2216657Y23036433D01*
X2109433Y22825996D01*
X2036446Y22601368D01*
X1999500Y22368097D01*
X1999500Y22131902D01*
X2036446Y21898631D01*
X2109433Y21674003D01*
X2216657Y21463566D01*
X2287304Y21366330D01*
X2355483Y21272490D01*
X2355485Y21272488D01*
X2355485Y21272487D01*
X2522490Y21105482D01*
X2529603Y21100315D01*
X2572266Y21044983D01*
X2578242Y20975370D01*
X2545634Y20913576D01*
X2529603Y20899685D01*
X2522490Y20894517D01*
X2355483Y20727510D01*
X2231869Y20557370D01*
X2216657Y20536433D01*
X2109433Y20325996D01*
X2036446Y20101368D01*
X1999500Y19868097D01*
X1999500Y19631902D01*
X2036446Y19398631D01*
X2109433Y19174003D01*
X2216657Y18963566D01*
X2295862Y18854550D01*
X2355483Y18772490D01*
X2355485Y18772488D01*
X2355485Y18772487D01*
X2463181Y18664792D01*
X2496666Y18603469D01*
X2499500Y18577111D01*
X2499500Y18001455D01*
X2537947Y17808167D01*
X2537950Y17808159D01*
X2560038Y17754835D01*
X2613366Y17626089D01*
X2613371Y17626079D01*
X2722859Y17462219D01*
X2765880Y17419199D01*
X2862218Y17322861D01*
X2862221Y17322858D01*
X10522858Y9662221D01*
X10522861Y9662218D01*
X10561690Y9623389D01*
X10662219Y9522859D01*
X10826080Y9413371D01*
X10826093Y9413364D01*
X10945408Y9363943D01*
X10945415Y9363940D01*
X10950627Y9361782D01*
X11008164Y9337949D01*
X11059277Y9327782D01*
X11065688Y9326506D01*
X11065694Y9326505D01*
X11201457Y9299500D01*
X11201459Y9299500D01*
X11201460Y9299500D01*
X11398540Y9299500D01*
X22234218Y9299500D01*
X22301257Y9279815D01*
X22321898Y9263181D01*
X29212858Y2372221D01*
X29212861Y2372218D01*
X29255880Y2329199D01*
X29352219Y2232859D01*
X29516079Y2123371D01*
X29516092Y2123364D01*
X29632516Y2075140D01*
X29632526Y2075136D01*
X29639202Y2072372D01*
X29698164Y2047949D01*
X29794812Y2028724D01*
X29799671Y2027757D01*
X29799680Y2027755D01*
X29891455Y2009500D01*
X29891459Y2009500D01*
X75488544Y2009500D01*
X75580319Y2027755D01*
X75580325Y2027756D01*
X75585188Y2028724D01*
X75681836Y2047949D01*
X75740798Y2072372D01*
X75747477Y2075138D01*
X75747482Y2075140D01*
X75863907Y2123364D01*
X75863920Y2123371D01*
X76027780Y2232859D01*
X76027782Y2232861D01*
X76167139Y2372218D01*
X76167140Y2372220D01*
X76174206Y2379286D01*
X76174206Y2379285D01*
X76174209Y2379289D01*
X78417819Y4622897D01*
X78479142Y4656382D01*
X78548834Y4651398D01*
X78604767Y4609526D01*
X78629184Y4544062D01*
X78629500Y4535216D01*
X78629500Y3809359D01*
X78629501Y3809342D01*
X78635594Y3731909D01*
X78683847Y3551825D01*
X78683849Y3551820D01*
X78768487Y3385707D01*
X78885816Y3240816D01*
X79030707Y3123487D01*
X79196820Y3038849D01*
X79196825Y3038847D01*
X79376909Y2990594D01*
X79454349Y2984500D01*
X80405640Y2984500D01*
X80405657Y2984501D01*
X80483090Y2990594D01*
X80663174Y3038847D01*
X80663175Y3038847D01*
X80663177Y3038848D01*
X80663179Y3038849D01*
X80829292Y3123487D01*
X80974183Y3240816D01*
X81048892Y3333076D01*
X81091511Y3385706D01*
X81176152Y3551823D01*
X81224405Y3731908D01*
X81230500Y3809349D01*
X81230499Y4387317D01*
X83710000Y4387317D01*
X83710000Y4182682D01*
X83742009Y3980582D01*
X83805244Y3785968D01*
X83898139Y3603652D01*
X83975157Y3497645D01*
X84639266Y4161754D01*
X84646578Y4134466D01*
X84697923Y4045535D01*
X84770535Y3972923D01*
X84859466Y3921578D01*
X84886754Y3914266D01*
X84222645Y3250157D01*
X84328652Y3173139D01*
X84510968Y3080244D01*
X84705582Y3017009D01*
X84907683Y2985000D01*
X85112317Y2985000D01*
X85314417Y3017009D01*
X85509031Y3080244D01*
X85691353Y3173142D01*
X85797353Y3250155D01*
X85797354Y3250157D01*
X85133246Y3914266D01*
X85160534Y3921578D01*
X85249465Y3972923D01*
X85322077Y4045535D01*
X85373422Y4134466D01*
X85380733Y4161752D01*
X86044841Y3497644D01*
X86044841Y3497645D01*
X86121859Y3603650D01*
X86214755Y3785968D01*
X86277990Y3980582D01*
X86310000Y4182682D01*
X86310000Y4387317D01*
X86277990Y4589417D01*
X86214755Y4784031D01*
X86121859Y4966349D01*
X86044841Y5072353D01*
X86044840Y5072354D01*
X85380733Y4408246D01*
X85373422Y4435534D01*
X85322077Y4524465D01*
X85249465Y4597077D01*
X85160534Y4648422D01*
X85133247Y4655733D01*
X85797354Y5319840D01*
X85797353Y5319841D01*
X85691349Y5396859D01*
X85509031Y5489755D01*
X85314417Y5552990D01*
X85112317Y5585000D01*
X84907683Y5585000D01*
X84705582Y5552990D01*
X84510968Y5489755D01*
X84328650Y5396859D01*
X84222645Y5319841D01*
X84222644Y5319841D01*
X84886753Y4655733D01*
X84859466Y4648422D01*
X84770535Y4597077D01*
X84697923Y4524465D01*
X84646578Y4435534D01*
X84639266Y4408245D01*
X83975157Y5072354D01*
X83975155Y5072353D01*
X83898142Y4966353D01*
X83805244Y4784031D01*
X83742009Y4589417D01*
X83710000Y4387317D01*
X81230499Y4387317D01*
X81230499Y4760650D01*
X81224405Y4838092D01*
X81176152Y5018177D01*
X81091511Y5184294D01*
X80974183Y5329183D01*
X80829294Y5446511D01*
X80663177Y5531152D01*
X80483092Y5579405D01*
X80405651Y5585500D01*
X79454350Y5585499D01*
X79376908Y5579405D01*
X79196823Y5531152D01*
X79115577Y5489755D01*
X79030707Y5446512D01*
X78885816Y5329183D01*
X78860867Y5298372D01*
X78803380Y5258660D01*
X78733549Y5256332D01*
X78673545Y5292127D01*
X78642418Y5354680D01*
X78640500Y5376407D01*
X78640500Y6927351D01*
X81169500Y6927351D01*
X81169500Y6722648D01*
X81201522Y6520465D01*
X81264781Y6325776D01*
X81357715Y6143386D01*
X81478028Y5977786D01*
X81622786Y5833028D01*
X81788386Y5712715D01*
X81970776Y5619781D01*
X82165465Y5556522D01*
X82325662Y5531150D01*
X82367648Y5524500D01*
X82367649Y5524500D01*
X82572351Y5524500D01*
X82572352Y5524500D01*
X82614338Y5531150D01*
X82774534Y5556522D01*
X82969223Y5619781D01*
X83094653Y5683691D01*
X83151610Y5712713D01*
X83151613Y5712715D01*
X83317213Y5833028D01*
X83461971Y5977786D01*
X83582284Y6143386D01*
X83582287Y6143390D01*
X83641503Y6259607D01*
X83675218Y6325776D01*
X83687336Y6363069D01*
X83711508Y6437465D01*
X83738477Y6520465D01*
X83770500Y6722648D01*
X83770500Y6927351D01*
X83760040Y6993389D01*
X83738477Y7129534D01*
X83675220Y7324219D01*
X83582287Y7506610D01*
X83486881Y7637926D01*
X83461971Y7672213D01*
X83461968Y7672215D01*
X83461966Y7672219D01*
X83317219Y7816966D01*
X83317215Y7816968D01*
X83317213Y7816971D01*
X83231865Y7878979D01*
X83151610Y7937287D01*
X82969219Y8030220D01*
X82774534Y8093477D01*
X82572352Y8125500D01*
X82367648Y8125500D01*
X82266557Y8109488D01*
X82165465Y8093477D01*
X82075137Y8064127D01*
X81970781Y8030220D01*
X81970778Y8030218D01*
X81970776Y8030218D01*
X81904607Y7996503D01*
X81788390Y7937287D01*
X81788386Y7937284D01*
X81622786Y7816971D01*
X81478028Y7672213D01*
X81403084Y7569059D01*
X81357713Y7506610D01*
X81350364Y7492187D01*
X81264781Y7324223D01*
X81201522Y7129534D01*
X81169500Y6927351D01*
X78640500Y6927351D01*
X78640500Y10698543D01*
X78602469Y10889733D01*
X78602051Y10891835D01*
X78526632Y11073914D01*
X78417139Y11237782D01*
X78277782Y11377139D01*
X78113914Y11486632D01*
X77931835Y11562051D01*
X77868582Y11574632D01*
X77738543Y11600500D01*
X77738541Y11600500D01*
X77541459Y11600500D01*
X77541457Y11600500D01*
X77348170Y11562052D01*
X77348165Y11562051D01*
X77348160Y11562049D01*
X77166092Y11486635D01*
X77166079Y11486628D01*
X77002218Y11377139D01*
X77002214Y11377136D01*
X76862863Y11237785D01*
X76862860Y11237781D01*
X76753371Y11073920D01*
X76753364Y11073907D01*
X76677950Y10891839D01*
X76677947Y10891829D01*
X76639500Y10698543D01*
X76639500Y5725782D01*
X76619815Y5658743D01*
X76603181Y5638101D01*
X75011899Y4046819D01*
X74950576Y4013334D01*
X74924218Y4010500D01*
X30455782Y4010500D01*
X30388743Y4030185D01*
X30368101Y4046819D01*
X29240757Y5174163D01*
X28581886Y5833034D01*
X27785063Y6629857D01*
X34150000Y6629857D01*
X34150000Y6370142D01*
X34190629Y6113622D01*
X34270883Y5866622D01*
X34388792Y5635215D01*
X34514585Y5462073D01*
X35361688Y6309176D01*
X35419905Y6208343D01*
X35508343Y6119905D01*
X35609176Y6061688D01*
X34762073Y5214585D01*
X34935215Y5088792D01*
X35166622Y4970883D01*
X35413622Y4890629D01*
X35670143Y4850000D01*
X35929857Y4850000D01*
X36186377Y4890629D01*
X36433377Y4970883D01*
X36664791Y5088796D01*
X36837925Y5214584D01*
X36837925Y5214585D01*
X35990823Y6061688D01*
X36091657Y6119905D01*
X36180095Y6208343D01*
X36238310Y6309175D01*
X37085413Y5462072D01*
X37085414Y5462073D01*
X37211203Y5635208D01*
X37329116Y5866622D01*
X37409370Y6113622D01*
X37450000Y6370142D01*
X37450000Y6629857D01*
X37409370Y6886377D01*
X37329116Y7133377D01*
X37211203Y7364791D01*
X37085415Y7537925D01*
X37085413Y7537926D01*
X36238311Y6690823D01*
X36180095Y6791657D01*
X36091657Y6880095D01*
X35990823Y6938311D01*
X36837926Y7785413D01*
X36837925Y7785415D01*
X36664791Y7911203D01*
X36433377Y8029116D01*
X36186377Y8109370D01*
X35929857Y8150000D01*
X35670143Y8150000D01*
X35413622Y8109370D01*
X35166622Y8029116D01*
X34935208Y7911203D01*
X34762073Y7785414D01*
X34762072Y7785413D01*
X35609176Y6938311D01*
X35508343Y6880095D01*
X35419905Y6791657D01*
X35361687Y6690822D01*
X34514585Y7537925D01*
X34514584Y7537925D01*
X34388796Y7364791D01*
X34270883Y7133377D01*
X34190629Y6886377D01*
X34150000Y6629857D01*
X27785063Y6629857D01*
X23484208Y10930710D01*
X23484206Y10930714D01*
X23477140Y10937780D01*
X23477139Y10937782D01*
X23337782Y11077139D01*
X23173914Y11186632D01*
X23025388Y11248153D01*
X22991836Y11262051D01*
X22895188Y11281275D01*
X22816128Y11297001D01*
X22798542Y11300500D01*
X22798541Y11300500D01*
X11765782Y11300500D01*
X11698743Y11320185D01*
X11678101Y11336819D01*
X4536819Y18478101D01*
X4522115Y18505028D01*
X4505523Y18530847D01*
X4504631Y18537047D01*
X4503334Y18539424D01*
X4500500Y18565782D01*
X4500500Y18577111D01*
X4520185Y18644150D01*
X4536819Y18664792D01*
X4644514Y18772487D01*
X4644517Y18772490D01*
X4783343Y18963567D01*
X4834002Y19062991D01*
X4890566Y19174003D01*
X4963553Y19398631D01*
X5000500Y19631902D01*
X5000500Y19868097D01*
X4963553Y20101368D01*
X4952555Y20135215D01*
X4890568Y20325992D01*
X4783343Y20536433D01*
X4644517Y20727510D01*
X4477510Y20894517D01*
X4470401Y20899682D01*
X4427735Y20955012D01*
X4421756Y21024625D01*
X4454362Y21086420D01*
X4456930Y21088986D01*
X4463263Y21095132D01*
X4477510Y21105483D01*
X4501884Y21129857D01*
X34150000Y21129857D01*
X34150000Y20870142D01*
X34190629Y20613622D01*
X34270883Y20366622D01*
X34388792Y20135215D01*
X34514585Y19962073D01*
X35361688Y20809176D01*
X35419905Y20708343D01*
X35508343Y20619905D01*
X35609176Y20561688D01*
X34762073Y19714585D01*
X34935215Y19588792D01*
X35166622Y19470883D01*
X35413622Y19390629D01*
X35670143Y19350000D01*
X35929857Y19350000D01*
X36186377Y19390629D01*
X36433377Y19470883D01*
X36664791Y19588796D01*
X36837925Y19714584D01*
X36837925Y19714585D01*
X35990823Y20561688D01*
X36091657Y20619905D01*
X36180095Y20708343D01*
X36238311Y20809176D01*
X37085413Y19962072D01*
X37085414Y19962073D01*
X37211203Y20135208D01*
X37329116Y20366622D01*
X37409370Y20613622D01*
X37450000Y20870142D01*
X37450000Y21129857D01*
X37409370Y21386377D01*
X37329116Y21633377D01*
X37211203Y21864791D01*
X37085415Y22037925D01*
X37085413Y22037926D01*
X36238311Y21190823D01*
X36180095Y21291657D01*
X36091657Y21380095D01*
X35990823Y21438311D01*
X36837926Y22285413D01*
X36837925Y22285415D01*
X36664791Y22411203D01*
X36433377Y22529116D01*
X36186377Y22609370D01*
X35929857Y22650000D01*
X35670143Y22650000D01*
X35413622Y22609370D01*
X35166622Y22529116D01*
X34935208Y22411203D01*
X34762073Y22285414D01*
X34762072Y22285413D01*
X35609176Y21438311D01*
X35508343Y21380095D01*
X35419905Y21291657D01*
X35361688Y21190823D01*
X34514585Y22037925D01*
X34514584Y22037925D01*
X34388796Y21864791D01*
X34270883Y21633377D01*
X34190629Y21386377D01*
X34150000Y21129857D01*
X4501884Y21129857D01*
X4644517Y21272490D01*
X4783343Y21463567D01*
X4856783Y21607701D01*
X4890566Y21674003D01*
X4963553Y21898631D01*
X5000500Y22131902D01*
X5000500Y22368097D01*
X4963553Y22601368D01*
X4905954Y22778638D01*
X4890568Y22825992D01*
X4783343Y23036433D01*
X4644517Y23227510D01*
X4477510Y23394517D01*
X4469973Y23399992D01*
X4427309Y23455322D01*
X4421331Y23524936D01*
X4453938Y23586730D01*
X4469975Y23600627D01*
X4477185Y23605866D01*
X4477186Y23605866D01*
X4644133Y23772813D01*
X4782914Y23963828D01*
X4890102Y24174197D01*
X4963065Y24398752D01*
X4990980Y24575000D01*
X3970746Y24575000D01*
X4000000Y24684174D01*
X4000000Y24815826D01*
X3970746Y24925000D01*
X4990980Y24925000D01*
X4963065Y25101247D01*
X4890102Y25325802D01*
X4782914Y25536171D01*
X4723506Y25617940D01*
X4644133Y25727186D01*
X4477182Y25894137D01*
X4469981Y25899369D01*
X4427312Y25954696D01*
X4421329Y26024309D01*
X4453932Y26086106D01*
X4469974Y26100008D01*
X4477509Y26105482D01*
X4644514Y26272487D01*
X4644517Y26272490D01*
X4783343Y26463567D01*
X4872329Y26638211D01*
X4890566Y26674003D01*
X4891525Y26676952D01*
X4948892Y26853511D01*
X4963553Y26898631D01*
X5000500Y27131902D01*
X5000500Y27368097D01*
X4963553Y27601368D01*
X4961091Y27608946D01*
X4890568Y27825992D01*
X4783343Y28036433D01*
X4644517Y28227510D01*
X4477510Y28394517D01*
X4469973Y28399992D01*
X4427309Y28455322D01*
X4421331Y28524936D01*
X4453938Y28586730D01*
X4469975Y28600627D01*
X4477185Y28605866D01*
X4477186Y28605866D01*
X4644133Y28772813D01*
X4782914Y28963828D01*
X4890102Y29174197D01*
X4963065Y29398752D01*
X4990980Y29575000D01*
X3970746Y29575000D01*
X4000000Y29684174D01*
X4000000Y29815826D01*
X3984425Y29873951D01*
X15699500Y29873951D01*
X15699500Y28626048D01*
X15702317Y28584500D01*
X15746963Y28404978D01*
X15746964Y28404976D01*
X15829156Y28239249D01*
X15945059Y28095059D01*
X16089247Y27979157D01*
X16169546Y27939333D01*
X16220859Y27891912D01*
X16226206Y27871278D01*
X16989000Y27108486D01*
X16955255Y27099444D01*
X16869745Y27050075D01*
X16799925Y26980255D01*
X16750556Y26894745D01*
X16741513Y26860998D01*
X15993566Y27608946D01*
X15993566Y27608945D01*
X15902613Y27483760D01*
X15802567Y27287410D01*
X15734473Y27077835D01*
X15700000Y26860181D01*
X15700000Y26639818D01*
X15734473Y26422164D01*
X15802567Y26212589D01*
X15902615Y26016236D01*
X15993565Y25891053D01*
X15993566Y25891052D01*
X16741513Y26639000D01*
X16750556Y26605255D01*
X16799925Y26519745D01*
X16869745Y26449925D01*
X16955255Y26400556D01*
X16989001Y26391513D01*
X16241052Y25643566D01*
X16241053Y25643565D01*
X16366236Y25552615D01*
X16562589Y25452567D01*
X16772164Y25384473D01*
X16989819Y25350000D01*
X17210181Y25350000D01*
X17427835Y25384473D01*
X17637410Y25452567D01*
X17703027Y25486001D01*
X17833760Y25552613D01*
X17958945Y25643566D01*
X17958946Y25643566D01*
X17210998Y26391513D01*
X17244745Y26400556D01*
X17330255Y26449925D01*
X17400075Y26519745D01*
X17449444Y26605255D01*
X17458485Y26638999D01*
X18206432Y25891052D01*
X18206432Y25891053D01*
X18297386Y26016239D01*
X18397432Y26212589D01*
X18465526Y26422164D01*
X18500000Y26639818D01*
X18500000Y26860181D01*
X18465526Y27077835D01*
X18397432Y27287410D01*
X18297390Y27483752D01*
X18297386Y27483758D01*
X18206432Y27608945D01*
X18206432Y27608946D01*
X17458486Y26861000D01*
X17449444Y26894745D01*
X17400075Y26980255D01*
X17330255Y27050075D01*
X17244745Y27099444D01*
X17210999Y27108486D01*
X17972804Y27870290D01*
X17976290Y27886888D01*
X17987614Y27898821D01*
X17993997Y27911879D01*
X18015057Y27927739D01*
X18021268Y27934284D01*
X18025747Y27936999D01*
X18110753Y27979158D01*
X18197579Y28048951D01*
X18254939Y28095059D01*
X18284918Y28132354D01*
X18370842Y28239247D01*
X18453037Y28404979D01*
X18497683Y28584505D01*
X18500500Y28626046D01*
X18500500Y29873954D01*
X18497683Y29915495D01*
X18453037Y30095021D01*
X18370842Y30260753D01*
X18318554Y30325802D01*
X18276737Y30377825D01*
X18276735Y30377827D01*
X18266388Y30390697D01*
X18254940Y30404940D01*
X18197080Y30451450D01*
X23999500Y30451450D01*
X23999500Y30228549D01*
X23999501Y30228533D01*
X24028594Y30007547D01*
X24028595Y30007540D01*
X24028596Y30007537D01*
X24054820Y29909668D01*
X24086290Y29792219D01*
X24086293Y29792209D01*
X24171593Y29586277D01*
X24171595Y29586273D01*
X24283052Y29393226D01*
X24283058Y29393217D01*
X24418751Y29216377D01*
X24418757Y29216370D01*
X24576370Y29058757D01*
X24576377Y29058751D01*
X24753217Y28923058D01*
X24753238Y28923044D01*
X24907574Y28833936D01*
X24933254Y28814231D01*
X25454272Y28293214D01*
X25362292Y28240110D01*
X25259890Y28137708D01*
X25206785Y28045726D01*
X24380094Y28872418D01*
X24380092Y28872418D01*
X24283466Y28746495D01*
X24283464Y28746491D01*
X24172054Y28553520D01*
X24172045Y28553502D01*
X24086763Y28347618D01*
X24029088Y28132367D01*
X24029085Y28132354D01*
X24000000Y27911424D01*
X24000000Y27688575D01*
X24029085Y27467645D01*
X24029088Y27467632D01*
X24086763Y27252381D01*
X24172045Y27046497D01*
X24172054Y27046479D01*
X24283462Y26853511D01*
X24380093Y26727580D01*
X25206785Y27554272D01*
X25259890Y27462292D01*
X25362292Y27359890D01*
X25454273Y27306785D01*
X24933253Y26785766D01*
X24907572Y26766060D01*
X24753232Y26676952D01*
X24753228Y26676949D01*
X24753226Y26676948D01*
X24749388Y26674003D01*
X24576377Y26541248D01*
X24576370Y26541242D01*
X24418757Y26383629D01*
X24418751Y26383622D01*
X24283058Y26206782D01*
X24283052Y26206774D01*
X24196559Y26056964D01*
X24171595Y26013726D01*
X24171593Y26013722D01*
X24086293Y25807790D01*
X24086291Y25807783D01*
X24086290Y25807781D01*
X24028596Y25592463D01*
X24028595Y25592457D01*
X24028594Y25592452D01*
X23999501Y25371466D01*
X23999500Y25371450D01*
X23999500Y25148549D01*
X23999501Y25148533D01*
X24028594Y24927547D01*
X24028595Y24927540D01*
X24028596Y24927537D01*
X24058529Y24815826D01*
X24086290Y24712219D01*
X24086293Y24712209D01*
X24171593Y24506277D01*
X24171595Y24506273D01*
X24283052Y24313226D01*
X24283058Y24313217D01*
X24418751Y24136377D01*
X24418757Y24136370D01*
X24576370Y23978757D01*
X24576377Y23978751D01*
X24753217Y23843058D01*
X24753226Y23843052D01*
X24946273Y23731595D01*
X24946277Y23731593D01*
X25152209Y23646293D01*
X25152219Y23646290D01*
X25367537Y23588596D01*
X25367540Y23588595D01*
X25367547Y23588594D01*
X25588533Y23559501D01*
X25588537Y23559500D01*
X25588543Y23559500D01*
X25588550Y23559500D01*
X25811450Y23559500D01*
X25811457Y23559500D01*
X25811463Y23559500D01*
X25811466Y23559501D01*
X26032452Y23588594D01*
X26032457Y23588595D01*
X26032463Y23588596D01*
X26247781Y23646290D01*
X26247783Y23646291D01*
X26247790Y23646293D01*
X26453722Y23731593D01*
X26453726Y23731595D01*
X26503950Y23760592D01*
X26646774Y23843052D01*
X26677667Y23866757D01*
X26823622Y23978751D01*
X26823629Y23978757D01*
X26981242Y24136370D01*
X26981248Y24136377D01*
X27111054Y24305545D01*
X27116948Y24313226D01*
X27228405Y24506274D01*
X27313710Y24712219D01*
X27371404Y24927537D01*
X27400500Y25148543D01*
X27400500Y25371457D01*
X27371404Y25592463D01*
X27313710Y25807781D01*
X27228405Y26013726D01*
X27116948Y26206774D01*
X26981247Y26383624D01*
X26823624Y26541247D01*
X26646774Y26676948D01*
X26492418Y26766065D01*
X26466745Y26785766D01*
X25945726Y27306785D01*
X26037708Y27359890D01*
X26140110Y27462292D01*
X26193213Y27554271D01*
X27019904Y26727580D01*
X27019906Y26727580D01*
X27116533Y26853504D01*
X27116535Y26853508D01*
X27227945Y27046479D01*
X27227954Y27046497D01*
X27313236Y27252381D01*
X27370911Y27467632D01*
X27370914Y27467645D01*
X27400000Y27688575D01*
X27400000Y27911424D01*
X27370914Y28132354D01*
X27370911Y28132367D01*
X27313236Y28347618D01*
X27227954Y28553502D01*
X27227945Y28553520D01*
X27116535Y28746491D01*
X27116533Y28746494D01*
X27019905Y28872418D01*
X27019904Y28872418D01*
X26193214Y28045727D01*
X26140110Y28137708D01*
X26037708Y28240110D01*
X25945727Y28293214D01*
X26466743Y28814230D01*
X26492423Y28833936D01*
X26646772Y28923051D01*
X26646774Y28923052D01*
X26646782Y28923058D01*
X26823622Y29058751D01*
X26823629Y29058757D01*
X26981242Y29216370D01*
X26981248Y29216377D01*
X27116941Y29393217D01*
X27116948Y29393226D01*
X27228405Y29586274D01*
X27313710Y29792219D01*
X27371404Y30007537D01*
X27400500Y30228543D01*
X27400500Y30451457D01*
X27371404Y30672463D01*
X27313710Y30887781D01*
X27228405Y31093726D01*
X27116948Y31286774D01*
X26981247Y31463624D01*
X26823624Y31621247D01*
X26646774Y31756948D01*
X26453726Y31868405D01*
X26247781Y31953710D01*
X26032463Y32011404D01*
X25811457Y32040500D01*
X25588543Y32040500D01*
X25367537Y32011404D01*
X25152219Y31953710D01*
X24946274Y31868405D01*
X24753226Y31756948D01*
X24753217Y31756941D01*
X24576377Y31621248D01*
X24576370Y31621242D01*
X24418757Y31463629D01*
X24418751Y31463622D01*
X24351279Y31375690D01*
X24283052Y31286774D01*
X24238434Y31209494D01*
X24171595Y31093726D01*
X24171593Y31093722D01*
X24086293Y30887790D01*
X24086291Y30887783D01*
X24086290Y30887781D01*
X24028596Y30672463D01*
X24028595Y30672457D01*
X24028594Y30672452D01*
X23999501Y30451466D01*
X23999500Y30451450D01*
X18197080Y30451450D01*
X18110753Y30520842D01*
X17945021Y30603037D01*
X17765499Y30647682D01*
X17765498Y30647682D01*
X17765495Y30647683D01*
X17723954Y30650500D01*
X16476046Y30650500D01*
X16434505Y30647683D01*
X16434501Y30647682D01*
X16434500Y30647682D01*
X16390566Y30636756D01*
X16254979Y30603037D01*
X16089247Y30520842D01*
X16027173Y30470945D01*
X15945059Y30404940D01*
X15829156Y30260750D01*
X15746964Y30095023D01*
X15746963Y30095021D01*
X15702317Y29915499D01*
X15699500Y29873951D01*
X3984425Y29873951D01*
X3970746Y29925000D01*
X4990980Y29925000D01*
X4963065Y30101247D01*
X4890102Y30325802D01*
X4782914Y30536171D01*
X4641272Y30731125D01*
X4642921Y30732323D01*
X4617847Y30788247D01*
X4628266Y30857335D01*
X4674383Y30909823D01*
X4674731Y30910043D01*
X4696299Y30923595D01*
X4826403Y31053699D01*
X4836542Y31069834D01*
X4924295Y31209492D01*
X4985065Y31383162D01*
X4985065Y31383165D01*
X4985066Y31383167D01*
X4996738Y31486760D01*
X5000500Y31520151D01*
X5000499Y32979848D01*
X4991767Y33057350D01*
X4985066Y33116833D01*
X4985063Y33116845D01*
X4924296Y33290505D01*
X4924295Y33290507D01*
X4924295Y33290508D01*
X4826404Y33446300D01*
X4696300Y33576404D01*
X4540508Y33674295D01*
X4366838Y33735065D01*
X4366833Y33735065D01*
X4366832Y33735066D01*
X4316016Y33740791D01*
X4229849Y33750500D01*
X2770152Y33750499D01*
X2770149Y33750499D01*
X2770146Y33750498D01*
X2732087Y33746210D01*
X2633166Y33735066D01*
X2633154Y33735063D01*
X2459494Y33674296D01*
X2459492Y33674295D01*
X2303700Y33576404D01*
X2303699Y33576403D01*
X2173596Y33446300D01*
X2075704Y33290507D01*
X2033501Y33169896D01*
X2014938Y33116845D01*
X2014933Y33116832D01*
X1999500Y32979855D01*
X1200000Y32979855D01*
X1200000Y39929857D01*
X15450000Y39929857D01*
X15450000Y39670142D01*
X15490629Y39413622D01*
X15570883Y39166622D01*
X15688792Y38935215D01*
X15814585Y38762073D01*
X16661688Y39609176D01*
X16719905Y39508343D01*
X16808343Y39419905D01*
X16909176Y39361688D01*
X16062073Y38514585D01*
X16235215Y38388792D01*
X16466622Y38270883D01*
X16713622Y38190629D01*
X16970143Y38150000D01*
X17229857Y38150000D01*
X17486377Y38190629D01*
X17733377Y38270883D01*
X17964791Y38388796D01*
X18137925Y38514584D01*
X18137925Y38514585D01*
X17290823Y39361688D01*
X17391657Y39419905D01*
X17480095Y39508343D01*
X17538310Y39609175D01*
X18385413Y38762072D01*
X18385414Y38762073D01*
X18511203Y38935208D01*
X18629116Y39166622D01*
X18709370Y39413622D01*
X18750000Y39670142D01*
X18750000Y39929857D01*
X18709370Y40186377D01*
X18629116Y40433377D01*
X18511203Y40664791D01*
X18385415Y40837925D01*
X18385413Y40837926D01*
X17538310Y39990823D01*
X17480095Y40091657D01*
X17391657Y40180095D01*
X17290823Y40238311D01*
X18137926Y41085413D01*
X18137925Y41085415D01*
X17964791Y41211203D01*
X17733377Y41329116D01*
X17486377Y41409370D01*
X17229857Y41450000D01*
X16970143Y41450000D01*
X16713622Y41409370D01*
X16466622Y41329116D01*
X16235208Y41211203D01*
X16062073Y41085414D01*
X16062072Y41085413D01*
X16909176Y40238311D01*
X16808343Y40180095D01*
X16719905Y40091657D01*
X16661688Y39990823D01*
X15814585Y40837925D01*
X15814584Y40837925D01*
X15688796Y40664791D01*
X15570883Y40433377D01*
X15490629Y40186377D01*
X15450000Y39929857D01*
X1200000Y39929857D01*
X1200000Y45979855D01*
X1999500Y45979855D01*
X1999500Y44520149D01*
X1999501Y44520145D01*
X2014933Y44383166D01*
X2014936Y44383154D01*
X2075703Y44209494D01*
X2173596Y44053699D01*
X2303700Y43923595D01*
X2325270Y43910042D01*
X2371560Y43857707D01*
X2382207Y43788653D01*
X2357149Y43732271D01*
X2358728Y43731125D01*
X2217085Y43536171D01*
X2109897Y43325802D01*
X2036934Y43101247D01*
X2009020Y42925000D01*
X3029254Y42925000D01*
X3000000Y42815826D01*
X3000000Y42684174D01*
X3029254Y42575000D01*
X2009020Y42575000D01*
X2036934Y42398752D01*
X2109897Y42174197D01*
X2217085Y41963828D01*
X2355866Y41772813D01*
X2522813Y41605866D01*
X2713828Y41467085D01*
X2924197Y41359897D01*
X3148752Y41286934D01*
X3325000Y41259018D01*
X3325000Y42279253D01*
X3434174Y42250000D01*
X3565826Y42250000D01*
X3675000Y42279253D01*
X3675000Y41259018D01*
X3851247Y41286934D01*
X4075802Y41359897D01*
X4286171Y41467085D01*
X4477186Y41605866D01*
X4644133Y41772813D01*
X4782914Y41963828D01*
X4890102Y42174197D01*
X4963065Y42398752D01*
X4990980Y42575000D01*
X3970746Y42575000D01*
X4000000Y42684174D01*
X4000000Y42815826D01*
X3970746Y42925000D01*
X4990980Y42925000D01*
X4963065Y43101247D01*
X4890102Y43325802D01*
X4782914Y43536171D01*
X4641272Y43731125D01*
X4642921Y43732323D01*
X4617847Y43788247D01*
X4628266Y43857335D01*
X4674383Y43909823D01*
X4674731Y43910043D01*
X4696299Y43923595D01*
X4826403Y44053699D01*
X4924295Y44209492D01*
X4958165Y44306287D01*
X4985065Y44383162D01*
X4985065Y44383165D01*
X4985066Y44383167D01*
X4995466Y44475475D01*
X5000500Y44520151D01*
X5000499Y45662543D01*
X15449500Y45662543D01*
X15449500Y43937456D01*
X15452358Y43895304D01*
X15497660Y43713141D01*
X15581062Y43544978D01*
X15581063Y43544976D01*
X15581064Y43544975D01*
X15698668Y43398668D01*
X15844975Y43281064D01*
X15844976Y43281063D01*
X15844978Y43281062D01*
X16013141Y43197660D01*
X16195306Y43152358D01*
X16195302Y43152358D01*
X16226917Y43150214D01*
X16237454Y43149500D01*
X16237456Y43149500D01*
X17962544Y43149500D01*
X17962546Y43149500D01*
X17979404Y43150643D01*
X18004695Y43152358D01*
X18186858Y43197660D01*
X18355021Y43281062D01*
X18355025Y43281064D01*
X18501332Y43398668D01*
X18618936Y43544975D01*
X18702340Y43713143D01*
X18747642Y43895308D01*
X18750500Y43937454D01*
X18750500Y45662546D01*
X18747642Y45704692D01*
X18702340Y45886857D01*
X18618936Y46055025D01*
X18501332Y46201332D01*
X18355025Y46318936D01*
X18186857Y46402340D01*
X18004696Y46447641D01*
X18004695Y46447641D01*
X18004692Y46447642D01*
X17962546Y46450500D01*
X16237454Y46450500D01*
X16195308Y46447642D01*
X16013143Y46402340D01*
X15844975Y46318936D01*
X15698668Y46201332D01*
X15581064Y46055025D01*
X15581062Y46055021D01*
X15497660Y45886858D01*
X15452358Y45704695D01*
X15449500Y45662543D01*
X5000499Y45662543D01*
X5000499Y45979848D01*
X4985065Y46116838D01*
X4938294Y46250500D01*
X4924296Y46290505D01*
X4924295Y46290507D01*
X4924295Y46290508D01*
X4826404Y46446300D01*
X4696300Y46576404D01*
X4540508Y46674295D01*
X4366838Y46735065D01*
X4366833Y46735065D01*
X4366832Y46735066D01*
X4316016Y46740791D01*
X4229849Y46750500D01*
X2770152Y46750499D01*
X2770149Y46750499D01*
X2770146Y46750498D01*
X2732087Y46746210D01*
X2633166Y46735066D01*
X2633154Y46735063D01*
X2459494Y46674296D01*
X2459492Y46674295D01*
X2303700Y46576404D01*
X2303699Y46576403D01*
X2173596Y46446300D01*
X2075704Y46290507D01*
X2044501Y46201332D01*
X2014938Y46116845D01*
X2014933Y46116832D01*
X1999500Y45979855D01*
X1200000Y45979855D01*
X1200000Y51829857D01*
X15450000Y51829857D01*
X15450000Y51570142D01*
X15490629Y51313622D01*
X15570883Y51066622D01*
X15688792Y50835215D01*
X15814585Y50662073D01*
X16661688Y51509176D01*
X16719905Y51408343D01*
X16808343Y51319905D01*
X16909176Y51261688D01*
X16062073Y50414585D01*
X16235215Y50288792D01*
X16466622Y50170883D01*
X16713622Y50090629D01*
X16970143Y50050000D01*
X17229857Y50050000D01*
X17486377Y50090629D01*
X17733377Y50170883D01*
X17964791Y50288796D01*
X18137925Y50414584D01*
X18137925Y50414585D01*
X17290823Y51261688D01*
X17391657Y51319905D01*
X17480095Y51408343D01*
X17538310Y51509175D01*
X18385413Y50662072D01*
X18385414Y50662073D01*
X18511203Y50835208D01*
X18629116Y51066622D01*
X18709370Y51313622D01*
X18750000Y51570142D01*
X18750000Y51829857D01*
X18709370Y52086377D01*
X18629116Y52333377D01*
X18511203Y52564791D01*
X18385415Y52737925D01*
X18385413Y52737926D01*
X17538310Y51890823D01*
X17480095Y51991657D01*
X17391657Y52080095D01*
X17290823Y52138311D01*
X18137926Y52985413D01*
X18137925Y52985415D01*
X17964791Y53111203D01*
X17733377Y53229116D01*
X17486377Y53309370D01*
X17229857Y53350000D01*
X16970143Y53350000D01*
X16713622Y53309370D01*
X16466622Y53229116D01*
X16235208Y53111203D01*
X16062073Y52985414D01*
X16062072Y52985413D01*
X16909176Y52138311D01*
X16808343Y52080095D01*
X16719905Y51991657D01*
X16661688Y51890823D01*
X15814585Y52737925D01*
X15814584Y52737925D01*
X15688796Y52564791D01*
X15570883Y52333377D01*
X15490629Y52086377D01*
X15450000Y51829857D01*
X1200000Y51829857D01*
X1200000Y57562543D01*
X15449500Y57562543D01*
X15449500Y55837456D01*
X15452358Y55795304D01*
X15497660Y55613141D01*
X15581062Y55444978D01*
X15581063Y55444976D01*
X15581064Y55444975D01*
X15698668Y55298668D01*
X15844975Y55181064D01*
X15844976Y55181063D01*
X15844978Y55181062D01*
X16013141Y55097660D01*
X16195306Y55052358D01*
X16195302Y55052358D01*
X16226917Y55050214D01*
X16237454Y55049500D01*
X16237456Y55049500D01*
X17962544Y55049500D01*
X17962546Y55049500D01*
X17979404Y55050643D01*
X18004695Y55052358D01*
X18186858Y55097660D01*
X18355021Y55181062D01*
X18355025Y55181064D01*
X18501332Y55298668D01*
X18618936Y55444975D01*
X18702340Y55613143D01*
X18747642Y55795308D01*
X18750500Y55837454D01*
X18750500Y57562546D01*
X18747642Y57604692D01*
X18702340Y57786857D01*
X18618936Y57955025D01*
X18501332Y58101332D01*
X18355025Y58218936D01*
X18186857Y58302340D01*
X18004696Y58347641D01*
X18004695Y58347641D01*
X18004692Y58347642D01*
X17962546Y58350500D01*
X16237454Y58350500D01*
X16195308Y58347642D01*
X16013143Y58302340D01*
X15844975Y58218936D01*
X15698668Y58101332D01*
X15581064Y57955025D01*
X15581062Y57955021D01*
X15497660Y57786858D01*
X15452358Y57604695D01*
X15449500Y57562543D01*
X1200000Y57562543D01*
X1200000Y63129857D01*
X4950000Y63129857D01*
X4950000Y62870142D01*
X4990629Y62613622D01*
X5070883Y62366622D01*
X5188792Y62135215D01*
X5314585Y61962073D01*
X6161688Y62809176D01*
X6219905Y62708343D01*
X6308343Y62619905D01*
X6409176Y62561688D01*
X5562073Y61714585D01*
X5735215Y61588792D01*
X5966622Y61470883D01*
X6213622Y61390629D01*
X6470143Y61350000D01*
X6729857Y61350000D01*
X6986377Y61390629D01*
X7233377Y61470883D01*
X7464791Y61588796D01*
X7637925Y61714584D01*
X7637925Y61714585D01*
X6790823Y62561688D01*
X6891657Y62619905D01*
X6980095Y62708343D01*
X7038310Y62809175D01*
X7885413Y61962072D01*
X7885414Y61962073D01*
X8011203Y62135208D01*
X8129116Y62366622D01*
X8209370Y62613622D01*
X8250000Y62870142D01*
X8250000Y63129857D01*
X8209370Y63386377D01*
X8129115Y63633380D01*
X8129113Y63633384D01*
X8057192Y63774536D01*
X8057190Y63774539D01*
X8030988Y63825961D01*
X17349500Y63825961D01*
X17349500Y63574038D01*
X17388910Y63325214D01*
X17466760Y63085616D01*
X17581132Y62861151D01*
X17729201Y62657350D01*
X17729205Y62657345D01*
X17907345Y62479205D01*
X17907350Y62479201D01*
X18111151Y62331132D01*
X18335616Y62216760D01*
X18575214Y62138910D01*
X18598588Y62135208D01*
X18824038Y62099500D01*
X18824039Y62099500D01*
X19075961Y62099500D01*
X19075962Y62099500D01*
X19324785Y62138910D01*
X19564383Y62216760D01*
X19718747Y62295413D01*
X19788845Y62331130D01*
X19790680Y62332463D01*
X19992649Y62479201D01*
X19992654Y62479205D01*
X20137319Y62623870D01*
X20198642Y62657355D01*
X20268334Y62652371D01*
X20312681Y62623870D01*
X20457345Y62479205D01*
X20457350Y62479201D01*
X20661151Y62331132D01*
X20885616Y62216760D01*
X21125214Y62138910D01*
X21148588Y62135208D01*
X21374038Y62099500D01*
X21374039Y62099500D01*
X21625961Y62099500D01*
X21625962Y62099500D01*
X21874785Y62138910D01*
X22114383Y62216760D01*
X22268747Y62295413D01*
X22338845Y62331130D01*
X22340680Y62332463D01*
X22542649Y62479201D01*
X22542654Y62479205D01*
X22687319Y62623870D01*
X22748642Y62657355D01*
X22818334Y62652371D01*
X22862681Y62623870D01*
X23007345Y62479205D01*
X23007350Y62479201D01*
X23211151Y62331132D01*
X23435616Y62216760D01*
X23675214Y62138910D01*
X23698588Y62135208D01*
X23924038Y62099500D01*
X23924039Y62099500D01*
X24175961Y62099500D01*
X24175962Y62099500D01*
X24424785Y62138910D01*
X24664383Y62216760D01*
X24818747Y62295413D01*
X24888845Y62331130D01*
X24890680Y62332463D01*
X25092649Y62479201D01*
X25092654Y62479205D01*
X25270794Y62657345D01*
X25270798Y62657350D01*
X25418867Y62861151D01*
X25418870Y62861155D01*
X25493845Y63008301D01*
X25533239Y63085616D01*
X25533241Y63085621D01*
X25611090Y63325215D01*
X25650500Y63574038D01*
X25650500Y63825962D01*
X25611090Y64074785D01*
X25533241Y64314379D01*
X25418870Y64538845D01*
X25270793Y64742656D01*
X25092656Y64920793D01*
X24888845Y65068870D01*
X24664379Y65183241D01*
X24424785Y65261090D01*
X24175962Y65300500D01*
X23924038Y65300500D01*
X23675215Y65261090D01*
X23435621Y65183241D01*
X23435618Y65183239D01*
X23435616Y65183239D01*
X23380295Y65155051D01*
X23211155Y65068870D01*
X23211151Y65068867D01*
X23007350Y64920798D01*
X23007345Y64920794D01*
X22862681Y64776130D01*
X22801358Y64742645D01*
X22731666Y64747629D01*
X22687319Y64776130D01*
X22634530Y64828919D01*
X22542656Y64920793D01*
X22338845Y65068870D01*
X22114379Y65183241D01*
X21874785Y65261090D01*
X21625962Y65300500D01*
X21374038Y65300500D01*
X21125215Y65261090D01*
X20885621Y65183241D01*
X20885618Y65183239D01*
X20885616Y65183239D01*
X20830295Y65155051D01*
X20661155Y65068870D01*
X20661151Y65068867D01*
X20457350Y64920798D01*
X20457345Y64920794D01*
X20312681Y64776130D01*
X20251358Y64742645D01*
X20181666Y64747629D01*
X20137319Y64776130D01*
X20084530Y64828919D01*
X19992656Y64920793D01*
X19788845Y65068870D01*
X19564379Y65183241D01*
X19324785Y65261090D01*
X19075962Y65300500D01*
X18824038Y65300500D01*
X18575215Y65261090D01*
X18335621Y65183241D01*
X18335618Y65183239D01*
X18335616Y65183239D01*
X18280295Y65155051D01*
X18111155Y65068870D01*
X18111151Y65068867D01*
X17907350Y64920798D01*
X17907345Y64920794D01*
X17729205Y64742654D01*
X17729201Y64742649D01*
X17581132Y64538848D01*
X17466760Y64314383D01*
X17388910Y64074785D01*
X17349500Y63825961D01*
X8030988Y63825961D01*
X8011203Y63864791D01*
X7885415Y64037925D01*
X7885413Y64037926D01*
X7038311Y63190823D01*
X6980095Y63291657D01*
X6891657Y63380095D01*
X6790823Y63438311D01*
X7637926Y64285413D01*
X7637925Y64285415D01*
X7464791Y64411203D01*
X7233377Y64529116D01*
X6986377Y64609370D01*
X6729857Y64650000D01*
X6470143Y64650000D01*
X6213622Y64609370D01*
X5966622Y64529116D01*
X5735208Y64411203D01*
X5562073Y64285414D01*
X5562072Y64285413D01*
X6409176Y63438311D01*
X6308343Y63380095D01*
X6219905Y63291657D01*
X6161688Y63190823D01*
X5314585Y64037925D01*
X5314584Y64037925D01*
X5188796Y63864791D01*
X5070883Y63633377D01*
X4990629Y63386377D01*
X4950000Y63129857D01*
X1200000Y63129857D01*
X1200000Y68862543D01*
X4949500Y68862543D01*
X4949500Y67137456D01*
X4952358Y67095304D01*
X4997660Y66913141D01*
X5081062Y66744978D01*
X5081063Y66744976D01*
X5081064Y66744975D01*
X5198668Y66598668D01*
X5344975Y66481064D01*
X5344976Y66481063D01*
X5344978Y66481062D01*
X5513141Y66397660D01*
X5695306Y66352358D01*
X5695302Y66352358D01*
X5726917Y66350214D01*
X5737454Y66349500D01*
X5737456Y66349500D01*
X7462544Y66349500D01*
X7462546Y66349500D01*
X7479404Y66350643D01*
X7504695Y66352358D01*
X7686858Y66397660D01*
X7855021Y66481062D01*
X7855025Y66481064D01*
X8001332Y66598668D01*
X8118936Y66744975D01*
X8202340Y66913143D01*
X8247642Y67095308D01*
X8250500Y67137454D01*
X8250500Y68862546D01*
X8247642Y68904692D01*
X8202340Y69086857D01*
X8118936Y69255025D01*
X8001332Y69401332D01*
X7855025Y69518936D01*
X7686857Y69602340D01*
X7504696Y69647641D01*
X7504695Y69647641D01*
X7504692Y69647642D01*
X7462546Y69650500D01*
X5737454Y69650500D01*
X5695308Y69647642D01*
X5513143Y69602340D01*
X5344975Y69518936D01*
X5198668Y69401332D01*
X5081064Y69255025D01*
X5081062Y69255021D01*
X4997660Y69086858D01*
X4952358Y68904695D01*
X4949500Y68862543D01*
X1200000Y68862543D01*
X1200000Y77611450D01*
X1649500Y77611450D01*
X1649500Y77388549D01*
X1649501Y77388533D01*
X1678594Y77167547D01*
X1678595Y77167540D01*
X1678596Y77167537D01*
X1722131Y77005063D01*
X1736290Y76952219D01*
X1736293Y76952209D01*
X1821593Y76746277D01*
X1821595Y76746273D01*
X1933052Y76553226D01*
X1933058Y76553217D01*
X2068751Y76376377D01*
X2068757Y76376370D01*
X2226370Y76218757D01*
X2226377Y76218751D01*
X2403217Y76083058D01*
X2403226Y76083052D01*
X2596273Y75971595D01*
X2596277Y75971593D01*
X2802209Y75886293D01*
X2802219Y75886290D01*
X3017537Y75828596D01*
X3017540Y75828595D01*
X3017547Y75828594D01*
X3238533Y75799501D01*
X3238537Y75799500D01*
X3238543Y75799500D01*
X3238550Y75799500D01*
X3461450Y75799500D01*
X3461457Y75799500D01*
X3461463Y75799500D01*
X3461466Y75799501D01*
X3682452Y75828594D01*
X3682457Y75828595D01*
X3682463Y75828596D01*
X3897781Y75886290D01*
X3897783Y75886291D01*
X3897790Y75886293D01*
X4103722Y75971593D01*
X4103726Y75971595D01*
X4178233Y76014612D01*
X4296774Y76083052D01*
X4347338Y76121851D01*
X4473622Y76218751D01*
X4473629Y76218757D01*
X4631242Y76376370D01*
X4631248Y76376377D01*
X4727867Y76502294D01*
X4766948Y76553226D01*
X4878405Y76746274D01*
X4953925Y76928596D01*
X4963706Y76952209D01*
X4963706Y76952210D01*
X4963710Y76952219D01*
X4980225Y77013857D01*
X5016590Y77073516D01*
X5079437Y77104045D01*
X5148813Y77095750D01*
X5202691Y77051265D01*
X5219773Y77013858D01*
X5222131Y77005063D01*
X5236291Y76952216D01*
X5236293Y76952209D01*
X5321593Y76746277D01*
X5321595Y76746273D01*
X5433052Y76553226D01*
X5433058Y76553217D01*
X5568751Y76376377D01*
X5568757Y76376370D01*
X5726370Y76218757D01*
X5726377Y76218751D01*
X5903217Y76083058D01*
X5903226Y76083052D01*
X6096273Y75971595D01*
X6096277Y75971593D01*
X6302209Y75886293D01*
X6302219Y75886290D01*
X6517537Y75828596D01*
X6517540Y75828595D01*
X6517547Y75828594D01*
X6738533Y75799501D01*
X6738537Y75799500D01*
X6738543Y75799500D01*
X6738550Y75799500D01*
X6961450Y75799500D01*
X6961457Y75799500D01*
X6961463Y75799500D01*
X6961466Y75799501D01*
X7182452Y75828594D01*
X7182457Y75828595D01*
X7182463Y75828596D01*
X7397781Y75886290D01*
X7397783Y75886291D01*
X7397790Y75886293D01*
X7603722Y75971593D01*
X7603726Y75971595D01*
X7678233Y76014612D01*
X7796774Y76083052D01*
X7847338Y76121851D01*
X7973622Y76218751D01*
X7973629Y76218757D01*
X8131242Y76376370D01*
X8131248Y76376377D01*
X8227867Y76502294D01*
X8266948Y76553226D01*
X8378405Y76746274D01*
X8453925Y76928596D01*
X8463706Y76952209D01*
X8463706Y76952210D01*
X8463710Y76952219D01*
X8521404Y77167537D01*
X8550500Y77388543D01*
X8550500Y77611457D01*
X8521404Y77832463D01*
X8463710Y78047781D01*
X8378405Y78253726D01*
X8266948Y78446774D01*
X8131247Y78623624D01*
X7973624Y78781247D01*
X7796774Y78916948D01*
X7603726Y79028405D01*
X7397781Y79113710D01*
X7182463Y79171404D01*
X6961457Y79200500D01*
X6738543Y79200500D01*
X6517537Y79171404D01*
X6302219Y79113710D01*
X6096274Y79028405D01*
X5903226Y78916948D01*
X5903217Y78916941D01*
X5726377Y78781248D01*
X5726370Y78781242D01*
X5568757Y78623629D01*
X5568751Y78623622D01*
X5433058Y78446782D01*
X5433052Y78446774D01*
X5342342Y78289660D01*
X5321595Y78253726D01*
X5321593Y78253722D01*
X5236293Y78047790D01*
X5236291Y78047783D01*
X5236290Y78047781D01*
X5219774Y77986142D01*
X5183410Y77926483D01*
X5120563Y77895954D01*
X5051188Y77904249D01*
X4997310Y77948734D01*
X4980226Y77986141D01*
X4963710Y78047781D01*
X4878405Y78253726D01*
X4766948Y78446774D01*
X4631247Y78623624D01*
X4473624Y78781247D01*
X4296774Y78916948D01*
X4103726Y79028405D01*
X3897781Y79113710D01*
X3682463Y79171404D01*
X3461457Y79200500D01*
X3238543Y79200500D01*
X3017537Y79171404D01*
X2802219Y79113710D01*
X2596274Y79028405D01*
X2403226Y78916948D01*
X2403217Y78916941D01*
X2226377Y78781248D01*
X2226370Y78781242D01*
X2068757Y78623629D01*
X2068751Y78623622D01*
X1933058Y78446782D01*
X1933052Y78446774D01*
X1842342Y78289660D01*
X1821595Y78253726D01*
X1821593Y78253722D01*
X1736293Y78047790D01*
X1736291Y78047783D01*
X1736290Y78047781D01*
X1678596Y77832463D01*
X1678595Y77832457D01*
X1678594Y77832452D01*
X1649501Y77611466D01*
X1649500Y77611450D01*
X1200000Y77611450D01*
X1200000Y80210221D01*
X19999500Y80210221D01*
X19999500Y79989778D01*
X20033985Y79772047D01*
X20102103Y79562396D01*
X20102104Y79562393D01*
X20202187Y79365974D01*
X20331752Y79187641D01*
X20331756Y79187636D01*
X20487636Y79031756D01*
X20487641Y79031752D01*
X20665974Y78902187D01*
X20862393Y78802104D01*
X20862396Y78802103D01*
X21072047Y78733985D01*
X21214228Y78711466D01*
X21289778Y78699500D01*
X21289779Y78699500D01*
X21510221Y78699500D01*
X21510222Y78699500D01*
X21619086Y78716742D01*
X21727952Y78733985D01*
X21937603Y78802103D01*
X21937606Y78802104D01*
X22071096Y78870122D01*
X22134022Y78902185D01*
X22154332Y78916941D01*
X22312358Y79031752D01*
X22312363Y79031756D01*
X22468243Y79187636D01*
X22468247Y79187641D01*
X22588913Y79353726D01*
X22597815Y79365978D01*
X22689936Y79546773D01*
X22697895Y79562393D01*
X22697896Y79562396D01*
X22732995Y79670421D01*
X22766015Y79772049D01*
X22800500Y79989778D01*
X22800500Y80210221D01*
X24999500Y80210221D01*
X24999500Y79989778D01*
X25033985Y79772047D01*
X25102103Y79562396D01*
X25102104Y79562393D01*
X25202187Y79365974D01*
X25331752Y79187641D01*
X25331756Y79187636D01*
X25487636Y79031756D01*
X25487641Y79031752D01*
X25665974Y78902187D01*
X25862393Y78802104D01*
X25862396Y78802103D01*
X26072047Y78733985D01*
X26214228Y78711466D01*
X26289778Y78699500D01*
X26289779Y78699500D01*
X26510221Y78699500D01*
X26510222Y78699500D01*
X26619086Y78716742D01*
X26727952Y78733985D01*
X26937603Y78802103D01*
X26937606Y78802104D01*
X27071096Y78870122D01*
X27134022Y78902185D01*
X27154332Y78916941D01*
X27312358Y79031752D01*
X27312363Y79031756D01*
X27468243Y79187636D01*
X27468247Y79187641D01*
X27588913Y79353726D01*
X27597815Y79365978D01*
X27689936Y79546773D01*
X27697895Y79562393D01*
X27697896Y79562396D01*
X27732995Y79670421D01*
X27766015Y79772049D01*
X27800500Y79989778D01*
X27800500Y80210222D01*
X27766015Y80427951D01*
X27697895Y80637606D01*
X27597815Y80834022D01*
X27468242Y81012365D01*
X27312365Y81168242D01*
X27134022Y81297815D01*
X26937606Y81397895D01*
X26727951Y81466015D01*
X26510222Y81500500D01*
X26289778Y81500500D01*
X26072049Y81466015D01*
X26034227Y81453726D01*
X25862396Y81397896D01*
X25862393Y81397895D01*
X25794375Y81363237D01*
X25665978Y81297815D01*
X25643192Y81281260D01*
X25487641Y81168247D01*
X25487636Y81168243D01*
X25331756Y81012363D01*
X25331752Y81012358D01*
X25202187Y80834025D01*
X25202185Y80834022D01*
X25170122Y80771096D01*
X25102104Y80637606D01*
X25102103Y80637603D01*
X25033985Y80427952D01*
X25033985Y80427951D01*
X25000053Y80213710D01*
X24999500Y80210221D01*
X22800500Y80210221D01*
X22800500Y80210222D01*
X22766015Y80427951D01*
X22697895Y80637606D01*
X22597815Y80834022D01*
X22468242Y81012365D01*
X22312365Y81168242D01*
X22134022Y81297815D01*
X21937606Y81397895D01*
X21727951Y81466015D01*
X21510222Y81500500D01*
X21289778Y81500500D01*
X21072049Y81466015D01*
X21034227Y81453726D01*
X20862396Y81397896D01*
X20862393Y81397895D01*
X20794375Y81363237D01*
X20665978Y81297815D01*
X20643192Y81281260D01*
X20487641Y81168247D01*
X20487636Y81168243D01*
X20331756Y81012363D01*
X20331752Y81012358D01*
X20202187Y80834025D01*
X20202185Y80834022D01*
X20170122Y80771096D01*
X20102104Y80637606D01*
X20102103Y80637603D01*
X20033985Y80427952D01*
X20033985Y80427951D01*
X20000053Y80213710D01*
X19999500Y80210221D01*
X1200000Y80210221D01*
X1200000Y87911424D01*
X6100000Y87911424D01*
X6100000Y87688575D01*
X6129085Y87467645D01*
X6129088Y87467632D01*
X6186763Y87252381D01*
X6272045Y87046497D01*
X6272054Y87046479D01*
X6383462Y86853511D01*
X6480093Y86727580D01*
X7361689Y87609176D01*
X7419905Y87508343D01*
X7508343Y87419905D01*
X7609176Y87361688D01*
X6727580Y86480093D01*
X6853511Y86383462D01*
X7046479Y86272054D01*
X7046497Y86272045D01*
X7252381Y86186763D01*
X7467632Y86129088D01*
X7467645Y86129085D01*
X7688575Y86100000D01*
X7911425Y86100000D01*
X8132354Y86129085D01*
X8132367Y86129088D01*
X8347618Y86186763D01*
X8553502Y86272045D01*
X8553520Y86272054D01*
X8746491Y86383464D01*
X8746495Y86383466D01*
X8872418Y86480092D01*
X8872418Y86480094D01*
X7990823Y87361688D01*
X8091657Y87419905D01*
X8180095Y87508343D01*
X8238310Y87609175D01*
X9119904Y86727580D01*
X9119906Y86727580D01*
X9216533Y86853504D01*
X9216535Y86853508D01*
X9327945Y87046479D01*
X9327954Y87046497D01*
X9413236Y87252381D01*
X9470911Y87467632D01*
X9470914Y87467645D01*
X9500000Y87688575D01*
X9500000Y87911424D01*
X9470914Y88132354D01*
X9470911Y88132367D01*
X9413236Y88347618D01*
X9327954Y88553502D01*
X9327945Y88553520D01*
X9216535Y88746491D01*
X9216533Y88746494D01*
X9119905Y88872418D01*
X9119904Y88872418D01*
X8238310Y87990824D01*
X8180095Y88091657D01*
X8091657Y88180095D01*
X7990824Y88238310D01*
X8872418Y89119904D01*
X8872418Y89119905D01*
X8746494Y89216533D01*
X8746491Y89216535D01*
X8553520Y89327945D01*
X8553502Y89327954D01*
X8347618Y89413236D01*
X8132367Y89470911D01*
X8132354Y89470914D01*
X7911425Y89500000D01*
X7688575Y89500000D01*
X7467645Y89470914D01*
X7467632Y89470911D01*
X7252381Y89413236D01*
X7046497Y89327954D01*
X7046479Y89327945D01*
X6853508Y89216535D01*
X6853504Y89216533D01*
X6727580Y89119906D01*
X6727580Y89119904D01*
X7609175Y88238310D01*
X7508343Y88180095D01*
X7419905Y88091657D01*
X7361688Y87990823D01*
X6480094Y88872418D01*
X6480092Y88872418D01*
X6383466Y88746495D01*
X6383464Y88746491D01*
X6272054Y88553520D01*
X6272045Y88553502D01*
X6186763Y88347618D01*
X6129088Y88132367D01*
X6129085Y88132354D01*
X6100000Y87911424D01*
X1200000Y87911424D01*
X1200000Y93742971D01*
X6099500Y93742971D01*
X6099500Y91857028D01*
X6102248Y91816497D01*
X6145801Y91641370D01*
X6225982Y91479700D01*
X6339044Y91339045D01*
X6339045Y91339044D01*
X6479700Y91225982D01*
X6641370Y91145801D01*
X6816497Y91102248D01*
X6845447Y91100285D01*
X6857026Y91099500D01*
X6857028Y91099500D01*
X8742972Y91099500D01*
X8742974Y91099500D01*
X8756482Y91100416D01*
X8783502Y91102248D01*
X8958629Y91145801D01*
X9120299Y91225982D01*
X9260954Y91339044D01*
X9260955Y91339045D01*
X9374017Y91479700D01*
X9454198Y91641370D01*
X9454199Y91641372D01*
X9492277Y91794486D01*
X9497751Y91816497D01*
X9497751Y91816498D01*
X9497752Y91816502D01*
X9500500Y91857026D01*
X9500500Y93742974D01*
X9497752Y93783498D01*
X9454199Y93958628D01*
X9374017Y94120300D01*
X9260955Y94260955D01*
X9120300Y94374017D01*
X8958628Y94454199D01*
X8783498Y94497752D01*
X8742974Y94500500D01*
X6857026Y94500500D01*
X6816502Y94497752D01*
X6816498Y94497751D01*
X6816497Y94497751D01*
X6760255Y94483764D01*
X6641372Y94454199D01*
X6641370Y94454198D01*
X6479700Y94374017D01*
X6339045Y94260955D01*
X6339044Y94260954D01*
X6225982Y94120299D01*
X6145801Y93958629D01*
X6102248Y93783502D01*
X6099500Y93742971D01*
X1200000Y93742971D01*
X1200000Y94948638D01*
X1219685Y95015677D01*
X1236319Y95036319D01*
X3463681Y97263681D01*
X3525004Y97297166D01*
X3551362Y97300000D01*
X34848638Y97300000D01*
X34915677Y97280315D01*
G37*
%TD.AperFunction*%
%TD*%
%TA.AperFunction,Conductor*%
%TO.N,/N01*%
G36*
X148685677Y57560315D02*
G01*
X148706319Y57543681D01*
X149463181Y56786819D01*
X149496666Y56725496D01*
X149499500Y56699138D01*
X149499500Y55823388D01*
X149479815Y55756349D01*
X149427011Y55710594D01*
X149357853Y55700650D01*
X149294297Y55729675D01*
X149277124Y55747902D01*
X149157597Y55903671D01*
X149157591Y55903678D01*
X148953678Y56107591D01*
X148953671Y56107597D01*
X148724876Y56283158D01*
X148475126Y56427351D01*
X148475116Y56427355D01*
X148208682Y56537716D01*
X147930118Y56612357D01*
X147750000Y56636069D01*
X147750000Y54883197D01*
X147590120Y54915000D01*
X147409880Y54915000D01*
X147250000Y54883197D01*
X147250000Y56636070D01*
X147069881Y56612357D01*
X146791317Y56537716D01*
X146524883Y56427355D01*
X146524873Y56427351D01*
X146275123Y56283158D01*
X146046328Y56107597D01*
X146046321Y56107591D01*
X145842408Y55903678D01*
X145842402Y55903671D01*
X145666841Y55674876D01*
X145522648Y55425126D01*
X145522644Y55425116D01*
X145412283Y55158682D01*
X145337643Y54880118D01*
X145300000Y54594203D01*
X145300000Y54250000D01*
X146616802Y54250000D01*
X146585000Y54090120D01*
X146585000Y53909880D01*
X146616802Y53750000D01*
X145300000Y53750000D01*
X145300000Y53405796D01*
X145337643Y53119881D01*
X145412283Y52841317D01*
X145522644Y52574883D01*
X145522648Y52574873D01*
X145666841Y52325123D01*
X145842402Y52096328D01*
X145842408Y52096321D01*
X146046321Y51892408D01*
X146046328Y51892402D01*
X146275123Y51716841D01*
X146524873Y51572648D01*
X146524883Y51572644D01*
X146791317Y51462283D01*
X147069881Y51387643D01*
X147249999Y51363928D01*
X147250000Y51363928D01*
X147250000Y53116802D01*
X147409880Y53085000D01*
X147590120Y53085000D01*
X147750000Y53116802D01*
X147750000Y51363928D01*
X147930118Y51387643D01*
X148208682Y51462283D01*
X148475116Y51572644D01*
X148475126Y51572648D01*
X148724876Y51716841D01*
X148953671Y51892402D01*
X148953678Y51892408D01*
X149157591Y52096321D01*
X149277124Y52252098D01*
X149333552Y52293300D01*
X149403299Y52297455D01*
X149464219Y52263242D01*
X149496971Y52201525D01*
X149499500Y52176611D01*
X149499500Y50950862D01*
X149479815Y50883823D01*
X149463181Y50863181D01*
X148936319Y50336319D01*
X148874996Y50302834D01*
X148848638Y50300000D01*
X139640000Y50300000D01*
X139631695Y50296560D01*
X139562226Y50289090D01*
X139499746Y50320364D01*
X139496588Y50323411D01*
X138826319Y50993681D01*
X138792834Y51055004D01*
X138790000Y51081362D01*
X138790000Y54594203D01*
X140300000Y54594203D01*
X140300000Y54250000D01*
X141616802Y54250000D01*
X141585000Y54090120D01*
X141585000Y53909880D01*
X141616802Y53750000D01*
X140300000Y53750000D01*
X140300000Y53405796D01*
X140337643Y53119881D01*
X140412283Y52841317D01*
X140522644Y52574883D01*
X140522648Y52574873D01*
X140666841Y52325123D01*
X140842402Y52096328D01*
X140842408Y52096321D01*
X141046321Y51892408D01*
X141046328Y51892402D01*
X141275123Y51716841D01*
X141524873Y51572648D01*
X141524883Y51572644D01*
X141791317Y51462283D01*
X142069881Y51387643D01*
X142249999Y51363928D01*
X142250000Y51363928D01*
X142250000Y53116802D01*
X142409880Y53085000D01*
X142590120Y53085000D01*
X142750000Y53116802D01*
X142750000Y51363928D01*
X142930118Y51387643D01*
X143208682Y51462283D01*
X143475116Y51572644D01*
X143475126Y51572648D01*
X143724876Y51716841D01*
X143953671Y51892402D01*
X143953678Y51892408D01*
X144157591Y52096321D01*
X144157597Y52096328D01*
X144333158Y52325123D01*
X144477351Y52574873D01*
X144477355Y52574883D01*
X144587716Y52841317D01*
X144662356Y53119881D01*
X144699999Y53405796D01*
X144700000Y53405810D01*
X144700000Y53750000D01*
X143383198Y53750000D01*
X143415000Y53909880D01*
X143415000Y54090120D01*
X143383198Y54250000D01*
X144700000Y54250000D01*
X144700000Y54594189D01*
X144699999Y54594203D01*
X144662356Y54880118D01*
X144587716Y55158682D01*
X144477355Y55425116D01*
X144477351Y55425126D01*
X144333158Y55674876D01*
X144157597Y55903671D01*
X144157591Y55903678D01*
X143953678Y56107591D01*
X143953671Y56107597D01*
X143724876Y56283158D01*
X143475126Y56427351D01*
X143475116Y56427355D01*
X143208682Y56537716D01*
X142930118Y56612357D01*
X142750000Y56636069D01*
X142750000Y54883197D01*
X142590120Y54915000D01*
X142409880Y54915000D01*
X142250000Y54883197D01*
X142250000Y56636070D01*
X142069881Y56612357D01*
X141791317Y56537716D01*
X141524883Y56427355D01*
X141524873Y56427351D01*
X141275123Y56283158D01*
X141046328Y56107597D01*
X141046321Y56107591D01*
X140842408Y55903678D01*
X140842402Y55903671D01*
X140666841Y55674876D01*
X140522648Y55425126D01*
X140522644Y55425116D01*
X140412283Y55158682D01*
X140337643Y54880118D01*
X140300000Y54594203D01*
X138790000Y54594203D01*
X138790000Y56718638D01*
X138809685Y56785677D01*
X138826319Y56806319D01*
X139563681Y57543681D01*
X139625004Y57577166D01*
X139651362Y57580000D01*
X148618638Y57580000D01*
X148685677Y57560315D01*
G37*
%TD.AperFunction*%
%TD*%
M02*
