M48
; DRILL file KiCad 10.0.1 date 2026-09-08T10:13:39
; FORMAT={-:-/ absolute / metric / decimal}
; #@! TF.CreationDate,2026-09-08T10:13:39+09:00
; #@! TF.GenerationSoftware,Kicad,Pcbnew,10.0.1
; #@! TF.FileFunction,Plated,1,2,PTH
FMAT,2
METRIC
; #@! TA.AperFunction,Plated,PTH,ViaDrill
T1C0.400
; #@! TA.AperFunction,Plated,PTH,ViaDrill
T2C0.500
; #@! TA.AperFunction,Plated,PTH,ViaDrill
T3C0.600
; #@! TA.AperFunction,Plated,PTH,ViaDrill
T4C0.800
; #@! TA.AperFunction,Plated,PTH,ComponentDrill
T5C0.800
; #@! TA.AperFunction,Plated,PTH,ComponentDrill
T6C0.850
; #@! TA.AperFunction,Plated,PTH,ComponentDrill
T7C0.880
; #@! TA.AperFunction,Plated,PTH,ComponentDrill
T8C0.900
; #@! TA.AperFunction,Plated,PTH,ComponentDrill
T9C0.930
; #@! TA.AperFunction,Plated,PTH,ComponentDrill
T10C0.950
; #@! TA.AperFunction,Plated,PTH,ViaDrill
T11C1.000
; #@! TA.AperFunction,Plated,PTH,ComponentDrill
T12C1.000
; #@! TA.AperFunction,Plated,PTH,ComponentDrill
T13C1.050
; #@! TA.AperFunction,Plated,PTH,ComponentDrill
T14C1.080
; #@! TA.AperFunction,Plated,PTH,ComponentDrill
T15C1.100
; #@! TA.AperFunction,Plated,PTH,ComponentDrill
T16C1.150
; #@! TA.AperFunction,Plated,PTH,ComponentDrill
T17C1.200
; #@! TA.AperFunction,Plated,PTH,ComponentDrill
T18C1.270
; #@! TA.AperFunction,Plated,PTH,ComponentDrill
T19C3.500
%
G90
G05
T1
X8.23Y50.83
X11.95Y49.64
X19.02Y48.31
X22.45Y60.5
X23.37Y81.41
X23.8Y63.15
X25.1Y66.3
X25.43Y82.36
X26.48Y70.09
X27.43Y83.3
X27.8Y60.52
X34.86Y85.16
X36.29Y43.7
X36.63Y76.4
X38.84Y85.16
X38.86Y79.66
X39.03Y75.49
X39.4Y62.76
X39.4Y55.92
X39.42Y80.54
X40.19Y79.67
X41.03Y62.76
X41.04Y55.96
X41.8Y79.86
X41.8Y74.13
X42.47Y62.75
X43.37Y55.92
X43.41Y64.84
X44.21Y64.05
X45.97Y64.09
X47.16Y84.25
X48.52Y67.35
X48.89Y81.67
X50.15Y52.15
X56.69Y61.62
X61.36Y51.86
X65.25Y60.54
X73.42Y51.13
X79.28Y59.26
X87.59Y50.95
X93.44Y57.97
X102.76Y49.99
T2
X10.9Y44.3
X12.65Y44.3
X17.75Y69.65
X19.5Y69.65
X19.9Y56.45
X21.65Y56.45
X23.55Y53.9
X23.8Y56.5
X25.3Y53.9
X29.3Y44.35
X29.95Y71.89
X29.95Y54.5
X31.05Y44.35
X31.7Y54.5
X31.8Y88.25
X31.8Y86.0
X31.82Y90.75
X32.4Y62.45
X34.15Y62.45
X37.51Y71.18
X40.89Y88.05
X41.0Y67.73
X43.0Y75.7
X44.75Y75.7
X44.8Y72.78
X46.1Y79.75
X47.85Y79.75
X48.14Y72.44
X50.6Y55.8
X50.66Y69.48
X51.95Y79.7
X53.7Y79.7
X53.95Y64.3
X56.55Y53.7
X58.3Y53.7
X59.3Y76.15
X59.4Y67.35
X61.05Y76.15
X61.15Y67.35
X63.4Y72.44
X65.95Y53.7
X67.7Y53.7
X77.65Y53.7
X79.4Y53.7
X85.75Y61.8
X87.35Y68.75
X87.5Y61.8
X88.4Y82.55
X89.1Y68.75
X89.45Y53.7
X90.15Y82.55
X91.2Y53.7
X93.65Y66.55
X95.4Y66.55
X98.6Y47.75
X98.72Y61.7
X100.35Y47.75
X102.25Y62.04
X113.95Y47.75
X115.7Y47.75
X118.7Y53.2
X120.45Y53.2
X136.4Y60.26
X145.8Y60.3
X145.8Y55.9
X147.9Y64.5
T3
X150.88Y63.2
X151.29Y68.51
X152.65Y65.87
X155.33Y69.63
T4
X136.25Y50.86
X136.76Y55.87
T5
X7.0Y39.08
X7.0Y28.92
T6
X164.5Y19.04
X164.5Y13.96
T7
X126.34Y55.05
X133.66Y52.95
X139.84Y22.35
X147.16Y20.25
X149.84Y22.35
X157.16Y20.25
T8
X44.5Y21.5
X49.5Y21.5
X59.5Y21.5
X64.5Y21.5
X74.5Y21.5
X79.5Y21.5
X89.5Y21.5
X94.5Y21.5
X104.5Y21.5
X109.5Y21.5
X119.5Y21.5
X124.5Y21.5
T9
X166.0Y37.5
X166.0Y22.9
T10
X10.73Y69.62
X10.73Y67.08
X10.73Y64.54
X10.73Y62.0
X10.73Y59.46
X10.73Y56.92
X10.73Y54.38
X13.27Y69.62
X13.27Y67.08
X13.27Y64.54
X13.27Y62.0
X13.27Y59.46
X13.27Y56.92
X13.27Y54.38
X14.92Y90.77
X14.92Y88.23
X17.46Y90.77
X17.46Y88.23
X20.0Y90.77
X20.0Y88.23
X22.54Y90.77
X22.54Y88.23
X25.08Y90.77
X25.08Y88.23
X73.0Y91.5
X73.0Y86.5
X73.0Y79.5
X73.0Y74.5
X84.0Y91.5
X84.0Y86.5
X84.0Y79.5
X84.0Y74.5
T11
X138.6Y68.43
X151.02Y59.62
X155.51Y63.81
X158.67Y69.52
T12
X140.5Y35.0
X156.5Y35.0
T13
X134.5Y36.0
X134.5Y21.0
X154.0Y53.5
X154.0Y43.5
X167.0Y53.5
X167.0Y43.5
T14
X47.0Y32.54
X47.0Y30.0
X47.0Y27.46
X62.0Y32.54
X62.0Y30.0
X62.0Y27.46
X77.0Y32.54
X77.0Y30.0
X77.0Y27.46
X92.0Y32.54
X92.0Y30.0
X92.0Y27.46
X107.0Y32.54
X107.0Y30.0
X107.0Y27.46
X122.0Y32.54
X122.0Y30.0
X122.0Y27.46
T15
X115.45Y91.2
X115.45Y86.2
X115.45Y81.2
X115.45Y76.2
X115.45Y71.2
X115.45Y66.2
X132.95Y91.2
X132.95Y86.2
X132.95Y81.2
X132.95Y76.2
X132.95Y71.2
X132.95Y66.2
X140.3Y91.16
X140.3Y70.84
X149.45Y86.0
X156.95Y86.0
T16
X144.69Y27.55
X152.31Y26.05
T17
X17.07Y10.6
X24.69Y10.6
X32.31Y10.6
X39.93Y10.6
X51.09Y10.6
X58.71Y10.6
X66.33Y10.6
X73.95Y10.6
X81.57Y10.6
X89.19Y10.6
X96.81Y10.6
X104.43Y10.6
X112.05Y10.6
X119.67Y10.6
X127.29Y10.6
X134.91Y10.6
X145.99Y10.6
X153.61Y10.6
T18
X165.1Y83.25
X165.1Y75.75
X165.1Y68.25
X165.1Y60.75
T19
X165.0Y5.0
M30
