%TF.GenerationSoftware,KiCad,Pcbnew,10.0.1*%
%TF.CreationDate,2026-09-08T10:13:43+09:00*%
%TF.ProjectId,SMD_POWER_BD_SV5,534d445f-504f-4574-9552-5f42445f5356,rev?*%
%TF.SameCoordinates,Original*%
%TF.FileFunction,Paste,Top*%
%TF.FilePolarity,Positive*%
%FSLAX46Y46*%
G04 Gerber Fmt 4.6, Leading zero omitted, Abs format (unit mm)*
G04 Created by KiCad (PCBNEW 10.0.1) date 2026-09-08 10:13:43*
%MOMM*%
%LPD*%
G01*
G04 APERTURE LIST*
G04 Aperture macros list*
%AMRoundRect*
0 Rectangle with rounded corners*
0 $1 Rounding radius*
0 $2 $3 $4 $5 $6 $7 $8 $9 X,Y pos of 4 corners*
0 Add a 4 corners polygon primitive as box body*
4,1,4,$2,$3,$4,$5,$6,$7,$8,$9,$2,$3,0*
0 Add four circle primitives for the rounded corners*
1,1,$1+$1,$2,$3*
1,1,$1+$1,$4,$5*
1,1,$1+$1,$6,$7*
1,1,$1+$1,$8,$9*
0 Add four rect primitives between the rounded corners*
20,1,$1+$1,$2,$3,$4,$5,0*
20,1,$1+$1,$4,$5,$6,$7,0*
20,1,$1+$1,$6,$7,$8,$9,0*
20,1,$1+$1,$8,$9,$2,$3,0*%
G04 Aperture macros list end*
%ADD10RoundRect,0.150000X0.750000X-0.530000X0.750000X0.530000X-0.750000X0.530000X-0.750000X-0.530000X0*%
%ADD11RoundRect,0.138095X0.561905X-0.441905X0.561905X0.441905X-0.561905X0.441905X-0.561905X-0.441905X0*%
%ADD12RoundRect,0.250000X-1.400000X0.850000X-1.400000X-0.850000X1.400000X-0.850000X1.400000X0.850000X0*%
%ADD13RoundRect,0.350000X0.350000X-0.650000X0.350000X0.650000X-0.350000X0.650000X-0.350000X-0.650000X0*%
%ADD14RoundRect,0.150000X0.530000X0.750000X-0.530000X0.750000X-0.530000X-0.750000X0.530000X-0.750000X0*%
%ADD15RoundRect,0.270000X-1.230000X1.255000X-1.230000X-1.255000X1.230000X-1.255000X1.230000X1.255000X0*%
%ADD16RoundRect,0.272727X-1.227273X1.727273X-1.227273X-1.727273X1.227273X-1.727273X1.227273X1.727273X0*%
%ADD17RoundRect,0.272727X-1.227273X1.627273X-1.227273X-1.627273X1.227273X-1.627273X1.227273X1.627273X0*%
%ADD18RoundRect,0.250000X-0.350000X1.150000X-0.350000X-1.150000X0.350000X-1.150000X0.350000X1.150000X0*%
%ADD19RoundRect,0.150000X-0.530000X-0.750000X0.530000X-0.750000X0.530000X0.750000X-0.530000X0.750000X0*%
%ADD20RoundRect,0.249999X1.425001X-0.450001X1.425001X0.450001X-1.425001X0.450001X-1.425001X-0.450001X0*%
%ADD21RoundRect,0.250000X-1.500000X-0.550000X1.500000X-0.550000X1.500000X0.550000X-1.500000X0.550000X0*%
%ADD22RoundRect,0.250000X-0.250000X-0.350000X0.250000X-0.350000X0.250000X0.350000X-0.250000X0.350000X0*%
%ADD23RoundRect,0.150000X-0.750000X0.530000X-0.750000X-0.530000X0.750000X-0.530000X0.750000X0.530000X0*%
%ADD24RoundRect,0.250000X-2.250000X-0.750000X2.250000X-0.750000X2.250000X0.750000X-2.250000X0.750000X0*%
%ADD25RoundRect,0.250000X0.400000X1.450000X-0.400000X1.450000X-0.400000X-1.450000X0.400000X-1.450000X0*%
%ADD26RoundRect,0.210000X-0.490000X0.915000X-0.490000X-0.915000X0.490000X-0.915000X0.490000X0.915000X0*%
%ADD27RoundRect,0.350000X-0.650000X-0.350000X0.650000X-0.350000X0.650000X0.350000X-0.650000X0.350000X0*%
%ADD28RoundRect,0.137500X-0.137500X0.600000X-0.137500X-0.600000X0.137500X-0.600000X0.137500X0.600000X0*%
%ADD29RoundRect,0.137500X-0.600000X0.137500X-0.600000X-0.137500X0.600000X-0.137500X0.600000X0.137500X0*%
%ADD30RoundRect,0.250000X-0.550000X1.500000X-0.550000X-1.500000X0.550000X-1.500000X0.550000X1.500000X0*%
%ADD31RoundRect,0.090000X0.760000X0.210000X-0.760000X0.210000X-0.760000X-0.210000X0.760000X-0.210000X0*%
%ADD32RoundRect,0.255000X0.595000X0.645000X-0.595000X0.645000X-0.595000X-0.645000X0.595000X-0.645000X0*%
%ADD33RoundRect,0.250000X-0.650000X1.000000X-0.650000X-1.000000X0.650000X-1.000000X0.650000X1.000000X0*%
%ADD34RoundRect,0.270000X1.255000X1.230000X-1.255000X1.230000X-1.255000X-1.230000X1.255000X-1.230000X0*%
%ADD35RoundRect,0.272727X1.727273X1.227273X-1.727273X1.227273X-1.727273X-1.227273X1.727273X-1.227273X0*%
%ADD36RoundRect,0.272727X1.627273X1.227273X-1.627273X1.227273X-1.627273X-1.227273X1.627273X-1.227273X0*%
%ADD37RoundRect,0.250000X1.150000X0.350000X-1.150000X0.350000X-1.150000X-0.350000X1.150000X-0.350000X0*%
%ADD38RoundRect,0.150000X0.512500X0.150000X-0.512500X0.150000X-0.512500X-0.150000X0.512500X-0.150000X0*%
%ADD39RoundRect,0.250000X0.650000X-1.000000X0.650000X1.000000X-0.650000X1.000000X-0.650000X-1.000000X0*%
G04 APERTURE END LIST*
D10*
%TO.C,R32*%
X33000000Y35650000D03*
X33000000Y38950000D03*
%TD*%
D11*
%TO.C,LED1*%
X65800000Y74530000D03*
X65800000Y72470000D03*
%TD*%
D12*
%TO.C,L2*%
X93500000Y93450000D03*
X93500000Y87550000D03*
%TD*%
D13*
%TO.C,U11*%
X14730000Y29300000D03*
X17270000Y29300000D03*
X17270000Y38700000D03*
X14730000Y38700000D03*
%TD*%
D10*
%TO.C,R39*%
X14000000Y22350000D03*
X14000000Y25650000D03*
%TD*%
D14*
%TO.C,C11*%
X103250000Y84000000D03*
X99950000Y84000000D03*
%TD*%
D15*
%TO.C,U2*%
X65100000Y87890000D03*
X62300000Y87890000D03*
D16*
X65110000Y84610000D03*
D17*
X62290000Y84510000D03*
D18*
X65980000Y93010000D03*
X61420000Y93010000D03*
%TD*%
D19*
%TO.C,R10*%
X139150000Y54000000D03*
X142450000Y54000000D03*
%TD*%
D14*
%TO.C,C27*%
X14650000Y81500000D03*
X11350000Y81500000D03*
%TD*%
%TO.C,C21*%
X158650000Y72000000D03*
X155350000Y72000000D03*
%TD*%
D20*
%TO.C,R5*%
X159800000Y61450000D03*
X159800000Y67550000D03*
%TD*%
D21*
%TO.C,C8*%
X137200000Y47000000D03*
X142800000Y47000000D03*
%TD*%
D22*
%TO.C,D5*%
X155350000Y75000000D03*
X158650000Y75000000D03*
%TD*%
D23*
%TO.C,C2*%
X149500000Y75150000D03*
X149500000Y71850000D03*
%TD*%
D14*
%TO.C,C12*%
X47150000Y87200000D03*
X43850000Y87200000D03*
%TD*%
D19*
%TO.C,C9*%
X34850000Y87200000D03*
X38150000Y87200000D03*
%TD*%
D10*
%TO.C,R25*%
X50500000Y28350000D03*
X50500000Y31650000D03*
%TD*%
%TO.C,R18*%
X98700000Y60350000D03*
X98700000Y63650000D03*
%TD*%
%TO.C,R2*%
X65800000Y77350000D03*
X65800000Y80650000D03*
%TD*%
D14*
%TO.C,L3*%
X50150000Y54000000D03*
X46850000Y54000000D03*
%TD*%
D12*
%TO.C,L1*%
X93500000Y80750000D03*
X93500000Y74850000D03*
%TD*%
D14*
%TO.C,R20*%
X64650000Y50000000D03*
X61350000Y50000000D03*
%TD*%
%TO.C,C22*%
X149150000Y57800000D03*
X145850000Y57800000D03*
%TD*%
D24*
%TO.C,Y1*%
X36250000Y91600000D03*
X45750000Y91600000D03*
%TD*%
D19*
%TO.C,R11*%
X145850000Y54000000D03*
X149150000Y54000000D03*
%TD*%
D20*
%TO.C,R4*%
X155500000Y61450000D03*
X155500000Y67550000D03*
%TD*%
D25*
%TO.C,R3*%
X110225000Y72100000D03*
X105775000Y72100000D03*
%TD*%
D14*
%TO.C,C3*%
X52650000Y83500000D03*
X49350000Y83500000D03*
%TD*%
%TO.C,R17*%
X8650000Y81500000D03*
X5350000Y81500000D03*
%TD*%
D10*
%TO.C,R37*%
X101500000Y28350000D03*
X101500000Y31650000D03*
%TD*%
%TO.C,C29*%
X30000000Y22350000D03*
X30000000Y25650000D03*
%TD*%
D19*
%TO.C,C18*%
X91350000Y84700000D03*
X94650000Y84700000D03*
%TD*%
D26*
%TO.C,U7*%
X79540000Y46540000D03*
X77000000Y46540000D03*
X74460000Y46540000D03*
X74460000Y37460000D03*
X77000000Y37460000D03*
X79540000Y37460000D03*
%TD*%
D19*
%TO.C,R14*%
X98350000Y66500000D03*
X101650000Y66500000D03*
%TD*%
D27*
%TO.C,U4*%
X125300000Y60270000D03*
X125300000Y57730000D03*
X134700000Y57730000D03*
X134700000Y60270000D03*
%TD*%
D10*
%TO.C,R33*%
X41500000Y28350000D03*
X41500000Y31650000D03*
%TD*%
D14*
%TO.C,R23*%
X108650000Y50000000D03*
X105350000Y50000000D03*
%TD*%
%TO.C,R21*%
X79650000Y50000000D03*
X76350000Y50000000D03*
%TD*%
D10*
%TO.C,C15*%
X51000000Y87350000D03*
X51000000Y90650000D03*
%TD*%
%TO.C,R30*%
X125500000Y28350000D03*
X125500000Y31650000D03*
%TD*%
D14*
%TO.C,R15*%
X116650000Y56000000D03*
X113350000Y56000000D03*
%TD*%
D10*
%TO.C,R31*%
X21000000Y35650000D03*
X21000000Y38950000D03*
%TD*%
%TO.C,R38*%
X116500000Y28350000D03*
X116500000Y31650000D03*
%TD*%
D19*
%TO.C,R6*%
X139150000Y57800000D03*
X142450000Y57800000D03*
%TD*%
D14*
%TO.C,R22*%
X93650000Y50000000D03*
X90350000Y50000000D03*
%TD*%
D23*
%TO.C,R16*%
X109000000Y57150000D03*
X109000000Y53850000D03*
%TD*%
D10*
%TO.C,R34*%
X56500000Y28350000D03*
X56500000Y31650000D03*
%TD*%
D28*
%TO.C,U1*%
X45000000Y77662500D03*
X44200000Y77662500D03*
X43400000Y77662500D03*
X42600000Y77662500D03*
X41800000Y77662500D03*
X41000000Y77662500D03*
X40200000Y77662500D03*
X39400000Y77662500D03*
X38600000Y77662500D03*
X37800000Y77662500D03*
X37000000Y77662500D03*
D29*
X35337500Y76000000D03*
X35337500Y75200000D03*
X35337500Y74400000D03*
X35337500Y73600000D03*
X35337500Y72800000D03*
X35337500Y72000000D03*
X35337500Y71200000D03*
X35337500Y70400000D03*
X35337500Y69600000D03*
X35337500Y68800000D03*
X35337500Y68000000D03*
D28*
X37000000Y66337500D03*
X37800000Y66337500D03*
X38600000Y66337500D03*
X39400000Y66337500D03*
X40200000Y66337500D03*
X41000000Y66337500D03*
X41800000Y66337500D03*
X42600000Y66337500D03*
X43400000Y66337500D03*
X44200000Y66337500D03*
X45000000Y66337500D03*
D29*
X46662500Y68000000D03*
X46662500Y68800000D03*
X46662500Y69600000D03*
X46662500Y70400000D03*
X46662500Y71200000D03*
X46662500Y72000000D03*
X46662500Y72800000D03*
X46662500Y73600000D03*
X46662500Y74400000D03*
X46662500Y75200000D03*
X46662500Y76000000D03*
%TD*%
D10*
%TO.C,R28*%
X95500000Y28350000D03*
X95500000Y31650000D03*
%TD*%
D14*
%TO.C,C4*%
X103250000Y71200000D03*
X99950000Y71200000D03*
%TD*%
D10*
%TO.C,R26*%
X65500000Y28350000D03*
X65500000Y31650000D03*
%TD*%
D14*
%TO.C,R19*%
X49650000Y50000000D03*
X46350000Y50000000D03*
%TD*%
D19*
%TO.C,R13*%
X113350000Y59000000D03*
X116650000Y59000000D03*
%TD*%
D30*
%TO.C,C14*%
X56200000Y92200000D03*
X56200000Y86800000D03*
%TD*%
D25*
%TO.C,R7*%
X110225000Y84900000D03*
X105775000Y84900000D03*
%TD*%
D31*
%TO.C,U3*%
X149400000Y61900000D03*
X149400000Y63200000D03*
X149400000Y64500000D03*
X149400000Y65800000D03*
X149400000Y67100000D03*
D32*
X143600000Y66500000D03*
X143600000Y64500000D03*
X143600000Y62500000D03*
%TD*%
D10*
%TO.C,R8*%
X152500000Y71850000D03*
X152500000Y75150000D03*
%TD*%
D19*
%TO.C,C7*%
X91350000Y72000000D03*
X94650000Y72000000D03*
%TD*%
D26*
%TO.C,U6*%
X64540000Y46540000D03*
X62000000Y46540000D03*
X59460000Y46540000D03*
X59460000Y37460000D03*
X62000000Y37460000D03*
X64540000Y37460000D03*
%TD*%
%TO.C,U8*%
X94540000Y46540000D03*
X92000000Y46540000D03*
X89460000Y46540000D03*
X89460000Y37460000D03*
X92000000Y37460000D03*
X94540000Y37460000D03*
%TD*%
D33*
%TO.C,D2*%
X145500000Y76500000D03*
X145500000Y72500000D03*
%TD*%
D34*
%TO.C,D6*%
X104390000Y89600000D03*
X104390000Y92400000D03*
D35*
X101110000Y89590000D03*
D36*
X101010000Y92410000D03*
D37*
X109510000Y88720000D03*
X109510000Y93280000D03*
%TD*%
D10*
%TO.C,R36*%
X86500000Y28350000D03*
X86500000Y31650000D03*
%TD*%
%TO.C,C28*%
X18000000Y22350000D03*
X18000000Y25650000D03*
%TD*%
D19*
%TO.C,C20*%
X41350000Y54000000D03*
X44650000Y54000000D03*
%TD*%
D10*
%TO.C,R35*%
X71500000Y28350000D03*
X71500000Y31650000D03*
%TD*%
%TO.C,R29*%
X110500000Y28350000D03*
X110500000Y31650000D03*
%TD*%
%TO.C,R40*%
X26000000Y22350000D03*
X26000000Y25650000D03*
%TD*%
D38*
%TO.C,VR1*%
X106137500Y61350000D03*
X106137500Y63250000D03*
X103862500Y62300000D03*
%TD*%
D10*
%TO.C,R27*%
X80500000Y28350000D03*
X80500000Y31650000D03*
%TD*%
D39*
%TO.C,D3*%
X138600000Y62000000D03*
X138600000Y66000000D03*
%TD*%
D14*
%TO.C,R24*%
X121650000Y50000000D03*
X118350000Y50000000D03*
%TD*%
D26*
%TO.C,U5*%
X49540000Y46540000D03*
X47000000Y46540000D03*
X44460000Y46540000D03*
X44460000Y37460000D03*
X47000000Y37460000D03*
X49540000Y37460000D03*
%TD*%
D13*
%TO.C,U12*%
X26730000Y29300000D03*
X29270000Y29300000D03*
X29270000Y38700000D03*
X26730000Y38700000D03*
%TD*%
D19*
%TO.C,R12*%
X105350000Y66500000D03*
X108650000Y66500000D03*
%TD*%
D34*
%TO.C,D4*%
X104390000Y76900000D03*
X104390000Y79700000D03*
D35*
X101110000Y76890000D03*
D36*
X101010000Y79710000D03*
D37*
X109510000Y76020000D03*
X109510000Y80580000D03*
%TD*%
D23*
%TO.C,C23*%
X105500000Y57150000D03*
X105500000Y53850000D03*
%TD*%
D26*
%TO.C,U9*%
X109540000Y46540000D03*
X107000000Y46540000D03*
X104460000Y46540000D03*
X104460000Y37460000D03*
X107000000Y37460000D03*
X109540000Y37460000D03*
%TD*%
D10*
%TO.C,C24*%
X102000000Y53850000D03*
X102000000Y57150000D03*
%TD*%
D26*
%TO.C,U10*%
X124540000Y46540000D03*
X122000000Y46540000D03*
X119460000Y46540000D03*
X119460000Y37460000D03*
X122000000Y37460000D03*
X124540000Y37460000D03*
%TD*%
M02*
