%TF.GenerationSoftware,KiCad,Pcbnew,10.0.1*%
%TF.CreationDate,2026-09-08T10:13:43+09:00*%
%TF.ProjectId,SMD_POWER_BD_SV5,534d445f-504f-4574-9552-5f42445f5356,rev?*%
%TF.SameCoordinates,Original*%
%TF.FileFunction,Soldermask,Bot*%
%TF.FilePolarity,Negative*%
%FSLAX46Y46*%
G04 Gerber Fmt 4.6, Leading zero omitted, Abs format (unit mm)*
G04 Created by KiCad (PCBNEW 10.0.1) date 2026-09-08 10:13:43*
%MOMM*%
%LPD*%
G01*
G04 APERTURE LIST*
G04 Aperture macros list*
%AMRoundRect*
0 Rectangle with rounded corners*
0 $1 Rounding radius*
0 $2 $3 $4 $5 $6 $7 $8 $9 X,Y pos of 4 corners*
0 Add a 4 corners polygon primitive as box body*
4,1,4,$2,$3,$4,$5,$6,$7,$8,$9,$2,$3,0*
0 Add four circle primitives for the rounded corners*
1,1,$1+$1,$2,$3*
1,1,$1+$1,$4,$5*
1,1,$1+$1,$6,$7*
1,1,$1+$1,$8,$9*
0 Add four rect primitives between the rounded corners*
20,1,$1+$1,$2,$3,$4,$5,0*
20,1,$1+$1,$4,$5,$6,$7,0*
20,1,$1+$1,$6,$7,$8,$9,0*
20,1,$1+$1,$8,$9,$2,$3,0*%
G04 Aperture macros list end*
%ADD10C,1.800000*%
%ADD11C,2.600000*%
%ADD12C,2.200000*%
%ADD13RoundRect,0.250000X0.750000X-0.800000X0.750000X0.800000X-0.750000X0.800000X-0.750000X-0.800000X0*%
%ADD14O,2.000000X2.100000*%
%ADD15C,2.100000*%
%ADD16RoundRect,0.262500X-0.787500X0.787500X-0.787500X-0.787500X0.787500X-0.787500X0.787500X0.787500X0*%
%ADD17RoundRect,0.500000X-0.900000X0.900000X-0.900000X-0.900000X0.900000X-0.900000X0.900000X0.900000X0*%
%ADD18C,2.800000*%
%ADD19C,1.700000*%
%ADD20C,3.500000*%
%ADD21RoundRect,0.366667X0.733333X-0.733333X0.733333X0.733333X-0.733333X0.733333X-0.733333X-0.733333X0*%
%ADD22C,1.600000*%
%ADD23RoundRect,0.800000X-0.950000X-0.950000X0.950000X-0.950000X0.950000X0.950000X-0.950000X0.950000X0*%
%ADD24RoundRect,0.279412X0.670588X0.670588X-0.670588X0.670588X-0.670588X-0.670588X0.670588X-0.670588X0*%
%ADD25C,1.900000*%
%ADD26RoundRect,0.279412X0.670588X-0.670588X0.670588X0.670588X-0.670588X0.670588X-0.670588X-0.670588X0*%
%ADD27RoundRect,0.250000X-0.800000X-0.800000X0.800000X-0.800000X0.800000X0.800000X-0.800000X0.800000X0*%
%ADD28RoundRect,0.291667X-0.758333X-0.758333X0.758333X-0.758333X0.758333X0.758333X-0.758333X0.758333X0*%
%ADD29C,7.500000*%
%ADD30C,2.300000*%
%ADD31C,1.800000*%
G04 APERTURE END LIST*
D10*
X47000000Y30000000D02*
X141500000Y30000000D01*
D11*
X53000000Y5000000D02*
X144000000Y5000000D01*
X53000000Y5000000D01*
D12*
%TO.C,C19*%
X134500000Y36000000D03*
X134500000Y21000000D03*
%TD*%
D13*
%TO.C,Q5*%
X107000000Y27460000D03*
D14*
X107000000Y30000000D03*
X107000000Y32540000D03*
%TD*%
D15*
%TO.C,RV6*%
X104500000Y21500000D03*
X109500000Y21500000D03*
%TD*%
%TO.C,RV7*%
X119500000Y21500000D03*
X124500000Y21500000D03*
%TD*%
D16*
%TO.C,C5*%
X84000000Y79500000D03*
D15*
X84000000Y74500000D03*
%TD*%
D17*
%TO.C,D1*%
X165100000Y83250000D03*
D18*
X165100000Y75750000D03*
X165100000Y68250000D03*
X165100000Y60750000D03*
%TD*%
D19*
%TO.C,C26*%
X149840000Y22350000D03*
X157160000Y20250000D03*
%TD*%
D15*
%TO.C,RV3*%
X59500000Y21500000D03*
X64500000Y21500000D03*
%TD*%
%TO.C,RV4*%
X74500000Y21500000D03*
X79500000Y21500000D03*
%TD*%
D20*
%TO.C,H5*%
X5000000Y90000000D03*
%TD*%
D21*
%TO.C,T1*%
X132950000Y66200000D03*
D12*
X132950000Y71200000D03*
X132950000Y76200000D03*
X132950000Y81200000D03*
X132950000Y86200000D03*
X132950000Y91200000D03*
X115450000Y91200000D03*
X115450000Y86200000D03*
X115450000Y81200000D03*
X115450000Y76200000D03*
X115450000Y71200000D03*
X115450000Y66200000D03*
%TD*%
D22*
%TO.C,FB1*%
X7000000Y28920000D03*
X7000000Y39080000D03*
%TD*%
D13*
%TO.C,Q3*%
X77000000Y27460000D03*
D14*
X77000000Y30000000D03*
X77000000Y32540000D03*
%TD*%
D15*
%TO.C,RV5*%
X89500000Y21500000D03*
X94500000Y21500000D03*
%TD*%
D23*
%TO.C,J4*%
X17070000Y10600000D03*
D20*
X24690000Y10600000D03*
X32310000Y10600000D03*
X39930000Y10600000D03*
%TD*%
D24*
%TO.C,J1*%
X13270000Y54380000D03*
D25*
X10730000Y54380000D03*
X13270000Y56920000D03*
X10730000Y56920000D03*
X13270000Y59460000D03*
X10730000Y59460000D03*
X13270000Y62000000D03*
X10730000Y62000000D03*
X13270000Y64540000D03*
X10730000Y64540000D03*
X13270000Y67080000D03*
X10730000Y67080000D03*
X13270000Y69620000D03*
X10730000Y69620000D03*
%TD*%
D13*
%TO.C,Q1*%
X47000000Y27460000D03*
D14*
X47000000Y30000000D03*
X47000000Y32540000D03*
%TD*%
D16*
%TO.C,C6*%
X73000000Y79500000D03*
D15*
X73000000Y74500000D03*
%TD*%
D23*
%TO.C,J3*%
X145990000Y10600000D03*
D20*
X153610000Y10600000D03*
%TD*%
%TO.C,H4*%
X5000000Y5000000D03*
%TD*%
D26*
%TO.C,J2*%
X14920000Y88230000D03*
D25*
X14920000Y90770000D03*
X17460000Y88230000D03*
X17460000Y90770000D03*
X20000000Y88230000D03*
X20000000Y90770000D03*
X22540000Y88230000D03*
X22540000Y90770000D03*
X25080000Y88230000D03*
X25080000Y90770000D03*
%TD*%
D13*
%TO.C,Q6*%
X122000000Y27460000D03*
D14*
X122000000Y30000000D03*
X122000000Y32540000D03*
%TD*%
D27*
%TO.C,C1*%
X149450000Y86000000D03*
D15*
X156950000Y86000000D03*
%TD*%
D13*
%TO.C,Q2*%
X62000000Y27460000D03*
D14*
X62000000Y30000000D03*
X62000000Y32540000D03*
%TD*%
D20*
%TO.C,H6*%
X165000000Y90000000D03*
%TD*%
D13*
%TO.C,Q4*%
X92000000Y27460000D03*
D14*
X92000000Y30000000D03*
X92000000Y32540000D03*
%TD*%
D28*
%TO.C,LF1*%
X154000000Y43500000D03*
D15*
X167000000Y43500000D03*
X167000000Y53500000D03*
X154000000Y53500000D03*
%TD*%
D29*
%TO.C,H2*%
X165000000Y5000000D03*
%TD*%
D19*
%TO.C,C25*%
X139840000Y22350000D03*
X147160000Y20250000D03*
%TD*%
D30*
%TO.C,R1*%
X140300000Y70840000D03*
X140300000Y91160000D03*
%TD*%
%TO.C,RV1*%
X152310000Y26050000D03*
X144690000Y27550000D03*
%TD*%
D22*
%TO.C,F1*%
X164500000Y19040000D03*
X164500000Y13960000D03*
%TD*%
D31*
%TO.C,R9*%
X166000000Y22900000D03*
X166000000Y37500000D03*
%TD*%
D16*
%TO.C,C17*%
X73000000Y91500000D03*
D15*
X73000000Y86500000D03*
%TD*%
%TO.C,RV2*%
X44500000Y21500000D03*
X49500000Y21500000D03*
%TD*%
D23*
%TO.C,J5*%
X51090000Y10600000D03*
D20*
X58710000Y10600000D03*
X66330000Y10600000D03*
X73950000Y10600000D03*
X81570000Y10600000D03*
X89190000Y10600000D03*
X96810000Y10600000D03*
X104430000Y10600000D03*
X112050000Y10600000D03*
X119670000Y10600000D03*
X127290000Y10600000D03*
X134910000Y10600000D03*
%TD*%
D12*
%TO.C,C10*%
X156500000Y35000000D03*
X140500000Y35000000D03*
%TD*%
D16*
%TO.C,C16*%
X84000000Y91500000D03*
D15*
X84000000Y86500000D03*
%TD*%
D19*
%TO.C,C13*%
X133660000Y52950000D03*
X126340000Y55050000D03*
%TD*%
M02*
