%TF.GenerationSoftware,KiCad,Pcbnew,9.0.7*%
%TF.CreationDate,2026-02-04T14:48:23+09:00*%
%TF.ProjectId,POWER_BD_NV2,504f5745-525f-4424-945f-4e56322e6b69,rev?*%
%TF.SameCoordinates,Original*%
%TF.FileFunction,Soldermask,Bot*%
%TF.FilePolarity,Negative*%
%FSLAX46Y46*%
G04 Gerber Fmt 4.6, Leading zero omitted, Abs format (unit mm)*
G04 Created by KiCad (PCBNEW 9.0.7) date 2026-02-04 14:48:23*
%MOMM*%
%LPD*%
G01*
G04 APERTURE LIST*
G04 Aperture macros list*
%AMRoundRect*
0 Rectangle with rounded corners*
0 $1 Rounding radius*
0 $2 $3 $4 $5 $6 $7 $8 $9 X,Y pos of 4 corners*
0 Add a 4 corners polygon primitive as box body*
4,1,4,$2,$3,$4,$5,$6,$7,$8,$9,$2,$3,0*
0 Add four circle primitives for the rounded corners*
1,1,$1+$1,$2,$3*
1,1,$1+$1,$4,$5*
1,1,$1+$1,$6,$7*
1,1,$1+$1,$8,$9*
0 Add four rect primitives between the rounded corners*
20,1,$1+$1,$2,$3,$4,$5,0*
20,1,$1+$1,$4,$5,$6,$7,0*
20,1,$1+$1,$6,$7,$8,$9,0*
20,1,$1+$1,$8,$9,$2,$3,0*%
G04 Aperture macros list end*
%ADD10O,3.400000X4.300000*%
%ADD11RoundRect,0.250000X0.550000X-0.850000X0.550000X0.850000X-0.550000X0.850000X-0.550000X-0.850000X0*%
%ADD12O,1.600000X2.200000*%
%ADD13C,1.850000*%
%ADD14C,1.600000*%
%ADD15C,2.200000*%
%ADD16RoundRect,0.262500X-0.787500X0.787500X-0.787500X-0.787500X0.787500X-0.787500X0.787500X0.787500X0*%
%ADD17C,2.100000*%
%ADD18RoundRect,0.297872X0.962128X0.962128X-0.962128X0.962128X-0.962128X-0.962128X0.962128X-0.962128X0*%
%ADD19C,2.540000*%
%ADD20RoundRect,0.216000X-0.684000X0.684000X-0.684000X-0.684000X0.684000X-0.684000X0.684000X0.684000X0*%
%ADD21C,1.800000*%
%ADD22C,1.700000*%
%ADD23RoundRect,0.250000X-0.550000X0.550000X-0.550000X-0.550000X0.550000X-0.550000X0.550000X0.550000X0*%
%ADD24RoundRect,0.250000X-0.600000X-0.600000X0.600000X-0.600000X0.600000X0.600000X-0.600000X0.600000X0*%
%ADD25RoundRect,0.366667X0.733333X-0.733333X0.733333X0.733333X-0.733333X0.733333X-0.733333X-0.733333X0*%
%ADD26C,2.400000*%
%ADD27RoundRect,0.250000X-0.475000X0.475000X-0.475000X-0.475000X0.475000X-0.475000X0.475000X0.475000X0*%
%ADD28C,1.450000*%
%ADD29C,3.500000*%
%ADD30RoundRect,0.250000X-0.800000X0.800000X-0.800000X-0.800000X0.800000X-0.800000X0.800000X0.800000X0*%
%ADD31C,7.300000*%
%ADD32O,4.300000X3.400000*%
%ADD33RoundRect,0.250000X0.650000X-0.650000X0.650000X0.650000X-0.650000X0.650000X-0.650000X-0.650000X0*%
%ADD34C,2.300000*%
%ADD35C,1.950000*%
%ADD36RoundRect,0.243750X-0.731250X0.731250X-0.731250X-0.731250X0.731250X-0.731250X0.731250X0.731250X0*%
%ADD37RoundRect,0.260417X0.989583X0.989583X-0.989583X0.989583X-0.989583X-0.989583X0.989583X-0.989583X0*%
%ADD38C,2.500000*%
%ADD39O,2.500000X6.000000*%
%ADD40RoundRect,0.250000X-0.550000X0.850000X-0.550000X-0.850000X0.550000X-0.850000X0.550000X0.850000X0*%
%ADD41C,1.900000*%
%ADD42RoundRect,0.237500X0.712500X0.712500X-0.712500X0.712500X-0.712500X-0.712500X0.712500X-0.712500X0*%
%ADD43RoundRect,0.229167X-0.870833X0.870833X-0.870833X-0.870833X0.870833X-0.870833X0.870833X0.870833X0*%
%ADD44RoundRect,0.243750X0.731250X-0.731250X0.731250X0.731250X-0.731250X0.731250X-0.731250X-0.731250X0*%
%ADD45RoundRect,0.250000X-0.850000X-0.550000X0.850000X-0.550000X0.850000X0.550000X-0.850000X0.550000X0*%
%ADD46O,2.200000X1.600000*%
%ADD47RoundRect,0.250000X0.850000X0.550000X-0.850000X0.550000X-0.850000X-0.550000X0.850000X-0.550000X0*%
%ADD48RoundRect,0.237500X0.712500X-0.712500X0.712500X0.712500X-0.712500X0.712500X-0.712500X-0.712500X0*%
G04 APERTURE END LIST*
D10*
%TO.C,ACL2*%
X131500000Y93000000D03*
X126500000Y93000000D03*
%TD*%
%TO.C,ACN2*%
X145500000Y93000000D03*
X140500000Y93000000D03*
%TD*%
D11*
%TO.C,U3*%
X76330000Y31175000D03*
D12*
X78870000Y31175000D03*
X78870000Y38795000D03*
X76330000Y38795000D03*
%TD*%
D13*
%TO.C,C3*%
X102500000Y72500000D03*
X117500000Y72500000D03*
%TD*%
D14*
%TO.C,R2*%
X137920000Y25000000D03*
X148080000Y25000000D03*
%TD*%
D15*
%TO.C,L3*%
X49150000Y14400000D03*
X45650000Y14400000D03*
%TD*%
D14*
%TO.C,R23*%
X96020000Y6100000D03*
X106180000Y6100000D03*
%TD*%
%TO.C,C18*%
X53900000Y24100000D03*
X48900000Y24100000D03*
%TD*%
D15*
%TO.C,C33*%
X117100000Y80700000D03*
X101100000Y80700000D03*
%TD*%
%TO.C,U6*%
X25700000Y25260000D03*
X25700000Y27800000D03*
X25700000Y30340000D03*
%TD*%
D14*
%TO.C,C13*%
X82987500Y2900000D03*
X82987500Y7900000D03*
%TD*%
D16*
%TO.C,C21*%
X17100000Y56700000D03*
D17*
X17100000Y51700000D03*
%TD*%
D15*
%TO.C,D6*%
X18950000Y63700000D03*
X21500000Y63700000D03*
X24050000Y63700000D03*
%TD*%
D14*
%TO.C,C6*%
X48500000Y58300000D03*
X48500000Y53300000D03*
%TD*%
D18*
%TO.C,D1*%
X88830000Y74800000D03*
D19*
X81210000Y74800000D03*
X73590000Y74800000D03*
X65970000Y74800000D03*
%TD*%
D20*
%TO.C,J2*%
X3500000Y32250000D03*
D21*
X3500000Y29750000D03*
X3500000Y27250000D03*
X3500000Y24750000D03*
X3500000Y22250000D03*
X3500000Y19750000D03*
%TD*%
D14*
%TO.C,R20*%
X71580000Y17600000D03*
X61420000Y17600000D03*
%TD*%
%TO.C,C15*%
X70900000Y2825000D03*
X70900000Y7825000D03*
%TD*%
D22*
%TO.C,C2*%
X130285000Y77950000D03*
X122965000Y80050000D03*
%TD*%
D21*
%TO.C,R4*%
X64237500Y53400000D03*
X64237500Y68000000D03*
%TD*%
D23*
%TO.C,C10*%
X72700000Y46100000D03*
D14*
X72700000Y44100000D03*
%TD*%
%TO.C,R21*%
X96020000Y3000000D03*
X106180000Y3000000D03*
%TD*%
D22*
%TO.C,D4*%
X79390000Y46200000D03*
D24*
X87010000Y46200000D03*
%TD*%
D14*
%TO.C,C7*%
X65800000Y80400000D03*
X70800000Y80400000D03*
%TD*%
%TO.C,C16*%
X21400000Y80100000D03*
X26400000Y80100000D03*
%TD*%
D25*
%TO.C,T2*%
X51150000Y68600000D03*
D15*
X51150000Y73600000D03*
X51150000Y78600000D03*
X51150000Y83600000D03*
X51150000Y88600000D03*
X51150000Y93600000D03*
X33650000Y93600000D03*
X33650000Y88600000D03*
X33650000Y83600000D03*
X33650000Y78600000D03*
X33650000Y73600000D03*
X33650000Y68600000D03*
%TD*%
D26*
%TO.C,C31*%
X129700000Y26900000D03*
X129700000Y48100000D03*
%TD*%
D14*
%TO.C,R10*%
X78420000Y11600000D03*
X88580000Y11600000D03*
%TD*%
%TO.C,R11*%
X78420000Y17600000D03*
X88580000Y17600000D03*
%TD*%
D21*
%TO.C,R25*%
X146000000Y18300000D03*
X146000000Y3700000D03*
%TD*%
D15*
%TO.C,C32*%
X118000000Y62000000D03*
X134000000Y62000000D03*
%TD*%
%TO.C,L2*%
X36800000Y44550000D03*
X36800000Y41050000D03*
%TD*%
%TO.C,L1*%
X3350000Y77500000D03*
X6850000Y77500000D03*
%TD*%
D14*
%TO.C,C9*%
X62200000Y33500000D03*
X67200000Y33500000D03*
%TD*%
D21*
%TO.C,R3*%
X70200000Y53400000D03*
X70200000Y68000000D03*
%TD*%
D14*
%TO.C,R15*%
X30020000Y57000000D03*
X40180000Y57000000D03*
%TD*%
%TO.C,C28*%
X23400000Y12600000D03*
X23400000Y17600000D03*
%TD*%
D16*
%TO.C,C24*%
X17100000Y44800000D03*
D17*
X17100000Y39800000D03*
%TD*%
D14*
%TO.C,R19*%
X61420000Y20600000D03*
X71580000Y20600000D03*
%TD*%
D27*
%TO.C,VR1*%
X54875000Y17100000D03*
D28*
X54875000Y14600000D03*
X54875000Y12100000D03*
%TD*%
D29*
%TO.C,H4*%
X136000000Y5000000D03*
%TD*%
D14*
%TO.C,C30*%
X17900000Y12600000D03*
X17900000Y17600000D03*
%TD*%
D30*
%TO.C,C4*%
X83500000Y64750000D03*
D17*
X83500000Y57250000D03*
%TD*%
D14*
%TO.C,R12*%
X88580000Y20600000D03*
X78420000Y20600000D03*
%TD*%
%TO.C,C26*%
X25750000Y75100000D03*
X25750000Y70100000D03*
%TD*%
%TO.C,R7*%
X64000000Y49080000D03*
X64000000Y38920000D03*
%TD*%
%TO.C,R17*%
X71580000Y14600000D03*
X61420000Y14600000D03*
%TD*%
D15*
%TO.C,D5*%
X24300000Y92450000D03*
X24300000Y89900000D03*
X24300000Y87350000D03*
%TD*%
D14*
%TO.C,R22*%
X52380000Y4500000D03*
X42220000Y4500000D03*
%TD*%
D10*
%TO.C,FG1*%
X124300000Y71100000D03*
X129300000Y71100000D03*
%TD*%
D15*
%TO.C,D7*%
X33075000Y34100000D03*
X35625000Y34100000D03*
X38175000Y34100000D03*
%TD*%
D14*
%TO.C,C17*%
X40125000Y52500000D03*
X35125000Y52500000D03*
%TD*%
D31*
%TO.C,H2*%
X16000000Y75000000D03*
%TD*%
D32*
%TO.C,ACN1*%
X101000000Y89500000D03*
X101000000Y94500000D03*
%TD*%
D14*
%TO.C,R13*%
X88580000Y23600000D03*
X78420000Y23600000D03*
%TD*%
D23*
%TO.C,C29*%
X17100000Y29250000D03*
D14*
X17100000Y26750000D03*
%TD*%
%TO.C,R6*%
X128000000Y10920000D03*
X128000000Y21080000D03*
%TD*%
D31*
%TO.C,H3*%
X16000000Y5000000D03*
%TD*%
D14*
%TO.C,R16*%
X54080000Y29000000D03*
X43920000Y29000000D03*
%TD*%
D33*
%TO.C,LF1*%
X86900000Y81200000D03*
D21*
X86900000Y94200000D03*
X76900000Y94200000D03*
X76900000Y81200000D03*
%TD*%
D31*
%TO.C,H1*%
X136000000Y75000000D03*
%TD*%
D14*
%TO.C,R8*%
X67000000Y38920000D03*
X67000000Y49080000D03*
%TD*%
%TO.C,C27*%
X27700000Y40000000D03*
X27700000Y45000000D03*
%TD*%
D34*
%TO.C,RV1*%
X108750000Y63510000D03*
X107250000Y55890000D03*
%TD*%
D35*
%TO.C,D2*%
X66400000Y95480000D03*
D36*
X66400000Y85320000D03*
%TD*%
D22*
%TO.C,C1*%
X122955000Y84750000D03*
X130275000Y82650000D03*
%TD*%
D37*
%TO.C,T1*%
X111200000Y49000000D03*
D38*
X101200000Y49000000D03*
D26*
X101200000Y27000000D03*
D38*
X111200000Y27000000D03*
D39*
X91900000Y38000000D03*
X120500000Y38000000D03*
%TD*%
D14*
%TO.C,C8*%
X123400000Y15975000D03*
X123400000Y10975000D03*
%TD*%
D34*
%TO.C,R5*%
X60100000Y75040000D03*
X60100000Y95360000D03*
%TD*%
D32*
%TO.C,ACL1*%
X113000000Y89500000D03*
X113000000Y94500000D03*
%TD*%
D10*
%TO.C,A1*%
X142500000Y54000000D03*
X147500000Y54000000D03*
%TD*%
D40*
%TO.C,U2*%
X138540000Y20010000D03*
D12*
X136000000Y20010000D03*
X133460000Y20010000D03*
X133460000Y12390000D03*
X136000000Y12390000D03*
X138540000Y12390000D03*
%TD*%
D14*
%TO.C,R9*%
X78420000Y14600000D03*
X88580000Y14600000D03*
%TD*%
D10*
%TO.C,G1*%
X142500000Y44000000D03*
X147500000Y44000000D03*
%TD*%
D21*
%TO.C,R24*%
X116400000Y2900000D03*
X131000000Y2900000D03*
%TD*%
D10*
%TO.C,A2*%
X142500000Y64000000D03*
X147500000Y64000000D03*
%TD*%
D14*
%TO.C,F2*%
X101140000Y59200000D03*
X96060000Y59200000D03*
%TD*%
%TO.C,R14*%
X18200000Y94455000D03*
X18200000Y84295000D03*
%TD*%
D16*
%TO.C,C23*%
X6600000Y68000000D03*
D17*
X6600000Y63000000D03*
%TD*%
D41*
%TO.C,LED2*%
X58770000Y5200000D03*
D42*
X56230000Y5200000D03*
%TD*%
D43*
%TO.C,C20*%
X7800000Y92800000D03*
D15*
X7800000Y87800000D03*
%TD*%
D21*
%TO.C,R1*%
X95000000Y68700000D03*
X95000000Y83300000D03*
%TD*%
D35*
%TO.C,D3*%
X58725000Y53570000D03*
D44*
X58725000Y63730000D03*
%TD*%
D16*
%TO.C,C25*%
X35800000Y11500000D03*
D17*
X35800000Y6500000D03*
%TD*%
D45*
%TO.C,U4*%
X95990000Y19210000D03*
D46*
X95990000Y16670000D03*
X95990000Y14130000D03*
X95990000Y11590000D03*
X103610000Y11590000D03*
X103610000Y14130000D03*
X103610000Y16670000D03*
X103610000Y19210000D03*
%TD*%
D47*
%TO.C,U5*%
X117910000Y11960000D03*
D46*
X117910000Y14500000D03*
X117910000Y17040000D03*
X110290000Y17040000D03*
X110290000Y14500000D03*
X110290000Y11960000D03*
%TD*%
D14*
%TO.C,C11*%
X77800000Y2900000D03*
X77800000Y7900000D03*
%TD*%
%TO.C,C5*%
X53000000Y58300000D03*
X53000000Y53300000D03*
%TD*%
D20*
%TO.C,J3*%
X3500000Y45250000D03*
D21*
X3500000Y42750000D03*
%TD*%
D14*
%TO.C,R18*%
X71580000Y23600000D03*
X61420000Y23600000D03*
%TD*%
D40*
%TO.C,U1*%
X55710000Y46310000D03*
D12*
X53170000Y46310000D03*
X50630000Y46310000D03*
X48090000Y46310000D03*
X48090000Y38690000D03*
X50630000Y38690000D03*
X53170000Y38690000D03*
X55710000Y38690000D03*
%TD*%
D14*
%TO.C,C12*%
X88300000Y2825000D03*
X88300000Y7825000D03*
%TD*%
%TO.C,R26*%
X137920000Y32000000D03*
X148080000Y32000000D03*
%TD*%
D16*
%TO.C,C22*%
X35800000Y26000000D03*
D17*
X35800000Y21000000D03*
%TD*%
D14*
%TO.C,C19*%
X65400000Y2825000D03*
X65400000Y7825000D03*
%TD*%
D22*
%TO.C,C14*%
X85750000Y38660000D03*
X83650000Y31340000D03*
%TD*%
D41*
%TO.C,LED1*%
X111600000Y2030000D03*
D48*
X111600000Y4570000D03*
%TD*%
M02*
