%TF.GenerationSoftware,KiCad,Pcbnew,10.0.1*%
%TF.CreationDate,2026-08-10T23:15:50+09:00*%
%TF.ProjectId,POWER_BD_SV7,504f5745-525f-4424-945f-5356372e6b69,rev?*%
%TF.SameCoordinates,Original*%
%TF.FileFunction,Soldermask,Top*%
%TF.FilePolarity,Negative*%
%FSLAX46Y46*%
G04 Gerber Fmt 4.6, Leading zero omitted, Abs format (unit mm)*
G04 Created by KiCad (PCBNEW 10.0.1) date 2026-08-10 23:15:50*
%MOMM*%
%LPD*%
G01*
G04 APERTURE LIST*
G04 Aperture macros list*
%AMRoundRect*
0 Rectangle with rounded corners*
0 $1 Rounding radius*
0 $2 $3 $4 $5 $6 $7 $8 $9 X,Y pos of 4 corners*
0 Add a 4 corners polygon primitive as box body*
4,1,4,$2,$3,$4,$5,$6,$7,$8,$9,$2,$3,0*
0 Add four circle primitives for the rounded corners*
1,1,$1+$1,$2,$3*
1,1,$1+$1,$4,$5*
1,1,$1+$1,$6,$7*
1,1,$1+$1,$8,$9*
0 Add four rect primitives between the rounded corners*
20,1,$1+$1,$2,$3,$4,$5,0*
20,1,$1+$1,$4,$5,$6,$7,0*
20,1,$1+$1,$6,$7,$8,$9,0*
20,1,$1+$1,$8,$9,$2,$3,0*%
G04 Aperture macros list end*
%ADD10RoundRect,0.250000X-0.650005X-0.461200X0.650005X-0.461200X0.650005X0.461200X-0.650005X0.461200X0*%
%ADD11RoundRect,0.250000X0.650005X0.461200X-0.650005X0.461200X-0.650005X-0.461200X0.650005X-0.461200X0*%
%ADD12RoundRect,0.250000X1.150000X0.350000X-1.150000X0.350000X-1.150000X-0.350000X1.150000X-0.350000X0*%
%ADD13RoundRect,0.249997X3.150003X2.650003X-3.150003X2.650003X-3.150003X-2.650003X3.150003X-2.650003X0*%
%ADD14RoundRect,0.250000X0.350000X-1.150000X0.350000X1.150000X-0.350000X1.150000X-0.350000X-1.150000X0*%
%ADD15RoundRect,0.249997X2.650003X-3.150003X2.650003X3.150003X-2.650003X3.150003X-2.650003X-3.150003X0*%
%ADD16RoundRect,0.250000X-0.350000X1.150000X-0.350000X-1.150000X0.350000X-1.150000X0.350000X1.150000X0*%
%ADD17RoundRect,0.249997X-2.650003X3.150003X-2.650003X-3.150003X2.650003X-3.150003X2.650003X3.150003X0*%
%ADD18RoundRect,0.350000X0.350000X-0.650000X0.350000X0.650000X-0.350000X0.650000X-0.350000X-0.650000X0*%
%ADD19C,2.200000*%
%ADD20RoundRect,0.138095X-0.441905X-0.561905X0.441905X-0.561905X0.441905X0.561905X-0.441905X0.561905X0*%
%ADD21RoundRect,0.250000X0.850000X1.400000X-0.850000X1.400000X-0.850000X-1.400000X0.850000X-1.400000X0*%
%ADD22RoundRect,0.150000X-0.530000X-0.750000X0.530000X-0.750000X0.530000X0.750000X-0.530000X0.750000X0*%
%ADD23RoundRect,0.150000X0.530000X0.750000X-0.530000X0.750000X-0.530000X-0.750000X0.530000X-0.750000X0*%
%ADD24RoundRect,0.150000X-0.750000X0.530000X-0.750000X-0.530000X0.750000X-0.530000X0.750000X0.530000X0*%
%ADD25RoundRect,0.262500X-0.787500X0.787500X-0.787500X-0.787500X0.787500X-0.787500X0.787500X0.787500X0*%
%ADD26C,2.100000*%
%ADD27RoundRect,0.150000X0.750000X-0.530000X0.750000X0.530000X-0.750000X0.530000X-0.750000X-0.530000X0*%
%ADD28RoundRect,0.500000X0.900000X0.900000X-0.900000X0.900000X-0.900000X-0.900000X0.900000X-0.900000X0*%
%ADD29C,2.800000*%
%ADD30RoundRect,0.216000X-0.684000X0.684000X-0.684000X-0.684000X0.684000X-0.684000X0.684000X0.684000X0*%
%ADD31C,1.800000*%
%ADD32C,1.700000*%
%ADD33RoundRect,0.249999X-0.450001X-1.425001X0.450001X-1.425001X0.450001X1.425001X-0.450001X1.425001X0*%
%ADD34RoundRect,0.250000X-1.500000X-0.550000X1.500000X-0.550000X1.500000X0.550000X-1.500000X0.550000X0*%
%ADD35O,3.400000X4.300000*%
%ADD36RoundRect,0.250000X-0.350000X0.250000X-0.350000X-0.250000X0.350000X-0.250000X0.350000X0.250000X0*%
%ADD37RoundRect,0.366667X0.733333X-0.733333X0.733333X0.733333X-0.733333X0.733333X-0.733333X-0.733333X0*%
%ADD38RoundRect,0.286416X-0.413584X-0.413584X0.413584X-0.413584X0.413584X0.413584X-0.413584X0.413584X0*%
%ADD39C,1.400000*%
%ADD40RoundRect,0.249999X-1.425001X0.450001X-1.425001X-0.450001X1.425001X-0.450001X1.425001X0.450001X0*%
%ADD41RoundRect,0.250000X-1.400000X0.850000X-1.400000X-0.850000X1.400000X-0.850000X1.400000X0.850000X0*%
%ADD42RoundRect,0.250000X-0.400000X-1.450000X0.400000X-1.450000X0.400000X1.450000X-0.400000X1.450000X0*%
%ADD43C,3.500000*%
%ADD44RoundRect,0.250000X-0.800000X0.800000X-0.800000X-0.800000X0.800000X-0.800000X0.800000X0.800000X0*%
%ADD45RoundRect,0.162500X-0.162500X0.637500X-0.162500X-0.637500X0.162500X-0.637500X0.162500X0.637500X0*%
%ADD46C,2.300000*%
%ADD47C,7.500000*%
%ADD48O,4.300000X3.400000*%
%ADD49RoundRect,0.250000X-0.550000X1.500000X-0.550000X-1.500000X0.550000X-1.500000X0.550000X1.500000X0*%
%ADD50RoundRect,0.250000X-1.450000X0.400000X-1.450000X-0.400000X1.450000X-0.400000X1.450000X0.400000X0*%
%ADD51RoundRect,0.291667X0.758333X-0.758333X0.758333X0.758333X-0.758333X0.758333X-0.758333X-0.758333X0*%
%ADD52RoundRect,0.090000X0.210000X-0.760000X0.210000X0.760000X-0.210000X0.760000X-0.210000X-0.760000X0*%
%ADD53RoundRect,0.255000X0.645000X-0.595000X0.645000X0.595000X-0.645000X0.595000X-0.645000X-0.595000X0*%
%ADD54RoundRect,0.250000X-0.650000X1.000000X-0.650000X-1.000000X0.650000X-1.000000X0.650000X1.000000X0*%
%ADD55RoundRect,0.150000X0.512500X0.150000X-0.512500X0.150000X-0.512500X-0.150000X0.512500X-0.150000X0*%
%ADD56C,1.600000*%
%ADD57RoundRect,0.250000X0.650000X-1.000000X0.650000X1.000000X-0.650000X1.000000X-0.650000X-1.000000X0*%
%ADD58C,2.400000*%
%ADD59RoundRect,0.250000X-0.850000X-0.550000X0.850000X-0.550000X0.850000X0.550000X-0.850000X0.550000X0*%
%ADD60O,2.200000X1.600000*%
%ADD61RoundRect,0.210000X0.915000X0.490000X-0.915000X0.490000X-0.915000X-0.490000X0.915000X-0.490000X0*%
G04 APERTURE END LIST*
D10*
%TO.C,D9*%
X110000000Y22310900D03*
D11*
X110000000Y25689100D03*
%TD*%
D12*
%TO.C,D7*%
X38510000Y32720000D03*
D13*
X31510000Y35000000D03*
D12*
X38510000Y37280000D03*
%TD*%
D14*
%TO.C,U6*%
X21720000Y23490000D03*
D15*
X24000000Y30490000D03*
D14*
X26280000Y23490000D03*
%TD*%
D16*
%TO.C,D6*%
X32280000Y59010000D03*
D17*
X30000000Y52010000D03*
D16*
X27720000Y59010000D03*
%TD*%
D18*
%TO.C,U3*%
X76730000Y30300000D03*
X79270000Y30300000D03*
X79270000Y39700000D03*
X76730000Y39700000D03*
%TD*%
D19*
%TO.C,C3*%
X102500000Y72500000D03*
X117500000Y72500000D03*
%TD*%
D20*
%TO.C,LED2*%
X8030000Y52000000D03*
X5970000Y52000000D03*
%TD*%
D21*
%TO.C,L3*%
X50950000Y13000000D03*
X45050000Y13000000D03*
%TD*%
D22*
%TO.C,R23*%
X105850000Y3500000D03*
X109150000Y3500000D03*
%TD*%
D23*
%TO.C,C18*%
X47150000Y20500000D03*
X43850000Y20500000D03*
%TD*%
D19*
%TO.C,C33*%
X117100000Y80700000D03*
X101100000Y80700000D03*
%TD*%
D22*
%TO.C,C13*%
X61850000Y12000000D03*
X65150000Y12000000D03*
%TD*%
D24*
%TO.C,R32*%
X56500000Y61150000D03*
X56500000Y57850000D03*
%TD*%
D25*
%TO.C,C21*%
X17100000Y56700000D03*
D26*
X17100000Y51700000D03*
%TD*%
D27*
%TO.C,C6*%
X70500000Y45350000D03*
X70500000Y48650000D03*
%TD*%
D28*
%TO.C,D1*%
X88650000Y74800000D03*
D29*
X81150000Y74800000D03*
X73650000Y74800000D03*
X66150000Y74800000D03*
%TD*%
D30*
%TO.C,J2*%
X3500000Y32250000D03*
D31*
X3500000Y29750000D03*
X3500000Y27250000D03*
X3500000Y24750000D03*
X3500000Y22250000D03*
X3500000Y19750000D03*
%TD*%
D22*
%TO.C,R20*%
X53850000Y18000000D03*
X57150000Y18000000D03*
%TD*%
%TO.C,C15*%
X61850000Y24000000D03*
X65150000Y24000000D03*
%TD*%
D32*
%TO.C,C2*%
X130285000Y77950000D03*
X122965000Y80050000D03*
%TD*%
D33*
%TO.C,R4*%
X59950000Y46700000D03*
X66050000Y46700000D03*
%TD*%
D34*
%TO.C,C10*%
X50200000Y45000000D03*
X55800000Y45000000D03*
%TD*%
D35*
%TO.C,ACL2*%
X126500000Y93000000D03*
X131500000Y93000000D03*
%TD*%
D23*
%TO.C,R21*%
X99650000Y3500000D03*
X96350000Y3500000D03*
%TD*%
D36*
%TO.C,D4*%
X74500000Y50150000D03*
X74500000Y46850000D03*
%TD*%
D27*
%TO.C,C7*%
X65500000Y80550000D03*
X65500000Y83850000D03*
%TD*%
D37*
%TO.C,T2*%
X51150000Y68600000D03*
D19*
X51150000Y73600000D03*
X51150000Y78600000D03*
X51150000Y83600000D03*
X51150000Y88600000D03*
X51150000Y93600000D03*
X33650000Y93600000D03*
X33650000Y88600000D03*
X33650000Y83600000D03*
X33650000Y78600000D03*
X33650000Y73600000D03*
X33650000Y68600000D03*
%TD*%
D23*
%TO.C,R10*%
X77650000Y13000000D03*
X74350000Y13000000D03*
%TD*%
D38*
%TO.C,RV2*%
X79930000Y4285000D03*
D39*
X82470000Y6825000D03*
X85010000Y4285000D03*
%TD*%
D23*
%TO.C,R22*%
X8650000Y57000000D03*
X5350000Y57000000D03*
%TD*%
%TO.C,R11*%
X77650000Y19000000D03*
X74350000Y19000000D03*
%TD*%
D40*
%TO.C,R25*%
X143500000Y16050000D03*
X143500000Y9950000D03*
%TD*%
D19*
%TO.C,C32*%
X118000000Y62000000D03*
X134000000Y62000000D03*
%TD*%
D41*
%TO.C,L2*%
X39000000Y50450000D03*
X39000000Y44550000D03*
%TD*%
D27*
%TO.C,C9*%
X53000000Y51350000D03*
X53000000Y54650000D03*
%TD*%
D24*
%TO.C,R31*%
X56500000Y54650000D03*
X56500000Y51350000D03*
%TD*%
D33*
%TO.C,R3*%
X59950000Y42500000D03*
X66050000Y42500000D03*
%TD*%
D42*
%TO.C,R15*%
X36775000Y59500000D03*
X41225000Y59500000D03*
%TD*%
D24*
%TO.C,R30*%
X107000000Y25650000D03*
X107000000Y22350000D03*
%TD*%
D27*
%TO.C,C28*%
X19500000Y14850000D03*
X19500000Y18150000D03*
%TD*%
D25*
%TO.C,C24*%
X17100000Y44800000D03*
D26*
X17100000Y39800000D03*
%TD*%
D22*
%TO.C,R19*%
X61850000Y27000000D03*
X65150000Y27000000D03*
%TD*%
D43*
%TO.C,H2*%
X136000000Y5000000D03*
%TD*%
D20*
%TO.C,LED1*%
X92530000Y3500000D03*
X90470000Y3500000D03*
%TD*%
D27*
%TO.C,C30*%
X26500000Y14850000D03*
X26500000Y18150000D03*
%TD*%
D44*
%TO.C,C4*%
X81000000Y63750000D03*
D26*
X81000000Y56250000D03*
%TD*%
D45*
%TO.C,U2*%
X131270000Y16250000D03*
X128730000Y16250000D03*
X128730000Y9750000D03*
X131270000Y9750000D03*
%TD*%
D23*
%TO.C,R12*%
X77650000Y22000000D03*
X74350000Y22000000D03*
%TD*%
D24*
%TO.C,R7*%
X53000000Y61150000D03*
X53000000Y57850000D03*
%TD*%
D22*
%TO.C,R17*%
X61850000Y21000000D03*
X65150000Y21000000D03*
%TD*%
D46*
%TO.C,R29*%
X96840000Y36000000D03*
X117160000Y36000000D03*
%TD*%
D35*
%TO.C,FG1*%
X124300000Y71100000D03*
X129300000Y71100000D03*
%TD*%
D23*
%TO.C,C17*%
X40650000Y55000000D03*
X37350000Y55000000D03*
%TD*%
D47*
%TO.C,H3*%
X16000000Y75000000D03*
%TD*%
D48*
%TO.C,ACN1*%
X101000000Y89500000D03*
X101000000Y94500000D03*
%TD*%
D22*
%TO.C,R13*%
X74350000Y25000000D03*
X77650000Y25000000D03*
%TD*%
D49*
%TO.C,C29*%
X16000000Y30700000D03*
X16000000Y25300000D03*
%TD*%
D24*
%TO.C,R6*%
X104000000Y25650000D03*
X104000000Y22350000D03*
%TD*%
D47*
%TO.C,H4*%
X16000000Y5000000D03*
%TD*%
D50*
%TO.C,R16*%
X45000000Y29225000D03*
X45000000Y24775000D03*
%TD*%
D51*
%TO.C,LF1*%
X86900000Y81200000D03*
D26*
X86900000Y94200000D03*
X76900000Y94200000D03*
X76900000Y81200000D03*
%TD*%
D47*
%TO.C,H1*%
X136000000Y75000000D03*
%TD*%
D52*
%TO.C,U1*%
X60400000Y53100000D03*
X61700000Y53100000D03*
X63000000Y53100000D03*
X64300000Y53100000D03*
X65600000Y53100000D03*
D53*
X65000000Y58900000D03*
X63000000Y58900000D03*
X61000000Y58900000D03*
%TD*%
D24*
%TO.C,R8*%
X70500000Y55650000D03*
X70500000Y52350000D03*
%TD*%
D27*
%TO.C,C27*%
X26000000Y41550000D03*
X26000000Y44850000D03*
%TD*%
D46*
%TO.C,RV1*%
X108750000Y63510000D03*
X107250000Y55890000D03*
%TD*%
D54*
%TO.C,D2*%
X65500000Y91200000D03*
X65500000Y87200000D03*
%TD*%
D32*
%TO.C,C1*%
X122955000Y84750000D03*
X130275000Y82650000D03*
%TD*%
D23*
%TO.C,C8*%
X119650000Y19000000D03*
X116350000Y19000000D03*
%TD*%
D46*
%TO.C,R5*%
X59700000Y70840000D03*
X59700000Y91160000D03*
%TD*%
D48*
%TO.C,ACL1*%
X113000000Y89500000D03*
X113000000Y94500000D03*
%TD*%
D35*
%TO.C,A1*%
X142500000Y54000000D03*
X147500000Y54000000D03*
%TD*%
D23*
%TO.C,R9*%
X77650000Y16000000D03*
X74350000Y16000000D03*
%TD*%
D35*
%TO.C,G1*%
X142500000Y44000000D03*
X147500000Y44000000D03*
%TD*%
D55*
%TO.C,VR1*%
X54637500Y24050000D03*
X54637500Y25950000D03*
X52362500Y25000000D03*
%TD*%
D33*
%TO.C,R24*%
X120950000Y3500000D03*
X127050000Y3500000D03*
%TD*%
D35*
%TO.C,A2*%
X142500000Y64000000D03*
X147500000Y64000000D03*
%TD*%
D56*
%TO.C,F1*%
X101140000Y59200000D03*
X96060000Y59200000D03*
%TD*%
D31*
%TO.C,R1*%
X95000000Y68700000D03*
X95000000Y83300000D03*
%TD*%
D57*
%TO.C,D3*%
X49000000Y58500000D03*
X49000000Y62500000D03*
%TD*%
D58*
%TO.C,C31*%
X128900000Y27600000D03*
X128900000Y48800000D03*
X128900000Y33200000D03*
X128900000Y43200000D03*
%TD*%
D25*
%TO.C,C25*%
X35800000Y11500000D03*
D26*
X35800000Y6500000D03*
%TD*%
D59*
%TO.C,U4*%
X95990000Y16310000D03*
D60*
X95990000Y13770000D03*
X95990000Y11230000D03*
X95990000Y8690000D03*
X103610000Y8690000D03*
X103610000Y11230000D03*
X103610000Y13770000D03*
X103610000Y16310000D03*
%TD*%
D61*
%TO.C,U5*%
X120040000Y8960000D03*
X120040000Y11500000D03*
X120040000Y14040000D03*
X110960000Y14040000D03*
X110960000Y11500000D03*
X110960000Y8960000D03*
%TD*%
D22*
%TO.C,C11*%
X61850000Y15000000D03*
X65150000Y15000000D03*
%TD*%
D23*
%TO.C,R18*%
X65150000Y30000000D03*
X61850000Y30000000D03*
%TD*%
D27*
%TO.C,R27*%
X89500000Y6850000D03*
X89500000Y10150000D03*
%TD*%
D23*
%TO.C,C12*%
X87150000Y19000000D03*
X83850000Y19000000D03*
%TD*%
D56*
%TO.C,R26*%
X137920000Y32000000D03*
X148080000Y32000000D03*
%TD*%
D35*
%TO.C,ACN2*%
X140500000Y93000000D03*
X145500000Y93000000D03*
%TD*%
D46*
%TO.C,R28*%
X96840000Y44000000D03*
X117160000Y44000000D03*
%TD*%
D25*
%TO.C,C22*%
X35800000Y26000000D03*
D26*
X35800000Y21000000D03*
%TD*%
D23*
%TO.C,C19*%
X65150000Y18000000D03*
X61850000Y18000000D03*
%TD*%
D32*
%TO.C,C14*%
X85750000Y38660000D03*
X83650000Y31340000D03*
%TD*%
M02*
