%TF.GenerationSoftware,KiCad,Pcbnew,10.0.1*%
%TF.CreationDate,2026-08-10T23:15:50+09:00*%
%TF.ProjectId,POWER_BD_SV7,504f5745-525f-4424-945f-5356372e6b69,rev?*%
%TF.SameCoordinates,Original*%
%TF.FileFunction,Paste,Top*%
%TF.FilePolarity,Positive*%
%FSLAX46Y46*%
G04 Gerber Fmt 4.6, Leading zero omitted, Abs format (unit mm)*
G04 Created by KiCad (PCBNEW 10.0.1) date 2026-08-10 23:15:50*
%MOMM*%
%LPD*%
G01*
G04 APERTURE LIST*
G04 Aperture macros list*
%AMRoundRect*
0 Rectangle with rounded corners*
0 $1 Rounding radius*
0 $2 $3 $4 $5 $6 $7 $8 $9 X,Y pos of 4 corners*
0 Add a 4 corners polygon primitive as box body*
4,1,4,$2,$3,$4,$5,$6,$7,$8,$9,$2,$3,0*
0 Add four circle primitives for the rounded corners*
1,1,$1+$1,$2,$3*
1,1,$1+$1,$4,$5*
1,1,$1+$1,$6,$7*
1,1,$1+$1,$8,$9*
0 Add four rect primitives between the rounded corners*
20,1,$1+$1,$2,$3,$4,$5,0*
20,1,$1+$1,$4,$5,$6,$7,0*
20,1,$1+$1,$6,$7,$8,$9,0*
20,1,$1+$1,$8,$9,$2,$3,0*%
G04 Aperture macros list end*
%ADD10RoundRect,0.250000X-0.650005X-0.461200X0.650005X-0.461200X0.650005X0.461200X-0.650005X0.461200X0*%
%ADD11RoundRect,0.250000X0.650005X0.461200X-0.650005X0.461200X-0.650005X-0.461200X0.650005X-0.461200X0*%
%ADD12RoundRect,0.270000X1.255000X1.230000X-1.255000X1.230000X-1.255000X-1.230000X1.255000X-1.230000X0*%
%ADD13RoundRect,0.272727X1.727273X1.227273X-1.727273X1.227273X-1.727273X-1.227273X1.727273X-1.227273X0*%
%ADD14RoundRect,0.272727X1.627273X1.227273X-1.627273X1.227273X-1.627273X-1.227273X1.627273X-1.227273X0*%
%ADD15RoundRect,0.250000X1.150000X0.350000X-1.150000X0.350000X-1.150000X-0.350000X1.150000X-0.350000X0*%
%ADD16RoundRect,0.270000X1.230000X-1.255000X1.230000X1.255000X-1.230000X1.255000X-1.230000X-1.255000X0*%
%ADD17RoundRect,0.272727X1.227273X-1.727273X1.227273X1.727273X-1.227273X1.727273X-1.227273X-1.727273X0*%
%ADD18RoundRect,0.272727X1.227273X-1.627273X1.227273X1.627273X-1.227273X1.627273X-1.227273X-1.627273X0*%
%ADD19RoundRect,0.250000X0.350000X-1.150000X0.350000X1.150000X-0.350000X1.150000X-0.350000X-1.150000X0*%
%ADD20RoundRect,0.270000X-1.230000X1.255000X-1.230000X-1.255000X1.230000X-1.255000X1.230000X1.255000X0*%
%ADD21RoundRect,0.272727X-1.227273X1.727273X-1.227273X-1.727273X1.227273X-1.727273X1.227273X1.727273X0*%
%ADD22RoundRect,0.272727X-1.227273X1.627273X-1.227273X-1.627273X1.227273X-1.627273X1.227273X1.627273X0*%
%ADD23RoundRect,0.250000X-0.350000X1.150000X-0.350000X-1.150000X0.350000X-1.150000X0.350000X1.150000X0*%
%ADD24RoundRect,0.350000X0.350000X-0.650000X0.350000X0.650000X-0.350000X0.650000X-0.350000X-0.650000X0*%
%ADD25RoundRect,0.138095X-0.441905X-0.561905X0.441905X-0.561905X0.441905X0.561905X-0.441905X0.561905X0*%
%ADD26RoundRect,0.250000X0.850000X1.400000X-0.850000X1.400000X-0.850000X-1.400000X0.850000X-1.400000X0*%
%ADD27RoundRect,0.150000X-0.530000X-0.750000X0.530000X-0.750000X0.530000X0.750000X-0.530000X0.750000X0*%
%ADD28RoundRect,0.150000X0.530000X0.750000X-0.530000X0.750000X-0.530000X-0.750000X0.530000X-0.750000X0*%
%ADD29RoundRect,0.150000X-0.750000X0.530000X-0.750000X-0.530000X0.750000X-0.530000X0.750000X0.530000X0*%
%ADD30RoundRect,0.150000X0.750000X-0.530000X0.750000X0.530000X-0.750000X0.530000X-0.750000X-0.530000X0*%
%ADD31RoundRect,0.249999X-0.450001X-1.425001X0.450001X-1.425001X0.450001X1.425001X-0.450001X1.425001X0*%
%ADD32RoundRect,0.250000X-1.500000X-0.550000X1.500000X-0.550000X1.500000X0.550000X-1.500000X0.550000X0*%
%ADD33RoundRect,0.250000X-0.350000X0.250000X-0.350000X-0.250000X0.350000X-0.250000X0.350000X0.250000X0*%
%ADD34RoundRect,0.249999X-1.425001X0.450001X-1.425001X-0.450001X1.425001X-0.450001X1.425001X0.450001X0*%
%ADD35RoundRect,0.250000X-1.400000X0.850000X-1.400000X-0.850000X1.400000X-0.850000X1.400000X0.850000X0*%
%ADD36RoundRect,0.250000X-0.400000X-1.450000X0.400000X-1.450000X0.400000X1.450000X-0.400000X1.450000X0*%
%ADD37RoundRect,0.162500X-0.162500X0.637500X-0.162500X-0.637500X0.162500X-0.637500X0.162500X0.637500X0*%
%ADD38RoundRect,0.250000X-0.550000X1.500000X-0.550000X-1.500000X0.550000X-1.500000X0.550000X1.500000X0*%
%ADD39RoundRect,0.250000X-1.450000X0.400000X-1.450000X-0.400000X1.450000X-0.400000X1.450000X0.400000X0*%
%ADD40RoundRect,0.090000X0.210000X-0.760000X0.210000X0.760000X-0.210000X0.760000X-0.210000X-0.760000X0*%
%ADD41RoundRect,0.255000X0.645000X-0.595000X0.645000X0.595000X-0.645000X0.595000X-0.645000X-0.595000X0*%
%ADD42RoundRect,0.250000X-0.650000X1.000000X-0.650000X-1.000000X0.650000X-1.000000X0.650000X1.000000X0*%
%ADD43RoundRect,0.150000X0.512500X0.150000X-0.512500X0.150000X-0.512500X-0.150000X0.512500X-0.150000X0*%
%ADD44RoundRect,0.250000X0.650000X-1.000000X0.650000X1.000000X-0.650000X1.000000X-0.650000X-1.000000X0*%
%ADD45RoundRect,0.210000X0.915000X0.490000X-0.915000X0.490000X-0.915000X-0.490000X0.915000X-0.490000X0*%
G04 APERTURE END LIST*
D10*
%TO.C,D9*%
X110000000Y22310900D03*
D11*
X110000000Y25689100D03*
%TD*%
D12*
%TO.C,D7*%
X33390000Y33600000D03*
X33390000Y36400000D03*
D13*
X30110000Y33590000D03*
D14*
X30010000Y36410000D03*
D15*
X38510000Y32720000D03*
X38510000Y37280000D03*
%TD*%
D16*
%TO.C,U6*%
X22600000Y28610000D03*
X25400000Y28610000D03*
D17*
X22590000Y31890000D03*
D18*
X25410000Y31990000D03*
D19*
X21720000Y23490000D03*
X26280000Y23490000D03*
%TD*%
D20*
%TO.C,D6*%
X31400000Y53890000D03*
X28600000Y53890000D03*
D21*
X31410000Y50610000D03*
D22*
X28590000Y50510000D03*
D23*
X32280000Y59010000D03*
X27720000Y59010000D03*
%TD*%
D24*
%TO.C,U3*%
X76730000Y30300000D03*
X79270000Y30300000D03*
X79270000Y39700000D03*
X76730000Y39700000D03*
%TD*%
D25*
%TO.C,LED2*%
X8030000Y52000000D03*
X5970000Y52000000D03*
%TD*%
D26*
%TO.C,L3*%
X50950000Y13000000D03*
X45050000Y13000000D03*
%TD*%
D27*
%TO.C,R23*%
X105850000Y3500000D03*
X109150000Y3500000D03*
%TD*%
D28*
%TO.C,C18*%
X47150000Y20500000D03*
X43850000Y20500000D03*
%TD*%
D27*
%TO.C,C13*%
X61850000Y12000000D03*
X65150000Y12000000D03*
%TD*%
D29*
%TO.C,R32*%
X56500000Y61150000D03*
X56500000Y57850000D03*
%TD*%
D30*
%TO.C,C6*%
X70500000Y45350000D03*
X70500000Y48650000D03*
%TD*%
D27*
%TO.C,R20*%
X53850000Y18000000D03*
X57150000Y18000000D03*
%TD*%
%TO.C,C15*%
X61850000Y24000000D03*
X65150000Y24000000D03*
%TD*%
D31*
%TO.C,R4*%
X59950000Y46700000D03*
X66050000Y46700000D03*
%TD*%
D32*
%TO.C,C10*%
X50200000Y45000000D03*
X55800000Y45000000D03*
%TD*%
D28*
%TO.C,R21*%
X99650000Y3500000D03*
X96350000Y3500000D03*
%TD*%
D33*
%TO.C,D4*%
X74500000Y50150000D03*
X74500000Y46850000D03*
%TD*%
D30*
%TO.C,C7*%
X65500000Y80550000D03*
X65500000Y83850000D03*
%TD*%
D28*
%TO.C,R10*%
X77650000Y13000000D03*
X74350000Y13000000D03*
%TD*%
%TO.C,R22*%
X8650000Y57000000D03*
X5350000Y57000000D03*
%TD*%
%TO.C,R11*%
X77650000Y19000000D03*
X74350000Y19000000D03*
%TD*%
D34*
%TO.C,R25*%
X143500000Y16050000D03*
X143500000Y9950000D03*
%TD*%
D35*
%TO.C,L2*%
X39000000Y50450000D03*
X39000000Y44550000D03*
%TD*%
D30*
%TO.C,C9*%
X53000000Y51350000D03*
X53000000Y54650000D03*
%TD*%
D29*
%TO.C,R31*%
X56500000Y54650000D03*
X56500000Y51350000D03*
%TD*%
D31*
%TO.C,R3*%
X59950000Y42500000D03*
X66050000Y42500000D03*
%TD*%
D36*
%TO.C,R15*%
X36775000Y59500000D03*
X41225000Y59500000D03*
%TD*%
D29*
%TO.C,R30*%
X107000000Y25650000D03*
X107000000Y22350000D03*
%TD*%
D30*
%TO.C,C28*%
X19500000Y14850000D03*
X19500000Y18150000D03*
%TD*%
D27*
%TO.C,R19*%
X61850000Y27000000D03*
X65150000Y27000000D03*
%TD*%
D25*
%TO.C,LED1*%
X92530000Y3500000D03*
X90470000Y3500000D03*
%TD*%
D30*
%TO.C,C30*%
X26500000Y14850000D03*
X26500000Y18150000D03*
%TD*%
D37*
%TO.C,U2*%
X131270000Y16250000D03*
X128730000Y16250000D03*
X128730000Y9750000D03*
X131270000Y9750000D03*
%TD*%
D28*
%TO.C,R12*%
X77650000Y22000000D03*
X74350000Y22000000D03*
%TD*%
D29*
%TO.C,R7*%
X53000000Y61150000D03*
X53000000Y57850000D03*
%TD*%
D27*
%TO.C,R17*%
X61850000Y21000000D03*
X65150000Y21000000D03*
%TD*%
D28*
%TO.C,C17*%
X40650000Y55000000D03*
X37350000Y55000000D03*
%TD*%
D27*
%TO.C,R13*%
X74350000Y25000000D03*
X77650000Y25000000D03*
%TD*%
D38*
%TO.C,C29*%
X16000000Y30700000D03*
X16000000Y25300000D03*
%TD*%
D29*
%TO.C,R6*%
X104000000Y25650000D03*
X104000000Y22350000D03*
%TD*%
D39*
%TO.C,R16*%
X45000000Y29225000D03*
X45000000Y24775000D03*
%TD*%
D40*
%TO.C,U1*%
X60400000Y53100000D03*
X61700000Y53100000D03*
X63000000Y53100000D03*
X64300000Y53100000D03*
X65600000Y53100000D03*
D41*
X65000000Y58900000D03*
X63000000Y58900000D03*
X61000000Y58900000D03*
%TD*%
D29*
%TO.C,R8*%
X70500000Y55650000D03*
X70500000Y52350000D03*
%TD*%
D30*
%TO.C,C27*%
X26000000Y41550000D03*
X26000000Y44850000D03*
%TD*%
D42*
%TO.C,D2*%
X65500000Y91200000D03*
X65500000Y87200000D03*
%TD*%
D28*
%TO.C,C8*%
X119650000Y19000000D03*
X116350000Y19000000D03*
%TD*%
%TO.C,R9*%
X77650000Y16000000D03*
X74350000Y16000000D03*
%TD*%
D43*
%TO.C,VR1*%
X54637500Y24050000D03*
X54637500Y25950000D03*
X52362500Y25000000D03*
%TD*%
D31*
%TO.C,R24*%
X120950000Y3500000D03*
X127050000Y3500000D03*
%TD*%
D44*
%TO.C,D3*%
X49000000Y58500000D03*
X49000000Y62500000D03*
%TD*%
D45*
%TO.C,U5*%
X120040000Y8960000D03*
X120040000Y11500000D03*
X120040000Y14040000D03*
X110960000Y14040000D03*
X110960000Y11500000D03*
X110960000Y8960000D03*
%TD*%
D27*
%TO.C,C11*%
X61850000Y15000000D03*
X65150000Y15000000D03*
%TD*%
D28*
%TO.C,R18*%
X65150000Y30000000D03*
X61850000Y30000000D03*
%TD*%
D30*
%TO.C,R27*%
X89500000Y6850000D03*
X89500000Y10150000D03*
%TD*%
D28*
%TO.C,C12*%
X87150000Y19000000D03*
X83850000Y19000000D03*
%TD*%
%TO.C,C19*%
X65150000Y18000000D03*
X61850000Y18000000D03*
%TD*%
M02*
