M48
; DRILL file KiCad 10.0.1 date 2026-04-23T04:09:33
; FORMAT={-:-/ absolute / metric / decimal}
; #@! TF.CreationDate,2026-04-23T04:09:33+09:00
; #@! TF.GenerationSoftware,Kicad,Pcbnew,10.0.1
; #@! TF.FileFunction,Plated,1,2,PTH
FMAT,2
METRIC
; #@! TA.AperFunction,Plated,PTH,ViaDrill
T1C0.400
; #@! TA.AperFunction,Plated,PTH,ComponentDrill
T2C0.780
; #@! TA.AperFunction,Plated,PTH,ComponentDrill
T3C0.900
; #@! TA.AperFunction,Plated,PTH,ComponentDrill
T4C1.000
; #@! TA.AperFunction,Plated,PTH,ComponentDrill
T5C1.050
; #@! TA.AperFunction,Plated,PTH,ComponentDrill
T6C1.400
; #@! TA.AperFunction,Plated,PTH,ComponentDrill
T7C3.500
%
G90
G05
T1
X8.5Y15.5
X10.5Y15.5
X12.5Y15.5
X15.95Y50.3
X16.0Y29.5
X16.0Y28.0
X17.5Y28.0
X18.2Y49.8
X21.45Y49.05
X22.0Y15.5
X23.5Y15.5
X24.85Y48.4
X25.0Y15.5
X27.5Y43.5
X27.5Y32.5
X28.0Y42.0
X29.0Y53.0
X29.15Y47.75
X29.5Y28.0
X30.5Y53.0
X31.0Y28.0
X32.0Y53.0
X32.0Y46.5
X32.5Y28.0
X32.5Y23.0
X33.5Y34.5
X33.55Y55.0
X33.65Y33.15
X34.0Y23.0
X35.25Y18.025
X35.25Y14.175
X35.5Y23.0
X37.1Y46.6
X39.0Y10.0
X41.0Y39.0
X41.0Y37.5
X42.5Y16.0
X44.0Y34.5
X45.0Y43.0
X45.5Y34.5
X46.5Y43.0
X47.0Y59.5
X48.0Y43.0
X48.2Y33.15
X48.5Y59.5
X50.0Y59.5
X50.275Y31.0
X51.5Y59.5
X53.15Y17.975
X53.15Y14.175
X55.5Y53.5
X55.925Y44.4
X57.0Y35.5
X57.0Y10.0
X60.0Y46.5
X60.0Y45.0
X60.0Y43.5
X60.0Y42.0
X60.5Y16.0
X63.6Y49.65
X63.6Y34.5
X71.325Y17.925
X71.325Y14.15
X72.5Y54.5
X72.5Y46.0
X72.987Y64.888
X74.0Y54.5
X74.0Y46.0
X74.05Y72.925
X75.0Y10.0
X75.5Y54.5
X75.5Y46.0
X77.0Y54.5
X77.0Y46.0
X78.5Y16.0
X85.0Y68.5
X85.0Y67.0
X85.0Y65.225
X88.35Y65.225
X89.325Y18.05
X89.325Y14.175
X92.825Y67.45
X93.0Y10.0
X94.0Y70.5
X95.0Y69.5
X96.5Y16.5
X96.85Y65.225
X107.0Y66.05
X107.125Y17.7
X107.125Y14.175
X109.35Y66.9
X112.5Y15.0
X114.0Y15.0
X123.5Y59.5
X123.5Y18.5
X123.5Y16.5
X123.5Y14.5
X125.5Y59.5
X127.5Y59.5
X136.5Y14.5
X138.0Y14.5
X139.5Y14.5
X140.0Y45.5
X141.5Y45.5
X143.0Y45.5
X143.5Y38.0
T2
X112.46Y69.5
X115.0Y72.04
X115.0Y66.96
T3
X22.73Y55.0
X22.73Y44.0
X22.73Y33.0
X25.27Y55.0
X25.27Y44.0
X25.27Y33.0
X124.73Y55.0
X124.73Y44.0
X124.73Y33.0
X127.27Y55.0
X127.27Y44.0
X127.27Y33.0
T4
X8.73Y49.93
X8.73Y47.39
X8.73Y44.85
X8.73Y42.31
X8.73Y39.77
X8.73Y37.23
X8.73Y34.69
X8.73Y32.15
X8.73Y29.61
X8.73Y27.07
X11.27Y49.93
X11.27Y47.39
X11.27Y44.85
X11.27Y42.31
X11.27Y39.77
X11.27Y37.23
X11.27Y34.69
X11.27Y32.15
X11.27Y29.61
X11.27Y27.07
X139.2Y24.0
X146.8Y24.0
T5
X68.9Y62.5
X71.44Y62.5
X73.98Y62.5
X76.52Y62.5
X79.06Y62.5
X81.6Y62.5
X84.14Y62.5
X86.68Y62.5
X89.22Y62.5
X91.76Y62.5
X94.3Y62.5
X96.84Y62.5
X99.38Y62.5
X101.92Y62.5
X104.46Y62.5
X107.0Y62.5
T6
X32.75Y16.5
X32.75Y11.5
X45.25Y16.5
X45.25Y11.5
X50.75Y16.5
X50.75Y11.5
X63.25Y16.5
X63.25Y11.5
X68.75Y16.5
X68.75Y11.5
X81.25Y16.5
X81.25Y11.5
X86.75Y16.5
X86.75Y11.5
X99.25Y16.5
X99.25Y11.5
X104.75Y16.5
X104.75Y11.5
X117.25Y16.5
X117.25Y11.5
T7
X14.0Y66.0
X14.0Y8.0
X136.0Y66.0
X136.0Y8.0
M30
