%TF.GenerationSoftware,KiCad,Pcbnew,10.0.1*%
%TF.CreationDate,2026-04-23T04:09:21+09:00*%
%TF.ProjectId,Multi_Mega_Display_V2,4d756c74-695f-44d6-9567-615f44697370,rev?*%
%TF.SameCoordinates,Original*%
%TF.FileFunction,Copper,L2,Bot*%
%TF.FilePolarity,Positive*%
%FSLAX46Y46*%
G04 Gerber Fmt 4.6, Leading zero omitted, Abs format (unit mm)*
G04 Created by KiCad (PCBNEW 10.0.1) date 2026-04-23 04:09:21*
%MOMM*%
%LPD*%
G01*
G04 APERTURE LIST*
G04 Aperture macros list*
%AMRoundRect*
0 Rectangle with rounded corners*
0 $1 Rounding radius*
0 $2 $3 $4 $5 $6 $7 $8 $9 X,Y pos of 4 corners*
0 Add a 4 corners polygon primitive as box body*
4,1,4,$2,$3,$4,$5,$6,$7,$8,$9,$2,$3,0*
0 Add four circle primitives for the rounded corners*
1,1,$1+$1,$2,$3*
1,1,$1+$1,$4,$5*
1,1,$1+$1,$6,$7*
1,1,$1+$1,$8,$9*
0 Add four rect primitives between the rounded corners*
20,1,$1+$1,$2,$3,$4,$5,0*
20,1,$1+$1,$4,$5,$6,$7,0*
20,1,$1+$1,$6,$7,$8,$9,0*
20,1,$1+$1,$8,$9,$2,$3,0*%
G04 Aperture macros list end*
%TA.AperFunction,ComponentPad*%
%ADD10RoundRect,0.250000X-0.750000X-0.750000X0.750000X-0.750000X0.750000X0.750000X-0.750000X0.750000X0*%
%TD*%
%TA.AperFunction,ComponentPad*%
%ADD11C,2.000000*%
%TD*%
%TA.AperFunction,ComponentPad*%
%ADD12C,7.500000*%
%TD*%
%TA.AperFunction,ComponentPad*%
%ADD13RoundRect,0.286416X0.413584X-0.413584X0.413584X0.413584X-0.413584X0.413584X-0.413584X-0.413584X0*%
%TD*%
%TA.AperFunction,ComponentPad*%
%ADD14C,1.400000*%
%TD*%
%TA.AperFunction,ComponentPad*%
%ADD15RoundRect,0.250000X-0.600000X-0.600000X0.600000X-0.600000X0.600000X0.600000X-0.600000X0.600000X0*%
%TD*%
%TA.AperFunction,ComponentPad*%
%ADD16C,1.700000*%
%TD*%
%TA.AperFunction,ComponentPad*%
%ADD17RoundRect,0.225000X0.775000X0.675000X-0.775000X0.675000X-0.775000X-0.675000X0.775000X-0.675000X0*%
%TD*%
%TA.AperFunction,ComponentPad*%
%ADD18C,2.800000*%
%TD*%
%TA.AperFunction,ComponentPad*%
%ADD19RoundRect,0.250000X0.650000X1.050000X-0.650000X1.050000X-0.650000X-1.050000X0.650000X-1.050000X0*%
%TD*%
%TA.AperFunction,ComponentPad*%
%ADD20O,1.800000X2.600000*%
%TD*%
%TA.AperFunction,ViaPad*%
%ADD21C,0.800000*%
%TD*%
%TA.AperFunction,ViaPad*%
%ADD22C,0.600000*%
%TD*%
%TA.AperFunction,Conductor*%
%ADD23C,0.350000*%
%TD*%
%TA.AperFunction,Conductor*%
%ADD24C,0.400000*%
%TD*%
%TA.AperFunction,Conductor*%
%ADD25C,0.500000*%
%TD*%
%TA.AperFunction,Conductor*%
%ADD26C,0.600000*%
%TD*%
G04 APERTURE END LIST*
D10*
%TO.P,BZ1,1,+_1*%
%TO.N,Net-(BZ1-+)*%
X139200000Y24000000D03*
D11*
%TO.P,BZ1,2,-_2*%
%TO.N,Net-(BZ1--)*%
X146800000Y24000000D03*
%TD*%
D12*
%TO.P,J3,1,Pin_1_1*%
%TO.N,unconnected-(J3-Pin_1-Pad1)*%
X136000000Y8000000D03*
%TD*%
D13*
%TO.P,RV1,1,1_1*%
%TO.N,+5V*%
X115000000Y66960000D03*
D14*
%TO.P,RV1,2,2_2*%
%TO.N,Net-(LCD1-VO)*%
X112460000Y69500000D03*
%TO.P,RV1,3,3_3*%
%TO.N,GND*%
X115000000Y72040000D03*
%TD*%
D15*
%TO.P,J6,1,Pin_1_1*%
%TO.N,/D0*%
X8730000Y49930000D03*
D16*
%TO.P,J6,2,Pin_2_2*%
%TO.N,/START_STOP*%
X11270000Y49930000D03*
%TO.P,J6,3,Pin_3_3*%
%TO.N,/D1*%
X8730000Y47390000D03*
%TO.P,J6,4,Pin_4_4*%
%TO.N,/MODE*%
X11270000Y47390000D03*
%TO.P,J6,5,Pin_5_5*%
%TO.N,/D2*%
X8730000Y44850000D03*
%TO.P,J6,6,Pin_6_6*%
%TO.N,/UP*%
X11270000Y44850000D03*
%TO.P,J6,7,Pin_7_7*%
%TO.N,/D3*%
X8730000Y42310000D03*
%TO.P,J6,8,Pin_8_8*%
%TO.N,/DOWN*%
X11270000Y42310000D03*
%TO.P,J6,9,Pin_9_9*%
%TO.N,/D4*%
X8730000Y39770000D03*
%TO.P,J6,10,Pin_10_10*%
%TO.N,/SET*%
X11270000Y39770000D03*
%TO.P,J6,11,Pin_11_11*%
%TO.N,/D5*%
X8730000Y37230000D03*
%TO.P,J6,12,Pin_12_12*%
%TO.N,/BZ_OUT*%
X11270000Y37230000D03*
%TO.P,J6,13,Pin_13_13*%
%TO.N,/CLK_LCD*%
X8730000Y34690000D03*
%TO.P,J6,14,Pin_14_14*%
%TO.N,+3.3V*%
X11270000Y34690000D03*
%TO.P,J6,15,Pin_15_15*%
%TO.N,/CLK_LED*%
X8730000Y32150000D03*
%TO.P,J6,16,Pin_16_16*%
%TO.N,+3.3V*%
X11270000Y32150000D03*
%TO.P,J6,17,Pin_17_17*%
%TO.N,+5V*%
X8730000Y29610000D03*
%TO.P,J6,18,Pin_18_18*%
%TO.N,GND*%
X11270000Y29610000D03*
%TO.P,J6,19,Pin_19_19*%
%TO.N,+5V*%
X8730000Y27070000D03*
%TO.P,J6,20,Pin_20_20*%
%TO.N,GND*%
X11270000Y27070000D03*
%TD*%
D12*
%TO.P,J2,1,Pin_1_1*%
%TO.N,unconnected-(J2-Pin_1-Pad1)*%
X14000000Y8000000D03*
%TD*%
%TO.P,J4,1,Pin_1_1*%
%TO.N,unconnected-(J4-Pin_1-Pad1)*%
X136000000Y66000000D03*
%TD*%
%TO.P,J5,1,Pin_1_1*%
%TO.N,unconnected-(J5-Pin_1-Pad1)*%
X14000000Y66000000D03*
%TD*%
D11*
%TO.P,D5,1,K_1*%
%TO.N,GND*%
X25270000Y44000000D03*
D17*
%TO.P,D5,2,A_2*%
%TO.N,Net-(D5-A)*%
X22730000Y44000000D03*
%TD*%
D11*
%TO.P,D2,1,K_1*%
%TO.N,GND*%
X127270000Y44000000D03*
D17*
%TO.P,D2,2,A_2*%
%TO.N,Net-(D2-A)*%
X124730000Y44000000D03*
%TD*%
D18*
%TO.P,TS4,1*%
%TO.N,/DOWN*%
X50750000Y16500000D03*
%TO.P,TS4,2*%
X63250000Y16500000D03*
%TO.P,TS4,3*%
%TO.N,GND*%
X63250000Y11500000D03*
%TO.P,TS4,4*%
X50750000Y11500000D03*
%TD*%
D19*
%TO.P,LCD1,1,VSS_1*%
%TO.N,GND*%
X107000000Y62500000D03*
D20*
%TO.P,LCD1,2,VDD_2*%
%TO.N,+5V*%
X104460000Y62500000D03*
%TO.P,LCD1,3,VO_3*%
%TO.N,Net-(LCD1-VO)*%
X101920000Y62500000D03*
%TO.P,LCD1,4,RS_4*%
%TO.N,Net-(LCD1-RS)*%
X99380000Y62500000D03*
%TO.P,LCD1,5,R/W_5*%
%TO.N,GND*%
X96840000Y62500000D03*
%TO.P,LCD1,6,E_6*%
%TO.N,Net-(LCD1-E)*%
X94300000Y62500000D03*
%TO.P,LCD1,7,D0_7*%
%TO.N,unconnected-(LCD1-D0-Pad7)*%
X91760000Y62500000D03*
%TO.P,LCD1,8,D1_8*%
%TO.N,unconnected-(LCD1-D1-Pad8)*%
X89220000Y62500000D03*
%TO.P,LCD1,9,D2_9*%
%TO.N,unconnected-(LCD1-D2-Pad9)*%
X86680000Y62500000D03*
%TO.P,LCD1,10,D3_10*%
%TO.N,unconnected-(LCD1-D3-Pad10)*%
X84140000Y62500000D03*
%TO.P,LCD1,11,D4_11*%
%TO.N,Net-(LCD1-D4)*%
X81600000Y62500000D03*
%TO.P,LCD1,12,D5_12*%
%TO.N,Net-(LCD1-D5)*%
X79060000Y62500000D03*
%TO.P,LCD1,13,D6_13*%
%TO.N,Net-(LCD1-D6)*%
X76520000Y62500000D03*
%TO.P,LCD1,14,D7_14*%
%TO.N,Net-(LCD1-D7)*%
X73980000Y62500000D03*
%TO.P,LCD1,15,LED(+)_15*%
%TO.N,Net-(LCD1-LED(+))*%
X71440000Y62500000D03*
%TO.P,LCD1,16,LED(-)_16*%
%TO.N,GND*%
X68900000Y62500000D03*
%TD*%
D11*
%TO.P,D3,1,K_1*%
%TO.N,GND*%
X127270000Y33000000D03*
D17*
%TO.P,D3,2,A_2*%
%TO.N,Net-(D3-A)*%
X124730000Y33000000D03*
%TD*%
D11*
%TO.P,D6,1,K_1*%
%TO.N,GND*%
X25270000Y33000000D03*
D17*
%TO.P,D6,2,A_2*%
%TO.N,Net-(D6-A)*%
X22730000Y33000000D03*
%TD*%
D11*
%TO.P,D1,1,K_1*%
%TO.N,GND*%
X127270000Y55000000D03*
D17*
%TO.P,D1,2,A_2*%
%TO.N,Net-(D1-A)*%
X124730000Y55000000D03*
%TD*%
D11*
%TO.P,D4,1,K_1*%
%TO.N,GND*%
X25270000Y55000000D03*
D17*
%TO.P,D4,2,A_2*%
%TO.N,Net-(D4-A)*%
X22730000Y55000000D03*
%TD*%
D18*
%TO.P,TS1,1*%
%TO.N,/START_STOP*%
X104750000Y16500000D03*
%TO.P,TS1,2*%
X117250000Y16500000D03*
%TO.P,TS1,3*%
%TO.N,GND*%
X117250000Y11500000D03*
%TO.P,TS1,4*%
X104750000Y11500000D03*
%TD*%
%TO.P,TS2,1*%
%TO.N,/MODE*%
X86750000Y16500000D03*
%TO.P,TS2,2*%
X99250000Y16500000D03*
%TO.P,TS2,3*%
%TO.N,GND*%
X99250000Y11500000D03*
%TO.P,TS2,4*%
X86750000Y11500000D03*
%TD*%
%TO.P,TS5,1*%
%TO.N,/SET*%
X32750000Y16500000D03*
%TO.P,TS5,2*%
X45250000Y16500000D03*
%TO.P,TS5,3*%
%TO.N,GND*%
X45250000Y11500000D03*
%TO.P,TS5,4*%
X32750000Y11500000D03*
%TD*%
%TO.P,TS3,1*%
%TO.N,/UP*%
X68750000Y16500000D03*
%TO.P,TS3,2*%
X81250000Y16500000D03*
%TO.P,TS3,3*%
%TO.N,GND*%
X81250000Y11500000D03*
%TO.P,TS3,4*%
X68750000Y11500000D03*
%TD*%
D21*
%TO.N,GND*%
X57000000Y35500000D03*
X143500000Y38000000D03*
X143000000Y45500000D03*
X141500000Y45500000D03*
X140000000Y45500000D03*
X139500000Y14500000D03*
X138000000Y14500000D03*
X136500000Y14500000D03*
X16000000Y29500000D03*
X16000000Y28000000D03*
X17500000Y28000000D03*
X60000000Y42000000D03*
X60000000Y43500000D03*
X60000000Y45000000D03*
X60000000Y46500000D03*
X48000000Y43000000D03*
X46500000Y43000000D03*
X45000000Y43000000D03*
X29000000Y53000000D03*
X30500000Y53000000D03*
X32000000Y53000000D03*
X32000000Y46500000D03*
X27500000Y43500000D03*
X28000000Y42000000D03*
X41000000Y39000000D03*
X41000000Y37500000D03*
X45500000Y34500000D03*
X44000000Y34500000D03*
X33500000Y34500000D03*
X27500000Y32500000D03*
X29500000Y28000000D03*
X31000000Y28000000D03*
X32500000Y28000000D03*
X35500000Y23000000D03*
X34000000Y23000000D03*
X32500000Y23000000D03*
X8500000Y15500000D03*
X10500000Y15500000D03*
X12500000Y15500000D03*
X22000000Y15500000D03*
X23500000Y15500000D03*
X25000000Y15500000D03*
X42500000Y16000000D03*
X39000000Y10000000D03*
X60500000Y16000000D03*
X57000000Y10000000D03*
X78500000Y16000000D03*
X75000000Y10000000D03*
X93000000Y10000000D03*
X96500000Y16500000D03*
X112500000Y15000000D03*
X114000000Y15000000D03*
X123500000Y18500000D03*
X123500000Y16500000D03*
X123500000Y14500000D03*
X123500000Y59500000D03*
X125500000Y59500000D03*
X127500000Y59500000D03*
X94000000Y70500000D03*
X95000000Y69500000D03*
X85000000Y68500000D03*
X85000000Y67000000D03*
X85000000Y65225000D03*
X47000000Y59500000D03*
X48500000Y59500000D03*
X51500000Y59500000D03*
X50000000Y59500000D03*
%TO.N,+5V*%
X55500000Y53500000D03*
%TO.N,GND*%
X77000000Y54500000D03*
X75500000Y54500000D03*
X74000000Y54500000D03*
X72500000Y54500000D03*
X77000000Y46000000D03*
X75500000Y46000000D03*
X74000000Y46000000D03*
X72500000Y46000000D03*
D22*
X107000000Y66050000D03*
X72987500Y64887500D03*
%TO.N,Net-(LCD1-LED(+))*%
X74050000Y72925000D03*
%TO.N,+5V*%
X92825000Y67450000D03*
%TO.N,GND*%
X88350000Y65225000D03*
X96850000Y65225000D03*
%TO.N,+3.3V*%
X35250000Y14175000D03*
X35250000Y18025000D03*
X53150000Y14175000D03*
X53150000Y17975000D03*
X71325000Y14150000D03*
X71325000Y17925000D03*
X89325000Y18050000D03*
X89325000Y14175000D03*
X107125000Y17700000D03*
X107125000Y14175000D03*
%TO.N,/CLK_LED*%
X50275000Y31000000D03*
%TO.N,/CLK_LCD*%
X55925000Y44400000D03*
%TO.N,Net-(U2-Q5)*%
X33650000Y33150000D03*
X48200000Y33150000D03*
%TO.N,Net-(U2-Q3)*%
X33550000Y55000000D03*
X37100000Y46600000D03*
%TO.N,/D5*%
X29150000Y47750000D03*
%TO.N,/D4*%
X24850000Y48400000D03*
%TO.N,/D3*%
X21450000Y49050000D03*
%TO.N,/D2*%
X18200000Y49800000D03*
%TO.N,/D1*%
X15950000Y50300000D03*
%TO.N,+5V*%
X63600000Y49650000D03*
X63600000Y34500000D03*
X109350000Y66900000D03*
%TD*%
%TO.N,GND*%
D23*
X144000000Y38500000D02*
X143500000Y38000000D01*
X144000000Y44500000D02*
X144000000Y38500000D01*
X143000000Y45500000D02*
X144000000Y44500000D01*
X140000000Y45500000D02*
X141500000Y45500000D01*
X128770000Y45500000D02*
X140000000Y45500000D01*
X127270000Y44000000D02*
X128770000Y45500000D01*
X123500000Y14500000D02*
X136500000Y14500000D01*
X16000000Y28000000D02*
X16000000Y29500000D01*
X29500000Y28000000D02*
X17500000Y28000000D01*
X60000000Y43500000D02*
X60000000Y42000000D01*
X60000000Y46500000D02*
X60000000Y45000000D01*
X53500000Y46500000D02*
X60000000Y46500000D01*
X50000000Y43000000D02*
X53500000Y46500000D01*
X48000000Y43000000D02*
X50000000Y43000000D01*
X41000000Y39000000D02*
X45000000Y43000000D01*
X32000000Y46500000D02*
X32000000Y53000000D01*
X31500000Y46000000D02*
X32000000Y46500000D01*
X28000000Y46000000D02*
X31500000Y46000000D01*
X27500000Y45500000D02*
X28000000Y46000000D01*
X27500000Y43500000D02*
X27500000Y45500000D01*
X33500000Y34500000D02*
X44000000Y34500000D01*
X34000000Y23000000D02*
X35500000Y23000000D01*
X32500000Y23000000D02*
X34000000Y23000000D01*
X25000000Y15500000D02*
X32500000Y23000000D01*
X25500000Y15500000D02*
X26000000Y15000000D01*
X26000000Y15000000D02*
X26000000Y9000000D01*
X25000000Y15500000D02*
X25500000Y15500000D01*
X25000000Y15500000D02*
X23500000Y15500000D01*
X26000000Y9000000D02*
X38000000Y9000000D01*
X38000000Y9000000D02*
X39000000Y10000000D01*
X10500000Y15500000D02*
X8500000Y15500000D01*
X12500000Y15500000D02*
X10500000Y15500000D01*
X22000000Y15500000D02*
X12500000Y15500000D01*
X23500000Y15500000D02*
X22000000Y15500000D01*
X76000000Y9000000D02*
X75000000Y10000000D01*
X92000000Y9000000D02*
X76000000Y9000000D01*
X93000000Y10000000D02*
X92000000Y9000000D01*
X58000000Y9000000D02*
X57000000Y10000000D01*
X74000000Y9000000D02*
X58000000Y9000000D01*
X75000000Y10000000D02*
X74000000Y9000000D01*
X40000000Y9000000D02*
X39000000Y10000000D01*
X56000000Y9000000D02*
X40000000Y9000000D01*
X57000000Y10000000D02*
X56000000Y9000000D01*
X42500000Y16000000D02*
X42500000Y13500000D01*
X42500000Y13500000D02*
X39000000Y10000000D01*
X60500000Y13500000D02*
X60500000Y16000000D01*
X57000000Y10000000D02*
X60500000Y13500000D01*
X75000000Y10000000D02*
X78500000Y13500000D01*
X78500000Y13500000D02*
X78500000Y16000000D01*
X96500000Y16500000D02*
X96500000Y13500000D01*
X96500000Y13500000D02*
X93000000Y10000000D01*
X112500000Y15000000D02*
X114000000Y15000000D01*
X123500000Y16500000D02*
X123500000Y18500000D01*
X123500000Y14500000D02*
X123500000Y16500000D01*
X120500000Y11500000D02*
X123500000Y14500000D01*
X117250000Y11500000D02*
X120500000Y11500000D01*
X125500000Y59500000D02*
X123500000Y59500000D01*
X127500000Y59500000D02*
X125500000Y59500000D01*
X127270000Y59270000D02*
X127500000Y59500000D01*
X127270000Y55000000D02*
X127270000Y59270000D01*
X95000000Y69500000D02*
X94000000Y70500000D01*
X85000000Y67000000D02*
X85000000Y68500000D01*
X85000000Y65225000D02*
X85000000Y67000000D01*
D24*
X84500000Y65225000D02*
X85000000Y65225000D01*
X85000000Y65225000D02*
X88350000Y65225000D01*
D23*
X48500000Y59500000D02*
X47000000Y59500000D01*
X50000000Y59500000D02*
X48500000Y59500000D01*
X51500000Y59500000D02*
X50000000Y59500000D01*
%TO.N,+5V*%
D25*
X60500000Y53500000D02*
X55500000Y53500000D01*
X63600000Y50400000D02*
X60500000Y53500000D01*
X63600000Y49650000D02*
X63600000Y50400000D01*
%TO.N,GND*%
D23*
X75500000Y54500000D02*
X77000000Y54500000D01*
X74000000Y54500000D02*
X75500000Y54500000D01*
X72500000Y54500000D02*
X74000000Y54500000D01*
X75500000Y46000000D02*
X77000000Y46000000D01*
X74000000Y46000000D02*
X75500000Y46000000D01*
X72500000Y46000000D02*
X74000000Y46000000D01*
D24*
X108815000Y72040000D02*
X115000000Y72040000D01*
X107000000Y70225000D02*
X108815000Y72040000D01*
X107000000Y66050000D02*
X107000000Y70225000D01*
X73325000Y65225000D02*
X84500000Y65225000D01*
X72987500Y64887500D02*
X73325000Y65225000D01*
X96850000Y65225000D02*
X88350000Y65225000D01*
%TO.N,Net-(LCD1-LED(+))*%
X71440000Y70315000D02*
X71440000Y62500000D01*
X74050000Y72925000D02*
X71440000Y70315000D01*
%TO.N,+5V*%
D25*
X101900000Y67450000D02*
X92825000Y67450000D01*
X104460000Y64890000D02*
X101900000Y67450000D01*
X104460000Y62500000D02*
X104460000Y64890000D01*
D26*
X104460000Y64900000D02*
X104460000Y62500000D01*
X109450000Y64900000D02*
X104460000Y64900000D01*
%TO.N,GND*%
D25*
X96840000Y65215000D02*
X96850000Y65225000D01*
X96840000Y62500000D02*
X96840000Y65215000D01*
%TO.N,+3.3V*%
X35250000Y18025000D02*
X35250000Y14175000D01*
X53150000Y17975000D02*
X53150000Y14175000D01*
X71325000Y17925000D02*
X71325000Y14150000D01*
X89325000Y18050000D02*
X89325000Y14175000D01*
X107125000Y14175000D02*
X107125000Y17700000D01*
%TO.N,/CLK_LED*%
D23*
X50250000Y31025000D02*
X50275000Y31000000D01*
X17150000Y33425000D02*
X19550000Y31025000D01*
X10005000Y33425000D02*
X17150000Y33425000D01*
X19550000Y31025000D02*
X50250000Y31025000D01*
X8730000Y32150000D02*
X10005000Y33425000D01*
%TO.N,/CLK_LCD*%
X54575000Y35975000D02*
X55925000Y37325000D01*
X10015000Y35975000D02*
X54575000Y35975000D01*
X55925000Y37325000D02*
X55925000Y44400000D01*
X8730000Y34690000D02*
X10015000Y35975000D01*
%TO.N,Net-(U2-Q5)*%
X48200000Y33150000D02*
X33650000Y33150000D01*
%TO.N,Net-(U2-Q3)*%
X34150000Y55000000D02*
X33550000Y55000000D01*
X36200000Y47500000D02*
X36200000Y52950000D01*
X37100000Y46600000D02*
X36200000Y47500000D01*
X36200000Y52950000D02*
X34150000Y55000000D01*
%TO.N,+5V*%
D26*
X109450000Y58550000D02*
X109450000Y64900000D01*
X103550000Y52650000D02*
X109450000Y58550000D01*
X63600000Y50500000D02*
X65750000Y52650000D01*
X63600000Y31700000D02*
X63600000Y50500000D01*
X56750000Y24850000D02*
X63600000Y31700000D01*
X8730000Y25670000D02*
X9550000Y24850000D01*
X65750000Y52650000D02*
X103550000Y52650000D01*
X8730000Y27070000D02*
X8730000Y25670000D01*
X9550000Y24850000D02*
X56750000Y24850000D01*
%TO.N,/D5*%
D23*
X7420000Y37230000D02*
X8730000Y37230000D01*
X2700000Y54950000D02*
X2700000Y41950000D01*
X2700000Y41950000D02*
X7420000Y37230000D01*
X17000000Y57150000D02*
X4900000Y57150000D01*
X4900000Y57150000D02*
X2700000Y54950000D01*
X27800000Y47750000D02*
X23050000Y52500000D01*
X21650000Y52500000D02*
X17000000Y57150000D01*
X29150000Y47750000D02*
X27800000Y47750000D01*
X23050000Y52500000D02*
X21650000Y52500000D01*
%TO.N,/D4*%
X7230000Y39770000D02*
X8730000Y39770000D01*
X3900000Y53550000D02*
X3900000Y43100000D01*
X3900000Y43100000D02*
X7230000Y39770000D01*
X5650000Y55300000D02*
X3900000Y53550000D01*
X16550000Y55300000D02*
X5650000Y55300000D01*
X23450000Y48400000D02*
X16550000Y55300000D01*
X24850000Y48400000D02*
X23450000Y48400000D01*
%TO.N,/D3*%
X8720000Y42300000D02*
X8730000Y42310000D01*
X5100000Y44650000D02*
X7450000Y42300000D01*
X15400000Y54050000D02*
X6450000Y54050000D01*
X20400000Y49050000D02*
X15400000Y54050000D01*
X6450000Y54050000D02*
X5100000Y52700000D01*
X7450000Y42300000D02*
X8720000Y42300000D01*
X21450000Y49050000D02*
X20400000Y49050000D01*
X5100000Y52700000D02*
X5100000Y44650000D01*
%TO.N,/D2*%
X7400000Y44850000D02*
X8730000Y44850000D01*
X6200000Y51850000D02*
X6200000Y46050000D01*
X14450000Y52950000D02*
X7300000Y52950000D01*
X17600000Y49800000D02*
X14450000Y52950000D01*
X7300000Y52950000D02*
X6200000Y51850000D01*
X6200000Y46050000D02*
X7400000Y44850000D01*
X18200000Y49800000D02*
X17600000Y49800000D01*
%TO.N,/D1*%
X7810000Y47390000D02*
X8730000Y47390000D01*
X7150000Y48050000D02*
X7810000Y47390000D01*
X7150000Y51250000D02*
X7150000Y48050000D01*
X7900000Y52000000D02*
X7150000Y51250000D01*
X14600000Y50300000D02*
X12900000Y52000000D01*
X15950000Y50300000D02*
X14600000Y50300000D01*
X12900000Y52000000D02*
X7900000Y52000000D01*
%TO.N,+5V*%
D26*
X109450000Y66800000D02*
X109450000Y64900000D01*
X109350000Y66900000D02*
X109450000Y66800000D01*
%TD*%
%TA.AperFunction,Conductor*%
%TO.N,GND*%
G36*
X114010896Y72981378D02*
G01*
X114061774Y72930500D01*
X114080396Y72861000D01*
X114061774Y72791500D01*
X114053849Y72779298D01*
X113973675Y72668948D01*
X113973670Y72668941D01*
X113887917Y72500641D01*
X113829549Y72321006D01*
X113800000Y72134438D01*
X113800000Y71945561D01*
X113829549Y71758993D01*
X113887917Y71579358D01*
X113973665Y71411068D01*
X113973670Y71411059D01*
X114021871Y71344715D01*
X114621794Y71944637D01*
X114636578Y71889466D01*
X114687923Y71800535D01*
X114760535Y71727923D01*
X114849466Y71676578D01*
X114904637Y71661794D01*
X114304715Y71061871D01*
X114371059Y71013670D01*
X114371068Y71013665D01*
X114539358Y70927917D01*
X114718993Y70869549D01*
X114905561Y70840000D01*
X115094439Y70840000D01*
X115281006Y70869549D01*
X115460641Y70927917D01*
X115628940Y71013670D01*
X115695283Y71061871D01*
X115095361Y71661794D01*
X115150534Y71676578D01*
X115239465Y71727923D01*
X115312077Y71800535D01*
X115363422Y71889466D01*
X115378205Y71944636D01*
X115978126Y71344715D01*
X115978127Y71344715D01*
X116026329Y71411059D01*
X116112082Y71579358D01*
X116170450Y71758993D01*
X116200000Y71945561D01*
X116200000Y72134438D01*
X116170450Y72321006D01*
X116112082Y72500641D01*
X116026329Y72668941D01*
X116026324Y72668948D01*
X115946151Y72779298D01*
X115920365Y72846470D01*
X115931621Y72917536D01*
X115976902Y72973453D01*
X116044074Y72999239D01*
X116058604Y73000000D01*
X144442424Y73000000D01*
X144511924Y72981378D01*
X144540712Y72959288D01*
X147959288Y69540712D01*
X147995264Y69478400D01*
X148000000Y69442424D01*
X148000000Y25379278D01*
X147981378Y25309778D01*
X147930500Y25258900D01*
X147861000Y25240278D01*
X147791500Y25258900D01*
X147779308Y25266817D01*
X147652151Y25359202D01*
X147638841Y25368873D01*
X147527711Y25425495D01*
X147414379Y25483241D01*
X147174785Y25561090D01*
X146925962Y25600500D01*
X146674038Y25600500D01*
X146425215Y25561090D01*
X146185621Y25483241D01*
X146161287Y25470842D01*
X145961159Y25368873D01*
X145961152Y25368869D01*
X145809794Y25258900D01*
X145757344Y25220793D01*
X145757340Y25220789D01*
X145579210Y25042659D01*
X145579204Y25042652D01*
X145431130Y24838847D01*
X145431128Y24838844D01*
X145316760Y24614381D01*
X145238910Y24374785D01*
X145199500Y24125962D01*
X145199500Y23874041D01*
X145238910Y23625214D01*
X145316760Y23385618D01*
X145431128Y23161155D01*
X145431130Y23161152D01*
X145579204Y22957347D01*
X145579210Y22957340D01*
X145757340Y22779210D01*
X145757347Y22779204D01*
X145961152Y22631130D01*
X145961155Y22631128D01*
X146185618Y22516760D01*
X146425214Y22438910D01*
X146487420Y22429057D01*
X146674038Y22399500D01*
X146674041Y22399500D01*
X146925959Y22399500D01*
X146925962Y22399500D01*
X147174785Y22438910D01*
X147414379Y22516759D01*
X147438706Y22529154D01*
X147638844Y22631128D01*
X147638847Y22631130D01*
X147779298Y22733174D01*
X147846471Y22758960D01*
X147917536Y22747704D01*
X147973453Y22702423D01*
X147999239Y22635250D01*
X148000000Y22620721D01*
X148000000Y5557576D01*
X147981378Y5488076D01*
X147959288Y5459288D01*
X144540712Y2040712D01*
X144478400Y2004736D01*
X144442424Y2000000D01*
X7057576Y2000000D01*
X6988076Y2018622D01*
X6959288Y2040712D01*
X2540712Y6459288D01*
X2504736Y6521600D01*
X2500000Y6557576D01*
X2500000Y8189943D01*
X9649500Y8189943D01*
X9649500Y7810056D01*
X9682609Y7431608D01*
X9682610Y7431602D01*
X9748573Y7057500D01*
X9748577Y7057480D01*
X9846901Y6690531D01*
X9846904Y6690522D01*
X9976831Y6333551D01*
X10137380Y5989254D01*
X10327333Y5660245D01*
X10327336Y5660240D01*
X10545222Y5349066D01*
X10545229Y5349057D01*
X10789408Y5058055D01*
X11058055Y4789408D01*
X11349057Y4545229D01*
X11349066Y4545222D01*
X11660240Y4327336D01*
X11660245Y4327333D01*
X11989254Y4137380D01*
X12333551Y3976831D01*
X12690522Y3846904D01*
X12690531Y3846901D01*
X13057480Y3748577D01*
X13057500Y3748573D01*
X13431602Y3682610D01*
X13431608Y3682609D01*
X13710726Y3658190D01*
X13810053Y3649500D01*
X13810056Y3649500D01*
X14189944Y3649500D01*
X14189947Y3649500D01*
X14298797Y3659023D01*
X14568391Y3682609D01*
X14568397Y3682610D01*
X14942499Y3748573D01*
X14942519Y3748577D01*
X15309468Y3846901D01*
X15309477Y3846904D01*
X15666448Y3976831D01*
X16010745Y4137380D01*
X16010746Y4137381D01*
X16010751Y4137383D01*
X16339749Y4327330D01*
X16339754Y4327333D01*
X16339759Y4327336D01*
X16650933Y4545222D01*
X16650942Y4545229D01*
X16941944Y4789408D01*
X16941954Y4789417D01*
X17210583Y5058046D01*
X17210591Y5058055D01*
X17454770Y5349057D01*
X17454777Y5349066D01*
X17672663Y5660240D01*
X17672666Y5660245D01*
X17672666Y5660246D01*
X17672670Y5660251D01*
X17862617Y5989249D01*
X17924137Y6121180D01*
X18023168Y6333551D01*
X18153095Y6690522D01*
X18153098Y6690531D01*
X18251422Y7057480D01*
X18251423Y7057482D01*
X18317390Y7431605D01*
X18350500Y7810053D01*
X18350500Y8189943D01*
X131649500Y8189943D01*
X131649500Y7810056D01*
X131682609Y7431608D01*
X131682610Y7431602D01*
X131748573Y7057500D01*
X131748577Y7057480D01*
X131846901Y6690531D01*
X131846904Y6690522D01*
X131976831Y6333551D01*
X132137380Y5989254D01*
X132327333Y5660245D01*
X132327336Y5660240D01*
X132545222Y5349066D01*
X132545229Y5349057D01*
X132789408Y5058055D01*
X133058055Y4789408D01*
X133349057Y4545229D01*
X133349066Y4545222D01*
X133660240Y4327336D01*
X133660245Y4327333D01*
X133989254Y4137380D01*
X134333551Y3976831D01*
X134690522Y3846904D01*
X134690531Y3846901D01*
X135057480Y3748577D01*
X135057500Y3748573D01*
X135431602Y3682610D01*
X135431608Y3682609D01*
X135710726Y3658190D01*
X135810053Y3649500D01*
X135810056Y3649500D01*
X136189944Y3649500D01*
X136189947Y3649500D01*
X136298797Y3659023D01*
X136568391Y3682609D01*
X136568397Y3682610D01*
X136942499Y3748573D01*
X136942519Y3748577D01*
X137309468Y3846901D01*
X137309477Y3846904D01*
X137666448Y3976831D01*
X138010745Y4137380D01*
X138010746Y4137381D01*
X138010751Y4137383D01*
X138339749Y4327330D01*
X138339754Y4327333D01*
X138339759Y4327336D01*
X138650933Y4545222D01*
X138650942Y4545229D01*
X138941944Y4789408D01*
X138941954Y4789417D01*
X139210583Y5058046D01*
X139210591Y5058055D01*
X139454770Y5349057D01*
X139454777Y5349066D01*
X139672663Y5660240D01*
X139672666Y5660245D01*
X139672666Y5660246D01*
X139672670Y5660251D01*
X139862617Y5989249D01*
X139924137Y6121180D01*
X140023168Y6333551D01*
X140153095Y6690522D01*
X140153098Y6690531D01*
X140251422Y7057480D01*
X140251423Y7057482D01*
X140317390Y7431605D01*
X140350500Y7810053D01*
X140350500Y8189947D01*
X140317390Y8568395D01*
X140251423Y8942518D01*
X140153099Y9309467D01*
X140023167Y9666450D01*
X139862617Y10010751D01*
X139672670Y10339749D01*
X139454772Y10650940D01*
X139210581Y10941956D01*
X138941956Y11210581D01*
X138650940Y11454772D01*
X138339749Y11672670D01*
X138010751Y11862617D01*
X137666450Y12023167D01*
X137666448Y12023168D01*
X137512864Y12079068D01*
X137309467Y12153099D01*
X136942518Y12251423D01*
X136568395Y12317390D01*
X136189947Y12350500D01*
X135810053Y12350500D01*
X135431605Y12317390D01*
X135057482Y12251423D01*
X134690533Y12153099D01*
X134690522Y12153095D01*
X134333551Y12023168D01*
X134168545Y11946224D01*
X133989249Y11862617D01*
X133660251Y11672670D01*
X133660246Y11672666D01*
X133660245Y11672666D01*
X133660240Y11672663D01*
X133349066Y11454777D01*
X133349057Y11454770D01*
X133058055Y11210591D01*
X133058046Y11210583D01*
X132789417Y10941954D01*
X132789408Y10941944D01*
X132545229Y10650942D01*
X132545222Y10650933D01*
X132327336Y10339759D01*
X132327333Y10339754D01*
X132327330Y10339749D01*
X132143936Y10022100D01*
X132137380Y10010745D01*
X131976831Y9666448D01*
X131846904Y9309477D01*
X131846901Y9309468D01*
X131748577Y8942519D01*
X131748573Y8942499D01*
X131682610Y8568397D01*
X131682609Y8568391D01*
X131649500Y8189943D01*
X18350500Y8189943D01*
X18350500Y8189947D01*
X18317390Y8568395D01*
X18251423Y8942518D01*
X18153099Y9309467D01*
X18023167Y9666450D01*
X17862617Y10010751D01*
X17672670Y10339749D01*
X17454772Y10650940D01*
X17210581Y10941956D01*
X16941956Y11210581D01*
X16650940Y11454772D01*
X16650933Y11454777D01*
X16564611Y11515221D01*
X16408491Y11624537D01*
X30850000Y11624537D01*
X30850000Y11375462D01*
X30882508Y11128536D01*
X30946974Y10887948D01*
X31042282Y10657852D01*
X31042288Y10657840D01*
X31166816Y10442152D01*
X31272100Y10304943D01*
X32132037Y11164880D01*
X32206274Y11053776D01*
X32303776Y10956274D01*
X32414880Y10882037D01*
X31554943Y10022100D01*
X31692152Y9916816D01*
X31907840Y9792288D01*
X31907852Y9792282D01*
X32137948Y9696974D01*
X32378536Y9632508D01*
X32625462Y9600000D01*
X32874537Y9600000D01*
X33121463Y9632508D01*
X33362051Y9696974D01*
X33592147Y9792282D01*
X33592159Y9792288D01*
X33807845Y9916815D01*
X33807856Y9916822D01*
X33945056Y10022099D01*
X33085119Y10882036D01*
X33196224Y10956274D01*
X33293726Y11053776D01*
X33367961Y11164879D01*
X34227898Y10304943D01*
X34333182Y10442151D01*
X34333184Y10442154D01*
X34457711Y10657840D01*
X34457717Y10657852D01*
X34553025Y10887948D01*
X34617491Y11128536D01*
X34649999Y11375462D01*
X34650000Y11375472D01*
X34650000Y11624527D01*
X34649999Y11624537D01*
X43350000Y11624537D01*
X43350000Y11375462D01*
X43382508Y11128536D01*
X43446974Y10887948D01*
X43542282Y10657852D01*
X43542288Y10657840D01*
X43666816Y10442152D01*
X43772100Y10304943D01*
X44632037Y11164880D01*
X44706274Y11053776D01*
X44803776Y10956274D01*
X44914880Y10882037D01*
X44054943Y10022100D01*
X44192152Y9916816D01*
X44407840Y9792288D01*
X44407852Y9792282D01*
X44637948Y9696974D01*
X44878536Y9632508D01*
X45125462Y9600000D01*
X45374537Y9600000D01*
X45621463Y9632508D01*
X45862051Y9696974D01*
X46092147Y9792282D01*
X46092159Y9792288D01*
X46307845Y9916815D01*
X46307856Y9916822D01*
X46445056Y10022099D01*
X45585119Y10882036D01*
X45696224Y10956274D01*
X45793726Y11053776D01*
X45867961Y11164879D01*
X46727898Y10304943D01*
X46833182Y10442151D01*
X46833184Y10442154D01*
X46957711Y10657840D01*
X46957717Y10657852D01*
X47053025Y10887948D01*
X47117491Y11128536D01*
X47149999Y11375462D01*
X47150000Y11375472D01*
X47150000Y11624527D01*
X47149999Y11624537D01*
X48850000Y11624537D01*
X48850000Y11375462D01*
X48882508Y11128536D01*
X48946974Y10887948D01*
X49042282Y10657852D01*
X49042288Y10657840D01*
X49166816Y10442152D01*
X49272100Y10304943D01*
X50132037Y11164880D01*
X50206274Y11053776D01*
X50303776Y10956274D01*
X50414880Y10882037D01*
X49554943Y10022100D01*
X49692152Y9916816D01*
X49907840Y9792288D01*
X49907852Y9792282D01*
X50137948Y9696974D01*
X50378536Y9632508D01*
X50625462Y9600000D01*
X50874537Y9600000D01*
X51121463Y9632508D01*
X51362051Y9696974D01*
X51592147Y9792282D01*
X51592159Y9792288D01*
X51807845Y9916815D01*
X51807856Y9916822D01*
X51945056Y10022099D01*
X51085119Y10882036D01*
X51196224Y10956274D01*
X51293726Y11053776D01*
X51367961Y11164879D01*
X52227898Y10304943D01*
X52333182Y10442151D01*
X52333184Y10442154D01*
X52457711Y10657840D01*
X52457717Y10657852D01*
X52553025Y10887948D01*
X52617491Y11128536D01*
X52649999Y11375462D01*
X52650000Y11375472D01*
X52650000Y11624527D01*
X52649999Y11624537D01*
X61350000Y11624537D01*
X61350000Y11375462D01*
X61382508Y11128536D01*
X61446974Y10887948D01*
X61542282Y10657852D01*
X61542288Y10657840D01*
X61666816Y10442152D01*
X61772100Y10304943D01*
X62632037Y11164880D01*
X62706274Y11053776D01*
X62803776Y10956274D01*
X62914880Y10882037D01*
X62054943Y10022100D01*
X62192152Y9916816D01*
X62407840Y9792288D01*
X62407852Y9792282D01*
X62637948Y9696974D01*
X62878536Y9632508D01*
X63125462Y9600000D01*
X63374537Y9600000D01*
X63621463Y9632508D01*
X63862051Y9696974D01*
X64092147Y9792282D01*
X64092159Y9792288D01*
X64307845Y9916815D01*
X64307856Y9916822D01*
X64445056Y10022099D01*
X63585119Y10882036D01*
X63696224Y10956274D01*
X63793726Y11053776D01*
X63867961Y11164879D01*
X64727898Y10304943D01*
X64833182Y10442151D01*
X64833184Y10442154D01*
X64957711Y10657840D01*
X64957717Y10657852D01*
X65053025Y10887948D01*
X65117491Y11128536D01*
X65149999Y11375462D01*
X65150000Y11375472D01*
X65150000Y11624527D01*
X65149999Y11624537D01*
X66850000Y11624537D01*
X66850000Y11375462D01*
X66882508Y11128536D01*
X66946974Y10887948D01*
X67042282Y10657852D01*
X67042288Y10657840D01*
X67166816Y10442152D01*
X67272100Y10304943D01*
X68132037Y11164880D01*
X68206274Y11053776D01*
X68303776Y10956274D01*
X68414880Y10882037D01*
X67554943Y10022100D01*
X67692152Y9916816D01*
X67907840Y9792288D01*
X67907852Y9792282D01*
X68137948Y9696974D01*
X68378536Y9632508D01*
X68625462Y9600000D01*
X68874537Y9600000D01*
X69121463Y9632508D01*
X69362051Y9696974D01*
X69592147Y9792282D01*
X69592159Y9792288D01*
X69807845Y9916815D01*
X69807856Y9916822D01*
X69945056Y10022099D01*
X69085119Y10882036D01*
X69196224Y10956274D01*
X69293726Y11053776D01*
X69367961Y11164879D01*
X70227898Y10304943D01*
X70333182Y10442151D01*
X70333184Y10442154D01*
X70457711Y10657840D01*
X70457717Y10657852D01*
X70553025Y10887948D01*
X70617491Y11128536D01*
X70649999Y11375462D01*
X70650000Y11375472D01*
X70650000Y11624527D01*
X70649999Y11624537D01*
X79350000Y11624537D01*
X79350000Y11375462D01*
X79382508Y11128536D01*
X79446974Y10887948D01*
X79542282Y10657852D01*
X79542288Y10657840D01*
X79666816Y10442152D01*
X79772100Y10304943D01*
X80632037Y11164880D01*
X80706274Y11053776D01*
X80803776Y10956274D01*
X80914880Y10882037D01*
X80054943Y10022100D01*
X80192152Y9916816D01*
X80407840Y9792288D01*
X80407852Y9792282D01*
X80637948Y9696974D01*
X80878536Y9632508D01*
X81125462Y9600000D01*
X81374537Y9600000D01*
X81621463Y9632508D01*
X81862051Y9696974D01*
X82092147Y9792282D01*
X82092159Y9792288D01*
X82307845Y9916815D01*
X82307856Y9916822D01*
X82445056Y10022099D01*
X81585119Y10882036D01*
X81696224Y10956274D01*
X81793726Y11053776D01*
X81867961Y11164879D01*
X82727898Y10304943D01*
X82833182Y10442151D01*
X82833184Y10442154D01*
X82957711Y10657840D01*
X82957717Y10657852D01*
X83053025Y10887948D01*
X83117491Y11128536D01*
X83149999Y11375462D01*
X83150000Y11375472D01*
X83150000Y11624527D01*
X83149999Y11624537D01*
X84850000Y11624537D01*
X84850000Y11375462D01*
X84882508Y11128536D01*
X84946974Y10887948D01*
X85042282Y10657852D01*
X85042288Y10657840D01*
X85166816Y10442152D01*
X85272100Y10304943D01*
X86132037Y11164880D01*
X86206274Y11053776D01*
X86303776Y10956274D01*
X86414880Y10882037D01*
X85554943Y10022100D01*
X85692152Y9916816D01*
X85907840Y9792288D01*
X85907852Y9792282D01*
X86137948Y9696974D01*
X86378536Y9632508D01*
X86625462Y9600000D01*
X86874537Y9600000D01*
X87121463Y9632508D01*
X87362051Y9696974D01*
X87592147Y9792282D01*
X87592159Y9792288D01*
X87807845Y9916815D01*
X87807856Y9916822D01*
X87945056Y10022099D01*
X87085119Y10882036D01*
X87196224Y10956274D01*
X87293726Y11053776D01*
X87367961Y11164879D01*
X88227898Y10304943D01*
X88333182Y10442151D01*
X88333184Y10442154D01*
X88457711Y10657840D01*
X88457717Y10657852D01*
X88553025Y10887948D01*
X88617491Y11128536D01*
X88649999Y11375462D01*
X88650000Y11375472D01*
X88650000Y11624527D01*
X88649999Y11624537D01*
X97350000Y11624537D01*
X97350000Y11375462D01*
X97382508Y11128536D01*
X97446974Y10887948D01*
X97542282Y10657852D01*
X97542288Y10657840D01*
X97666816Y10442152D01*
X97772100Y10304943D01*
X98632037Y11164880D01*
X98706274Y11053776D01*
X98803776Y10956274D01*
X98914880Y10882037D01*
X98054943Y10022100D01*
X98192152Y9916816D01*
X98407840Y9792288D01*
X98407852Y9792282D01*
X98637948Y9696974D01*
X98878536Y9632508D01*
X99125462Y9600000D01*
X99374537Y9600000D01*
X99621463Y9632508D01*
X99862051Y9696974D01*
X100092147Y9792282D01*
X100092159Y9792288D01*
X100307845Y9916815D01*
X100307856Y9916822D01*
X100445056Y10022099D01*
X99585119Y10882036D01*
X99696224Y10956274D01*
X99793726Y11053776D01*
X99867961Y11164879D01*
X100727898Y10304943D01*
X100833182Y10442151D01*
X100833184Y10442154D01*
X100957711Y10657840D01*
X100957717Y10657852D01*
X101053025Y10887948D01*
X101117491Y11128536D01*
X101149999Y11375462D01*
X101150000Y11375472D01*
X101150000Y11624527D01*
X101149999Y11624537D01*
X102850000Y11624537D01*
X102850000Y11375462D01*
X102882508Y11128536D01*
X102946974Y10887948D01*
X103042282Y10657852D01*
X103042288Y10657840D01*
X103166816Y10442152D01*
X103272100Y10304943D01*
X104132037Y11164880D01*
X104206274Y11053776D01*
X104303776Y10956274D01*
X104414880Y10882037D01*
X103554943Y10022100D01*
X103692152Y9916816D01*
X103907840Y9792288D01*
X103907852Y9792282D01*
X104137948Y9696974D01*
X104378536Y9632508D01*
X104625462Y9600000D01*
X104874537Y9600000D01*
X105121463Y9632508D01*
X105362051Y9696974D01*
X105592147Y9792282D01*
X105592159Y9792288D01*
X105807845Y9916815D01*
X105807856Y9916822D01*
X105945056Y10022099D01*
X105085119Y10882036D01*
X105196224Y10956274D01*
X105293726Y11053776D01*
X105367961Y11164879D01*
X106227898Y10304943D01*
X106333182Y10442151D01*
X106333184Y10442154D01*
X106457711Y10657840D01*
X106457717Y10657852D01*
X106553025Y10887948D01*
X106617491Y11128536D01*
X106649999Y11375462D01*
X106650000Y11375472D01*
X106650000Y11624527D01*
X106649999Y11624537D01*
X115350000Y11624537D01*
X115350000Y11375462D01*
X115382508Y11128536D01*
X115446974Y10887948D01*
X115542282Y10657852D01*
X115542288Y10657840D01*
X115666816Y10442152D01*
X115772100Y10304943D01*
X116632037Y11164880D01*
X116706274Y11053776D01*
X116803776Y10956274D01*
X116914880Y10882037D01*
X116054943Y10022100D01*
X116192152Y9916816D01*
X116407840Y9792288D01*
X116407852Y9792282D01*
X116637948Y9696974D01*
X116878536Y9632508D01*
X117125462Y9600000D01*
X117374537Y9600000D01*
X117621463Y9632508D01*
X117862051Y9696974D01*
X118092147Y9792282D01*
X118092159Y9792288D01*
X118307845Y9916815D01*
X118307856Y9916822D01*
X118445056Y10022099D01*
X117585119Y10882036D01*
X117696224Y10956274D01*
X117793726Y11053776D01*
X117867961Y11164879D01*
X118727898Y10304943D01*
X118833182Y10442151D01*
X118833184Y10442154D01*
X118957711Y10657840D01*
X118957717Y10657852D01*
X119053025Y10887948D01*
X119117491Y11128536D01*
X119149999Y11375462D01*
X119150000Y11375472D01*
X119150000Y11624527D01*
X119149999Y11624537D01*
X119117491Y11871463D01*
X119053025Y12112051D01*
X118957717Y12342147D01*
X118957711Y12342159D01*
X118833184Y12557845D01*
X118833182Y12557848D01*
X118727899Y12695055D01*
X117867962Y11835119D01*
X117793726Y11946224D01*
X117696224Y12043726D01*
X117585119Y12117962D01*
X118445055Y12977899D01*
X118307848Y13083182D01*
X118307845Y13083184D01*
X118092159Y13207711D01*
X118092147Y13207717D01*
X117862051Y13303025D01*
X117621463Y13367491D01*
X117374537Y13399999D01*
X117374528Y13400000D01*
X117125472Y13400000D01*
X117125462Y13399999D01*
X116878536Y13367491D01*
X116637948Y13303025D01*
X116407852Y13207717D01*
X116407840Y13207711D01*
X116192154Y13083184D01*
X116192151Y13083182D01*
X116054943Y12977898D01*
X116914879Y12117961D01*
X116803776Y12043726D01*
X116706274Y11946224D01*
X116632036Y11835118D01*
X115772099Y12695056D01*
X115666822Y12557856D01*
X115666815Y12557845D01*
X115542288Y12342159D01*
X115542282Y12342147D01*
X115446974Y12112051D01*
X115382508Y11871463D01*
X115350000Y11624537D01*
X106649999Y11624537D01*
X106617491Y11871463D01*
X106553025Y12112051D01*
X106457717Y12342147D01*
X106457711Y12342159D01*
X106333184Y12557845D01*
X106333182Y12557848D01*
X106227899Y12695055D01*
X105367962Y11835119D01*
X105293726Y11946224D01*
X105196224Y12043726D01*
X105085119Y12117962D01*
X105945055Y12977899D01*
X105807848Y13083182D01*
X105807845Y13083184D01*
X105592159Y13207711D01*
X105592147Y13207717D01*
X105362051Y13303025D01*
X105121463Y13367491D01*
X104874537Y13399999D01*
X104874528Y13400000D01*
X104625472Y13400000D01*
X104625462Y13399999D01*
X104378536Y13367491D01*
X104137948Y13303025D01*
X103907852Y13207717D01*
X103907840Y13207711D01*
X103692154Y13083184D01*
X103692151Y13083182D01*
X103554943Y12977898D01*
X104414879Y12117961D01*
X104303776Y12043726D01*
X104206274Y11946224D01*
X104132036Y11835118D01*
X103272099Y12695056D01*
X103166822Y12557856D01*
X103166815Y12557845D01*
X103042288Y12342159D01*
X103042282Y12342147D01*
X102946974Y12112051D01*
X102882508Y11871463D01*
X102850000Y11624537D01*
X101149999Y11624537D01*
X101117491Y11871463D01*
X101053025Y12112051D01*
X100957717Y12342147D01*
X100957711Y12342159D01*
X100833184Y12557845D01*
X100833182Y12557848D01*
X100727899Y12695055D01*
X99867962Y11835119D01*
X99793726Y11946224D01*
X99696224Y12043726D01*
X99585119Y12117962D01*
X100445055Y12977899D01*
X100307848Y13083182D01*
X100307845Y13083184D01*
X100092159Y13207711D01*
X100092147Y13207717D01*
X99862051Y13303025D01*
X99621463Y13367491D01*
X99374537Y13399999D01*
X99374528Y13400000D01*
X99125472Y13400000D01*
X99125462Y13399999D01*
X98878536Y13367491D01*
X98637948Y13303025D01*
X98407852Y13207717D01*
X98407840Y13207711D01*
X98192154Y13083184D01*
X98192151Y13083182D01*
X98054943Y12977898D01*
X98914879Y12117961D01*
X98803776Y12043726D01*
X98706274Y11946224D01*
X98632036Y11835118D01*
X97772099Y12695056D01*
X97666822Y12557856D01*
X97666815Y12557845D01*
X97542288Y12342159D01*
X97542282Y12342147D01*
X97446974Y12112051D01*
X97382508Y11871463D01*
X97350000Y11624537D01*
X88649999Y11624537D01*
X88617491Y11871463D01*
X88553025Y12112051D01*
X88457717Y12342147D01*
X88457711Y12342159D01*
X88333184Y12557845D01*
X88333182Y12557848D01*
X88227899Y12695055D01*
X87367962Y11835119D01*
X87293726Y11946224D01*
X87196224Y12043726D01*
X87085119Y12117962D01*
X87945055Y12977899D01*
X87807848Y13083182D01*
X87807845Y13083184D01*
X87592159Y13207711D01*
X87592147Y13207717D01*
X87362051Y13303025D01*
X87121463Y13367491D01*
X86874537Y13399999D01*
X86874528Y13400000D01*
X86625472Y13400000D01*
X86625462Y13399999D01*
X86378536Y13367491D01*
X86137948Y13303025D01*
X85907852Y13207717D01*
X85907840Y13207711D01*
X85692154Y13083184D01*
X85692151Y13083182D01*
X85554943Y12977898D01*
X86414879Y12117961D01*
X86303776Y12043726D01*
X86206274Y11946224D01*
X86132036Y11835118D01*
X85272099Y12695056D01*
X85166822Y12557856D01*
X85166815Y12557845D01*
X85042288Y12342159D01*
X85042282Y12342147D01*
X84946974Y12112051D01*
X84882508Y11871463D01*
X84850000Y11624537D01*
X83149999Y11624537D01*
X83117491Y11871463D01*
X83053025Y12112051D01*
X82957717Y12342147D01*
X82957711Y12342159D01*
X82833184Y12557845D01*
X82833182Y12557848D01*
X82727899Y12695055D01*
X81867962Y11835119D01*
X81793726Y11946224D01*
X81696224Y12043726D01*
X81585119Y12117962D01*
X82445055Y12977899D01*
X82307848Y13083182D01*
X82307845Y13083184D01*
X82092159Y13207711D01*
X82092147Y13207717D01*
X81862051Y13303025D01*
X81621463Y13367491D01*
X81374537Y13399999D01*
X81374528Y13400000D01*
X81125472Y13400000D01*
X81125462Y13399999D01*
X80878536Y13367491D01*
X80637948Y13303025D01*
X80407852Y13207717D01*
X80407840Y13207711D01*
X80192154Y13083184D01*
X80192151Y13083182D01*
X80054943Y12977898D01*
X80914879Y12117961D01*
X80803776Y12043726D01*
X80706274Y11946224D01*
X80632036Y11835118D01*
X79772099Y12695056D01*
X79666822Y12557856D01*
X79666815Y12557845D01*
X79542288Y12342159D01*
X79542282Y12342147D01*
X79446974Y12112051D01*
X79382508Y11871463D01*
X79350000Y11624537D01*
X70649999Y11624537D01*
X70617491Y11871463D01*
X70553025Y12112051D01*
X70457717Y12342147D01*
X70457711Y12342159D01*
X70333184Y12557845D01*
X70333182Y12557848D01*
X70227899Y12695055D01*
X69367962Y11835119D01*
X69293726Y11946224D01*
X69196224Y12043726D01*
X69085119Y12117962D01*
X69945055Y12977899D01*
X69807848Y13083182D01*
X69807845Y13083184D01*
X69592159Y13207711D01*
X69592147Y13207717D01*
X69362051Y13303025D01*
X69121463Y13367491D01*
X68874537Y13399999D01*
X68874528Y13400000D01*
X68625472Y13400000D01*
X68625462Y13399999D01*
X68378536Y13367491D01*
X68137948Y13303025D01*
X67907852Y13207717D01*
X67907840Y13207711D01*
X67692154Y13083184D01*
X67692151Y13083182D01*
X67554943Y12977898D01*
X68414879Y12117961D01*
X68303776Y12043726D01*
X68206274Y11946224D01*
X68132036Y11835118D01*
X67272099Y12695056D01*
X67166822Y12557856D01*
X67166815Y12557845D01*
X67042288Y12342159D01*
X67042282Y12342147D01*
X66946974Y12112051D01*
X66882508Y11871463D01*
X66850000Y11624537D01*
X65149999Y11624537D01*
X65117491Y11871463D01*
X65053025Y12112051D01*
X64957717Y12342147D01*
X64957711Y12342159D01*
X64833184Y12557845D01*
X64833182Y12557848D01*
X64727899Y12695055D01*
X63867962Y11835119D01*
X63793726Y11946224D01*
X63696224Y12043726D01*
X63585119Y12117962D01*
X64445055Y12977899D01*
X64307848Y13083182D01*
X64307845Y13083184D01*
X64092159Y13207711D01*
X64092147Y13207717D01*
X63862051Y13303025D01*
X63621463Y13367491D01*
X63374537Y13399999D01*
X63374528Y13400000D01*
X63125472Y13400000D01*
X63125462Y13399999D01*
X62878536Y13367491D01*
X62637948Y13303025D01*
X62407852Y13207717D01*
X62407840Y13207711D01*
X62192154Y13083184D01*
X62192151Y13083182D01*
X62054943Y12977898D01*
X62914879Y12117961D01*
X62803776Y12043726D01*
X62706274Y11946224D01*
X62632036Y11835118D01*
X61772099Y12695056D01*
X61666822Y12557856D01*
X61666815Y12557845D01*
X61542288Y12342159D01*
X61542282Y12342147D01*
X61446974Y12112051D01*
X61382508Y11871463D01*
X61350000Y11624537D01*
X52649999Y11624537D01*
X52617491Y11871463D01*
X52553025Y12112051D01*
X52457717Y12342147D01*
X52457711Y12342159D01*
X52333184Y12557845D01*
X52333182Y12557848D01*
X52227899Y12695055D01*
X51367962Y11835119D01*
X51293726Y11946224D01*
X51196224Y12043726D01*
X51085119Y12117962D01*
X51945055Y12977899D01*
X51807848Y13083182D01*
X51807845Y13083184D01*
X51592159Y13207711D01*
X51592147Y13207717D01*
X51362051Y13303025D01*
X51121463Y13367491D01*
X50874537Y13399999D01*
X50874528Y13400000D01*
X50625472Y13400000D01*
X50625462Y13399999D01*
X50378536Y13367491D01*
X50137948Y13303025D01*
X49907852Y13207717D01*
X49907840Y13207711D01*
X49692154Y13083184D01*
X49692151Y13083182D01*
X49554943Y12977898D01*
X50414879Y12117961D01*
X50303776Y12043726D01*
X50206274Y11946224D01*
X50132036Y11835118D01*
X49272099Y12695056D01*
X49166822Y12557856D01*
X49166815Y12557845D01*
X49042288Y12342159D01*
X49042282Y12342147D01*
X48946974Y12112051D01*
X48882508Y11871463D01*
X48850000Y11624537D01*
X47149999Y11624537D01*
X47117491Y11871463D01*
X47053025Y12112051D01*
X46957717Y12342147D01*
X46957711Y12342159D01*
X46833184Y12557845D01*
X46833182Y12557848D01*
X46727899Y12695055D01*
X45867962Y11835119D01*
X45793726Y11946224D01*
X45696224Y12043726D01*
X45585119Y12117962D01*
X46445055Y12977899D01*
X46307848Y13083182D01*
X46307845Y13083184D01*
X46092159Y13207711D01*
X46092147Y13207717D01*
X45862051Y13303025D01*
X45621463Y13367491D01*
X45374537Y13399999D01*
X45374528Y13400000D01*
X45125472Y13400000D01*
X45125462Y13399999D01*
X44878536Y13367491D01*
X44637948Y13303025D01*
X44407852Y13207717D01*
X44407840Y13207711D01*
X44192154Y13083184D01*
X44192151Y13083182D01*
X44054943Y12977898D01*
X44914879Y12117961D01*
X44803776Y12043726D01*
X44706274Y11946224D01*
X44632036Y11835118D01*
X43772099Y12695056D01*
X43666822Y12557856D01*
X43666815Y12557845D01*
X43542288Y12342159D01*
X43542282Y12342147D01*
X43446974Y12112051D01*
X43382508Y11871463D01*
X43350000Y11624537D01*
X34649999Y11624537D01*
X34617491Y11871463D01*
X34553025Y12112051D01*
X34457717Y12342147D01*
X34457711Y12342159D01*
X34333184Y12557845D01*
X34333182Y12557848D01*
X34227899Y12695055D01*
X33367962Y11835119D01*
X33293726Y11946224D01*
X33196224Y12043726D01*
X33085119Y12117962D01*
X33945055Y12977899D01*
X33807848Y13083182D01*
X33807845Y13083184D01*
X33592159Y13207711D01*
X33592147Y13207717D01*
X33362051Y13303025D01*
X33121463Y13367491D01*
X32874537Y13399999D01*
X32874528Y13400000D01*
X32625472Y13400000D01*
X32625462Y13399999D01*
X32378536Y13367491D01*
X32137948Y13303025D01*
X31907852Y13207717D01*
X31907840Y13207711D01*
X31692154Y13083184D01*
X31692151Y13083182D01*
X31554943Y12977898D01*
X32414879Y12117961D01*
X32303776Y12043726D01*
X32206274Y11946224D01*
X32132036Y11835118D01*
X31272099Y12695056D01*
X31166822Y12557856D01*
X31166815Y12557845D01*
X31042288Y12342159D01*
X31042282Y12342147D01*
X30946974Y12112051D01*
X30882508Y11871463D01*
X30850000Y11624537D01*
X16408491Y11624537D01*
X16339759Y11672663D01*
X16339758Y11672663D01*
X16339749Y11672670D01*
X16010751Y11862617D01*
X15666450Y12023167D01*
X15666448Y12023168D01*
X15512864Y12079068D01*
X15309467Y12153099D01*
X14942518Y12251423D01*
X14568395Y12317390D01*
X14189947Y12350500D01*
X13810053Y12350500D01*
X13431605Y12317390D01*
X13057482Y12251423D01*
X12690533Y12153099D01*
X12690522Y12153095D01*
X12333551Y12023168D01*
X12168545Y11946224D01*
X11989249Y11862617D01*
X11660251Y11672670D01*
X11660246Y11672666D01*
X11660245Y11672666D01*
X11660240Y11672663D01*
X11349066Y11454777D01*
X11349057Y11454770D01*
X11058055Y11210591D01*
X11058046Y11210583D01*
X10789417Y10941954D01*
X10789408Y10941944D01*
X10545229Y10650942D01*
X10545222Y10650933D01*
X10327336Y10339759D01*
X10327333Y10339754D01*
X10327330Y10339749D01*
X10143936Y10022100D01*
X10137380Y10010745D01*
X9976831Y9666448D01*
X9846904Y9309477D01*
X9846901Y9309468D01*
X9748577Y8942519D01*
X9748573Y8942499D01*
X9682610Y8568397D01*
X9682609Y8568391D01*
X9649500Y8189943D01*
X2500000Y8189943D01*
X2500000Y16631123D01*
X30749500Y16631123D01*
X30749500Y16368876D01*
X30783729Y16108887D01*
X30851603Y15855575D01*
X30951954Y15613307D01*
X30951955Y15613306D01*
X31083078Y15386193D01*
X31242714Y15178153D01*
X31428153Y14992714D01*
X31636193Y14833078D01*
X31863306Y14701955D01*
X31863307Y14701954D01*
X32105575Y14601603D01*
X32358887Y14533729D01*
X32618876Y14499500D01*
X32618880Y14499500D01*
X32881123Y14499500D01*
X33141112Y14533729D01*
X33394424Y14601603D01*
X33636692Y14701954D01*
X33636693Y14701955D01*
X33636695Y14701956D01*
X33636697Y14701957D01*
X33863803Y14833076D01*
X33932229Y14885581D01*
X34071846Y14992714D01*
X34071851Y14992718D01*
X34162214Y15083081D01*
X34224524Y15119056D01*
X34296476Y15119056D01*
X34358788Y15083080D01*
X34394764Y15020768D01*
X34399500Y14984792D01*
X34399500Y14502478D01*
X34388918Y14449283D01*
X34384106Y14437668D01*
X34384104Y14437662D01*
X34349500Y14263690D01*
X34349500Y14086309D01*
X34384105Y13912333D01*
X34384106Y13912330D01*
X34451985Y13748456D01*
X34451988Y13748451D01*
X34550536Y13600965D01*
X34675965Y13475536D01*
X34823451Y13376988D01*
X34823456Y13376985D01*
X34987330Y13309106D01*
X34987333Y13309105D01*
X35136552Y13279424D01*
X35161309Y13274500D01*
X35161310Y13274500D01*
X35338690Y13274500D01*
X35338691Y13274500D01*
X35367554Y13280241D01*
X35512666Y13309105D01*
X35512669Y13309106D01*
X35676543Y13376985D01*
X35676544Y13376986D01*
X35676547Y13376987D01*
X35824035Y13475536D01*
X35949464Y13600965D01*
X36048013Y13748453D01*
X36066324Y13792660D01*
X36115893Y13912330D01*
X36115894Y13912333D01*
X36150500Y14086309D01*
X36150500Y14263690D01*
X36115895Y14437662D01*
X36115893Y14437668D01*
X36111082Y14449283D01*
X36100500Y14502478D01*
X36100500Y16631123D01*
X43249500Y16631123D01*
X43249500Y16368876D01*
X43283729Y16108887D01*
X43351603Y15855575D01*
X43451954Y15613307D01*
X43451955Y15613306D01*
X43583078Y15386193D01*
X43742714Y15178153D01*
X43928153Y14992714D01*
X44136193Y14833078D01*
X44363306Y14701955D01*
X44363307Y14701954D01*
X44605575Y14601603D01*
X44858887Y14533729D01*
X45118876Y14499500D01*
X45118880Y14499500D01*
X45381123Y14499500D01*
X45641112Y14533729D01*
X45894424Y14601603D01*
X46136692Y14701954D01*
X46136693Y14701955D01*
X46136695Y14701956D01*
X46136697Y14701957D01*
X46363803Y14833076D01*
X46432229Y14885581D01*
X46571846Y14992714D01*
X46571851Y14992718D01*
X46757282Y15178149D01*
X46916924Y15386197D01*
X47048043Y15613303D01*
X47148398Y15855581D01*
X47216270Y16108884D01*
X47250500Y16368880D01*
X47250500Y16631120D01*
X47250500Y16631123D01*
X48749500Y16631123D01*
X48749500Y16368876D01*
X48783729Y16108887D01*
X48851603Y15855575D01*
X48951954Y15613307D01*
X48951955Y15613306D01*
X49083078Y15386193D01*
X49242714Y15178153D01*
X49428153Y14992714D01*
X49636193Y14833078D01*
X49863306Y14701955D01*
X49863307Y14701954D01*
X50105575Y14601603D01*
X50358887Y14533729D01*
X50618876Y14499500D01*
X50618880Y14499500D01*
X50881123Y14499500D01*
X51141112Y14533729D01*
X51394424Y14601603D01*
X51636692Y14701954D01*
X51636693Y14701955D01*
X51636695Y14701956D01*
X51636697Y14701957D01*
X51863803Y14833076D01*
X51932229Y14885581D01*
X52075461Y14995488D01*
X52076648Y14993940D01*
X52133420Y15021918D01*
X52205217Y15017192D01*
X52265031Y14977201D01*
X52296837Y14912661D01*
X52299500Y14885581D01*
X52299500Y14502478D01*
X52288918Y14449283D01*
X52284106Y14437668D01*
X52284104Y14437662D01*
X52249500Y14263690D01*
X52249500Y14086309D01*
X52284105Y13912333D01*
X52284106Y13912330D01*
X52351985Y13748456D01*
X52351988Y13748451D01*
X52450536Y13600965D01*
X52575965Y13475536D01*
X52723451Y13376988D01*
X52723456Y13376985D01*
X52887330Y13309106D01*
X52887333Y13309105D01*
X53036552Y13279424D01*
X53061309Y13274500D01*
X53061310Y13274500D01*
X53238690Y13274500D01*
X53238691Y13274500D01*
X53267554Y13280241D01*
X53412666Y13309105D01*
X53412669Y13309106D01*
X53576543Y13376985D01*
X53576544Y13376986D01*
X53576547Y13376987D01*
X53724035Y13475536D01*
X53849464Y13600965D01*
X53948013Y13748453D01*
X53966324Y13792660D01*
X54015893Y13912330D01*
X54015894Y13912333D01*
X54050500Y14086309D01*
X54050500Y14263690D01*
X54015895Y14437662D01*
X54015893Y14437668D01*
X54011082Y14449283D01*
X54000500Y14502478D01*
X54000500Y16631123D01*
X61249500Y16631123D01*
X61249500Y16368876D01*
X61283729Y16108887D01*
X61351603Y15855575D01*
X61451954Y15613307D01*
X61451955Y15613306D01*
X61583078Y15386193D01*
X61742714Y15178153D01*
X61928153Y14992714D01*
X62136193Y14833078D01*
X62363306Y14701955D01*
X62363307Y14701954D01*
X62605575Y14601603D01*
X62858887Y14533729D01*
X63118876Y14499500D01*
X63118880Y14499500D01*
X63381123Y14499500D01*
X63641112Y14533729D01*
X63894424Y14601603D01*
X64136692Y14701954D01*
X64136693Y14701955D01*
X64136695Y14701956D01*
X64136697Y14701957D01*
X64363803Y14833076D01*
X64432229Y14885581D01*
X64571846Y14992714D01*
X64571851Y14992718D01*
X64757282Y15178149D01*
X64916924Y15386197D01*
X65048043Y15613303D01*
X65148398Y15855581D01*
X65216270Y16108884D01*
X65250500Y16368880D01*
X65250500Y16631120D01*
X65250500Y16631123D01*
X66749500Y16631123D01*
X66749500Y16368876D01*
X66783729Y16108887D01*
X66851603Y15855575D01*
X66951954Y15613307D01*
X66951955Y15613306D01*
X67083078Y15386193D01*
X67242714Y15178153D01*
X67428153Y14992714D01*
X67636193Y14833078D01*
X67863306Y14701955D01*
X67863307Y14701954D01*
X68105575Y14601603D01*
X68358887Y14533729D01*
X68618876Y14499500D01*
X68618880Y14499500D01*
X68881123Y14499500D01*
X69141112Y14533729D01*
X69394424Y14601603D01*
X69636692Y14701954D01*
X69636693Y14701955D01*
X69636695Y14701956D01*
X69636697Y14701957D01*
X69863803Y14833076D01*
X69932229Y14885581D01*
X70071846Y14992714D01*
X70071851Y14992718D01*
X70237214Y15158081D01*
X70299524Y15194056D01*
X70371476Y15194056D01*
X70433788Y15158080D01*
X70469764Y15095768D01*
X70474500Y15059792D01*
X70474500Y14477478D01*
X70463918Y14424283D01*
X70459106Y14412668D01*
X70459104Y14412662D01*
X70424500Y14238690D01*
X70424500Y14061309D01*
X70459105Y13887333D01*
X70459106Y13887330D01*
X70526985Y13723456D01*
X70526988Y13723451D01*
X70625536Y13575965D01*
X70750965Y13450536D01*
X70898451Y13351988D01*
X70898456Y13351985D01*
X71062330Y13284106D01*
X71062333Y13284105D01*
X71211552Y13254424D01*
X71236309Y13249500D01*
X71236310Y13249500D01*
X71413690Y13249500D01*
X71413691Y13249500D01*
X71442554Y13255241D01*
X71587666Y13284105D01*
X71587669Y13284106D01*
X71751543Y13351985D01*
X71751544Y13351986D01*
X71751547Y13351987D01*
X71899035Y13450536D01*
X72024464Y13575965D01*
X72123013Y13723453D01*
X72141324Y13767660D01*
X72190893Y13887330D01*
X72190894Y13887333D01*
X72225500Y14061309D01*
X72225500Y14238690D01*
X72190895Y14412662D01*
X72190893Y14412668D01*
X72186082Y14424283D01*
X72175500Y14477478D01*
X72175500Y16631123D01*
X79249500Y16631123D01*
X79249500Y16368876D01*
X79283729Y16108887D01*
X79351603Y15855575D01*
X79451954Y15613307D01*
X79451955Y15613306D01*
X79583078Y15386193D01*
X79742714Y15178153D01*
X79928153Y14992714D01*
X80136193Y14833078D01*
X80363306Y14701955D01*
X80363307Y14701954D01*
X80605575Y14601603D01*
X80858887Y14533729D01*
X81118876Y14499500D01*
X81118880Y14499500D01*
X81381123Y14499500D01*
X81641112Y14533729D01*
X81894424Y14601603D01*
X82136692Y14701954D01*
X82136693Y14701955D01*
X82136695Y14701956D01*
X82136697Y14701957D01*
X82363803Y14833076D01*
X82432229Y14885581D01*
X82571846Y14992714D01*
X82571851Y14992718D01*
X82757282Y15178149D01*
X82916924Y15386197D01*
X83048043Y15613303D01*
X83148398Y15855581D01*
X83216270Y16108884D01*
X83250500Y16368880D01*
X83250500Y16631120D01*
X83250500Y16631123D01*
X84749500Y16631123D01*
X84749500Y16368876D01*
X84783729Y16108887D01*
X84851603Y15855575D01*
X84951954Y15613307D01*
X84951955Y15613306D01*
X85083078Y15386193D01*
X85242714Y15178153D01*
X85428153Y14992714D01*
X85636193Y14833078D01*
X85863306Y14701955D01*
X85863307Y14701954D01*
X86105575Y14601603D01*
X86358887Y14533729D01*
X86618876Y14499500D01*
X86618880Y14499500D01*
X86881123Y14499500D01*
X87141112Y14533729D01*
X87394424Y14601603D01*
X87636692Y14701954D01*
X87636693Y14701955D01*
X87636695Y14701956D01*
X87636697Y14701957D01*
X87863803Y14833076D01*
X87932229Y14885581D01*
X88071846Y14992714D01*
X88071851Y14992718D01*
X88237214Y15158081D01*
X88299524Y15194056D01*
X88371476Y15194056D01*
X88433788Y15158080D01*
X88469764Y15095768D01*
X88474500Y15059792D01*
X88474500Y14502478D01*
X88463918Y14449283D01*
X88459106Y14437668D01*
X88459104Y14437662D01*
X88424500Y14263690D01*
X88424500Y14086309D01*
X88459105Y13912333D01*
X88459106Y13912330D01*
X88526985Y13748456D01*
X88526988Y13748451D01*
X88625536Y13600965D01*
X88750965Y13475536D01*
X88898451Y13376988D01*
X88898456Y13376985D01*
X89062330Y13309106D01*
X89062333Y13309105D01*
X89211552Y13279424D01*
X89236309Y13274500D01*
X89236310Y13274500D01*
X89413690Y13274500D01*
X89413691Y13274500D01*
X89442554Y13280241D01*
X89587666Y13309105D01*
X89587669Y13309106D01*
X89751543Y13376985D01*
X89751544Y13376986D01*
X89751547Y13376987D01*
X89899035Y13475536D01*
X90024464Y13600965D01*
X90123013Y13748453D01*
X90141324Y13792660D01*
X90190893Y13912330D01*
X90190894Y13912333D01*
X90225500Y14086309D01*
X90225500Y14263690D01*
X90190895Y14437662D01*
X90190893Y14437668D01*
X90186082Y14449283D01*
X90175500Y14502478D01*
X90175500Y16631123D01*
X97249500Y16631123D01*
X97249500Y16368876D01*
X97283729Y16108887D01*
X97351603Y15855575D01*
X97451954Y15613307D01*
X97451955Y15613306D01*
X97583078Y15386193D01*
X97742714Y15178153D01*
X97928153Y14992714D01*
X98136193Y14833078D01*
X98363306Y14701955D01*
X98363307Y14701954D01*
X98605575Y14601603D01*
X98858887Y14533729D01*
X99118876Y14499500D01*
X99118880Y14499500D01*
X99381123Y14499500D01*
X99641112Y14533729D01*
X99894424Y14601603D01*
X100136692Y14701954D01*
X100136693Y14701955D01*
X100136695Y14701956D01*
X100136697Y14701957D01*
X100363803Y14833076D01*
X100432229Y14885581D01*
X100571846Y14992714D01*
X100571851Y14992718D01*
X100757282Y15178149D01*
X100916924Y15386197D01*
X101048043Y15613303D01*
X101148398Y15855581D01*
X101216270Y16108884D01*
X101250500Y16368880D01*
X101250500Y16631120D01*
X101250500Y16631123D01*
X102749500Y16631123D01*
X102749500Y16368876D01*
X102783729Y16108887D01*
X102851603Y15855575D01*
X102951954Y15613307D01*
X102951955Y15613306D01*
X103083078Y15386193D01*
X103242714Y15178153D01*
X103428153Y14992714D01*
X103636193Y14833078D01*
X103863306Y14701955D01*
X103863307Y14701954D01*
X104105575Y14601603D01*
X104358887Y14533729D01*
X104618876Y14499500D01*
X104618880Y14499500D01*
X104881123Y14499500D01*
X105141112Y14533729D01*
X105394424Y14601603D01*
X105636692Y14701954D01*
X105636693Y14701955D01*
X105636695Y14701956D01*
X105636697Y14701957D01*
X105863803Y14833076D01*
X105930812Y14884494D01*
X106050882Y14976627D01*
X106117357Y15004162D01*
X106188693Y14994770D01*
X106245776Y14950969D01*
X106273311Y14884494D01*
X106274500Y14866351D01*
X106274500Y14502478D01*
X106263918Y14449283D01*
X106259106Y14437668D01*
X106259104Y14437662D01*
X106224500Y14263690D01*
X106224500Y14086309D01*
X106259105Y13912333D01*
X106259106Y13912330D01*
X106326985Y13748456D01*
X106326988Y13748451D01*
X106425536Y13600965D01*
X106550965Y13475536D01*
X106698451Y13376988D01*
X106698456Y13376985D01*
X106862330Y13309106D01*
X106862333Y13309105D01*
X107011552Y13279424D01*
X107036309Y13274500D01*
X107036310Y13274500D01*
X107213690Y13274500D01*
X107213691Y13274500D01*
X107242554Y13280241D01*
X107387666Y13309105D01*
X107387669Y13309106D01*
X107551543Y13376985D01*
X107551544Y13376986D01*
X107551547Y13376987D01*
X107699035Y13475536D01*
X107824464Y13600965D01*
X107923013Y13748453D01*
X107941324Y13792660D01*
X107990893Y13912330D01*
X107990894Y13912333D01*
X108025500Y14086309D01*
X108025500Y14263690D01*
X107990895Y14437662D01*
X107990893Y14437668D01*
X107986082Y14449283D01*
X107975500Y14502478D01*
X107975500Y16631123D01*
X115249500Y16631123D01*
X115249500Y16368876D01*
X115283729Y16108887D01*
X115351603Y15855575D01*
X115451954Y15613307D01*
X115451955Y15613306D01*
X115583078Y15386193D01*
X115742714Y15178153D01*
X115928153Y14992714D01*
X116136193Y14833078D01*
X116363306Y14701955D01*
X116363307Y14701954D01*
X116605575Y14601603D01*
X116858887Y14533729D01*
X117118876Y14499500D01*
X117118880Y14499500D01*
X117381123Y14499500D01*
X117641112Y14533729D01*
X117894424Y14601603D01*
X118136692Y14701954D01*
X118136693Y14701955D01*
X118136695Y14701956D01*
X118136697Y14701957D01*
X118363803Y14833076D01*
X118432229Y14885581D01*
X118571846Y14992714D01*
X118571851Y14992718D01*
X118757282Y15178149D01*
X118916924Y15386197D01*
X119048043Y15613303D01*
X119148398Y15855581D01*
X119216270Y16108884D01*
X119250500Y16368880D01*
X119250500Y16631120D01*
X119216270Y16891116D01*
X119148398Y17144419D01*
X119048043Y17386697D01*
X118916924Y17613803D01*
X118757282Y17821851D01*
X118571851Y18007282D01*
X118363803Y18166924D01*
X118136697Y18298043D01*
X117894419Y18398398D01*
X117641116Y18466270D01*
X117381120Y18500500D01*
X117118880Y18500500D01*
X116858884Y18466270D01*
X116605581Y18398398D01*
X116605578Y18398396D01*
X116605575Y18398396D01*
X116363307Y18298045D01*
X116363306Y18298044D01*
X116363303Y18298043D01*
X116136197Y18166924D01*
X115928149Y18007282D01*
X115742718Y17821851D01*
X115742714Y17821846D01*
X115591798Y17625169D01*
X115583076Y17613803D01*
X115481191Y17437331D01*
X115451955Y17386693D01*
X115451954Y17386692D01*
X115351603Y17144424D01*
X115283729Y16891112D01*
X115249500Y16631123D01*
X107975500Y16631123D01*
X107975500Y17372519D01*
X107986080Y17425710D01*
X107990893Y17437331D01*
X107990894Y17437333D01*
X108025500Y17611309D01*
X108025500Y17788690D01*
X108020667Y17812985D01*
X107990894Y17962666D01*
X107923013Y18126547D01*
X107824464Y18274035D01*
X107699035Y18399464D01*
X107551547Y18498013D01*
X107428368Y18549035D01*
X107387669Y18565893D01*
X107387666Y18565894D01*
X107213691Y18600500D01*
X107036309Y18600500D01*
X106949321Y18583197D01*
X106862333Y18565894D01*
X106862330Y18565893D01*
X106742660Y18516324D01*
X106698453Y18498013D01*
X106550965Y18399464D01*
X106425536Y18274035D01*
X106335101Y18138690D01*
X106326988Y18126548D01*
X106326985Y18126543D01*
X106296936Y18053998D01*
X106253135Y17996915D01*
X106186660Y17969380D01*
X106115324Y17978772D01*
X106075971Y18005075D01*
X106075274Y18004280D01*
X106071864Y18007268D01*
X106071851Y18007282D01*
X105863803Y18166924D01*
X105636697Y18298043D01*
X105394419Y18398398D01*
X105141116Y18466270D01*
X104881120Y18500500D01*
X104618880Y18500500D01*
X104358884Y18466270D01*
X104105581Y18398398D01*
X104105578Y18398396D01*
X104105575Y18398396D01*
X103863307Y18298045D01*
X103863306Y18298044D01*
X103863303Y18298043D01*
X103636197Y18166924D01*
X103428149Y18007282D01*
X103242718Y17821851D01*
X103242714Y17821846D01*
X103091798Y17625169D01*
X103083076Y17613803D01*
X102981191Y17437331D01*
X102951955Y17386693D01*
X102951954Y17386692D01*
X102851603Y17144424D01*
X102783729Y16891112D01*
X102749500Y16631123D01*
X101250500Y16631123D01*
X101216270Y16891116D01*
X101148398Y17144419D01*
X101048043Y17386697D01*
X100916924Y17613803D01*
X100757282Y17821851D01*
X100571851Y18007282D01*
X100363803Y18166924D01*
X100136697Y18298043D01*
X99894419Y18398398D01*
X99641116Y18466270D01*
X99381120Y18500500D01*
X99118880Y18500500D01*
X98858884Y18466270D01*
X98605581Y18398398D01*
X98605578Y18398396D01*
X98605575Y18398396D01*
X98363307Y18298045D01*
X98363306Y18298044D01*
X98363303Y18298043D01*
X98136197Y18166924D01*
X97928149Y18007282D01*
X97742718Y17821851D01*
X97742714Y17821846D01*
X97591798Y17625169D01*
X97583076Y17613803D01*
X97481191Y17437331D01*
X97451955Y17386693D01*
X97451954Y17386692D01*
X97351603Y17144424D01*
X97283729Y16891112D01*
X97249500Y16631123D01*
X90175500Y16631123D01*
X90175500Y17722519D01*
X90186080Y17775710D01*
X90190893Y17787331D01*
X90190894Y17787333D01*
X90225500Y17961309D01*
X90225500Y18138690D01*
X90215757Y18187669D01*
X90190894Y18312666D01*
X90123013Y18476547D01*
X90024464Y18624035D01*
X89899035Y18749464D01*
X89751547Y18848013D01*
X89631873Y18897582D01*
X89587669Y18915893D01*
X89587666Y18915894D01*
X89413691Y18950500D01*
X89236309Y18950500D01*
X89149321Y18933197D01*
X89062333Y18915894D01*
X89062330Y18915893D01*
X88964813Y18875500D01*
X88898453Y18848013D01*
X88750965Y18749464D01*
X88625536Y18624035D01*
X88541329Y18498011D01*
X88526988Y18476548D01*
X88526985Y18476543D01*
X88459106Y18312669D01*
X88459105Y18312666D01*
X88424500Y18138690D01*
X88424500Y17990208D01*
X88405878Y17920708D01*
X88355000Y17869830D01*
X88285500Y17851208D01*
X88216000Y17869830D01*
X88187216Y17891916D01*
X88071851Y18007282D01*
X87863803Y18166924D01*
X87636697Y18298043D01*
X87394419Y18398398D01*
X87141116Y18466270D01*
X86881120Y18500500D01*
X86618880Y18500500D01*
X86358884Y18466270D01*
X86105581Y18398398D01*
X86105578Y18398396D01*
X86105575Y18398396D01*
X85863307Y18298045D01*
X85863306Y18298044D01*
X85863303Y18298043D01*
X85636197Y18166924D01*
X85428149Y18007282D01*
X85242718Y17821851D01*
X85242714Y17821846D01*
X85091798Y17625169D01*
X85083076Y17613803D01*
X84981191Y17437331D01*
X84951955Y17386693D01*
X84951954Y17386692D01*
X84851603Y17144424D01*
X84783729Y16891112D01*
X84749500Y16631123D01*
X83250500Y16631123D01*
X83216270Y16891116D01*
X83148398Y17144419D01*
X83048043Y17386697D01*
X82916924Y17613803D01*
X82757282Y17821851D01*
X82571851Y18007282D01*
X82363803Y18166924D01*
X82136697Y18298043D01*
X81894419Y18398398D01*
X81641116Y18466270D01*
X81381120Y18500500D01*
X81118880Y18500500D01*
X80858884Y18466270D01*
X80605581Y18398398D01*
X80605578Y18398396D01*
X80605575Y18398396D01*
X80363307Y18298045D01*
X80363306Y18298044D01*
X80363303Y18298043D01*
X80136197Y18166924D01*
X79928149Y18007282D01*
X79742718Y17821851D01*
X79742714Y17821846D01*
X79591798Y17625169D01*
X79583076Y17613803D01*
X79481191Y17437331D01*
X79451955Y17386693D01*
X79451954Y17386692D01*
X79351603Y17144424D01*
X79283729Y16891112D01*
X79249500Y16631123D01*
X72175500Y16631123D01*
X72175500Y17597519D01*
X72186080Y17650710D01*
X72190893Y17662331D01*
X72190894Y17662333D01*
X72225500Y17836309D01*
X72225500Y18013690D01*
X72215554Y18063690D01*
X72190894Y18187666D01*
X72123013Y18351547D01*
X72024464Y18499035D01*
X71899035Y18624464D01*
X71751547Y18723013D01*
X71630833Y18773014D01*
X71587669Y18790893D01*
X71587666Y18790894D01*
X71413691Y18825500D01*
X71236309Y18825500D01*
X71149321Y18808197D01*
X71062333Y18790894D01*
X71062330Y18790893D01*
X70942660Y18741324D01*
X70898453Y18723013D01*
X70750965Y18624464D01*
X70625536Y18499035D01*
X70559004Y18399463D01*
X70526988Y18351548D01*
X70526985Y18351543D01*
X70459106Y18187669D01*
X70459105Y18187666D01*
X70424500Y18013690D01*
X70424500Y17990208D01*
X70405878Y17920708D01*
X70355000Y17869830D01*
X70285500Y17851208D01*
X70216000Y17869830D01*
X70187216Y17891916D01*
X70071851Y18007282D01*
X69863803Y18166924D01*
X69636697Y18298043D01*
X69394419Y18398398D01*
X69141116Y18466270D01*
X68881120Y18500500D01*
X68618880Y18500500D01*
X68358884Y18466270D01*
X68105581Y18398398D01*
X68105578Y18398396D01*
X68105575Y18398396D01*
X67863307Y18298045D01*
X67863306Y18298044D01*
X67863303Y18298043D01*
X67636197Y18166924D01*
X67428149Y18007282D01*
X67242718Y17821851D01*
X67242714Y17821846D01*
X67091798Y17625169D01*
X67083076Y17613803D01*
X66981191Y17437331D01*
X66951955Y17386693D01*
X66951954Y17386692D01*
X66851603Y17144424D01*
X66783729Y16891112D01*
X66749500Y16631123D01*
X65250500Y16631123D01*
X65216270Y16891116D01*
X65148398Y17144419D01*
X65048043Y17386697D01*
X64916924Y17613803D01*
X64757282Y17821851D01*
X64571851Y18007282D01*
X64363803Y18166924D01*
X64136697Y18298043D01*
X63894419Y18398398D01*
X63641116Y18466270D01*
X63381120Y18500500D01*
X63118880Y18500500D01*
X62858884Y18466270D01*
X62605581Y18398398D01*
X62605578Y18398396D01*
X62605575Y18398396D01*
X62363307Y18298045D01*
X62363306Y18298044D01*
X62363303Y18298043D01*
X62136197Y18166924D01*
X61928149Y18007282D01*
X61742718Y17821851D01*
X61742714Y17821846D01*
X61591798Y17625169D01*
X61583076Y17613803D01*
X61481191Y17437331D01*
X61451955Y17386693D01*
X61451954Y17386692D01*
X61351603Y17144424D01*
X61283729Y16891112D01*
X61249500Y16631123D01*
X54000500Y16631123D01*
X54000500Y17647519D01*
X54011080Y17700710D01*
X54015893Y17712331D01*
X54015894Y17712333D01*
X54050500Y17886309D01*
X54050500Y18063690D01*
X54040554Y18113690D01*
X54015894Y18237666D01*
X53948013Y18401547D01*
X53849464Y18549035D01*
X53724035Y18674464D01*
X53576547Y18773013D01*
X53449831Y18825500D01*
X53412669Y18840893D01*
X53412666Y18840894D01*
X53238691Y18875500D01*
X53061309Y18875500D01*
X52974321Y18858197D01*
X52887333Y18840894D01*
X52887330Y18840893D01*
X52767660Y18791324D01*
X52723453Y18773013D01*
X52575965Y18674464D01*
X52450536Y18549035D01*
X52351988Y18401548D01*
X52351985Y18401543D01*
X52284106Y18237669D01*
X52284106Y18237668D01*
X52259849Y18115722D01*
X52228025Y18051190D01*
X52168199Y18011216D01*
X52096402Y18006511D01*
X52038906Y18032561D01*
X51863803Y18166924D01*
X51636697Y18298043D01*
X51394419Y18398398D01*
X51141116Y18466270D01*
X50881120Y18500500D01*
X50618880Y18500500D01*
X50358884Y18466270D01*
X50105581Y18398398D01*
X50105578Y18398396D01*
X50105575Y18398396D01*
X49863307Y18298045D01*
X49863306Y18298044D01*
X49863303Y18298043D01*
X49636197Y18166924D01*
X49428149Y18007282D01*
X49242718Y17821851D01*
X49242714Y17821846D01*
X49091798Y17625169D01*
X49083076Y17613803D01*
X48981191Y17437331D01*
X48951955Y17386693D01*
X48951954Y17386692D01*
X48851603Y17144424D01*
X48783729Y16891112D01*
X48749500Y16631123D01*
X47250500Y16631123D01*
X47216270Y16891116D01*
X47148398Y17144419D01*
X47048043Y17386697D01*
X46916924Y17613803D01*
X46757282Y17821851D01*
X46571851Y18007282D01*
X46363803Y18166924D01*
X46136697Y18298043D01*
X45894419Y18398398D01*
X45641116Y18466270D01*
X45381120Y18500500D01*
X45118880Y18500500D01*
X44858884Y18466270D01*
X44605581Y18398398D01*
X44605578Y18398396D01*
X44605575Y18398396D01*
X44363307Y18298045D01*
X44363306Y18298044D01*
X44363303Y18298043D01*
X44136197Y18166924D01*
X43928149Y18007282D01*
X43742718Y17821851D01*
X43742714Y17821846D01*
X43591798Y17625169D01*
X43583076Y17613803D01*
X43481191Y17437331D01*
X43451955Y17386693D01*
X43451954Y17386692D01*
X43351603Y17144424D01*
X43283729Y16891112D01*
X43249500Y16631123D01*
X36100500Y16631123D01*
X36100500Y17697519D01*
X36111080Y17750710D01*
X36115893Y17762331D01*
X36115894Y17762333D01*
X36150500Y17936309D01*
X36150500Y18113690D01*
X36147943Y18126543D01*
X36115894Y18287666D01*
X36111595Y18298044D01*
X36097582Y18331873D01*
X36048013Y18451547D01*
X35949464Y18599035D01*
X35824035Y18724464D01*
X35676547Y18823013D01*
X35549831Y18875500D01*
X35512669Y18890893D01*
X35512666Y18890894D01*
X35386983Y18915894D01*
X35338691Y18925500D01*
X35161309Y18925500D01*
X35113017Y18915894D01*
X34987333Y18890894D01*
X34987330Y18890893D01*
X34883811Y18848014D01*
X34823453Y18823013D01*
X34675965Y18724464D01*
X34550536Y18599035D01*
X34468692Y18476547D01*
X34451988Y18451548D01*
X34451985Y18451543D01*
X34384106Y18287669D01*
X34384105Y18287666D01*
X34360088Y18166921D01*
X34352057Y18126543D01*
X34349500Y18113690D01*
X34349500Y18065208D01*
X34330878Y17995708D01*
X34280000Y17944830D01*
X34210500Y17926208D01*
X34141000Y17944830D01*
X34112216Y17966916D01*
X34071851Y18007282D01*
X33863803Y18166924D01*
X33636697Y18298043D01*
X33394419Y18398398D01*
X33141116Y18466270D01*
X32881120Y18500500D01*
X32618880Y18500500D01*
X32358884Y18466270D01*
X32105581Y18398398D01*
X32105578Y18398396D01*
X32105575Y18398396D01*
X31863307Y18298045D01*
X31863306Y18298044D01*
X31863303Y18298043D01*
X31636197Y18166924D01*
X31428149Y18007282D01*
X31242718Y17821851D01*
X31242714Y17821846D01*
X31091798Y17625169D01*
X31083076Y17613803D01*
X30981191Y17437331D01*
X30951955Y17386693D01*
X30951954Y17386692D01*
X30851603Y17144424D01*
X30783729Y16891112D01*
X30749500Y16631123D01*
X2500000Y16631123D01*
X2500000Y40717701D01*
X2518622Y40787201D01*
X2569500Y40838079D01*
X2639000Y40856701D01*
X2708500Y40838079D01*
X2737288Y40815989D01*
X6925649Y36627628D01*
X7052664Y36542760D01*
X7052670Y36542757D01*
X7193795Y36484301D01*
X7193799Y36484300D01*
X7343620Y36454500D01*
X7429693Y36454500D01*
X7499193Y36435878D01*
X7542146Y36397203D01*
X7623621Y36285062D01*
X7785065Y36123619D01*
X7785066Y36123618D01*
X7855489Y36072453D01*
X7900769Y36016536D01*
X7912024Y35945470D01*
X7886239Y35878297D01*
X7855489Y35847547D01*
X7785063Y35796379D01*
X7623621Y35634937D01*
X7623618Y35634933D01*
X7623613Y35634927D01*
X7489418Y35450224D01*
X7406640Y35287761D01*
X7385769Y35246799D01*
X7315216Y35029660D01*
X7279500Y34804157D01*
X7279500Y34575843D01*
X7297362Y34463064D01*
X7315216Y34350339D01*
X7385770Y34133198D01*
X7489418Y33929775D01*
X7623613Y33745072D01*
X7623618Y33745066D01*
X7785066Y33583618D01*
X7855489Y33532453D01*
X7900769Y33476536D01*
X7912024Y33405470D01*
X7886239Y33338297D01*
X7855489Y33307547D01*
X7785063Y33256379D01*
X7623621Y33094937D01*
X7623618Y33094933D01*
X7623613Y33094927D01*
X7489418Y32910224D01*
X7413024Y32760291D01*
X7385769Y32706799D01*
X7315216Y32489660D01*
X7279500Y32264157D01*
X7279500Y32035843D01*
X7300936Y31900500D01*
X7315216Y31810339D01*
X7385770Y31593198D01*
X7489418Y31389775D01*
X7623613Y31205072D01*
X7623618Y31205066D01*
X7785066Y31043618D01*
X7855489Y30992453D01*
X7900769Y30936536D01*
X7912024Y30865470D01*
X7886239Y30798297D01*
X7855489Y30767547D01*
X7785063Y30716379D01*
X7623621Y30554937D01*
X7623619Y30554934D01*
X7623618Y30554933D01*
X7623613Y30554927D01*
X7489418Y30370224D01*
X7403698Y30201987D01*
X7385769Y30166799D01*
X7315216Y29949660D01*
X7291987Y29802993D01*
X7279500Y29724154D01*
X7279500Y29495845D01*
X7315216Y29270339D01*
X7385770Y29053198D01*
X7489418Y28849775D01*
X7623613Y28665072D01*
X7623618Y28665066D01*
X7785066Y28503618D01*
X7855489Y28452453D01*
X7900769Y28396536D01*
X7912024Y28325470D01*
X7886239Y28258297D01*
X7855489Y28227547D01*
X7785063Y28176379D01*
X7623621Y28014937D01*
X7623619Y28014934D01*
X7623618Y28014933D01*
X7623613Y28014927D01*
X7489418Y27830224D01*
X7389830Y27634769D01*
X7385769Y27626799D01*
X7315216Y27409660D01*
X7279500Y27184157D01*
X7279500Y26955843D01*
X7292457Y26874038D01*
X7315216Y26730339D01*
X7385770Y26513198D01*
X7489418Y26309775D01*
X7623613Y26125072D01*
X7623618Y26125066D01*
X7623620Y26125063D01*
X7623621Y26125063D01*
X7785063Y25963621D01*
X7785066Y25963618D01*
X7788788Y25959897D01*
X7824764Y25897585D01*
X7829500Y25861609D01*
X7829500Y25581308D01*
X7864104Y25407337D01*
X7864105Y25407332D01*
X7878670Y25372170D01*
X7878678Y25372153D01*
X7880038Y25368870D01*
X7931987Y25243453D01*
X7953837Y25210753D01*
X7959442Y25202364D01*
X7959448Y25202352D01*
X8030531Y25095969D01*
X8975963Y24150536D01*
X9008089Y24129070D01*
X9008098Y24129064D01*
X9012742Y24125962D01*
X9123453Y24051987D01*
X9205393Y24018046D01*
X9212822Y24014968D01*
X9212829Y24014965D01*
X9287334Y23984104D01*
X9287333Y23984104D01*
X9461308Y23949500D01*
X56838692Y23949500D01*
X57012661Y23984103D01*
X57012665Y23984104D01*
X57087166Y24014964D01*
X57087168Y24014965D01*
X57094606Y24018046D01*
X57176547Y24051987D01*
X57287258Y24125962D01*
X57291910Y24129070D01*
X57291915Y24129073D01*
X57324036Y24150536D01*
X57997448Y24823948D01*
X137599500Y24823948D01*
X137599500Y23176051D01*
X137599501Y23176020D01*
X137602316Y23134511D01*
X137602319Y23134490D01*
X137646960Y22954985D01*
X137646964Y22954975D01*
X137729154Y22789253D01*
X137729160Y22789243D01*
X137845056Y22645063D01*
X137845063Y22645056D01*
X137989243Y22529160D01*
X137989253Y22529154D01*
X138154975Y22446964D01*
X138154985Y22446960D01*
X138334490Y22402319D01*
X138334511Y22402316D01*
X138376020Y22399501D01*
X138376040Y22399500D01*
X138376046Y22399500D01*
X138376052Y22399500D01*
X140023948Y22399500D01*
X140023954Y22399500D01*
X140023959Y22399500D01*
X140023979Y22399501D01*
X140065488Y22402316D01*
X140065509Y22402319D01*
X140245014Y22446960D01*
X140245024Y22446964D01*
X140410746Y22529154D01*
X140410756Y22529160D01*
X140554936Y22645056D01*
X140554943Y22645063D01*
X140670839Y22789243D01*
X140670839Y22789244D01*
X140670842Y22789247D01*
X140753037Y22954979D01*
X140753037Y22954981D01*
X140753039Y22954985D01*
X140797680Y23134490D01*
X140797680Y23134496D01*
X140797683Y23134505D01*
X140800500Y23176046D01*
X140800500Y24823954D01*
X140797683Y24865495D01*
X140753624Y25042659D01*
X140753039Y25045014D01*
X140753038Y25045015D01*
X140753037Y25045021D01*
X140670842Y25210753D01*
X140554940Y25354940D01*
X140410753Y25470842D01*
X140245021Y25553037D01*
X140245015Y25553038D01*
X140245014Y25553039D01*
X140065509Y25597680D01*
X140065504Y25597680D01*
X140065495Y25597683D01*
X140023954Y25600500D01*
X138376046Y25600500D01*
X138334505Y25597683D01*
X138334496Y25597680D01*
X138334490Y25597680D01*
X138154985Y25553039D01*
X138154981Y25553037D01*
X138154979Y25553037D01*
X137989247Y25470842D01*
X137989244Y25470839D01*
X137989243Y25470839D01*
X137845063Y25354943D01*
X137845056Y25354936D01*
X137729160Y25210756D01*
X137729154Y25210746D01*
X137646964Y25045024D01*
X137646960Y25045014D01*
X137602319Y24865509D01*
X137602316Y24865488D01*
X137599501Y24823979D01*
X137599500Y24823948D01*
X57997448Y24823948D01*
X58098095Y24924595D01*
X59960657Y26787157D01*
X61800648Y28627148D01*
X110548600Y28627148D01*
X110548600Y28371451D01*
X110581973Y28117964D01*
X110648151Y27870981D01*
X110745993Y27634769D01*
X110745999Y27634757D01*
X110873836Y27413338D01*
X110873838Y27413335D01*
X111029486Y27210491D01*
X111210291Y27029686D01*
X111413135Y26874038D01*
X111413138Y26874036D01*
X111634557Y26746199D01*
X111634569Y26746193D01*
X111870781Y26648351D01*
X112117764Y26582173D01*
X112371251Y26548800D01*
X112371257Y26548800D01*
X112626948Y26548800D01*
X112880435Y26582173D01*
X112880437Y26582173D01*
X112880440Y26582174D01*
X113003926Y26615262D01*
X113127418Y26648351D01*
X113363630Y26746193D01*
X113363642Y26746199D01*
X113585061Y26874036D01*
X113585064Y26874038D01*
X113787908Y27029686D01*
X113787913Y27029690D01*
X113968710Y27210487D01*
X114124361Y27413335D01*
X114247605Y27626799D01*
X114252200Y27634757D01*
X114252206Y27634769D01*
X114350048Y27870981D01*
X114388618Y28014927D01*
X114416226Y28117960D01*
X114449600Y28371457D01*
X114449600Y28627143D01*
X114416226Y28880640D01*
X114350050Y29127613D01*
X114252204Y29363835D01*
X114124361Y29585265D01*
X113968710Y29788113D01*
X113787913Y29968910D01*
X113585065Y30124561D01*
X113363635Y30252404D01*
X113206341Y30317557D01*
X113127418Y30350248D01*
X113127417Y30350248D01*
X113127413Y30350250D01*
X112880440Y30416426D01*
X112626943Y30449800D01*
X112371257Y30449800D01*
X112117760Y30416426D01*
X111870787Y30350250D01*
X111870784Y30350248D01*
X111870781Y30350248D01*
X111634569Y30252406D01*
X111634557Y30252400D01*
X111420205Y30128643D01*
X111413135Y30124561D01*
X111210287Y29968910D01*
X111029490Y29788113D01*
X111029486Y29788108D01*
X110873838Y29585264D01*
X110873836Y29585261D01*
X110745999Y29363842D01*
X110745993Y29363830D01*
X110648151Y29127618D01*
X110581973Y28880635D01*
X110548600Y28627148D01*
X61800648Y28627148D01*
X64299464Y31125964D01*
X64352316Y31205063D01*
X64398013Y31273453D01*
X64441806Y31379179D01*
X64465895Y31437334D01*
X64478261Y31499500D01*
X64500500Y31611308D01*
X64500500Y33746778D01*
X123129500Y33746778D01*
X123129500Y32253221D01*
X123129501Y32253190D01*
X123132233Y32212901D01*
X123132235Y32212891D01*
X123175564Y32038656D01*
X123175567Y32038650D01*
X123255345Y31877793D01*
X123255345Y31877792D01*
X123367841Y31737841D01*
X123507792Y31625345D01*
X123668650Y31545567D01*
X123668656Y31545564D01*
X123842891Y31502235D01*
X123842901Y31502233D01*
X123883190Y31499501D01*
X123883210Y31499500D01*
X123883216Y31499500D01*
X123883222Y31499500D01*
X125576778Y31499500D01*
X125576784Y31499500D01*
X125576789Y31499500D01*
X125576809Y31499501D01*
X125617098Y31502233D01*
X125617108Y31502235D01*
X125791343Y31545564D01*
X125791349Y31545567D01*
X125952206Y31625345D01*
X125952207Y31625345D01*
X125952208Y31625346D01*
X125952210Y31625347D01*
X126092159Y31737841D01*
X126143092Y31801204D01*
X126201148Y31843706D01*
X126272678Y31851485D01*
X126333132Y31826573D01*
X126483836Y31717080D01*
X126694197Y31609897D01*
X126918748Y31536935D01*
X127151950Y31500000D01*
X127388050Y31500000D01*
X127621251Y31536935D01*
X127845802Y31609897D01*
X128056167Y31717082D01*
X128180059Y31807095D01*
X127414352Y32572804D01*
X127443694Y32580667D01*
X127546306Y32639910D01*
X127630090Y32723694D01*
X127689333Y32826306D01*
X127697194Y32855646D01*
X128462902Y32089939D01*
X128462903Y32089939D01*
X128552917Y32213832D01*
X128660102Y32424197D01*
X128733064Y32648748D01*
X128770000Y32881950D01*
X128770000Y33118049D01*
X128733064Y33351251D01*
X128660103Y33575800D01*
X128552914Y33786171D01*
X128462902Y33910059D01*
X127697195Y33144352D01*
X127689333Y33173694D01*
X127630090Y33276306D01*
X127546306Y33360090D01*
X127443694Y33419333D01*
X127414352Y33427195D01*
X128180059Y34192902D01*
X128056171Y34282914D01*
X127845800Y34390103D01*
X127621251Y34463064D01*
X127388050Y34500000D01*
X127151950Y34500000D01*
X126918748Y34463064D01*
X126694197Y34390102D01*
X126483832Y34282917D01*
X126333132Y34173427D01*
X126265960Y34147641D01*
X126194894Y34158897D01*
X126143092Y34198794D01*
X126092159Y34262159D01*
X125952210Y34374653D01*
X125791349Y34454433D01*
X125791345Y34454433D01*
X125791343Y34454435D01*
X125617108Y34497764D01*
X125617100Y34497766D01*
X125576784Y34500500D01*
X123883216Y34500500D01*
X123842900Y34497766D01*
X123842895Y34497764D01*
X123842891Y34497764D01*
X123668656Y34454435D01*
X123668652Y34454433D01*
X123668651Y34454433D01*
X123507790Y34374653D01*
X123367841Y34262159D01*
X123255347Y34122210D01*
X123255345Y34122207D01*
X123255345Y34122206D01*
X123175567Y33961349D01*
X123175564Y33961343D01*
X123132235Y33787108D01*
X123132233Y33787098D01*
X123129501Y33746809D01*
X123129500Y33746778D01*
X64500500Y33746778D01*
X64500500Y44746778D01*
X123129500Y44746778D01*
X123129500Y43253221D01*
X123129501Y43253190D01*
X123132233Y43212901D01*
X123132235Y43212891D01*
X123175564Y43038656D01*
X123175567Y43038650D01*
X123255345Y42877793D01*
X123255345Y42877792D01*
X123367841Y42737841D01*
X123507792Y42625345D01*
X123668650Y42545567D01*
X123668656Y42545564D01*
X123842891Y42502235D01*
X123842901Y42502233D01*
X123883190Y42499501D01*
X123883210Y42499500D01*
X123883216Y42499500D01*
X123883222Y42499500D01*
X125576778Y42499500D01*
X125576784Y42499500D01*
X125576789Y42499500D01*
X125576809Y42499501D01*
X125617098Y42502233D01*
X125617108Y42502235D01*
X125791343Y42545564D01*
X125791349Y42545567D01*
X125952206Y42625345D01*
X125952207Y42625345D01*
X125952208Y42625346D01*
X125952210Y42625347D01*
X126092159Y42737841D01*
X126143092Y42801204D01*
X126201148Y42843706D01*
X126272678Y42851485D01*
X126333132Y42826573D01*
X126483836Y42717080D01*
X126694197Y42609897D01*
X126918748Y42536935D01*
X127151950Y42500000D01*
X127388050Y42500000D01*
X127621251Y42536935D01*
X127845802Y42609897D01*
X128056167Y42717082D01*
X128180059Y42807095D01*
X127414352Y43572804D01*
X127443694Y43580667D01*
X127546306Y43639910D01*
X127630090Y43723694D01*
X127689333Y43826306D01*
X127697194Y43855646D01*
X128462902Y43089939D01*
X128462903Y43089939D01*
X128552917Y43213832D01*
X128660102Y43424197D01*
X128733064Y43648748D01*
X128770000Y43881950D01*
X128770000Y44118049D01*
X128733064Y44351251D01*
X128660103Y44575800D01*
X128552914Y44786171D01*
X128462902Y44910059D01*
X127697195Y44144352D01*
X127689333Y44173694D01*
X127630090Y44276306D01*
X127546306Y44360090D01*
X127443694Y44419333D01*
X127414352Y44427195D01*
X128180059Y45192902D01*
X128056171Y45282914D01*
X127845800Y45390103D01*
X127621251Y45463064D01*
X127388050Y45500000D01*
X127151950Y45500000D01*
X126918748Y45463064D01*
X126694197Y45390102D01*
X126483832Y45282917D01*
X126333132Y45173427D01*
X126265960Y45147641D01*
X126194894Y45158897D01*
X126143092Y45198794D01*
X126092159Y45262159D01*
X125952210Y45374653D01*
X125791349Y45454433D01*
X125791345Y45454433D01*
X125791343Y45454435D01*
X125617108Y45497764D01*
X125617100Y45497766D01*
X125576784Y45500500D01*
X123883216Y45500500D01*
X123842900Y45497766D01*
X123842895Y45497764D01*
X123842891Y45497764D01*
X123668656Y45454435D01*
X123668652Y45454433D01*
X123668651Y45454433D01*
X123507790Y45374653D01*
X123367841Y45262159D01*
X123284837Y45158897D01*
X123255345Y45122207D01*
X123255345Y45122206D01*
X123175567Y44961349D01*
X123175564Y44961343D01*
X123132235Y44787108D01*
X123132233Y44787098D01*
X123129501Y44746809D01*
X123129500Y44746778D01*
X64500500Y44746778D01*
X64500500Y50069424D01*
X64519122Y50138924D01*
X64541212Y50167712D01*
X66082288Y51708788D01*
X66144600Y51744764D01*
X66180576Y51749500D01*
X103638692Y51749500D01*
X103812661Y51784103D01*
X103812665Y51784104D01*
X103887221Y51814987D01*
X103894606Y51818046D01*
X103976547Y51851987D01*
X104085070Y51924500D01*
X104089771Y51927641D01*
X104089787Y51927650D01*
X104124033Y51950533D01*
X107920278Y55746778D01*
X123129500Y55746778D01*
X123129500Y54253221D01*
X123129501Y54253190D01*
X123132233Y54212901D01*
X123132235Y54212891D01*
X123175564Y54038656D01*
X123175567Y54038650D01*
X123255345Y53877793D01*
X123255345Y53877792D01*
X123367841Y53737841D01*
X123507792Y53625345D01*
X123668650Y53545567D01*
X123668656Y53545564D01*
X123842891Y53502235D01*
X123842901Y53502233D01*
X123883190Y53499501D01*
X123883210Y53499500D01*
X123883216Y53499500D01*
X123883222Y53499500D01*
X125576778Y53499500D01*
X125576784Y53499500D01*
X125576789Y53499500D01*
X125576809Y53499501D01*
X125617098Y53502233D01*
X125617108Y53502235D01*
X125791343Y53545564D01*
X125791349Y53545567D01*
X125952206Y53625345D01*
X125952207Y53625345D01*
X125952208Y53625346D01*
X125952210Y53625347D01*
X126092159Y53737841D01*
X126143092Y53801204D01*
X126201148Y53843706D01*
X126272678Y53851485D01*
X126333132Y53826573D01*
X126483836Y53717080D01*
X126694197Y53609897D01*
X126918748Y53536935D01*
X127151950Y53500000D01*
X127388050Y53500000D01*
X127621251Y53536935D01*
X127845802Y53609897D01*
X128056167Y53717082D01*
X128180059Y53807095D01*
X127414352Y54572804D01*
X127443694Y54580667D01*
X127546306Y54639910D01*
X127630090Y54723694D01*
X127689333Y54826306D01*
X127697194Y54855646D01*
X128462902Y54089939D01*
X128462903Y54089939D01*
X128552917Y54213832D01*
X128660102Y54424197D01*
X128733064Y54648748D01*
X128770000Y54881950D01*
X128770000Y55118049D01*
X128733064Y55351251D01*
X128660103Y55575800D01*
X128552914Y55786171D01*
X128462902Y55910059D01*
X127697195Y55144352D01*
X127689333Y55173694D01*
X127630090Y55276306D01*
X127546306Y55360090D01*
X127443694Y55419333D01*
X127414352Y55427195D01*
X128180059Y56192902D01*
X128056171Y56282914D01*
X127845800Y56390103D01*
X127621251Y56463064D01*
X127388050Y56500000D01*
X127151950Y56500000D01*
X126918748Y56463064D01*
X126694197Y56390102D01*
X126483832Y56282917D01*
X126333132Y56173427D01*
X126265960Y56147641D01*
X126194894Y56158897D01*
X126143092Y56198794D01*
X126092159Y56262159D01*
X125952210Y56374653D01*
X125791349Y56454433D01*
X125791345Y56454433D01*
X125791343Y56454435D01*
X125617108Y56497764D01*
X125617100Y56497766D01*
X125576784Y56500500D01*
X123883216Y56500500D01*
X123842900Y56497766D01*
X123842895Y56497764D01*
X123842891Y56497764D01*
X123668656Y56454435D01*
X123668652Y56454433D01*
X123668651Y56454433D01*
X123507790Y56374653D01*
X123367841Y56262159D01*
X123284837Y56158897D01*
X123255345Y56122207D01*
X123255345Y56122206D01*
X123175567Y55961349D01*
X123175564Y55961343D01*
X123132235Y55787108D01*
X123132233Y55787098D01*
X123129501Y55746809D01*
X123129500Y55746778D01*
X107920278Y55746778D01*
X110149462Y57975962D01*
X110149464Y57975964D01*
X110188936Y58035040D01*
X110248013Y58123453D01*
X110284353Y58211187D01*
X110315895Y58287334D01*
X110350500Y58461308D01*
X110350500Y58638692D01*
X110350500Y58926723D01*
X110369122Y58996223D01*
X110420000Y59047101D01*
X110489500Y59065723D01*
X110559000Y59047101D01*
X110609878Y58996223D01*
X110623762Y58962702D01*
X110648150Y58871687D01*
X110648152Y58871680D01*
X110745993Y58635469D01*
X110745999Y58635457D01*
X110873836Y58414038D01*
X110873838Y58414035D01*
X111029486Y58211191D01*
X111210291Y58030386D01*
X111413135Y57874738D01*
X111413138Y57874736D01*
X111634557Y57746899D01*
X111634569Y57746893D01*
X111870781Y57649051D01*
X112117764Y57582873D01*
X112371251Y57549500D01*
X112371257Y57549500D01*
X112626948Y57549500D01*
X112880435Y57582873D01*
X112880437Y57582873D01*
X112880440Y57582874D01*
X113003926Y57615962D01*
X113127418Y57649051D01*
X113363630Y57746893D01*
X113363642Y57746899D01*
X113585061Y57874736D01*
X113585064Y57874738D01*
X113787908Y58030386D01*
X113787913Y58030390D01*
X113968710Y58211187D01*
X114124361Y58414035D01*
X114251419Y58634105D01*
X114252200Y58635457D01*
X114252206Y58635469D01*
X114350048Y58871681D01*
X114350050Y58871687D01*
X114416226Y59118660D01*
X114449600Y59372157D01*
X114449600Y59627843D01*
X114416226Y59881340D01*
X114350050Y60128313D01*
X114252204Y60364535D01*
X114124361Y60585965D01*
X113968710Y60788813D01*
X113787913Y60969610D01*
X113585065Y61125261D01*
X113363635Y61253104D01*
X113127413Y61350950D01*
X112880440Y61417126D01*
X112626943Y61450500D01*
X112371257Y61450500D01*
X112117760Y61417126D01*
X111870787Y61350950D01*
X111870784Y61350948D01*
X111870781Y61350948D01*
X111634569Y61253106D01*
X111634557Y61253100D01*
X111413138Y61125263D01*
X111413135Y61125261D01*
X111210287Y60969610D01*
X111029490Y60788813D01*
X111029486Y60788808D01*
X110873838Y60585964D01*
X110873836Y60585961D01*
X110745999Y60364542D01*
X110745993Y60364530D01*
X110648151Y60128318D01*
X110648150Y60128313D01*
X110623763Y60037300D01*
X110587788Y59974989D01*
X110525476Y59939012D01*
X110453525Y59939012D01*
X110391213Y59974988D01*
X110355236Y60037300D01*
X110350500Y60073276D01*
X110350500Y66888691D01*
X110347611Y66903211D01*
X110346691Y66907838D01*
X110315894Y67062666D01*
X110286555Y67133497D01*
X110248013Y67226547D01*
X110149464Y67374035D01*
X110087840Y67435659D01*
X113699500Y67435659D01*
X113699500Y66484350D01*
X113705594Y66406910D01*
X113729721Y66316865D01*
X113753847Y66226825D01*
X113753849Y66226821D01*
X113838489Y66060705D01*
X113955817Y65915817D01*
X114100705Y65798489D01*
X114266821Y65713849D01*
X114266823Y65713848D01*
X114446908Y65665595D01*
X114446911Y65665594D01*
X114524340Y65659500D01*
X114524349Y65659500D01*
X115475649Y65659500D01*
X115553089Y65665594D01*
X115591147Y65675791D01*
X115733177Y65713848D01*
X115899294Y65798489D01*
X116044183Y65915817D01*
X116161511Y66060706D01*
X116227361Y66189943D01*
X131649500Y66189943D01*
X131649500Y65810056D01*
X131682609Y65431608D01*
X131682610Y65431602D01*
X131748573Y65057500D01*
X131748577Y65057480D01*
X131846901Y64690531D01*
X131846904Y64690522D01*
X131976831Y64333551D01*
X132137380Y63989254D01*
X132327333Y63660245D01*
X132327336Y63660240D01*
X132545222Y63349066D01*
X132545229Y63349057D01*
X132789408Y63058055D01*
X133058055Y62789408D01*
X133349057Y62545229D01*
X133349066Y62545222D01*
X133660240Y62327336D01*
X133660245Y62327333D01*
X133989254Y62137380D01*
X134333551Y61976831D01*
X134690522Y61846904D01*
X134690531Y61846901D01*
X135057480Y61748577D01*
X135057500Y61748573D01*
X135431602Y61682610D01*
X135431608Y61682609D01*
X135710726Y61658190D01*
X135810053Y61649500D01*
X135810056Y61649500D01*
X136189944Y61649500D01*
X136189947Y61649500D01*
X136298797Y61659023D01*
X136568391Y61682609D01*
X136568397Y61682610D01*
X136942499Y61748573D01*
X136942519Y61748577D01*
X137309468Y61846901D01*
X137309477Y61846904D01*
X137666448Y61976831D01*
X138010745Y62137380D01*
X138010746Y62137381D01*
X138010751Y62137383D01*
X138339749Y62327330D01*
X138339754Y62327333D01*
X138339759Y62327336D01*
X138650933Y62545222D01*
X138650942Y62545229D01*
X138941944Y62789408D01*
X138941954Y62789417D01*
X139210583Y63058046D01*
X139210591Y63058055D01*
X139454770Y63349057D01*
X139454777Y63349066D01*
X139672663Y63660240D01*
X139672666Y63660245D01*
X139672666Y63660246D01*
X139672670Y63660251D01*
X139862617Y63989249D01*
X139928945Y64131491D01*
X140023168Y64333551D01*
X140153095Y64690522D01*
X140153098Y64690531D01*
X140251422Y65057480D01*
X140251423Y65057482D01*
X140317390Y65431605D01*
X140350500Y65810053D01*
X140350500Y66189947D01*
X140317390Y66568395D01*
X140251423Y66942518D01*
X140153099Y67309467D01*
X140047550Y67599460D01*
X140023168Y67666448D01*
X139992622Y67731953D01*
X139862617Y68010751D01*
X139672670Y68339749D01*
X139454772Y68650940D01*
X139210581Y68941956D01*
X138941956Y69210581D01*
X138650940Y69454772D01*
X138339749Y69672670D01*
X138010751Y69862617D01*
X137666450Y70023167D01*
X137666448Y70023168D01*
X137512864Y70079068D01*
X137309467Y70153099D01*
X136942518Y70251423D01*
X136568395Y70317390D01*
X136189947Y70350500D01*
X135810053Y70350500D01*
X135431605Y70317390D01*
X135057482Y70251423D01*
X134690533Y70153099D01*
X134690522Y70153095D01*
X134333551Y70023168D01*
X134248316Y69983422D01*
X133989249Y69862617D01*
X133660251Y69672670D01*
X133660246Y69672666D01*
X133660245Y69672666D01*
X133660240Y69672663D01*
X133349066Y69454777D01*
X133349057Y69454770D01*
X133058055Y69210591D01*
X133058046Y69210583D01*
X132789417Y68941954D01*
X132789408Y68941944D01*
X132545229Y68650942D01*
X132545222Y68650933D01*
X132327336Y68339759D01*
X132327333Y68339754D01*
X132327330Y68339749D01*
X132195047Y68110627D01*
X132137380Y68010745D01*
X131976831Y67666448D01*
X131846904Y67309477D01*
X131846901Y67309468D01*
X131748577Y66942519D01*
X131748573Y66942499D01*
X131686229Y66588919D01*
X131682610Y66568395D01*
X131652727Y66226823D01*
X131649500Y66189943D01*
X116227361Y66189943D01*
X116246152Y66226823D01*
X116294405Y66406908D01*
X116300500Y66484349D01*
X116300499Y67435650D01*
X116294405Y67513092D01*
X116246152Y67693177D01*
X116161511Y67859294D01*
X116044183Y68004183D01*
X115899294Y68121511D01*
X115733177Y68206152D01*
X115553092Y68254405D01*
X115475651Y68260500D01*
X114524350Y68260499D01*
X114446908Y68254405D01*
X114266823Y68206152D01*
X114100706Y68121511D01*
X113955817Y68004183D01*
X113838489Y67859294D01*
X113753848Y67693177D01*
X113728738Y67599464D01*
X113705595Y67513091D01*
X113705594Y67513088D01*
X113699500Y67435659D01*
X110087840Y67435659D01*
X110049463Y67474036D01*
X109924036Y67599464D01*
X109864959Y67638936D01*
X109776547Y67698013D01*
X109694606Y67731953D01*
X109612666Y67765895D01*
X109612662Y67765895D01*
X109612662Y67765896D01*
X109438692Y67800500D01*
X109261308Y67800500D01*
X109087337Y67765896D01*
X109087335Y67765895D01*
X109087334Y67765895D01*
X109005393Y67731953D01*
X108923453Y67698013D01*
X108835040Y67638936D01*
X108775964Y67599464D01*
X108775963Y67599463D01*
X108775959Y67599460D01*
X108689592Y67513092D01*
X108650536Y67474036D01*
X108624888Y67435651D01*
X108551987Y67326547D01*
X108532367Y67279179D01*
X108528755Y67270459D01*
X108528752Y67270454D01*
X108484105Y67162668D01*
X108484103Y67162662D01*
X108449500Y66988691D01*
X108449500Y66811308D01*
X108484103Y66637337D01*
X108484105Y66637331D01*
X108512661Y66568394D01*
X108538919Y66505002D01*
X108549500Y66451809D01*
X108549500Y65939500D01*
X108530878Y65870000D01*
X108480000Y65819122D01*
X108410500Y65800500D01*
X104809865Y65800500D01*
X104740365Y65819122D01*
X104711577Y65841212D01*
X104145878Y66406911D01*
X102442162Y68110627D01*
X102302863Y68203704D01*
X102189886Y68250500D01*
X102148082Y68267816D01*
X102148079Y68267816D01*
X102148078Y68267817D01*
X101983767Y68300500D01*
X93152480Y68300500D01*
X93099286Y68311081D01*
X93097319Y68311895D01*
X93087666Y68315894D01*
X92913691Y68350500D01*
X92736309Y68350500D01*
X92649321Y68333197D01*
X92562333Y68315894D01*
X92562330Y68315893D01*
X92446265Y68267817D01*
X92398453Y68248013D01*
X92250965Y68149464D01*
X92125536Y68024035D01*
X92112271Y68004182D01*
X92026988Y67876548D01*
X92026985Y67876543D01*
X91959106Y67712669D01*
X91959105Y67712666D01*
X91924500Y67538690D01*
X91924500Y67361309D01*
X91959105Y67187333D01*
X91959106Y67187330D01*
X92026985Y67023456D01*
X92026988Y67023451D01*
X92125536Y66875965D01*
X92250965Y66750536D01*
X92398451Y66651988D01*
X92398456Y66651985D01*
X92562330Y66584106D01*
X92562333Y66584105D01*
X92711552Y66554424D01*
X92736309Y66549500D01*
X92736310Y66549500D01*
X92913690Y66549500D01*
X92913691Y66549500D01*
X92960385Y66558788D01*
X93087665Y66584105D01*
X93099286Y66588919D01*
X93152480Y66599500D01*
X101490135Y66599500D01*
X101559635Y66580878D01*
X101588423Y66558788D01*
X103518788Y64628423D01*
X103554764Y64566111D01*
X103559500Y64530135D01*
X103559500Y64171291D01*
X103540878Y64101791D01*
X103502203Y64058839D01*
X103482490Y64044517D01*
X103482486Y64044513D01*
X103315482Y63877509D01*
X103302454Y63859577D01*
X103246538Y63814296D01*
X103175472Y63803039D01*
X103108299Y63828824D01*
X103077546Y63859577D01*
X103064517Y63877510D01*
X102897510Y64044517D01*
X102706433Y64183343D01*
X102495992Y64290568D01*
X102271368Y64363553D01*
X102038092Y64400500D01*
X101801908Y64400500D01*
X101568632Y64363553D01*
X101344008Y64290568D01*
X101252505Y64243945D01*
X101133570Y64183345D01*
X100942492Y64044519D01*
X100775482Y63877509D01*
X100762454Y63859577D01*
X100706538Y63814296D01*
X100635472Y63803039D01*
X100568299Y63828824D01*
X100537546Y63859577D01*
X100524517Y63877510D01*
X100357510Y64044517D01*
X100166433Y64183343D01*
X99955992Y64290568D01*
X99731368Y64363553D01*
X99498092Y64400500D01*
X99261908Y64400500D01*
X99028632Y64363553D01*
X98804008Y64290568D01*
X98712505Y64243945D01*
X98593570Y64183345D01*
X98402492Y64044519D01*
X98235480Y63877507D01*
X98160340Y63774085D01*
X98104424Y63728804D01*
X98033358Y63717548D01*
X97966185Y63743334D01*
X97935432Y63774087D01*
X97907857Y63812041D01*
X97752042Y63967856D01*
X97752035Y63967862D01*
X97573763Y64097384D01*
X97377414Y64197429D01*
X97167839Y64265525D01*
X97040000Y64285772D01*
X97040000Y62989929D01*
X96909118Y63025000D01*
X96770882Y63025000D01*
X96640000Y62989929D01*
X96640000Y64285773D01*
X96512160Y64265525D01*
X96302585Y64197429D01*
X96106236Y64097384D01*
X95927964Y63967862D01*
X95927957Y63967856D01*
X95772142Y63812041D01*
X95744565Y63774085D01*
X95688647Y63728805D01*
X95617581Y63717550D01*
X95550409Y63743335D01*
X95519662Y63774081D01*
X95444517Y63877510D01*
X95277510Y64044517D01*
X95086433Y64183343D01*
X94875992Y64290568D01*
X94651368Y64363553D01*
X94418092Y64400500D01*
X94181908Y64400500D01*
X93948632Y64363553D01*
X93724008Y64290568D01*
X93632505Y64243945D01*
X93513570Y64183345D01*
X93322492Y64044519D01*
X93155482Y63877509D01*
X93142454Y63859577D01*
X93086538Y63814296D01*
X93015472Y63803039D01*
X92948299Y63828824D01*
X92917546Y63859577D01*
X92904517Y63877510D01*
X92737510Y64044517D01*
X92546433Y64183343D01*
X92335992Y64290568D01*
X92111368Y64363553D01*
X91878092Y64400500D01*
X91641908Y64400500D01*
X91408632Y64363553D01*
X91184008Y64290568D01*
X91092505Y64243945D01*
X90973570Y64183345D01*
X90782492Y64044519D01*
X90615482Y63877509D01*
X90602454Y63859577D01*
X90546538Y63814296D01*
X90475472Y63803039D01*
X90408299Y63828824D01*
X90377546Y63859577D01*
X90364517Y63877510D01*
X90197510Y64044517D01*
X90006433Y64183343D01*
X89795992Y64290568D01*
X89571368Y64363553D01*
X89338092Y64400500D01*
X89101908Y64400500D01*
X88868632Y64363553D01*
X88644008Y64290568D01*
X88552505Y64243945D01*
X88433570Y64183345D01*
X88242492Y64044519D01*
X88075482Y63877509D01*
X88062454Y63859577D01*
X88006538Y63814296D01*
X87935472Y63803039D01*
X87868299Y63828824D01*
X87837546Y63859577D01*
X87824517Y63877510D01*
X87657510Y64044517D01*
X87466433Y64183343D01*
X87255992Y64290568D01*
X87031368Y64363553D01*
X86798092Y64400500D01*
X86561908Y64400500D01*
X86328632Y64363553D01*
X86104008Y64290568D01*
X86012505Y64243945D01*
X85893570Y64183345D01*
X85702492Y64044519D01*
X85535482Y63877509D01*
X85522454Y63859577D01*
X85466538Y63814296D01*
X85395472Y63803039D01*
X85328299Y63828824D01*
X85297546Y63859577D01*
X85284517Y63877510D01*
X85117510Y64044517D01*
X84926433Y64183343D01*
X84715992Y64290568D01*
X84491368Y64363553D01*
X84258092Y64400500D01*
X84021908Y64400500D01*
X83788632Y64363553D01*
X83564008Y64290568D01*
X83472505Y64243945D01*
X83353570Y64183345D01*
X83162492Y64044519D01*
X82995482Y63877509D01*
X82982454Y63859577D01*
X82926538Y63814296D01*
X82855472Y63803039D01*
X82788299Y63828824D01*
X82757546Y63859577D01*
X82744517Y63877510D01*
X82577510Y64044517D01*
X82386433Y64183343D01*
X82175992Y64290568D01*
X81951368Y64363553D01*
X81718092Y64400500D01*
X81481908Y64400500D01*
X81248632Y64363553D01*
X81024008Y64290568D01*
X80932505Y64243945D01*
X80813570Y64183345D01*
X80622492Y64044519D01*
X80455482Y63877509D01*
X80442454Y63859577D01*
X80386538Y63814296D01*
X80315472Y63803039D01*
X80248299Y63828824D01*
X80217546Y63859577D01*
X80204517Y63877510D01*
X80037510Y64044517D01*
X79846433Y64183343D01*
X79635992Y64290568D01*
X79411368Y64363553D01*
X79178092Y64400500D01*
X78941908Y64400500D01*
X78708632Y64363553D01*
X78484008Y64290568D01*
X78392505Y64243945D01*
X78273570Y64183345D01*
X78082492Y64044519D01*
X77915482Y63877509D01*
X77902454Y63859577D01*
X77846538Y63814296D01*
X77775472Y63803039D01*
X77708299Y63828824D01*
X77677546Y63859577D01*
X77664517Y63877510D01*
X77497510Y64044517D01*
X77306433Y64183343D01*
X77095992Y64290568D01*
X76871368Y64363553D01*
X76638092Y64400500D01*
X76401908Y64400500D01*
X76168632Y64363553D01*
X75944008Y64290568D01*
X75852505Y64243945D01*
X75733570Y64183345D01*
X75542492Y64044519D01*
X75375482Y63877509D01*
X75362454Y63859577D01*
X75306538Y63814296D01*
X75235472Y63803039D01*
X75168299Y63828824D01*
X75137546Y63859577D01*
X75124517Y63877510D01*
X74957510Y64044517D01*
X74766433Y64183343D01*
X74555992Y64290568D01*
X74331368Y64363553D01*
X74098092Y64400500D01*
X73861908Y64400500D01*
X73628632Y64363553D01*
X73404008Y64290568D01*
X73312505Y64243945D01*
X73193570Y64183345D01*
X73002492Y64044519D01*
X72835482Y63877509D01*
X72822454Y63859577D01*
X72766538Y63814296D01*
X72695472Y63803039D01*
X72628299Y63828824D01*
X72597546Y63859577D01*
X72584517Y63877510D01*
X72417510Y64044517D01*
X72297794Y64131495D01*
X72252517Y64187408D01*
X72240500Y64243945D01*
X72240500Y69602352D01*
X111159500Y69602352D01*
X111159500Y69397647D01*
X111191523Y69195465D01*
X111254781Y69000778D01*
X111347710Y68818393D01*
X111468034Y68652780D01*
X111612780Y68508034D01*
X111778393Y68387710D01*
X111960778Y68294781D01*
X112155465Y68231523D01*
X112357647Y68199500D01*
X112357648Y68199500D01*
X112562352Y68199500D01*
X112764534Y68231523D01*
X112834954Y68254404D01*
X112959219Y68294780D01*
X112970445Y68300500D01*
X113141606Y68387710D01*
X113307219Y68508034D01*
X113451965Y68652780D01*
X113572289Y68818393D01*
X113635247Y68941956D01*
X113665220Y69000781D01*
X113728477Y69195466D01*
X113760500Y69397648D01*
X113760500Y69602352D01*
X113728477Y69804534D01*
X113665220Y69999219D01*
X113572287Y70181610D01*
X113451966Y70347219D01*
X113307219Y70491966D01*
X113141610Y70612287D01*
X112959219Y70705220D01*
X112764534Y70768477D01*
X112562352Y70800500D01*
X112357648Y70800500D01*
X112155466Y70768477D01*
X111960781Y70705220D01*
X111869585Y70658753D01*
X111778393Y70612289D01*
X111612780Y70491965D01*
X111468034Y70347219D01*
X111347710Y70181606D01*
X111267475Y70024134D01*
X111254780Y69999219D01*
X111230940Y69925846D01*
X111191523Y69804534D01*
X111159500Y69602352D01*
X72240500Y69602352D01*
X72240500Y69925846D01*
X72259122Y69995346D01*
X72281212Y70024134D01*
X74299120Y72042042D01*
X74344215Y72072173D01*
X74476543Y72126985D01*
X74476544Y72126986D01*
X74476547Y72126987D01*
X74624035Y72225536D01*
X74749464Y72350965D01*
X74848013Y72498453D01*
X74866324Y72542660D01*
X74915893Y72662330D01*
X74915894Y72662333D01*
X74950500Y72836309D01*
X74950500Y72861000D01*
X74969122Y72930500D01*
X75020000Y72981378D01*
X75089500Y73000000D01*
X113941396Y73000000D01*
X114010896Y72981378D01*
G37*
%TD.AperFunction*%
%TA.AperFunction,Conductor*%
G36*
X10804075Y26877007D02*
G01*
X10869901Y26762993D01*
X10962993Y26669901D01*
X11077007Y26604075D01*
X11084823Y26601980D01*
X10467327Y25984483D01*
X10468392Y25970943D01*
X10488562Y25946038D01*
X10499819Y25874973D01*
X10474035Y25807800D01*
X10418118Y25762518D01*
X10361580Y25750500D01*
X9980576Y25750500D01*
X9962899Y25755236D01*
X9944601Y25755236D01*
X9928753Y25764385D01*
X9911076Y25769122D01*
X9882289Y25791212D01*
X9790696Y25882804D01*
X9754720Y25945115D01*
X9754719Y26017067D01*
X9790695Y26079379D01*
X9836379Y26125063D01*
X9949659Y26280978D01*
X10005576Y26326259D01*
X10076642Y26337515D01*
X10143814Y26311729D01*
X10174566Y26280978D01*
X10184483Y26267327D01*
X10801980Y26884823D01*
X10804075Y26877007D01*
G37*
%TD.AperFunction*%
%TA.AperFunction,Conductor*%
G36*
X72726846Y72981378D02*
G01*
X72777724Y72930500D01*
X72796346Y72861000D01*
X72777724Y72791500D01*
X72755634Y72762712D01*
X70929711Y70936789D01*
X70929710Y70936789D01*
X70818213Y70825291D01*
X70818209Y70825286D01*
X70730609Y70694184D01*
X70730602Y70694171D01*
X70670263Y70548500D01*
X70670262Y70548497D01*
X70639500Y70393841D01*
X70639500Y64243945D01*
X70620878Y64174445D01*
X70582206Y64131495D01*
X70462490Y64044517D01*
X70462486Y64044513D01*
X70462485Y64044512D01*
X70295480Y63877507D01*
X70220340Y63774085D01*
X70164424Y63728804D01*
X70093358Y63717548D01*
X70026185Y63743334D01*
X69995432Y63774087D01*
X69967857Y63812041D01*
X69812042Y63967856D01*
X69812035Y63967862D01*
X69633763Y64097384D01*
X69437414Y64197429D01*
X69227839Y64265525D01*
X69100000Y64285772D01*
X69100000Y62989929D01*
X68969118Y63025000D01*
X68830882Y63025000D01*
X68700000Y62989929D01*
X68700000Y64285773D01*
X68572160Y64265525D01*
X68362585Y64197429D01*
X68166236Y64097384D01*
X67987964Y63967862D01*
X67987957Y63967856D01*
X67832143Y63812042D01*
X67832137Y63812035D01*
X67702615Y63633763D01*
X67602570Y63437414D01*
X67534474Y63227838D01*
X67500000Y63010178D01*
X67500000Y62700000D01*
X68410070Y62700000D01*
X68375000Y62569118D01*
X68375000Y62430882D01*
X68410070Y62300000D01*
X67500000Y62300000D01*
X67500000Y61989821D01*
X67534474Y61772161D01*
X67602570Y61562585D01*
X67702615Y61366236D01*
X67832137Y61187964D01*
X67832143Y61187957D01*
X67987957Y61032143D01*
X67987964Y61032137D01*
X68166236Y60902615D01*
X68362586Y60802569D01*
X68572165Y60734473D01*
X68700000Y60714225D01*
X68700000Y62010070D01*
X68830882Y61975000D01*
X68969118Y61975000D01*
X69100000Y62010070D01*
X69100000Y60714225D01*
X69227834Y60734473D01*
X69437413Y60802569D01*
X69633763Y60902615D01*
X69812035Y61032137D01*
X69812042Y61032143D01*
X69967855Y61187956D01*
X69995433Y61225914D01*
X70051350Y61271195D01*
X70122416Y61282451D01*
X70189589Y61256666D01*
X70220340Y61225914D01*
X70295480Y61122492D01*
X70462492Y60955480D01*
X70653570Y60816654D01*
X70864005Y60709433D01*
X71088635Y60636446D01*
X71138512Y60628546D01*
X71204242Y60599280D01*
X71246534Y60541069D01*
X71254053Y60469511D01*
X71224787Y60403781D01*
X71169957Y60362839D01*
X71013460Y60298016D01*
X71013453Y60298013D01*
X70865965Y60199464D01*
X70740536Y60074035D01*
X70650316Y59939012D01*
X70641988Y59926548D01*
X70641985Y59926543D01*
X70574106Y59762669D01*
X70574105Y59762666D01*
X70539500Y59588690D01*
X70539500Y59411309D01*
X70574105Y59237333D01*
X70574106Y59237330D01*
X70641985Y59073456D01*
X70641988Y59073451D01*
X70740536Y58925965D01*
X70865965Y58800536D01*
X71013451Y58701988D01*
X71013456Y58701985D01*
X71177330Y58634106D01*
X71177333Y58634105D01*
X71326552Y58604424D01*
X71351309Y58599500D01*
X71351310Y58599500D01*
X71528690Y58599500D01*
X71528691Y58599500D01*
X71557554Y58605241D01*
X71702666Y58634105D01*
X71702669Y58634106D01*
X71866543Y58701985D01*
X71866544Y58701986D01*
X71866547Y58701987D01*
X72014035Y58800536D01*
X72139464Y58925965D01*
X72238013Y59073453D01*
X72256740Y59118664D01*
X72305893Y59237330D01*
X72305894Y59237333D01*
X72340500Y59411309D01*
X72340500Y59588690D01*
X72305894Y59762666D01*
X72305893Y59762669D01*
X72256738Y59881340D01*
X72238013Y59926547D01*
X72139464Y60074035D01*
X72014035Y60199464D01*
X71866547Y60298013D01*
X71710039Y60362839D01*
X71652958Y60406639D01*
X71625423Y60473114D01*
X71634814Y60544450D01*
X71678615Y60601534D01*
X71741488Y60628546D01*
X71791362Y60636446D01*
X71791364Y60636446D01*
X71791366Y60636446D01*
X71791368Y60636447D01*
X72015992Y60709432D01*
X72065138Y60734473D01*
X72226429Y60816654D01*
X72417507Y60955480D01*
X72494170Y61032143D01*
X72584517Y61122490D01*
X72597547Y61140424D01*
X72653465Y61185704D01*
X72724531Y61196959D01*
X72791703Y61171174D01*
X72822453Y61140424D01*
X72835480Y61122493D01*
X72835481Y61122492D01*
X73002492Y60955480D01*
X73193570Y60816654D01*
X73404005Y60709433D01*
X73628635Y60636446D01*
X73678512Y60628546D01*
X73744242Y60599280D01*
X73786534Y60541069D01*
X73794053Y60469511D01*
X73764787Y60403781D01*
X73709957Y60362839D01*
X73553460Y60298016D01*
X73553453Y60298013D01*
X73405965Y60199464D01*
X73280536Y60074035D01*
X73190316Y59939012D01*
X73181988Y59926548D01*
X73181985Y59926543D01*
X73114106Y59762669D01*
X73114105Y59762666D01*
X73079500Y59588690D01*
X73079500Y59411309D01*
X73114105Y59237333D01*
X73114106Y59237330D01*
X73181985Y59073456D01*
X73181988Y59073451D01*
X73280536Y58925965D01*
X73405965Y58800536D01*
X73553451Y58701988D01*
X73553456Y58701985D01*
X73717330Y58634106D01*
X73717333Y58634105D01*
X73866552Y58604424D01*
X73891309Y58599500D01*
X73891310Y58599500D01*
X74068690Y58599500D01*
X74068691Y58599500D01*
X74097554Y58605241D01*
X74242666Y58634105D01*
X74242669Y58634106D01*
X74406543Y58701985D01*
X74406544Y58701986D01*
X74406547Y58701987D01*
X74554035Y58800536D01*
X74679464Y58925965D01*
X74778013Y59073453D01*
X74796740Y59118664D01*
X74845893Y59237330D01*
X74845894Y59237333D01*
X74880500Y59411309D01*
X74880500Y59588690D01*
X74845894Y59762666D01*
X74845893Y59762669D01*
X74796738Y59881340D01*
X74778013Y59926547D01*
X74679464Y60074035D01*
X74554035Y60199464D01*
X74406547Y60298013D01*
X74250039Y60362839D01*
X74192958Y60406639D01*
X74165423Y60473114D01*
X74174814Y60544450D01*
X74218615Y60601534D01*
X74281488Y60628546D01*
X74331362Y60636446D01*
X74331364Y60636446D01*
X74331366Y60636446D01*
X74331368Y60636447D01*
X74555992Y60709432D01*
X74605138Y60734473D01*
X74766429Y60816654D01*
X74957507Y60955480D01*
X75034170Y61032143D01*
X75124517Y61122490D01*
X75137547Y61140424D01*
X75193465Y61185704D01*
X75264531Y61196959D01*
X75331703Y61171174D01*
X75362453Y61140424D01*
X75375480Y61122493D01*
X75375481Y61122492D01*
X75542492Y60955480D01*
X75733570Y60816654D01*
X75944005Y60709433D01*
X76168635Y60636446D01*
X76218512Y60628546D01*
X76284242Y60599280D01*
X76326534Y60541069D01*
X76334053Y60469511D01*
X76304787Y60403781D01*
X76249957Y60362839D01*
X76093460Y60298016D01*
X76093453Y60298013D01*
X75945965Y60199464D01*
X75820536Y60074035D01*
X75730316Y59939012D01*
X75721988Y59926548D01*
X75721985Y59926543D01*
X75654106Y59762669D01*
X75654105Y59762666D01*
X75619500Y59588690D01*
X75619500Y59411309D01*
X75654105Y59237333D01*
X75654106Y59237330D01*
X75721985Y59073456D01*
X75721988Y59073451D01*
X75820536Y58925965D01*
X75945965Y58800536D01*
X76093451Y58701988D01*
X76093456Y58701985D01*
X76257330Y58634106D01*
X76257333Y58634105D01*
X76406552Y58604424D01*
X76431309Y58599500D01*
X76431310Y58599500D01*
X76608690Y58599500D01*
X76608691Y58599500D01*
X76637554Y58605241D01*
X76782666Y58634105D01*
X76782669Y58634106D01*
X76946543Y58701985D01*
X76946544Y58701986D01*
X76946547Y58701987D01*
X77094035Y58800536D01*
X77219464Y58925965D01*
X77318013Y59073453D01*
X77336740Y59118664D01*
X77385893Y59237330D01*
X77385894Y59237333D01*
X77420500Y59411309D01*
X77420500Y59588690D01*
X77385894Y59762666D01*
X77385893Y59762669D01*
X77336738Y59881340D01*
X77318013Y59926547D01*
X77219464Y60074035D01*
X77094035Y60199464D01*
X76946547Y60298013D01*
X76790039Y60362839D01*
X76732958Y60406639D01*
X76705423Y60473114D01*
X76714814Y60544450D01*
X76758615Y60601534D01*
X76821488Y60628546D01*
X76871362Y60636446D01*
X76871364Y60636446D01*
X76871366Y60636446D01*
X76871368Y60636447D01*
X77095992Y60709432D01*
X77145138Y60734473D01*
X77306429Y60816654D01*
X77497507Y60955480D01*
X77574170Y61032143D01*
X77664517Y61122490D01*
X77677547Y61140424D01*
X77733465Y61185704D01*
X77804531Y61196959D01*
X77871703Y61171174D01*
X77902453Y61140424D01*
X77915480Y61122493D01*
X77915481Y61122492D01*
X78082492Y60955480D01*
X78273570Y60816654D01*
X78484005Y60709433D01*
X78708635Y60636446D01*
X78758512Y60628546D01*
X78824242Y60599280D01*
X78866534Y60541069D01*
X78874053Y60469511D01*
X78844787Y60403781D01*
X78789957Y60362839D01*
X78633460Y60298016D01*
X78633453Y60298013D01*
X78485965Y60199464D01*
X78360536Y60074035D01*
X78270316Y59939012D01*
X78261988Y59926548D01*
X78261985Y59926543D01*
X78194106Y59762669D01*
X78194105Y59762666D01*
X78159500Y59588690D01*
X78159500Y59411309D01*
X78194105Y59237333D01*
X78194106Y59237330D01*
X78261985Y59073456D01*
X78261988Y59073451D01*
X78360536Y58925965D01*
X78485965Y58800536D01*
X78633451Y58701988D01*
X78633456Y58701985D01*
X78797330Y58634106D01*
X78797333Y58634105D01*
X78946552Y58604424D01*
X78971309Y58599500D01*
X78971310Y58599500D01*
X79148690Y58599500D01*
X79148691Y58599500D01*
X79177554Y58605241D01*
X79322666Y58634105D01*
X79322669Y58634106D01*
X79486543Y58701985D01*
X79486544Y58701986D01*
X79486547Y58701987D01*
X79634035Y58800536D01*
X79759464Y58925965D01*
X79858013Y59073453D01*
X79876740Y59118664D01*
X79925893Y59237330D01*
X79925894Y59237333D01*
X79960500Y59411309D01*
X79960500Y59588690D01*
X79925894Y59762666D01*
X79925893Y59762669D01*
X79876738Y59881340D01*
X79858013Y59926547D01*
X79759464Y60074035D01*
X79634035Y60199464D01*
X79486547Y60298013D01*
X79330039Y60362839D01*
X79272958Y60406639D01*
X79245423Y60473114D01*
X79254814Y60544450D01*
X79298615Y60601534D01*
X79361488Y60628546D01*
X79411362Y60636446D01*
X79411364Y60636446D01*
X79411366Y60636446D01*
X79411368Y60636447D01*
X79635992Y60709432D01*
X79685138Y60734473D01*
X79846429Y60816654D01*
X80037507Y60955480D01*
X80114170Y61032143D01*
X80204517Y61122490D01*
X80217547Y61140424D01*
X80273465Y61185704D01*
X80344531Y61196959D01*
X80411703Y61171174D01*
X80442453Y61140424D01*
X80455480Y61122493D01*
X80455481Y61122492D01*
X80622492Y60955480D01*
X80813570Y60816654D01*
X81024005Y60709433D01*
X81248635Y60636446D01*
X81298512Y60628546D01*
X81364242Y60599280D01*
X81406534Y60541069D01*
X81414053Y60469511D01*
X81384787Y60403781D01*
X81329957Y60362839D01*
X81173460Y60298016D01*
X81173453Y60298013D01*
X81025965Y60199464D01*
X80900536Y60074035D01*
X80810316Y59939012D01*
X80801988Y59926548D01*
X80801985Y59926543D01*
X80734106Y59762669D01*
X80734105Y59762666D01*
X80699500Y59588690D01*
X80699500Y59411309D01*
X80734105Y59237333D01*
X80734106Y59237330D01*
X80801985Y59073456D01*
X80801988Y59073451D01*
X80900536Y58925965D01*
X81025965Y58800536D01*
X81173451Y58701988D01*
X81173456Y58701985D01*
X81337330Y58634106D01*
X81337333Y58634105D01*
X81486552Y58604424D01*
X81511309Y58599500D01*
X81511310Y58599500D01*
X81688690Y58599500D01*
X81688691Y58599500D01*
X81717554Y58605241D01*
X81862666Y58634105D01*
X81862669Y58634106D01*
X82026543Y58701985D01*
X82026544Y58701986D01*
X82026547Y58701987D01*
X82174035Y58800536D01*
X82299464Y58925965D01*
X82398013Y59073453D01*
X82416740Y59118664D01*
X82465893Y59237330D01*
X82465894Y59237333D01*
X82500500Y59411309D01*
X82500500Y59588690D01*
X82465894Y59762666D01*
X82465893Y59762669D01*
X82416738Y59881340D01*
X82398013Y59926547D01*
X82299464Y60074035D01*
X82174035Y60199464D01*
X82026547Y60298013D01*
X81870039Y60362839D01*
X81812958Y60406639D01*
X81785423Y60473114D01*
X81794814Y60544450D01*
X81838615Y60601534D01*
X81901488Y60628546D01*
X81951362Y60636446D01*
X81951364Y60636446D01*
X81951366Y60636446D01*
X81951368Y60636447D01*
X82175992Y60709432D01*
X82225138Y60734473D01*
X82386429Y60816654D01*
X82577507Y60955480D01*
X82654170Y61032143D01*
X82744517Y61122490D01*
X82757547Y61140424D01*
X82813465Y61185704D01*
X82884531Y61196959D01*
X82951703Y61171174D01*
X82982453Y61140424D01*
X82995480Y61122493D01*
X82995481Y61122492D01*
X83162492Y60955480D01*
X83353570Y60816654D01*
X83564005Y60709433D01*
X83788635Y60636446D01*
X83838512Y60628546D01*
X83904242Y60599280D01*
X83946534Y60541069D01*
X83954053Y60469511D01*
X83924787Y60403781D01*
X83869957Y60362839D01*
X83713460Y60298016D01*
X83713453Y60298013D01*
X83565965Y60199464D01*
X83440536Y60074035D01*
X83350316Y59939012D01*
X83341988Y59926548D01*
X83341985Y59926543D01*
X83274106Y59762669D01*
X83274105Y59762666D01*
X83239500Y59588690D01*
X83239500Y59411309D01*
X83274105Y59237333D01*
X83274106Y59237330D01*
X83341985Y59073456D01*
X83341988Y59073451D01*
X83440536Y58925965D01*
X83565965Y58800536D01*
X83713451Y58701988D01*
X83713456Y58701985D01*
X83877330Y58634106D01*
X83877333Y58634105D01*
X84026552Y58604424D01*
X84051309Y58599500D01*
X84051310Y58599500D01*
X84228690Y58599500D01*
X84228691Y58599500D01*
X84257554Y58605241D01*
X84402666Y58634105D01*
X84402669Y58634106D01*
X84566543Y58701985D01*
X84566544Y58701986D01*
X84566547Y58701987D01*
X84714035Y58800536D01*
X84839464Y58925965D01*
X84938013Y59073453D01*
X84956740Y59118664D01*
X85005893Y59237330D01*
X85005894Y59237333D01*
X85040500Y59411309D01*
X85040500Y59588690D01*
X85005894Y59762666D01*
X85005893Y59762669D01*
X84956738Y59881340D01*
X84938013Y59926547D01*
X84839464Y60074035D01*
X84714035Y60199464D01*
X84566547Y60298013D01*
X84410039Y60362839D01*
X84352958Y60406639D01*
X84325423Y60473114D01*
X84334814Y60544450D01*
X84378615Y60601534D01*
X84441488Y60628546D01*
X84491362Y60636446D01*
X84491364Y60636446D01*
X84491366Y60636446D01*
X84491368Y60636447D01*
X84715992Y60709432D01*
X84765138Y60734473D01*
X84926429Y60816654D01*
X85117507Y60955480D01*
X85194170Y61032143D01*
X85284517Y61122490D01*
X85297547Y61140424D01*
X85353465Y61185704D01*
X85424531Y61196959D01*
X85491703Y61171174D01*
X85522453Y61140424D01*
X85535480Y61122493D01*
X85535481Y61122492D01*
X85702492Y60955480D01*
X85893570Y60816654D01*
X86104005Y60709433D01*
X86328635Y60636446D01*
X86378512Y60628546D01*
X86444242Y60599280D01*
X86486534Y60541069D01*
X86494053Y60469511D01*
X86464787Y60403781D01*
X86409957Y60362839D01*
X86253460Y60298016D01*
X86253453Y60298013D01*
X86105965Y60199464D01*
X85980536Y60074035D01*
X85890316Y59939012D01*
X85881988Y59926548D01*
X85881985Y59926543D01*
X85814106Y59762669D01*
X85814105Y59762666D01*
X85779500Y59588690D01*
X85779500Y59411309D01*
X85814105Y59237333D01*
X85814106Y59237330D01*
X85881985Y59073456D01*
X85881988Y59073451D01*
X85980536Y58925965D01*
X86105965Y58800536D01*
X86253451Y58701988D01*
X86253456Y58701985D01*
X86417330Y58634106D01*
X86417333Y58634105D01*
X86566552Y58604424D01*
X86591309Y58599500D01*
X86591310Y58599500D01*
X86768690Y58599500D01*
X86768691Y58599500D01*
X86797554Y58605241D01*
X86942666Y58634105D01*
X86942669Y58634106D01*
X87106543Y58701985D01*
X87106544Y58701986D01*
X87106547Y58701987D01*
X87254035Y58800536D01*
X87379464Y58925965D01*
X87478013Y59073453D01*
X87496740Y59118664D01*
X87545893Y59237330D01*
X87545894Y59237333D01*
X87580500Y59411309D01*
X87580500Y59588690D01*
X87545894Y59762666D01*
X87545893Y59762669D01*
X87496738Y59881340D01*
X87478013Y59926547D01*
X87379464Y60074035D01*
X87254035Y60199464D01*
X87106547Y60298013D01*
X86950039Y60362839D01*
X86892958Y60406639D01*
X86865423Y60473114D01*
X86874814Y60544450D01*
X86918615Y60601534D01*
X86981488Y60628546D01*
X87031362Y60636446D01*
X87031364Y60636446D01*
X87031366Y60636446D01*
X87031368Y60636447D01*
X87255992Y60709432D01*
X87305138Y60734473D01*
X87466429Y60816654D01*
X87657507Y60955480D01*
X87734170Y61032143D01*
X87824517Y61122490D01*
X87837547Y61140424D01*
X87893465Y61185704D01*
X87964531Y61196959D01*
X88031703Y61171174D01*
X88062453Y61140424D01*
X88075480Y61122493D01*
X88075481Y61122492D01*
X88242492Y60955480D01*
X88433570Y60816654D01*
X88644005Y60709433D01*
X88868635Y60636446D01*
X88918512Y60628546D01*
X88984242Y60599280D01*
X89026534Y60541069D01*
X89034053Y60469511D01*
X89004787Y60403781D01*
X88949957Y60362839D01*
X88793460Y60298016D01*
X88793453Y60298013D01*
X88645965Y60199464D01*
X88520536Y60074035D01*
X88430316Y59939012D01*
X88421988Y59926548D01*
X88421985Y59926543D01*
X88354106Y59762669D01*
X88354105Y59762666D01*
X88319500Y59588690D01*
X88319500Y59411309D01*
X88354105Y59237333D01*
X88354106Y59237330D01*
X88421985Y59073456D01*
X88421988Y59073451D01*
X88520536Y58925965D01*
X88645965Y58800536D01*
X88793451Y58701988D01*
X88793456Y58701985D01*
X88957330Y58634106D01*
X88957333Y58634105D01*
X89106552Y58604424D01*
X89131309Y58599500D01*
X89131310Y58599500D01*
X89308690Y58599500D01*
X89308691Y58599500D01*
X89337554Y58605241D01*
X89482666Y58634105D01*
X89482669Y58634106D01*
X89646543Y58701985D01*
X89646544Y58701986D01*
X89646547Y58701987D01*
X89794035Y58800536D01*
X89919464Y58925965D01*
X90018013Y59073453D01*
X90036740Y59118664D01*
X90085893Y59237330D01*
X90085894Y59237333D01*
X90120500Y59411309D01*
X90120500Y59588690D01*
X90085894Y59762666D01*
X90085893Y59762669D01*
X90036738Y59881340D01*
X90018013Y59926547D01*
X89919464Y60074035D01*
X89794035Y60199464D01*
X89646547Y60298013D01*
X89490039Y60362839D01*
X89432958Y60406639D01*
X89405423Y60473114D01*
X89414814Y60544450D01*
X89458615Y60601534D01*
X89521488Y60628546D01*
X89571362Y60636446D01*
X89571364Y60636446D01*
X89571366Y60636446D01*
X89571368Y60636447D01*
X89795992Y60709432D01*
X89845138Y60734473D01*
X90006429Y60816654D01*
X90197507Y60955480D01*
X90274170Y61032143D01*
X90364517Y61122490D01*
X90377547Y61140424D01*
X90433465Y61185704D01*
X90504531Y61196959D01*
X90571703Y61171174D01*
X90602453Y61140424D01*
X90615480Y61122493D01*
X90615481Y61122492D01*
X90782492Y60955480D01*
X90973570Y60816654D01*
X91184005Y60709433D01*
X91408635Y60636446D01*
X91458512Y60628546D01*
X91524242Y60599280D01*
X91566534Y60541069D01*
X91574053Y60469511D01*
X91544787Y60403781D01*
X91489957Y60362839D01*
X91333460Y60298016D01*
X91333453Y60298013D01*
X91185965Y60199464D01*
X91060536Y60074035D01*
X90970316Y59939012D01*
X90961988Y59926548D01*
X90961985Y59926543D01*
X90894106Y59762669D01*
X90894105Y59762666D01*
X90859500Y59588690D01*
X90859500Y59411309D01*
X90894105Y59237333D01*
X90894106Y59237330D01*
X90961985Y59073456D01*
X90961988Y59073451D01*
X91060536Y58925965D01*
X91185965Y58800536D01*
X91333451Y58701988D01*
X91333456Y58701985D01*
X91497330Y58634106D01*
X91497333Y58634105D01*
X91646552Y58604424D01*
X91671309Y58599500D01*
X91671310Y58599500D01*
X91848690Y58599500D01*
X91848691Y58599500D01*
X91877554Y58605241D01*
X92022666Y58634105D01*
X92022669Y58634106D01*
X92186543Y58701985D01*
X92186544Y58701986D01*
X92186547Y58701987D01*
X92334035Y58800536D01*
X92459464Y58925965D01*
X92558013Y59073453D01*
X92576740Y59118664D01*
X92625893Y59237330D01*
X92625894Y59237333D01*
X92660500Y59411309D01*
X92660500Y59588690D01*
X92625894Y59762666D01*
X92625893Y59762669D01*
X92576738Y59881340D01*
X92558013Y59926547D01*
X92459464Y60074035D01*
X92334035Y60199464D01*
X92186547Y60298013D01*
X92030039Y60362839D01*
X91972958Y60406639D01*
X91945423Y60473114D01*
X91954814Y60544450D01*
X91998615Y60601534D01*
X92061488Y60628546D01*
X92111362Y60636446D01*
X92111364Y60636446D01*
X92111366Y60636446D01*
X92111368Y60636447D01*
X92335992Y60709432D01*
X92385138Y60734473D01*
X92546429Y60816654D01*
X92737507Y60955480D01*
X92814170Y61032143D01*
X92904517Y61122490D01*
X92917547Y61140424D01*
X92973465Y61185704D01*
X93044531Y61196959D01*
X93111703Y61171174D01*
X93142453Y61140424D01*
X93155480Y61122493D01*
X93155481Y61122492D01*
X93322492Y60955480D01*
X93513570Y60816654D01*
X93724005Y60709433D01*
X93948635Y60636446D01*
X93998512Y60628546D01*
X94064242Y60599280D01*
X94106534Y60541069D01*
X94114053Y60469511D01*
X94084787Y60403781D01*
X94029957Y60362839D01*
X93873460Y60298016D01*
X93873453Y60298013D01*
X93725965Y60199464D01*
X93600536Y60074035D01*
X93510316Y59939012D01*
X93501988Y59926548D01*
X93501985Y59926543D01*
X93434106Y59762669D01*
X93434105Y59762666D01*
X93399500Y59588690D01*
X93399500Y59411309D01*
X93434105Y59237333D01*
X93434106Y59237330D01*
X93501985Y59073456D01*
X93501988Y59073451D01*
X93600536Y58925965D01*
X93725965Y58800536D01*
X93873451Y58701988D01*
X93873456Y58701985D01*
X94037330Y58634106D01*
X94037333Y58634105D01*
X94186552Y58604424D01*
X94211309Y58599500D01*
X94211310Y58599500D01*
X94388690Y58599500D01*
X94388691Y58599500D01*
X94417554Y58605241D01*
X94562666Y58634105D01*
X94562669Y58634106D01*
X94726543Y58701985D01*
X94726544Y58701986D01*
X94726547Y58701987D01*
X94874035Y58800536D01*
X94999464Y58925965D01*
X95098013Y59073453D01*
X95116740Y59118664D01*
X95165893Y59237330D01*
X95165894Y59237333D01*
X95200500Y59411309D01*
X95200500Y59588690D01*
X95939500Y59588690D01*
X95939500Y59411309D01*
X95974105Y59237333D01*
X95974106Y59237330D01*
X96041985Y59073456D01*
X96041988Y59073451D01*
X96140536Y58925965D01*
X96265965Y58800536D01*
X96413451Y58701988D01*
X96413456Y58701985D01*
X96577330Y58634106D01*
X96577333Y58634105D01*
X96726552Y58604424D01*
X96751309Y58599500D01*
X96751310Y58599500D01*
X96928690Y58599500D01*
X96928691Y58599500D01*
X96957554Y58605241D01*
X97102666Y58634105D01*
X97102669Y58634106D01*
X97266543Y58701985D01*
X97266544Y58701986D01*
X97266547Y58701987D01*
X97414035Y58800536D01*
X97539464Y58925965D01*
X97638013Y59073453D01*
X97656740Y59118664D01*
X97705893Y59237330D01*
X97705894Y59237333D01*
X97740500Y59411309D01*
X97740500Y59588690D01*
X97705894Y59762666D01*
X97705893Y59762669D01*
X97656738Y59881340D01*
X97638013Y59926547D01*
X97539464Y60074035D01*
X97414035Y60199464D01*
X97266547Y60298013D01*
X97110042Y60362839D01*
X97102669Y60365893D01*
X97102666Y60365894D01*
X96928691Y60400500D01*
X96751309Y60400500D01*
X96664321Y60383197D01*
X96577333Y60365894D01*
X96577330Y60365893D01*
X96457660Y60316324D01*
X96413453Y60298013D01*
X96265965Y60199464D01*
X96140536Y60074035D01*
X96050316Y59939012D01*
X96041988Y59926548D01*
X96041985Y59926543D01*
X95974106Y59762669D01*
X95974105Y59762666D01*
X95939500Y59588690D01*
X95200500Y59588690D01*
X95165894Y59762666D01*
X95165893Y59762669D01*
X95116738Y59881340D01*
X95098013Y59926547D01*
X94999464Y60074035D01*
X94874035Y60199464D01*
X94726547Y60298013D01*
X94570039Y60362839D01*
X94512958Y60406639D01*
X94485423Y60473114D01*
X94494814Y60544450D01*
X94538615Y60601534D01*
X94601488Y60628546D01*
X94651362Y60636446D01*
X94651364Y60636446D01*
X94651366Y60636446D01*
X94651368Y60636447D01*
X94875992Y60709432D01*
X94925138Y60734473D01*
X95086429Y60816654D01*
X95277507Y60955480D01*
X95444515Y61122488D01*
X95444517Y61122490D01*
X95519660Y61225916D01*
X95575575Y61271195D01*
X95646641Y61282451D01*
X95713814Y61256666D01*
X95744565Y61225915D01*
X95772142Y61187958D01*
X95927957Y61032143D01*
X95927964Y61032137D01*
X96106236Y60902615D01*
X96302586Y60802569D01*
X96512165Y60734473D01*
X96640000Y60714225D01*
X96640000Y62010070D01*
X96770882Y61975000D01*
X96909118Y61975000D01*
X97040000Y62010070D01*
X97040000Y60714225D01*
X97167834Y60734473D01*
X97377413Y60802569D01*
X97573763Y60902615D01*
X97752035Y61032137D01*
X97752042Y61032143D01*
X97907855Y61187956D01*
X97935433Y61225914D01*
X97991350Y61271195D01*
X98062416Y61282451D01*
X98129589Y61256666D01*
X98160340Y61225914D01*
X98235480Y61122492D01*
X98402492Y60955480D01*
X98593570Y60816654D01*
X98804005Y60709433D01*
X99028635Y60636446D01*
X99078512Y60628546D01*
X99144242Y60599280D01*
X99186534Y60541069D01*
X99194053Y60469511D01*
X99164787Y60403781D01*
X99109957Y60362839D01*
X98953460Y60298016D01*
X98953453Y60298013D01*
X98805965Y60199464D01*
X98680536Y60074035D01*
X98590316Y59939012D01*
X98581988Y59926548D01*
X98581985Y59926543D01*
X98514106Y59762669D01*
X98514105Y59762666D01*
X98479500Y59588690D01*
X98479500Y59411309D01*
X98514105Y59237333D01*
X98514106Y59237330D01*
X98581985Y59073456D01*
X98581988Y59073451D01*
X98680536Y58925965D01*
X98805965Y58800536D01*
X98953451Y58701988D01*
X98953456Y58701985D01*
X99117330Y58634106D01*
X99117333Y58634105D01*
X99266552Y58604424D01*
X99291309Y58599500D01*
X99291310Y58599500D01*
X99468690Y58599500D01*
X99468691Y58599500D01*
X99497554Y58605241D01*
X99642666Y58634105D01*
X99642669Y58634106D01*
X99806543Y58701985D01*
X99806544Y58701986D01*
X99806547Y58701987D01*
X99954035Y58800536D01*
X100079464Y58925965D01*
X100178013Y59073453D01*
X100196740Y59118664D01*
X100245893Y59237330D01*
X100245894Y59237333D01*
X100280500Y59411309D01*
X100280500Y59588690D01*
X100245894Y59762666D01*
X100245893Y59762669D01*
X100196738Y59881340D01*
X100178013Y59926547D01*
X100079464Y60074035D01*
X99954035Y60199464D01*
X99806547Y60298013D01*
X99650039Y60362839D01*
X99592958Y60406639D01*
X99565423Y60473114D01*
X99574814Y60544450D01*
X99618615Y60601534D01*
X99681488Y60628546D01*
X99731362Y60636446D01*
X99731364Y60636446D01*
X99731366Y60636446D01*
X99731368Y60636447D01*
X99955992Y60709432D01*
X100005138Y60734473D01*
X100166429Y60816654D01*
X100357507Y60955480D01*
X100434170Y61032143D01*
X100524517Y61122490D01*
X100537547Y61140424D01*
X100593465Y61185704D01*
X100664531Y61196959D01*
X100731703Y61171174D01*
X100762453Y61140424D01*
X100775480Y61122493D01*
X100775481Y61122492D01*
X100942492Y60955480D01*
X101133570Y60816654D01*
X101344005Y60709433D01*
X101568635Y60636446D01*
X101618512Y60628546D01*
X101684242Y60599280D01*
X101726534Y60541069D01*
X101734053Y60469511D01*
X101704787Y60403781D01*
X101649957Y60362839D01*
X101493460Y60298016D01*
X101493453Y60298013D01*
X101345965Y60199464D01*
X101220536Y60074035D01*
X101130316Y59939012D01*
X101121988Y59926548D01*
X101121985Y59926543D01*
X101054106Y59762669D01*
X101054105Y59762666D01*
X101019500Y59588690D01*
X101019500Y59411309D01*
X101054105Y59237333D01*
X101054106Y59237330D01*
X101121985Y59073456D01*
X101121988Y59073451D01*
X101220536Y58925965D01*
X101345965Y58800536D01*
X101493451Y58701988D01*
X101493456Y58701985D01*
X101657330Y58634106D01*
X101657333Y58634105D01*
X101806552Y58604424D01*
X101831309Y58599500D01*
X101831310Y58599500D01*
X102008690Y58599500D01*
X102008691Y58599500D01*
X102037554Y58605241D01*
X102182666Y58634105D01*
X102182669Y58634106D01*
X102346543Y58701985D01*
X102346544Y58701986D01*
X102346547Y58701987D01*
X102494035Y58800536D01*
X102619464Y58925965D01*
X102718013Y59073453D01*
X102736740Y59118664D01*
X102785893Y59237330D01*
X102785894Y59237333D01*
X102820500Y59411309D01*
X102820500Y59588690D01*
X102785894Y59762666D01*
X102785893Y59762669D01*
X102736738Y59881340D01*
X102718013Y59926547D01*
X102619464Y60074035D01*
X102494035Y60199464D01*
X102346547Y60298013D01*
X102190039Y60362839D01*
X102132958Y60406639D01*
X102105423Y60473114D01*
X102114814Y60544450D01*
X102158615Y60601534D01*
X102221488Y60628546D01*
X102271362Y60636446D01*
X102271364Y60636446D01*
X102271366Y60636446D01*
X102271368Y60636447D01*
X102495992Y60709432D01*
X102545138Y60734473D01*
X102706429Y60816654D01*
X102897507Y60955480D01*
X102974170Y61032143D01*
X103064517Y61122490D01*
X103077547Y61140424D01*
X103133465Y61185704D01*
X103204531Y61196959D01*
X103271703Y61171174D01*
X103302453Y61140424D01*
X103315480Y61122493D01*
X103315481Y61122492D01*
X103482492Y60955480D01*
X103673570Y60816654D01*
X103884005Y60709433D01*
X104108635Y60636446D01*
X104158512Y60628546D01*
X104224242Y60599280D01*
X104266534Y60541069D01*
X104274053Y60469511D01*
X104244787Y60403781D01*
X104189957Y60362839D01*
X104033460Y60298016D01*
X104033453Y60298013D01*
X103885965Y60199464D01*
X103760536Y60074035D01*
X103670316Y59939012D01*
X103661988Y59926548D01*
X103661985Y59926543D01*
X103594106Y59762669D01*
X103594105Y59762666D01*
X103559500Y59588690D01*
X103559500Y59411309D01*
X103594105Y59237333D01*
X103594106Y59237330D01*
X103661985Y59073456D01*
X103661988Y59073451D01*
X103760536Y58925965D01*
X103885965Y58800536D01*
X104033451Y58701988D01*
X104033456Y58701985D01*
X104197330Y58634106D01*
X104197333Y58634105D01*
X104346552Y58604424D01*
X104371309Y58599500D01*
X104371310Y58599500D01*
X104548690Y58599500D01*
X104548691Y58599500D01*
X104577554Y58605241D01*
X104722666Y58634105D01*
X104722669Y58634106D01*
X104886543Y58701985D01*
X104886544Y58701986D01*
X104886547Y58701987D01*
X105034035Y58800536D01*
X105159464Y58925965D01*
X105258013Y59073453D01*
X105276740Y59118664D01*
X105325893Y59237330D01*
X105325894Y59237333D01*
X105360500Y59411309D01*
X105360500Y59588690D01*
X106099500Y59588690D01*
X106099500Y59411309D01*
X106134105Y59237333D01*
X106134106Y59237330D01*
X106201985Y59073456D01*
X106201988Y59073451D01*
X106300536Y58925965D01*
X106425965Y58800536D01*
X106573451Y58701988D01*
X106573456Y58701985D01*
X106737330Y58634106D01*
X106737333Y58634105D01*
X106886552Y58604424D01*
X106911309Y58599500D01*
X106911310Y58599500D01*
X107088690Y58599500D01*
X107088691Y58599500D01*
X107117554Y58605241D01*
X107262666Y58634105D01*
X107262669Y58634106D01*
X107426543Y58701985D01*
X107426544Y58701986D01*
X107426547Y58701987D01*
X107574035Y58800536D01*
X107699464Y58925965D01*
X107798013Y59073453D01*
X107816740Y59118664D01*
X107865893Y59237330D01*
X107865894Y59237333D01*
X107900500Y59411309D01*
X107900500Y59588690D01*
X107865894Y59762666D01*
X107865893Y59762669D01*
X107816738Y59881340D01*
X107798013Y59926547D01*
X107699464Y60074035D01*
X107574035Y60199464D01*
X107426547Y60298013D01*
X107270042Y60362839D01*
X107262669Y60365893D01*
X107262666Y60365894D01*
X107088691Y60400500D01*
X106911309Y60400500D01*
X106824321Y60383197D01*
X106737333Y60365894D01*
X106737330Y60365893D01*
X106617660Y60316324D01*
X106573453Y60298013D01*
X106425965Y60199464D01*
X106300536Y60074035D01*
X106210316Y59939012D01*
X106201988Y59926548D01*
X106201985Y59926543D01*
X106134106Y59762669D01*
X106134105Y59762666D01*
X106099500Y59588690D01*
X105360500Y59588690D01*
X105325894Y59762666D01*
X105325893Y59762669D01*
X105276738Y59881340D01*
X105258013Y59926547D01*
X105159464Y60074035D01*
X105034035Y60199464D01*
X104886547Y60298013D01*
X104730039Y60362839D01*
X104672958Y60406639D01*
X104645423Y60473114D01*
X104654814Y60544450D01*
X104698615Y60601534D01*
X104761488Y60628546D01*
X104811362Y60636446D01*
X104811364Y60636446D01*
X104811366Y60636446D01*
X104811368Y60636447D01*
X105035992Y60709432D01*
X105085138Y60734473D01*
X105246429Y60816654D01*
X105437507Y60955480D01*
X105521217Y61039190D01*
X105583529Y61075166D01*
X105655481Y61075166D01*
X105717793Y61039190D01*
X105737809Y61013876D01*
X105757683Y60981655D01*
X105881657Y60857681D01*
X106030875Y60765643D01*
X106197303Y60710494D01*
X106197308Y60710493D01*
X106300015Y60700000D01*
X106800000Y60700000D01*
X106800000Y62010070D01*
X106930882Y61975000D01*
X107069118Y61975000D01*
X107200000Y62010070D01*
X107200000Y60700000D01*
X107699978Y60700000D01*
X107699985Y60700001D01*
X107802692Y60710493D01*
X107802695Y60710493D01*
X107969124Y60765643D01*
X108118342Y60857681D01*
X108242316Y60981655D01*
X108292195Y61062521D01*
X108344530Y61111897D01*
X108414543Y61128490D01*
X108483472Y61107854D01*
X108532848Y61055519D01*
X108549500Y60989549D01*
X108549500Y58980576D01*
X108530878Y58911076D01*
X108508788Y58882288D01*
X103217712Y53591212D01*
X103155400Y53555236D01*
X103119424Y53550500D01*
X65661308Y53550500D01*
X65487337Y53515896D01*
X65487335Y53515895D01*
X65487334Y53515895D01*
X65405393Y53481953D01*
X65323453Y53448013D01*
X65235040Y53388936D01*
X65175964Y53349464D01*
X65175962Y53349462D01*
X63612932Y51786432D01*
X63550620Y51750456D01*
X63478668Y51750456D01*
X63416356Y51786432D01*
X62340568Y52862220D01*
X61042162Y54160627D01*
X60902863Y54253704D01*
X60829771Y54283979D01*
X60789798Y54300537D01*
X60748084Y54317815D01*
X60748082Y54317816D01*
X60748079Y54317816D01*
X60748078Y54317817D01*
X60583767Y54350500D01*
X56070155Y54350500D01*
X56000655Y54369122D01*
X55992931Y54373926D01*
X55973921Y54386628D01*
X55973917Y54386629D01*
X55973914Y54386632D01*
X55791835Y54462051D01*
X55598541Y54500500D01*
X55401459Y54500500D01*
X55208165Y54462051D01*
X55208163Y54462050D01*
X55208162Y54462050D01*
X55208161Y54462050D01*
X55026093Y54386635D01*
X55026086Y54386632D01*
X54862218Y54277139D01*
X54722861Y54137782D01*
X54613368Y53973914D01*
X54613367Y53973911D01*
X54613364Y53973906D01*
X54537949Y53791838D01*
X54537949Y53791837D01*
X54499500Y53598539D01*
X54499500Y53401460D01*
X54537949Y53208162D01*
X54537949Y53208161D01*
X54613364Y53026093D01*
X54613367Y53026088D01*
X54722859Y52862220D01*
X54862220Y52722859D01*
X54942095Y52669489D01*
X55026086Y52613368D01*
X55026087Y52613367D01*
X55026088Y52613367D01*
X55026093Y52613364D01*
X55208162Y52537949D01*
X55324141Y52514879D01*
X55401459Y52499500D01*
X55401461Y52499500D01*
X55598539Y52499500D01*
X55598541Y52499500D01*
X55695188Y52518724D01*
X55791837Y52537949D01*
X55791838Y52537949D01*
X55973910Y52613366D01*
X55973921Y52613371D01*
X55992931Y52626074D01*
X56061064Y52649202D01*
X56070155Y52649500D01*
X60090135Y52649500D01*
X60159635Y52630878D01*
X60188423Y52608788D01*
X62658788Y50138423D01*
X62694764Y50076111D01*
X62699500Y50040135D01*
X62699500Y32130576D01*
X62680878Y32061076D01*
X62658788Y32032288D01*
X56417712Y25791212D01*
X56355400Y25755236D01*
X56319424Y25750500D01*
X12178419Y25750500D01*
X12108919Y25769122D01*
X12058041Y25820000D01*
X12039419Y25889500D01*
X12058041Y25959000D01*
X12071875Y25974364D01*
X12072671Y25984483D01*
X11455175Y26601980D01*
X11462993Y26604075D01*
X11577007Y26669901D01*
X11670099Y26762993D01*
X11735925Y26877007D01*
X11738019Y26884821D01*
X12355514Y26267327D01*
X12355515Y26267327D01*
X12424620Y26362442D01*
X12521092Y26551778D01*
X12586756Y26753869D01*
X12619999Y26963752D01*
X12620000Y26963758D01*
X12620000Y27176241D01*
X12619999Y27176247D01*
X12586756Y27386130D01*
X12521092Y27588221D01*
X12424620Y27777557D01*
X12355515Y27872671D01*
X12355514Y27872671D01*
X11738019Y27255176D01*
X11735925Y27262993D01*
X11670099Y27377007D01*
X11577007Y27470099D01*
X11462993Y27535925D01*
X11455176Y27538019D01*
X12072671Y28155514D01*
X12072671Y28155515D01*
X11973530Y28227546D01*
X11928249Y28283462D01*
X11916993Y28354528D01*
X11942779Y28421701D01*
X11973530Y28452452D01*
X12072671Y28524482D01*
X12072671Y28524483D01*
X11455175Y29141980D01*
X11462993Y29144075D01*
X11577007Y29209901D01*
X11670099Y29302993D01*
X11735925Y29417007D01*
X11738019Y29424821D01*
X12355514Y28807327D01*
X12355515Y28807327D01*
X12424620Y28902442D01*
X12521092Y29091778D01*
X12586756Y29293869D01*
X12619999Y29503752D01*
X12620000Y29503758D01*
X12620000Y29716241D01*
X12619999Y29716247D01*
X12586756Y29926130D01*
X12521092Y30128221D01*
X12424620Y30317557D01*
X12355515Y30412671D01*
X12355514Y30412671D01*
X11738019Y29795176D01*
X11735925Y29802993D01*
X11670099Y29917007D01*
X11577007Y30010099D01*
X11462993Y30075925D01*
X11455176Y30078019D01*
X12072671Y30695514D01*
X12059021Y30705432D01*
X12013740Y30761348D01*
X12002483Y30832414D01*
X12028268Y30899587D01*
X12059019Y30930339D01*
X12214933Y31043618D01*
X12214937Y31043621D01*
X12376379Y31205063D01*
X12418231Y31262666D01*
X12510581Y31389775D01*
X12614229Y31593198D01*
X12614231Y31593201D01*
X12684784Y31810340D01*
X12720500Y32035843D01*
X12720500Y32264157D01*
X12684927Y32488756D01*
X12692448Y32560313D01*
X12734741Y32618523D01*
X12800472Y32647789D01*
X12822216Y32649500D01*
X16771202Y32649500D01*
X16840702Y32630878D01*
X16869490Y32608788D01*
X19055650Y30422628D01*
X19182661Y30337761D01*
X19182666Y30337758D01*
X19323791Y30279302D01*
X19323794Y30279301D01*
X19473620Y30249500D01*
X36167898Y30249500D01*
X36237398Y30230878D01*
X36288276Y30180000D01*
X36306898Y30110500D01*
X36288276Y30041000D01*
X36252516Y30000224D01*
X36211707Y29968910D01*
X36030910Y29788113D01*
X36030906Y29788108D01*
X35875258Y29585264D01*
X35875256Y29585261D01*
X35747419Y29363842D01*
X35747413Y29363830D01*
X35649571Y29127618D01*
X35583393Y28880635D01*
X35550020Y28627148D01*
X35550020Y28371451D01*
X35583393Y28117964D01*
X35649571Y27870981D01*
X35747413Y27634769D01*
X35747419Y27634757D01*
X35875256Y27413338D01*
X35875258Y27413335D01*
X36030906Y27210491D01*
X36211711Y27029686D01*
X36414555Y26874038D01*
X36414558Y26874036D01*
X36635977Y26746199D01*
X36635989Y26746193D01*
X36872201Y26648351D01*
X37119184Y26582173D01*
X37372671Y26548800D01*
X37372677Y26548800D01*
X37628368Y26548800D01*
X37881855Y26582173D01*
X37881857Y26582173D01*
X37881860Y26582174D01*
X38005346Y26615262D01*
X38128838Y26648351D01*
X38365050Y26746193D01*
X38365062Y26746199D01*
X38586481Y26874036D01*
X38586484Y26874038D01*
X38789328Y27029686D01*
X38789333Y27029690D01*
X38970130Y27210487D01*
X39125781Y27413335D01*
X39249025Y27626799D01*
X39253620Y27634757D01*
X39253626Y27634769D01*
X39351468Y27870981D01*
X39390038Y28014927D01*
X39417646Y28117960D01*
X39451020Y28371457D01*
X39451020Y28627143D01*
X39417646Y28880640D01*
X39351470Y29127613D01*
X39253624Y29363835D01*
X39125781Y29585265D01*
X38970130Y29788113D01*
X38789333Y29968910D01*
X38748524Y30000224D01*
X38704723Y30057307D01*
X38695331Y30128643D01*
X38722866Y30195118D01*
X38779949Y30238919D01*
X38833142Y30249500D01*
X49735180Y30249500D01*
X49804680Y30230878D01*
X49812404Y30226074D01*
X49848447Y30201990D01*
X49848460Y30201983D01*
X50012330Y30134106D01*
X50012333Y30134105D01*
X50161552Y30104424D01*
X50186309Y30099500D01*
X50186310Y30099500D01*
X50363690Y30099500D01*
X50363691Y30099500D01*
X50392554Y30105241D01*
X50537666Y30134105D01*
X50537669Y30134106D01*
X50701543Y30201985D01*
X50701544Y30201986D01*
X50701547Y30201987D01*
X50849035Y30300536D01*
X50974464Y30425965D01*
X51073013Y30573453D01*
X51127680Y30705432D01*
X51140893Y30737330D01*
X51140894Y30737333D01*
X51175500Y30911309D01*
X51175500Y31088690D01*
X51140894Y31262666D01*
X51140893Y31262669D01*
X51090398Y31384575D01*
X51073013Y31426547D01*
X50974464Y31574035D01*
X50849035Y31699464D01*
X50701547Y31798013D01*
X50545771Y31862537D01*
X50537669Y31865893D01*
X50537666Y31865894D01*
X50477846Y31877793D01*
X50363691Y31900500D01*
X50186309Y31900500D01*
X50099321Y31883197D01*
X50012333Y31865894D01*
X50012330Y31865893D01*
X49927774Y31830868D01*
X49880001Y31811080D01*
X49826810Y31800500D01*
X26244231Y31800500D01*
X26174731Y31819122D01*
X26145943Y31841212D01*
X25414352Y32572804D01*
X25443694Y32580667D01*
X25546306Y32639910D01*
X25630090Y32723694D01*
X25689333Y32826306D01*
X25697194Y32855646D01*
X26462902Y32089939D01*
X26462903Y32089939D01*
X26552917Y32213832D01*
X26660102Y32424197D01*
X26733064Y32648748D01*
X26770000Y32881950D01*
X26770000Y33118051D01*
X26753255Y33223776D01*
X26750893Y33238690D01*
X32749500Y33238690D01*
X32749500Y33061309D01*
X32784105Y32887333D01*
X32784106Y32887330D01*
X32851985Y32723456D01*
X32851988Y32723451D01*
X32950536Y32575965D01*
X33075965Y32450536D01*
X33223451Y32351988D01*
X33223456Y32351985D01*
X33387330Y32284106D01*
X33387333Y32284105D01*
X33536552Y32254424D01*
X33561309Y32249500D01*
X33561310Y32249500D01*
X33738690Y32249500D01*
X33738691Y32249500D01*
X33767554Y32255241D01*
X33912666Y32284105D01*
X33912669Y32284106D01*
X34076539Y32351983D01*
X34076544Y32351986D01*
X34076547Y32351987D01*
X34076549Y32351988D01*
X34082566Y32355205D01*
X34083300Y32353831D01*
X34143318Y32374203D01*
X34152405Y32374500D01*
X47697595Y32374500D01*
X47767095Y32355878D01*
X47772730Y32352373D01*
X47773460Y32351983D01*
X47937330Y32284106D01*
X47937333Y32284105D01*
X48086552Y32254424D01*
X48111309Y32249500D01*
X48111310Y32249500D01*
X48288690Y32249500D01*
X48288691Y32249500D01*
X48317554Y32255241D01*
X48462666Y32284105D01*
X48462669Y32284106D01*
X48626543Y32351985D01*
X48626544Y32351986D01*
X48626547Y32351987D01*
X48774035Y32450536D01*
X48899464Y32575965D01*
X48998013Y32723453D01*
X49040616Y32826306D01*
X49065893Y32887330D01*
X49065894Y32887333D01*
X49100500Y33061309D01*
X49100500Y33238690D01*
X49100297Y33239709D01*
X49065894Y33412666D01*
X49063132Y33419333D01*
X48998322Y33575800D01*
X48998013Y33576547D01*
X48899464Y33724035D01*
X48774035Y33849464D01*
X48626547Y33948013D01*
X48506873Y33997582D01*
X48462669Y34015893D01*
X48462666Y34015894D01*
X48288691Y34050500D01*
X48111309Y34050500D01*
X48024321Y34033197D01*
X47937333Y34015894D01*
X47937330Y34015893D01*
X47773460Y33948016D01*
X47773453Y33948013D01*
X47773447Y33948009D01*
X47767434Y33944795D01*
X47766699Y33946168D01*
X47706682Y33925797D01*
X47697595Y33925500D01*
X34152405Y33925500D01*
X34082905Y33944122D01*
X34077269Y33947626D01*
X34076556Y33948006D01*
X34076547Y33948013D01*
X33984140Y33986288D01*
X33912669Y34015893D01*
X33912666Y34015894D01*
X33738691Y34050500D01*
X33561309Y34050500D01*
X33474321Y34033197D01*
X33387333Y34015894D01*
X33387330Y34015893D01*
X33267660Y33966324D01*
X33223453Y33948013D01*
X33075965Y33849464D01*
X32950536Y33724035D01*
X32856714Y33583621D01*
X32851988Y33576548D01*
X32851985Y33576543D01*
X32784106Y33412669D01*
X32784105Y33412666D01*
X32769313Y33338297D01*
X32749703Y33239709D01*
X32749500Y33238690D01*
X26750893Y33238690D01*
X26733064Y33351251D01*
X26660103Y33575800D01*
X26552914Y33786171D01*
X26462902Y33910059D01*
X25697195Y33144352D01*
X25689333Y33173694D01*
X25630090Y33276306D01*
X25546306Y33360090D01*
X25443694Y33419333D01*
X25414352Y33427195D01*
X26180059Y34192902D01*
X26056171Y34282914D01*
X25845800Y34390103D01*
X25621251Y34463064D01*
X25388050Y34500000D01*
X25151950Y34500000D01*
X24918748Y34463064D01*
X24694197Y34390102D01*
X24483832Y34282917D01*
X24333132Y34173427D01*
X24265960Y34147641D01*
X24194894Y34158897D01*
X24143092Y34198794D01*
X24092159Y34262159D01*
X23952210Y34374653D01*
X23791349Y34454433D01*
X23791345Y34454433D01*
X23791343Y34454435D01*
X23617108Y34497764D01*
X23617100Y34497766D01*
X23576784Y34500500D01*
X21883216Y34500500D01*
X21842900Y34497766D01*
X21842895Y34497764D01*
X21842891Y34497764D01*
X21668656Y34454435D01*
X21668652Y34454433D01*
X21668651Y34454433D01*
X21507790Y34374653D01*
X21367841Y34262159D01*
X21255347Y34122210D01*
X21255345Y34122207D01*
X21255345Y34122206D01*
X21175567Y33961349D01*
X21175564Y33961343D01*
X21132235Y33787108D01*
X21132233Y33787098D01*
X21129501Y33746809D01*
X21129500Y33746778D01*
X21129500Y32253221D01*
X21129501Y32253190D01*
X21132233Y32212901D01*
X21132235Y32212891D01*
X21175564Y32038656D01*
X21175567Y32038650D01*
X21194111Y32001260D01*
X21208308Y31930722D01*
X21185333Y31862537D01*
X21131345Y31814974D01*
X21069585Y31800500D01*
X19928798Y31800500D01*
X19859298Y31819122D01*
X19830510Y31841212D01*
X19297222Y32374500D01*
X17644352Y34027370D01*
X17517337Y34112239D01*
X17376205Y34170698D01*
X17226380Y34200500D01*
X12823799Y34200500D01*
X12754299Y34219122D01*
X12703421Y34270000D01*
X12684799Y34339500D01*
X12686508Y34361230D01*
X12720500Y34575843D01*
X12720500Y34804157D01*
X12684784Y35029660D01*
X12684782Y35029663D01*
X12683929Y35035055D01*
X12685361Y35035281D01*
X12687048Y35099962D01*
X12724636Y35161316D01*
X12787864Y35195656D01*
X12820329Y35199500D01*
X54651380Y35199500D01*
X54801200Y35229300D01*
X54801204Y35229301D01*
X54942333Y35287759D01*
X54942334Y35287760D01*
X54942337Y35287761D01*
X55069352Y35372630D01*
X56527370Y36830647D01*
X56612239Y36957663D01*
X56670698Y37098795D01*
X56681603Y37153620D01*
X56700500Y37248620D01*
X56700500Y43897595D01*
X56719122Y43967095D01*
X56722626Y43972730D01*
X56723009Y43973447D01*
X56723013Y43973453D01*
X56724696Y43977515D01*
X56790893Y44137330D01*
X56790894Y44137333D01*
X56825500Y44311309D01*
X56825500Y44488690D01*
X56790894Y44662666D01*
X56790893Y44662669D01*
X56760583Y44735843D01*
X56723013Y44826547D01*
X56624464Y44974035D01*
X56499035Y45099464D01*
X56351547Y45198013D01*
X56196686Y45262158D01*
X56187669Y45265893D01*
X56187666Y45265894D01*
X56013691Y45300500D01*
X55836309Y45300500D01*
X55749321Y45283197D01*
X55662333Y45265894D01*
X55662330Y45265893D01*
X55542660Y45216324D01*
X55498453Y45198013D01*
X55350965Y45099464D01*
X55225536Y44974035D01*
X55126988Y44826548D01*
X55126985Y44826543D01*
X55059106Y44662669D01*
X55059105Y44662666D01*
X55024500Y44488690D01*
X55024500Y44311309D01*
X55059105Y44137333D01*
X55059106Y44137330D01*
X55126983Y43973460D01*
X55130205Y43967434D01*
X55128831Y43966699D01*
X55149203Y43906682D01*
X55149500Y43897595D01*
X55149500Y37703798D01*
X55130878Y37634298D01*
X55108788Y37605510D01*
X54294490Y36791212D01*
X54232178Y36755236D01*
X54196202Y36750500D01*
X12825383Y36750500D01*
X12755883Y36769122D01*
X12705005Y36820000D01*
X12686383Y36889500D01*
X12688093Y36911232D01*
X12720500Y37115843D01*
X12720500Y37344157D01*
X12684784Y37569660D01*
X12614231Y37786799D01*
X12510579Y37990228D01*
X12376379Y38174937D01*
X12214937Y38336379D01*
X12214929Y38336384D01*
X12214928Y38336386D01*
X12144511Y38387547D01*
X12099230Y38443464D01*
X12087974Y38514529D01*
X12113760Y38581702D01*
X12144511Y38612453D01*
X12214928Y38663613D01*
X12214934Y38663619D01*
X12214937Y38663621D01*
X12376379Y38825063D01*
X12381760Y38832468D01*
X12510581Y39009775D01*
X12614229Y39213198D01*
X12614231Y39213201D01*
X12684784Y39430340D01*
X12720500Y39655843D01*
X12720500Y39884157D01*
X12684784Y40109660D01*
X12614231Y40326799D01*
X12510579Y40530228D01*
X12376379Y40714937D01*
X12214937Y40876379D01*
X12214929Y40876384D01*
X12214928Y40876386D01*
X12144511Y40927547D01*
X12099230Y40983464D01*
X12087974Y41054529D01*
X12113760Y41121702D01*
X12144511Y41152453D01*
X12214928Y41203613D01*
X12214933Y41203618D01*
X12214937Y41203621D01*
X12376379Y41365063D01*
X12442194Y41455648D01*
X12510581Y41549775D01*
X12614229Y41753198D01*
X12614231Y41753201D01*
X12684784Y41970340D01*
X12720500Y42195843D01*
X12720500Y42424157D01*
X12684784Y42649660D01*
X12614231Y42866799D01*
X12510579Y43070228D01*
X12376379Y43254937D01*
X12214937Y43416379D01*
X12214929Y43416384D01*
X12214928Y43416386D01*
X12144511Y43467547D01*
X12099230Y43523464D01*
X12087974Y43594529D01*
X12113760Y43661702D01*
X12144511Y43692453D01*
X12214928Y43743613D01*
X12214934Y43743619D01*
X12214937Y43743621D01*
X12376379Y43905063D01*
X12377556Y43906682D01*
X12472954Y44037987D01*
X12510579Y44089772D01*
X12517982Y44104300D01*
X12586975Y44239708D01*
X12614231Y44293201D01*
X12684784Y44510340D01*
X12720500Y44735843D01*
X12720500Y44746778D01*
X21129500Y44746778D01*
X21129500Y43253221D01*
X21129501Y43253190D01*
X21132233Y43212901D01*
X21132235Y43212891D01*
X21175564Y43038656D01*
X21175567Y43038650D01*
X21255345Y42877793D01*
X21255345Y42877792D01*
X21367841Y42737841D01*
X21507792Y42625345D01*
X21668650Y42545567D01*
X21668656Y42545564D01*
X21842891Y42502235D01*
X21842901Y42502233D01*
X21883190Y42499501D01*
X21883210Y42499500D01*
X21883216Y42499500D01*
X21883222Y42499500D01*
X23576778Y42499500D01*
X23576784Y42499500D01*
X23576789Y42499500D01*
X23576809Y42499501D01*
X23617098Y42502233D01*
X23617108Y42502235D01*
X23791343Y42545564D01*
X23791349Y42545567D01*
X23952206Y42625345D01*
X23952207Y42625345D01*
X23952208Y42625346D01*
X23952210Y42625347D01*
X24092159Y42737841D01*
X24143092Y42801204D01*
X24201148Y42843706D01*
X24272678Y42851485D01*
X24333132Y42826573D01*
X24483836Y42717080D01*
X24694197Y42609897D01*
X24918748Y42536935D01*
X25151950Y42500000D01*
X25388050Y42500000D01*
X25621251Y42536935D01*
X25845802Y42609897D01*
X26056167Y42717082D01*
X26180059Y42807095D01*
X25414352Y43572804D01*
X25443694Y43580667D01*
X25546306Y43639910D01*
X25630090Y43723694D01*
X25689333Y43826306D01*
X25697194Y43855646D01*
X26462902Y43089939D01*
X26462903Y43089939D01*
X26552917Y43213832D01*
X26660102Y43424197D01*
X26733064Y43648748D01*
X26770000Y43881950D01*
X26770000Y44118049D01*
X26733064Y44351251D01*
X26660103Y44575800D01*
X26552914Y44786171D01*
X26462902Y44910059D01*
X25697195Y44144352D01*
X25689333Y44173694D01*
X25630090Y44276306D01*
X25546306Y44360090D01*
X25443694Y44419333D01*
X25414352Y44427195D01*
X26180059Y45192902D01*
X26056171Y45282914D01*
X25845800Y45390103D01*
X25621251Y45463064D01*
X25388050Y45500000D01*
X25151950Y45500000D01*
X24918748Y45463064D01*
X24694197Y45390102D01*
X24483832Y45282917D01*
X24333132Y45173427D01*
X24265960Y45147641D01*
X24194894Y45158897D01*
X24143092Y45198794D01*
X24092159Y45262159D01*
X23952210Y45374653D01*
X23791349Y45454433D01*
X23791345Y45454433D01*
X23791343Y45454435D01*
X23617108Y45497764D01*
X23617100Y45497766D01*
X23576784Y45500500D01*
X21883216Y45500500D01*
X21842900Y45497766D01*
X21842895Y45497764D01*
X21842891Y45497764D01*
X21668656Y45454435D01*
X21668652Y45454433D01*
X21668651Y45454433D01*
X21507790Y45374653D01*
X21367841Y45262159D01*
X21284837Y45158897D01*
X21255345Y45122207D01*
X21255345Y45122206D01*
X21175567Y44961349D01*
X21175564Y44961343D01*
X21132235Y44787108D01*
X21132233Y44787098D01*
X21129501Y44746809D01*
X21129500Y44746778D01*
X12720500Y44746778D01*
X12720500Y44964157D01*
X12684784Y45189660D01*
X12614231Y45406799D01*
X12510579Y45610228D01*
X12376379Y45794937D01*
X12214937Y45956379D01*
X12214929Y45956384D01*
X12214928Y45956386D01*
X12144511Y46007547D01*
X12099230Y46063464D01*
X12087974Y46134529D01*
X12113760Y46201702D01*
X12144511Y46232453D01*
X12214928Y46283613D01*
X12214933Y46283618D01*
X12214937Y46283621D01*
X12376379Y46445063D01*
X12510579Y46629772D01*
X12614231Y46833201D01*
X12684784Y47050340D01*
X12720500Y47275843D01*
X12720500Y47504157D01*
X12684784Y47729660D01*
X12614231Y47946799D01*
X12510579Y48150228D01*
X12376379Y48334937D01*
X12214937Y48496379D01*
X12214929Y48496384D01*
X12214928Y48496386D01*
X12144511Y48547547D01*
X12099230Y48603464D01*
X12087974Y48674529D01*
X12113760Y48741702D01*
X12144511Y48772453D01*
X12214928Y48823613D01*
X12214933Y48823618D01*
X12214937Y48823621D01*
X12376379Y48985063D01*
X12388673Y49001983D01*
X12510581Y49169775D01*
X12579601Y49305236D01*
X12614231Y49373201D01*
X12684784Y49590340D01*
X12720500Y49815843D01*
X12720500Y50044157D01*
X12684784Y50269660D01*
X12614231Y50486799D01*
X12510579Y50690228D01*
X12376379Y50874937D01*
X12264101Y50987214D01*
X12254953Y51003059D01*
X12242013Y51016000D01*
X12237276Y51033676D01*
X12228127Y51049524D01*
X12228127Y51067824D01*
X12223391Y51085500D01*
X12228127Y51103175D01*
X12228127Y51121476D01*
X12237276Y51137323D01*
X12242013Y51155000D01*
X12254953Y51167940D01*
X12264103Y51183788D01*
X12279950Y51192937D01*
X12292891Y51205878D01*
X12310567Y51210614D01*
X12326415Y51219764D01*
X12362391Y51224500D01*
X12521202Y51224500D01*
X12590702Y51205878D01*
X12619490Y51183788D01*
X14105652Y49697625D01*
X14215786Y49624037D01*
X14232658Y49612764D01*
X14232670Y49612757D01*
X14373795Y49554301D01*
X14373799Y49554300D01*
X14523620Y49524500D01*
X15447595Y49524500D01*
X15517095Y49505878D01*
X15522730Y49502373D01*
X15523460Y49501983D01*
X15687330Y49434106D01*
X15687333Y49434105D01*
X15836552Y49404424D01*
X15861309Y49399500D01*
X15861310Y49399500D01*
X16038690Y49399500D01*
X16038691Y49399500D01*
X16067554Y49405241D01*
X16212666Y49434105D01*
X16212669Y49434106D01*
X16376543Y49501985D01*
X16376544Y49501986D01*
X16376547Y49501987D01*
X16524035Y49600536D01*
X16524042Y49600543D01*
X16524800Y49601165D01*
X16525344Y49601411D01*
X16529712Y49604330D01*
X16530193Y49603608D01*
X16590338Y49630861D01*
X16661943Y49623810D01*
X16711271Y49592006D01*
X16997630Y49305648D01*
X16997629Y49305647D01*
X17105645Y49197632D01*
X17105646Y49197631D01*
X17232661Y49112762D01*
X17232666Y49112759D01*
X17373795Y49054301D01*
X17373799Y49054300D01*
X17523620Y49024500D01*
X17697595Y49024500D01*
X17767095Y49005878D01*
X17772730Y49002373D01*
X17773460Y49001983D01*
X17937330Y48934106D01*
X17937333Y48934105D01*
X18081135Y48905502D01*
X18111309Y48899500D01*
X18111310Y48899500D01*
X18288690Y48899500D01*
X18288691Y48899500D01*
X18318865Y48905502D01*
X18462666Y48934105D01*
X18462669Y48934106D01*
X18626543Y49001985D01*
X18626544Y49001986D01*
X18626547Y49001987D01*
X18774035Y49100536D01*
X18899464Y49225965D01*
X18899466Y49225968D01*
X18899469Y49225971D01*
X18903802Y49231250D01*
X18905710Y49229683D01*
X18950715Y49269157D01*
X19021283Y49283200D01*
X19089418Y49260078D01*
X19110491Y49242785D01*
X19797630Y48555648D01*
X19797629Y48555647D01*
X19905645Y48447632D01*
X19905646Y48447631D01*
X20032661Y48362762D01*
X20032666Y48362759D01*
X20173795Y48304301D01*
X20173799Y48304300D01*
X20323620Y48274500D01*
X20947595Y48274500D01*
X21017095Y48255878D01*
X21022730Y48252373D01*
X21023460Y48251983D01*
X21187330Y48184106D01*
X21187333Y48184105D01*
X21336552Y48154424D01*
X21361309Y48149500D01*
X21361310Y48149500D01*
X21538690Y48149500D01*
X21538691Y48149500D01*
X21567554Y48155241D01*
X21712666Y48184105D01*
X21712669Y48184106D01*
X21876543Y48251985D01*
X21876544Y48251986D01*
X21876547Y48251987D01*
X22024035Y48350536D01*
X22115101Y48441602D01*
X22177411Y48477577D01*
X22249363Y48477577D01*
X22311675Y48441601D01*
X22847630Y47905648D01*
X22847629Y47905647D01*
X22955645Y47797632D01*
X22955646Y47797631D01*
X23082661Y47712762D01*
X23082666Y47712759D01*
X23223795Y47654301D01*
X23223799Y47654300D01*
X23373620Y47624500D01*
X24347595Y47624500D01*
X24417095Y47605878D01*
X24422730Y47602373D01*
X24423460Y47601983D01*
X24587330Y47534106D01*
X24587333Y47534105D01*
X24736552Y47504424D01*
X24761309Y47499500D01*
X24761310Y47499500D01*
X24938690Y47499500D01*
X24938691Y47499500D01*
X24967554Y47505241D01*
X25112666Y47534105D01*
X25112669Y47534106D01*
X25276543Y47601985D01*
X25276544Y47601986D01*
X25276547Y47601987D01*
X25424035Y47700536D01*
X25549464Y47825965D01*
X25648013Y47973453D01*
X25666324Y48017660D01*
X25715893Y48137330D01*
X25715894Y48137333D01*
X25750500Y48311309D01*
X25750500Y48367200D01*
X25769122Y48436700D01*
X25820000Y48487578D01*
X25889500Y48506200D01*
X25959000Y48487578D01*
X25987788Y48465488D01*
X27305651Y47147626D01*
X27385381Y47094354D01*
X27385382Y47094353D01*
X27432657Y47062764D01*
X27432670Y47062757D01*
X27573795Y47004301D01*
X27573799Y47004300D01*
X27723620Y46974500D01*
X28647595Y46974500D01*
X28717095Y46955878D01*
X28722730Y46952373D01*
X28723460Y46951983D01*
X28887330Y46884106D01*
X28887333Y46884105D01*
X29036552Y46854424D01*
X29061309Y46849500D01*
X29061310Y46849500D01*
X29238690Y46849500D01*
X29238691Y46849500D01*
X29267554Y46855241D01*
X29412666Y46884105D01*
X29412669Y46884106D01*
X29576543Y46951985D01*
X29576544Y46951986D01*
X29576547Y46951987D01*
X29724035Y47050536D01*
X29849464Y47175965D01*
X29948013Y47323453D01*
X29978896Y47398011D01*
X30015893Y47487330D01*
X30015894Y47487333D01*
X30050500Y47661309D01*
X30050500Y47838690D01*
X30037181Y47905647D01*
X30015894Y48012666D01*
X29948013Y48176547D01*
X29849464Y48324035D01*
X29724035Y48449464D01*
X29576547Y48548013D01*
X29441847Y48603807D01*
X29412669Y48615893D01*
X29412666Y48615894D01*
X29338840Y48630579D01*
X29238691Y48650500D01*
X29061309Y48650500D01*
X29036022Y48645470D01*
X28887333Y48615894D01*
X28887330Y48615893D01*
X28723460Y48548016D01*
X28723453Y48548013D01*
X28723447Y48548009D01*
X28717434Y48544795D01*
X28716699Y48546168D01*
X28656682Y48525797D01*
X28647595Y48525500D01*
X28178799Y48525500D01*
X28109299Y48544122D01*
X28080511Y48566212D01*
X27341075Y49305648D01*
X23544352Y53102370D01*
X23417337Y53187239D01*
X23309078Y53232081D01*
X23251996Y53275882D01*
X23224461Y53342357D01*
X23233853Y53413693D01*
X23277654Y53470776D01*
X23344129Y53498311D01*
X23362272Y53499500D01*
X23576778Y53499500D01*
X23576784Y53499500D01*
X23576789Y53499500D01*
X23576809Y53499501D01*
X23617098Y53502233D01*
X23617108Y53502235D01*
X23791343Y53545564D01*
X23791349Y53545567D01*
X23952206Y53625345D01*
X23952207Y53625345D01*
X23952208Y53625346D01*
X23952210Y53625347D01*
X24092159Y53737841D01*
X24143092Y53801204D01*
X24201148Y53843706D01*
X24272678Y53851485D01*
X24333132Y53826573D01*
X24483836Y53717080D01*
X24694197Y53609897D01*
X24918748Y53536935D01*
X25151950Y53500000D01*
X25388050Y53500000D01*
X25621251Y53536935D01*
X25845802Y53609897D01*
X26056167Y53717082D01*
X26180059Y53807095D01*
X25414352Y54572804D01*
X25443694Y54580667D01*
X25546306Y54639910D01*
X25630090Y54723694D01*
X25689333Y54826306D01*
X25697194Y54855646D01*
X26462902Y54089939D01*
X26462903Y54089939D01*
X26552917Y54213832D01*
X26660102Y54424197D01*
X26733064Y54648748D01*
X26770000Y54881950D01*
X26770000Y55088690D01*
X32649500Y55088690D01*
X32649500Y54911309D01*
X32684105Y54737333D01*
X32684106Y54737330D01*
X32751985Y54573456D01*
X32751988Y54573451D01*
X32797076Y54505973D01*
X32850536Y54425965D01*
X32975965Y54300536D01*
X33046784Y54253216D01*
X33123451Y54201988D01*
X33123456Y54201985D01*
X33287330Y54134106D01*
X33287333Y54134105D01*
X33436552Y54104424D01*
X33461309Y54099500D01*
X33461310Y54099500D01*
X33638690Y54099500D01*
X33638691Y54099500D01*
X33663544Y54104443D01*
X33812672Y54134106D01*
X33814671Y54134713D01*
X33815924Y54134753D01*
X33819364Y54135438D01*
X33819477Y54134869D01*
X33886585Y54137059D01*
X33950037Y54103135D01*
X33953294Y54099982D01*
X35383788Y52669489D01*
X35419764Y52607177D01*
X35424500Y52571201D01*
X35424500Y47423620D01*
X35454300Y47273799D01*
X35454301Y47273795D01*
X35512759Y47132666D01*
X35512762Y47132661D01*
X35597630Y47005648D01*
X36196386Y46406889D01*
X36232362Y46344576D01*
X36233866Y46338125D01*
X36234104Y46337339D01*
X36301987Y46173451D01*
X36400536Y46025965D01*
X36525965Y45900536D01*
X36673451Y45801988D01*
X36673456Y45801985D01*
X36837330Y45734106D01*
X36837333Y45734105D01*
X36986552Y45704424D01*
X37011309Y45699500D01*
X37011310Y45699500D01*
X37188690Y45699500D01*
X37188691Y45699500D01*
X37217554Y45705241D01*
X37362666Y45734105D01*
X37362669Y45734106D01*
X37526543Y45801985D01*
X37526544Y45801986D01*
X37526547Y45801987D01*
X37674035Y45900536D01*
X37799464Y46025965D01*
X37898013Y46173453D01*
X37922451Y46232453D01*
X37965893Y46337330D01*
X37965894Y46337333D01*
X38000500Y46511309D01*
X38000500Y46688690D01*
X37998700Y46697737D01*
X37965894Y46862666D01*
X37898013Y47026547D01*
X37799464Y47174035D01*
X37674035Y47299464D01*
X37526547Y47398013D01*
X37362666Y47465894D01*
X37362662Y47465894D01*
X37356135Y47467875D01*
X37356587Y47469367D01*
X37299755Y47497388D01*
X37293122Y47503599D01*
X37016212Y47780510D01*
X36980236Y47842822D01*
X36975500Y47878798D01*
X36975500Y53026379D01*
X36945699Y53176200D01*
X36945698Y53176204D01*
X36941128Y53187237D01*
X36887239Y53317337D01*
X36802370Y53444352D01*
X36694352Y53552370D01*
X34644352Y55602370D01*
X34517337Y55687239D01*
X34376205Y55745698D01*
X34226380Y55775500D01*
X34052405Y55775500D01*
X33982905Y55794122D01*
X33977269Y55797626D01*
X33976556Y55798006D01*
X33976547Y55798013D01*
X33884140Y55836288D01*
X33812669Y55865893D01*
X33812666Y55865894D01*
X33638691Y55900500D01*
X33461309Y55900500D01*
X33374321Y55883197D01*
X33287333Y55865894D01*
X33287330Y55865893D01*
X33167660Y55816324D01*
X33123453Y55798013D01*
X32975965Y55699464D01*
X32850536Y55574035D01*
X32836060Y55552370D01*
X32751988Y55426548D01*
X32751985Y55426543D01*
X32684106Y55262669D01*
X32684105Y55262666D01*
X32649500Y55088690D01*
X26770000Y55088690D01*
X26770000Y55118049D01*
X26733064Y55351251D01*
X26660103Y55575800D01*
X26552914Y55786171D01*
X26462902Y55910059D01*
X25697195Y55144352D01*
X25689333Y55173694D01*
X25630090Y55276306D01*
X25546306Y55360090D01*
X25443694Y55419333D01*
X25414352Y55427195D01*
X26180059Y56192902D01*
X26056171Y56282914D01*
X25845800Y56390103D01*
X25621251Y56463064D01*
X25388050Y56500000D01*
X25151950Y56500000D01*
X24918748Y56463064D01*
X24694197Y56390102D01*
X24483832Y56282917D01*
X24333132Y56173427D01*
X24265960Y56147641D01*
X24194894Y56158897D01*
X24143092Y56198794D01*
X24092159Y56262159D01*
X23952210Y56374653D01*
X23791349Y56454433D01*
X23791345Y56454433D01*
X23791343Y56454435D01*
X23617108Y56497764D01*
X23617100Y56497766D01*
X23576784Y56500500D01*
X21883216Y56500500D01*
X21842900Y56497766D01*
X21842895Y56497764D01*
X21842891Y56497764D01*
X21668656Y56454435D01*
X21668652Y56454433D01*
X21668651Y56454433D01*
X21507790Y56374653D01*
X21367841Y56262159D01*
X21284837Y56158897D01*
X21255345Y56122207D01*
X21255345Y56122206D01*
X21175567Y55961349D01*
X21175564Y55961343D01*
X21132235Y55787108D01*
X21132233Y55787098D01*
X21129501Y55746809D01*
X21129500Y55746778D01*
X21129500Y54452797D01*
X21110878Y54383297D01*
X21060000Y54332419D01*
X20990500Y54313797D01*
X20921000Y54332419D01*
X20892212Y54354509D01*
X19336662Y55910059D01*
X17494352Y57752370D01*
X17367337Y57837239D01*
X17226205Y57895698D01*
X17076380Y57925500D01*
X4976380Y57925500D01*
X4823620Y57925500D01*
X4673799Y57895699D01*
X4673795Y57895698D01*
X4532663Y57837239D01*
X4405648Y57752370D01*
X2737285Y56084007D01*
X2674976Y56048033D01*
X2603024Y56048033D01*
X2540712Y56084009D01*
X2504736Y56146321D01*
X2500000Y56182297D01*
X2500000Y59627848D01*
X35549500Y59627848D01*
X35549500Y59372151D01*
X35582873Y59118664D01*
X35649051Y58871681D01*
X35746893Y58635469D01*
X35746899Y58635457D01*
X35874736Y58414038D01*
X35874738Y58414035D01*
X36030386Y58211191D01*
X36211191Y58030386D01*
X36414035Y57874738D01*
X36414038Y57874736D01*
X36635457Y57746899D01*
X36635469Y57746893D01*
X36871681Y57649051D01*
X37118664Y57582873D01*
X37372151Y57549500D01*
X37372157Y57549500D01*
X37627848Y57549500D01*
X37881335Y57582873D01*
X37881337Y57582873D01*
X37881340Y57582874D01*
X38004826Y57615962D01*
X38128318Y57649051D01*
X38364530Y57746893D01*
X38364542Y57746899D01*
X38585961Y57874736D01*
X38585964Y57874738D01*
X38788808Y58030386D01*
X38788813Y58030390D01*
X38969610Y58211187D01*
X39125261Y58414035D01*
X39252319Y58634105D01*
X39253100Y58635457D01*
X39253106Y58635469D01*
X39350948Y58871681D01*
X39350950Y58871687D01*
X39417126Y59118660D01*
X39450500Y59372157D01*
X39450500Y59588690D01*
X67999500Y59588690D01*
X67999500Y59411309D01*
X68034105Y59237333D01*
X68034106Y59237330D01*
X68101985Y59073456D01*
X68101988Y59073451D01*
X68200536Y58925965D01*
X68325965Y58800536D01*
X68473451Y58701988D01*
X68473456Y58701985D01*
X68637330Y58634106D01*
X68637333Y58634105D01*
X68786552Y58604424D01*
X68811309Y58599500D01*
X68811310Y58599500D01*
X68988690Y58599500D01*
X68988691Y58599500D01*
X69017554Y58605241D01*
X69162666Y58634105D01*
X69162669Y58634106D01*
X69326543Y58701985D01*
X69326544Y58701986D01*
X69326547Y58701987D01*
X69474035Y58800536D01*
X69599464Y58925965D01*
X69698013Y59073453D01*
X69716740Y59118664D01*
X69765893Y59237330D01*
X69765894Y59237333D01*
X69800500Y59411309D01*
X69800500Y59588690D01*
X69765894Y59762666D01*
X69765893Y59762669D01*
X69716738Y59881340D01*
X69698013Y59926547D01*
X69599464Y60074035D01*
X69474035Y60199464D01*
X69326547Y60298013D01*
X69170042Y60362839D01*
X69162669Y60365893D01*
X69162666Y60365894D01*
X68988691Y60400500D01*
X68811309Y60400500D01*
X68724321Y60383197D01*
X68637333Y60365894D01*
X68637330Y60365893D01*
X68517660Y60316324D01*
X68473453Y60298013D01*
X68325965Y60199464D01*
X68200536Y60074035D01*
X68110316Y59939012D01*
X68101988Y59926548D01*
X68101985Y59926543D01*
X68034106Y59762669D01*
X68034105Y59762666D01*
X67999500Y59588690D01*
X39450500Y59588690D01*
X39450500Y59627843D01*
X39417126Y59881340D01*
X39350950Y60128313D01*
X39253104Y60364535D01*
X39125261Y60585965D01*
X38969610Y60788813D01*
X38788813Y60969610D01*
X38585965Y61125261D01*
X38364535Y61253104D01*
X38128313Y61350950D01*
X37881340Y61417126D01*
X37627843Y61450500D01*
X37372157Y61450500D01*
X37118660Y61417126D01*
X36871687Y61350950D01*
X36871684Y61350948D01*
X36871681Y61350948D01*
X36635469Y61253106D01*
X36635457Y61253100D01*
X36414038Y61125263D01*
X36414035Y61125261D01*
X36211187Y60969610D01*
X36030390Y60788813D01*
X36030386Y60788808D01*
X35874738Y60585964D01*
X35874736Y60585961D01*
X35746899Y60364542D01*
X35746893Y60364530D01*
X35649051Y60128318D01*
X35649050Y60128313D01*
X35594988Y59926548D01*
X35582873Y59881335D01*
X35549500Y59627848D01*
X2500000Y59627848D01*
X2500000Y66189943D01*
X9649500Y66189943D01*
X9649500Y65810056D01*
X9682609Y65431608D01*
X9682610Y65431602D01*
X9748573Y65057500D01*
X9748577Y65057480D01*
X9846901Y64690531D01*
X9846904Y64690522D01*
X9976831Y64333551D01*
X10137380Y63989254D01*
X10327333Y63660245D01*
X10327336Y63660240D01*
X10545222Y63349066D01*
X10545229Y63349057D01*
X10789408Y63058055D01*
X11058055Y62789408D01*
X11349057Y62545229D01*
X11349066Y62545222D01*
X11660240Y62327336D01*
X11660245Y62327333D01*
X11989254Y62137380D01*
X12333551Y61976831D01*
X12690522Y61846904D01*
X12690531Y61846901D01*
X13057480Y61748577D01*
X13057500Y61748573D01*
X13431602Y61682610D01*
X13431608Y61682609D01*
X13710726Y61658190D01*
X13810053Y61649500D01*
X13810056Y61649500D01*
X14189944Y61649500D01*
X14189947Y61649500D01*
X14298797Y61659023D01*
X14568391Y61682609D01*
X14568397Y61682610D01*
X14942499Y61748573D01*
X14942519Y61748577D01*
X15309468Y61846901D01*
X15309477Y61846904D01*
X15666448Y61976831D01*
X16010745Y62137380D01*
X16010746Y62137381D01*
X16010751Y62137383D01*
X16339749Y62327330D01*
X16339754Y62327333D01*
X16339759Y62327336D01*
X16545558Y62471438D01*
X16650933Y62545222D01*
X16650942Y62545229D01*
X16941944Y62789408D01*
X16941954Y62789417D01*
X17210581Y63058044D01*
X17249973Y63104990D01*
X17249975Y63104991D01*
X17454770Y63349057D01*
X17454777Y63349066D01*
X17672663Y63660240D01*
X17672666Y63660245D01*
X17672666Y63660246D01*
X17672670Y63660251D01*
X17862617Y63989249D01*
X17928945Y64131491D01*
X18023168Y64333551D01*
X18153095Y64690522D01*
X18153098Y64690531D01*
X18251422Y65057480D01*
X18251423Y65057482D01*
X18317390Y65431605D01*
X18350500Y65810053D01*
X18350500Y66189947D01*
X18317390Y66568395D01*
X18251423Y66942518D01*
X18153099Y67309467D01*
X18047550Y67599460D01*
X18023168Y67666448D01*
X17992622Y67731953D01*
X17862617Y68010751D01*
X17672670Y68339749D01*
X17454772Y68650940D01*
X17210581Y68941956D01*
X16941956Y69210581D01*
X16650940Y69454772D01*
X16339749Y69672670D01*
X16010751Y69862617D01*
X15666450Y70023167D01*
X15666448Y70023168D01*
X15512864Y70079068D01*
X15309467Y70153099D01*
X14942518Y70251423D01*
X14568395Y70317390D01*
X14189947Y70350500D01*
X13810053Y70350500D01*
X13431605Y70317390D01*
X13057482Y70251423D01*
X12690533Y70153099D01*
X12690522Y70153095D01*
X12333551Y70023168D01*
X12248316Y69983422D01*
X11989249Y69862617D01*
X11660251Y69672670D01*
X11660246Y69672666D01*
X11660245Y69672666D01*
X11660240Y69672663D01*
X11349066Y69454777D01*
X11349057Y69454770D01*
X11058055Y69210591D01*
X11058046Y69210583D01*
X10789417Y68941954D01*
X10789408Y68941944D01*
X10545229Y68650942D01*
X10545222Y68650933D01*
X10327336Y68339759D01*
X10327333Y68339754D01*
X10327330Y68339749D01*
X10195047Y68110627D01*
X10137380Y68010745D01*
X9976831Y67666448D01*
X9846904Y67309477D01*
X9846901Y67309468D01*
X9748577Y66942519D01*
X9748573Y66942499D01*
X9686229Y66588919D01*
X9682610Y66568395D01*
X9652727Y66226823D01*
X9649500Y66189943D01*
X2500000Y66189943D01*
X2500000Y68942424D01*
X2518622Y69011924D01*
X2540712Y69040712D01*
X6459288Y72959288D01*
X6521600Y72995264D01*
X6557576Y73000000D01*
X72657346Y73000000D01*
X72726846Y72981378D01*
G37*
%TD.AperFunction*%
%TA.AperFunction,Conductor*%
G36*
X10804075Y29417007D02*
G01*
X10869901Y29302993D01*
X10962993Y29209901D01*
X11077007Y29144075D01*
X11084823Y29141980D01*
X10467327Y28524483D01*
X10566469Y28452454D01*
X10611750Y28396538D01*
X10623007Y28325472D01*
X10597222Y28258299D01*
X10566470Y28227547D01*
X10467327Y28155515D01*
X10467327Y28155514D01*
X11084821Y27538019D01*
X11077007Y27535925D01*
X10962993Y27470099D01*
X10869901Y27377007D01*
X10804075Y27262993D01*
X10801980Y27255174D01*
X10184483Y27872670D01*
X10174566Y27859020D01*
X10118649Y27813739D01*
X10047583Y27802483D01*
X9980410Y27828268D01*
X9949666Y27859011D01*
X9836379Y28014937D01*
X9674937Y28176379D01*
X9674929Y28176384D01*
X9674928Y28176386D01*
X9604511Y28227547D01*
X9559230Y28283464D01*
X9547974Y28354529D01*
X9573760Y28421702D01*
X9604511Y28452453D01*
X9674928Y28503613D01*
X9674933Y28503618D01*
X9674937Y28503621D01*
X9836379Y28665063D01*
X9949721Y28821064D01*
X9977792Y28843760D01*
X10005576Y28866259D01*
X10005630Y28866267D01*
X10005673Y28866302D01*
X10040484Y28871788D01*
X10076642Y28877515D01*
X10076695Y28877494D01*
X10076748Y28877503D01*
X10110152Y28864651D01*
X10143814Y28851729D01*
X10143860Y28851682D01*
X10143900Y28851667D01*
X10144001Y28851541D01*
X10174566Y28820978D01*
X10184483Y28807327D01*
X10801980Y29424823D01*
X10804075Y29417007D01*
G37*
%TD.AperFunction*%
%TA.AperFunction,Conductor*%
G36*
X10081703Y31306239D02*
G01*
X10112453Y31275489D01*
X10163618Y31205066D01*
X10325066Y31043618D01*
X10480980Y30930340D01*
X10526260Y30874423D01*
X10537515Y30803357D01*
X10511730Y30736184D01*
X10480979Y30705433D01*
X10467327Y30695514D01*
X11084821Y30078019D01*
X11077007Y30075925D01*
X10962993Y30010099D01*
X10869901Y29917007D01*
X10804075Y29802993D01*
X10801980Y29795174D01*
X10184483Y30412670D01*
X10174566Y30399020D01*
X10118649Y30353739D01*
X10047583Y30342483D01*
X9980410Y30368268D01*
X9949666Y30399011D01*
X9836379Y30554937D01*
X9674937Y30716379D01*
X9674929Y30716384D01*
X9674928Y30716386D01*
X9604511Y30767547D01*
X9559230Y30823464D01*
X9547974Y30894529D01*
X9573760Y30961702D01*
X9604511Y30992453D01*
X9674928Y31043613D01*
X9674933Y31043618D01*
X9674937Y31043621D01*
X9836379Y31205063D01*
X9887547Y31275489D01*
X9943464Y31320769D01*
X10014530Y31332024D01*
X10081703Y31306239D01*
G37*
%TD.AperFunction*%
%TD*%
M02*
