%TF.GenerationSoftware,KiCad,Pcbnew,10.0.1*%
%TF.CreationDate,2026-04-23T04:09:21+09:00*%
%TF.ProjectId,Multi_Mega_Display_V2,4d756c74-695f-44d6-9567-615f44697370,rev?*%
%TF.SameCoordinates,Original*%
%TF.FileFunction,Paste,Top*%
%TF.FilePolarity,Positive*%
%FSLAX46Y46*%
G04 Gerber Fmt 4.6, Leading zero omitted, Abs format (unit mm)*
G04 Created by KiCad (PCBNEW 10.0.1) date 2026-04-23 04:09:21*
%MOMM*%
%LPD*%
G01*
G04 APERTURE LIST*
G04 Aperture macros list*
%AMRoundRect*
0 Rectangle with rounded corners*
0 $1 Rounding radius*
0 $2 $3 $4 $5 $6 $7 $8 $9 X,Y pos of 4 corners*
0 Add a 4 corners polygon primitive as box body*
4,1,4,$2,$3,$4,$5,$6,$7,$8,$9,$2,$3,0*
0 Add four circle primitives for the rounded corners*
1,1,$1+$1,$2,$3*
1,1,$1+$1,$4,$5*
1,1,$1+$1,$6,$7*
1,1,$1+$1,$8,$9*
0 Add four rect primitives between the rounded corners*
20,1,$1+$1,$2,$3,$4,$5,0*
20,1,$1+$1,$4,$5,$6,$7,0*
20,1,$1+$1,$6,$7,$8,$9,0*
20,1,$1+$1,$8,$9,$2,$3,0*%
G04 Aperture macros list end*
%ADD10RoundRect,0.150000X0.750000X-0.530000X0.750000X0.530000X-0.750000X0.530000X-0.750000X-0.530000X0*%
%ADD11RoundRect,0.150000X-0.480000X-0.550000X0.480000X-0.550000X0.480000X0.550000X-0.480000X0.550000X0*%
%ADD12RoundRect,0.150000X0.550000X-0.480000X0.550000X0.480000X-0.550000X0.480000X-0.550000X-0.480000X0*%
%ADD13RoundRect,0.150000X-0.550000X0.480000X-0.550000X-0.480000X0.550000X-0.480000X0.550000X0.480000X0*%
%ADD14RoundRect,0.100000X-0.100000X0.637500X-0.100000X-0.637500X0.100000X-0.637500X0.100000X0.637500X0*%
%ADD15RoundRect,0.150000X0.150000X-0.587500X0.150000X0.587500X-0.150000X0.587500X-0.150000X-0.587500X0*%
%ADD16RoundRect,0.150000X0.480000X0.550000X-0.480000X0.550000X-0.480000X-0.550000X0.480000X-0.550000X0*%
%ADD17RoundRect,0.100000X-0.637500X-0.100000X0.637500X-0.100000X0.637500X0.100000X-0.637500X0.100000X0*%
%ADD18RoundRect,0.250000X-0.461200X0.650005X-0.461200X-0.650005X0.461200X-0.650005X0.461200X0.650005X0*%
%ADD19RoundRect,0.250000X0.461200X-0.650005X0.461200X0.650005X-0.461200X0.650005X-0.461200X-0.650005X0*%
%ADD20RoundRect,0.150000X-0.750000X0.530000X-0.750000X-0.530000X0.750000X-0.530000X0.750000X0.530000X0*%
G04 APERTURE END LIST*
D10*
%TO.C,R11*%
X136500000Y37850000D03*
X136500000Y41150000D03*
%TD*%
D11*
%TO.C,R5*%
X31530000Y55000000D03*
X29470000Y55000000D03*
%TD*%
D12*
%TO.C,R8*%
X109500000Y16470000D03*
X109500000Y18530000D03*
%TD*%
%TO.C,R12*%
X55500000Y16470000D03*
X55500000Y18530000D03*
%TD*%
D13*
%TO.C,C12*%
X40500000Y18530000D03*
X40500000Y16470000D03*
%TD*%
D12*
%TO.C,R9*%
X91500000Y16470000D03*
X91500000Y18530000D03*
%TD*%
D13*
%TO.C,C8*%
X112500000Y18530000D03*
X112500000Y16470000D03*
%TD*%
D10*
%TO.C,C7*%
X22000000Y20850000D03*
X22000000Y24150000D03*
%TD*%
D14*
%TO.C,U2*%
X56925000Y38362500D03*
X56275000Y38362500D03*
X55625000Y38362500D03*
X54975000Y38362500D03*
X54325000Y38362500D03*
X53675000Y38362500D03*
X53025000Y38362500D03*
X52375000Y38362500D03*
X51725000Y38362500D03*
X51075000Y38362500D03*
X51075000Y32637500D03*
X51725000Y32637500D03*
X52375000Y32637500D03*
X53025000Y32637500D03*
X53675000Y32637500D03*
X54325000Y32637500D03*
X54975000Y32637500D03*
X55625000Y32637500D03*
X56275000Y32637500D03*
X56925000Y32637500D03*
%TD*%
D15*
%TO.C,Q1*%
X141050000Y39562500D03*
X142950000Y39562500D03*
X142000000Y41437500D03*
%TD*%
D11*
%TO.C,C2*%
X51470000Y55500000D03*
X53530000Y55500000D03*
%TD*%
D16*
%TO.C,R4*%
X120030000Y33000000D03*
X117970000Y33000000D03*
%TD*%
D13*
%TO.C,C10*%
X76500000Y18530000D03*
X76500000Y16470000D03*
%TD*%
D17*
%TO.C,U1*%
X49637500Y51925000D03*
X49637500Y51275000D03*
X49637500Y50625000D03*
X49637500Y49975000D03*
X49637500Y49325000D03*
X49637500Y48675000D03*
X49637500Y48025000D03*
X49637500Y47375000D03*
X49637500Y46725000D03*
X49637500Y46075000D03*
X55362500Y46075000D03*
X55362500Y46725000D03*
X55362500Y47375000D03*
X55362500Y48025000D03*
X55362500Y48675000D03*
X55362500Y49325000D03*
X55362500Y49975000D03*
X55362500Y50625000D03*
X55362500Y51275000D03*
X55362500Y51925000D03*
%TD*%
D10*
%TO.C,C3*%
X67000000Y46350000D03*
X67000000Y49650000D03*
%TD*%
D16*
%TO.C,R3*%
X120030000Y44000000D03*
X117970000Y44000000D03*
%TD*%
D11*
%TO.C,R7*%
X29470000Y33000000D03*
X31530000Y33000000D03*
%TD*%
D13*
%TO.C,C11*%
X58500000Y18530000D03*
X58500000Y16470000D03*
%TD*%
%TO.C,C1*%
X61000000Y36530000D03*
X61000000Y34470000D03*
%TD*%
D16*
%TO.C,R2*%
X120030000Y55000000D03*
X117970000Y55000000D03*
%TD*%
D12*
%TO.C,R10*%
X73500000Y16470000D03*
X73500000Y18530000D03*
%TD*%
D11*
%TO.C,C5*%
X97170000Y67500000D03*
X99230000Y67500000D03*
%TD*%
D18*
%TO.C,D7*%
X140310900Y35000000D03*
D19*
X143689100Y35000000D03*
%TD*%
D20*
%TO.C,R1*%
X104500000Y70650000D03*
X104500000Y67350000D03*
%TD*%
D13*
%TO.C,C9*%
X94500000Y18530000D03*
X94500000Y16470000D03*
%TD*%
D11*
%TO.C,R6*%
X29470000Y44000000D03*
X31530000Y44000000D03*
%TD*%
D12*
%TO.C,C6*%
X25500000Y20970000D03*
X25500000Y23030000D03*
%TD*%
D11*
%TO.C,C4*%
X87970000Y67500000D03*
X90030000Y67500000D03*
%TD*%
D12*
%TO.C,R13*%
X37500000Y16470000D03*
X37500000Y18530000D03*
%TD*%
M02*
