%TF.GenerationSoftware,KiCad,Pcbnew,10.0.1*%
%TF.CreationDate,2026-04-23T04:09:21+09:00*%
%TF.ProjectId,Multi_Mega_Display_V2,4d756c74-695f-44d6-9567-615f44697370,rev?*%
%TF.SameCoordinates,Original*%
%TF.FileFunction,Legend,Top*%
%TF.FilePolarity,Positive*%
%FSLAX46Y46*%
G04 Gerber Fmt 4.6, Leading zero omitted, Abs format (unit mm)*
G04 Created by KiCad (PCBNEW 10.0.1) date 2026-04-23 04:09:21*
%MOMM*%
%LPD*%
G01*
G04 APERTURE LIST*
%ADD10C,0.200000*%
%ADD11C,0.150000*%
%ADD12C,0.120000*%
G04 APERTURE END LIST*
D10*
X40988720Y69693971D02*
X40988720Y71193971D01*
X40988720Y71193971D02*
X41488720Y70122542D01*
X41488720Y70122542D02*
X41988720Y71193971D01*
X41988720Y71193971D02*
X41988720Y69693971D01*
X42703006Y70479685D02*
X43203006Y70479685D01*
X43417292Y69693971D02*
X42703006Y69693971D01*
X42703006Y69693971D02*
X42703006Y71193971D01*
X42703006Y71193971D02*
X43417292Y71193971D01*
X44845864Y71122542D02*
X44703007Y71193971D01*
X44703007Y71193971D02*
X44488721Y71193971D01*
X44488721Y71193971D02*
X44274435Y71122542D01*
X44274435Y71122542D02*
X44131578Y70979685D01*
X44131578Y70979685D02*
X44060149Y70836828D01*
X44060149Y70836828D02*
X43988721Y70551114D01*
X43988721Y70551114D02*
X43988721Y70336828D01*
X43988721Y70336828D02*
X44060149Y70051114D01*
X44060149Y70051114D02*
X44131578Y69908257D01*
X44131578Y69908257D02*
X44274435Y69765400D01*
X44274435Y69765400D02*
X44488721Y69693971D01*
X44488721Y69693971D02*
X44631578Y69693971D01*
X44631578Y69693971D02*
X44845864Y69765400D01*
X44845864Y69765400D02*
X44917292Y69836828D01*
X44917292Y69836828D02*
X44917292Y70336828D01*
X44917292Y70336828D02*
X44631578Y70336828D01*
X45488721Y70122542D02*
X46203007Y70122542D01*
X45345864Y69693971D02*
X45845864Y71193971D01*
X45845864Y71193971D02*
X46345864Y69693971D01*
X46488721Y69551114D02*
X47631578Y69551114D01*
X47988720Y69693971D02*
X47988720Y71193971D01*
X47988720Y71193971D02*
X48345863Y71193971D01*
X48345863Y71193971D02*
X48560149Y71122542D01*
X48560149Y71122542D02*
X48703006Y70979685D01*
X48703006Y70979685D02*
X48774435Y70836828D01*
X48774435Y70836828D02*
X48845863Y70551114D01*
X48845863Y70551114D02*
X48845863Y70336828D01*
X48845863Y70336828D02*
X48774435Y70051114D01*
X48774435Y70051114D02*
X48703006Y69908257D01*
X48703006Y69908257D02*
X48560149Y69765400D01*
X48560149Y69765400D02*
X48345863Y69693971D01*
X48345863Y69693971D02*
X47988720Y69693971D01*
X49488720Y69693971D02*
X49488720Y71193971D01*
X50131578Y69765400D02*
X50345864Y69693971D01*
X50345864Y69693971D02*
X50703006Y69693971D01*
X50703006Y69693971D02*
X50845864Y69765400D01*
X50845864Y69765400D02*
X50917292Y69836828D01*
X50917292Y69836828D02*
X50988721Y69979685D01*
X50988721Y69979685D02*
X50988721Y70122542D01*
X50988721Y70122542D02*
X50917292Y70265400D01*
X50917292Y70265400D02*
X50845864Y70336828D01*
X50845864Y70336828D02*
X50703006Y70408257D01*
X50703006Y70408257D02*
X50417292Y70479685D01*
X50417292Y70479685D02*
X50274435Y70551114D01*
X50274435Y70551114D02*
X50203006Y70622542D01*
X50203006Y70622542D02*
X50131578Y70765400D01*
X50131578Y70765400D02*
X50131578Y70908257D01*
X50131578Y70908257D02*
X50203006Y71051114D01*
X50203006Y71051114D02*
X50274435Y71122542D01*
X50274435Y71122542D02*
X50417292Y71193971D01*
X50417292Y71193971D02*
X50774435Y71193971D01*
X50774435Y71193971D02*
X50988721Y71122542D01*
X51631577Y69693971D02*
X51631577Y71193971D01*
X51631577Y71193971D02*
X52203006Y71193971D01*
X52203006Y71193971D02*
X52345863Y71122542D01*
X52345863Y71122542D02*
X52417292Y71051114D01*
X52417292Y71051114D02*
X52488720Y70908257D01*
X52488720Y70908257D02*
X52488720Y70693971D01*
X52488720Y70693971D02*
X52417292Y70551114D01*
X52417292Y70551114D02*
X52345863Y70479685D01*
X52345863Y70479685D02*
X52203006Y70408257D01*
X52203006Y70408257D02*
X51631577Y70408257D01*
X53845863Y69693971D02*
X53131577Y69693971D01*
X53131577Y69693971D02*
X53131577Y71193971D01*
X54274435Y70122542D02*
X54988721Y70122542D01*
X54131578Y69693971D02*
X54631578Y71193971D01*
X54631578Y71193971D02*
X55131578Y69693971D01*
X55917292Y70408257D02*
X55917292Y69693971D01*
X55417292Y71193971D02*
X55917292Y70408257D01*
X55917292Y70408257D02*
X56417292Y71193971D01*
X56560149Y69551114D02*
X57703006Y69551114D01*
X58560148Y70479685D02*
X58774434Y70408257D01*
X58774434Y70408257D02*
X58845863Y70336828D01*
X58845863Y70336828D02*
X58917291Y70193971D01*
X58917291Y70193971D02*
X58917291Y69979685D01*
X58917291Y69979685D02*
X58845863Y69836828D01*
X58845863Y69836828D02*
X58774434Y69765400D01*
X58774434Y69765400D02*
X58631577Y69693971D01*
X58631577Y69693971D02*
X58060148Y69693971D01*
X58060148Y69693971D02*
X58060148Y71193971D01*
X58060148Y71193971D02*
X58560148Y71193971D01*
X58560148Y71193971D02*
X58703006Y71122542D01*
X58703006Y71122542D02*
X58774434Y71051114D01*
X58774434Y71051114D02*
X58845863Y70908257D01*
X58845863Y70908257D02*
X58845863Y70765400D01*
X58845863Y70765400D02*
X58774434Y70622542D01*
X58774434Y70622542D02*
X58703006Y70551114D01*
X58703006Y70551114D02*
X58560148Y70479685D01*
X58560148Y70479685D02*
X58060148Y70479685D01*
X59560148Y69693971D02*
X59560148Y71193971D01*
X59560148Y71193971D02*
X59917291Y71193971D01*
X59917291Y71193971D02*
X60131577Y71122542D01*
X60131577Y71122542D02*
X60274434Y70979685D01*
X60274434Y70979685D02*
X60345863Y70836828D01*
X60345863Y70836828D02*
X60417291Y70551114D01*
X60417291Y70551114D02*
X60417291Y70336828D01*
X60417291Y70336828D02*
X60345863Y70051114D01*
X60345863Y70051114D02*
X60274434Y69908257D01*
X60274434Y69908257D02*
X60131577Y69765400D01*
X60131577Y69765400D02*
X59917291Y69693971D01*
X59917291Y69693971D02*
X59560148Y69693971D01*
X42274435Y68193971D02*
X42774435Y66693971D01*
X42774435Y66693971D02*
X43274435Y68193971D01*
X43774434Y67479685D02*
X44274434Y67479685D01*
X44488720Y66693971D02*
X43774434Y66693971D01*
X43774434Y66693971D02*
X43774434Y68193971D01*
X43774434Y68193971D02*
X44488720Y68193971D01*
X45988720Y66693971D02*
X45488720Y67408257D01*
X45131577Y66693971D02*
X45131577Y68193971D01*
X45131577Y68193971D02*
X45703006Y68193971D01*
X45703006Y68193971D02*
X45845863Y68122542D01*
X45845863Y68122542D02*
X45917292Y68051114D01*
X45917292Y68051114D02*
X45988720Y67908257D01*
X45988720Y67908257D02*
X45988720Y67693971D01*
X45988720Y67693971D02*
X45917292Y67551114D01*
X45917292Y67551114D02*
X45845863Y67479685D01*
X45845863Y67479685D02*
X45703006Y67408257D01*
X45703006Y67408257D02*
X45131577Y67408257D01*
X46631577Y67265400D02*
X47774435Y67265400D01*
X48417292Y68051114D02*
X48488720Y68122542D01*
X48488720Y68122542D02*
X48631578Y68193971D01*
X48631578Y68193971D02*
X48988720Y68193971D01*
X48988720Y68193971D02*
X49131578Y68122542D01*
X49131578Y68122542D02*
X49203006Y68051114D01*
X49203006Y68051114D02*
X49274435Y67908257D01*
X49274435Y67908257D02*
X49274435Y67765400D01*
X49274435Y67765400D02*
X49203006Y67551114D01*
X49203006Y67551114D02*
X48345863Y66693971D01*
X48345863Y66693971D02*
X49274435Y66693971D01*
X49917291Y66836828D02*
X49988720Y66765400D01*
X49988720Y66765400D02*
X49917291Y66693971D01*
X49917291Y66693971D02*
X49845863Y66765400D01*
X49845863Y66765400D02*
X49917291Y66836828D01*
X49917291Y66836828D02*
X49917291Y66693971D01*
X50917292Y68193971D02*
X51060149Y68193971D01*
X51060149Y68193971D02*
X51203006Y68122542D01*
X51203006Y68122542D02*
X51274435Y68051114D01*
X51274435Y68051114D02*
X51345863Y67908257D01*
X51345863Y67908257D02*
X51417292Y67622542D01*
X51417292Y67622542D02*
X51417292Y67265400D01*
X51417292Y67265400D02*
X51345863Y66979685D01*
X51345863Y66979685D02*
X51274435Y66836828D01*
X51274435Y66836828D02*
X51203006Y66765400D01*
X51203006Y66765400D02*
X51060149Y66693971D01*
X51060149Y66693971D02*
X50917292Y66693971D01*
X50917292Y66693971D02*
X50774435Y66765400D01*
X50774435Y66765400D02*
X50703006Y66836828D01*
X50703006Y66836828D02*
X50631577Y66979685D01*
X50631577Y66979685D02*
X50560149Y67265400D01*
X50560149Y67265400D02*
X50560149Y67622542D01*
X50560149Y67622542D02*
X50631577Y67908257D01*
X50631577Y67908257D02*
X50703006Y68051114D01*
X50703006Y68051114D02*
X50774435Y68122542D01*
X50774435Y68122542D02*
X50917292Y68193971D01*
X52060148Y67265400D02*
X53203006Y67265400D01*
X53845863Y68051114D02*
X53917291Y68122542D01*
X53917291Y68122542D02*
X54060149Y68193971D01*
X54060149Y68193971D02*
X54417291Y68193971D01*
X54417291Y68193971D02*
X54560149Y68122542D01*
X54560149Y68122542D02*
X54631577Y68051114D01*
X54631577Y68051114D02*
X54703006Y67908257D01*
X54703006Y67908257D02*
X54703006Y67765400D01*
X54703006Y67765400D02*
X54631577Y67551114D01*
X54631577Y67551114D02*
X53774434Y66693971D01*
X53774434Y66693971D02*
X54703006Y66693971D01*
X55988720Y68193971D02*
X55703005Y68193971D01*
X55703005Y68193971D02*
X55560148Y68122542D01*
X55560148Y68122542D02*
X55488720Y68051114D01*
X55488720Y68051114D02*
X55345862Y67836828D01*
X55345862Y67836828D02*
X55274434Y67551114D01*
X55274434Y67551114D02*
X55274434Y66979685D01*
X55274434Y66979685D02*
X55345862Y66836828D01*
X55345862Y66836828D02*
X55417291Y66765400D01*
X55417291Y66765400D02*
X55560148Y66693971D01*
X55560148Y66693971D02*
X55845862Y66693971D01*
X55845862Y66693971D02*
X55988720Y66765400D01*
X55988720Y66765400D02*
X56060148Y66836828D01*
X56060148Y66836828D02*
X56131577Y66979685D01*
X56131577Y66979685D02*
X56131577Y67336828D01*
X56131577Y67336828D02*
X56060148Y67479685D01*
X56060148Y67479685D02*
X55988720Y67551114D01*
X55988720Y67551114D02*
X55845862Y67622542D01*
X55845862Y67622542D02*
X55560148Y67622542D01*
X55560148Y67622542D02*
X55417291Y67551114D01*
X55417291Y67551114D02*
X55345862Y67479685D01*
X55345862Y67479685D02*
X55274434Y67336828D01*
X57060148Y68193971D02*
X57203005Y68193971D01*
X57203005Y68193971D02*
X57345862Y68122542D01*
X57345862Y68122542D02*
X57417291Y68051114D01*
X57417291Y68051114D02*
X57488719Y67908257D01*
X57488719Y67908257D02*
X57560148Y67622542D01*
X57560148Y67622542D02*
X57560148Y67265400D01*
X57560148Y67265400D02*
X57488719Y66979685D01*
X57488719Y66979685D02*
X57417291Y66836828D01*
X57417291Y66836828D02*
X57345862Y66765400D01*
X57345862Y66765400D02*
X57203005Y66693971D01*
X57203005Y66693971D02*
X57060148Y66693971D01*
X57060148Y66693971D02*
X56917291Y66765400D01*
X56917291Y66765400D02*
X56845862Y66836828D01*
X56845862Y66836828D02*
X56774433Y66979685D01*
X56774433Y66979685D02*
X56703005Y67265400D01*
X56703005Y67265400D02*
X56703005Y67622542D01*
X56703005Y67622542D02*
X56774433Y67908257D01*
X56774433Y67908257D02*
X56845862Y68051114D01*
X56845862Y68051114D02*
X56917291Y68122542D01*
X56917291Y68122542D02*
X57060148Y68193971D01*
X58845862Y67693971D02*
X58845862Y66693971D01*
X58488719Y68265400D02*
X58131576Y67193971D01*
X58131576Y67193971D02*
X59060147Y67193971D01*
D11*
X135792857Y42498919D02*
X135426190Y43022728D01*
X135164285Y42498919D02*
X135164285Y43598919D01*
X135164285Y43598919D02*
X135583333Y43598919D01*
X135583333Y43598919D02*
X135688095Y43546538D01*
X135688095Y43546538D02*
X135740476Y43494157D01*
X135740476Y43494157D02*
X135792857Y43389395D01*
X135792857Y43389395D02*
X135792857Y43232252D01*
X135792857Y43232252D02*
X135740476Y43127490D01*
X135740476Y43127490D02*
X135688095Y43075109D01*
X135688095Y43075109D02*
X135583333Y43022728D01*
X135583333Y43022728D02*
X135164285Y43022728D01*
X136840476Y42498919D02*
X136211904Y42498919D01*
X136526190Y42498919D02*
X136526190Y43598919D01*
X136526190Y43598919D02*
X136421428Y43441776D01*
X136421428Y43441776D02*
X136316666Y43337014D01*
X136316666Y43337014D02*
X136211904Y43284633D01*
X137888095Y42498919D02*
X137259523Y42498919D01*
X137573809Y42498919D02*
X137573809Y43598919D01*
X137573809Y43598919D02*
X137469047Y43441776D01*
X137469047Y43441776D02*
X137364285Y43337014D01*
X137364285Y43337014D02*
X137259523Y43284633D01*
X30316667Y56148919D02*
X29950000Y56672728D01*
X29688095Y56148919D02*
X29688095Y57248919D01*
X29688095Y57248919D02*
X30107143Y57248919D01*
X30107143Y57248919D02*
X30211905Y57196538D01*
X30211905Y57196538D02*
X30264286Y57144157D01*
X30264286Y57144157D02*
X30316667Y57039395D01*
X30316667Y57039395D02*
X30316667Y56882252D01*
X30316667Y56882252D02*
X30264286Y56777490D01*
X30264286Y56777490D02*
X30211905Y56725109D01*
X30211905Y56725109D02*
X30107143Y56672728D01*
X30107143Y56672728D02*
X29688095Y56672728D01*
X31311905Y57248919D02*
X30788095Y57248919D01*
X30788095Y57248919D02*
X30735714Y56725109D01*
X30735714Y56725109D02*
X30788095Y56777490D01*
X30788095Y56777490D02*
X30892857Y56829871D01*
X30892857Y56829871D02*
X31154762Y56829871D01*
X31154762Y56829871D02*
X31259524Y56777490D01*
X31259524Y56777490D02*
X31311905Y56725109D01*
X31311905Y56725109D02*
X31364286Y56620347D01*
X31364286Y56620347D02*
X31364286Y56358442D01*
X31364286Y56358442D02*
X31311905Y56253680D01*
X31311905Y56253680D02*
X31259524Y56201300D01*
X31259524Y56201300D02*
X31154762Y56148919D01*
X31154762Y56148919D02*
X30892857Y56148919D01*
X30892857Y56148919D02*
X30788095Y56201300D01*
X30788095Y56201300D02*
X30735714Y56253680D01*
X109316667Y19498919D02*
X108950000Y20022728D01*
X108688095Y19498919D02*
X108688095Y20598919D01*
X108688095Y20598919D02*
X109107143Y20598919D01*
X109107143Y20598919D02*
X109211905Y20546538D01*
X109211905Y20546538D02*
X109264286Y20494157D01*
X109264286Y20494157D02*
X109316667Y20389395D01*
X109316667Y20389395D02*
X109316667Y20232252D01*
X109316667Y20232252D02*
X109264286Y20127490D01*
X109264286Y20127490D02*
X109211905Y20075109D01*
X109211905Y20075109D02*
X109107143Y20022728D01*
X109107143Y20022728D02*
X108688095Y20022728D01*
X109945238Y20127490D02*
X109840476Y20179871D01*
X109840476Y20179871D02*
X109788095Y20232252D01*
X109788095Y20232252D02*
X109735714Y20337014D01*
X109735714Y20337014D02*
X109735714Y20389395D01*
X109735714Y20389395D02*
X109788095Y20494157D01*
X109788095Y20494157D02*
X109840476Y20546538D01*
X109840476Y20546538D02*
X109945238Y20598919D01*
X109945238Y20598919D02*
X110154762Y20598919D01*
X110154762Y20598919D02*
X110259524Y20546538D01*
X110259524Y20546538D02*
X110311905Y20494157D01*
X110311905Y20494157D02*
X110364286Y20389395D01*
X110364286Y20389395D02*
X110364286Y20337014D01*
X110364286Y20337014D02*
X110311905Y20232252D01*
X110311905Y20232252D02*
X110259524Y20179871D01*
X110259524Y20179871D02*
X110154762Y20127490D01*
X110154762Y20127490D02*
X109945238Y20127490D01*
X109945238Y20127490D02*
X109840476Y20075109D01*
X109840476Y20075109D02*
X109788095Y20022728D01*
X109788095Y20022728D02*
X109735714Y19917966D01*
X109735714Y19917966D02*
X109735714Y19708442D01*
X109735714Y19708442D02*
X109788095Y19603680D01*
X109788095Y19603680D02*
X109840476Y19551300D01*
X109840476Y19551300D02*
X109945238Y19498919D01*
X109945238Y19498919D02*
X110154762Y19498919D01*
X110154762Y19498919D02*
X110259524Y19551300D01*
X110259524Y19551300D02*
X110311905Y19603680D01*
X110311905Y19603680D02*
X110364286Y19708442D01*
X110364286Y19708442D02*
X110364286Y19917966D01*
X110364286Y19917966D02*
X110311905Y20022728D01*
X110311905Y20022728D02*
X110259524Y20075109D01*
X110259524Y20075109D02*
X110154762Y20127490D01*
X54292857Y19498919D02*
X53926190Y20022728D01*
X53664285Y19498919D02*
X53664285Y20598919D01*
X53664285Y20598919D02*
X54083333Y20598919D01*
X54083333Y20598919D02*
X54188095Y20546538D01*
X54188095Y20546538D02*
X54240476Y20494157D01*
X54240476Y20494157D02*
X54292857Y20389395D01*
X54292857Y20389395D02*
X54292857Y20232252D01*
X54292857Y20232252D02*
X54240476Y20127490D01*
X54240476Y20127490D02*
X54188095Y20075109D01*
X54188095Y20075109D02*
X54083333Y20022728D01*
X54083333Y20022728D02*
X53664285Y20022728D01*
X55340476Y19498919D02*
X54711904Y19498919D01*
X55026190Y19498919D02*
X55026190Y20598919D01*
X55026190Y20598919D02*
X54921428Y20441776D01*
X54921428Y20441776D02*
X54816666Y20337014D01*
X54816666Y20337014D02*
X54711904Y20284633D01*
X55759523Y20494157D02*
X55811904Y20546538D01*
X55811904Y20546538D02*
X55916666Y20598919D01*
X55916666Y20598919D02*
X56178571Y20598919D01*
X56178571Y20598919D02*
X56283333Y20546538D01*
X56283333Y20546538D02*
X56335714Y20494157D01*
X56335714Y20494157D02*
X56388095Y20389395D01*
X56388095Y20389395D02*
X56388095Y20284633D01*
X56388095Y20284633D02*
X56335714Y20127490D01*
X56335714Y20127490D02*
X55707142Y19498919D01*
X55707142Y19498919D02*
X56388095Y19498919D01*
X40292857Y19603680D02*
X40240476Y19551300D01*
X40240476Y19551300D02*
X40083333Y19498919D01*
X40083333Y19498919D02*
X39978571Y19498919D01*
X39978571Y19498919D02*
X39821428Y19551300D01*
X39821428Y19551300D02*
X39716666Y19656061D01*
X39716666Y19656061D02*
X39664285Y19760823D01*
X39664285Y19760823D02*
X39611904Y19970347D01*
X39611904Y19970347D02*
X39611904Y20127490D01*
X39611904Y20127490D02*
X39664285Y20337014D01*
X39664285Y20337014D02*
X39716666Y20441776D01*
X39716666Y20441776D02*
X39821428Y20546538D01*
X39821428Y20546538D02*
X39978571Y20598919D01*
X39978571Y20598919D02*
X40083333Y20598919D01*
X40083333Y20598919D02*
X40240476Y20546538D01*
X40240476Y20546538D02*
X40292857Y20494157D01*
X41340476Y19498919D02*
X40711904Y19498919D01*
X41026190Y19498919D02*
X41026190Y20598919D01*
X41026190Y20598919D02*
X40921428Y20441776D01*
X40921428Y20441776D02*
X40816666Y20337014D01*
X40816666Y20337014D02*
X40711904Y20284633D01*
X41759523Y20494157D02*
X41811904Y20546538D01*
X41811904Y20546538D02*
X41916666Y20598919D01*
X41916666Y20598919D02*
X42178571Y20598919D01*
X42178571Y20598919D02*
X42283333Y20546538D01*
X42283333Y20546538D02*
X42335714Y20494157D01*
X42335714Y20494157D02*
X42388095Y20389395D01*
X42388095Y20389395D02*
X42388095Y20284633D01*
X42388095Y20284633D02*
X42335714Y20127490D01*
X42335714Y20127490D02*
X41707142Y19498919D01*
X41707142Y19498919D02*
X42388095Y19498919D01*
X91316667Y19498919D02*
X90950000Y20022728D01*
X90688095Y19498919D02*
X90688095Y20598919D01*
X90688095Y20598919D02*
X91107143Y20598919D01*
X91107143Y20598919D02*
X91211905Y20546538D01*
X91211905Y20546538D02*
X91264286Y20494157D01*
X91264286Y20494157D02*
X91316667Y20389395D01*
X91316667Y20389395D02*
X91316667Y20232252D01*
X91316667Y20232252D02*
X91264286Y20127490D01*
X91264286Y20127490D02*
X91211905Y20075109D01*
X91211905Y20075109D02*
X91107143Y20022728D01*
X91107143Y20022728D02*
X90688095Y20022728D01*
X91840476Y19498919D02*
X92050000Y19498919D01*
X92050000Y19498919D02*
X92154762Y19551300D01*
X92154762Y19551300D02*
X92207143Y19603680D01*
X92207143Y19603680D02*
X92311905Y19760823D01*
X92311905Y19760823D02*
X92364286Y19970347D01*
X92364286Y19970347D02*
X92364286Y20389395D01*
X92364286Y20389395D02*
X92311905Y20494157D01*
X92311905Y20494157D02*
X92259524Y20546538D01*
X92259524Y20546538D02*
X92154762Y20598919D01*
X92154762Y20598919D02*
X91945238Y20598919D01*
X91945238Y20598919D02*
X91840476Y20546538D01*
X91840476Y20546538D02*
X91788095Y20494157D01*
X91788095Y20494157D02*
X91735714Y20389395D01*
X91735714Y20389395D02*
X91735714Y20127490D01*
X91735714Y20127490D02*
X91788095Y20022728D01*
X91788095Y20022728D02*
X91840476Y19970347D01*
X91840476Y19970347D02*
X91945238Y19917966D01*
X91945238Y19917966D02*
X92154762Y19917966D01*
X92154762Y19917966D02*
X92259524Y19970347D01*
X92259524Y19970347D02*
X92311905Y20022728D01*
X92311905Y20022728D02*
X92364286Y20127490D01*
X112316667Y19603680D02*
X112264286Y19551300D01*
X112264286Y19551300D02*
X112107143Y19498919D01*
X112107143Y19498919D02*
X112002381Y19498919D01*
X112002381Y19498919D02*
X111845238Y19551300D01*
X111845238Y19551300D02*
X111740476Y19656061D01*
X111740476Y19656061D02*
X111688095Y19760823D01*
X111688095Y19760823D02*
X111635714Y19970347D01*
X111635714Y19970347D02*
X111635714Y20127490D01*
X111635714Y20127490D02*
X111688095Y20337014D01*
X111688095Y20337014D02*
X111740476Y20441776D01*
X111740476Y20441776D02*
X111845238Y20546538D01*
X111845238Y20546538D02*
X112002381Y20598919D01*
X112002381Y20598919D02*
X112107143Y20598919D01*
X112107143Y20598919D02*
X112264286Y20546538D01*
X112264286Y20546538D02*
X112316667Y20494157D01*
X112945238Y20127490D02*
X112840476Y20179871D01*
X112840476Y20179871D02*
X112788095Y20232252D01*
X112788095Y20232252D02*
X112735714Y20337014D01*
X112735714Y20337014D02*
X112735714Y20389395D01*
X112735714Y20389395D02*
X112788095Y20494157D01*
X112788095Y20494157D02*
X112840476Y20546538D01*
X112840476Y20546538D02*
X112945238Y20598919D01*
X112945238Y20598919D02*
X113154762Y20598919D01*
X113154762Y20598919D02*
X113259524Y20546538D01*
X113259524Y20546538D02*
X113311905Y20494157D01*
X113311905Y20494157D02*
X113364286Y20389395D01*
X113364286Y20389395D02*
X113364286Y20337014D01*
X113364286Y20337014D02*
X113311905Y20232252D01*
X113311905Y20232252D02*
X113259524Y20179871D01*
X113259524Y20179871D02*
X113154762Y20127490D01*
X113154762Y20127490D02*
X112945238Y20127490D01*
X112945238Y20127490D02*
X112840476Y20075109D01*
X112840476Y20075109D02*
X112788095Y20022728D01*
X112788095Y20022728D02*
X112735714Y19917966D01*
X112735714Y19917966D02*
X112735714Y19708442D01*
X112735714Y19708442D02*
X112788095Y19603680D01*
X112788095Y19603680D02*
X112840476Y19551300D01*
X112840476Y19551300D02*
X112945238Y19498919D01*
X112945238Y19498919D02*
X113154762Y19498919D01*
X113154762Y19498919D02*
X113259524Y19551300D01*
X113259524Y19551300D02*
X113311905Y19603680D01*
X113311905Y19603680D02*
X113364286Y19708442D01*
X113364286Y19708442D02*
X113364286Y19917966D01*
X113364286Y19917966D02*
X113311905Y20022728D01*
X113311905Y20022728D02*
X113259524Y20075109D01*
X113259524Y20075109D02*
X113154762Y20127490D01*
X21816667Y25603680D02*
X21764286Y25551300D01*
X21764286Y25551300D02*
X21607143Y25498919D01*
X21607143Y25498919D02*
X21502381Y25498919D01*
X21502381Y25498919D02*
X21345238Y25551300D01*
X21345238Y25551300D02*
X21240476Y25656061D01*
X21240476Y25656061D02*
X21188095Y25760823D01*
X21188095Y25760823D02*
X21135714Y25970347D01*
X21135714Y25970347D02*
X21135714Y26127490D01*
X21135714Y26127490D02*
X21188095Y26337014D01*
X21188095Y26337014D02*
X21240476Y26441776D01*
X21240476Y26441776D02*
X21345238Y26546538D01*
X21345238Y26546538D02*
X21502381Y26598919D01*
X21502381Y26598919D02*
X21607143Y26598919D01*
X21607143Y26598919D02*
X21764286Y26546538D01*
X21764286Y26546538D02*
X21816667Y26494157D01*
X22183333Y26598919D02*
X22916667Y26598919D01*
X22916667Y26598919D02*
X22445238Y25498919D01*
X142119047Y31268990D02*
X142261904Y31221371D01*
X142261904Y31221371D02*
X142309523Y31173752D01*
X142309523Y31173752D02*
X142357142Y31078514D01*
X142357142Y31078514D02*
X142357142Y30935657D01*
X142357142Y30935657D02*
X142309523Y30840419D01*
X142309523Y30840419D02*
X142261904Y30792800D01*
X142261904Y30792800D02*
X142166666Y30745180D01*
X142166666Y30745180D02*
X141785714Y30745180D01*
X141785714Y30745180D02*
X141785714Y31745180D01*
X141785714Y31745180D02*
X142119047Y31745180D01*
X142119047Y31745180D02*
X142214285Y31697561D01*
X142214285Y31697561D02*
X142261904Y31649942D01*
X142261904Y31649942D02*
X142309523Y31554704D01*
X142309523Y31554704D02*
X142309523Y31459466D01*
X142309523Y31459466D02*
X142261904Y31364228D01*
X142261904Y31364228D02*
X142214285Y31316609D01*
X142214285Y31316609D02*
X142119047Y31268990D01*
X142119047Y31268990D02*
X141785714Y31268990D01*
X142690476Y31745180D02*
X143357142Y31745180D01*
X143357142Y31745180D02*
X142690476Y30745180D01*
X142690476Y30745180D02*
X143357142Y30745180D01*
X144261904Y30745180D02*
X143690476Y30745180D01*
X143976190Y30745180D02*
X143976190Y31745180D01*
X143976190Y31745180D02*
X143880952Y31602323D01*
X143880952Y31602323D02*
X143785714Y31507085D01*
X143785714Y31507085D02*
X143690476Y31459466D01*
X136619048Y27126133D02*
X137380953Y27126133D01*
X137000000Y26745180D02*
X137000000Y27507085D01*
X57661904Y36098919D02*
X57661904Y35208442D01*
X57661904Y35208442D02*
X57714285Y35103680D01*
X57714285Y35103680D02*
X57766666Y35051300D01*
X57766666Y35051300D02*
X57871428Y34998919D01*
X57871428Y34998919D02*
X58080952Y34998919D01*
X58080952Y34998919D02*
X58185714Y35051300D01*
X58185714Y35051300D02*
X58238095Y35103680D01*
X58238095Y35103680D02*
X58290476Y35208442D01*
X58290476Y35208442D02*
X58290476Y36098919D01*
X58761904Y35994157D02*
X58814285Y36046538D01*
X58814285Y36046538D02*
X58919047Y36098919D01*
X58919047Y36098919D02*
X59180952Y36098919D01*
X59180952Y36098919D02*
X59285714Y36046538D01*
X59285714Y36046538D02*
X59338095Y35994157D01*
X59338095Y35994157D02*
X59390476Y35889395D01*
X59390476Y35889395D02*
X59390476Y35784633D01*
X59390476Y35784633D02*
X59338095Y35627490D01*
X59338095Y35627490D02*
X58709523Y34998919D01*
X58709523Y34998919D02*
X59390476Y34998919D01*
X141895238Y42894157D02*
X141790476Y42946538D01*
X141790476Y42946538D02*
X141685714Y43051300D01*
X141685714Y43051300D02*
X141528571Y43208442D01*
X141528571Y43208442D02*
X141423809Y43260823D01*
X141423809Y43260823D02*
X141319047Y43260823D01*
X141371428Y42998919D02*
X141266666Y43051300D01*
X141266666Y43051300D02*
X141161904Y43156061D01*
X141161904Y43156061D02*
X141109523Y43365585D01*
X141109523Y43365585D02*
X141109523Y43732252D01*
X141109523Y43732252D02*
X141161904Y43941776D01*
X141161904Y43941776D02*
X141266666Y44046538D01*
X141266666Y44046538D02*
X141371428Y44098919D01*
X141371428Y44098919D02*
X141580952Y44098919D01*
X141580952Y44098919D02*
X141685714Y44046538D01*
X141685714Y44046538D02*
X141790476Y43941776D01*
X141790476Y43941776D02*
X141842857Y43732252D01*
X141842857Y43732252D02*
X141842857Y43365585D01*
X141842857Y43365585D02*
X141790476Y43156061D01*
X141790476Y43156061D02*
X141685714Y43051300D01*
X141685714Y43051300D02*
X141580952Y42998919D01*
X141580952Y42998919D02*
X141371428Y42998919D01*
X142890476Y42998919D02*
X142261904Y42998919D01*
X142576190Y42998919D02*
X142576190Y44098919D01*
X142576190Y44098919D02*
X142471428Y43941776D01*
X142471428Y43941776D02*
X142366666Y43837014D01*
X142366666Y43837014D02*
X142261904Y43784633D01*
X52316667Y56753680D02*
X52264286Y56701300D01*
X52264286Y56701300D02*
X52107143Y56648919D01*
X52107143Y56648919D02*
X52002381Y56648919D01*
X52002381Y56648919D02*
X51845238Y56701300D01*
X51845238Y56701300D02*
X51740476Y56806061D01*
X51740476Y56806061D02*
X51688095Y56910823D01*
X51688095Y56910823D02*
X51635714Y57120347D01*
X51635714Y57120347D02*
X51635714Y57277490D01*
X51635714Y57277490D02*
X51688095Y57487014D01*
X51688095Y57487014D02*
X51740476Y57591776D01*
X51740476Y57591776D02*
X51845238Y57696538D01*
X51845238Y57696538D02*
X52002381Y57748919D01*
X52002381Y57748919D02*
X52107143Y57748919D01*
X52107143Y57748919D02*
X52264286Y57696538D01*
X52264286Y57696538D02*
X52316667Y57644157D01*
X52735714Y57644157D02*
X52788095Y57696538D01*
X52788095Y57696538D02*
X52892857Y57748919D01*
X52892857Y57748919D02*
X53154762Y57748919D01*
X53154762Y57748919D02*
X53259524Y57696538D01*
X53259524Y57696538D02*
X53311905Y57644157D01*
X53311905Y57644157D02*
X53364286Y57539395D01*
X53364286Y57539395D02*
X53364286Y57434633D01*
X53364286Y57434633D02*
X53311905Y57277490D01*
X53311905Y57277490D02*
X52683333Y56648919D01*
X52683333Y56648919D02*
X53364286Y56648919D01*
X118816667Y30848919D02*
X118450000Y31372728D01*
X118188095Y30848919D02*
X118188095Y31948919D01*
X118188095Y31948919D02*
X118607143Y31948919D01*
X118607143Y31948919D02*
X118711905Y31896538D01*
X118711905Y31896538D02*
X118764286Y31844157D01*
X118764286Y31844157D02*
X118816667Y31739395D01*
X118816667Y31739395D02*
X118816667Y31582252D01*
X118816667Y31582252D02*
X118764286Y31477490D01*
X118764286Y31477490D02*
X118711905Y31425109D01*
X118711905Y31425109D02*
X118607143Y31372728D01*
X118607143Y31372728D02*
X118188095Y31372728D01*
X119759524Y31582252D02*
X119759524Y30848919D01*
X119497619Y32001300D02*
X119235714Y31215585D01*
X119235714Y31215585D02*
X119916667Y31215585D01*
X76292857Y19603680D02*
X76240476Y19551300D01*
X76240476Y19551300D02*
X76083333Y19498919D01*
X76083333Y19498919D02*
X75978571Y19498919D01*
X75978571Y19498919D02*
X75821428Y19551300D01*
X75821428Y19551300D02*
X75716666Y19656061D01*
X75716666Y19656061D02*
X75664285Y19760823D01*
X75664285Y19760823D02*
X75611904Y19970347D01*
X75611904Y19970347D02*
X75611904Y20127490D01*
X75611904Y20127490D02*
X75664285Y20337014D01*
X75664285Y20337014D02*
X75716666Y20441776D01*
X75716666Y20441776D02*
X75821428Y20546538D01*
X75821428Y20546538D02*
X75978571Y20598919D01*
X75978571Y20598919D02*
X76083333Y20598919D01*
X76083333Y20598919D02*
X76240476Y20546538D01*
X76240476Y20546538D02*
X76292857Y20494157D01*
X77340476Y19498919D02*
X76711904Y19498919D01*
X77026190Y19498919D02*
X77026190Y20598919D01*
X77026190Y20598919D02*
X76921428Y20441776D01*
X76921428Y20441776D02*
X76816666Y20337014D01*
X76816666Y20337014D02*
X76711904Y20284633D01*
X78021428Y20598919D02*
X78126190Y20598919D01*
X78126190Y20598919D02*
X78230952Y20546538D01*
X78230952Y20546538D02*
X78283333Y20494157D01*
X78283333Y20494157D02*
X78335714Y20389395D01*
X78335714Y20389395D02*
X78388095Y20179871D01*
X78388095Y20179871D02*
X78388095Y19917966D01*
X78388095Y19917966D02*
X78335714Y19708442D01*
X78335714Y19708442D02*
X78283333Y19603680D01*
X78283333Y19603680D02*
X78230952Y19551300D01*
X78230952Y19551300D02*
X78126190Y19498919D01*
X78126190Y19498919D02*
X78021428Y19498919D01*
X78021428Y19498919D02*
X77916666Y19551300D01*
X77916666Y19551300D02*
X77864285Y19603680D01*
X77864285Y19603680D02*
X77811904Y19708442D01*
X77811904Y19708442D02*
X77759523Y19917966D01*
X77759523Y19917966D02*
X77759523Y20179871D01*
X77759523Y20179871D02*
X77811904Y20389395D01*
X77811904Y20389395D02*
X77864285Y20494157D01*
X77864285Y20494157D02*
X77916666Y20546538D01*
X77916666Y20546538D02*
X78021428Y20598919D01*
X51661904Y53798919D02*
X51661904Y52908442D01*
X51661904Y52908442D02*
X51714285Y52803680D01*
X51714285Y52803680D02*
X51766666Y52751300D01*
X51766666Y52751300D02*
X51871428Y52698919D01*
X51871428Y52698919D02*
X52080952Y52698919D01*
X52080952Y52698919D02*
X52185714Y52751300D01*
X52185714Y52751300D02*
X52238095Y52803680D01*
X52238095Y52803680D02*
X52290476Y52908442D01*
X52290476Y52908442D02*
X52290476Y53798919D01*
X53390476Y52698919D02*
X52761904Y52698919D01*
X53076190Y52698919D02*
X53076190Y53798919D01*
X53076190Y53798919D02*
X52971428Y53641776D01*
X52971428Y53641776D02*
X52866666Y53537014D01*
X52866666Y53537014D02*
X52761904Y53484633D01*
X66816667Y51103680D02*
X66764286Y51051300D01*
X66764286Y51051300D02*
X66607143Y50998919D01*
X66607143Y50998919D02*
X66502381Y50998919D01*
X66502381Y50998919D02*
X66345238Y51051300D01*
X66345238Y51051300D02*
X66240476Y51156061D01*
X66240476Y51156061D02*
X66188095Y51260823D01*
X66188095Y51260823D02*
X66135714Y51470347D01*
X66135714Y51470347D02*
X66135714Y51627490D01*
X66135714Y51627490D02*
X66188095Y51837014D01*
X66188095Y51837014D02*
X66240476Y51941776D01*
X66240476Y51941776D02*
X66345238Y52046538D01*
X66345238Y52046538D02*
X66502381Y52098919D01*
X66502381Y52098919D02*
X66607143Y52098919D01*
X66607143Y52098919D02*
X66764286Y52046538D01*
X66764286Y52046538D02*
X66816667Y51994157D01*
X67183333Y52098919D02*
X67864286Y52098919D01*
X67864286Y52098919D02*
X67497619Y51679871D01*
X67497619Y51679871D02*
X67654762Y51679871D01*
X67654762Y51679871D02*
X67759524Y51627490D01*
X67759524Y51627490D02*
X67811905Y51575109D01*
X67811905Y51575109D02*
X67864286Y51470347D01*
X67864286Y51470347D02*
X67864286Y51208442D01*
X67864286Y51208442D02*
X67811905Y51103680D01*
X67811905Y51103680D02*
X67759524Y51051300D01*
X67759524Y51051300D02*
X67654762Y50998919D01*
X67654762Y50998919D02*
X67340476Y50998919D01*
X67340476Y50998919D02*
X67235714Y51051300D01*
X67235714Y51051300D02*
X67183333Y51103680D01*
X118816667Y41848919D02*
X118450000Y42372728D01*
X118188095Y41848919D02*
X118188095Y42948919D01*
X118188095Y42948919D02*
X118607143Y42948919D01*
X118607143Y42948919D02*
X118711905Y42896538D01*
X118711905Y42896538D02*
X118764286Y42844157D01*
X118764286Y42844157D02*
X118816667Y42739395D01*
X118816667Y42739395D02*
X118816667Y42582252D01*
X118816667Y42582252D02*
X118764286Y42477490D01*
X118764286Y42477490D02*
X118711905Y42425109D01*
X118711905Y42425109D02*
X118607143Y42372728D01*
X118607143Y42372728D02*
X118188095Y42372728D01*
X119183333Y42948919D02*
X119864286Y42948919D01*
X119864286Y42948919D02*
X119497619Y42529871D01*
X119497619Y42529871D02*
X119654762Y42529871D01*
X119654762Y42529871D02*
X119759524Y42477490D01*
X119759524Y42477490D02*
X119811905Y42425109D01*
X119811905Y42425109D02*
X119864286Y42320347D01*
X119864286Y42320347D02*
X119864286Y42058442D01*
X119864286Y42058442D02*
X119811905Y41953680D01*
X119811905Y41953680D02*
X119759524Y41901300D01*
X119759524Y41901300D02*
X119654762Y41848919D01*
X119654762Y41848919D02*
X119340476Y41848919D01*
X119340476Y41848919D02*
X119235714Y41901300D01*
X119235714Y41901300D02*
X119183333Y41953680D01*
D10*
X120244048Y68422873D02*
X119820714Y69027635D01*
X119518333Y68422873D02*
X119518333Y69692873D01*
X119518333Y69692873D02*
X120002143Y69692873D01*
X120002143Y69692873D02*
X120123095Y69632397D01*
X120123095Y69632397D02*
X120183572Y69571921D01*
X120183572Y69571921D02*
X120244048Y69450969D01*
X120244048Y69450969D02*
X120244048Y69269540D01*
X120244048Y69269540D02*
X120183572Y69148588D01*
X120183572Y69148588D02*
X120123095Y69088111D01*
X120123095Y69088111D02*
X120002143Y69027635D01*
X120002143Y69027635D02*
X119518333Y69027635D01*
X120606905Y69692873D02*
X121030238Y68422873D01*
X121030238Y68422873D02*
X121453572Y69692873D01*
X122542143Y68422873D02*
X121816428Y68422873D01*
X122179285Y68422873D02*
X122179285Y69692873D01*
X122179285Y69692873D02*
X122058333Y69511445D01*
X122058333Y69511445D02*
X121937381Y69390492D01*
X121937381Y69390492D02*
X121816428Y69330016D01*
D11*
X30316667Y34148919D02*
X29950000Y34672728D01*
X29688095Y34148919D02*
X29688095Y35248919D01*
X29688095Y35248919D02*
X30107143Y35248919D01*
X30107143Y35248919D02*
X30211905Y35196538D01*
X30211905Y35196538D02*
X30264286Y35144157D01*
X30264286Y35144157D02*
X30316667Y35039395D01*
X30316667Y35039395D02*
X30316667Y34882252D01*
X30316667Y34882252D02*
X30264286Y34777490D01*
X30264286Y34777490D02*
X30211905Y34725109D01*
X30211905Y34725109D02*
X30107143Y34672728D01*
X30107143Y34672728D02*
X29688095Y34672728D01*
X30683333Y35248919D02*
X31416667Y35248919D01*
X31416667Y35248919D02*
X30945238Y34148919D01*
X8633333Y57098919D02*
X8633333Y56313204D01*
X8633333Y56313204D02*
X8580952Y56156061D01*
X8580952Y56156061D02*
X8476190Y56051300D01*
X8476190Y56051300D02*
X8319047Y55998919D01*
X8319047Y55998919D02*
X8214285Y55998919D01*
X9628571Y57098919D02*
X9419047Y57098919D01*
X9419047Y57098919D02*
X9314285Y57046538D01*
X9314285Y57046538D02*
X9261904Y56994157D01*
X9261904Y56994157D02*
X9157142Y56837014D01*
X9157142Y56837014D02*
X9104761Y56627490D01*
X9104761Y56627490D02*
X9104761Y56208442D01*
X9104761Y56208442D02*
X9157142Y56103680D01*
X9157142Y56103680D02*
X9209523Y56051300D01*
X9209523Y56051300D02*
X9314285Y55998919D01*
X9314285Y55998919D02*
X9523809Y55998919D01*
X9523809Y55998919D02*
X9628571Y56051300D01*
X9628571Y56051300D02*
X9680952Y56103680D01*
X9680952Y56103680D02*
X9733333Y56208442D01*
X9733333Y56208442D02*
X9733333Y56470347D01*
X9733333Y56470347D02*
X9680952Y56575109D01*
X9680952Y56575109D02*
X9628571Y56627490D01*
X9628571Y56627490D02*
X9523809Y56679871D01*
X9523809Y56679871D02*
X9314285Y56679871D01*
X9314285Y56679871D02*
X9209523Y56627490D01*
X9209523Y56627490D02*
X9157142Y56575109D01*
X9157142Y56575109D02*
X9104761Y56470347D01*
X58292857Y19603680D02*
X58240476Y19551300D01*
X58240476Y19551300D02*
X58083333Y19498919D01*
X58083333Y19498919D02*
X57978571Y19498919D01*
X57978571Y19498919D02*
X57821428Y19551300D01*
X57821428Y19551300D02*
X57716666Y19656061D01*
X57716666Y19656061D02*
X57664285Y19760823D01*
X57664285Y19760823D02*
X57611904Y19970347D01*
X57611904Y19970347D02*
X57611904Y20127490D01*
X57611904Y20127490D02*
X57664285Y20337014D01*
X57664285Y20337014D02*
X57716666Y20441776D01*
X57716666Y20441776D02*
X57821428Y20546538D01*
X57821428Y20546538D02*
X57978571Y20598919D01*
X57978571Y20598919D02*
X58083333Y20598919D01*
X58083333Y20598919D02*
X58240476Y20546538D01*
X58240476Y20546538D02*
X58292857Y20494157D01*
X59340476Y19498919D02*
X58711904Y19498919D01*
X59026190Y19498919D02*
X59026190Y20598919D01*
X59026190Y20598919D02*
X58921428Y20441776D01*
X58921428Y20441776D02*
X58816666Y20337014D01*
X58816666Y20337014D02*
X58711904Y20284633D01*
X60388095Y19498919D02*
X59759523Y19498919D01*
X60073809Y19498919D02*
X60073809Y20598919D01*
X60073809Y20598919D02*
X59969047Y20441776D01*
X59969047Y20441776D02*
X59864285Y20337014D01*
X59864285Y20337014D02*
X59759523Y20284633D01*
X60816667Y37603680D02*
X60764286Y37551300D01*
X60764286Y37551300D02*
X60607143Y37498919D01*
X60607143Y37498919D02*
X60502381Y37498919D01*
X60502381Y37498919D02*
X60345238Y37551300D01*
X60345238Y37551300D02*
X60240476Y37656061D01*
X60240476Y37656061D02*
X60188095Y37760823D01*
X60188095Y37760823D02*
X60135714Y37970347D01*
X60135714Y37970347D02*
X60135714Y38127490D01*
X60135714Y38127490D02*
X60188095Y38337014D01*
X60188095Y38337014D02*
X60240476Y38441776D01*
X60240476Y38441776D02*
X60345238Y38546538D01*
X60345238Y38546538D02*
X60502381Y38598919D01*
X60502381Y38598919D02*
X60607143Y38598919D01*
X60607143Y38598919D02*
X60764286Y38546538D01*
X60764286Y38546538D02*
X60816667Y38494157D01*
X61864286Y37498919D02*
X61235714Y37498919D01*
X61550000Y37498919D02*
X61550000Y38598919D01*
X61550000Y38598919D02*
X61445238Y38441776D01*
X61445238Y38441776D02*
X61340476Y38337014D01*
X61340476Y38337014D02*
X61235714Y38284633D01*
X118816667Y52848919D02*
X118450000Y53372728D01*
X118188095Y52848919D02*
X118188095Y53948919D01*
X118188095Y53948919D02*
X118607143Y53948919D01*
X118607143Y53948919D02*
X118711905Y53896538D01*
X118711905Y53896538D02*
X118764286Y53844157D01*
X118764286Y53844157D02*
X118816667Y53739395D01*
X118816667Y53739395D02*
X118816667Y53582252D01*
X118816667Y53582252D02*
X118764286Y53477490D01*
X118764286Y53477490D02*
X118711905Y53425109D01*
X118711905Y53425109D02*
X118607143Y53372728D01*
X118607143Y53372728D02*
X118188095Y53372728D01*
X119235714Y53844157D02*
X119288095Y53896538D01*
X119288095Y53896538D02*
X119392857Y53948919D01*
X119392857Y53948919D02*
X119654762Y53948919D01*
X119654762Y53948919D02*
X119759524Y53896538D01*
X119759524Y53896538D02*
X119811905Y53844157D01*
X119811905Y53844157D02*
X119864286Y53739395D01*
X119864286Y53739395D02*
X119864286Y53634633D01*
X119864286Y53634633D02*
X119811905Y53477490D01*
X119811905Y53477490D02*
X119183333Y52848919D01*
X119183333Y52848919D02*
X119864286Y52848919D01*
X72292857Y19498919D02*
X71926190Y20022728D01*
X71664285Y19498919D02*
X71664285Y20598919D01*
X71664285Y20598919D02*
X72083333Y20598919D01*
X72083333Y20598919D02*
X72188095Y20546538D01*
X72188095Y20546538D02*
X72240476Y20494157D01*
X72240476Y20494157D02*
X72292857Y20389395D01*
X72292857Y20389395D02*
X72292857Y20232252D01*
X72292857Y20232252D02*
X72240476Y20127490D01*
X72240476Y20127490D02*
X72188095Y20075109D01*
X72188095Y20075109D02*
X72083333Y20022728D01*
X72083333Y20022728D02*
X71664285Y20022728D01*
X73340476Y19498919D02*
X72711904Y19498919D01*
X73026190Y19498919D02*
X73026190Y20598919D01*
X73026190Y20598919D02*
X72921428Y20441776D01*
X72921428Y20441776D02*
X72816666Y20337014D01*
X72816666Y20337014D02*
X72711904Y20284633D01*
X74021428Y20598919D02*
X74126190Y20598919D01*
X74126190Y20598919D02*
X74230952Y20546538D01*
X74230952Y20546538D02*
X74283333Y20494157D01*
X74283333Y20494157D02*
X74335714Y20389395D01*
X74335714Y20389395D02*
X74388095Y20179871D01*
X74388095Y20179871D02*
X74388095Y19917966D01*
X74388095Y19917966D02*
X74335714Y19708442D01*
X74335714Y19708442D02*
X74283333Y19603680D01*
X74283333Y19603680D02*
X74230952Y19551300D01*
X74230952Y19551300D02*
X74126190Y19498919D01*
X74126190Y19498919D02*
X74021428Y19498919D01*
X74021428Y19498919D02*
X73916666Y19551300D01*
X73916666Y19551300D02*
X73864285Y19603680D01*
X73864285Y19603680D02*
X73811904Y19708442D01*
X73811904Y19708442D02*
X73759523Y19917966D01*
X73759523Y19917966D02*
X73759523Y20179871D01*
X73759523Y20179871D02*
X73811904Y20389395D01*
X73811904Y20389395D02*
X73864285Y20494157D01*
X73864285Y20494157D02*
X73916666Y20546538D01*
X73916666Y20546538D02*
X74021428Y20598919D01*
X98016667Y68803680D02*
X97964286Y68751300D01*
X97964286Y68751300D02*
X97807143Y68698919D01*
X97807143Y68698919D02*
X97702381Y68698919D01*
X97702381Y68698919D02*
X97545238Y68751300D01*
X97545238Y68751300D02*
X97440476Y68856061D01*
X97440476Y68856061D02*
X97388095Y68960823D01*
X97388095Y68960823D02*
X97335714Y69170347D01*
X97335714Y69170347D02*
X97335714Y69327490D01*
X97335714Y69327490D02*
X97388095Y69537014D01*
X97388095Y69537014D02*
X97440476Y69641776D01*
X97440476Y69641776D02*
X97545238Y69746538D01*
X97545238Y69746538D02*
X97702381Y69798919D01*
X97702381Y69798919D02*
X97807143Y69798919D01*
X97807143Y69798919D02*
X97964286Y69746538D01*
X97964286Y69746538D02*
X98016667Y69694157D01*
X99011905Y69798919D02*
X98488095Y69798919D01*
X98488095Y69798919D02*
X98435714Y69275109D01*
X98435714Y69275109D02*
X98488095Y69327490D01*
X98488095Y69327490D02*
X98592857Y69379871D01*
X98592857Y69379871D02*
X98854762Y69379871D01*
X98854762Y69379871D02*
X98959524Y69327490D01*
X98959524Y69327490D02*
X99011905Y69275109D01*
X99011905Y69275109D02*
X99064286Y69170347D01*
X99064286Y69170347D02*
X99064286Y68908442D01*
X99064286Y68908442D02*
X99011905Y68803680D01*
X99011905Y68803680D02*
X98959524Y68751300D01*
X98959524Y68751300D02*
X98854762Y68698919D01*
X98854762Y68698919D02*
X98592857Y68698919D01*
X98592857Y68698919D02*
X98488095Y68751300D01*
X98488095Y68751300D02*
X98435714Y68803680D01*
X140966690Y36300429D02*
X140966690Y37400429D01*
X140966690Y37400429D02*
X141228595Y37400429D01*
X141228595Y37400429D02*
X141385738Y37348048D01*
X141385738Y37348048D02*
X141490500Y37243286D01*
X141490500Y37243286D02*
X141542881Y37138524D01*
X141542881Y37138524D02*
X141595262Y36929000D01*
X141595262Y36929000D02*
X141595262Y36771857D01*
X141595262Y36771857D02*
X141542881Y36562333D01*
X141542881Y36562333D02*
X141490500Y36457571D01*
X141490500Y36457571D02*
X141385738Y36352810D01*
X141385738Y36352810D02*
X141228595Y36300429D01*
X141228595Y36300429D02*
X140966690Y36300429D01*
X141961928Y37400429D02*
X142695262Y37400429D01*
X142695262Y37400429D02*
X142223833Y36300429D01*
X104316667Y71998919D02*
X103950000Y72522728D01*
X103688095Y71998919D02*
X103688095Y73098919D01*
X103688095Y73098919D02*
X104107143Y73098919D01*
X104107143Y73098919D02*
X104211905Y73046538D01*
X104211905Y73046538D02*
X104264286Y72994157D01*
X104264286Y72994157D02*
X104316667Y72889395D01*
X104316667Y72889395D02*
X104316667Y72732252D01*
X104316667Y72732252D02*
X104264286Y72627490D01*
X104264286Y72627490D02*
X104211905Y72575109D01*
X104211905Y72575109D02*
X104107143Y72522728D01*
X104107143Y72522728D02*
X103688095Y72522728D01*
X105364286Y71998919D02*
X104735714Y71998919D01*
X105050000Y71998919D02*
X105050000Y73098919D01*
X105050000Y73098919D02*
X104945238Y72941776D01*
X104945238Y72941776D02*
X104840476Y72837014D01*
X104840476Y72837014D02*
X104735714Y72784633D01*
X94316667Y19603680D02*
X94264286Y19551300D01*
X94264286Y19551300D02*
X94107143Y19498919D01*
X94107143Y19498919D02*
X94002381Y19498919D01*
X94002381Y19498919D02*
X93845238Y19551300D01*
X93845238Y19551300D02*
X93740476Y19656061D01*
X93740476Y19656061D02*
X93688095Y19760823D01*
X93688095Y19760823D02*
X93635714Y19970347D01*
X93635714Y19970347D02*
X93635714Y20127490D01*
X93635714Y20127490D02*
X93688095Y20337014D01*
X93688095Y20337014D02*
X93740476Y20441776D01*
X93740476Y20441776D02*
X93845238Y20546538D01*
X93845238Y20546538D02*
X94002381Y20598919D01*
X94002381Y20598919D02*
X94107143Y20598919D01*
X94107143Y20598919D02*
X94264286Y20546538D01*
X94264286Y20546538D02*
X94316667Y20494157D01*
X94840476Y19498919D02*
X95050000Y19498919D01*
X95050000Y19498919D02*
X95154762Y19551300D01*
X95154762Y19551300D02*
X95207143Y19603680D01*
X95207143Y19603680D02*
X95311905Y19760823D01*
X95311905Y19760823D02*
X95364286Y19970347D01*
X95364286Y19970347D02*
X95364286Y20389395D01*
X95364286Y20389395D02*
X95311905Y20494157D01*
X95311905Y20494157D02*
X95259524Y20546538D01*
X95259524Y20546538D02*
X95154762Y20598919D01*
X95154762Y20598919D02*
X94945238Y20598919D01*
X94945238Y20598919D02*
X94840476Y20546538D01*
X94840476Y20546538D02*
X94788095Y20494157D01*
X94788095Y20494157D02*
X94735714Y20389395D01*
X94735714Y20389395D02*
X94735714Y20127490D01*
X94735714Y20127490D02*
X94788095Y20022728D01*
X94788095Y20022728D02*
X94840476Y19970347D01*
X94840476Y19970347D02*
X94945238Y19917966D01*
X94945238Y19917966D02*
X95154762Y19917966D01*
X95154762Y19917966D02*
X95259524Y19970347D01*
X95259524Y19970347D02*
X95311905Y20022728D01*
X95311905Y20022728D02*
X95364286Y20127490D01*
X30316667Y45148919D02*
X29950000Y45672728D01*
X29688095Y45148919D02*
X29688095Y46248919D01*
X29688095Y46248919D02*
X30107143Y46248919D01*
X30107143Y46248919D02*
X30211905Y46196538D01*
X30211905Y46196538D02*
X30264286Y46144157D01*
X30264286Y46144157D02*
X30316667Y46039395D01*
X30316667Y46039395D02*
X30316667Y45882252D01*
X30316667Y45882252D02*
X30264286Y45777490D01*
X30264286Y45777490D02*
X30211905Y45725109D01*
X30211905Y45725109D02*
X30107143Y45672728D01*
X30107143Y45672728D02*
X29688095Y45672728D01*
X31259524Y46248919D02*
X31050000Y46248919D01*
X31050000Y46248919D02*
X30945238Y46196538D01*
X30945238Y46196538D02*
X30892857Y46144157D01*
X30892857Y46144157D02*
X30788095Y45987014D01*
X30788095Y45987014D02*
X30735714Y45777490D01*
X30735714Y45777490D02*
X30735714Y45358442D01*
X30735714Y45358442D02*
X30788095Y45253680D01*
X30788095Y45253680D02*
X30840476Y45201300D01*
X30840476Y45201300D02*
X30945238Y45148919D01*
X30945238Y45148919D02*
X31154762Y45148919D01*
X31154762Y45148919D02*
X31259524Y45201300D01*
X31259524Y45201300D02*
X31311905Y45253680D01*
X31311905Y45253680D02*
X31364286Y45358442D01*
X31364286Y45358442D02*
X31364286Y45620347D01*
X31364286Y45620347D02*
X31311905Y45725109D01*
X31311905Y45725109D02*
X31259524Y45777490D01*
X31259524Y45777490D02*
X31154762Y45829871D01*
X31154762Y45829871D02*
X30945238Y45829871D01*
X30945238Y45829871D02*
X30840476Y45777490D01*
X30840476Y45777490D02*
X30788095Y45725109D01*
X30788095Y45725109D02*
X30735714Y45620347D01*
X25316667Y24103680D02*
X25264286Y24051300D01*
X25264286Y24051300D02*
X25107143Y23998919D01*
X25107143Y23998919D02*
X25002381Y23998919D01*
X25002381Y23998919D02*
X24845238Y24051300D01*
X24845238Y24051300D02*
X24740476Y24156061D01*
X24740476Y24156061D02*
X24688095Y24260823D01*
X24688095Y24260823D02*
X24635714Y24470347D01*
X24635714Y24470347D02*
X24635714Y24627490D01*
X24635714Y24627490D02*
X24688095Y24837014D01*
X24688095Y24837014D02*
X24740476Y24941776D01*
X24740476Y24941776D02*
X24845238Y25046538D01*
X24845238Y25046538D02*
X25002381Y25098919D01*
X25002381Y25098919D02*
X25107143Y25098919D01*
X25107143Y25098919D02*
X25264286Y25046538D01*
X25264286Y25046538D02*
X25316667Y24994157D01*
X26259524Y25098919D02*
X26050000Y25098919D01*
X26050000Y25098919D02*
X25945238Y25046538D01*
X25945238Y25046538D02*
X25892857Y24994157D01*
X25892857Y24994157D02*
X25788095Y24837014D01*
X25788095Y24837014D02*
X25735714Y24627490D01*
X25735714Y24627490D02*
X25735714Y24208442D01*
X25735714Y24208442D02*
X25788095Y24103680D01*
X25788095Y24103680D02*
X25840476Y24051300D01*
X25840476Y24051300D02*
X25945238Y23998919D01*
X25945238Y23998919D02*
X26154762Y23998919D01*
X26154762Y23998919D02*
X26259524Y24051300D01*
X26259524Y24051300D02*
X26311905Y24103680D01*
X26311905Y24103680D02*
X26364286Y24208442D01*
X26364286Y24208442D02*
X26364286Y24470347D01*
X26364286Y24470347D02*
X26311905Y24575109D01*
X26311905Y24575109D02*
X26259524Y24627490D01*
X26259524Y24627490D02*
X26154762Y24679871D01*
X26154762Y24679871D02*
X25945238Y24679871D01*
X25945238Y24679871D02*
X25840476Y24627490D01*
X25840476Y24627490D02*
X25788095Y24575109D01*
X25788095Y24575109D02*
X25735714Y24470347D01*
X88816667Y68878680D02*
X88764286Y68826300D01*
X88764286Y68826300D02*
X88607143Y68773919D01*
X88607143Y68773919D02*
X88502381Y68773919D01*
X88502381Y68773919D02*
X88345238Y68826300D01*
X88345238Y68826300D02*
X88240476Y68931061D01*
X88240476Y68931061D02*
X88188095Y69035823D01*
X88188095Y69035823D02*
X88135714Y69245347D01*
X88135714Y69245347D02*
X88135714Y69402490D01*
X88135714Y69402490D02*
X88188095Y69612014D01*
X88188095Y69612014D02*
X88240476Y69716776D01*
X88240476Y69716776D02*
X88345238Y69821538D01*
X88345238Y69821538D02*
X88502381Y69873919D01*
X88502381Y69873919D02*
X88607143Y69873919D01*
X88607143Y69873919D02*
X88764286Y69821538D01*
X88764286Y69821538D02*
X88816667Y69769157D01*
X89759524Y69507252D02*
X89759524Y68773919D01*
X89497619Y69926300D02*
X89235714Y69140585D01*
X89235714Y69140585D02*
X89916667Y69140585D01*
X36292857Y19498919D02*
X35926190Y20022728D01*
X35664285Y19498919D02*
X35664285Y20598919D01*
X35664285Y20598919D02*
X36083333Y20598919D01*
X36083333Y20598919D02*
X36188095Y20546538D01*
X36188095Y20546538D02*
X36240476Y20494157D01*
X36240476Y20494157D02*
X36292857Y20389395D01*
X36292857Y20389395D02*
X36292857Y20232252D01*
X36292857Y20232252D02*
X36240476Y20127490D01*
X36240476Y20127490D02*
X36188095Y20075109D01*
X36188095Y20075109D02*
X36083333Y20022728D01*
X36083333Y20022728D02*
X35664285Y20022728D01*
X37340476Y19498919D02*
X36711904Y19498919D01*
X37026190Y19498919D02*
X37026190Y20598919D01*
X37026190Y20598919D02*
X36921428Y20441776D01*
X36921428Y20441776D02*
X36816666Y20337014D01*
X36816666Y20337014D02*
X36711904Y20284633D01*
X37707142Y20598919D02*
X38388095Y20598919D01*
X38388095Y20598919D02*
X38021428Y20179871D01*
X38021428Y20179871D02*
X38178571Y20179871D01*
X38178571Y20179871D02*
X38283333Y20127490D01*
X38283333Y20127490D02*
X38335714Y20075109D01*
X38335714Y20075109D02*
X38388095Y19970347D01*
X38388095Y19970347D02*
X38388095Y19708442D01*
X38388095Y19708442D02*
X38335714Y19603680D01*
X38335714Y19603680D02*
X38283333Y19551300D01*
X38283333Y19551300D02*
X38178571Y19498919D01*
X38178571Y19498919D02*
X37864285Y19498919D01*
X37864285Y19498919D02*
X37759523Y19551300D01*
X37759523Y19551300D02*
X37707142Y19603680D01*
%TO.C,R11*%
X135630000Y37050000D02*
X137370000Y37050000D01*
X135480000Y37200000D02*
X135480000Y41800000D01*
X137520000Y37200000D02*
X137520000Y41800000D01*
X135630000Y41950000D02*
X137370000Y41950000D01*
X135630000Y37050000D02*
G75*
G02*
X135480000Y37200000I0J150000D01*
G01*
X137520000Y37200000D02*
G75*
G02*
X137370000Y37050000I-150000J0D01*
G01*
X135480000Y41800000D02*
G75*
G02*
X135630000Y41950000I150000J0D01*
G01*
X137370000Y41950000D02*
G75*
G02*
X137520000Y41800000I0J-150000D01*
G01*
%TO.C,R5*%
X32280000Y54380000D02*
G75*
G02*
X32080000Y54180000I-200000J0D01*
G01*
X32080000Y55820000D02*
G75*
G02*
X32280000Y55620000I0J-200000D01*
G01*
X28920000Y54180000D02*
G75*
G02*
X28720000Y54380000I1J200001D01*
G01*
X28720000Y55620000D02*
G75*
G02*
X28920000Y55820000I200001J-1D01*
G01*
X32280000Y55620000D02*
X32280000Y54380000D01*
X28920000Y54180000D02*
X32080000Y54180000D01*
X28920000Y55820000D02*
X32080000Y55820000D01*
X28720000Y55620000D02*
X28720000Y54380000D01*
%TO.C,R8*%
X108680000Y15920000D02*
X108680000Y19080000D01*
X108880000Y19280000D02*
X110120000Y19280000D01*
X108880000Y15720000D02*
X110120000Y15720000D01*
X110320000Y15920000D02*
X110320000Y19080000D01*
X108680000Y19080000D02*
G75*
G02*
X108880000Y19280000I200000J0D01*
G01*
X108880000Y15720000D02*
G75*
G02*
X108680000Y15920000I1J200001D01*
G01*
X110120000Y19280000D02*
G75*
G02*
X110320000Y19080000I0J-200000D01*
G01*
X110320000Y15920000D02*
G75*
G02*
X110120000Y15720000I-200001J1D01*
G01*
%TO.C,R12*%
X54680000Y15920000D02*
X54680000Y19080000D01*
X54880000Y19280000D02*
X56120000Y19280000D01*
X54880000Y15720000D02*
X56120000Y15720000D01*
X56320000Y15920000D02*
X56320000Y19080000D01*
X54680000Y19080000D02*
G75*
G02*
X54880000Y19280000I200000J0D01*
G01*
X54880000Y15720000D02*
G75*
G02*
X54680000Y15920000I1J200001D01*
G01*
X56120000Y19280000D02*
G75*
G02*
X56320000Y19080000I0J-200000D01*
G01*
X56320000Y15920000D02*
G75*
G02*
X56120000Y15720000I-200001J1D01*
G01*
%TO.C,C12*%
X39680000Y19080000D02*
X39680000Y15920000D01*
X41120000Y19280000D02*
X39880000Y19280000D01*
X41120000Y15720000D02*
X39880000Y15720000D01*
X41320000Y19080000D02*
X41320000Y15920000D01*
X39680000Y19080000D02*
G75*
G02*
X39880000Y19280000I200001J-1D01*
G01*
X39880000Y15720000D02*
G75*
G02*
X39680000Y15920000I0J200000D01*
G01*
X41120000Y19280000D02*
G75*
G02*
X41320000Y19080000I-1J-200001D01*
G01*
X41320000Y15920000D02*
G75*
G02*
X41120000Y15720000I-200000J0D01*
G01*
%TO.C,R9*%
X90680000Y15920000D02*
X90680000Y19080000D01*
X90880000Y19280000D02*
X92120000Y19280000D01*
X90880000Y15720000D02*
X92120000Y15720000D01*
X92320000Y15920000D02*
X92320000Y19080000D01*
X90680000Y19080000D02*
G75*
G02*
X90880000Y19280000I200000J0D01*
G01*
X90880000Y15720000D02*
G75*
G02*
X90680000Y15920000I1J200001D01*
G01*
X92120000Y19280000D02*
G75*
G02*
X92320000Y19080000I0J-200000D01*
G01*
X92320000Y15920000D02*
G75*
G02*
X92120000Y15720000I-200001J1D01*
G01*
%TO.C,C8*%
X111680000Y19080000D02*
X111680000Y15920000D01*
X113120000Y19280000D02*
X111880000Y19280000D01*
X113120000Y15720000D02*
X111880000Y15720000D01*
X113320000Y19080000D02*
X113320000Y15920000D01*
X111680000Y19080000D02*
G75*
G02*
X111880000Y19280000I200001J-1D01*
G01*
X111880000Y15720000D02*
G75*
G02*
X111680000Y15920000I0J200000D01*
G01*
X113120000Y19280000D02*
G75*
G02*
X113320000Y19080000I-1J-200001D01*
G01*
X113320000Y15920000D02*
G75*
G02*
X113120000Y15720000I-200000J0D01*
G01*
%TO.C,C7*%
X20980000Y20200000D02*
X20980000Y24800000D01*
X21130000Y24950000D02*
X22870000Y24950000D01*
X21130000Y20050000D02*
X22870000Y20050000D01*
X23020000Y20200000D02*
X23020000Y24800000D01*
X20980000Y24800000D02*
G75*
G02*
X21130000Y24950000I150000J0D01*
G01*
X21130000Y20050000D02*
G75*
G02*
X20980000Y20200000I0J150000D01*
G01*
X22870000Y24950000D02*
G75*
G02*
X23020000Y24800000I0J-150000D01*
G01*
X23020000Y20200000D02*
G75*
G02*
X22870000Y20050000I-150000J0D01*
G01*
%TO.C,BZ1*%
X149100000Y24000000D02*
G75*
G02*
X136900000Y24000000I-6100000J0D01*
G01*
X136900000Y24000000D02*
G75*
G02*
X149100000Y24000000I6100000J0D01*
G01*
%TO.C,U2*%
X50615000Y33190000D02*
X50615000Y37810000D01*
X57385000Y37810000D02*
X57385000Y33190000D01*
D12*
X56930000Y39360000D02*
X56690000Y39690000D01*
X57170000Y39690000D01*
X56930000Y39360000D01*
G36*
X56930000Y39360000D02*
G01*
X56690000Y39690000D01*
X57170000Y39690000D01*
X56930000Y39360000D01*
G37*
%TO.C,Q1*%
D11*
X140440000Y41260000D02*
X141440000Y41260000D01*
X140440000Y39740000D02*
X140440000Y41260000D01*
X140490000Y39740000D02*
X140440000Y39740000D01*
X142390000Y39740000D02*
X141610000Y39740000D01*
X142560000Y41260000D02*
X143560000Y41260000D01*
X143560000Y41260000D02*
X143560000Y39740000D01*
X143560000Y39740000D02*
X143510000Y39740000D01*
D12*
X141950000Y38960000D02*
X141620000Y39200000D01*
X141950000Y39440000D01*
X141950000Y38960000D01*
G36*
X141950000Y38960000D02*
G01*
X141620000Y39200000D01*
X141950000Y39440000D01*
X141950000Y38960000D01*
G37*
%TO.C,C2*%
D11*
X50720000Y56120000D02*
X50720000Y54880000D01*
X50920000Y56320000D02*
X54080000Y56320000D01*
X50920000Y54680000D02*
X54080000Y54680000D01*
X54280000Y56120000D02*
X54280000Y54880000D01*
X50720000Y56120000D02*
G75*
G02*
X50920000Y56320000I200001J-1D01*
G01*
X50920000Y54680000D02*
G75*
G02*
X50720000Y54880000I1J200001D01*
G01*
X54080000Y56320000D02*
G75*
G02*
X54280000Y56120000I0J-200000D01*
G01*
X54280000Y54880000D02*
G75*
G02*
X54080000Y54680000I-200000J0D01*
G01*
%TO.C,R4*%
X117220000Y32380000D02*
X117220000Y33620000D01*
X120580000Y33820000D02*
X117420000Y33820000D01*
X120580000Y32180000D02*
X117420000Y32180000D01*
X120780000Y32380000D02*
X120780000Y33620000D01*
X117220000Y33620000D02*
G75*
G02*
X117420000Y33820000I200000J0D01*
G01*
X117420000Y32180000D02*
G75*
G02*
X117220000Y32380000I0J200000D01*
G01*
X120580000Y33820000D02*
G75*
G02*
X120780000Y33620000I-1J-200001D01*
G01*
X120780000Y32380000D02*
G75*
G02*
X120580000Y32180000I-200001J1D01*
G01*
%TO.C,C10*%
X75680000Y19080000D02*
X75680000Y15920000D01*
X77120000Y19280000D02*
X75880000Y19280000D01*
X77120000Y15720000D02*
X75880000Y15720000D01*
X77320000Y19080000D02*
X77320000Y15920000D01*
X75680000Y19080000D02*
G75*
G02*
X75880000Y19280000I200001J-1D01*
G01*
X75880000Y15720000D02*
G75*
G02*
X75680000Y15920000I0J200000D01*
G01*
X77120000Y19280000D02*
G75*
G02*
X77320000Y19080000I-1J-200001D01*
G01*
X77320000Y15920000D02*
G75*
G02*
X77120000Y15720000I-200000J0D01*
G01*
%TO.C,U1*%
X50190000Y52385000D02*
X54810000Y52385000D01*
X54810000Y45615000D02*
X50190000Y45615000D01*
D12*
X48640000Y51930000D02*
X48310000Y51690000D01*
X48310000Y52170000D01*
X48640000Y51930000D01*
G36*
X48640000Y51930000D02*
G01*
X48310000Y51690000D01*
X48310000Y52170000D01*
X48640000Y51930000D01*
G37*
%TO.C,C3*%
D11*
X65980000Y45700000D02*
X65980000Y50300000D01*
X66130000Y50450000D02*
X67870000Y50450000D01*
X66130000Y45550000D02*
X67870000Y45550000D01*
X68020000Y45700000D02*
X68020000Y50300000D01*
X65980000Y50300000D02*
G75*
G02*
X66130000Y50450000I150000J0D01*
G01*
X66130000Y45550000D02*
G75*
G02*
X65980000Y45700000I0J150000D01*
G01*
X67870000Y50450000D02*
G75*
G02*
X68020000Y50300000I0J-150000D01*
G01*
X68020000Y45700000D02*
G75*
G02*
X67870000Y45550000I-150000J0D01*
G01*
%TO.C,R3*%
X117220000Y43380000D02*
X117220000Y44620000D01*
X120580000Y44820000D02*
X117420000Y44820000D01*
X120580000Y43180000D02*
X117420000Y43180000D01*
X120780000Y43380000D02*
X120780000Y44620000D01*
X117220000Y44620000D02*
G75*
G02*
X117420000Y44820000I200000J0D01*
G01*
X117420000Y43180000D02*
G75*
G02*
X117220000Y43380000I0J200000D01*
G01*
X120580000Y44820000D02*
G75*
G02*
X120780000Y44620000I-1J-200001D01*
G01*
X120780000Y43380000D02*
G75*
G02*
X120580000Y43180000I-200001J1D01*
G01*
%TO.C,RV1*%
D10*
X111530000Y72800000D02*
X114000000Y72800000D01*
X111530000Y66200000D02*
X111530000Y72800000D01*
X112200000Y66200000D02*
X111530000Y66870000D01*
X114000000Y66200000D02*
X111530000Y66200000D01*
X116000000Y72800000D02*
X118520000Y72800000D01*
X118520000Y66200000D02*
X116000000Y66200000D01*
X118530000Y72800000D02*
X118530000Y66200000D01*
%TO.C,R7*%
D11*
X28720000Y33620000D02*
X28720000Y32380000D01*
X28920000Y33820000D02*
X32080000Y33820000D01*
X28920000Y32180000D02*
X32080000Y32180000D01*
X32280000Y33620000D02*
X32280000Y32380000D01*
X28720000Y33620000D02*
G75*
G02*
X28920000Y33820000I200001J-1D01*
G01*
X28920000Y32180000D02*
G75*
G02*
X28720000Y32380000I1J200001D01*
G01*
X32080000Y33820000D02*
G75*
G02*
X32280000Y33620000I0J-200000D01*
G01*
X32280000Y32380000D02*
G75*
G02*
X32080000Y32180000I-200000J0D01*
G01*
%TO.C,J6*%
D12*
X4050000Y50430000D02*
X4050000Y49430000D01*
X4050000Y49430000D02*
X5050000Y49930000D01*
X5050000Y49930000D02*
X4050000Y50430000D01*
D11*
X5440000Y55140000D02*
X14560000Y55140000D01*
D12*
X5440000Y40550000D02*
X6750000Y40550000D01*
D11*
X5440000Y21860000D02*
X5440000Y55140000D01*
D12*
X6750000Y53840000D02*
X13250000Y53840000D01*
X6750000Y40550000D02*
X6750000Y53840000D01*
X6750000Y36450000D02*
X5440000Y36450000D01*
X6750000Y23160000D02*
X6750000Y36450000D01*
X13250000Y53840000D02*
X13250000Y23160000D01*
X13250000Y23160000D02*
X6750000Y23160000D01*
D11*
X14560000Y55140000D02*
X14560000Y21860000D01*
X14560000Y21860000D02*
X5440000Y21860000D01*
%TO.C,C11*%
X57680000Y19080000D02*
X57680000Y15920000D01*
X59120000Y19280000D02*
X57880000Y19280000D01*
X59120000Y15720000D02*
X57880000Y15720000D01*
X59320000Y19080000D02*
X59320000Y15920000D01*
X57680000Y19080000D02*
G75*
G02*
X57880000Y19280000I200001J-1D01*
G01*
X57880000Y15720000D02*
G75*
G02*
X57680000Y15920000I0J200000D01*
G01*
X59120000Y19280000D02*
G75*
G02*
X59320000Y19080000I-1J-200001D01*
G01*
X59320000Y15920000D02*
G75*
G02*
X59120000Y15720000I-200000J0D01*
G01*
%TO.C,C1*%
X60180000Y37080000D02*
X60180000Y33920000D01*
X61620000Y37280000D02*
X60380000Y37280000D01*
X61620000Y33720000D02*
X60380000Y33720000D01*
X61820000Y37080000D02*
X61820000Y33920000D01*
X60180000Y37080000D02*
G75*
G02*
X60380000Y37280000I200001J-1D01*
G01*
X60380000Y33720000D02*
G75*
G02*
X60180000Y33920000I0J200000D01*
G01*
X61620000Y37280000D02*
G75*
G02*
X61820000Y37080000I-1J-200001D01*
G01*
X61820000Y33920000D02*
G75*
G02*
X61620000Y33720000I-200000J0D01*
G01*
%TO.C,R2*%
X117220000Y54380000D02*
X117220000Y55620000D01*
X120580000Y55820000D02*
X117420000Y55820000D01*
X120580000Y54180000D02*
X117420000Y54180000D01*
X120780000Y54380000D02*
X120780000Y55620000D01*
X117220000Y55620000D02*
G75*
G02*
X117420000Y55820000I200000J0D01*
G01*
X117420000Y54180000D02*
G75*
G02*
X117220000Y54380000I0J200000D01*
G01*
X120580000Y55820000D02*
G75*
G02*
X120780000Y55620000I-1J-200001D01*
G01*
X120780000Y54380000D02*
G75*
G02*
X120580000Y54180000I-200001J1D01*
G01*
%TO.C,R10*%
X72680000Y15920000D02*
X72680000Y19080000D01*
X72880000Y19280000D02*
X74120000Y19280000D01*
X72880000Y15720000D02*
X74120000Y15720000D01*
X74320000Y15920000D02*
X74320000Y19080000D01*
X72680000Y19080000D02*
G75*
G02*
X72880000Y19280000I200000J0D01*
G01*
X72880000Y15720000D02*
G75*
G02*
X72680000Y15920000I1J200001D01*
G01*
X74120000Y19280000D02*
G75*
G02*
X74320000Y19080000I0J-200000D01*
G01*
X74320000Y15920000D02*
G75*
G02*
X74120000Y15720000I-200001J1D01*
G01*
%TO.C,C5*%
X96620000Y68320000D02*
X99780000Y68320000D01*
X99980000Y68120000D02*
X99980000Y66880000D01*
X96420000Y68120000D02*
X96420000Y66880000D01*
X96620000Y66680000D02*
X99780000Y66680000D01*
X99780000Y68320000D02*
G75*
G02*
X99980000Y68120000I0J-200000D01*
G01*
X96420000Y68120000D02*
G75*
G02*
X96620000Y68320000I200001J-1D01*
G01*
X99980000Y66880000D02*
G75*
G02*
X99780000Y66680000I-200000J0D01*
G01*
X96620000Y66680000D02*
G75*
G02*
X96420000Y66880000I1J200001D01*
G01*
%TO.C,D7*%
X139500000Y36005840D02*
X144500000Y36005840D01*
X139500000Y34000000D02*
X139500000Y35982130D01*
X139500000Y33991620D02*
X144500000Y33991620D01*
X141200000Y35000000D02*
X141600000Y35000000D01*
X141600000Y35650000D02*
X141600000Y34400000D01*
X141600000Y35025000D02*
X142200000Y35625000D01*
X142200000Y35625000D02*
X142200000Y34400000D01*
X142200000Y34400000D02*
X141600000Y35000000D01*
X142600000Y35000000D02*
X142200000Y35000000D01*
X144500000Y33991620D02*
X144500000Y36005840D01*
%TO.C,R1*%
X103480000Y71300000D02*
X103480000Y66700000D01*
X105370000Y71450000D02*
X103630000Y71450000D01*
X105370000Y66550000D02*
X103630000Y66550000D01*
X105520000Y71300000D02*
X105520000Y66700000D01*
X103480000Y71300000D02*
G75*
G02*
X103630000Y71450000I150000J0D01*
G01*
X103630000Y66550000D02*
G75*
G02*
X103480000Y66700000I0J150000D01*
G01*
X105370000Y71450000D02*
G75*
G02*
X105520000Y71300000I0J-150000D01*
G01*
X105520000Y66700000D02*
G75*
G02*
X105370000Y66550000I-150000J0D01*
G01*
%TO.C,C9*%
X93680000Y19080000D02*
X93680000Y15920000D01*
X95120000Y19280000D02*
X93880000Y19280000D01*
X95120000Y15720000D02*
X93880000Y15720000D01*
X95320000Y19080000D02*
X95320000Y15920000D01*
X93680000Y19080000D02*
G75*
G02*
X93880000Y19280000I200001J-1D01*
G01*
X93880000Y15720000D02*
G75*
G02*
X93680000Y15920000I0J200000D01*
G01*
X95120000Y19280000D02*
G75*
G02*
X95320000Y19080000I-1J-200001D01*
G01*
X95320000Y15920000D02*
G75*
G02*
X95120000Y15720000I-200000J0D01*
G01*
%TO.C,R6*%
X28720000Y44620000D02*
X28720000Y43380000D01*
X28920000Y44820000D02*
X32080000Y44820000D01*
X28920000Y43180000D02*
X32080000Y43180000D01*
X32280000Y44620000D02*
X32280000Y43380000D01*
X28720000Y44620000D02*
G75*
G02*
X28920000Y44820000I200001J-1D01*
G01*
X28920000Y43180000D02*
G75*
G02*
X28720000Y43380000I1J200001D01*
G01*
X32080000Y44820000D02*
G75*
G02*
X32280000Y44620000I0J-200000D01*
G01*
X32280000Y43380000D02*
G75*
G02*
X32080000Y43180000I-200000J0D01*
G01*
%TO.C,C6*%
X24680000Y20420000D02*
X24680000Y23580000D01*
X24880000Y23780000D02*
X26120000Y23780000D01*
X24880000Y20220000D02*
X26120000Y20220000D01*
X26320000Y20420000D02*
X26320000Y23580000D01*
X24680000Y23580000D02*
G75*
G02*
X24880000Y23780000I200000J0D01*
G01*
X24880000Y20220000D02*
G75*
G02*
X24680000Y20420000I1J200001D01*
G01*
X26120000Y23780000D02*
G75*
G02*
X26320000Y23580000I0J-200000D01*
G01*
X26320000Y20420000D02*
G75*
G02*
X26120000Y20220000I-200001J1D01*
G01*
%TO.C,C4*%
X87420000Y68320000D02*
X90580000Y68320000D01*
X90780000Y68120000D02*
X90780000Y66880000D01*
X87220000Y68120000D02*
X87220000Y66880000D01*
X87420000Y66680000D02*
X90580000Y66680000D01*
X90580000Y68320000D02*
G75*
G02*
X90780000Y68120000I0J-200000D01*
G01*
X87220000Y68120000D02*
G75*
G02*
X87420000Y68320000I200001J-1D01*
G01*
X90780000Y66880000D02*
G75*
G02*
X90580000Y66680000I-200000J0D01*
G01*
X87420000Y66680000D02*
G75*
G02*
X87220000Y66880000I1J200001D01*
G01*
%TO.C,R13*%
X36680000Y15920000D02*
X36680000Y19080000D01*
X36880000Y19280000D02*
X38120000Y19280000D01*
X36880000Y15720000D02*
X38120000Y15720000D01*
X38320000Y15920000D02*
X38320000Y19080000D01*
X36680000Y19080000D02*
G75*
G02*
X36880000Y19280000I200000J0D01*
G01*
X36880000Y15720000D02*
G75*
G02*
X36680000Y15920000I1J200001D01*
G01*
X38120000Y19280000D02*
G75*
G02*
X38320000Y19080000I0J-200000D01*
G01*
X38320000Y15920000D02*
G75*
G02*
X38120000Y15720000I-200001J1D01*
G01*
%TD*%
M02*
