%TF.GenerationSoftware,KiCad,Pcbnew,10.0.1*%
%TF.CreationDate,2026-04-23T04:09:21+09:00*%
%TF.ProjectId,Multi_Mega_Display_V2,4d756c74-695f-44d6-9567-615f44697370,rev?*%
%TF.SameCoordinates,Original*%
%TF.FileFunction,Legend,Bot*%
%TF.FilePolarity,Positive*%
%FSLAX46Y46*%
G04 Gerber Fmt 4.6, Leading zero omitted, Abs format (unit mm)*
G04 Created by KiCad (PCBNEW 10.0.1) date 2026-04-23 04:09:21*
%MOMM*%
%LPD*%
G01*
G04 APERTURE LIST*
%ADD10C,0.120000*%
%ADD11C,0.200000*%
%ADD12C,0.150000*%
G04 APERTURE END LIST*
D10*
X59587719Y21177573D02*
X59587719Y22577573D01*
X59587719Y22577573D02*
X59254386Y22577573D01*
X59254386Y22577573D02*
X59054386Y22510906D01*
X59054386Y22510906D02*
X58921053Y22377573D01*
X58921053Y22377573D02*
X58854386Y22244240D01*
X58854386Y22244240D02*
X58787719Y21977573D01*
X58787719Y21977573D02*
X58787719Y21777573D01*
X58787719Y21777573D02*
X58854386Y21510906D01*
X58854386Y21510906D02*
X58921053Y21377573D01*
X58921053Y21377573D02*
X59054386Y21244240D01*
X59054386Y21244240D02*
X59254386Y21177573D01*
X59254386Y21177573D02*
X59587719Y21177573D01*
X57921053Y22577573D02*
X57654386Y22577573D01*
X57654386Y22577573D02*
X57521053Y22510906D01*
X57521053Y22510906D02*
X57387719Y22377573D01*
X57387719Y22377573D02*
X57321053Y22110906D01*
X57321053Y22110906D02*
X57321053Y21644240D01*
X57321053Y21644240D02*
X57387719Y21377573D01*
X57387719Y21377573D02*
X57521053Y21244240D01*
X57521053Y21244240D02*
X57654386Y21177573D01*
X57654386Y21177573D02*
X57921053Y21177573D01*
X57921053Y21177573D02*
X58054386Y21244240D01*
X58054386Y21244240D02*
X58187719Y21377573D01*
X58187719Y21377573D02*
X58254386Y21644240D01*
X58254386Y21644240D02*
X58254386Y22110906D01*
X58254386Y22110906D02*
X58187719Y22377573D01*
X58187719Y22377573D02*
X58054386Y22510906D01*
X58054386Y22510906D02*
X57921053Y22577573D01*
X56854386Y22577573D02*
X56521052Y21177573D01*
X56521052Y21177573D02*
X56254386Y22177573D01*
X56254386Y22177573D02*
X55987719Y21177573D01*
X55987719Y21177573D02*
X55654386Y22577573D01*
X55121052Y21177573D02*
X55121052Y22577573D01*
X55121052Y22577573D02*
X54321052Y21177573D01*
X54321052Y21177573D02*
X54321052Y22577573D01*
D11*
X39000000Y23000000D02*
X39000000Y24000000D01*
X39000000Y5000000D02*
X39000000Y6000000D01*
X75000000Y6000000D02*
X75000000Y5000000D01*
X75000000Y5000000D02*
X39000000Y5000000D01*
X93000000Y24000000D02*
X39000000Y24000000D01*
X93000000Y24000000D02*
X93000000Y23000000D01*
D10*
X40654386Y21244240D02*
X40454386Y21177573D01*
X40454386Y21177573D02*
X40121053Y21177573D01*
X40121053Y21177573D02*
X39987719Y21244240D01*
X39987719Y21244240D02*
X39921053Y21310906D01*
X39921053Y21310906D02*
X39854386Y21444240D01*
X39854386Y21444240D02*
X39854386Y21577573D01*
X39854386Y21577573D02*
X39921053Y21710906D01*
X39921053Y21710906D02*
X39987719Y21777573D01*
X39987719Y21777573D02*
X40121053Y21844240D01*
X40121053Y21844240D02*
X40387719Y21910906D01*
X40387719Y21910906D02*
X40521053Y21977573D01*
X40521053Y21977573D02*
X40587719Y22044240D01*
X40587719Y22044240D02*
X40654386Y22177573D01*
X40654386Y22177573D02*
X40654386Y22310906D01*
X40654386Y22310906D02*
X40587719Y22444240D01*
X40587719Y22444240D02*
X40521053Y22510906D01*
X40521053Y22510906D02*
X40387719Y22577573D01*
X40387719Y22577573D02*
X40054386Y22577573D01*
X40054386Y22577573D02*
X39854386Y22510906D01*
X39254386Y21910906D02*
X38787720Y21910906D01*
X38587720Y21177573D02*
X39254386Y21177573D01*
X39254386Y21177573D02*
X39254386Y22577573D01*
X39254386Y22577573D02*
X38587720Y22577573D01*
X38187719Y22577573D02*
X37387719Y22577573D01*
X37787719Y21177573D02*
X37787719Y22577573D01*
X64587719Y3410906D02*
X64121053Y3410906D01*
X63921053Y2677573D02*
X64587719Y2677573D01*
X64587719Y2677573D02*
X64587719Y4077573D01*
X64587719Y4077573D02*
X63921053Y4077573D01*
X63454386Y4077573D02*
X62521052Y2677573D01*
X62521052Y4077573D02*
X63454386Y2677573D01*
X62187719Y4077573D02*
X61387719Y4077573D01*
X61787719Y2677573D02*
X61787719Y4077573D01*
X60521052Y2144240D02*
X60587719Y2210906D01*
X60587719Y2210906D02*
X60721052Y2410906D01*
X60721052Y2410906D02*
X60787719Y2544240D01*
X60787719Y2544240D02*
X60854386Y2744240D01*
X60854386Y2744240D02*
X60921052Y3077573D01*
X60921052Y3077573D02*
X60921052Y3344240D01*
X60921052Y3344240D02*
X60854386Y3677573D01*
X60854386Y3677573D02*
X60787719Y3877573D01*
X60787719Y3877573D02*
X60721052Y4010906D01*
X60721052Y4010906D02*
X60587719Y4210906D01*
X60587719Y4210906D02*
X60521052Y4277573D01*
X60054386Y3077573D02*
X59387719Y3077573D01*
X60187719Y2677573D02*
X59721053Y4077573D01*
X59721053Y4077573D02*
X59254386Y2677573D01*
X58787719Y2677573D02*
X58787719Y4077573D01*
X58787719Y4077573D02*
X58454386Y4077573D01*
X58454386Y4077573D02*
X58254386Y4010906D01*
X58254386Y4010906D02*
X58121053Y3877573D01*
X58121053Y3877573D02*
X58054386Y3744240D01*
X58054386Y3744240D02*
X57987719Y3477573D01*
X57987719Y3477573D02*
X57987719Y3277573D01*
X57987719Y3277573D02*
X58054386Y3010906D01*
X58054386Y3010906D02*
X58121053Y2877573D01*
X58121053Y2877573D02*
X58254386Y2744240D01*
X58254386Y2744240D02*
X58454386Y2677573D01*
X58454386Y2677573D02*
X58787719Y2677573D01*
X57387719Y2677573D02*
X57387719Y4077573D01*
X57387719Y4077573D02*
X57054386Y4077573D01*
X57054386Y4077573D02*
X56854386Y4010906D01*
X56854386Y4010906D02*
X56721053Y3877573D01*
X56721053Y3877573D02*
X56654386Y3744240D01*
X56654386Y3744240D02*
X56587719Y3477573D01*
X56587719Y3477573D02*
X56587719Y3277573D01*
X56587719Y3277573D02*
X56654386Y3010906D01*
X56654386Y3010906D02*
X56721053Y2877573D01*
X56721053Y2877573D02*
X56854386Y2744240D01*
X56854386Y2744240D02*
X57054386Y2677573D01*
X57054386Y2677573D02*
X57387719Y2677573D01*
X55187719Y2677573D02*
X55654386Y3344240D01*
X55987719Y2677573D02*
X55987719Y4077573D01*
X55987719Y4077573D02*
X55454386Y4077573D01*
X55454386Y4077573D02*
X55321053Y4010906D01*
X55321053Y4010906D02*
X55254386Y3944240D01*
X55254386Y3944240D02*
X55187719Y3810906D01*
X55187719Y3810906D02*
X55187719Y3610906D01*
X55187719Y3610906D02*
X55254386Y3477573D01*
X55254386Y3477573D02*
X55321053Y3410906D01*
X55321053Y3410906D02*
X55454386Y3344240D01*
X55454386Y3344240D02*
X55987719Y3344240D01*
X53587719Y4144240D02*
X54787719Y2344240D01*
X52654386Y3410906D02*
X52454386Y3344240D01*
X52454386Y3344240D02*
X52387719Y3277573D01*
X52387719Y3277573D02*
X52321052Y3144240D01*
X52321052Y3144240D02*
X52321052Y2944240D01*
X52321052Y2944240D02*
X52387719Y2810906D01*
X52387719Y2810906D02*
X52454386Y2744240D01*
X52454386Y2744240D02*
X52587719Y2677573D01*
X52587719Y2677573D02*
X53121052Y2677573D01*
X53121052Y2677573D02*
X53121052Y4077573D01*
X53121052Y4077573D02*
X52654386Y4077573D01*
X52654386Y4077573D02*
X52521052Y4010906D01*
X52521052Y4010906D02*
X52454386Y3944240D01*
X52454386Y3944240D02*
X52387719Y3810906D01*
X52387719Y3810906D02*
X52387719Y3677573D01*
X52387719Y3677573D02*
X52454386Y3544240D01*
X52454386Y3544240D02*
X52521052Y3477573D01*
X52521052Y3477573D02*
X52654386Y3410906D01*
X52654386Y3410906D02*
X53121052Y3410906D01*
X51721052Y2677573D02*
X51721052Y4077573D01*
X51721052Y4077573D02*
X51187719Y4077573D01*
X51187719Y4077573D02*
X51054386Y4010906D01*
X51054386Y4010906D02*
X50987719Y3944240D01*
X50987719Y3944240D02*
X50921052Y3810906D01*
X50921052Y3810906D02*
X50921052Y3610906D01*
X50921052Y3610906D02*
X50987719Y3477573D01*
X50987719Y3477573D02*
X51054386Y3410906D01*
X51054386Y3410906D02*
X51187719Y3344240D01*
X51187719Y3344240D02*
X51721052Y3344240D01*
X50387719Y2744240D02*
X50187719Y2677573D01*
X50187719Y2677573D02*
X49854386Y2677573D01*
X49854386Y2677573D02*
X49721052Y2744240D01*
X49721052Y2744240D02*
X49654386Y2810906D01*
X49654386Y2810906D02*
X49587719Y2944240D01*
X49587719Y2944240D02*
X49587719Y3077573D01*
X49587719Y3077573D02*
X49654386Y3210906D01*
X49654386Y3210906D02*
X49721052Y3277573D01*
X49721052Y3277573D02*
X49854386Y3344240D01*
X49854386Y3344240D02*
X50121052Y3410906D01*
X50121052Y3410906D02*
X50254386Y3477573D01*
X50254386Y3477573D02*
X50321052Y3544240D01*
X50321052Y3544240D02*
X50387719Y3677573D01*
X50387719Y3677573D02*
X50387719Y3810906D01*
X50387719Y3810906D02*
X50321052Y3944240D01*
X50321052Y3944240D02*
X50254386Y4010906D01*
X50254386Y4010906D02*
X50121052Y4077573D01*
X50121052Y4077573D02*
X49787719Y4077573D01*
X49787719Y4077573D02*
X49587719Y4010906D01*
X49121053Y2144240D02*
X49054386Y2210906D01*
X49054386Y2210906D02*
X48921053Y2410906D01*
X48921053Y2410906D02*
X48854386Y2544240D01*
X48854386Y2544240D02*
X48787719Y2744240D01*
X48787719Y2744240D02*
X48721053Y3077573D01*
X48721053Y3077573D02*
X48721053Y3344240D01*
X48721053Y3344240D02*
X48787719Y3677573D01*
X48787719Y3677573D02*
X48854386Y3877573D01*
X48854386Y3877573D02*
X48921053Y4010906D01*
X48921053Y4010906D02*
X49054386Y4210906D01*
X49054386Y4210906D02*
X49121053Y4277573D01*
X69287719Y24177573D02*
X69754386Y24844240D01*
X70087719Y24177573D02*
X70087719Y25577573D01*
X70087719Y25577573D02*
X69554386Y25577573D01*
X69554386Y25577573D02*
X69421053Y25510906D01*
X69421053Y25510906D02*
X69354386Y25444240D01*
X69354386Y25444240D02*
X69287719Y25310906D01*
X69287719Y25310906D02*
X69287719Y25110906D01*
X69287719Y25110906D02*
X69354386Y24977573D01*
X69354386Y24977573D02*
X69421053Y24910906D01*
X69421053Y24910906D02*
X69554386Y24844240D01*
X69554386Y24844240D02*
X70087719Y24844240D01*
X68687719Y24910906D02*
X68221053Y24910906D01*
X68021053Y24177573D02*
X68687719Y24177573D01*
X68687719Y24177573D02*
X68687719Y25577573D01*
X68687719Y25577573D02*
X68021053Y25577573D01*
X67421052Y24177573D02*
X67421052Y25577573D01*
X67421052Y25577573D02*
X66954386Y24577573D01*
X66954386Y24577573D02*
X66487719Y25577573D01*
X66487719Y25577573D02*
X66487719Y24177573D01*
X65554386Y25577573D02*
X65287719Y25577573D01*
X65287719Y25577573D02*
X65154386Y25510906D01*
X65154386Y25510906D02*
X65021052Y25377573D01*
X65021052Y25377573D02*
X64954386Y25110906D01*
X64954386Y25110906D02*
X64954386Y24644240D01*
X64954386Y24644240D02*
X65021052Y24377573D01*
X65021052Y24377573D02*
X65154386Y24244240D01*
X65154386Y24244240D02*
X65287719Y24177573D01*
X65287719Y24177573D02*
X65554386Y24177573D01*
X65554386Y24177573D02*
X65687719Y24244240D01*
X65687719Y24244240D02*
X65821052Y24377573D01*
X65821052Y24377573D02*
X65887719Y24644240D01*
X65887719Y24644240D02*
X65887719Y25110906D01*
X65887719Y25110906D02*
X65821052Y25377573D01*
X65821052Y25377573D02*
X65687719Y25510906D01*
X65687719Y25510906D02*
X65554386Y25577573D01*
X64554385Y25577573D02*
X63754385Y25577573D01*
X64154385Y24177573D02*
X64154385Y25577573D01*
X63287718Y24910906D02*
X62821052Y24910906D01*
X62621052Y24177573D02*
X63287718Y24177573D01*
X63287718Y24177573D02*
X63287718Y25577573D01*
X63287718Y25577573D02*
X62621052Y25577573D01*
X76087719Y22577573D02*
X76087719Y21444240D01*
X76087719Y21444240D02*
X76021053Y21310906D01*
X76021053Y21310906D02*
X75954386Y21244240D01*
X75954386Y21244240D02*
X75821053Y21177573D01*
X75821053Y21177573D02*
X75554386Y21177573D01*
X75554386Y21177573D02*
X75421053Y21244240D01*
X75421053Y21244240D02*
X75354386Y21310906D01*
X75354386Y21310906D02*
X75287719Y21444240D01*
X75287719Y21444240D02*
X75287719Y22577573D01*
X74621052Y21177573D02*
X74621052Y22577573D01*
X74621052Y22577573D02*
X74087719Y22577573D01*
X74087719Y22577573D02*
X73954386Y22510906D01*
X73954386Y22510906D02*
X73887719Y22444240D01*
X73887719Y22444240D02*
X73821052Y22310906D01*
X73821052Y22310906D02*
X73821052Y22110906D01*
X73821052Y22110906D02*
X73887719Y21977573D01*
X73887719Y21977573D02*
X73954386Y21910906D01*
X73954386Y21910906D02*
X74087719Y21844240D01*
X74087719Y21844240D02*
X74621052Y21844240D01*
X95587719Y21177573D02*
X95587719Y22577573D01*
X95587719Y22577573D02*
X95121053Y21577573D01*
X95121053Y21577573D02*
X94654386Y22577573D01*
X94654386Y22577573D02*
X94654386Y21177573D01*
X93721053Y22577573D02*
X93454386Y22577573D01*
X93454386Y22577573D02*
X93321053Y22510906D01*
X93321053Y22510906D02*
X93187719Y22377573D01*
X93187719Y22377573D02*
X93121053Y22110906D01*
X93121053Y22110906D02*
X93121053Y21644240D01*
X93121053Y21644240D02*
X93187719Y21377573D01*
X93187719Y21377573D02*
X93321053Y21244240D01*
X93321053Y21244240D02*
X93454386Y21177573D01*
X93454386Y21177573D02*
X93721053Y21177573D01*
X93721053Y21177573D02*
X93854386Y21244240D01*
X93854386Y21244240D02*
X93987719Y21377573D01*
X93987719Y21377573D02*
X94054386Y21644240D01*
X94054386Y21644240D02*
X94054386Y22110906D01*
X94054386Y22110906D02*
X93987719Y22377573D01*
X93987719Y22377573D02*
X93854386Y22510906D01*
X93854386Y22510906D02*
X93721053Y22577573D01*
X92521052Y21177573D02*
X92521052Y22577573D01*
X92521052Y22577573D02*
X92187719Y22577573D01*
X92187719Y22577573D02*
X91987719Y22510906D01*
X91987719Y22510906D02*
X91854386Y22377573D01*
X91854386Y22377573D02*
X91787719Y22244240D01*
X91787719Y22244240D02*
X91721052Y21977573D01*
X91721052Y21977573D02*
X91721052Y21777573D01*
X91721052Y21777573D02*
X91787719Y21510906D01*
X91787719Y21510906D02*
X91854386Y21377573D01*
X91854386Y21377573D02*
X91987719Y21244240D01*
X91987719Y21244240D02*
X92187719Y21177573D01*
X92187719Y21177573D02*
X92521052Y21177573D01*
X91121052Y21910906D02*
X90654386Y21910906D01*
X90454386Y21177573D02*
X91121052Y21177573D01*
X91121052Y21177573D02*
X91121052Y22577573D01*
X91121052Y22577573D02*
X90454386Y22577573D01*
X95187719Y3644240D02*
X95254386Y3710906D01*
X95254386Y3710906D02*
X95387719Y3910906D01*
X95387719Y3910906D02*
X95454386Y4044240D01*
X95454386Y4044240D02*
X95521053Y4244240D01*
X95521053Y4244240D02*
X95587719Y4577573D01*
X95587719Y4577573D02*
X95587719Y4844240D01*
X95587719Y4844240D02*
X95521053Y5177573D01*
X95521053Y5177573D02*
X95454386Y5377573D01*
X95454386Y5377573D02*
X95387719Y5510906D01*
X95387719Y5510906D02*
X95254386Y5710906D01*
X95254386Y5710906D02*
X95187719Y5777573D01*
X94187720Y4910906D02*
X93987720Y4844240D01*
X93987720Y4844240D02*
X93921053Y4777573D01*
X93921053Y4777573D02*
X93854386Y4644240D01*
X93854386Y4644240D02*
X93854386Y4444240D01*
X93854386Y4444240D02*
X93921053Y4310906D01*
X93921053Y4310906D02*
X93987720Y4244240D01*
X93987720Y4244240D02*
X94121053Y4177573D01*
X94121053Y4177573D02*
X94654386Y4177573D01*
X94654386Y4177573D02*
X94654386Y5577573D01*
X94654386Y5577573D02*
X94187720Y5577573D01*
X94187720Y5577573D02*
X94054386Y5510906D01*
X94054386Y5510906D02*
X93987720Y5444240D01*
X93987720Y5444240D02*
X93921053Y5310906D01*
X93921053Y5310906D02*
X93921053Y5177573D01*
X93921053Y5177573D02*
X93987720Y5044240D01*
X93987720Y5044240D02*
X94054386Y4977573D01*
X94054386Y4977573D02*
X94187720Y4910906D01*
X94187720Y4910906D02*
X94654386Y4910906D01*
X93254386Y4177573D02*
X93254386Y5577573D01*
X93254386Y5577573D02*
X92721053Y5577573D01*
X92721053Y5577573D02*
X92587720Y5510906D01*
X92587720Y5510906D02*
X92521053Y5444240D01*
X92521053Y5444240D02*
X92454386Y5310906D01*
X92454386Y5310906D02*
X92454386Y5110906D01*
X92454386Y5110906D02*
X92521053Y4977573D01*
X92521053Y4977573D02*
X92587720Y4910906D01*
X92587720Y4910906D02*
X92721053Y4844240D01*
X92721053Y4844240D02*
X93254386Y4844240D01*
X91921053Y4244240D02*
X91721053Y4177573D01*
X91721053Y4177573D02*
X91387720Y4177573D01*
X91387720Y4177573D02*
X91254386Y4244240D01*
X91254386Y4244240D02*
X91187720Y4310906D01*
X91187720Y4310906D02*
X91121053Y4444240D01*
X91121053Y4444240D02*
X91121053Y4577573D01*
X91121053Y4577573D02*
X91187720Y4710906D01*
X91187720Y4710906D02*
X91254386Y4777573D01*
X91254386Y4777573D02*
X91387720Y4844240D01*
X91387720Y4844240D02*
X91654386Y4910906D01*
X91654386Y4910906D02*
X91787720Y4977573D01*
X91787720Y4977573D02*
X91854386Y5044240D01*
X91854386Y5044240D02*
X91921053Y5177573D01*
X91921053Y5177573D02*
X91921053Y5310906D01*
X91921053Y5310906D02*
X91854386Y5444240D01*
X91854386Y5444240D02*
X91787720Y5510906D01*
X91787720Y5510906D02*
X91654386Y5577573D01*
X91654386Y5577573D02*
X91321053Y5577573D01*
X91321053Y5577573D02*
X91121053Y5510906D01*
X90654387Y3644240D02*
X90587720Y3710906D01*
X90587720Y3710906D02*
X90454387Y3910906D01*
X90454387Y3910906D02*
X90387720Y4044240D01*
X90387720Y4044240D02*
X90321053Y4244240D01*
X90321053Y4244240D02*
X90254387Y4577573D01*
X90254387Y4577573D02*
X90254387Y4844240D01*
X90254387Y4844240D02*
X90321053Y5177573D01*
X90321053Y5177573D02*
X90387720Y5377573D01*
X90387720Y5377573D02*
X90454387Y5510906D01*
X90454387Y5510906D02*
X90587720Y5710906D01*
X90587720Y5710906D02*
X90654387Y5777573D01*
X113687719Y3644240D02*
X113754386Y3710906D01*
X113754386Y3710906D02*
X113887719Y3910906D01*
X113887719Y3910906D02*
X113954386Y4044240D01*
X113954386Y4044240D02*
X114021053Y4244240D01*
X114021053Y4244240D02*
X114087719Y4577573D01*
X114087719Y4577573D02*
X114087719Y4844240D01*
X114087719Y4844240D02*
X114021053Y5177573D01*
X114021053Y5177573D02*
X113954386Y5377573D01*
X113954386Y5377573D02*
X113887719Y5510906D01*
X113887719Y5510906D02*
X113754386Y5710906D01*
X113754386Y5710906D02*
X113687719Y5777573D01*
X113221053Y4577573D02*
X112554386Y4577573D01*
X113354386Y4177573D02*
X112887720Y5577573D01*
X112887720Y5577573D02*
X112421053Y4177573D01*
X111954386Y4177573D02*
X111954386Y5577573D01*
X111954386Y5577573D02*
X111621053Y5577573D01*
X111621053Y5577573D02*
X111421053Y5510906D01*
X111421053Y5510906D02*
X111287720Y5377573D01*
X111287720Y5377573D02*
X111221053Y5244240D01*
X111221053Y5244240D02*
X111154386Y4977573D01*
X111154386Y4977573D02*
X111154386Y4777573D01*
X111154386Y4777573D02*
X111221053Y4510906D01*
X111221053Y4510906D02*
X111287720Y4377573D01*
X111287720Y4377573D02*
X111421053Y4244240D01*
X111421053Y4244240D02*
X111621053Y4177573D01*
X111621053Y4177573D02*
X111954386Y4177573D01*
X110554386Y4177573D02*
X110554386Y5577573D01*
X110554386Y5577573D02*
X110221053Y5577573D01*
X110221053Y5577573D02*
X110021053Y5510906D01*
X110021053Y5510906D02*
X109887720Y5377573D01*
X109887720Y5377573D02*
X109821053Y5244240D01*
X109821053Y5244240D02*
X109754386Y4977573D01*
X109754386Y4977573D02*
X109754386Y4777573D01*
X109754386Y4777573D02*
X109821053Y4510906D01*
X109821053Y4510906D02*
X109887720Y4377573D01*
X109887720Y4377573D02*
X110021053Y4244240D01*
X110021053Y4244240D02*
X110221053Y4177573D01*
X110221053Y4177573D02*
X110554386Y4177573D01*
X108354386Y4177573D02*
X108821053Y4844240D01*
X109154386Y4177573D02*
X109154386Y5577573D01*
X109154386Y5577573D02*
X108621053Y5577573D01*
X108621053Y5577573D02*
X108487720Y5510906D01*
X108487720Y5510906D02*
X108421053Y5444240D01*
X108421053Y5444240D02*
X108354386Y5310906D01*
X108354386Y5310906D02*
X108354386Y5110906D01*
X108354386Y5110906D02*
X108421053Y4977573D01*
X108421053Y4977573D02*
X108487720Y4910906D01*
X108487720Y4910906D02*
X108621053Y4844240D01*
X108621053Y4844240D02*
X109154386Y4844240D01*
X107887720Y3644240D02*
X107821053Y3710906D01*
X107821053Y3710906D02*
X107687720Y3910906D01*
X107687720Y3910906D02*
X107621053Y4044240D01*
X107621053Y4044240D02*
X107554386Y4244240D01*
X107554386Y4244240D02*
X107487720Y4577573D01*
X107487720Y4577573D02*
X107487720Y4844240D01*
X107487720Y4844240D02*
X107554386Y5177573D01*
X107554386Y5177573D02*
X107621053Y5377573D01*
X107621053Y5377573D02*
X107687720Y5510906D01*
X107687720Y5510906D02*
X107821053Y5710906D01*
X107821053Y5710906D02*
X107887720Y5777573D01*
X117154386Y21244240D02*
X116954386Y21177573D01*
X116954386Y21177573D02*
X116621053Y21177573D01*
X116621053Y21177573D02*
X116487719Y21244240D01*
X116487719Y21244240D02*
X116421053Y21310906D01*
X116421053Y21310906D02*
X116354386Y21444240D01*
X116354386Y21444240D02*
X116354386Y21577573D01*
X116354386Y21577573D02*
X116421053Y21710906D01*
X116421053Y21710906D02*
X116487719Y21777573D01*
X116487719Y21777573D02*
X116621053Y21844240D01*
X116621053Y21844240D02*
X116887719Y21910906D01*
X116887719Y21910906D02*
X117021053Y21977573D01*
X117021053Y21977573D02*
X117087719Y22044240D01*
X117087719Y22044240D02*
X117154386Y22177573D01*
X117154386Y22177573D02*
X117154386Y22310906D01*
X117154386Y22310906D02*
X117087719Y22444240D01*
X117087719Y22444240D02*
X117021053Y22510906D01*
X117021053Y22510906D02*
X116887719Y22577573D01*
X116887719Y22577573D02*
X116554386Y22577573D01*
X116554386Y22577573D02*
X116354386Y22510906D01*
X115954386Y22577573D02*
X115154386Y22577573D01*
X115554386Y21177573D02*
X115554386Y22577573D01*
X114754386Y21577573D02*
X114087719Y21577573D01*
X114887719Y21177573D02*
X114421053Y22577573D01*
X114421053Y22577573D02*
X113954386Y21177573D01*
X112687719Y21177573D02*
X113154386Y21844240D01*
X113487719Y21177573D02*
X113487719Y22577573D01*
X113487719Y22577573D02*
X112954386Y22577573D01*
X112954386Y22577573D02*
X112821053Y22510906D01*
X112821053Y22510906D02*
X112754386Y22444240D01*
X112754386Y22444240D02*
X112687719Y22310906D01*
X112687719Y22310906D02*
X112687719Y22110906D01*
X112687719Y22110906D02*
X112754386Y21977573D01*
X112754386Y21977573D02*
X112821053Y21910906D01*
X112821053Y21910906D02*
X112954386Y21844240D01*
X112954386Y21844240D02*
X113487719Y21844240D01*
X112287719Y22577573D02*
X111487719Y22577573D01*
X111887719Y21177573D02*
X111887719Y22577573D01*
X110021052Y22644240D02*
X111221052Y20844240D01*
X109621052Y21244240D02*
X109421052Y21177573D01*
X109421052Y21177573D02*
X109087719Y21177573D01*
X109087719Y21177573D02*
X108954385Y21244240D01*
X108954385Y21244240D02*
X108887719Y21310906D01*
X108887719Y21310906D02*
X108821052Y21444240D01*
X108821052Y21444240D02*
X108821052Y21577573D01*
X108821052Y21577573D02*
X108887719Y21710906D01*
X108887719Y21710906D02*
X108954385Y21777573D01*
X108954385Y21777573D02*
X109087719Y21844240D01*
X109087719Y21844240D02*
X109354385Y21910906D01*
X109354385Y21910906D02*
X109487719Y21977573D01*
X109487719Y21977573D02*
X109554385Y22044240D01*
X109554385Y22044240D02*
X109621052Y22177573D01*
X109621052Y22177573D02*
X109621052Y22310906D01*
X109621052Y22310906D02*
X109554385Y22444240D01*
X109554385Y22444240D02*
X109487719Y22510906D01*
X109487719Y22510906D02*
X109354385Y22577573D01*
X109354385Y22577573D02*
X109021052Y22577573D01*
X109021052Y22577573D02*
X108821052Y22510906D01*
X108421052Y22577573D02*
X107621052Y22577573D01*
X108021052Y21177573D02*
X108021052Y22577573D01*
X106887719Y22577573D02*
X106621052Y22577573D01*
X106621052Y22577573D02*
X106487719Y22510906D01*
X106487719Y22510906D02*
X106354385Y22377573D01*
X106354385Y22377573D02*
X106287719Y22110906D01*
X106287719Y22110906D02*
X106287719Y21644240D01*
X106287719Y21644240D02*
X106354385Y21377573D01*
X106354385Y21377573D02*
X106487719Y21244240D01*
X106487719Y21244240D02*
X106621052Y21177573D01*
X106621052Y21177573D02*
X106887719Y21177573D01*
X106887719Y21177573D02*
X107021052Y21244240D01*
X107021052Y21244240D02*
X107154385Y21377573D01*
X107154385Y21377573D02*
X107221052Y21644240D01*
X107221052Y21644240D02*
X107221052Y22110906D01*
X107221052Y22110906D02*
X107154385Y22377573D01*
X107154385Y22377573D02*
X107021052Y22510906D01*
X107021052Y22510906D02*
X106887719Y22577573D01*
X105687718Y21177573D02*
X105687718Y22577573D01*
X105687718Y22577573D02*
X105154385Y22577573D01*
X105154385Y22577573D02*
X105021052Y22510906D01*
X105021052Y22510906D02*
X104954385Y22444240D01*
X104954385Y22444240D02*
X104887718Y22310906D01*
X104887718Y22310906D02*
X104887718Y22110906D01*
X104887718Y22110906D02*
X104954385Y21977573D01*
X104954385Y21977573D02*
X105021052Y21910906D01*
X105021052Y21910906D02*
X105154385Y21844240D01*
X105154385Y21844240D02*
X105687718Y21844240D01*
D12*
X23541904Y45558919D02*
X23541904Y46658919D01*
X23541904Y46658919D02*
X23279999Y46658919D01*
X23279999Y46658919D02*
X23122856Y46606538D01*
X23122856Y46606538D02*
X23018094Y46501776D01*
X23018094Y46501776D02*
X22965713Y46397014D01*
X22965713Y46397014D02*
X22913332Y46187490D01*
X22913332Y46187490D02*
X22913332Y46030347D01*
X22913332Y46030347D02*
X22965713Y45820823D01*
X22965713Y45820823D02*
X23018094Y45716061D01*
X23018094Y45716061D02*
X23122856Y45611300D01*
X23122856Y45611300D02*
X23279999Y45558919D01*
X23279999Y45558919D02*
X23541904Y45558919D01*
X21918094Y46658919D02*
X22441904Y46658919D01*
X22441904Y46658919D02*
X22494285Y46135109D01*
X22494285Y46135109D02*
X22441904Y46187490D01*
X22441904Y46187490D02*
X22337142Y46239871D01*
X22337142Y46239871D02*
X22075237Y46239871D01*
X22075237Y46239871D02*
X21970475Y46187490D01*
X21970475Y46187490D02*
X21918094Y46135109D01*
X21918094Y46135109D02*
X21865713Y46030347D01*
X21865713Y46030347D02*
X21865713Y45768442D01*
X21865713Y45768442D02*
X21918094Y45663680D01*
X21918094Y45663680D02*
X21970475Y45611300D01*
X21970475Y45611300D02*
X22075237Y45558919D01*
X22075237Y45558919D02*
X22337142Y45558919D01*
X22337142Y45558919D02*
X22441904Y45611300D01*
X22441904Y45611300D02*
X22494285Y45663680D01*
D11*
X25558898Y41675447D02*
X25125564Y41675447D01*
X24939850Y40994495D02*
X25558898Y40994495D01*
X25558898Y40994495D02*
X25558898Y42294495D01*
X25558898Y42294495D02*
X24939850Y42294495D01*
X24506517Y42294495D02*
X23639851Y40994495D01*
X23639851Y42294495D02*
X24506517Y40994495D01*
X23330327Y42294495D02*
X22587470Y42294495D01*
X22958898Y40994495D02*
X22958898Y42294495D01*
D12*
X125541904Y45558919D02*
X125541904Y46658919D01*
X125541904Y46658919D02*
X125279999Y46658919D01*
X125279999Y46658919D02*
X125122856Y46606538D01*
X125122856Y46606538D02*
X125018094Y46501776D01*
X125018094Y46501776D02*
X124965713Y46397014D01*
X124965713Y46397014D02*
X124913332Y46187490D01*
X124913332Y46187490D02*
X124913332Y46030347D01*
X124913332Y46030347D02*
X124965713Y45820823D01*
X124965713Y45820823D02*
X125018094Y45716061D01*
X125018094Y45716061D02*
X125122856Y45611300D01*
X125122856Y45611300D02*
X125279999Y45558919D01*
X125279999Y45558919D02*
X125541904Y45558919D01*
X124494285Y46554157D02*
X124441904Y46606538D01*
X124441904Y46606538D02*
X124337142Y46658919D01*
X124337142Y46658919D02*
X124075237Y46658919D01*
X124075237Y46658919D02*
X123970475Y46606538D01*
X123970475Y46606538D02*
X123918094Y46554157D01*
X123918094Y46554157D02*
X123865713Y46449395D01*
X123865713Y46449395D02*
X123865713Y46344633D01*
X123865713Y46344633D02*
X123918094Y46187490D01*
X123918094Y46187490D02*
X124546666Y45558919D01*
X124546666Y45558919D02*
X123865713Y45558919D01*
D11*
X129808898Y40919495D02*
X129808898Y42219495D01*
X129808898Y41600447D02*
X129066041Y41600447D01*
X129066041Y40919495D02*
X129066041Y42219495D01*
X127518421Y42281400D02*
X128632707Y40609971D01*
X126466040Y40919495D02*
X127085088Y40919495D01*
X127085088Y40919495D02*
X127085088Y42219495D01*
X125104135Y40981400D02*
X124918421Y40919495D01*
X124918421Y40919495D02*
X124608897Y40919495D01*
X124608897Y40919495D02*
X124485088Y40981400D01*
X124485088Y40981400D02*
X124423183Y41043304D01*
X124423183Y41043304D02*
X124361278Y41167114D01*
X124361278Y41167114D02*
X124361278Y41290923D01*
X124361278Y41290923D02*
X124423183Y41414733D01*
X124423183Y41414733D02*
X124485088Y41476638D01*
X124485088Y41476638D02*
X124608897Y41538542D01*
X124608897Y41538542D02*
X124856516Y41600447D01*
X124856516Y41600447D02*
X124980326Y41662352D01*
X124980326Y41662352D02*
X125042231Y41724257D01*
X125042231Y41724257D02*
X125104135Y41848066D01*
X125104135Y41848066D02*
X125104135Y41971876D01*
X125104135Y41971876D02*
X125042231Y42095685D01*
X125042231Y42095685D02*
X124980326Y42157590D01*
X124980326Y42157590D02*
X124856516Y42219495D01*
X124856516Y42219495D02*
X124546993Y42219495D01*
X124546993Y42219495D02*
X124361278Y42157590D01*
X123804136Y41600447D02*
X123370802Y41600447D01*
X123185088Y40919495D02*
X123804136Y40919495D01*
X123804136Y40919495D02*
X123804136Y42219495D01*
X123804136Y42219495D02*
X123185088Y42219495D01*
X122813660Y42219495D02*
X122070803Y42219495D01*
X122442231Y40919495D02*
X122442231Y42219495D01*
D12*
X62861904Y7598919D02*
X62233332Y7598919D01*
X62547618Y6498919D02*
X62547618Y7598919D01*
X61919047Y6551300D02*
X61761904Y6498919D01*
X61761904Y6498919D02*
X61499999Y6498919D01*
X61499999Y6498919D02*
X61395237Y6551300D01*
X61395237Y6551300D02*
X61342856Y6603680D01*
X61342856Y6603680D02*
X61290475Y6708442D01*
X61290475Y6708442D02*
X61290475Y6813204D01*
X61290475Y6813204D02*
X61342856Y6917966D01*
X61342856Y6917966D02*
X61395237Y6970347D01*
X61395237Y6970347D02*
X61499999Y7022728D01*
X61499999Y7022728D02*
X61709523Y7075109D01*
X61709523Y7075109D02*
X61814285Y7127490D01*
X61814285Y7127490D02*
X61866666Y7179871D01*
X61866666Y7179871D02*
X61919047Y7284633D01*
X61919047Y7284633D02*
X61919047Y7389395D01*
X61919047Y7389395D02*
X61866666Y7494157D01*
X61866666Y7494157D02*
X61814285Y7546538D01*
X61814285Y7546538D02*
X61709523Y7598919D01*
X61709523Y7598919D02*
X61447618Y7598919D01*
X61447618Y7598919D02*
X61290475Y7546538D01*
X60347618Y7232252D02*
X60347618Y6498919D01*
X60609523Y7651300D02*
X60871428Y6865585D01*
X60871428Y6865585D02*
X60190475Y6865585D01*
X114103332Y62808919D02*
X114627142Y62808919D01*
X114627142Y62808919D02*
X114627142Y63908919D01*
X113108094Y62913680D02*
X113160475Y62861300D01*
X113160475Y62861300D02*
X113317618Y62808919D01*
X113317618Y62808919D02*
X113422380Y62808919D01*
X113422380Y62808919D02*
X113579523Y62861300D01*
X113579523Y62861300D02*
X113684285Y62966061D01*
X113684285Y62966061D02*
X113736666Y63070823D01*
X113736666Y63070823D02*
X113789047Y63280347D01*
X113789047Y63280347D02*
X113789047Y63437490D01*
X113789047Y63437490D02*
X113736666Y63647014D01*
X113736666Y63647014D02*
X113684285Y63751776D01*
X113684285Y63751776D02*
X113579523Y63856538D01*
X113579523Y63856538D02*
X113422380Y63908919D01*
X113422380Y63908919D02*
X113317618Y63908919D01*
X113317618Y63908919D02*
X113160475Y63856538D01*
X113160475Y63856538D02*
X113108094Y63804157D01*
X112636666Y62808919D02*
X112636666Y63908919D01*
X112636666Y63908919D02*
X112374761Y63908919D01*
X112374761Y63908919D02*
X112217618Y63856538D01*
X112217618Y63856538D02*
X112112856Y63751776D01*
X112112856Y63751776D02*
X112060475Y63647014D01*
X112060475Y63647014D02*
X112008094Y63437490D01*
X112008094Y63437490D02*
X112008094Y63280347D01*
X112008094Y63280347D02*
X112060475Y63070823D01*
X112060475Y63070823D02*
X112112856Y62966061D01*
X112112856Y62966061D02*
X112217618Y62861300D01*
X112217618Y62861300D02*
X112374761Y62808919D01*
X112374761Y62808919D02*
X112636666Y62808919D01*
X110960475Y62808919D02*
X111589047Y62808919D01*
X111274761Y62808919D02*
X111274761Y63908919D01*
X111274761Y63908919D02*
X111379523Y63751776D01*
X111379523Y63751776D02*
X111484285Y63647014D01*
X111484285Y63647014D02*
X111589047Y63594633D01*
X125541904Y34558919D02*
X125541904Y35658919D01*
X125541904Y35658919D02*
X125279999Y35658919D01*
X125279999Y35658919D02*
X125122856Y35606538D01*
X125122856Y35606538D02*
X125018094Y35501776D01*
X125018094Y35501776D02*
X124965713Y35397014D01*
X124965713Y35397014D02*
X124913332Y35187490D01*
X124913332Y35187490D02*
X124913332Y35030347D01*
X124913332Y35030347D02*
X124965713Y34820823D01*
X124965713Y34820823D02*
X125018094Y34716061D01*
X125018094Y34716061D02*
X125122856Y34611300D01*
X125122856Y34611300D02*
X125279999Y34558919D01*
X125279999Y34558919D02*
X125541904Y34558919D01*
X124546666Y35658919D02*
X123865713Y35658919D01*
X123865713Y35658919D02*
X124232380Y35239871D01*
X124232380Y35239871D02*
X124075237Y35239871D01*
X124075237Y35239871D02*
X123970475Y35187490D01*
X123970475Y35187490D02*
X123918094Y35135109D01*
X123918094Y35135109D02*
X123865713Y35030347D01*
X123865713Y35030347D02*
X123865713Y34768442D01*
X123865713Y34768442D02*
X123918094Y34663680D01*
X123918094Y34663680D02*
X123970475Y34611300D01*
X123970475Y34611300D02*
X124075237Y34558919D01*
X124075237Y34558919D02*
X124389523Y34558919D01*
X124389523Y34558919D02*
X124494285Y34611300D01*
X124494285Y34611300D02*
X124546666Y34663680D01*
D11*
X129873183Y30662352D02*
X129996993Y30724257D01*
X129996993Y30724257D02*
X130058898Y30786161D01*
X130058898Y30786161D02*
X130120802Y30909971D01*
X130120802Y30909971D02*
X130120802Y30971876D01*
X130120802Y30971876D02*
X130058898Y31095685D01*
X130058898Y31095685D02*
X129996993Y31157590D01*
X129996993Y31157590D02*
X129873183Y31219495D01*
X129873183Y31219495D02*
X129625564Y31219495D01*
X129625564Y31219495D02*
X129501755Y31157590D01*
X129501755Y31157590D02*
X129439850Y31095685D01*
X129439850Y31095685D02*
X129377945Y30971876D01*
X129377945Y30971876D02*
X129377945Y30909971D01*
X129377945Y30909971D02*
X129439850Y30786161D01*
X129439850Y30786161D02*
X129501755Y30724257D01*
X129501755Y30724257D02*
X129625564Y30662352D01*
X129625564Y30662352D02*
X129873183Y30662352D01*
X129873183Y30662352D02*
X129996993Y30600447D01*
X129996993Y30600447D02*
X130058898Y30538542D01*
X130058898Y30538542D02*
X130120802Y30414733D01*
X130120802Y30414733D02*
X130120802Y30167114D01*
X130120802Y30167114D02*
X130058898Y30043304D01*
X130058898Y30043304D02*
X129996993Y29981400D01*
X129996993Y29981400D02*
X129873183Y29919495D01*
X129873183Y29919495D02*
X129625564Y29919495D01*
X129625564Y29919495D02*
X129501755Y29981400D01*
X129501755Y29981400D02*
X129439850Y30043304D01*
X129439850Y30043304D02*
X129377945Y30167114D01*
X129377945Y30167114D02*
X129377945Y30414733D01*
X129377945Y30414733D02*
X129439850Y30538542D01*
X129439850Y30538542D02*
X129501755Y30600447D01*
X129501755Y30600447D02*
X129625564Y30662352D01*
X127830327Y29919495D02*
X127830327Y31219495D01*
X127830327Y31219495D02*
X127335089Y31219495D01*
X127335089Y31219495D02*
X127211279Y31157590D01*
X127211279Y31157590D02*
X127149374Y31095685D01*
X127149374Y31095685D02*
X127087470Y30971876D01*
X127087470Y30971876D02*
X127087470Y30786161D01*
X127087470Y30786161D02*
X127149374Y30662352D01*
X127149374Y30662352D02*
X127211279Y30600447D01*
X127211279Y30600447D02*
X127335089Y30538542D01*
X127335089Y30538542D02*
X127830327Y30538542D01*
X126282708Y31219495D02*
X126035089Y31219495D01*
X126035089Y31219495D02*
X125911279Y31157590D01*
X125911279Y31157590D02*
X125787470Y31033780D01*
X125787470Y31033780D02*
X125725565Y30786161D01*
X125725565Y30786161D02*
X125725565Y30352828D01*
X125725565Y30352828D02*
X125787470Y30105209D01*
X125787470Y30105209D02*
X125911279Y29981400D01*
X125911279Y29981400D02*
X126035089Y29919495D01*
X126035089Y29919495D02*
X126282708Y29919495D01*
X126282708Y29919495D02*
X126406517Y29981400D01*
X126406517Y29981400D02*
X126530327Y30105209D01*
X126530327Y30105209D02*
X126592231Y30352828D01*
X126592231Y30352828D02*
X126592231Y30786161D01*
X126592231Y30786161D02*
X126530327Y31033780D01*
X126530327Y31033780D02*
X126406517Y31157590D01*
X126406517Y31157590D02*
X126282708Y31219495D01*
X125292231Y31219495D02*
X124982707Y29919495D01*
X124982707Y29919495D02*
X124735088Y30848066D01*
X124735088Y30848066D02*
X124487469Y29919495D01*
X124487469Y29919495D02*
X124177946Y31219495D01*
X123682708Y30600447D02*
X123249374Y30600447D01*
X123063660Y29919495D02*
X123682708Y29919495D01*
X123682708Y29919495D02*
X123682708Y31219495D01*
X123682708Y31219495D02*
X123063660Y31219495D01*
X121763661Y29919495D02*
X122196994Y30538542D01*
X122506518Y29919495D02*
X122506518Y31219495D01*
X122506518Y31219495D02*
X122011280Y31219495D01*
X122011280Y31219495D02*
X121887470Y31157590D01*
X121887470Y31157590D02*
X121825565Y31095685D01*
X121825565Y31095685D02*
X121763661Y30971876D01*
X121763661Y30971876D02*
X121763661Y30786161D01*
X121763661Y30786161D02*
X121825565Y30662352D01*
X121825565Y30662352D02*
X121887470Y30600447D01*
X121887470Y30600447D02*
X122011280Y30538542D01*
X122011280Y30538542D02*
X122506518Y30538542D01*
D12*
X23541904Y34558919D02*
X23541904Y35658919D01*
X23541904Y35658919D02*
X23279999Y35658919D01*
X23279999Y35658919D02*
X23122856Y35606538D01*
X23122856Y35606538D02*
X23018094Y35501776D01*
X23018094Y35501776D02*
X22965713Y35397014D01*
X22965713Y35397014D02*
X22913332Y35187490D01*
X22913332Y35187490D02*
X22913332Y35030347D01*
X22913332Y35030347D02*
X22965713Y34820823D01*
X22965713Y34820823D02*
X23018094Y34716061D01*
X23018094Y34716061D02*
X23122856Y34611300D01*
X23122856Y34611300D02*
X23279999Y34558919D01*
X23279999Y34558919D02*
X23541904Y34558919D01*
X21970475Y35658919D02*
X22179999Y35658919D01*
X22179999Y35658919D02*
X22284761Y35606538D01*
X22284761Y35606538D02*
X22337142Y35554157D01*
X22337142Y35554157D02*
X22441904Y35397014D01*
X22441904Y35397014D02*
X22494285Y35187490D01*
X22494285Y35187490D02*
X22494285Y34768442D01*
X22494285Y34768442D02*
X22441904Y34663680D01*
X22441904Y34663680D02*
X22389523Y34611300D01*
X22389523Y34611300D02*
X22284761Y34558919D01*
X22284761Y34558919D02*
X22075237Y34558919D01*
X22075237Y34558919D02*
X21970475Y34611300D01*
X21970475Y34611300D02*
X21918094Y34663680D01*
X21918094Y34663680D02*
X21865713Y34768442D01*
X21865713Y34768442D02*
X21865713Y35030347D01*
X21865713Y35030347D02*
X21918094Y35135109D01*
X21918094Y35135109D02*
X21970475Y35187490D01*
X21970475Y35187490D02*
X22075237Y35239871D01*
X22075237Y35239871D02*
X22284761Y35239871D01*
X22284761Y35239871D02*
X22389523Y35187490D01*
X22389523Y35187490D02*
X22441904Y35135109D01*
X22441904Y35135109D02*
X22494285Y35030347D01*
D11*
X26744612Y31421495D02*
X26001755Y31421495D01*
X26373183Y30121495D02*
X26373183Y31421495D01*
X25692231Y31421495D02*
X24825565Y30121495D01*
X24825565Y31421495D02*
X25692231Y30121495D01*
X22596994Y30121495D02*
X23030327Y30740542D01*
X23339851Y30121495D02*
X23339851Y31421495D01*
X23339851Y31421495D02*
X22844613Y31421495D01*
X22844613Y31421495D02*
X22720803Y31359590D01*
X22720803Y31359590D02*
X22658898Y31297685D01*
X22658898Y31297685D02*
X22596994Y31173876D01*
X22596994Y31173876D02*
X22596994Y30988161D01*
X22596994Y30988161D02*
X22658898Y30864352D01*
X22658898Y30864352D02*
X22720803Y30802447D01*
X22720803Y30802447D02*
X22844613Y30740542D01*
X22844613Y30740542D02*
X23339851Y30740542D01*
X22163660Y31421495D02*
X21296994Y30121495D01*
X21296994Y31421495D02*
X22163660Y30121495D01*
D12*
X125541904Y56558919D02*
X125541904Y57658919D01*
X125541904Y57658919D02*
X125279999Y57658919D01*
X125279999Y57658919D02*
X125122856Y57606538D01*
X125122856Y57606538D02*
X125018094Y57501776D01*
X125018094Y57501776D02*
X124965713Y57397014D01*
X124965713Y57397014D02*
X124913332Y57187490D01*
X124913332Y57187490D02*
X124913332Y57030347D01*
X124913332Y57030347D02*
X124965713Y56820823D01*
X124965713Y56820823D02*
X125018094Y56716061D01*
X125018094Y56716061D02*
X125122856Y56611300D01*
X125122856Y56611300D02*
X125279999Y56558919D01*
X125279999Y56558919D02*
X125541904Y56558919D01*
X123865713Y56558919D02*
X124494285Y56558919D01*
X124179999Y56558919D02*
X124179999Y57658919D01*
X124179999Y57658919D02*
X124284761Y57501776D01*
X124284761Y57501776D02*
X124389523Y57397014D01*
X124389523Y57397014D02*
X124494285Y57344633D01*
D11*
X129308898Y51669495D02*
X129308898Y52969495D01*
X129308898Y52969495D02*
X128566041Y51669495D01*
X128566041Y51669495D02*
X128566041Y52969495D01*
X127699374Y52969495D02*
X127451755Y52969495D01*
X127451755Y52969495D02*
X127327945Y52907590D01*
X127327945Y52907590D02*
X127204136Y52783780D01*
X127204136Y52783780D02*
X127142231Y52536161D01*
X127142231Y52536161D02*
X127142231Y52102828D01*
X127142231Y52102828D02*
X127204136Y51855209D01*
X127204136Y51855209D02*
X127327945Y51731400D01*
X127327945Y51731400D02*
X127451755Y51669495D01*
X127451755Y51669495D02*
X127699374Y51669495D01*
X127699374Y51669495D02*
X127823183Y51731400D01*
X127823183Y51731400D02*
X127946993Y51855209D01*
X127946993Y51855209D02*
X128008897Y52102828D01*
X128008897Y52102828D02*
X128008897Y52536161D01*
X128008897Y52536161D02*
X127946993Y52783780D01*
X127946993Y52783780D02*
X127823183Y52907590D01*
X127823183Y52907590D02*
X127699374Y52969495D01*
X125842231Y51669495D02*
X126275564Y52288542D01*
X126585088Y51669495D02*
X126585088Y52969495D01*
X126585088Y52969495D02*
X126089850Y52969495D01*
X126089850Y52969495D02*
X125966040Y52907590D01*
X125966040Y52907590D02*
X125904135Y52845685D01*
X125904135Y52845685D02*
X125842231Y52721876D01*
X125842231Y52721876D02*
X125842231Y52536161D01*
X125842231Y52536161D02*
X125904135Y52412352D01*
X125904135Y52412352D02*
X125966040Y52350447D01*
X125966040Y52350447D02*
X126089850Y52288542D01*
X126089850Y52288542D02*
X126585088Y52288542D01*
X125285088Y51669495D02*
X125285088Y52969495D01*
X125285088Y52969495D02*
X124851754Y52040923D01*
X124851754Y52040923D02*
X124418421Y52969495D01*
X124418421Y52969495D02*
X124418421Y51669495D01*
X123861278Y52040923D02*
X123242231Y52040923D01*
X123985088Y51669495D02*
X123551755Y52969495D01*
X123551755Y52969495D02*
X123118421Y51669495D01*
X122066040Y51669495D02*
X122685088Y51669495D01*
X122685088Y51669495D02*
X122685088Y52969495D01*
D12*
X23541904Y56558919D02*
X23541904Y57658919D01*
X23541904Y57658919D02*
X23279999Y57658919D01*
X23279999Y57658919D02*
X23122856Y57606538D01*
X23122856Y57606538D02*
X23018094Y57501776D01*
X23018094Y57501776D02*
X22965713Y57397014D01*
X22965713Y57397014D02*
X22913332Y57187490D01*
X22913332Y57187490D02*
X22913332Y57030347D01*
X22913332Y57030347D02*
X22965713Y56820823D01*
X22965713Y56820823D02*
X23018094Y56716061D01*
X23018094Y56716061D02*
X23122856Y56611300D01*
X23122856Y56611300D02*
X23279999Y56558919D01*
X23279999Y56558919D02*
X23541904Y56558919D01*
X21970475Y57292252D02*
X21970475Y56558919D01*
X22232380Y57711300D02*
X22494285Y56925585D01*
X22494285Y56925585D02*
X21813332Y56925585D01*
D11*
X26566041Y51919495D02*
X26999374Y52538542D01*
X27308898Y51919495D02*
X27308898Y53219495D01*
X27308898Y53219495D02*
X26813660Y53219495D01*
X26813660Y53219495D02*
X26689850Y53157590D01*
X26689850Y53157590D02*
X26627945Y53095685D01*
X26627945Y53095685D02*
X26566041Y52971876D01*
X26566041Y52971876D02*
X26566041Y52786161D01*
X26566041Y52786161D02*
X26627945Y52662352D01*
X26627945Y52662352D02*
X26689850Y52600447D01*
X26689850Y52600447D02*
X26813660Y52538542D01*
X26813660Y52538542D02*
X27308898Y52538542D01*
X26008898Y52600447D02*
X25575564Y52600447D01*
X25389850Y51919495D02*
X26008898Y51919495D01*
X26008898Y51919495D02*
X26008898Y53219495D01*
X26008898Y53219495D02*
X25389850Y53219495D01*
X24832708Y51919495D02*
X24832708Y53219495D01*
X24832708Y53219495D02*
X24399374Y52290923D01*
X24399374Y52290923D02*
X23966041Y53219495D01*
X23966041Y53219495D02*
X23966041Y51919495D01*
X23099375Y53219495D02*
X22851756Y53219495D01*
X22851756Y53219495D02*
X22727946Y53157590D01*
X22727946Y53157590D02*
X22604137Y53033780D01*
X22604137Y53033780D02*
X22542232Y52786161D01*
X22542232Y52786161D02*
X22542232Y52352828D01*
X22542232Y52352828D02*
X22604137Y52105209D01*
X22604137Y52105209D02*
X22727946Y51981400D01*
X22727946Y51981400D02*
X22851756Y51919495D01*
X22851756Y51919495D02*
X23099375Y51919495D01*
X23099375Y51919495D02*
X23223184Y51981400D01*
X23223184Y51981400D02*
X23346994Y52105209D01*
X23346994Y52105209D02*
X23408898Y52352828D01*
X23408898Y52352828D02*
X23408898Y52786161D01*
X23408898Y52786161D02*
X23346994Y53033780D01*
X23346994Y53033780D02*
X23223184Y53157590D01*
X23223184Y53157590D02*
X23099375Y53219495D01*
X22170803Y53219495D02*
X21427946Y53219495D01*
X21799374Y51919495D02*
X21799374Y53219495D01*
X20994613Y52600447D02*
X20561279Y52600447D01*
X20375565Y51919495D02*
X20994613Y51919495D01*
X20994613Y51919495D02*
X20994613Y53219495D01*
X20994613Y53219495D02*
X20375565Y53219495D01*
D12*
X116861904Y7598919D02*
X116233332Y7598919D01*
X116547618Y6498919D02*
X116547618Y7598919D01*
X115919047Y6551300D02*
X115761904Y6498919D01*
X115761904Y6498919D02*
X115499999Y6498919D01*
X115499999Y6498919D02*
X115395237Y6551300D01*
X115395237Y6551300D02*
X115342856Y6603680D01*
X115342856Y6603680D02*
X115290475Y6708442D01*
X115290475Y6708442D02*
X115290475Y6813204D01*
X115290475Y6813204D02*
X115342856Y6917966D01*
X115342856Y6917966D02*
X115395237Y6970347D01*
X115395237Y6970347D02*
X115499999Y7022728D01*
X115499999Y7022728D02*
X115709523Y7075109D01*
X115709523Y7075109D02*
X115814285Y7127490D01*
X115814285Y7127490D02*
X115866666Y7179871D01*
X115866666Y7179871D02*
X115919047Y7284633D01*
X115919047Y7284633D02*
X115919047Y7389395D01*
X115919047Y7389395D02*
X115866666Y7494157D01*
X115866666Y7494157D02*
X115814285Y7546538D01*
X115814285Y7546538D02*
X115709523Y7598919D01*
X115709523Y7598919D02*
X115447618Y7598919D01*
X115447618Y7598919D02*
X115290475Y7546538D01*
X114242856Y6498919D02*
X114871428Y6498919D01*
X114557142Y6498919D02*
X114557142Y7598919D01*
X114557142Y7598919D02*
X114661904Y7441776D01*
X114661904Y7441776D02*
X114766666Y7337014D01*
X114766666Y7337014D02*
X114871428Y7284633D01*
X98861904Y7598919D02*
X98233332Y7598919D01*
X98547618Y6498919D02*
X98547618Y7598919D01*
X97919047Y6551300D02*
X97761904Y6498919D01*
X97761904Y6498919D02*
X97499999Y6498919D01*
X97499999Y6498919D02*
X97395237Y6551300D01*
X97395237Y6551300D02*
X97342856Y6603680D01*
X97342856Y6603680D02*
X97290475Y6708442D01*
X97290475Y6708442D02*
X97290475Y6813204D01*
X97290475Y6813204D02*
X97342856Y6917966D01*
X97342856Y6917966D02*
X97395237Y6970347D01*
X97395237Y6970347D02*
X97499999Y7022728D01*
X97499999Y7022728D02*
X97709523Y7075109D01*
X97709523Y7075109D02*
X97814285Y7127490D01*
X97814285Y7127490D02*
X97866666Y7179871D01*
X97866666Y7179871D02*
X97919047Y7284633D01*
X97919047Y7284633D02*
X97919047Y7389395D01*
X97919047Y7389395D02*
X97866666Y7494157D01*
X97866666Y7494157D02*
X97814285Y7546538D01*
X97814285Y7546538D02*
X97709523Y7598919D01*
X97709523Y7598919D02*
X97447618Y7598919D01*
X97447618Y7598919D02*
X97290475Y7546538D01*
X96871428Y7494157D02*
X96819047Y7546538D01*
X96819047Y7546538D02*
X96714285Y7598919D01*
X96714285Y7598919D02*
X96452380Y7598919D01*
X96452380Y7598919D02*
X96347618Y7546538D01*
X96347618Y7546538D02*
X96295237Y7494157D01*
X96295237Y7494157D02*
X96242856Y7389395D01*
X96242856Y7389395D02*
X96242856Y7284633D01*
X96242856Y7284633D02*
X96295237Y7127490D01*
X96295237Y7127490D02*
X96923809Y6498919D01*
X96923809Y6498919D02*
X96242856Y6498919D01*
X44861904Y7598919D02*
X44233332Y7598919D01*
X44547618Y6498919D02*
X44547618Y7598919D01*
X43919047Y6551300D02*
X43761904Y6498919D01*
X43761904Y6498919D02*
X43499999Y6498919D01*
X43499999Y6498919D02*
X43395237Y6551300D01*
X43395237Y6551300D02*
X43342856Y6603680D01*
X43342856Y6603680D02*
X43290475Y6708442D01*
X43290475Y6708442D02*
X43290475Y6813204D01*
X43290475Y6813204D02*
X43342856Y6917966D01*
X43342856Y6917966D02*
X43395237Y6970347D01*
X43395237Y6970347D02*
X43499999Y7022728D01*
X43499999Y7022728D02*
X43709523Y7075109D01*
X43709523Y7075109D02*
X43814285Y7127490D01*
X43814285Y7127490D02*
X43866666Y7179871D01*
X43866666Y7179871D02*
X43919047Y7284633D01*
X43919047Y7284633D02*
X43919047Y7389395D01*
X43919047Y7389395D02*
X43866666Y7494157D01*
X43866666Y7494157D02*
X43814285Y7546538D01*
X43814285Y7546538D02*
X43709523Y7598919D01*
X43709523Y7598919D02*
X43447618Y7598919D01*
X43447618Y7598919D02*
X43290475Y7546538D01*
X42295237Y7598919D02*
X42819047Y7598919D01*
X42819047Y7598919D02*
X42871428Y7075109D01*
X42871428Y7075109D02*
X42819047Y7127490D01*
X42819047Y7127490D02*
X42714285Y7179871D01*
X42714285Y7179871D02*
X42452380Y7179871D01*
X42452380Y7179871D02*
X42347618Y7127490D01*
X42347618Y7127490D02*
X42295237Y7075109D01*
X42295237Y7075109D02*
X42242856Y6970347D01*
X42242856Y6970347D02*
X42242856Y6708442D01*
X42242856Y6708442D02*
X42295237Y6603680D01*
X42295237Y6603680D02*
X42347618Y6551300D01*
X42347618Y6551300D02*
X42452380Y6498919D01*
X42452380Y6498919D02*
X42714285Y6498919D01*
X42714285Y6498919D02*
X42819047Y6551300D01*
X42819047Y6551300D02*
X42871428Y6603680D01*
X80861904Y7598919D02*
X80233332Y7598919D01*
X80547618Y6498919D02*
X80547618Y7598919D01*
X79919047Y6551300D02*
X79761904Y6498919D01*
X79761904Y6498919D02*
X79499999Y6498919D01*
X79499999Y6498919D02*
X79395237Y6551300D01*
X79395237Y6551300D02*
X79342856Y6603680D01*
X79342856Y6603680D02*
X79290475Y6708442D01*
X79290475Y6708442D02*
X79290475Y6813204D01*
X79290475Y6813204D02*
X79342856Y6917966D01*
X79342856Y6917966D02*
X79395237Y6970347D01*
X79395237Y6970347D02*
X79499999Y7022728D01*
X79499999Y7022728D02*
X79709523Y7075109D01*
X79709523Y7075109D02*
X79814285Y7127490D01*
X79814285Y7127490D02*
X79866666Y7179871D01*
X79866666Y7179871D02*
X79919047Y7284633D01*
X79919047Y7284633D02*
X79919047Y7389395D01*
X79919047Y7389395D02*
X79866666Y7494157D01*
X79866666Y7494157D02*
X79814285Y7546538D01*
X79814285Y7546538D02*
X79709523Y7598919D01*
X79709523Y7598919D02*
X79447618Y7598919D01*
X79447618Y7598919D02*
X79290475Y7546538D01*
X78923809Y7598919D02*
X78242856Y7598919D01*
X78242856Y7598919D02*
X78609523Y7179871D01*
X78609523Y7179871D02*
X78452380Y7179871D01*
X78452380Y7179871D02*
X78347618Y7127490D01*
X78347618Y7127490D02*
X78295237Y7075109D01*
X78295237Y7075109D02*
X78242856Y6970347D01*
X78242856Y6970347D02*
X78242856Y6708442D01*
X78242856Y6708442D02*
X78295237Y6603680D01*
X78295237Y6603680D02*
X78347618Y6551300D01*
X78347618Y6551300D02*
X78452380Y6498919D01*
X78452380Y6498919D02*
X78766666Y6498919D01*
X78766666Y6498919D02*
X78871428Y6551300D01*
X78871428Y6551300D02*
X78923809Y6603680D01*
%TO.C,D5*%
X21440000Y45060000D02*
X21440000Y42940000D01*
X21440000Y42940000D02*
X22523000Y42940000D01*
X22523000Y45060000D02*
X21440000Y45060000D01*
X22937000Y42940000D02*
X24190000Y42940000D01*
X24190000Y45060000D02*
X22937000Y45060000D01*
X26350000Y42940000D02*
X26560000Y42940000D01*
X26440000Y45060000D02*
X26440000Y42940000D01*
X26560000Y45060000D02*
X26350000Y45060000D01*
X26560000Y42940000D02*
X26560000Y45060000D01*
%TO.C,D2*%
X123440000Y45060000D02*
X123440000Y42940000D01*
X123440000Y42940000D02*
X124523000Y42940000D01*
X124523000Y45060000D02*
X123440000Y45060000D01*
X124937000Y42940000D02*
X126190000Y42940000D01*
X126190000Y45060000D02*
X124937000Y45060000D01*
X128350000Y42940000D02*
X128560000Y42940000D01*
X128440000Y45060000D02*
X128440000Y42940000D01*
X128560000Y45060000D02*
X128350000Y45060000D01*
X128560000Y42940000D02*
X128560000Y45060000D01*
%TO.C,TS4*%
X50890000Y18000000D02*
X50890000Y20110000D01*
X50890000Y13000000D02*
X50890000Y15000000D01*
X50890000Y7890000D02*
X50890000Y10000000D01*
X50890000Y7890000D02*
X63110000Y7890000D01*
X63110000Y20110000D02*
X50890000Y20110000D01*
X63110000Y18000000D02*
X63110000Y20110000D01*
X63110000Y13000000D02*
X63110000Y15000000D01*
X63110000Y7890000D02*
X63110000Y10000000D01*
D10*
X60550000Y14000000D02*
G75*
G02*
X53450000Y14000000I-3550000J0D01*
G01*
X53450000Y14000000D02*
G75*
G02*
X60550000Y14000000I3550000J0D01*
G01*
%TO.C,LCD1*%
D12*
X34860000Y62140000D02*
X67500000Y62140000D01*
X34860000Y25860000D02*
X34860000Y62140000D01*
D10*
X39000000Y56500000D02*
X39000000Y31500000D01*
X39000000Y31500000D02*
X112000000Y31500000D01*
X42800000Y51000000D02*
X42800000Y37000000D01*
X43299340Y36500000D02*
X106800000Y36500000D01*
X106800000Y51500000D02*
X43300000Y51500000D01*
X107299720Y37000680D02*
X107299720Y51000000D01*
X108500000Y60500000D02*
X105500000Y60500000D01*
X112000000Y56500000D02*
X39000000Y56500000D01*
X112000000Y31500000D02*
X112000000Y56500000D01*
D12*
X115130000Y62140000D02*
X108000000Y62140000D01*
X115140000Y62140000D02*
X115140000Y25860000D01*
X115140000Y25860000D02*
X34860000Y25860000D01*
D10*
X42800000Y51000000D02*
G75*
G02*
X43300000Y51500000I500000J0D01*
G01*
X43299340Y36500300D02*
G75*
G02*
X42798900Y37000680I60J500500D01*
G01*
X106799340Y51501540D02*
G75*
G02*
X107299720Y51001160I0J-500380D01*
G01*
X107299720Y37000680D02*
G75*
G02*
X106799340Y36500300I-500380J0D01*
G01*
%TO.C,D3*%
D12*
X123440000Y34060000D02*
X123440000Y31940000D01*
X123440000Y31940000D02*
X124523000Y31940000D01*
X124523000Y34060000D02*
X123440000Y34060000D01*
X124937000Y31940000D02*
X126190000Y31940000D01*
X126190000Y34060000D02*
X124937000Y34060000D01*
X128350000Y31940000D02*
X128560000Y31940000D01*
X128440000Y34060000D02*
X128440000Y31940000D01*
X128560000Y34060000D02*
X128350000Y34060000D01*
X128560000Y31940000D02*
X128560000Y34060000D01*
%TO.C,D6*%
X21440000Y34060000D02*
X21440000Y31940000D01*
X21440000Y31940000D02*
X22523000Y31940000D01*
X22523000Y34060000D02*
X21440000Y34060000D01*
X22937000Y31940000D02*
X24190000Y31940000D01*
X24190000Y34060000D02*
X22937000Y34060000D01*
X26350000Y31940000D02*
X26560000Y31940000D01*
X26440000Y34060000D02*
X26440000Y31940000D01*
X26560000Y34060000D02*
X26350000Y34060000D01*
X26560000Y31940000D02*
X26560000Y34060000D01*
%TO.C,D1*%
X123440000Y56060000D02*
X123440000Y53940000D01*
X123440000Y53940000D02*
X124523000Y53940000D01*
X124523000Y56060000D02*
X123440000Y56060000D01*
X124937000Y53940000D02*
X126190000Y53940000D01*
X126190000Y56060000D02*
X124937000Y56060000D01*
X128350000Y53940000D02*
X128560000Y53940000D01*
X128440000Y56060000D02*
X128440000Y53940000D01*
X128560000Y56060000D02*
X128350000Y56060000D01*
X128560000Y53940000D02*
X128560000Y56060000D01*
%TO.C,D4*%
X21440000Y56060000D02*
X21440000Y53940000D01*
X21440000Y53940000D02*
X22523000Y53940000D01*
X22523000Y56060000D02*
X21440000Y56060000D01*
X22937000Y53940000D02*
X24190000Y53940000D01*
X24190000Y56060000D02*
X22937000Y56060000D01*
X26350000Y53940000D02*
X26560000Y53940000D01*
X26440000Y56060000D02*
X26440000Y53940000D01*
X26560000Y56060000D02*
X26350000Y56060000D01*
X26560000Y53940000D02*
X26560000Y56060000D01*
%TO.C,TS1*%
X104890000Y18000000D02*
X104890000Y20110000D01*
X104890000Y13000000D02*
X104890000Y15000000D01*
X104890000Y7890000D02*
X104890000Y10000000D01*
X104890000Y7890000D02*
X117110000Y7890000D01*
X117110000Y20110000D02*
X104890000Y20110000D01*
X117110000Y18000000D02*
X117110000Y20110000D01*
X117110000Y13000000D02*
X117110000Y15000000D01*
X117110000Y7890000D02*
X117110000Y10000000D01*
D10*
X114550000Y14000000D02*
G75*
G02*
X107450000Y14000000I-3550000J0D01*
G01*
X107450000Y14000000D02*
G75*
G02*
X114550000Y14000000I3550000J0D01*
G01*
%TO.C,TS2*%
D12*
X86890000Y18000000D02*
X86890000Y20110000D01*
X86890000Y13000000D02*
X86890000Y15000000D01*
X86890000Y7890000D02*
X86890000Y10000000D01*
X86890000Y7890000D02*
X99110000Y7890000D01*
X99110000Y20110000D02*
X86890000Y20110000D01*
X99110000Y18000000D02*
X99110000Y20110000D01*
X99110000Y13000000D02*
X99110000Y15000000D01*
X99110000Y7890000D02*
X99110000Y10000000D01*
D10*
X96550000Y14000000D02*
G75*
G02*
X89450000Y14000000I-3550000J0D01*
G01*
X89450000Y14000000D02*
G75*
G02*
X96550000Y14000000I3550000J0D01*
G01*
%TO.C,TS5*%
D12*
X32890000Y18000000D02*
X32890000Y20110000D01*
X32890000Y13000000D02*
X32890000Y15000000D01*
X32890000Y7890000D02*
X32890000Y10000000D01*
X32890000Y7890000D02*
X45110000Y7890000D01*
X45110000Y20110000D02*
X32890000Y20110000D01*
X45110000Y18000000D02*
X45110000Y20110000D01*
X45110000Y13000000D02*
X45110000Y15000000D01*
X45110000Y7890000D02*
X45110000Y10000000D01*
D10*
X42550000Y14000000D02*
G75*
G02*
X35450000Y14000000I-3550000J0D01*
G01*
X35450000Y14000000D02*
G75*
G02*
X42550000Y14000000I3550000J0D01*
G01*
%TO.C,TS3*%
D12*
X68890000Y18000000D02*
X68890000Y20110000D01*
X68890000Y13000000D02*
X68890000Y15000000D01*
X68890000Y7890000D02*
X68890000Y10000000D01*
X68890000Y7890000D02*
X81110000Y7890000D01*
X81110000Y20110000D02*
X68890000Y20110000D01*
X81110000Y18000000D02*
X81110000Y20110000D01*
X81110000Y13000000D02*
X81110000Y15000000D01*
X81110000Y7890000D02*
X81110000Y10000000D01*
D10*
X78550000Y14000000D02*
G75*
G02*
X71450000Y14000000I-3550000J0D01*
G01*
X71450000Y14000000D02*
G75*
G02*
X78550000Y14000000I3550000J0D01*
G01*
%TD*%
M02*
