%TF.GenerationSoftware,KiCad,Pcbnew,10.0.1*%
%TF.CreationDate,2026-05-15T00:19:05+09:00*%
%TF.ProjectId,POWER_BD_SV5,504f5745-525f-4424-945f-5356352e6b69,rev?*%
%TF.SameCoordinates,Original*%
%TF.FileFunction,Copper,L2,Bot*%
%TF.FilePolarity,Positive*%
%FSLAX46Y46*%
G04 Gerber Fmt 4.6, Leading zero omitted, Abs format (unit mm)*
G04 Created by KiCad (PCBNEW 10.0.1) date 2026-05-15 00:19:05*
%MOMM*%
%LPD*%
G01*
G04 APERTURE LIST*
G04 Aperture macros list*
%AMRoundRect*
0 Rectangle with rounded corners*
0 $1 Rounding radius*
0 $2 $3 $4 $5 $6 $7 $8 $9 X,Y pos of 4 corners*
0 Add a 4 corners polygon primitive as box body*
4,1,4,$2,$3,$4,$5,$6,$7,$8,$9,$2,$3,0*
0 Add four circle primitives for the rounded corners*
1,1,$1+$1,$2,$3*
1,1,$1+$1,$4,$5*
1,1,$1+$1,$6,$7*
1,1,$1+$1,$8,$9*
0 Add four rect primitives between the rounded corners*
20,1,$1+$1,$2,$3,$4,$5,0*
20,1,$1+$1,$4,$5,$6,$7,0*
20,1,$1+$1,$6,$7,$8,$9,0*
20,1,$1+$1,$8,$9,$2,$3,0*%
G04 Aperture macros list end*
%TA.AperFunction,ComponentPad*%
%ADD10C,7.500000*%
%TD*%
%TA.AperFunction,ComponentPad*%
%ADD11C,2.000000*%
%TD*%
%TA.AperFunction,ComponentPad*%
%ADD12RoundRect,0.500000X0.900000X0.900000X-0.900000X0.900000X-0.900000X-0.900000X0.900000X-0.900000X0*%
%TD*%
%TA.AperFunction,ComponentPad*%
%ADD13C,2.800000*%
%TD*%
%TA.AperFunction,ComponentPad*%
%ADD14O,4.300000X3.400000*%
%TD*%
%TA.AperFunction,ComponentPad*%
%ADD15O,3.400000X4.300000*%
%TD*%
%TA.AperFunction,ComponentPad*%
%ADD16C,1.850000*%
%TD*%
%TA.AperFunction,ComponentPad*%
%ADD17C,2.200000*%
%TD*%
%TA.AperFunction,ComponentPad*%
%ADD18RoundRect,0.262500X-0.787500X0.787500X-0.787500X-0.787500X0.787500X-0.787500X0.787500X0.787500X0*%
%TD*%
%TA.AperFunction,ComponentPad*%
%ADD19C,2.100000*%
%TD*%
%TA.AperFunction,ComponentPad*%
%ADD20RoundRect,0.216000X-0.684000X0.684000X-0.684000X-0.684000X0.684000X-0.684000X0.684000X0.684000X0*%
%TD*%
%TA.AperFunction,ComponentPad*%
%ADD21C,1.800000*%
%TD*%
%TA.AperFunction,ComponentPad*%
%ADD22C,1.700000*%
%TD*%
%TA.AperFunction,ComponentPad*%
%ADD23RoundRect,0.366667X0.733333X-0.733333X0.733333X0.733333X-0.733333X0.733333X-0.733333X-0.733333X0*%
%TD*%
%TA.AperFunction,ComponentPad*%
%ADD24RoundRect,0.286416X-0.413584X-0.413584X0.413584X-0.413584X0.413584X0.413584X-0.413584X0.413584X0*%
%TD*%
%TA.AperFunction,ComponentPad*%
%ADD25C,1.400000*%
%TD*%
%TA.AperFunction,ComponentPad*%
%ADD26RoundRect,0.250000X-0.800000X0.800000X-0.800000X-0.800000X0.800000X-0.800000X0.800000X0.800000X0*%
%TD*%
%TA.AperFunction,ComponentPad*%
%ADD27RoundRect,0.291667X0.758333X-0.758333X0.758333X0.758333X-0.758333X0.758333X-0.758333X-0.758333X0*%
%TD*%
%TA.AperFunction,ComponentPad*%
%ADD28C,2.300000*%
%TD*%
%TA.AperFunction,ComponentPad*%
%ADD29RoundRect,0.260417X0.989583X0.989583X-0.989583X0.989583X-0.989583X-0.989583X0.989583X-0.989583X0*%
%TD*%
%TA.AperFunction,ComponentPad*%
%ADD30C,2.500000*%
%TD*%
%TA.AperFunction,ComponentPad*%
%ADD31C,2.400000*%
%TD*%
%TA.AperFunction,ComponentPad*%
%ADD32O,2.500000X6.000000*%
%TD*%
%TA.AperFunction,ComponentPad*%
%ADD33C,1.600000*%
%TD*%
%TA.AperFunction,ComponentPad*%
%ADD34RoundRect,0.229167X-0.870833X0.870833X-0.870833X-0.870833X0.870833X-0.870833X0.870833X0.870833X0*%
%TD*%
%TA.AperFunction,ComponentPad*%
%ADD35RoundRect,0.250000X-0.850000X-0.550000X0.850000X-0.550000X0.850000X0.550000X-0.850000X0.550000X0*%
%TD*%
%TA.AperFunction,ComponentPad*%
%ADD36O,2.200000X1.600000*%
%TD*%
%TA.AperFunction,ComponentPad*%
%ADD37RoundRect,0.250000X-0.550000X0.850000X-0.550000X-0.850000X0.550000X-0.850000X0.550000X0.850000X0*%
%TD*%
%TA.AperFunction,ComponentPad*%
%ADD38O,1.600000X2.200000*%
%TD*%
%TA.AperFunction,ViaPad*%
%ADD39C,0.800000*%
%TD*%
%TA.AperFunction,Conductor*%
%ADD40C,1.500000*%
%TD*%
%TA.AperFunction,Conductor*%
%ADD41C,1.000000*%
%TD*%
%TA.AperFunction,Conductor*%
%ADD42C,0.800000*%
%TD*%
%TA.AperFunction,Conductor*%
%ADD43C,1.200000*%
%TD*%
%TA.AperFunction,Conductor*%
%ADD44C,0.600000*%
%TD*%
G04 APERTURE END LIST*
D10*
%TO.P,H1,1,1_1*%
%TO.N,GNDPWR*%
X136000000Y75000000D03*
%TD*%
%TO.P,H4,1,1_1*%
%TO.N,GND*%
X16000000Y5000000D03*
%TD*%
%TO.P,H3,1,1_1*%
%TO.N,GND*%
X16000000Y75000000D03*
%TD*%
D11*
%TO.P,D7,1,A_1*%
%TO.N,Net-(T2-N1)*%
X33075000Y34100000D03*
%TO.P,D7,2,K_2*%
%TO.N,Net-(D7-K)*%
X35625000Y34100000D03*
%TO.P,D7,3,A_3*%
%TO.N,Net-(T2-N1)*%
X38175000Y34100000D03*
%TD*%
%TO.P,D6,1,A_1*%
%TO.N,Net-(T2-N2)*%
X18950000Y63700000D03*
%TO.P,D6,2,K_2*%
%TO.N,Net-(D6-K)*%
X21500000Y63700000D03*
%TO.P,D6,3,A_3*%
%TO.N,Net-(T2-N2)*%
X24050000Y63700000D03*
%TD*%
%TO.P,D5,1,A_1*%
%TO.N,Net-(T2-N3)*%
X24300000Y92450000D03*
%TO.P,D5,2,K_2*%
%TO.N,Net-(D5-K)*%
X24300000Y89900000D03*
%TO.P,D5,3,A_3*%
%TO.N,Net-(T2-N3)*%
X24300000Y87350000D03*
%TD*%
D12*
%TO.P,D1,1,+_1*%
%TO.N,Net-(D1-+)*%
X88650000Y74800000D03*
D13*
%TO.P,D1,2*%
%TO.N,Net-(D1-Pad2)*%
X81150000Y74800000D03*
%TO.P,D1,3*%
%TO.N,Net-(D1-Pad3)*%
X73650000Y74800000D03*
%TO.P,D1,4,-_4*%
%TO.N,Earth*%
X66150000Y74800000D03*
%TD*%
D14*
%TO.P,ACN1,1,Pin_1_1*%
%TO.N,/N01*%
X101000000Y89500000D03*
%TO.P,ACN1,2,Pin_2_2*%
X101000000Y94500000D03*
%TD*%
%TO.P,ACL1,1,Pin_1_1*%
%TO.N,/L01*%
X113000000Y89500000D03*
%TO.P,ACL1,2,Pin_2_2*%
X113000000Y94500000D03*
%TD*%
D15*
%TO.P,ACL2,1,Pin_1_1*%
%TO.N,/L01*%
X126500000Y93000000D03*
%TO.P,ACL2,2,Pin_2_2*%
X131500000Y93000000D03*
%TD*%
%TO.P,A2,1,Pin_1_1*%
%TO.N,Net-(A2-Pin_1)*%
X142500000Y64000000D03*
%TO.P,A2,2,Pin_2_2*%
X147500000Y64000000D03*
%TD*%
%TO.P,ACN2,1,Pin_1_1*%
%TO.N,Net-(A2-Pin_1)*%
X140500000Y93000000D03*
%TO.P,ACN2,2,Pin_2_2*%
X145500000Y93000000D03*
%TD*%
%TO.P,FG1,1,Pin_1_1*%
%TO.N,GNDPWR*%
X124300000Y71100000D03*
%TO.P,FG1,2,Pin_2_2*%
X129300000Y71100000D03*
%TD*%
%TO.P,G1,1,Pin_1_1*%
%TO.N,Net-(G1-Pin_1)*%
X142500000Y44000000D03*
%TO.P,G1,2,Pin_2_2*%
X147500000Y44000000D03*
%TD*%
%TO.P,A1,1,Pin_1_1*%
%TO.N,/N01*%
X142500000Y54000000D03*
%TO.P,A1,2,Pin_2_2*%
X147500000Y54000000D03*
%TD*%
D16*
%TO.P,C3,1,1_1*%
%TO.N,/N01*%
X102500000Y72500000D03*
%TO.P,C3,2,2_2*%
%TO.N,/L01*%
X117500000Y72500000D03*
%TD*%
D17*
%TO.P,C33,1,1_1*%
%TO.N,/L01*%
X117100000Y80700000D03*
%TO.P,C33,2,2_2*%
%TO.N,/N01*%
X101100000Y80700000D03*
%TD*%
D18*
%TO.P,C21,1*%
%TO.N,Net-(D6-K)*%
X17100000Y56700000D03*
D19*
%TO.P,C21,2*%
%TO.N,GND*%
X17100000Y51700000D03*
%TD*%
D20*
%TO.P,J2,1,1_1*%
%TO.N,+12V*%
X3500000Y32250000D03*
D21*
%TO.P,J2,2,2_2*%
%TO.N,GND*%
X3500000Y29750000D03*
%TO.P,J2,3,3_3*%
%TO.N,+5V*%
X3500000Y27250000D03*
%TO.P,J2,4,4_4*%
%TO.N,GND*%
X3500000Y24750000D03*
%TO.P,J2,5,5_5*%
%TO.N,unconnected-(J2-Pad5)*%
X3500000Y22250000D03*
%TO.P,J2,6,6_6*%
%TO.N,/PWM_PW*%
X3500000Y19750000D03*
%TD*%
D22*
%TO.P,C2,1*%
%TO.N,GNDPWR*%
X130285000Y77950000D03*
%TO.P,C2,2*%
%TO.N,Net-(C2-Pad2)*%
X122965000Y80050000D03*
%TD*%
D23*
%TO.P,T2,1,P0_1*%
%TO.N,Net-(D1-+)*%
X51150000Y68600000D03*
D17*
%TO.P,T2,2,P1_2*%
%TO.N,unconnected-(T2-P1-Pad2)*%
X51150000Y73600000D03*
%TO.P,T2,3,P2_3*%
%TO.N,Net-(D2-A)*%
X51150000Y78600000D03*
%TO.P,T2,4,NC1_4*%
%TO.N,unconnected-(T2-NC1-Pad4)*%
X51150000Y83600000D03*
%TO.P,T2,5,Vcc_5*%
%TO.N,Net-(D3-A)*%
X51150000Y88600000D03*
%TO.P,T2,6,Vcc_GND_6*%
%TO.N,Earth*%
X51150000Y93600000D03*
%TO.P,T2,7,N_GND1_7*%
%TO.N,GND*%
X33650000Y93600000D03*
%TO.P,T2,8,N1_8*%
%TO.N,Net-(T2-N1)*%
X33650000Y88600000D03*
%TO.P,T2,9,N2_9*%
%TO.N,Net-(T2-N2)*%
X33650000Y83600000D03*
%TO.P,T2,10,NC2_10*%
%TO.N,unconnected-(T2-NC2-Pad10)*%
X33650000Y78600000D03*
%TO.P,T2,11,N_GND2_11*%
%TO.N,GND*%
X33650000Y73600000D03*
%TO.P,T2,12,N3_12*%
%TO.N,Net-(T2-N3)*%
X33650000Y68600000D03*
%TD*%
D24*
%TO.P,RV2,1,1_1*%
%TO.N,+5V*%
X79930000Y4285000D03*
D25*
%TO.P,RV2,2,2_2*%
%TO.N,Net-(R27-Pad1)*%
X82470000Y6825000D03*
%TO.P,RV2,3,3_3*%
%TO.N,GND*%
X85010000Y4285000D03*
%TD*%
D17*
%TO.P,C32,1,1_1*%
%TO.N,/N01*%
X118000000Y62000000D03*
%TO.P,C32,2,2_2*%
%TO.N,Net-(A2-Pin_1)*%
X134000000Y62000000D03*
%TD*%
D18*
%TO.P,C24,1*%
%TO.N,+12V*%
X17100000Y44800000D03*
D19*
%TO.P,C24,2*%
%TO.N,GND*%
X17100000Y39800000D03*
%TD*%
D26*
%TO.P,C4,1*%
%TO.N,Net-(D1-+)*%
X83500000Y64750000D03*
D19*
%TO.P,C4,2*%
%TO.N,Earth*%
X83500000Y57250000D03*
%TD*%
D27*
%TO.P,LF1,1,1_1*%
%TO.N,/L01*%
X86900000Y81200000D03*
D19*
%TO.P,LF1,2,2_2*%
%TO.N,Net-(C2-Pad2)*%
X86900000Y94200000D03*
%TO.P,LF1,3,3_3*%
%TO.N,Net-(D1-Pad2)*%
X76900000Y94200000D03*
%TO.P,LF1,4,4_4*%
%TO.N,Net-(D1-Pad3)*%
X76900000Y81200000D03*
%TD*%
D28*
%TO.P,RV1,1,1_1*%
%TO.N,/N01*%
X108750000Y63510000D03*
%TO.P,RV1,2,2_2*%
%TO.N,/L01*%
X107250000Y55890000D03*
%TD*%
D22*
%TO.P,C1,1*%
%TO.N,/L01*%
X122955000Y84750000D03*
%TO.P,C1,2*%
%TO.N,GNDPWR*%
X130275000Y82650000D03*
%TD*%
D29*
%TO.P,T1,1,AA_1*%
%TO.N,/N01*%
X111200000Y49000000D03*
D30*
%TO.P,T1,2,AB_2*%
%TO.N,/L01*%
X101200000Y49000000D03*
D31*
%TO.P,T1,3,SA_3*%
%TO.N,Net-(T1-SA)*%
X101200000Y27000000D03*
D30*
%TO.P,T1,4,SB_4*%
%TO.N,/AC12V*%
X111200000Y27000000D03*
D32*
%TO.P,T1,5*%
%TO.N,unconnected-(T1-Pad5)*%
X91900000Y38000000D03*
%TO.P,T1,6*%
%TO.N,unconnected-(T1-Pad6)*%
X120500000Y38000000D03*
%TD*%
D28*
%TO.P,R5,1*%
%TO.N,Net-(D1-+)*%
X60100000Y75040000D03*
%TO.P,R5,2*%
%TO.N,Net-(D2-K)*%
X60100000Y95360000D03*
%TD*%
D33*
%TO.P,F1,1,1_1*%
%TO.N,/N01*%
X101140000Y59200000D03*
%TO.P,F1,2,2_2*%
%TO.N,Net-(C2-Pad2)*%
X96060000Y59200000D03*
%TD*%
D18*
%TO.P,C23,1*%
%TO.N,+24V*%
X6600000Y68000000D03*
D19*
%TO.P,C23,2*%
%TO.N,GND*%
X6600000Y63000000D03*
%TD*%
D34*
%TO.P,C20,1*%
%TO.N,Net-(D5-K)*%
X7800000Y92800000D03*
D17*
%TO.P,C20,2*%
%TO.N,GND*%
X7800000Y87800000D03*
%TD*%
D21*
%TO.P,R1,1*%
%TO.N,/L01*%
X95000000Y68700000D03*
%TO.P,R1,2*%
%TO.N,Net-(C2-Pad2)*%
X95000000Y83300000D03*
%TD*%
D31*
%TO.P,C31,1*%
%TO.N,Net-(C31-Pad1)*%
X128900000Y27600000D03*
%TO.P,C31,2*%
%TO.N,/N01*%
X128900000Y48800000D03*
%TO.P,C31,3*%
%TO.N,Net-(C31-Pad1)*%
X128900000Y33200000D03*
%TO.P,C31,4*%
%TO.N,/N01*%
X128900000Y43200000D03*
%TD*%
D18*
%TO.P,C25,1*%
%TO.N,+8V*%
X35800000Y11500000D03*
D19*
%TO.P,C25,2*%
%TO.N,GND*%
X35800000Y6500000D03*
%TD*%
D35*
%TO.P,U4,1,(PCINT5/RESET\u002A/ADC0/dW)_PB5_1*%
%TO.N,Net-(U4-(PCINT5{slash}RESET\u002A{slash}ADC0{slash}dW)_PB5)*%
X95990000Y16310000D03*
D36*
%TO.P,U4,2,(PCINT3/XTAL1/CLKI/OC1B\u002A/ADC3)_PB3_2*%
%TO.N,Net-(U4-(PCINT3{slash}XTAL1{slash}CLKI{slash}OC1B\u002A{slash}ADC3)_PB3)*%
X95990000Y13770000D03*
%TO.P,U4,3,(PCINT4/XTAL2/CLKO/OC1B/ADC2)_PB4_3*%
%TO.N,Net-(U4-(PCINT4{slash}XTAL2{slash}CLKO{slash}OC1B{slash}ADC2)_PB4)*%
X95990000Y11230000D03*
%TO.P,U4,4,GND_4*%
%TO.N,GND*%
X95990000Y8690000D03*
%TO.P,U4,5,PB0_(MOSI/DI/SDA/AIN0/OC0A/OC1A/AREF/PCINT0)_5*%
%TO.N,Net-(U4-PB0_(MOSI{slash}DI{slash}SDA{slash}AIN0{slash}OC0A{slash}OC1A{slash}AREF{slash}PCINT0))*%
X103610000Y8690000D03*
%TO.P,U4,6,PB1_(MISO/DO/AIN1/OC0B/OC1A\u002A/PCINT1)_6*%
%TO.N,Net-(U4-PB1_(MISO{slash}DO{slash}AIN1{slash}OC0B{slash}OC1A\u002A{slash}PCINT1))*%
X103610000Y11230000D03*
%TO.P,U4,7,PB2_(SCK/USCK/SCL/ADC1/T0/INT0/PCINT2)_7*%
%TO.N,/ZVC*%
X103610000Y13770000D03*
%TO.P,U4,8,VCC_8*%
%TO.N,+5V*%
X103610000Y16310000D03*
%TD*%
D20*
%TO.P,J3,1,1_1*%
%TO.N,+24V*%
X3500000Y45250000D03*
D21*
%TO.P,J3,2,2_2*%
%TO.N,GND*%
X3500000Y42750000D03*
%TD*%
D37*
%TO.P,U1,1,BA_1*%
%TO.N,Net-(U1-BA)*%
X55710000Y46310000D03*
D38*
%TO.P,U1,2,FB_2*%
%TO.N,Net-(U1-FB)*%
X53170000Y46310000D03*
%TO.P,U1,3,CS_3*%
%TO.N,Net-(U1-CS)*%
X50630000Y46310000D03*
%TO.P,U1,4,DRAIN_1_4*%
%TO.N,Net-(D2-A)*%
X48090000Y46310000D03*
%TO.P,U1,5,DRAIN_2_5*%
X48090000Y38690000D03*
%TO.P,U1,6,N.C_6*%
%TO.N,unconnected-(U1-N.C-Pad6)*%
X50630000Y38690000D03*
%TO.P,U1,7,VCC_7*%
%TO.N,Net-(U1-VCC)*%
X53170000Y38690000D03*
%TO.P,U1,8,GND_8*%
%TO.N,Earth*%
X55710000Y38690000D03*
%TD*%
D33*
%TO.P,R26,1*%
%TO.N,Net-(G1-Pin_1)*%
X137920000Y32000000D03*
%TO.P,R26,2*%
%TO.N,/N01*%
X148080000Y32000000D03*
%TD*%
D18*
%TO.P,C22,1*%
%TO.N,Net-(D7-K)*%
X35800000Y26000000D03*
D19*
%TO.P,C22,2*%
%TO.N,GND*%
X35800000Y21000000D03*
%TD*%
D22*
%TO.P,C14,1*%
%TO.N,Earth*%
X85750000Y38660000D03*
%TO.P,C14,2*%
%TO.N,GND*%
X83650000Y31340000D03*
%TD*%
D39*
%TO.N,Net-(U1-FB)*%
X74225000Y39700000D03*
%TO.N,GND*%
X26500000Y49500000D03*
X115500000Y15000000D03*
X11500000Y19500000D03*
X122700000Y11450000D03*
X51000000Y19000000D03*
X122600000Y17825000D03*
X33000000Y17000000D03*
X63000000Y7000000D03*
X51000000Y23500000D03*
X66000000Y7000000D03*
X72000000Y9500000D03*
X74000000Y9500000D03*
X102500000Y3500000D03*
X99800000Y12500000D03*
X51000000Y21500000D03*
X23500000Y6500000D03*
X23500000Y4000000D03*
X86000000Y10500000D03*
X71000000Y27500000D03*
X51000000Y27000000D03*
X27000000Y37500000D03*
X125000000Y9000000D03*
X106500000Y8500000D03*
X9500000Y48000000D03*
X24000000Y49500000D03*
X57500000Y12000000D03*
X84500000Y22000000D03*
X71000000Y19500000D03*
X54500000Y12000000D03*
X92500000Y8000000D03*
X87500000Y22000000D03*
X90500000Y22000000D03*
X99500000Y15000000D03*
X24000000Y37500000D03*
X115500000Y13000000D03*
X106500000Y10500000D03*
X112500000Y22000000D03*
X127000000Y19500000D03*
X123500000Y9000000D03*
X11500000Y16000000D03*
X131000000Y19500000D03*
X38000000Y17000000D03*
X12000000Y48000000D03*
X71000000Y21500000D03*
%TO.N,+8V*%
X21720000Y18055000D03*
%TO.N,+5V*%
X69820000Y15990000D03*
X68425000Y9050000D03*
%TO.N,Net-(U4-(PCINT3{slash}XTAL1{slash}CLKI{slash}OC1B\u002A{slash}ADC3)_PB3)*%
X71900000Y13000000D03*
%TO.N,/PWM_PW*%
X77640000Y10600000D03*
%TO.N,Net-(VR1-REF)*%
X57175000Y20050000D03*
X56600000Y25950000D03*
%TO.N,Net-(VR1-K)*%
X71470000Y24940000D03*
X59760000Y24950000D03*
%TO.N,Net-(U1-CS)*%
X49500000Y63900000D03*
%TO.N,Net-(D4-K)*%
X66290000Y50360000D03*
X66260000Y56000000D03*
%TO.N,Net-(D3-A)*%
X57300000Y57780000D03*
%TO.N,Net-(T2-N3)*%
X17500000Y90500000D03*
%TO.N,Net-(U4-(PCINT5{slash}RESET\u002A{slash}ADC0{slash}dW)_PB5)*%
X84320000Y16310000D03*
%TO.N,Net-(A2-Pin_1)*%
X143600000Y20700000D03*
%TO.N,Net-(G1-Pin_1)*%
X111000000Y16850000D03*
%TO.N,Net-(R24-Pad1)*%
X111000000Y6625000D03*
X116275000Y3450000D03*
%TD*%
%TO.N,Earth*%
D40*
X78400000Y62350000D02*
X83500000Y57250000D01*
X69370000Y71400000D02*
X73100000Y71400000D01*
X59700000Y81070000D02*
X69370000Y71400000D01*
X83450000Y57250000D02*
X83500000Y57250000D01*
X73100000Y71400000D02*
X78400000Y66100000D01*
X51150000Y93600000D02*
X55000000Y93600000D01*
X59700000Y88900000D02*
X59700000Y81070000D01*
X78400000Y66100000D02*
X78400000Y62350000D01*
X55000000Y93600000D02*
X59700000Y88900000D01*
X83200000Y57200000D02*
X83250000Y57250000D01*
%TO.N,Net-(U1-FB)*%
D41*
X59570000Y41980000D02*
X61850000Y39700000D01*
X61850000Y39700000D02*
X74225000Y39700000D01*
X53170000Y43320000D02*
X54510000Y41980000D01*
X54510000Y41980000D02*
X59570000Y41980000D01*
X53170000Y46310000D02*
X53170000Y43320000D01*
%TO.N,/L01*%
D40*
X113800000Y68800000D02*
X117500000Y72500000D01*
X111890000Y55890000D02*
X113800000Y57800000D01*
X119600000Y72500000D02*
X126000000Y78900000D01*
X126000000Y78900000D02*
X126000000Y83200000D01*
X107250000Y55890000D02*
X111890000Y55890000D01*
X113800000Y57800000D02*
X113800000Y68800000D01*
X126000000Y83200000D02*
X126500000Y83700000D01*
X126500000Y83700000D02*
X126500000Y93000000D01*
X117500000Y72500000D02*
X119600000Y72500000D01*
%TO.N,GND*%
D42*
X122700000Y17725000D02*
X122600000Y17825000D01*
X122700000Y11450000D02*
X122700000Y17725000D01*
%TO.N,Net-(D7-K)*%
D43*
X35625000Y26175000D02*
X35800000Y26000000D01*
X35625000Y34100000D02*
X35625000Y26175000D01*
%TO.N,+8V*%
X21800000Y17875000D02*
X28175000Y11500000D01*
X21800000Y17975000D02*
X21800000Y17875000D01*
X28175000Y11500000D02*
X35800000Y11500000D01*
X21720000Y18055000D02*
X21800000Y17975000D01*
%TO.N,+5V*%
D41*
X68425000Y9050000D02*
X68420000Y9055000D01*
X68420000Y14590000D02*
X69820000Y15990000D01*
X68420000Y9055000D02*
X68420000Y14590000D01*
%TO.N,Net-(U4-(PCINT3{slash}XTAL1{slash}CLKI{slash}OC1B\u002A{slash}ADC3)_PB3)*%
D42*
X71920000Y12980000D02*
X91310000Y12980000D01*
X92100000Y13770000D02*
X95990000Y13770000D01*
X91310000Y12980000D02*
X92100000Y13770000D01*
X71900000Y13000000D02*
X71920000Y12980000D01*
%TO.N,Net-(D1-Pad2)*%
D40*
X81210000Y89890000D02*
X81210000Y74800000D01*
X76900000Y94200000D02*
X81210000Y89890000D01*
%TO.N,Net-(D1-Pad3)*%
X73590000Y77890000D02*
X76900000Y81200000D01*
X73590000Y74800000D02*
X73590000Y77890000D01*
%TO.N,/PWM_PW*%
D42*
X77640000Y5260000D02*
X77640000Y10600000D01*
X3500000Y19700000D02*
X12700000Y10500000D01*
X23175000Y10500000D02*
X31200000Y2475000D01*
X31200000Y2475000D02*
X74855000Y2475000D01*
X3500000Y19750000D02*
X3500000Y19700000D01*
X12700000Y10500000D02*
X23175000Y10500000D01*
X74855000Y2475000D02*
X77640000Y5260000D01*
%TO.N,Net-(VR1-REF)*%
D44*
X57175000Y25375000D02*
X57175000Y20050000D01*
X56600000Y25950000D02*
X57175000Y25375000D01*
%TO.N,Net-(VR1-K)*%
D41*
X59780000Y24940000D02*
X71470000Y24940000D01*
X59770000Y24950000D02*
X59760000Y24950000D01*
X59780000Y24940000D02*
X59770000Y24950000D01*
%TO.N,GNDPWR*%
D40*
X132100000Y71100000D02*
X136000000Y75000000D01*
X124300000Y71100000D02*
X129300000Y71100000D01*
X129300000Y71100000D02*
X132100000Y71100000D01*
%TO.N,Net-(C2-Pad2)*%
X95000000Y83300000D02*
X91300000Y87000000D01*
D43*
X99200000Y76200000D02*
X95000000Y80400000D01*
D40*
X96060000Y61540000D02*
X92100000Y65500000D01*
X91300000Y91800000D02*
X88900000Y94200000D01*
X92100000Y65500000D02*
X92100000Y80400000D01*
D43*
X122965000Y80050000D02*
X119115000Y76200000D01*
D40*
X96060000Y59200000D02*
X96060000Y61540000D01*
X91300000Y87000000D02*
X91300000Y91800000D01*
X88900000Y94200000D02*
X86900000Y94200000D01*
X92100000Y80400000D02*
X95000000Y83300000D01*
D43*
X95000000Y80400000D02*
X95000000Y83300000D01*
X119115000Y76200000D02*
X99200000Y76200000D01*
%TO.N,Net-(U1-CS)*%
X47200000Y50200000D02*
X45400000Y52000000D01*
X50630000Y46310000D02*
X50630000Y48870000D01*
X49300000Y50200000D02*
X47200000Y50200000D01*
X47400000Y63900000D02*
X49500000Y63900000D01*
X45400000Y52000000D02*
X45400000Y61900000D01*
X50630000Y48870000D02*
X49300000Y50200000D01*
X45400000Y61900000D02*
X47400000Y63900000D01*
%TO.N,Net-(D4-K)*%
D41*
X66260000Y56000000D02*
X66260000Y50390000D01*
X66260000Y50390000D02*
X66290000Y50360000D01*
%TO.N,Net-(D2-A)*%
X48090000Y38690000D02*
X48000000Y38780000D01*
%TO.N,Net-(D3-A)*%
D43*
X55700000Y86500000D02*
X53600000Y88600000D01*
X53600000Y88600000D02*
X51150000Y88600000D01*
X57300000Y57780000D02*
X57300000Y68600000D01*
X55700000Y70200000D02*
X55700000Y86500000D01*
X57300000Y68600000D02*
X55700000Y70200000D01*
%TO.N,Net-(T2-N1)*%
X38175000Y34100000D02*
X38175000Y36405000D01*
X36600000Y87300000D02*
X36600000Y66000000D01*
X33650000Y88600000D02*
X35300000Y88600000D01*
X31900000Y61300000D02*
X31900000Y38090000D01*
X33075000Y36915000D02*
X37665000Y36915000D01*
X38175000Y36405000D02*
X37665000Y36915000D01*
X33075000Y36915000D02*
X33075000Y34100000D01*
X35300000Y88600000D02*
X36600000Y87300000D01*
X36600000Y66000000D02*
X31900000Y61300000D01*
X31900000Y38090000D02*
X33075000Y36915000D01*
%TO.N,Net-(T2-N3)*%
X23950000Y92100000D02*
X24300000Y92450000D01*
X21050000Y87350000D02*
X20700000Y87700000D01*
X29300000Y71400000D02*
X32100000Y68600000D01*
X32100000Y68600000D02*
X33650000Y68600000D01*
X24300000Y87350000D02*
X27650000Y87350000D01*
X27650000Y87350000D02*
X29300000Y85700000D01*
X17500000Y91700000D02*
X18250000Y92450000D01*
X24300000Y87350000D02*
X21050000Y87350000D01*
X20700000Y87700000D02*
X20700000Y92300000D01*
X20700000Y92300000D02*
X20850000Y92450000D01*
X17500000Y90500000D02*
X17500000Y91700000D01*
X18250000Y92450000D02*
X20850000Y92450000D01*
X29300000Y85700000D02*
X29300000Y71400000D01*
X20850000Y92450000D02*
X24300000Y92450000D01*
%TO.N,Net-(U4-(PCINT5{slash}RESET\u002A{slash}ADC0{slash}dW)_PB5)*%
D42*
X95990000Y16310000D02*
X84320000Y16310000D01*
%TO.N,Net-(A2-Pin_1)*%
D40*
X143600000Y34200000D02*
X134100000Y43700000D01*
X136000000Y64000000D02*
X134000000Y62000000D01*
X142500000Y64000000D02*
X136000000Y64000000D01*
X134100000Y43700000D02*
X134100000Y44200000D01*
X134100000Y44200000D02*
X134000000Y44300000D01*
X134000000Y44300000D02*
X134000000Y62000000D01*
X143600000Y20700000D02*
X143600000Y34200000D01*
%TO.N,Net-(G1-Pin_1)*%
D43*
X111000000Y17500000D02*
X123960000Y30460000D01*
D41*
X137920000Y31450000D02*
X137920000Y32000000D01*
D43*
X136930000Y30460000D02*
X137920000Y31450000D01*
X123960000Y30460000D02*
X136930000Y30460000D01*
X111000000Y16850000D02*
X111000000Y17500000D01*
%TO.N,Net-(R24-Pad1)*%
X113925000Y3450000D02*
X116275000Y3450000D01*
X111000000Y6625000D02*
X111000000Y6375000D01*
X111000000Y6375000D02*
X113925000Y3450000D01*
%TD*%
%TA.AperFunction,Conductor*%
%TO.N,Net-(A2-Pin_1)*%
G36*
X148311924Y97181378D02*
G01*
X148340712Y97159288D01*
X149458788Y96041212D01*
X149494764Y95978900D01*
X149499500Y95942924D01*
X149499500Y65867576D01*
X149480878Y65798076D01*
X149430000Y65747198D01*
X149360500Y65728576D01*
X149291000Y65747198D01*
X149250224Y65782958D01*
X149157599Y65903668D01*
X148953668Y66107599D01*
X148724880Y66283155D01*
X148475119Y66427354D01*
X148475118Y66427355D01*
X148208690Y66537713D01*
X147930114Y66612357D01*
X147750000Y66636069D01*
X147750000Y64837316D01*
X147585688Y64870000D01*
X147414312Y64870000D01*
X147250000Y64837316D01*
X147250000Y66636069D01*
X147249999Y66636069D01*
X147069886Y66612357D01*
X147069884Y66612357D01*
X146791309Y66537713D01*
X146524881Y66427355D01*
X146524880Y66427354D01*
X146275119Y66283155D01*
X146046331Y66107599D01*
X145842400Y65903668D01*
X145666844Y65674880D01*
X145522645Y65425119D01*
X145522644Y65425118D01*
X145412286Y65158690D01*
X145337642Y64880116D01*
X145337642Y64880113D01*
X145300000Y64594201D01*
X145300000Y64250000D01*
X146662683Y64250000D01*
X146630000Y64085688D01*
X146630000Y63914312D01*
X146662683Y63750000D01*
X145300000Y63750000D01*
X145300000Y63405798D01*
X145337642Y63119886D01*
X145337642Y63119883D01*
X145412286Y62841309D01*
X145522644Y62574881D01*
X145522645Y62574880D01*
X145666844Y62325119D01*
X145842400Y62096331D01*
X146046331Y61892400D01*
X146275119Y61716844D01*
X146524880Y61572645D01*
X146524881Y61572644D01*
X146791309Y61462286D01*
X147069883Y61387642D01*
X147250000Y61363928D01*
X147250000Y63162683D01*
X147414312Y63130000D01*
X147585688Y63130000D01*
X147750000Y63162683D01*
X147750000Y61363928D01*
X147930115Y61387642D01*
X147930116Y61387642D01*
X148208690Y61462286D01*
X148475118Y61572644D01*
X148475119Y61572645D01*
X148724880Y61716844D01*
X148953668Y61892400D01*
X149157599Y62096331D01*
X149250224Y62217041D01*
X149307308Y62260842D01*
X149378644Y62270234D01*
X149445118Y62242699D01*
X149488919Y62185615D01*
X149499500Y62132423D01*
X149499500Y61357076D01*
X149480878Y61287576D01*
X149458788Y61258788D01*
X148940712Y60740712D01*
X148878400Y60704736D01*
X148842424Y60700000D01*
X139857576Y60700000D01*
X139788076Y60718622D01*
X139759288Y60740712D01*
X139140712Y61359288D01*
X139104736Y61421600D01*
X139100000Y61457576D01*
X139100000Y64594201D01*
X140300000Y64594201D01*
X140300000Y64250000D01*
X141662683Y64250000D01*
X141630000Y64085688D01*
X141630000Y63914312D01*
X141662683Y63750000D01*
X140300000Y63750000D01*
X140300000Y63405798D01*
X140337642Y63119886D01*
X140337642Y63119883D01*
X140412286Y62841309D01*
X140522644Y62574881D01*
X140522645Y62574880D01*
X140666844Y62325119D01*
X140842400Y62096331D01*
X141046331Y61892400D01*
X141275119Y61716844D01*
X141524880Y61572645D01*
X141524881Y61572644D01*
X141791309Y61462286D01*
X142069883Y61387642D01*
X142250000Y61363928D01*
X142250000Y63162683D01*
X142414312Y63130000D01*
X142585688Y63130000D01*
X142750000Y63162683D01*
X142750000Y61363928D01*
X142930115Y61387642D01*
X142930116Y61387642D01*
X143208690Y61462286D01*
X143475118Y61572644D01*
X143475119Y61572645D01*
X143724880Y61716844D01*
X143953668Y61892400D01*
X144157599Y62096331D01*
X144333155Y62325119D01*
X144477354Y62574880D01*
X144477355Y62574881D01*
X144587713Y62841309D01*
X144662357Y63119883D01*
X144662357Y63119886D01*
X144699999Y63405798D01*
X144700000Y63405807D01*
X144700000Y63750000D01*
X143337317Y63750000D01*
X143370000Y63914312D01*
X143370000Y64085688D01*
X143337317Y64250000D01*
X144700000Y64250000D01*
X144700000Y64594192D01*
X144699999Y64594201D01*
X144662357Y64880113D01*
X144662357Y64880116D01*
X144587713Y65158690D01*
X144477355Y65425118D01*
X144477354Y65425119D01*
X144333155Y65674880D01*
X144157599Y65903668D01*
X143953668Y66107599D01*
X143724880Y66283155D01*
X143475119Y66427354D01*
X143475118Y66427355D01*
X143208690Y66537713D01*
X142930114Y66612357D01*
X142750000Y66636069D01*
X142750000Y64837316D01*
X142585688Y64870000D01*
X142414312Y64870000D01*
X142250000Y64837316D01*
X142250000Y66636069D01*
X142249999Y66636069D01*
X142069886Y66612357D01*
X142069884Y66612357D01*
X141791309Y66537713D01*
X141524881Y66427355D01*
X141524880Y66427354D01*
X141275119Y66283155D01*
X141046331Y66107599D01*
X140842400Y65903668D01*
X140666844Y65674880D01*
X140522645Y65425119D01*
X140522644Y65425118D01*
X140412286Y65158690D01*
X140337642Y64880116D01*
X140337642Y64880113D01*
X140300000Y64594201D01*
X139100000Y64594201D01*
X139100000Y67242424D01*
X139118622Y67311924D01*
X139140712Y67340712D01*
X140900000Y69100000D01*
X140900000Y85399999D01*
X140900000Y85400000D01*
X138040712Y88259288D01*
X138004736Y88321600D01*
X138000000Y88357576D01*
X138000000Y93594201D01*
X138300000Y93594201D01*
X138300000Y93250000D01*
X139662683Y93250000D01*
X139630000Y93085688D01*
X139630000Y92914312D01*
X139662683Y92750000D01*
X138300000Y92750000D01*
X138300000Y92405798D01*
X138337642Y92119886D01*
X138337642Y92119883D01*
X138412286Y91841309D01*
X138522644Y91574881D01*
X138522645Y91574880D01*
X138666844Y91325119D01*
X138842400Y91096331D01*
X139046331Y90892400D01*
X139275119Y90716844D01*
X139524880Y90572645D01*
X139524881Y90572644D01*
X139791309Y90462286D01*
X140069883Y90387642D01*
X140250000Y90363928D01*
X140250000Y92162683D01*
X140414312Y92130000D01*
X140585688Y92130000D01*
X140750000Y92162683D01*
X140750000Y90363928D01*
X140930115Y90387642D01*
X140930116Y90387642D01*
X141208690Y90462286D01*
X141475118Y90572644D01*
X141475119Y90572645D01*
X141724880Y90716844D01*
X141953668Y90892400D01*
X142157599Y91096331D01*
X142333155Y91325119D01*
X142477354Y91574880D01*
X142477355Y91574881D01*
X142587713Y91841309D01*
X142662357Y92119883D01*
X142662357Y92119886D01*
X142699999Y92405798D01*
X142700000Y92405807D01*
X142700000Y92750000D01*
X141337317Y92750000D01*
X141370000Y92914312D01*
X141370000Y93085688D01*
X141337317Y93250000D01*
X142700000Y93250000D01*
X142700000Y93594192D01*
X142699999Y93594201D01*
X143300000Y93594201D01*
X143300000Y93250000D01*
X144662683Y93250000D01*
X144630000Y93085688D01*
X144630000Y92914312D01*
X144662683Y92750000D01*
X143300000Y92750000D01*
X143300000Y92405798D01*
X143337642Y92119886D01*
X143337642Y92119883D01*
X143412286Y91841309D01*
X143522644Y91574881D01*
X143522645Y91574880D01*
X143666844Y91325119D01*
X143842400Y91096331D01*
X144046331Y90892400D01*
X144275119Y90716844D01*
X144524880Y90572645D01*
X144524881Y90572644D01*
X144791309Y90462286D01*
X145069883Y90387642D01*
X145250000Y90363928D01*
X145250000Y92162683D01*
X145414312Y92130000D01*
X145585688Y92130000D01*
X145750000Y92162683D01*
X145750000Y90363928D01*
X145930115Y90387642D01*
X145930116Y90387642D01*
X146208690Y90462286D01*
X146475118Y90572644D01*
X146475119Y90572645D01*
X146724880Y90716844D01*
X146953668Y90892400D01*
X147157599Y91096331D01*
X147333155Y91325119D01*
X147477354Y91574880D01*
X147477355Y91574881D01*
X147587713Y91841309D01*
X147662357Y92119883D01*
X147662357Y92119886D01*
X147699999Y92405798D01*
X147700000Y92405807D01*
X147700000Y92750000D01*
X146337317Y92750000D01*
X146370000Y92914312D01*
X146370000Y93085688D01*
X146337317Y93250000D01*
X147700000Y93250000D01*
X147700000Y93594192D01*
X147699999Y93594201D01*
X147662357Y93880113D01*
X147662357Y93880116D01*
X147587713Y94158690D01*
X147477355Y94425118D01*
X147477354Y94425119D01*
X147333155Y94674880D01*
X147157599Y94903668D01*
X146953668Y95107599D01*
X146724880Y95283155D01*
X146475119Y95427354D01*
X146475118Y95427355D01*
X146208690Y95537713D01*
X145930114Y95612357D01*
X145750000Y95636069D01*
X145750000Y93837316D01*
X145585688Y93870000D01*
X145414312Y93870000D01*
X145250000Y93837316D01*
X145250000Y95636069D01*
X145249999Y95636069D01*
X145069886Y95612357D01*
X145069884Y95612357D01*
X144791309Y95537713D01*
X144524881Y95427355D01*
X144524880Y95427354D01*
X144275119Y95283155D01*
X144046331Y95107599D01*
X143842400Y94903668D01*
X143666844Y94674880D01*
X143522645Y94425119D01*
X143522644Y94425118D01*
X143412286Y94158690D01*
X143337642Y93880116D01*
X143337642Y93880113D01*
X143300000Y93594201D01*
X142699999Y93594201D01*
X142662357Y93880113D01*
X142662357Y93880116D01*
X142587713Y94158690D01*
X142477355Y94425118D01*
X142477354Y94425119D01*
X142333155Y94674880D01*
X142157599Y94903668D01*
X141953668Y95107599D01*
X141724880Y95283155D01*
X141475119Y95427354D01*
X141475118Y95427355D01*
X141208690Y95537713D01*
X140930114Y95612357D01*
X140750000Y95636069D01*
X140750000Y93837316D01*
X140585688Y93870000D01*
X140414312Y93870000D01*
X140250000Y93837316D01*
X140250000Y95636069D01*
X140249999Y95636069D01*
X140069886Y95612357D01*
X140069884Y95612357D01*
X139791309Y95537713D01*
X139524881Y95427355D01*
X139524880Y95427354D01*
X139275119Y95283155D01*
X139046331Y95107599D01*
X138842400Y94903668D01*
X138666844Y94674880D01*
X138522645Y94425119D01*
X138522644Y94425118D01*
X138412286Y94158690D01*
X138337642Y93880116D01*
X138337642Y93880113D01*
X138300000Y93594201D01*
X138000000Y93594201D01*
X138000000Y96242424D01*
X138018622Y96311924D01*
X138040712Y96340712D01*
X138859288Y97159288D01*
X138921600Y97195264D01*
X138957576Y97200000D01*
X148242424Y97200000D01*
X148311924Y97181378D01*
G37*
%TD.AperFunction*%
%TD*%
%TA.AperFunction,Conductor*%
%TO.N,/L01*%
G36*
X133560098Y97195264D02*
G01*
X133575620Y97191105D01*
X133585097Y97188566D01*
X133647409Y97152590D01*
X134446350Y96353649D01*
X134468439Y96324862D01*
X134481377Y96302453D01*
X134500000Y96232953D01*
X134500000Y90075875D01*
X134495264Y90039899D01*
X134488566Y90014902D01*
X134452590Y89952590D01*
X133653649Y89153649D01*
X133624864Y89131562D01*
X133602450Y89118621D01*
X133532953Y89100000D01*
X128900000Y89100000D01*
X126600000Y86800000D01*
X126600000Y84675875D01*
X126595264Y84639899D01*
X126588566Y84614902D01*
X126552590Y84552590D01*
X125653649Y83653649D01*
X125624864Y83631562D01*
X125602450Y83618621D01*
X125532953Y83600000D01*
X123809021Y83600000D01*
X123739521Y83618622D01*
X123710733Y83640712D01*
X123697796Y83653649D01*
X123181046Y84170398D01*
X123145072Y84232708D01*
X123145072Y84304660D01*
X123181048Y84366972D01*
X123181049Y84366972D01*
X123193989Y84379911D01*
X123225166Y84397912D01*
X123307088Y84479834D01*
X123325085Y84511006D01*
X123338027Y84523948D01*
X123353874Y84533097D01*
X123366815Y84546038D01*
X123384491Y84550774D01*
X123400339Y84559924D01*
X123418638Y84559923D01*
X123436315Y84564660D01*
X123453992Y84559923D01*
X123472291Y84559923D01*
X123488137Y84550773D01*
X123505815Y84546037D01*
X123534602Y84523948D01*
X124070268Y83988282D01*
X124070269Y83988282D01*
X124109622Y84042446D01*
X124206092Y84231778D01*
X124271756Y84433869D01*
X124304999Y84643752D01*
X124305000Y84643758D01*
X124305000Y84856241D01*
X124304999Y84856247D01*
X124271756Y85066130D01*
X124206092Y85268221D01*
X124109623Y85457552D01*
X124109620Y85457557D01*
X124070269Y85511716D01*
X123534601Y84976048D01*
X123472291Y84940073D01*
X123400339Y84940073D01*
X123338027Y84976049D01*
X123325089Y84988986D01*
X123307088Y85020166D01*
X123225166Y85102088D01*
X123193986Y85120089D01*
X123181049Y85133027D01*
X123171898Y85148875D01*
X123158961Y85161813D01*
X123154224Y85179488D01*
X123145073Y85195339D01*
X123145073Y85213639D01*
X123140337Y85231313D01*
X123145073Y85248989D01*
X123145073Y85267291D01*
X123154222Y85283138D01*
X123158958Y85300813D01*
X123181045Y85329598D01*
X123716716Y85865269D01*
X123662557Y85904620D01*
X123662552Y85904623D01*
X123473221Y86001092D01*
X123271130Y86066756D01*
X123061247Y86099999D01*
X123061242Y86100000D01*
X122848758Y86100000D01*
X122848752Y86099999D01*
X122638869Y86066756D01*
X122436778Y86001092D01*
X122247446Y85904622D01*
X122193282Y85865269D01*
X122193282Y85865268D01*
X122728949Y85329602D01*
X122764925Y85267290D01*
X122764925Y85195338D01*
X122728949Y85133026D01*
X122716011Y85120088D01*
X122684834Y85102088D01*
X122602912Y85020166D01*
X122584910Y84988986D01*
X122571972Y84976048D01*
X122556122Y84966897D01*
X122543184Y84953959D01*
X122525510Y84949223D01*
X122509660Y84940072D01*
X122491358Y84940072D01*
X122473684Y84935336D01*
X122456009Y84940072D01*
X122437709Y84940072D01*
X122421861Y84949221D01*
X122404184Y84953958D01*
X122375400Y84976044D01*
X121839729Y85511716D01*
X121839728Y85511716D01*
X121800379Y85457557D01*
X121703907Y85268221D01*
X121665129Y85148875D01*
X121638243Y85066130D01*
X121605000Y84856247D01*
X121605000Y84643751D01*
X121638243Y84433868D01*
X121703907Y84231777D01*
X121800376Y84042447D01*
X121800381Y84042438D01*
X121839727Y83988282D01*
X121839728Y83988282D01*
X122375396Y84523950D01*
X122437708Y84559926D01*
X122509660Y84559926D01*
X122571972Y84523950D01*
X122584913Y84511008D01*
X122602912Y84479834D01*
X122684834Y84397912D01*
X122716008Y84379913D01*
X122728950Y84366972D01*
X122738101Y84351121D01*
X122751042Y84338180D01*
X122755776Y84320506D01*
X122764926Y84304660D01*
X122764926Y84286356D01*
X122769662Y84268679D01*
X122764926Y84251006D01*
X122764926Y84232708D01*
X122755774Y84216856D01*
X122751037Y84199180D01*
X122728950Y84170396D01*
X122199266Y83640712D01*
X122136954Y83604736D01*
X122100978Y83600000D01*
X118375876Y83600000D01*
X118339906Y83604735D01*
X118328763Y83607719D01*
X118314906Y83611433D01*
X118252595Y83647405D01*
X116153645Y85746354D01*
X116131562Y85775134D01*
X116118620Y85797551D01*
X116110569Y85827603D01*
X116100000Y85867047D01*
X116100000Y85900000D01*
X111075876Y85900000D01*
X111039906Y85904735D01*
X111028763Y85907719D01*
X111014906Y85911433D01*
X110952595Y85947405D01*
X110053645Y86846354D01*
X110031562Y86875134D01*
X110018620Y86897551D01*
X110000000Y86967047D01*
X110000000Y89750000D01*
X110363930Y89750000D01*
X111993312Y89750000D01*
X112062812Y89731378D01*
X112113690Y89680500D01*
X112132312Y89611000D01*
X112130490Y89592498D01*
X112130669Y89592481D01*
X112130000Y89585690D01*
X112130000Y89414309D01*
X112130669Y89407519D01*
X112129068Y89407361D01*
X112124935Y89344318D01*
X112084959Y89284493D01*
X112020427Y89252670D01*
X111993312Y89250000D01*
X110363931Y89250000D01*
X110363930Y89249998D01*
X110386453Y89078917D01*
X110386453Y89078914D01*
X110387641Y89069886D01*
X110462288Y88791302D01*
X110572995Y88524032D01*
X110574915Y88520945D01*
X110716841Y88275122D01*
X110716843Y88275119D01*
X110892396Y88046335D01*
X111096335Y87842396D01*
X111325119Y87666843D01*
X111325122Y87666841D01*
X111570945Y87524915D01*
X111574032Y87522995D01*
X111841302Y87412288D01*
X111841308Y87412286D01*
X111841309Y87412286D01*
X112119884Y87337642D01*
X112119886Y87337641D01*
X112119888Y87337641D01*
X112405794Y87300000D01*
X112405798Y87300000D01*
X112750000Y87300000D01*
X112750000Y88493312D01*
X112768622Y88562812D01*
X112819500Y88613690D01*
X112889000Y88632312D01*
X112902689Y88632312D01*
X112914312Y88630000D01*
X113085688Y88630000D01*
X113097311Y88632312D01*
X113111000Y88632312D01*
X113132976Y88626423D01*
X113155682Y88624935D01*
X113167162Y88617263D01*
X113180500Y88613690D01*
X113196591Y88597598D01*
X113215507Y88584959D01*
X113221612Y88572577D01*
X113231378Y88562812D01*
X113237267Y88540832D01*
X113247330Y88520427D01*
X113250000Y88493312D01*
X113250000Y87300000D01*
X113594201Y87300000D01*
X113594204Y87300000D01*
X113871082Y87336453D01*
X113871089Y87336453D01*
X113880113Y87337641D01*
X113972974Y87362523D01*
X114158690Y87412286D01*
X114158692Y87412287D01*
X114158696Y87412288D01*
X114425964Y87522994D01*
X114429053Y87524915D01*
X114674876Y87666841D01*
X114674879Y87666843D01*
X114903663Y87842396D01*
X114903668Y87842400D01*
X115107599Y88046331D01*
X115283155Y88275119D01*
X115425083Y88520948D01*
X115427006Y88524038D01*
X115537710Y88791302D01*
X115537713Y88791309D01*
X115612357Y89069884D01*
X115612357Y89069886D01*
X115636069Y89249999D01*
X115636069Y89250000D01*
X114006688Y89250000D01*
X113937188Y89268622D01*
X113886310Y89319500D01*
X113867688Y89389000D01*
X113867688Y89402688D01*
X113870000Y89414312D01*
X113870000Y89585688D01*
X113867688Y89597311D01*
X113867688Y89611000D01*
X113873576Y89632976D01*
X113875065Y89655682D01*
X113882736Y89667162D01*
X113886310Y89680500D01*
X113902401Y89696591D01*
X113915041Y89715507D01*
X113927422Y89721612D01*
X113937188Y89731378D01*
X113959167Y89737267D01*
X113979573Y89747330D01*
X114006688Y89750000D01*
X115636068Y89750000D01*
X115636069Y89750000D01*
X115612357Y89930113D01*
X115612357Y89930115D01*
X115537713Y90208690D01*
X115427355Y90475118D01*
X115427354Y90475119D01*
X115427352Y90475121D01*
X115427006Y90475958D01*
X115425092Y90479036D01*
X115283155Y90724880D01*
X115107599Y90953668D01*
X114903668Y91157599D01*
X114674880Y91333155D01*
X114429036Y91475092D01*
X114425958Y91477006D01*
X114425121Y91477352D01*
X114425119Y91477354D01*
X114425118Y91477355D01*
X114158690Y91587713D01*
X113880115Y91662357D01*
X113594201Y91699999D01*
X113594192Y91700000D01*
X113594188Y91700000D01*
X113250000Y91700000D01*
X113250000Y90506687D01*
X113231378Y90437187D01*
X113180500Y90386309D01*
X113111000Y90367687D01*
X113097316Y90367687D01*
X113085688Y90370000D01*
X112914312Y90370000D01*
X112902684Y90367687D01*
X112889000Y90367687D01*
X112867032Y90373572D01*
X112844344Y90375056D01*
X112832852Y90382731D01*
X112819500Y90386309D01*
X112803418Y90402390D01*
X112784511Y90415019D01*
X112778396Y90427412D01*
X112768622Y90437187D01*
X112762735Y90459154D01*
X112752676Y90479545D01*
X112750000Y90506687D01*
X112750000Y91700000D01*
X112405808Y91700000D01*
X112405798Y91699999D01*
X112179538Y91670210D01*
X112128916Y91663546D01*
X112128910Y91663545D01*
X112119885Y91662357D01*
X112119883Y91662357D01*
X111841309Y91587713D01*
X111746131Y91548289D01*
X111574038Y91477006D01*
X111570948Y91475083D01*
X111325119Y91333155D01*
X111096331Y91157599D01*
X110892400Y90953668D01*
X110892396Y90953663D01*
X110716843Y90724879D01*
X110716841Y90724876D01*
X110574915Y90479053D01*
X110572994Y90475964D01*
X110462288Y90208696D01*
X110403173Y89988076D01*
X110387642Y89930115D01*
X110387642Y89930113D01*
X110363930Y89750000D01*
X110000000Y89750000D01*
X110000000Y94750000D01*
X110363930Y94750000D01*
X111993312Y94750000D01*
X112062812Y94731378D01*
X112113690Y94680500D01*
X112132312Y94611000D01*
X112132312Y94597311D01*
X112130000Y94585688D01*
X112130000Y94414312D01*
X112132312Y94402688D01*
X112132312Y94389000D01*
X112126423Y94367023D01*
X112124935Y94344318D01*
X112117263Y94332837D01*
X112113690Y94319500D01*
X112097598Y94303408D01*
X112084959Y94284493D01*
X112072577Y94278387D01*
X112062812Y94268622D01*
X112040832Y94262732D01*
X112020427Y94252670D01*
X111993312Y94250000D01*
X110363931Y94250000D01*
X110363930Y94249998D01*
X110386453Y94078917D01*
X110386453Y94078914D01*
X110387641Y94069886D01*
X110462288Y93791302D01*
X110572995Y93524032D01*
X110574915Y93520945D01*
X110716841Y93275122D01*
X110716843Y93275119D01*
X110892396Y93046335D01*
X111096335Y92842396D01*
X111325119Y92666843D01*
X111325122Y92666841D01*
X111570945Y92524915D01*
X111574032Y92522995D01*
X111841302Y92412288D01*
X111841308Y92412286D01*
X111841309Y92412286D01*
X112119884Y92337642D01*
X112119886Y92337641D01*
X112119888Y92337641D01*
X112405794Y92300000D01*
X112405798Y92300000D01*
X112750000Y92300000D01*
X112750000Y93493312D01*
X112768622Y93562812D01*
X112819500Y93613690D01*
X112889000Y93632312D01*
X112902689Y93632312D01*
X112914312Y93630000D01*
X113085688Y93630000D01*
X113097311Y93632312D01*
X113111000Y93632312D01*
X113132976Y93626423D01*
X113155682Y93624935D01*
X113167162Y93617263D01*
X113180500Y93613690D01*
X113196591Y93597598D01*
X113215507Y93584959D01*
X113221612Y93572577D01*
X113231378Y93562812D01*
X113237267Y93540832D01*
X113247330Y93520427D01*
X113250000Y93493312D01*
X113250000Y92300000D01*
X113594201Y92300000D01*
X113594204Y92300000D01*
X113871082Y92336453D01*
X113871089Y92336453D01*
X113880113Y92337641D01*
X113972974Y92362523D01*
X114158690Y92412286D01*
X114158692Y92412287D01*
X114158696Y92412288D01*
X114425964Y92522994D01*
X114429053Y92524915D01*
X114674876Y92666841D01*
X114674879Y92666843D01*
X114903663Y92842396D01*
X114903668Y92842400D01*
X115107599Y93046331D01*
X115283155Y93275119D01*
X115427354Y93524880D01*
X115427355Y93524881D01*
X115456068Y93594201D01*
X124300000Y93594201D01*
X124300000Y93250000D01*
X125493312Y93250000D01*
X125562812Y93231378D01*
X125613690Y93180500D01*
X125632312Y93111000D01*
X125632312Y93097311D01*
X125630000Y93085688D01*
X125630000Y92914312D01*
X125632312Y92902688D01*
X125632312Y92889000D01*
X125626423Y92867023D01*
X125624935Y92844318D01*
X125617263Y92832837D01*
X125613690Y92819500D01*
X125597598Y92803408D01*
X125584959Y92784493D01*
X125572577Y92778387D01*
X125562812Y92768622D01*
X125540832Y92762732D01*
X125520427Y92752670D01*
X125493312Y92750000D01*
X124300000Y92750000D01*
X124300000Y92405794D01*
X124336453Y92128917D01*
X124336453Y92128913D01*
X124337641Y92119885D01*
X124412288Y91841302D01*
X124522995Y91574032D01*
X124524915Y91570945D01*
X124666841Y91325122D01*
X124666843Y91325119D01*
X124842396Y91096335D01*
X125046335Y90892396D01*
X125275119Y90716843D01*
X125275122Y90716841D01*
X125520945Y90574915D01*
X125524032Y90572995D01*
X125791302Y90462288D01*
X125791308Y90462286D01*
X125791309Y90462286D01*
X126069883Y90387642D01*
X126069885Y90387641D01*
X126069887Y90387641D01*
X126249999Y90363928D01*
X126250000Y90363928D01*
X126250000Y91993312D01*
X126268622Y92062812D01*
X126319500Y92113690D01*
X126389000Y92132312D01*
X126402689Y92132312D01*
X126414312Y92130000D01*
X126585688Y92130000D01*
X126597311Y92132312D01*
X126611000Y92132312D01*
X126632976Y92126423D01*
X126655682Y92124935D01*
X126667162Y92117263D01*
X126680500Y92113690D01*
X126696591Y92097598D01*
X126715507Y92084959D01*
X126721612Y92072577D01*
X126731378Y92062812D01*
X126737267Y92040832D01*
X126747330Y92020427D01*
X126750000Y91993312D01*
X126750000Y90363928D01*
X126930115Y90387642D01*
X126930116Y90387642D01*
X127208690Y90462286D01*
X127208692Y90462287D01*
X127208696Y90462288D01*
X127475964Y90572994D01*
X127479053Y90574915D01*
X127724876Y90716841D01*
X127724879Y90716843D01*
X127953663Y90892396D01*
X127953668Y90892400D01*
X128157599Y91096331D01*
X128333155Y91325119D01*
X128475083Y91570948D01*
X128477006Y91574038D01*
X128587710Y91841302D01*
X128587713Y91841309D01*
X128662357Y92119883D01*
X128662357Y92119886D01*
X128663218Y92126423D01*
X128663546Y92128913D01*
X128663546Y92128916D01*
X128690869Y92336453D01*
X128699999Y92405798D01*
X128700000Y92405807D01*
X128700000Y92750000D01*
X127506688Y92750000D01*
X127437188Y92768622D01*
X127386310Y92819500D01*
X127367688Y92889000D01*
X127367688Y92902688D01*
X127370000Y92914312D01*
X127370000Y93085688D01*
X127367688Y93097311D01*
X127367688Y93111000D01*
X127373576Y93132976D01*
X127375065Y93155682D01*
X127382736Y93167162D01*
X127386310Y93180500D01*
X127402401Y93196591D01*
X127415041Y93215507D01*
X127427422Y93221612D01*
X127437188Y93231378D01*
X127459167Y93237267D01*
X127479573Y93247330D01*
X127506688Y93250000D01*
X128700000Y93250000D01*
X128700000Y93594186D01*
X128700000Y93594192D01*
X128699999Y93594201D01*
X129300000Y93594201D01*
X129300000Y93250000D01*
X130493312Y93250000D01*
X130562812Y93231378D01*
X130613690Y93180500D01*
X130632312Y93111000D01*
X130632312Y93097311D01*
X130630000Y93085688D01*
X130630000Y92914312D01*
X130632312Y92902688D01*
X130632312Y92889000D01*
X130626423Y92867023D01*
X130624935Y92844318D01*
X130617263Y92832837D01*
X130613690Y92819500D01*
X130597598Y92803408D01*
X130584959Y92784493D01*
X130572577Y92778387D01*
X130562812Y92768622D01*
X130540832Y92762732D01*
X130520427Y92752670D01*
X130493312Y92750000D01*
X129300000Y92750000D01*
X129300000Y92405794D01*
X129336453Y92128917D01*
X129336453Y92128913D01*
X129337641Y92119885D01*
X129412288Y91841302D01*
X129522995Y91574032D01*
X129524915Y91570945D01*
X129666841Y91325122D01*
X129666843Y91325119D01*
X129842396Y91096335D01*
X130046335Y90892396D01*
X130275119Y90716843D01*
X130275122Y90716841D01*
X130520945Y90574915D01*
X130524032Y90572995D01*
X130791302Y90462288D01*
X130791308Y90462286D01*
X130791309Y90462286D01*
X131069883Y90387642D01*
X131069885Y90387641D01*
X131069887Y90387641D01*
X131249999Y90363928D01*
X131250000Y90363928D01*
X131250000Y91993312D01*
X131268622Y92062812D01*
X131319500Y92113690D01*
X131389000Y92132312D01*
X131402689Y92132312D01*
X131414312Y92130000D01*
X131585688Y92130000D01*
X131597311Y92132312D01*
X131611000Y92132312D01*
X131632976Y92126423D01*
X131655682Y92124935D01*
X131667162Y92117263D01*
X131680500Y92113690D01*
X131696591Y92097598D01*
X131715507Y92084959D01*
X131721612Y92072577D01*
X131731378Y92062812D01*
X131737267Y92040832D01*
X131747330Y92020427D01*
X131750000Y91993312D01*
X131750000Y90363928D01*
X131930115Y90387642D01*
X131930116Y90387642D01*
X132208690Y90462286D01*
X132208692Y90462287D01*
X132208696Y90462288D01*
X132475964Y90572994D01*
X132479053Y90574915D01*
X132724876Y90716841D01*
X132724879Y90716843D01*
X132953663Y90892396D01*
X132953668Y90892400D01*
X133157599Y91096331D01*
X133333155Y91325119D01*
X133475083Y91570948D01*
X133477006Y91574038D01*
X133587710Y91841302D01*
X133587713Y91841309D01*
X133662357Y92119883D01*
X133662357Y92119886D01*
X133663218Y92126423D01*
X133663546Y92128913D01*
X133663546Y92128916D01*
X133690869Y92336453D01*
X133699999Y92405798D01*
X133700000Y92405807D01*
X133700000Y92750000D01*
X132506688Y92750000D01*
X132437188Y92768622D01*
X132386310Y92819500D01*
X132367688Y92889000D01*
X132367688Y92902688D01*
X132370000Y92914312D01*
X132370000Y93085688D01*
X132367688Y93097311D01*
X132367688Y93111000D01*
X132373576Y93132976D01*
X132375065Y93155682D01*
X132382736Y93167162D01*
X132386310Y93180500D01*
X132402401Y93196591D01*
X132415041Y93215507D01*
X132427422Y93221612D01*
X132437188Y93231378D01*
X132459167Y93237267D01*
X132479573Y93247330D01*
X132506688Y93250000D01*
X133700000Y93250000D01*
X133700000Y93594186D01*
X133700000Y93594192D01*
X133699999Y93594201D01*
X133663993Y93867687D01*
X133662357Y93880114D01*
X133662356Y93880121D01*
X133628442Y94006687D01*
X133587713Y94158690D01*
X133477355Y94425118D01*
X133477354Y94425119D01*
X133477352Y94425121D01*
X133477006Y94425958D01*
X133475092Y94429036D01*
X133333155Y94674880D01*
X133157599Y94903668D01*
X132953668Y95107599D01*
X132724880Y95283155D01*
X132479036Y95425092D01*
X132475958Y95427006D01*
X132475121Y95427352D01*
X132475119Y95427354D01*
X132475118Y95427355D01*
X132208690Y95537713D01*
X131930114Y95612357D01*
X131750000Y95636069D01*
X131750000Y95636068D01*
X131750000Y94006687D01*
X131731378Y93937187D01*
X131680500Y93886309D01*
X131611000Y93867687D01*
X131597316Y93867687D01*
X131585688Y93870000D01*
X131414312Y93870000D01*
X131402684Y93867687D01*
X131389000Y93867687D01*
X131367032Y93873572D01*
X131344344Y93875056D01*
X131332852Y93882731D01*
X131319500Y93886309D01*
X131303418Y93902390D01*
X131284511Y93915019D01*
X131278396Y93927412D01*
X131268622Y93937187D01*
X131262735Y93959154D01*
X131252676Y93979545D01*
X131250000Y94006687D01*
X131250000Y95636068D01*
X131250000Y95636069D01*
X131249999Y95636069D01*
X131069886Y95612357D01*
X131069884Y95612357D01*
X130791309Y95537713D01*
X130791302Y95537710D01*
X130524038Y95427006D01*
X130520948Y95425083D01*
X130275119Y95283155D01*
X130046331Y95107599D01*
X129842400Y94903668D01*
X129842396Y94903663D01*
X129666843Y94674879D01*
X129666841Y94674876D01*
X129524915Y94429053D01*
X129522994Y94425964D01*
X129450108Y94250000D01*
X129412286Y94158690D01*
X129372286Y94009410D01*
X129337643Y93880121D01*
X129337642Y93880113D01*
X129302566Y93613690D01*
X129300000Y93594201D01*
X128699999Y93594201D01*
X128663993Y93867687D01*
X128662357Y93880114D01*
X128662356Y93880121D01*
X128628442Y94006687D01*
X128587713Y94158690D01*
X128477355Y94425118D01*
X128477354Y94425119D01*
X128477352Y94425121D01*
X128477006Y94425958D01*
X128475092Y94429036D01*
X128333155Y94674880D01*
X128157599Y94903668D01*
X127953668Y95107599D01*
X127724880Y95283155D01*
X127479036Y95425092D01*
X127475958Y95427006D01*
X127475121Y95427352D01*
X127475119Y95427354D01*
X127475118Y95427355D01*
X127208690Y95537713D01*
X126930114Y95612357D01*
X126750000Y95636069D01*
X126750000Y95636068D01*
X126750000Y94006687D01*
X126731378Y93937187D01*
X126680500Y93886309D01*
X126611000Y93867687D01*
X126597316Y93867687D01*
X126585688Y93870000D01*
X126414312Y93870000D01*
X126402684Y93867687D01*
X126389000Y93867687D01*
X126367032Y93873572D01*
X126344344Y93875056D01*
X126332852Y93882731D01*
X126319500Y93886309D01*
X126303418Y93902390D01*
X126284511Y93915019D01*
X126278396Y93927412D01*
X126268622Y93937187D01*
X126262735Y93959154D01*
X126252676Y93979545D01*
X126250000Y94006687D01*
X126250000Y95636068D01*
X126250000Y95636069D01*
X126249999Y95636069D01*
X126069886Y95612357D01*
X126069884Y95612357D01*
X125791309Y95537713D01*
X125791302Y95537710D01*
X125524038Y95427006D01*
X125520948Y95425083D01*
X125275119Y95283155D01*
X125046331Y95107599D01*
X124842400Y94903668D01*
X124842396Y94903663D01*
X124666843Y94674879D01*
X124666841Y94674876D01*
X124524915Y94429053D01*
X124522994Y94425964D01*
X124450108Y94250000D01*
X124412286Y94158690D01*
X124372286Y94009410D01*
X124337643Y93880121D01*
X124337642Y93880113D01*
X124302566Y93613690D01*
X124300000Y93594201D01*
X115456068Y93594201D01*
X115479984Y93651939D01*
X115479984Y93651940D01*
X115537714Y93791312D01*
X115612357Y94069884D01*
X115612357Y94069886D01*
X115636069Y94249999D01*
X115636069Y94250000D01*
X114006688Y94250000D01*
X113937188Y94268622D01*
X113886310Y94319500D01*
X113867688Y94389000D01*
X113867688Y94402688D01*
X113870000Y94414312D01*
X113870000Y94585688D01*
X113867688Y94597311D01*
X113867688Y94611000D01*
X113873576Y94632976D01*
X113875065Y94655682D01*
X113882736Y94667162D01*
X113886310Y94680500D01*
X113902401Y94696591D01*
X113915041Y94715507D01*
X113927422Y94721612D01*
X113937188Y94731378D01*
X113959167Y94737267D01*
X113979573Y94747330D01*
X114006688Y94750000D01*
X115636068Y94750000D01*
X115636069Y94750000D01*
X115612357Y94930113D01*
X115612357Y94930115D01*
X115537713Y95208690D01*
X115427355Y95475118D01*
X115427354Y95475119D01*
X115427352Y95475121D01*
X115427006Y95475958D01*
X115425092Y95479036D01*
X115283155Y95724880D01*
X115107599Y95953668D01*
X114903668Y96157599D01*
X114674880Y96333155D01*
X114429036Y96475092D01*
X114425958Y96477006D01*
X114425121Y96477352D01*
X114425119Y96477354D01*
X114425118Y96477355D01*
X114158690Y96587713D01*
X113880115Y96662357D01*
X113594201Y96699999D01*
X113594192Y96700000D01*
X113594188Y96700000D01*
X113250000Y96700000D01*
X113250000Y95506687D01*
X113231378Y95437187D01*
X113180500Y95386309D01*
X113111000Y95367687D01*
X113097316Y95367687D01*
X113085688Y95370000D01*
X112914312Y95370000D01*
X112902684Y95367687D01*
X112889000Y95367687D01*
X112867032Y95373572D01*
X112844344Y95375056D01*
X112832852Y95382731D01*
X112819500Y95386309D01*
X112803418Y95402390D01*
X112784511Y95415019D01*
X112778396Y95427412D01*
X112768622Y95437187D01*
X112762735Y95459154D01*
X112752676Y95479545D01*
X112750000Y95506687D01*
X112750000Y96700000D01*
X112405808Y96700000D01*
X112405798Y96699999D01*
X112179538Y96670210D01*
X112128916Y96663546D01*
X112128910Y96663545D01*
X112119885Y96662357D01*
X112119883Y96662357D01*
X111841309Y96587713D01*
X111774633Y96560095D01*
X111574038Y96477006D01*
X111570948Y96475083D01*
X111325119Y96333155D01*
X111325115Y96333152D01*
X111253761Y96278400D01*
X111096331Y96157599D01*
X110892400Y95953668D01*
X110892396Y95953663D01*
X110716843Y95724879D01*
X110716841Y95724876D01*
X110574915Y95479053D01*
X110572994Y95475964D01*
X110515565Y95337316D01*
X110462286Y95208690D01*
X110387642Y94930115D01*
X110387642Y94930113D01*
X110363930Y94750000D01*
X110000000Y94750000D01*
X110000000Y96524124D01*
X110004735Y96560095D01*
X110006406Y96566334D01*
X110011433Y96585093D01*
X110047406Y96647405D01*
X110047409Y96647409D01*
X110546350Y97146350D01*
X110575134Y97168436D01*
X110597548Y97181377D01*
X110667046Y97200000D01*
X133524124Y97200000D01*
X133560098Y97195264D01*
G37*
%TD.AperFunction*%
%TD*%
%TA.AperFunction,Conductor*%
%TO.N,Net-(G1-Pin_1)*%
G36*
X149011924Y46981378D02*
G01*
X149040712Y46959288D01*
X149458788Y46541212D01*
X149494764Y46478900D01*
X149499500Y46442924D01*
X149499500Y45867576D01*
X149480878Y45798076D01*
X149430000Y45747198D01*
X149360500Y45728576D01*
X149291000Y45747198D01*
X149250224Y45782958D01*
X149157599Y45903668D01*
X148953668Y46107599D01*
X148724880Y46283155D01*
X148475119Y46427354D01*
X148475118Y46427355D01*
X148208690Y46537713D01*
X147930121Y46612356D01*
X147900000Y46616321D01*
X147900000Y44775996D01*
X147753770Y44836567D01*
X147585688Y44870000D01*
X147414312Y44870000D01*
X147246230Y44836567D01*
X147100000Y44775996D01*
X147100000Y46616321D01*
X147069878Y46612356D01*
X146791309Y46537713D01*
X146524881Y46427355D01*
X146524880Y46427354D01*
X146275119Y46283155D01*
X146046331Y46107599D01*
X145842400Y45903668D01*
X145666844Y45674880D01*
X145522645Y45425119D01*
X145522644Y45425118D01*
X145412286Y45158690D01*
X145337642Y44880116D01*
X145337642Y44880113D01*
X145300000Y44594201D01*
X145300000Y44400000D01*
X146724004Y44400000D01*
X146663433Y44253770D01*
X146630000Y44085688D01*
X146630000Y43914312D01*
X146663433Y43746230D01*
X146724004Y43600000D01*
X145300000Y43600000D01*
X145300000Y43405798D01*
X145337642Y43119886D01*
X145337642Y43119883D01*
X145412286Y42841309D01*
X145522644Y42574881D01*
X145522645Y42574880D01*
X145666844Y42325119D01*
X145842400Y42096331D01*
X146046331Y41892400D01*
X146275119Y41716844D01*
X146524880Y41572645D01*
X146524881Y41572644D01*
X146791309Y41462286D01*
X147069884Y41387642D01*
X147152156Y41376811D01*
X147218631Y41349276D01*
X147262432Y41292193D01*
X147271824Y41220857D01*
X147244289Y41154382D01*
X147187206Y41110581D01*
X147134013Y41100000D01*
X142865987Y41100000D01*
X142796487Y41118622D01*
X142745609Y41169500D01*
X142726987Y41239000D01*
X142745609Y41308500D01*
X142796487Y41359378D01*
X142847844Y41376811D01*
X142930113Y41387642D01*
X142930116Y41387642D01*
X143208690Y41462286D01*
X143475118Y41572644D01*
X143475119Y41572645D01*
X143724880Y41716844D01*
X143953668Y41892400D01*
X144157599Y42096331D01*
X144333155Y42325119D01*
X144477354Y42574880D01*
X144477355Y42574881D01*
X144587713Y42841309D01*
X144662357Y43119883D01*
X144662357Y43119886D01*
X144699999Y43405798D01*
X144700000Y43405807D01*
X144700000Y43600000D01*
X143275996Y43600000D01*
X143336567Y43746230D01*
X143370000Y43914312D01*
X143370000Y44085688D01*
X143336567Y44253770D01*
X143275996Y44400000D01*
X144700000Y44400000D01*
X144700000Y44594192D01*
X144699999Y44594201D01*
X144662357Y44880113D01*
X144662357Y44880116D01*
X144587713Y45158690D01*
X144477355Y45425118D01*
X144477354Y45425119D01*
X144333155Y45674880D01*
X144157599Y45903668D01*
X143953668Y46107599D01*
X143724880Y46283155D01*
X143475119Y46427354D01*
X143475118Y46427355D01*
X143208690Y46537713D01*
X142930121Y46612356D01*
X142900000Y46616321D01*
X142900000Y44775996D01*
X142753770Y44836567D01*
X142585688Y44870000D01*
X142414312Y44870000D01*
X142246230Y44836567D01*
X142100000Y44775996D01*
X142100000Y46616321D01*
X142069878Y46612356D01*
X141791309Y46537713D01*
X141524881Y46427355D01*
X141524880Y46427354D01*
X141275119Y46283155D01*
X141046331Y46107599D01*
X140842400Y45903668D01*
X140666844Y45674880D01*
X140522645Y45425119D01*
X140522644Y45425118D01*
X140412286Y45158690D01*
X140337642Y44880116D01*
X140337642Y44880113D01*
X140300000Y44594201D01*
X140300000Y44400000D01*
X141724004Y44400000D01*
X141663433Y44253770D01*
X141630000Y44085688D01*
X141630000Y43914312D01*
X141663433Y43746230D01*
X141724004Y43600000D01*
X140300000Y43600000D01*
X140300000Y43405798D01*
X140337642Y43119886D01*
X140337642Y43119883D01*
X140412286Y42841309D01*
X140522644Y42574881D01*
X140522645Y42574880D01*
X140666844Y42325119D01*
X140842400Y42096331D01*
X141046331Y41892400D01*
X141275119Y41716844D01*
X141524880Y41572645D01*
X141524881Y41572644D01*
X141791309Y41462286D01*
X142069884Y41387642D01*
X142152156Y41376811D01*
X142218631Y41349276D01*
X142262432Y41292193D01*
X142271824Y41220857D01*
X142244289Y41154382D01*
X142187206Y41110581D01*
X142134013Y41100000D01*
X140457576Y41100000D01*
X140388076Y41118622D01*
X140359288Y41140712D01*
X139940712Y41559288D01*
X139904736Y41621600D01*
X139900000Y41657576D01*
X139900000Y46442424D01*
X139918622Y46511924D01*
X139940712Y46540712D01*
X140359288Y46959288D01*
X140421600Y46995264D01*
X140457576Y47000000D01*
X148942424Y47000000D01*
X149011924Y46981378D01*
G37*
%TD.AperFunction*%
%TD*%
%TA.AperFunction,Conductor*%
%TO.N,/N01*%
G36*
X148681924Y57561378D02*
G01*
X148710712Y57539288D01*
X149458788Y56791212D01*
X149494764Y56728900D01*
X149499500Y56692924D01*
X149499500Y55867576D01*
X149480878Y55798076D01*
X149430000Y55747198D01*
X149360500Y55728576D01*
X149291000Y55747198D01*
X149250224Y55782958D01*
X149157599Y55903668D01*
X148953668Y56107599D01*
X148724880Y56283155D01*
X148475119Y56427354D01*
X148475118Y56427355D01*
X148208690Y56537713D01*
X147930114Y56612357D01*
X147750000Y56636069D01*
X147750000Y54837316D01*
X147585688Y54870000D01*
X147414312Y54870000D01*
X147250000Y54837316D01*
X147250000Y56636069D01*
X147249999Y56636069D01*
X147069886Y56612357D01*
X147069884Y56612357D01*
X146791309Y56537713D01*
X146524881Y56427355D01*
X146524880Y56427354D01*
X146275119Y56283155D01*
X146046331Y56107599D01*
X145842400Y55903668D01*
X145666844Y55674880D01*
X145522645Y55425119D01*
X145522644Y55425118D01*
X145412286Y55158690D01*
X145337642Y54880116D01*
X145337642Y54880113D01*
X145300000Y54594201D01*
X145300000Y54250000D01*
X146662683Y54250000D01*
X146630000Y54085688D01*
X146630000Y53914312D01*
X146662683Y53750000D01*
X145300000Y53750000D01*
X145300000Y53405798D01*
X145337642Y53119886D01*
X145337642Y53119883D01*
X145412286Y52841309D01*
X145522644Y52574881D01*
X145522645Y52574880D01*
X145666844Y52325119D01*
X145842400Y52096331D01*
X146046331Y51892400D01*
X146275119Y51716844D01*
X146524880Y51572645D01*
X146524881Y51572644D01*
X146791309Y51462286D01*
X147069883Y51387642D01*
X147250000Y51363928D01*
X147250000Y53162683D01*
X147414312Y53130000D01*
X147585688Y53130000D01*
X147750000Y53162683D01*
X147750000Y51363928D01*
X147930115Y51387642D01*
X147930116Y51387642D01*
X148208690Y51462286D01*
X148475118Y51572644D01*
X148475119Y51572645D01*
X148724880Y51716844D01*
X148953668Y51892400D01*
X149157599Y52096331D01*
X149250224Y52217041D01*
X149307308Y52260842D01*
X149378644Y52270234D01*
X149445118Y52242699D01*
X149488919Y52185615D01*
X149499500Y52132423D01*
X149499500Y50957076D01*
X149480878Y50887576D01*
X149458788Y50858788D01*
X148940712Y50340712D01*
X148878400Y50304736D01*
X148842424Y50300000D01*
X139637949Y50300000D01*
X139569620Y50291003D01*
X139503145Y50318536D01*
X139489481Y50330518D01*
X138830712Y50989288D01*
X138794736Y51051600D01*
X138790000Y51087576D01*
X138790000Y54594201D01*
X140300000Y54594201D01*
X140300000Y54250000D01*
X141662683Y54250000D01*
X141630000Y54085688D01*
X141630000Y53914312D01*
X141662683Y53750000D01*
X140300000Y53750000D01*
X140300000Y53405798D01*
X140337642Y53119886D01*
X140337642Y53119883D01*
X140412286Y52841309D01*
X140522644Y52574881D01*
X140522645Y52574880D01*
X140666844Y52325119D01*
X140842400Y52096331D01*
X141046331Y51892400D01*
X141275119Y51716844D01*
X141524880Y51572645D01*
X141524881Y51572644D01*
X141791309Y51462286D01*
X142069883Y51387642D01*
X142250000Y51363928D01*
X142250000Y53162683D01*
X142414312Y53130000D01*
X142585688Y53130000D01*
X142750000Y53162683D01*
X142750000Y51363928D01*
X142930115Y51387642D01*
X142930116Y51387642D01*
X143208690Y51462286D01*
X143475118Y51572644D01*
X143475119Y51572645D01*
X143724880Y51716844D01*
X143953668Y51892400D01*
X144157599Y52096331D01*
X144333155Y52325119D01*
X144477354Y52574880D01*
X144477355Y52574881D01*
X144587713Y52841309D01*
X144662357Y53119883D01*
X144662357Y53119886D01*
X144699999Y53405798D01*
X144700000Y53405807D01*
X144700000Y53750000D01*
X143337317Y53750000D01*
X143370000Y53914312D01*
X143370000Y54085688D01*
X143337317Y54250000D01*
X144700000Y54250000D01*
X144700000Y54594192D01*
X144699999Y54594201D01*
X144662357Y54880113D01*
X144662357Y54880116D01*
X144587713Y55158690D01*
X144477355Y55425118D01*
X144477354Y55425119D01*
X144333155Y55674880D01*
X144157599Y55903668D01*
X143953668Y56107599D01*
X143724880Y56283155D01*
X143475119Y56427354D01*
X143475118Y56427355D01*
X143208690Y56537713D01*
X142930114Y56612357D01*
X142750000Y56636069D01*
X142750000Y54837316D01*
X142585688Y54870000D01*
X142414312Y54870000D01*
X142250000Y54837316D01*
X142250000Y56636069D01*
X142249999Y56636069D01*
X142069886Y56612357D01*
X142069884Y56612357D01*
X141791309Y56537713D01*
X141524881Y56427355D01*
X141524880Y56427354D01*
X141275119Y56283155D01*
X141046331Y56107599D01*
X140842400Y55903668D01*
X140666844Y55674880D01*
X140522645Y55425119D01*
X140522644Y55425118D01*
X140412286Y55158690D01*
X140337642Y54880116D01*
X140337642Y54880113D01*
X140300000Y54594201D01*
X138790000Y54594201D01*
X138790000Y56712424D01*
X138808622Y56781924D01*
X138830712Y56810712D01*
X139559288Y57539288D01*
X139621600Y57575264D01*
X139657576Y57580000D01*
X148612424Y57580000D01*
X148681924Y57561378D01*
G37*
%TD.AperFunction*%
%TD*%
%TA.AperFunction,Conductor*%
%TO.N,GND*%
G36*
X34911924Y97281378D02*
G01*
X34940712Y97259288D01*
X37159288Y95040712D01*
X37195264Y94978400D01*
X37200000Y94942424D01*
X37200000Y88591918D01*
X37181378Y88522418D01*
X37130500Y88471540D01*
X37061000Y88452918D01*
X36991500Y88471540D01*
X36962712Y88493630D01*
X36533850Y88922492D01*
X36016928Y89439414D01*
X35876788Y89541232D01*
X35722445Y89619873D01*
X35557701Y89673402D01*
X35386611Y89700500D01*
X35386608Y89700500D01*
X34870525Y89700500D01*
X34801025Y89719122D01*
X34772237Y89741212D01*
X34692656Y89820793D01*
X34551678Y89923219D01*
X34488847Y89968869D01*
X34488844Y89968871D01*
X34392241Y90018092D01*
X34264379Y90083241D01*
X34024785Y90161090D01*
X33775962Y90200500D01*
X33524038Y90200500D01*
X33275215Y90161090D01*
X33035621Y90083241D01*
X33024462Y90077555D01*
X32811155Y89968871D01*
X32811152Y89968869D01*
X32634279Y89840362D01*
X32607344Y89820793D01*
X32607340Y89820789D01*
X32429210Y89642659D01*
X32429204Y89642652D01*
X32281130Y89438847D01*
X32281128Y89438844D01*
X32167856Y89216532D01*
X32166759Y89214379D01*
X32088910Y88974785D01*
X32049500Y88725962D01*
X32049500Y88474038D01*
X32064074Y88382025D01*
X32088910Y88225214D01*
X32166760Y87985618D01*
X32281128Y87761155D01*
X32281130Y87761152D01*
X32429204Y87557347D01*
X32429210Y87557340D01*
X32607340Y87379210D01*
X32607347Y87379204D01*
X32811152Y87231130D01*
X32811155Y87231128D01*
X33035618Y87116760D01*
X33275214Y87038910D01*
X33337420Y87029057D01*
X33524038Y86999500D01*
X33524041Y86999500D01*
X33775959Y86999500D01*
X33775962Y86999500D01*
X34024785Y87038910D01*
X34264379Y87116759D01*
X34277044Y87123212D01*
X34488844Y87231128D01*
X34488847Y87231130D01*
X34692652Y87379204D01*
X34692659Y87379210D01*
X34730265Y87416816D01*
X34792577Y87452792D01*
X34864529Y87452792D01*
X34926841Y87416816D01*
X35458788Y86884870D01*
X35494764Y86822558D01*
X35499500Y86786582D01*
X35499500Y83919997D01*
X35480878Y83850497D01*
X35430000Y83799619D01*
X35360500Y83780997D01*
X35291000Y83799619D01*
X35240122Y83850497D01*
X35223212Y83898250D01*
X35211090Y83974785D01*
X35133241Y84214379D01*
X35054844Y84368242D01*
X35018871Y84438844D01*
X35018869Y84438847D01*
X34969511Y84506782D01*
X34870793Y84642656D01*
X34692656Y84820793D01*
X34556782Y84919511D01*
X34488847Y84968869D01*
X34488844Y84968871D01*
X34414023Y85006993D01*
X34264379Y85083241D01*
X34024785Y85161090D01*
X33775962Y85200500D01*
X33524038Y85200500D01*
X33275215Y85161090D01*
X33035621Y85083241D01*
X33002261Y85066243D01*
X32811155Y84968871D01*
X32811152Y84968869D01*
X32656197Y84856287D01*
X32607344Y84820793D01*
X32607340Y84820789D01*
X32429210Y84642659D01*
X32429204Y84642652D01*
X32281130Y84438847D01*
X32281128Y84438844D01*
X32175527Y84231588D01*
X32166759Y84214379D01*
X32088910Y83974785D01*
X32049500Y83725962D01*
X32049500Y83474038D01*
X32061306Y83399500D01*
X32088910Y83225214D01*
X32166760Y82985618D01*
X32281128Y82761155D01*
X32281130Y82761152D01*
X32429204Y82557347D01*
X32429210Y82557340D01*
X32607340Y82379210D01*
X32607347Y82379204D01*
X32811152Y82231130D01*
X32811155Y82231128D01*
X33035618Y82116760D01*
X33275214Y82038910D01*
X33337420Y82029057D01*
X33524038Y81999500D01*
X33524041Y81999500D01*
X33775959Y81999500D01*
X33775962Y81999500D01*
X34024785Y82038910D01*
X34264379Y82116759D01*
X34293483Y82131588D01*
X34488844Y82231128D01*
X34488847Y82231130D01*
X34692652Y82379204D01*
X34692659Y82379210D01*
X34870789Y82557340D01*
X34870793Y82557344D01*
X34961379Y82682025D01*
X35018869Y82761152D01*
X35018871Y82761155D01*
X35123367Y82966243D01*
X35133241Y82985621D01*
X35211090Y83225215D01*
X35223211Y83301748D01*
X35252477Y83367478D01*
X35310687Y83409770D01*
X35382245Y83417291D01*
X35447976Y83388025D01*
X35490268Y83329815D01*
X35499500Y83280002D01*
X35499500Y78919997D01*
X35480878Y78850497D01*
X35430000Y78799619D01*
X35360500Y78780997D01*
X35291000Y78799619D01*
X35240122Y78850497D01*
X35223212Y78898250D01*
X35211090Y78974785D01*
X35133241Y79214379D01*
X35056993Y79364023D01*
X35018871Y79438844D01*
X35018869Y79438847D01*
X34951488Y79531588D01*
X34870793Y79642656D01*
X34692656Y79820793D01*
X34522203Y79944634D01*
X34488847Y79968869D01*
X34488844Y79968871D01*
X34393707Y80017345D01*
X34264379Y80083241D01*
X34024785Y80161090D01*
X33775962Y80200500D01*
X33524038Y80200500D01*
X33275215Y80161090D01*
X33035621Y80083241D01*
X32963702Y80046596D01*
X32811155Y79968871D01*
X32811152Y79968869D01*
X32634279Y79840362D01*
X32607344Y79820793D01*
X32607340Y79820789D01*
X32429210Y79642659D01*
X32429204Y79642652D01*
X32281130Y79438847D01*
X32281128Y79438844D01*
X32168681Y79218151D01*
X32166759Y79214379D01*
X32088910Y78974785D01*
X32049500Y78725962D01*
X32049500Y78474038D01*
X32058063Y78419974D01*
X32088910Y78225214D01*
X32166760Y77985618D01*
X32281128Y77761155D01*
X32281130Y77761152D01*
X32429204Y77557347D01*
X32429210Y77557340D01*
X32607340Y77379210D01*
X32607347Y77379204D01*
X32811152Y77231130D01*
X32811155Y77231128D01*
X33035618Y77116760D01*
X33275214Y77038910D01*
X33337420Y77029057D01*
X33524038Y76999500D01*
X33524041Y76999500D01*
X33775959Y76999500D01*
X33775962Y76999500D01*
X34024785Y77038910D01*
X34264379Y77116759D01*
X34264381Y77116760D01*
X34488844Y77231128D01*
X34488847Y77231130D01*
X34692652Y77379204D01*
X34692659Y77379210D01*
X34870789Y77557340D01*
X34870793Y77557344D01*
X34926310Y77633757D01*
X35018869Y77761152D01*
X35018871Y77761155D01*
X35133239Y77985618D01*
X35133241Y77985621D01*
X35211090Y78225215D01*
X35223211Y78301748D01*
X35252477Y78367478D01*
X35310687Y78409770D01*
X35382245Y78417291D01*
X35447976Y78388025D01*
X35490268Y78329815D01*
X35499500Y78280002D01*
X35499500Y74276026D01*
X35480878Y74206526D01*
X35430000Y74155648D01*
X35360500Y74137026D01*
X35291000Y74155648D01*
X35240122Y74206526D01*
X35232081Y74222833D01*
X35177957Y74353499D01*
X35177956Y74353500D01*
X35066532Y74546494D01*
X35066526Y74546503D01*
X34985255Y74652413D01*
X34156155Y73823313D01*
X34090110Y73937708D01*
X33987708Y74040110D01*
X33873313Y74106155D01*
X34702414Y74935256D01*
X34596503Y75016526D01*
X34596494Y75016532D01*
X34403500Y75127956D01*
X34403499Y75127957D01*
X34197624Y75213233D01*
X34197611Y75213238D01*
X33982364Y75270912D01*
X33982358Y75270913D01*
X33761428Y75299999D01*
X33761419Y75300000D01*
X33538581Y75300000D01*
X33538571Y75299999D01*
X33317641Y75270913D01*
X33317635Y75270912D01*
X33102388Y75213238D01*
X33102375Y75213233D01*
X32896500Y75127957D01*
X32896499Y75127956D01*
X32703499Y75016528D01*
X32597584Y74935256D01*
X33426686Y74106154D01*
X33312292Y74040110D01*
X33209890Y73937708D01*
X33143844Y73823311D01*
X32314742Y74652413D01*
X32233471Y74546500D01*
X32122043Y74353500D01*
X32122042Y74353499D01*
X32036766Y74147624D01*
X32036761Y74147611D01*
X31979087Y73932364D01*
X31979086Y73932358D01*
X31950000Y73711428D01*
X31950000Y73488571D01*
X31979086Y73267641D01*
X31979087Y73267635D01*
X32036761Y73052392D01*
X32036766Y73052375D01*
X32122042Y72846500D01*
X32122043Y72846499D01*
X32233470Y72653500D01*
X32314742Y72547585D01*
X33143844Y73376687D01*
X33209890Y73262292D01*
X33312292Y73159890D01*
X33426687Y73093844D01*
X32597585Y72264742D01*
X32703500Y72183470D01*
X32896499Y72072043D01*
X32896500Y72072042D01*
X33102375Y71986766D01*
X33102388Y71986761D01*
X33317635Y71929087D01*
X33317641Y71929086D01*
X33538571Y71900000D01*
X33761428Y71900000D01*
X33982358Y71929086D01*
X33982364Y71929087D01*
X34197611Y71986761D01*
X34197624Y71986766D01*
X34403499Y72072042D01*
X34403500Y72072043D01*
X34596500Y72183471D01*
X34702413Y72264742D01*
X33873312Y73093844D01*
X33987708Y73159890D01*
X34090110Y73262292D01*
X34156154Y73376686D01*
X34985256Y72547584D01*
X35066528Y72653499D01*
X35177956Y72846499D01*
X35177957Y72846500D01*
X35232081Y72977166D01*
X35275882Y73034249D01*
X35342357Y73061784D01*
X35413693Y73052392D01*
X35470776Y73008591D01*
X35498311Y72942116D01*
X35499500Y72923973D01*
X35499500Y68919997D01*
X35480878Y68850497D01*
X35430000Y68799619D01*
X35360500Y68780997D01*
X35291000Y68799619D01*
X35240122Y68850497D01*
X35223212Y68898250D01*
X35211090Y68974785D01*
X35133241Y69214379D01*
X35056993Y69364023D01*
X35018871Y69438844D01*
X35018869Y69438847D01*
X34945505Y69539823D01*
X34870793Y69642656D01*
X34692656Y69820793D01*
X34525417Y69942299D01*
X34488847Y69968869D01*
X34488844Y69968871D01*
X34367936Y70030476D01*
X34264379Y70083241D01*
X34024785Y70161090D01*
X33775962Y70200500D01*
X33524038Y70200500D01*
X33275215Y70161090D01*
X33035621Y70083241D01*
X32963702Y70046596D01*
X32811155Y69968871D01*
X32811152Y69968869D01*
X32603885Y69818280D01*
X32536713Y69792494D01*
X32465647Y69803750D01*
X32423898Y69832442D01*
X30441210Y71815131D01*
X30405236Y71877441D01*
X30400500Y71913417D01*
X30400500Y85786607D01*
X30400500Y85786611D01*
X30373402Y85957701D01*
X30338000Y86066657D01*
X30319873Y86122446D01*
X30241232Y86276788D01*
X30139414Y86416928D01*
X28366928Y88189414D01*
X28226788Y88291232D01*
X28072445Y88369873D01*
X27907701Y88423402D01*
X27736611Y88450500D01*
X27736608Y88450500D01*
X25379103Y88450500D01*
X25369030Y88453198D01*
X25358674Y88452010D01*
X25341846Y88460482D01*
X25309603Y88469122D01*
X25292665Y88480644D01*
X25286439Y88485587D01*
X25277510Y88494517D01*
X25250271Y88514307D01*
X25247958Y88516144D01*
X25228240Y88542744D01*
X25207414Y88568462D01*
X25206934Y88571486D01*
X25205111Y88573947D01*
X25201336Y88606827D01*
X25196157Y88639528D01*
X25197255Y88642388D01*
X25196906Y88645429D01*
X25210078Y88675794D01*
X25221942Y88706701D01*
X25224667Y88709426D01*
X25225540Y88711438D01*
X25229942Y88714701D01*
X25252695Y88737454D01*
X25277509Y88755482D01*
X25444519Y88922492D01*
X25583345Y89113570D01*
X25690566Y89324005D01*
X25690568Y89324008D01*
X25763553Y89548632D01*
X25800500Y89781908D01*
X25800500Y90018092D01*
X25763553Y90251368D01*
X25690568Y90475992D01*
X25583343Y90686433D01*
X25444517Y90877510D01*
X25277510Y91044517D01*
X25252694Y91062546D01*
X25207414Y91118462D01*
X25196157Y91189528D01*
X25221942Y91256701D01*
X25252695Y91287454D01*
X25277509Y91305482D01*
X25444519Y91472492D01*
X25583345Y91663570D01*
X25646037Y91786611D01*
X25690568Y91874008D01*
X25763553Y92098632D01*
X25800500Y92331908D01*
X25800500Y92568092D01*
X25763553Y92801368D01*
X25690568Y93025992D01*
X25583343Y93236433D01*
X25444517Y93427510D01*
X25277510Y93594517D01*
X25116596Y93711428D01*
X31950000Y93711428D01*
X31950000Y93488571D01*
X31979086Y93267641D01*
X31979087Y93267635D01*
X32036761Y93052388D01*
X32036766Y93052375D01*
X32122042Y92846500D01*
X32122043Y92846499D01*
X32233470Y92653500D01*
X32314742Y92547585D01*
X33143844Y93376687D01*
X33209890Y93262292D01*
X33312292Y93159890D01*
X33426687Y93093844D01*
X32597585Y92264742D01*
X32703500Y92183470D01*
X32896499Y92072043D01*
X32896500Y92072042D01*
X33102375Y91986766D01*
X33102388Y91986761D01*
X33317635Y91929087D01*
X33317641Y91929086D01*
X33538571Y91900000D01*
X33761428Y91900000D01*
X33982358Y91929086D01*
X33982364Y91929087D01*
X34197611Y91986761D01*
X34197624Y91986766D01*
X34403499Y92072042D01*
X34403500Y92072043D01*
X34596500Y92183471D01*
X34702413Y92264742D01*
X33873312Y93093844D01*
X33987708Y93159890D01*
X34090110Y93262292D01*
X34156154Y93376686D01*
X34985256Y92547584D01*
X35066528Y92653499D01*
X35177956Y92846499D01*
X35177957Y92846500D01*
X35263233Y93052375D01*
X35263238Y93052388D01*
X35320912Y93267635D01*
X35320913Y93267641D01*
X35349999Y93488571D01*
X35350000Y93488581D01*
X35350000Y93711418D01*
X35349999Y93711428D01*
X35320913Y93932358D01*
X35320912Y93932364D01*
X35263238Y94147611D01*
X35263233Y94147624D01*
X35177957Y94353499D01*
X35177956Y94353500D01*
X35066532Y94546494D01*
X35066526Y94546503D01*
X34985255Y94652413D01*
X34156155Y93823313D01*
X34090110Y93937708D01*
X33987708Y94040110D01*
X33873313Y94106155D01*
X34702414Y94935256D01*
X34596503Y95016526D01*
X34596494Y95016532D01*
X34403500Y95127956D01*
X34403499Y95127957D01*
X34197624Y95213233D01*
X34197611Y95213238D01*
X33982364Y95270912D01*
X33982358Y95270913D01*
X33761428Y95299999D01*
X33761419Y95300000D01*
X33538581Y95300000D01*
X33538571Y95299999D01*
X33317641Y95270913D01*
X33317635Y95270912D01*
X33102388Y95213238D01*
X33102375Y95213233D01*
X32896500Y95127957D01*
X32896499Y95127956D01*
X32703499Y95016528D01*
X32597584Y94935256D01*
X33426686Y94106154D01*
X33312292Y94040110D01*
X33209890Y93937708D01*
X33143844Y93823311D01*
X32314742Y94652413D01*
X32233471Y94546500D01*
X32122043Y94353500D01*
X32122042Y94353499D01*
X32036766Y94147624D01*
X32036761Y94147611D01*
X31979087Y93932364D01*
X31979086Y93932358D01*
X31950000Y93711428D01*
X25116596Y93711428D01*
X25086433Y93733343D01*
X24875992Y93840568D01*
X24651368Y93913553D01*
X24418092Y93950500D01*
X24181908Y93950500D01*
X23948632Y93913553D01*
X23724008Y93840568D01*
X23618787Y93786955D01*
X23513570Y93733345D01*
X23513567Y93733343D01*
X23494445Y93719450D01*
X23322492Y93594519D01*
X23319185Y93591212D01*
X23256873Y93555236D01*
X23220897Y93550500D01*
X20936611Y93550500D01*
X18336611Y93550500D01*
X18163389Y93550500D01*
X17992299Y93523402D01*
X17827554Y93469873D01*
X17827550Y93469871D01*
X17673215Y93391234D01*
X17533074Y93289416D01*
X16660583Y92416925D01*
X16558771Y92276793D01*
X16558763Y92276780D01*
X16507398Y92175968D01*
X16480127Y92122445D01*
X16426598Y91957701D01*
X16399500Y91786611D01*
X16399500Y90413389D01*
X16426598Y90242299D01*
X16426599Y90242296D01*
X16480125Y90077560D01*
X16480128Y90077553D01*
X16558763Y89923219D01*
X16558771Y89923206D01*
X16660583Y89783074D01*
X16783074Y89660583D01*
X16923206Y89558771D01*
X16923219Y89558763D01*
X17077553Y89480128D01*
X17077560Y89480125D01*
X17202856Y89439414D01*
X17242299Y89426598D01*
X17413389Y89399500D01*
X17413392Y89399500D01*
X17586608Y89399500D01*
X17586611Y89399500D01*
X17757701Y89426598D01*
X17922445Y89480127D01*
X17975968Y89507398D01*
X18076780Y89558763D01*
X18076793Y89558771D01*
X18216925Y89660583D01*
X18339416Y89783074D01*
X18441228Y89923206D01*
X18441236Y89923219D01*
X18474455Y89988417D01*
X18519873Y90077555D01*
X18573402Y90242299D01*
X18600500Y90413389D01*
X18600500Y91186582D01*
X18605236Y91204257D01*
X18605236Y91222558D01*
X18614385Y91238405D01*
X18619122Y91256082D01*
X18641212Y91284870D01*
X18665130Y91308788D01*
X18727442Y91344764D01*
X18763418Y91349500D01*
X19460500Y91349500D01*
X19530000Y91330878D01*
X19580878Y91280000D01*
X19599500Y91210500D01*
X19599500Y87786611D01*
X19599500Y87613389D01*
X19626598Y87442299D01*
X19626599Y87442296D01*
X19680125Y87277560D01*
X19680128Y87277553D01*
X19758763Y87123219D01*
X19758771Y87123206D01*
X19860583Y86983074D01*
X20333074Y86510583D01*
X20473206Y86408771D01*
X20473219Y86408763D01*
X20627553Y86330128D01*
X20627560Y86330125D01*
X20781920Y86279970D01*
X20792299Y86276598D01*
X20963389Y86249500D01*
X23220897Y86249500D01*
X23290397Y86230878D01*
X23319185Y86208788D01*
X23322492Y86205480D01*
X23513570Y86066654D01*
X23724005Y85959433D01*
X23724007Y85959432D01*
X23724008Y85959432D01*
X23740194Y85954172D01*
X23948631Y85886447D01*
X24026390Y85874131D01*
X24181908Y85849500D01*
X24181910Y85849500D01*
X24418090Y85849500D01*
X24418092Y85849500D01*
X24651368Y85886447D01*
X24875992Y85959432D01*
X24875994Y85959433D01*
X25086429Y86066654D01*
X25277507Y86205480D01*
X25280815Y86208788D01*
X25343127Y86244764D01*
X25379103Y86249500D01*
X27136582Y86249500D01*
X27206082Y86230878D01*
X27234870Y86208788D01*
X28158788Y85284870D01*
X28194764Y85222558D01*
X28199500Y85186582D01*
X28199500Y71486611D01*
X28199500Y71313389D01*
X28226598Y71142299D01*
X28226599Y71142296D01*
X28280125Y70977560D01*
X28280128Y70977553D01*
X28358763Y70823219D01*
X28358771Y70823206D01*
X28460583Y70683074D01*
X31383074Y67760583D01*
X31523206Y67658771D01*
X31523219Y67658763D01*
X31677553Y67580128D01*
X31677560Y67580125D01*
X31831920Y67529970D01*
X31842299Y67526598D01*
X32013389Y67499500D01*
X32429475Y67499500D01*
X32498975Y67480878D01*
X32527763Y67458788D01*
X32607340Y67379210D01*
X32607347Y67379204D01*
X32811152Y67231130D01*
X32811155Y67231128D01*
X33035618Y67116760D01*
X33275214Y67038910D01*
X33337420Y67029057D01*
X33524038Y66999500D01*
X33524041Y66999500D01*
X33775959Y66999500D01*
X33775962Y66999500D01*
X34024785Y67038910D01*
X34264379Y67116759D01*
X34264381Y67116760D01*
X34488844Y67231128D01*
X34488847Y67231130D01*
X34692652Y67379204D01*
X34692659Y67379210D01*
X34870789Y67557340D01*
X34870793Y67557344D01*
X34924858Y67631758D01*
X35018869Y67761152D01*
X35018871Y67761155D01*
X35133239Y67985618D01*
X35133241Y67985621D01*
X35211090Y68225215D01*
X35223211Y68301748D01*
X35252477Y68367478D01*
X35310687Y68409770D01*
X35382245Y68417291D01*
X35447976Y68388025D01*
X35490268Y68329815D01*
X35499500Y68280002D01*
X35499500Y66513418D01*
X35480878Y66443918D01*
X35458788Y66415130D01*
X31060583Y62016925D01*
X30958771Y61876793D01*
X30958763Y61876780D01*
X30949959Y61859500D01*
X30880127Y61722445D01*
X30826598Y61557701D01*
X30799500Y61386611D01*
X30799500Y38176611D01*
X30799500Y38003389D01*
X30826598Y37832299D01*
X30826599Y37832296D01*
X30880125Y37667560D01*
X30880128Y37667553D01*
X30958763Y37513219D01*
X30958771Y37513206D01*
X31060583Y37373074D01*
X31933788Y36499870D01*
X31969764Y36437558D01*
X31974500Y36401582D01*
X31974500Y35179103D01*
X31955878Y35109603D01*
X31933788Y35080815D01*
X31930480Y35077507D01*
X31791654Y34886429D01*
X31696919Y34700500D01*
X31684432Y34675992D01*
X31611447Y34451368D01*
X31591215Y34323624D01*
X31574500Y34218089D01*
X31574500Y33981910D01*
X31611447Y33748631D01*
X31684433Y33524005D01*
X31791654Y33313570D01*
X31930480Y33122492D01*
X32097492Y32955480D01*
X32288570Y32816654D01*
X32499005Y32709433D01*
X32723631Y32636447D01*
X32801390Y32624131D01*
X32956908Y32599500D01*
X32956910Y32599500D01*
X33193090Y32599500D01*
X33193092Y32599500D01*
X33426368Y32636447D01*
X33650992Y32709432D01*
X33739039Y32754294D01*
X33861429Y32816654D01*
X34052507Y32955480D01*
X34133569Y33036542D01*
X34219517Y33122490D01*
X34237547Y33147306D01*
X34252275Y33159232D01*
X34263561Y33174458D01*
X34279750Y33181481D01*
X34293464Y33192586D01*
X34312182Y33195550D01*
X34329569Y33203093D01*
X34347101Y33201080D01*
X34364530Y33203841D01*
X34382221Y33197050D01*
X34401051Y33194889D01*
X34414007Y33184848D01*
X34431703Y33178056D01*
X34458855Y33152042D01*
X34460701Y33149716D01*
X34480483Y33122490D01*
X34489411Y33113561D01*
X34494355Y33107336D01*
X34505618Y33081370D01*
X34519766Y33056863D01*
X34521297Y33045230D01*
X34522990Y33041328D01*
X34522440Y33036542D01*
X34524500Y33020897D01*
X34524500Y27436119D01*
X34505878Y27366619D01*
X34483791Y27337835D01*
X34409917Y27263961D01*
X34316280Y27112153D01*
X34296420Y27052219D01*
X34260176Y26942842D01*
X34260175Y26942837D01*
X34249500Y26838346D01*
X34249500Y25161659D01*
X34249501Y25161652D01*
X34260175Y25057160D01*
X34260175Y25057158D01*
X34316281Y24887844D01*
X34409915Y24736041D01*
X34536041Y24609915D01*
X34536040Y24609915D01*
X34687844Y24516281D01*
X34857157Y24460176D01*
X34857162Y24460175D01*
X34961655Y24449500D01*
X34961659Y24449500D01*
X36638340Y24449500D01*
X36638347Y24449501D01*
X36742839Y24460175D01*
X36742841Y24460175D01*
X36855385Y24497469D01*
X36912153Y24516280D01*
X36966822Y24550000D01*
X37063958Y24609915D01*
X37063961Y24609917D01*
X37190083Y24736039D01*
X37283720Y24887847D01*
X37339824Y25057158D01*
X37350500Y25161659D01*
X37350499Y26038690D01*
X55699500Y26038690D01*
X55699500Y25861309D01*
X55734105Y25687333D01*
X55734106Y25687330D01*
X55801985Y25523456D01*
X55801988Y25523451D01*
X55900536Y25375965D01*
X56025965Y25250536D01*
X56173451Y25151988D01*
X56173453Y25151986D01*
X56288694Y25104252D01*
X56345777Y25060450D01*
X56373311Y24993975D01*
X56374500Y24975833D01*
X56374500Y20498190D01*
X56363919Y20444997D01*
X56309106Y20312669D01*
X56309105Y20312666D01*
X56274500Y20138690D01*
X56274500Y19961309D01*
X56309105Y19787333D01*
X56309106Y19787330D01*
X56376985Y19623456D01*
X56376988Y19623451D01*
X56475536Y19475965D01*
X56600965Y19350536D01*
X56748451Y19251988D01*
X56748456Y19251985D01*
X56912330Y19184106D01*
X56912333Y19184105D01*
X57056145Y19155500D01*
X57086309Y19149500D01*
X57086310Y19149500D01*
X57263690Y19149500D01*
X57263691Y19149500D01*
X57293855Y19155500D01*
X57437666Y19184105D01*
X57437669Y19184106D01*
X57601543Y19251985D01*
X57601544Y19251986D01*
X57601547Y19251987D01*
X57749035Y19350536D01*
X57874464Y19475965D01*
X57973013Y19623453D01*
X58004598Y19699707D01*
X58040893Y19787330D01*
X58040894Y19787333D01*
X58075500Y19961309D01*
X58075500Y20138690D01*
X58040894Y20312666D01*
X58040893Y20312669D01*
X57986081Y20444997D01*
X57975500Y20498190D01*
X57975500Y25048539D01*
X58759500Y25048539D01*
X58759500Y24851460D01*
X58797949Y24658162D01*
X58797949Y24658161D01*
X58873364Y24476093D01*
X58873367Y24476088D01*
X58873368Y24476086D01*
X58891132Y24449501D01*
X58982859Y24312220D01*
X59122223Y24172856D01*
X59286079Y24063371D01*
X59286094Y24063363D01*
X59286699Y24063113D01*
X59299809Y24056111D01*
X59300064Y24056587D01*
X59306087Y24053367D01*
X59434836Y24000037D01*
X59434835Y24000036D01*
X59488163Y23977948D01*
X59584812Y23958724D01*
X59584811Y23958723D01*
X59681459Y23939500D01*
X71568539Y23939500D01*
X71568541Y23939500D01*
X71690865Y23963832D01*
X71761837Y23977949D01*
X71761838Y23977949D01*
X71943906Y24053364D01*
X71943909Y24053366D01*
X71943914Y24053368D01*
X72107782Y24162861D01*
X72247139Y24302218D01*
X72356632Y24466086D01*
X72377423Y24516280D01*
X72432050Y24648161D01*
X72432050Y24648162D01*
X72434040Y24658162D01*
X72470500Y24841459D01*
X72470500Y25038541D01*
X72432051Y25231835D01*
X72356632Y25413914D01*
X72247139Y25577782D01*
X72107782Y25717139D01*
X71943914Y25826632D01*
X71761835Y25902051D01*
X71568541Y25940500D01*
X71568539Y25940500D01*
X59932504Y25940500D01*
X59905387Y25943171D01*
X59868541Y25950500D01*
X59661459Y25950500D01*
X59468165Y25912051D01*
X59468163Y25912050D01*
X59468162Y25912050D01*
X59468161Y25912050D01*
X59317152Y25849500D01*
X59286086Y25836632D01*
X59122218Y25727139D01*
X58982861Y25587782D01*
X58873368Y25423914D01*
X58873367Y25423911D01*
X58873364Y25423906D01*
X58797949Y25241838D01*
X58797949Y25241837D01*
X58792795Y25215925D01*
X58761215Y25057160D01*
X58759500Y25048539D01*
X57975500Y25048539D01*
X57975500Y25453841D01*
X57944737Y25608497D01*
X57944736Y25608500D01*
X57914672Y25681081D01*
X57884394Y25754179D01*
X57796789Y25885289D01*
X57729973Y25952105D01*
X57685290Y25996789D01*
X57482957Y26199120D01*
X57452826Y26244211D01*
X57398013Y26376547D01*
X57299464Y26524035D01*
X57174035Y26649464D01*
X57026547Y26748013D01*
X56906873Y26797582D01*
X56862669Y26815893D01*
X56862666Y26815894D01*
X56688691Y26850500D01*
X56511309Y26850500D01*
X56490064Y26846274D01*
X56337333Y26815894D01*
X56337330Y26815893D01*
X56217660Y26766324D01*
X56173453Y26748013D01*
X56025965Y26649464D01*
X55900536Y26524035D01*
X55852550Y26452219D01*
X55801988Y26376548D01*
X55801985Y26376543D01*
X55734106Y26212669D01*
X55734105Y26212666D01*
X55699500Y26038690D01*
X37350499Y26038690D01*
X37350499Y26838340D01*
X37339824Y26942842D01*
X37283720Y27112153D01*
X37190083Y27263961D01*
X37063961Y27390083D01*
X36912153Y27483720D01*
X36820776Y27513999D01*
X36760663Y27553536D01*
X36728372Y27617835D01*
X36725500Y27645943D01*
X36725500Y33020897D01*
X36728198Y33030969D01*
X36727010Y33041328D01*
X36735484Y33058159D01*
X36744122Y33090397D01*
X36755645Y33107336D01*
X36760588Y33113561D01*
X36769517Y33122490D01*
X36789298Y33149716D01*
X36791145Y33152042D01*
X36817740Y33171755D01*
X36843464Y33192586D01*
X36846488Y33193064D01*
X36848949Y33194889D01*
X36881843Y33198664D01*
X36914530Y33203841D01*
X36917388Y33202743D01*
X36920431Y33203093D01*
X36950803Y33189917D01*
X36981703Y33178056D01*
X36984429Y33175329D01*
X36986439Y33174458D01*
X36989699Y33170059D01*
X37012453Y33147306D01*
X37030480Y33122493D01*
X37030481Y33122492D01*
X37197492Y32955480D01*
X37388570Y32816654D01*
X37599005Y32709433D01*
X37823631Y32636447D01*
X37901390Y32624131D01*
X38056908Y32599500D01*
X38056910Y32599500D01*
X38293090Y32599500D01*
X38293092Y32599500D01*
X38526368Y32636447D01*
X38750992Y32709432D01*
X38839039Y32754294D01*
X38961429Y32816654D01*
X39152507Y32955480D01*
X39319519Y33122492D01*
X39458345Y33313570D01*
X39511955Y33418787D01*
X39565568Y33524008D01*
X39638553Y33748632D01*
X39675500Y33981908D01*
X39675500Y34218092D01*
X39638553Y34451368D01*
X39565568Y34675992D01*
X39458343Y34886433D01*
X39319517Y35077510D01*
X39316212Y35080815D01*
X39280236Y35143127D01*
X39275500Y35179103D01*
X39275500Y36491607D01*
X39275500Y36491611D01*
X39248402Y36662701D01*
X39194873Y36827445D01*
X39116232Y36981788D01*
X39014414Y37121928D01*
X38891928Y37244414D01*
X38381928Y37754414D01*
X38241788Y37856232D01*
X38087445Y37934873D01*
X37922701Y37988402D01*
X37751611Y38015500D01*
X37751608Y38015500D01*
X33588418Y38015500D01*
X33518918Y38034122D01*
X33490130Y38056212D01*
X33041212Y38505130D01*
X33005236Y38567442D01*
X33000500Y38603418D01*
X33000500Y60786582D01*
X33019122Y60856082D01*
X33041212Y60884870D01*
X36962712Y64806370D01*
X37025024Y64842346D01*
X37096976Y64842346D01*
X37159288Y64806370D01*
X37195264Y64744058D01*
X37200000Y64708082D01*
X37200000Y55799999D01*
X38159288Y54840712D01*
X38195264Y54778400D01*
X38200000Y54742424D01*
X38200000Y48599999D01*
X41059288Y45740712D01*
X41095264Y45678400D01*
X41100000Y45642424D01*
X41100000Y35199999D01*
X46099999Y30200000D01*
X46100000Y30200000D01*
X55642424Y30200000D01*
X55711924Y30181378D01*
X55740712Y30159288D01*
X55749999Y30150000D01*
X55750000Y30150000D01*
X71560000Y30150000D01*
X72640000Y31230000D01*
X72640000Y31454113D01*
X82200000Y31454113D01*
X82200000Y31225886D01*
X82235705Y31000451D01*
X82306233Y30783391D01*
X82409846Y30580039D01*
X82409851Y30580030D01*
X82492891Y30465734D01*
X83230969Y31203812D01*
X83239985Y31170166D01*
X83297912Y31069834D01*
X83379834Y30987912D01*
X83480166Y30929985D01*
X83513812Y30920969D01*
X82775734Y30182891D01*
X82890030Y30099851D01*
X82890039Y30099846D01*
X83093391Y29996233D01*
X83310451Y29925705D01*
X83535886Y29890000D01*
X83764114Y29890000D01*
X83989548Y29925705D01*
X84206608Y29996233D01*
X84409969Y30099851D01*
X84524264Y30182891D01*
X84524264Y30182892D01*
X83786187Y30920969D01*
X83819834Y30929985D01*
X83920166Y30987912D01*
X84002088Y31069834D01*
X84060015Y31170166D01*
X84069029Y31203810D01*
X84807106Y30465734D01*
X84807107Y30465734D01*
X84890148Y30580030D01*
X84993766Y30783391D01*
X85064294Y31000451D01*
X85100000Y31225886D01*
X85100000Y31454113D01*
X85064294Y31679548D01*
X84993766Y31896608D01*
X84890148Y32099969D01*
X84807108Y32214264D01*
X84807106Y32214264D01*
X84069030Y31476188D01*
X84060015Y31509834D01*
X84002088Y31610166D01*
X83920166Y31692088D01*
X83819834Y31750015D01*
X83786188Y31759030D01*
X84524264Y32497106D01*
X84524264Y32497108D01*
X84409969Y32580148D01*
X84206608Y32683766D01*
X83989548Y32754294D01*
X83764114Y32790000D01*
X83535886Y32790000D01*
X83310451Y32754294D01*
X83093391Y32683766D01*
X82890030Y32580148D01*
X82775734Y32497107D01*
X82775734Y32497106D01*
X83513811Y31759030D01*
X83480166Y31750015D01*
X83379834Y31692088D01*
X83297912Y31610166D01*
X83239985Y31509834D01*
X83230969Y31476187D01*
X82492892Y32214264D01*
X82492891Y32214264D01*
X82409851Y32099969D01*
X82306233Y31896608D01*
X82235705Y31679548D01*
X82200000Y31454113D01*
X72640000Y31454113D01*
X72640000Y32112424D01*
X72658622Y32181924D01*
X72680712Y32210712D01*
X73929288Y33459288D01*
X73991600Y33495264D01*
X74027576Y33500000D01*
X87942424Y33500000D01*
X88011924Y33481378D01*
X88040712Y33459288D01*
X90759288Y30740712D01*
X90795264Y30678400D01*
X90800000Y30642424D01*
X90800000Y26199999D01*
X91999999Y25000000D01*
X92000000Y25000000D01*
X116608082Y25000000D01*
X116677582Y24981378D01*
X116728460Y24930500D01*
X116747082Y24861000D01*
X116728460Y24791500D01*
X116706370Y24762712D01*
X110160583Y18216925D01*
X110058771Y18076793D01*
X110058763Y18076780D01*
X110044499Y18048784D01*
X109980127Y17922445D01*
X109926598Y17757701D01*
X109899500Y17586611D01*
X109899500Y16763389D01*
X109926598Y16592299D01*
X109926599Y16592296D01*
X109980125Y16427560D01*
X109980128Y16427553D01*
X110058763Y16273219D01*
X110058771Y16273206D01*
X110160583Y16133074D01*
X110283074Y16010583D01*
X110423206Y15908771D01*
X110423219Y15908763D01*
X110577553Y15830128D01*
X110577560Y15830125D01*
X110731920Y15779970D01*
X110742299Y15776598D01*
X110913389Y15749500D01*
X110913392Y15749500D01*
X111086608Y15749500D01*
X111086611Y15749500D01*
X111257701Y15776598D01*
X111422445Y15830127D01*
X111475968Y15857398D01*
X111576780Y15908763D01*
X111576793Y15908771D01*
X111716925Y16010583D01*
X111839416Y16133074D01*
X111941228Y16273206D01*
X111941236Y16273219D01*
X111965330Y16320507D01*
X112019873Y16427555D01*
X112073402Y16592299D01*
X112100500Y16763389D01*
X112100500Y16986582D01*
X112119122Y17056082D01*
X112141212Y17084870D01*
X120015630Y24959288D01*
X120077942Y24995264D01*
X120113918Y25000000D01*
X132192424Y25000000D01*
X132261924Y24981378D01*
X132290712Y24959288D01*
X134379288Y22870712D01*
X134415264Y22808400D01*
X134420000Y22772424D01*
X134420000Y9127576D01*
X134401378Y9058076D01*
X134379288Y9029288D01*
X131870712Y6520712D01*
X131808400Y6484736D01*
X131772424Y6480000D01*
X127980000Y6480000D01*
X122240712Y740712D01*
X122178400Y704736D01*
X122142424Y700000D01*
X12857576Y700000D01*
X12788076Y718622D01*
X12759288Y740712D01*
X1240712Y12259288D01*
X1204736Y12321600D01*
X1200000Y12357576D01*
X1200000Y29950000D01*
X2012979Y29950000D01*
X3038120Y29950000D01*
X3034075Y29942993D01*
X3000000Y29815826D01*
X3000000Y29684174D01*
X3034075Y29557007D01*
X3038120Y29550000D01*
X2012979Y29550000D01*
X2036935Y29398748D01*
X2109897Y29174197D01*
X2217082Y28963832D01*
X2355861Y28772819D01*
X2355867Y28772812D01*
X2522813Y28605866D01*
X2598386Y28550959D01*
X2643666Y28495041D01*
X2654921Y28423975D01*
X2629136Y28356803D01*
X2598384Y28326052D01*
X2587636Y28318243D01*
X2431761Y28162368D01*
X2431755Y28162361D01*
X2302192Y27984033D01*
X2302187Y27984026D01*
X2302185Y27984022D01*
X2202105Y27787606D01*
X2202105Y27787605D01*
X2133986Y27577958D01*
X2133985Y27577951D01*
X2099500Y27360222D01*
X2099500Y27139778D01*
X2103986Y27111457D01*
X2133986Y26922041D01*
X2202105Y26712394D01*
X2302187Y26515973D01*
X2302192Y26515966D01*
X2431755Y26337638D01*
X2431761Y26337631D01*
X2587632Y26181760D01*
X2598389Y26173945D01*
X2643668Y26118026D01*
X2654921Y26046960D01*
X2629134Y25979788D01*
X2598386Y25949041D01*
X2522813Y25894133D01*
X2355867Y25727187D01*
X2355861Y25727180D01*
X2217082Y25536167D01*
X2109897Y25325802D01*
X2036935Y25101251D01*
X2012979Y24950000D01*
X3038120Y24950000D01*
X3034075Y24942993D01*
X3000000Y24815826D01*
X3000000Y24684174D01*
X3034075Y24557007D01*
X3038120Y24550000D01*
X2012979Y24550000D01*
X2036935Y24398748D01*
X2109897Y24174197D01*
X2217082Y23963832D01*
X2355861Y23772819D01*
X2355867Y23772812D01*
X2522813Y23605866D01*
X2598386Y23550959D01*
X2643666Y23495041D01*
X2654921Y23423975D01*
X2629136Y23356803D01*
X2598384Y23326052D01*
X2587636Y23318243D01*
X2431761Y23162368D01*
X2431755Y23162361D01*
X2302192Y22984033D01*
X2302187Y22984026D01*
X2302185Y22984022D01*
X2202105Y22787606D01*
X2202105Y22787605D01*
X2133986Y22577958D01*
X2133985Y22577951D01*
X2099500Y22360222D01*
X2099500Y22360218D01*
X2099500Y22139781D01*
X2133986Y21922041D01*
X2202105Y21712394D01*
X2302187Y21515973D01*
X2302192Y21515966D01*
X2431755Y21337638D01*
X2431761Y21337631D01*
X2587631Y21181761D01*
X2587638Y21181755D01*
X2683025Y21112453D01*
X2728306Y21056536D01*
X2739562Y20985470D01*
X2713776Y20918298D01*
X2683025Y20887547D01*
X2659068Y20870141D01*
X2587635Y20818242D01*
X2587631Y20818238D01*
X2431761Y20662368D01*
X2431755Y20662361D01*
X2302192Y20484033D01*
X2302187Y20484026D01*
X2302185Y20484022D01*
X2202105Y20287606D01*
X2202105Y20287605D01*
X2133986Y20077958D01*
X2133985Y20077951D01*
X2099500Y19860222D01*
X2099500Y19639778D01*
X2102086Y19623453D01*
X2133986Y19422041D01*
X2202105Y19212394D01*
X2302187Y19015973D01*
X2302192Y19015966D01*
X2431755Y18837638D01*
X2431761Y18837631D01*
X2587631Y18681761D01*
X2587638Y18681755D01*
X2765966Y18552192D01*
X2765973Y18552187D01*
X2962394Y18452105D01*
X3172041Y18383986D01*
X3250390Y18371576D01*
X3389778Y18349500D01*
X3519424Y18349500D01*
X3588924Y18330878D01*
X3617712Y18308788D01*
X12000536Y9925965D01*
X12000535Y9925964D01*
X12125962Y9800538D01*
X12125963Y9800537D01*
X12273450Y9701988D01*
X12307752Y9687780D01*
X12307751Y9687779D01*
X12437334Y9634104D01*
X12437338Y9634103D01*
X12611308Y9599500D01*
X12611309Y9599500D01*
X22744424Y9599500D01*
X22813924Y9580878D01*
X22842712Y9558788D01*
X30625964Y1775536D01*
X30699709Y1726261D01*
X30724290Y1709836D01*
X30773451Y1676987D01*
X30773454Y1676986D01*
X30821449Y1657104D01*
X30821450Y1657105D01*
X30937336Y1609104D01*
X30937334Y1609104D01*
X31111308Y1574500D01*
X74943692Y1574500D01*
X75117661Y1609103D01*
X75117665Y1609104D01*
X75192794Y1640224D01*
X75192796Y1640225D01*
X75199606Y1643046D01*
X75281547Y1676987D01*
X75369959Y1736063D01*
X75429036Y1775536D01*
X78339464Y4685965D01*
X78377423Y4742775D01*
X78438013Y4833453D01*
X78457895Y4881452D01*
X78478399Y4930954D01*
X78478853Y4931795D01*
X78726106Y4931795D01*
X78730769Y4916172D01*
X78741897Y4889309D01*
X78741997Y4878553D01*
X78743031Y4875091D01*
X78742067Y4871041D01*
X78742212Y4855602D01*
X78729500Y4742783D01*
X78729500Y3827229D01*
X78729501Y3827215D01*
X78744374Y3695207D01*
X78744376Y3695199D01*
X78802943Y3527824D01*
X78897286Y3377680D01*
X79022680Y3252286D01*
X79172824Y3157943D01*
X79340203Y3099374D01*
X79472222Y3084500D01*
X79472225Y3084500D01*
X80387770Y3084500D01*
X80387784Y3084501D01*
X80519792Y3099374D01*
X80519795Y3099374D01*
X80519797Y3099375D01*
X80519800Y3099376D01*
X80687175Y3157943D01*
X80837319Y3252286D01*
X80837322Y3252288D01*
X80962712Y3377678D01*
X81057057Y3527826D01*
X81115625Y3695203D01*
X81130500Y3827225D01*
X81130499Y4387309D01*
X83710000Y4387309D01*
X83710000Y4182690D01*
X83742010Y3980582D01*
X83805243Y3785972D01*
X83898139Y3603652D01*
X83898139Y3603651D01*
X83960278Y3518122D01*
X84631794Y4189637D01*
X84646578Y4134466D01*
X84697923Y4045535D01*
X84770535Y3972923D01*
X84859466Y3921578D01*
X84914637Y3906794D01*
X84243122Y3235278D01*
X84328651Y3173139D01*
X84510972Y3080243D01*
X84705582Y3017010D01*
X84907690Y2985000D01*
X85112310Y2985000D01*
X85314417Y3017010D01*
X85509027Y3080243D01*
X85691347Y3173139D01*
X85691348Y3173139D01*
X85776876Y3235278D01*
X85105361Y3906794D01*
X85160534Y3921578D01*
X85249465Y3972923D01*
X85322077Y4045535D01*
X85373422Y4134466D01*
X85388204Y4189636D01*
X86059720Y3518122D01*
X86121860Y3603651D01*
X86121860Y3603652D01*
X86214756Y3785972D01*
X86277989Y3980582D01*
X86310000Y4182690D01*
X86310000Y4387309D01*
X86277989Y4589417D01*
X86214756Y4784027D01*
X86121862Y4966345D01*
X86059720Y5051876D01*
X86059719Y5051876D01*
X85388205Y4380362D01*
X85373422Y4435534D01*
X85322077Y4524465D01*
X85249465Y4597077D01*
X85160534Y4648422D01*
X85105362Y4663205D01*
X85776876Y5334719D01*
X85776876Y5334720D01*
X85691345Y5396862D01*
X85509027Y5489756D01*
X85314417Y5552989D01*
X85112310Y5585000D01*
X84907690Y5585000D01*
X84705582Y5552989D01*
X84510972Y5489756D01*
X84328652Y5396860D01*
X84328651Y5396860D01*
X84243122Y5334720D01*
X84914636Y4663204D01*
X84859466Y4648422D01*
X84770535Y4597077D01*
X84697923Y4524465D01*
X84646578Y4435534D01*
X84631794Y4380360D01*
X83960278Y5051876D01*
X83898139Y4966348D01*
X83898139Y4966347D01*
X83805243Y4784027D01*
X83742010Y4589417D01*
X83710000Y4387309D01*
X81130499Y4387309D01*
X81130499Y4742774D01*
X81115625Y4874797D01*
X81057057Y5042174D01*
X80962712Y5192322D01*
X80837322Y5317712D01*
X80687174Y5412057D01*
X80519797Y5470625D01*
X80387775Y5485500D01*
X79472226Y5485499D01*
X79472220Y5485498D01*
X79472215Y5485498D01*
X79426431Y5480339D01*
X79340203Y5470625D01*
X79172826Y5412057D01*
X79022678Y5317712D01*
X78897288Y5192322D01*
X78897286Y5192319D01*
X78802942Y5042174D01*
X78802941Y5042171D01*
X78788866Y5001948D01*
X78748334Y4942499D01*
X78726106Y4931795D01*
X78478853Y4931795D01*
X78481794Y4937237D01*
X78501764Y4958369D01*
X78519468Y4981441D01*
X78526205Y4984231D01*
X78531214Y4989532D01*
X78536040Y4990972D01*
X78521090Y5022018D01*
X78521337Y5074972D01*
X78540500Y5171308D01*
X78540500Y5348692D01*
X78540500Y6919481D01*
X81269500Y6919481D01*
X81269500Y6730519D01*
X81276972Y6683343D01*
X81299060Y6543881D01*
X81357453Y6364166D01*
X81443237Y6195804D01*
X81554307Y6042929D01*
X81687929Y5909307D01*
X81840804Y5798237D01*
X82009166Y5712453D01*
X82188881Y5654060D01*
X82249754Y5644419D01*
X82375519Y5624500D01*
X82375521Y5624500D01*
X82564479Y5624500D01*
X82564481Y5624500D01*
X82751118Y5654060D01*
X82763472Y5658074D01*
X82930833Y5712453D01*
X83099195Y5798237D01*
X83252070Y5909307D01*
X83385692Y6042929D01*
X83496762Y6195804D01*
X83582546Y6364166D01*
X83582547Y6364168D01*
X83640940Y6543882D01*
X83667505Y6711611D01*
X109899500Y6711611D01*
X109899500Y6461611D01*
X109899500Y6288389D01*
X109926598Y6117299D01*
X109926599Y6117296D01*
X109980125Y5952560D01*
X109980128Y5952553D01*
X110058763Y5798219D01*
X110058771Y5798206D01*
X110160583Y5658074D01*
X113208074Y2610583D01*
X113348206Y2508771D01*
X113348219Y2508763D01*
X113502553Y2430128D01*
X113502560Y2430125D01*
X113656920Y2379970D01*
X113667299Y2376598D01*
X113838389Y2349500D01*
X113838390Y2349500D01*
X113838392Y2349500D01*
X116361608Y2349500D01*
X116361611Y2349500D01*
X116532701Y2376598D01*
X116697445Y2430127D01*
X116750968Y2457398D01*
X116851780Y2508763D01*
X116851793Y2508771D01*
X116991925Y2610583D01*
X117114416Y2733074D01*
X117216228Y2873206D01*
X117216236Y2873219D01*
X117280578Y2999500D01*
X117294873Y3027555D01*
X117348402Y3192299D01*
X117375500Y3363389D01*
X117375500Y3536611D01*
X117348402Y3707701D01*
X117294873Y3872445D01*
X117216232Y4026788D01*
X117114414Y4166928D01*
X116991928Y4289414D01*
X116851788Y4391232D01*
X116697445Y4469873D01*
X116532701Y4523402D01*
X116361611Y4550500D01*
X116361608Y4550500D01*
X114438418Y4550500D01*
X114368918Y4569122D01*
X114340130Y4591212D01*
X113800222Y5131120D01*
X112108915Y6822425D01*
X112075008Y6877757D01*
X112072206Y6886382D01*
X112019873Y7047445D01*
X111941232Y7201788D01*
X111839414Y7341928D01*
X111716928Y7464414D01*
X111576788Y7566232D01*
X111422445Y7644873D01*
X111257701Y7698402D01*
X111086611Y7725500D01*
X110913389Y7725500D01*
X110742299Y7698402D01*
X110577555Y7644873D01*
X110503368Y7607073D01*
X110423219Y7566236D01*
X110423206Y7566228D01*
X110283074Y7464416D01*
X110160583Y7341925D01*
X110058771Y7201793D01*
X110058763Y7201780D01*
X110023912Y7133379D01*
X109980127Y7047445D01*
X109926598Y6882701D01*
X109899500Y6711611D01*
X83667505Y6711611D01*
X83670500Y6730519D01*
X83670500Y6919481D01*
X83640940Y7106118D01*
X83582547Y7285832D01*
X83496760Y7454199D01*
X83385690Y7607073D01*
X83252073Y7740690D01*
X83099199Y7851760D01*
X82930832Y7937547D01*
X82751118Y7995940D01*
X82564481Y8025500D01*
X82375519Y8025500D01*
X82188882Y7995940D01*
X82009168Y7937547D01*
X82009166Y7937546D01*
X81840804Y7851762D01*
X81687929Y7740692D01*
X81554307Y7607070D01*
X81443237Y7454195D01*
X81357453Y7285833D01*
X81307918Y7133379D01*
X81299060Y7106118D01*
X81269500Y6919481D01*
X78540500Y6919481D01*
X78540500Y10688691D01*
X78505894Y10862666D01*
X78438013Y11026547D01*
X78339464Y11174035D01*
X78214035Y11299464D01*
X78066547Y11398013D01*
X77946873Y11447582D01*
X77902669Y11465893D01*
X77902666Y11465894D01*
X77728691Y11500500D01*
X77551309Y11500500D01*
X77464321Y11483197D01*
X77377333Y11465894D01*
X77377330Y11465893D01*
X77264415Y11419122D01*
X77213453Y11398013D01*
X77065965Y11299464D01*
X76940536Y11174035D01*
X76841988Y11026548D01*
X76841985Y11026543D01*
X76774106Y10862669D01*
X76774105Y10862666D01*
X76739500Y10688690D01*
X76739500Y5690575D01*
X76720878Y5621075D01*
X76698788Y5592287D01*
X74522712Y3416212D01*
X74460400Y3380236D01*
X74424424Y3375500D01*
X31630576Y3375500D01*
X31561076Y3394122D01*
X31532288Y3416212D01*
X28318642Y6629858D01*
X34150000Y6629858D01*
X34150000Y6370141D01*
X34190630Y6113617D01*
X34270885Y5866620D01*
X34388796Y5635207D01*
X34388801Y5635200D01*
X34499707Y5482551D01*
X35352392Y6335235D01*
X35357370Y6316657D01*
X35419905Y6208343D01*
X35508343Y6119905D01*
X35616657Y6057370D01*
X35635235Y6052392D01*
X34782551Y5199707D01*
X34935200Y5088801D01*
X34935207Y5088796D01*
X35166620Y4970885D01*
X35413617Y4890630D01*
X35670141Y4850000D01*
X35929858Y4850000D01*
X36186382Y4890630D01*
X36433379Y4970885D01*
X36664791Y5088796D01*
X36817447Y5199707D01*
X35964764Y6052391D01*
X35983343Y6057370D01*
X36091657Y6119905D01*
X36180095Y6208343D01*
X36242630Y6316657D01*
X36247607Y6335233D01*
X37100290Y5482551D01*
X37100291Y5482551D01*
X37211203Y5635208D01*
X37329114Y5866620D01*
X37409369Y6113617D01*
X37449999Y6370141D01*
X37450000Y6370147D01*
X37450000Y6629852D01*
X37449999Y6629858D01*
X37409369Y6886382D01*
X37329114Y7133379D01*
X37211203Y7364791D01*
X37100291Y7517447D01*
X37100290Y7517447D01*
X36247607Y6664764D01*
X36242630Y6683343D01*
X36180095Y6791657D01*
X36091657Y6880095D01*
X35983343Y6942630D01*
X35964764Y6947607D01*
X36817447Y7800290D01*
X36817447Y7800291D01*
X36664791Y7911203D01*
X36433379Y8029114D01*
X36186382Y8109369D01*
X35929858Y8149999D01*
X35929853Y8150000D01*
X35670147Y8150000D01*
X35670141Y8149999D01*
X35413617Y8109369D01*
X35166620Y8029114D01*
X34935208Y7911203D01*
X34782551Y7800291D01*
X34782551Y7800290D01*
X35635233Y6947607D01*
X35616657Y6942630D01*
X35508343Y6880095D01*
X35419905Y6791657D01*
X35357370Y6683343D01*
X35352391Y6664763D01*
X34499707Y7517447D01*
X34388796Y7364791D01*
X34270885Y7133379D01*
X34190630Y6886382D01*
X34150000Y6629858D01*
X28318642Y6629858D01*
X27299474Y7649026D01*
X26412894Y8535606D01*
X23749036Y11199464D01*
X23684927Y11242300D01*
X23601547Y11298013D01*
X23518644Y11332352D01*
X23437666Y11365895D01*
X23437663Y11365895D01*
X23437662Y11365896D01*
X23263692Y11400500D01*
X23263691Y11400500D01*
X13130575Y11400500D01*
X13061075Y11419122D01*
X13032287Y11441212D01*
X9770276Y14703223D01*
X6331887Y18141611D01*
X20619500Y18141611D01*
X20619500Y18141607D01*
X20619500Y17968392D01*
X20646598Y17797298D01*
X20700129Y17632550D01*
X20754543Y17525754D01*
X20762888Y17505607D01*
X20780124Y17452560D01*
X20780128Y17452552D01*
X20858763Y17298219D01*
X20858771Y17298206D01*
X20960583Y17158074D01*
X27458074Y10660583D01*
X27598215Y10558765D01*
X27752549Y10480129D01*
X27752551Y10480128D01*
X27752554Y10480127D01*
X27900713Y10431987D01*
X27900714Y10431986D01*
X27900715Y10431986D01*
X27917290Y10426600D01*
X27917295Y10426599D01*
X27917299Y10426598D01*
X28088389Y10399500D01*
X34231514Y10399500D01*
X34301014Y10380878D01*
X34349819Y10333472D01*
X34409915Y10236041D01*
X34536041Y10109915D01*
X34536040Y10109915D01*
X34687844Y10016281D01*
X34857157Y9960176D01*
X34857162Y9960175D01*
X34961655Y9949500D01*
X34961659Y9949500D01*
X36638340Y9949500D01*
X36638347Y9949501D01*
X36742839Y9960175D01*
X36742841Y9960175D01*
X36855385Y9997469D01*
X36912153Y10016280D01*
X36923217Y10023104D01*
X37063958Y10109915D01*
X37063961Y10109917D01*
X37190083Y10236039D01*
X37283720Y10387847D01*
X37339824Y10557158D01*
X37350500Y10661659D01*
X37350499Y12338340D01*
X37339824Y12442842D01*
X37283720Y12612153D01*
X37190083Y12763961D01*
X37063961Y12890083D01*
X36912153Y12983720D01*
X36742842Y13039824D01*
X36638341Y13050500D01*
X34961660Y13050499D01*
X34961659Y13050499D01*
X34961656Y13050498D01*
X34857158Y13039824D01*
X34687847Y12983720D01*
X34536039Y12890083D01*
X34409917Y12763961D01*
X34409915Y12763958D01*
X34349819Y12666528D01*
X34297483Y12617152D01*
X34231514Y12600500D01*
X28688418Y12600500D01*
X28618918Y12619122D01*
X28590130Y12641212D01*
X27657306Y13574036D01*
X26542803Y14688539D01*
X67419500Y14688539D01*
X67419500Y8956459D01*
X67438724Y8859812D01*
X67454859Y8778695D01*
X67457949Y8763164D01*
X67533364Y8581093D01*
X67533367Y8581088D01*
X67533368Y8581086D01*
X67536708Y8576088D01*
X67642859Y8417220D01*
X67782211Y8277868D01*
X67787220Y8272860D01*
X67868598Y8218485D01*
X67951086Y8163369D01*
X67951087Y8163368D01*
X67951088Y8163368D01*
X67951093Y8163365D01*
X68133161Y8087949D01*
X68133167Y8087947D01*
X68302463Y8054273D01*
X68326460Y8049500D01*
X68326461Y8049500D01*
X68523539Y8049500D01*
X68523540Y8049500D01*
X68550938Y8054949D01*
X68716832Y8087947D01*
X68716838Y8087949D01*
X68898906Y8163365D01*
X68898909Y8163367D01*
X68898914Y8163369D01*
X69062781Y8272861D01*
X69202139Y8412219D01*
X69311631Y8576086D01*
X69337003Y8637339D01*
X69387050Y8758161D01*
X69387052Y8758167D01*
X69425500Y8951460D01*
X69425500Y9148539D01*
X69423171Y9160248D01*
X69420500Y9187366D01*
X69420500Y13088691D01*
X70999500Y13088691D01*
X70999500Y12911308D01*
X71034103Y12737337D01*
X71034104Y12737335D01*
X71064486Y12663988D01*
X71064489Y12663981D01*
X71067086Y12657713D01*
X71101987Y12573453D01*
X71152085Y12498477D01*
X71155888Y12492785D01*
X71155893Y12492776D01*
X71200538Y12425960D01*
X71284212Y12342287D01*
X71284213Y12342288D01*
X71345965Y12280536D01*
X71493451Y12181988D01*
X71493456Y12181985D01*
X71638649Y12121845D01*
X71657333Y12114106D01*
X71715325Y12102570D01*
X71831308Y12079500D01*
X71831309Y12079500D01*
X71831310Y12079500D01*
X91398692Y12079500D01*
X91572661Y12114103D01*
X91572665Y12114104D01*
X91647100Y12144936D01*
X91647106Y12144939D01*
X91654606Y12148046D01*
X91736547Y12181987D01*
X91849889Y12257720D01*
X91854483Y12260790D01*
X91854489Y12260793D01*
X91884036Y12280536D01*
X92110775Y12507275D01*
X92432287Y12828788D01*
X92494599Y12864764D01*
X92530575Y12869500D01*
X94693739Y12869500D01*
X94763239Y12850878D01*
X94792027Y12828788D01*
X94842780Y12778034D01*
X95008390Y12657712D01*
X95074849Y12623850D01*
X95128319Y12575705D01*
X95150554Y12507275D01*
X95135594Y12436895D01*
X95087449Y12383425D01*
X95074849Y12376150D01*
X95008391Y12342288D01*
X94842780Y12221965D01*
X94698034Y12077219D01*
X94577710Y11911606D01*
X94484781Y11729221D01*
X94484780Y11729219D01*
X94421523Y11534534D01*
X94389500Y11332352D01*
X94389500Y11332346D01*
X94389500Y11127647D01*
X94421523Y10925465D01*
X94484781Y10730778D01*
X94577710Y10548393D01*
X94698034Y10382780D01*
X94842784Y10238030D01*
X94989722Y10131274D01*
X95035003Y10075357D01*
X95046259Y10004291D01*
X95020473Y9937119D01*
X94971126Y9894972D01*
X94956241Y9887387D01*
X94956237Y9887385D01*
X94777964Y9757862D01*
X94777957Y9757856D01*
X94622143Y9602042D01*
X94622137Y9602035D01*
X94492615Y9423763D01*
X94392570Y9227414D01*
X94324474Y9017839D01*
X94304227Y8890000D01*
X95643589Y8890000D01*
X95617259Y8844394D01*
X95590000Y8742661D01*
X95590000Y8637339D01*
X95617259Y8535606D01*
X95643590Y8490000D01*
X94304227Y8490000D01*
X94324474Y8362160D01*
X94392570Y8152585D01*
X94492615Y7956236D01*
X94622137Y7777964D01*
X94622143Y7777957D01*
X94777957Y7622143D01*
X94777964Y7622137D01*
X94956236Y7492615D01*
X95152585Y7392570D01*
X95362161Y7324474D01*
X95579821Y7290000D01*
X95790000Y7290000D01*
X95790000Y8343589D01*
X95835606Y8317259D01*
X95937339Y8290000D01*
X96042661Y8290000D01*
X96144394Y8317259D01*
X96190000Y8343589D01*
X96190000Y7290000D01*
X96400179Y7290000D01*
X96617838Y7324474D01*
X96827414Y7392570D01*
X97023763Y7492615D01*
X97202035Y7622137D01*
X97202042Y7622143D01*
X97357856Y7777957D01*
X97357862Y7777964D01*
X97487384Y7956236D01*
X97587429Y8152585D01*
X97655525Y8362160D01*
X97675773Y8490000D01*
X96336410Y8490000D01*
X96362741Y8535606D01*
X96390000Y8637339D01*
X96390000Y8742661D01*
X96362741Y8844394D01*
X96336411Y8890000D01*
X97675773Y8890000D01*
X97655525Y9017839D01*
X97587429Y9227414D01*
X97487384Y9423763D01*
X97357862Y9602035D01*
X97357856Y9602042D01*
X97202042Y9757856D01*
X97202035Y9757862D01*
X97023762Y9887385D01*
X97023759Y9887386D01*
X97008875Y9894971D01*
X96955404Y9943115D01*
X96933170Y10011545D01*
X96948129Y10081925D01*
X96990277Y10131275D01*
X97137219Y10238034D01*
X97281965Y10382780D01*
X97285647Y10387847D01*
X97402287Y10548390D01*
X97407574Y10558765D01*
X97459997Y10661653D01*
X97495220Y10730781D01*
X97558477Y10925466D01*
X97590500Y11127648D01*
X97590500Y11332352D01*
X97558477Y11534534D01*
X97495220Y11729219D01*
X97402287Y11911610D01*
X97281966Y12077219D01*
X97137219Y12221966D01*
X96971610Y12342287D01*
X96941604Y12357576D01*
X96905151Y12376150D01*
X96851680Y12424295D01*
X96829446Y12492725D01*
X96844405Y12563104D01*
X96892550Y12616575D01*
X96905151Y12623850D01*
X96971606Y12657710D01*
X97137219Y12778034D01*
X97281965Y12922780D01*
X97374759Y13050500D01*
X97402287Y13088390D01*
X97402441Y13088691D01*
X97495218Y13270778D01*
X97495220Y13270781D01*
X97558477Y13465466D01*
X97590500Y13667648D01*
X97590500Y13872352D01*
X97558477Y14074534D01*
X97495220Y14269219D01*
X97402287Y14451610D01*
X97281966Y14617219D01*
X97137219Y14761966D01*
X97067195Y14812840D01*
X97021915Y14868756D01*
X97010658Y14939822D01*
X97036443Y15006995D01*
X97092359Y15052276D01*
X97105173Y15057238D01*
X97159332Y15075185D01*
X97159338Y15075188D01*
X97308656Y15167288D01*
X97432711Y15291343D01*
X97464865Y15343472D01*
X97524814Y15440666D01*
X97579999Y15607203D01*
X97590500Y15709991D01*
X97590499Y16412352D01*
X102009500Y16412352D01*
X102009500Y16207647D01*
X102041523Y16005465D01*
X102104781Y15810778D01*
X102197710Y15628393D01*
X102318034Y15462780D01*
X102462780Y15318034D01*
X102628390Y15197712D01*
X102694849Y15163850D01*
X102748319Y15115705D01*
X102770554Y15047275D01*
X102755594Y14976895D01*
X102707449Y14923425D01*
X102694849Y14916150D01*
X102628394Y14882289D01*
X102628390Y14882287D01*
X102462783Y14761967D01*
X102462780Y14761965D01*
X102318034Y14617219D01*
X102197710Y14451606D01*
X102104781Y14269221D01*
X102041523Y14074534D01*
X102009500Y13872352D01*
X102009500Y13667647D01*
X102041523Y13465465D01*
X102104781Y13270778D01*
X102197710Y13088393D01*
X102318034Y12922780D01*
X102462780Y12778034D01*
X102628390Y12657712D01*
X102694849Y12623850D01*
X102748319Y12575705D01*
X102770554Y12507275D01*
X102755594Y12436895D01*
X102707449Y12383425D01*
X102694849Y12376150D01*
X102628391Y12342288D01*
X102462780Y12221965D01*
X102318034Y12077219D01*
X102197710Y11911606D01*
X102104781Y11729221D01*
X102104780Y11729219D01*
X102041523Y11534534D01*
X102009500Y11332352D01*
X102009500Y11332346D01*
X102009500Y11127647D01*
X102041523Y10925465D01*
X102104781Y10730778D01*
X102197710Y10548393D01*
X102318034Y10382780D01*
X102462780Y10238034D01*
X102628390Y10117712D01*
X102694849Y10083850D01*
X102748319Y10035705D01*
X102770554Y9967275D01*
X102755594Y9896895D01*
X102707449Y9843425D01*
X102694849Y9836150D01*
X102628394Y9802289D01*
X102628390Y9802287D01*
X102470784Y9687780D01*
X102462780Y9681965D01*
X102318034Y9537219D01*
X102197710Y9371606D01*
X102124241Y9227414D01*
X102104780Y9189219D01*
X102084751Y9127576D01*
X102041523Y8994534D01*
X102009500Y8792352D01*
X102009500Y8587647D01*
X102041523Y8385465D01*
X102104781Y8190778D01*
X102197710Y8008393D01*
X102318034Y7842780D01*
X102462780Y7698034D01*
X102628393Y7577710D01*
X102810778Y7484781D01*
X103005465Y7421523D01*
X103207647Y7389500D01*
X103207648Y7389500D01*
X104012352Y7389500D01*
X104214534Y7421523D01*
X104315100Y7454199D01*
X104409219Y7484780D01*
X104424596Y7492615D01*
X104591606Y7577710D01*
X104757219Y7698034D01*
X104901965Y7842780D01*
X104908490Y7851760D01*
X105022287Y8008390D01*
X105032847Y8029114D01*
X105073738Y8109369D01*
X105115220Y8190781D01*
X105178477Y8385466D01*
X105210500Y8587648D01*
X105210500Y8792352D01*
X105178477Y8994534D01*
X105115220Y9189219D01*
X105022287Y9371610D01*
X104901966Y9537219D01*
X104757219Y9681966D01*
X104591610Y9802287D01*
X104585769Y9805262D01*
X104525151Y9836150D01*
X104471680Y9884295D01*
X104449446Y9952725D01*
X104464405Y10023104D01*
X104512550Y10076575D01*
X104525151Y10083850D01*
X104591606Y10117710D01*
X104757219Y10238034D01*
X104901965Y10382780D01*
X104905647Y10387847D01*
X105022287Y10548390D01*
X105027574Y10558765D01*
X105079997Y10661653D01*
X105115220Y10730781D01*
X105178477Y10925466D01*
X105210500Y11127648D01*
X105210500Y11332352D01*
X105178477Y11534534D01*
X105115220Y11729219D01*
X105022287Y11911610D01*
X104901966Y12077219D01*
X104757219Y12221966D01*
X104591610Y12342287D01*
X104561604Y12357576D01*
X104525151Y12376150D01*
X104471680Y12424295D01*
X104449446Y12492725D01*
X104464405Y12563104D01*
X104512550Y12616575D01*
X104525151Y12623850D01*
X104591606Y12657710D01*
X104757219Y12778034D01*
X104901965Y12922780D01*
X104994759Y13050500D01*
X105022287Y13088390D01*
X105022441Y13088691D01*
X105115218Y13270778D01*
X105115220Y13270781D01*
X105178477Y13465466D01*
X105210500Y13667648D01*
X105210500Y13872352D01*
X105178477Y14074534D01*
X105115220Y14269219D01*
X105022287Y14451610D01*
X104901966Y14617219D01*
X104757219Y14761966D01*
X104591610Y14882287D01*
X104585769Y14885262D01*
X104525151Y14916150D01*
X104471680Y14964295D01*
X104449446Y15032725D01*
X104464405Y15103104D01*
X104512550Y15156575D01*
X104525151Y15163850D01*
X104591606Y15197710D01*
X104757219Y15318034D01*
X104901965Y15462780D01*
X104937715Y15511985D01*
X105022287Y15628390D01*
X105115220Y15810781D01*
X105178477Y16005466D01*
X105210500Y16207648D01*
X105210500Y16412352D01*
X105178477Y16614534D01*
X105115220Y16809219D01*
X105022287Y16991610D01*
X104901966Y17157219D01*
X104757219Y17301966D01*
X104591610Y17422287D01*
X104409219Y17515220D01*
X104214534Y17578477D01*
X104012352Y17610500D01*
X103207648Y17610500D01*
X103005466Y17578477D01*
X102810781Y17515220D01*
X102719585Y17468753D01*
X102628393Y17422289D01*
X102462780Y17301965D01*
X102318034Y17157219D01*
X102197710Y16991606D01*
X102139128Y16876631D01*
X102104780Y16809219D01*
X102081166Y16736543D01*
X102041523Y16614534D01*
X102009500Y16412352D01*
X97590499Y16412352D01*
X97590499Y16910008D01*
X97579999Y17012797D01*
X97524814Y17179334D01*
X97432712Y17328656D01*
X97308656Y17452712D01*
X97159334Y17544814D01*
X96992797Y17599999D01*
X96890009Y17610500D01*
X95089992Y17610499D01*
X95089991Y17610499D01*
X95089988Y17610498D01*
X94987203Y17599999D01*
X94820666Y17544814D01*
X94671344Y17452712D01*
X94671343Y17452711D01*
X94547288Y17328656D01*
X94515135Y17276528D01*
X94462799Y17227152D01*
X94396830Y17210500D01*
X84231309Y17210500D01*
X84144321Y17193197D01*
X84057333Y17175894D01*
X84057330Y17175893D01*
X83937660Y17126324D01*
X83893453Y17108013D01*
X83745965Y17009464D01*
X83620536Y16884035D01*
X83521988Y16736548D01*
X83521985Y16736543D01*
X83454106Y16572669D01*
X83454105Y16572666D01*
X83419500Y16398690D01*
X83419500Y16221309D01*
X83454105Y16047333D01*
X83454106Y16047330D01*
X83521985Y15883456D01*
X83521988Y15883451D01*
X83620536Y15735965D01*
X83745965Y15610536D01*
X83893451Y15511988D01*
X83893456Y15511985D01*
X84057330Y15444106D01*
X84057333Y15444105D01*
X84206552Y15414424D01*
X84231309Y15409500D01*
X94396830Y15409500D01*
X94466330Y15390878D01*
X94515135Y15343472D01*
X94547288Y15291343D01*
X94671343Y15167288D01*
X94820661Y15075188D01*
X94820664Y15075186D01*
X94874827Y15057238D01*
X94876432Y15056182D01*
X94878346Y15056019D01*
X94906390Y15036477D01*
X94934940Y15017698D01*
X94935801Y15015982D01*
X94937379Y15014883D01*
X94951897Y14983931D01*
X94967231Y14953399D01*
X94967119Y14951481D01*
X94967935Y14949742D01*
X94965034Y14915694D01*
X94963046Y14881569D01*
X94961990Y14879963D01*
X94961827Y14878050D01*
X94953065Y14866395D01*
X94923506Y14821456D01*
X94920691Y14819017D01*
X94916856Y14815784D01*
X94842781Y14761966D01*
X94787849Y14707034D01*
X94783328Y14703223D01*
X94755929Y14690371D01*
X94729715Y14675236D01*
X94721302Y14674128D01*
X94718187Y14672667D01*
X94713338Y14673080D01*
X94693739Y14670500D01*
X92011309Y14670500D01*
X91837338Y14635896D01*
X91837334Y14635895D01*
X91721452Y14587895D01*
X91673453Y14568013D01*
X91558884Y14491460D01*
X91525965Y14469464D01*
X91013159Y13956659D01*
X90977712Y13921212D01*
X90915400Y13885236D01*
X90879424Y13880500D01*
X72102929Y13880500D01*
X72075812Y13883171D01*
X71988692Y13900500D01*
X71811308Y13900500D01*
X71637337Y13865896D01*
X71637335Y13865895D01*
X71637334Y13865895D01*
X71555393Y13831953D01*
X71473453Y13798013D01*
X71385040Y13738936D01*
X71325964Y13699464D01*
X71325962Y13699462D01*
X71200535Y13574035D01*
X71189299Y13557219D01*
X71189293Y13557209D01*
X71187173Y13554036D01*
X71101987Y13426547D01*
X71082367Y13379179D01*
X71078596Y13370076D01*
X71078595Y13370074D01*
X71034105Y13262668D01*
X71034103Y13262662D01*
X70999500Y13088691D01*
X69420500Y13088691D01*
X69420500Y14118004D01*
X69439122Y14187504D01*
X69461212Y14216292D01*
X70006887Y14761967D01*
X70597139Y15352219D01*
X70706631Y15516086D01*
X70745754Y15610536D01*
X70782050Y15698161D01*
X70782052Y15698167D01*
X70820500Y15891460D01*
X70820500Y16088539D01*
X70782052Y16281832D01*
X70782050Y16281838D01*
X70733648Y16398690D01*
X70706631Y16463914D01*
X70597139Y16627781D01*
X70457781Y16767139D01*
X70293914Y16876631D01*
X70111836Y16952051D01*
X70111833Y16952051D01*
X70111832Y16952052D01*
X70013882Y16971535D01*
X69918540Y16990500D01*
X69721460Y16990500D01*
X69657611Y16977799D01*
X69528167Y16952052D01*
X69528161Y16952050D01*
X69363958Y16884034D01*
X69346086Y16876631D01*
X69182219Y16767139D01*
X68462414Y16047334D01*
X67787077Y15371997D01*
X67787067Y15371988D01*
X67782218Y15367139D01*
X67642861Y15227782D01*
X67533368Y15063914D01*
X67533367Y15063911D01*
X67533364Y15063906D01*
X67457949Y14881838D01*
X67457949Y14881837D01*
X67444225Y14812840D01*
X67422421Y14703223D01*
X67419500Y14688539D01*
X26542803Y14688539D01*
X22820867Y18410473D01*
X22795311Y18445648D01*
X22741232Y18551788D01*
X22740938Y18552192D01*
X22683108Y18631788D01*
X22639414Y18691928D01*
X22516928Y18814414D01*
X22436928Y18894414D01*
X22296788Y18996232D01*
X22142445Y19074873D01*
X21977701Y19128402D01*
X21806611Y19155500D01*
X21633389Y19155500D01*
X21462299Y19128402D01*
X21297555Y19074873D01*
X21190507Y19020330D01*
X21143219Y18996236D01*
X21143206Y18996228D01*
X21003074Y18894416D01*
X20880583Y18771925D01*
X20778771Y18631793D01*
X20778763Y18631780D01*
X20738010Y18551795D01*
X20700127Y18477445D01*
X20646598Y18312701D01*
X20619500Y18141611D01*
X6331887Y18141611D01*
X4940937Y19532561D01*
X4931712Y19548539D01*
X4918694Y19561617D01*
X4915199Y19577141D01*
X4904963Y19594871D01*
X4900227Y19631158D01*
X4900242Y19638153D01*
X4900500Y19639778D01*
X4900500Y19860222D01*
X4866015Y20077951D01*
X4797895Y20287606D01*
X4697815Y20484022D01*
X4568242Y20662365D01*
X4412365Y20818242D01*
X4340932Y20870141D01*
X4316975Y20887547D01*
X4305876Y20901252D01*
X4291509Y20911479D01*
X4283628Y20928726D01*
X4271694Y20943464D01*
X4268935Y20960883D01*
X4261606Y20976923D01*
X4263404Y20995798D01*
X4260438Y21014530D01*
X4266759Y21030996D01*
X4268432Y21048550D01*
X4278672Y21062031D01*
X4286224Y21081702D01*
X4310156Y21107168D01*
X4313486Y21109919D01*
X4340930Y21129858D01*
X34150000Y21129858D01*
X34150000Y20870141D01*
X34190630Y20613617D01*
X34270885Y20366620D01*
X34388796Y20135207D01*
X34388801Y20135200D01*
X34499707Y19982551D01*
X35352392Y20835235D01*
X35357370Y20816657D01*
X35419905Y20708343D01*
X35508343Y20619905D01*
X35616657Y20557370D01*
X35635235Y20552392D01*
X34782551Y19699707D01*
X34935200Y19588801D01*
X34935207Y19588796D01*
X35166620Y19470885D01*
X35413617Y19390630D01*
X35670141Y19350000D01*
X35929858Y19350000D01*
X36186382Y19390630D01*
X36433379Y19470885D01*
X36664791Y19588796D01*
X36817447Y19699707D01*
X35964764Y20552391D01*
X35983343Y20557370D01*
X36091657Y20619905D01*
X36180095Y20708343D01*
X36242630Y20816657D01*
X36247607Y20835233D01*
X37100290Y19982551D01*
X37100291Y19982551D01*
X37211203Y20135208D01*
X37329114Y20366620D01*
X37409369Y20613617D01*
X37449999Y20870141D01*
X37450000Y20870147D01*
X37450000Y21129852D01*
X37449999Y21129858D01*
X37409369Y21386382D01*
X37329114Y21633379D01*
X37211203Y21864791D01*
X37100291Y22017447D01*
X37100290Y22017447D01*
X36247607Y21164764D01*
X36242630Y21183343D01*
X36180095Y21291657D01*
X36091657Y21380095D01*
X35983343Y21442630D01*
X35964764Y21447607D01*
X36817447Y22300290D01*
X36817447Y22300291D01*
X36664791Y22411203D01*
X36433379Y22529114D01*
X36186382Y22609369D01*
X35929858Y22649999D01*
X35929853Y22650000D01*
X35670147Y22650000D01*
X35670141Y22649999D01*
X35413617Y22609369D01*
X35166620Y22529114D01*
X34935208Y22411203D01*
X34782551Y22300291D01*
X34782551Y22300290D01*
X35635233Y21447607D01*
X35616657Y21442630D01*
X35508343Y21380095D01*
X35419905Y21291657D01*
X35357370Y21183343D01*
X35352391Y21164763D01*
X34499707Y22017447D01*
X34388796Y21864791D01*
X34270885Y21633379D01*
X34190630Y21386382D01*
X34150000Y21129858D01*
X4340930Y21129858D01*
X4412365Y21181758D01*
X4568242Y21337635D01*
X4668043Y21475000D01*
X4697807Y21515966D01*
X4697812Y21515973D01*
X4757634Y21633379D01*
X4797895Y21712394D01*
X4847411Y21864791D01*
X4866013Y21922041D01*
X4866013Y21922044D01*
X4866015Y21922049D01*
X4900500Y22139778D01*
X4900500Y22360222D01*
X4866015Y22577951D01*
X4797895Y22787606D01*
X4697815Y22984022D01*
X4568242Y23162365D01*
X4412365Y23318242D01*
X4401615Y23326051D01*
X4356335Y23381965D01*
X4345077Y23453030D01*
X4370859Y23520204D01*
X4401614Y23550959D01*
X4477180Y23605861D01*
X4477187Y23605867D01*
X4644132Y23772812D01*
X4644138Y23772819D01*
X4782917Y23963832D01*
X4890102Y24174197D01*
X4963064Y24398748D01*
X4987021Y24550000D01*
X3961880Y24550000D01*
X3965925Y24557007D01*
X4000000Y24684174D01*
X4000000Y24815826D01*
X3965925Y24942993D01*
X3961880Y24950000D01*
X4987020Y24950000D01*
X4963064Y25101251D01*
X4890102Y25325802D01*
X4782917Y25536167D01*
X4644138Y25727180D01*
X4644132Y25727187D01*
X4477187Y25894132D01*
X4477183Y25894135D01*
X4401614Y25949039D01*
X4356333Y26004955D01*
X4345076Y26076021D01*
X4370861Y26143194D01*
X4401611Y26173945D01*
X4412365Y26181758D01*
X4568242Y26337635D01*
X4669043Y26476376D01*
X4697807Y26515966D01*
X4697812Y26515973D01*
X4697815Y26515978D01*
X4797895Y26712394D01*
X4854064Y26885266D01*
X4866013Y26922041D01*
X4866013Y26922044D01*
X4866015Y26922049D01*
X4900500Y27139778D01*
X4900500Y27360222D01*
X4866015Y27577951D01*
X4797895Y27787606D01*
X4697815Y27984022D01*
X4568242Y28162365D01*
X4412365Y28318242D01*
X4401615Y28326051D01*
X4356335Y28381965D01*
X4345077Y28453030D01*
X4370859Y28520204D01*
X4401614Y28550959D01*
X4477180Y28605861D01*
X4477187Y28605867D01*
X4644132Y28772812D01*
X4644138Y28772819D01*
X4782917Y28963832D01*
X4890102Y29174197D01*
X4963064Y29398748D01*
X4987021Y29550000D01*
X3961880Y29550000D01*
X3965925Y29557007D01*
X4000000Y29684174D01*
X4000000Y29815826D01*
X3965925Y29942993D01*
X3961880Y29950000D01*
X4987020Y29950000D01*
X4963064Y30101251D01*
X4890102Y30325802D01*
X4782917Y30536167D01*
X4644138Y30727180D01*
X4644132Y30727187D01*
X4594768Y30776551D01*
X4558792Y30838863D01*
X4558791Y30910815D01*
X4594766Y30973127D01*
X4620083Y30993145D01*
X4631421Y31000138D01*
X4631424Y31000140D01*
X4749860Y31118576D01*
X4837790Y31261132D01*
X4890475Y31420125D01*
X4900500Y31518253D01*
X4900499Y32981746D01*
X4890475Y33079875D01*
X4837790Y33238868D01*
X4749860Y33381424D01*
X4631424Y33499860D01*
X4488868Y33587790D01*
X4329875Y33640475D01*
X4231747Y33650500D01*
X2768254Y33650499D01*
X2768253Y33650499D01*
X2768250Y33650498D01*
X2670125Y33640475D01*
X2511132Y33587790D01*
X2368576Y33499860D01*
X2250140Y33381424D01*
X2250138Y33381421D01*
X2162210Y33238868D01*
X2109525Y33079875D01*
X2109524Y33079870D01*
X2099500Y32981752D01*
X2099500Y31518253D01*
X2099501Y31518246D01*
X2109524Y31420127D01*
X2109524Y31420125D01*
X2162210Y31261131D01*
X2250138Y31118578D01*
X2368578Y31000138D01*
X2379918Y30993144D01*
X2429293Y30940807D01*
X2445885Y30870794D01*
X2425248Y30801866D01*
X2405232Y30776552D01*
X2355867Y30727187D01*
X2355861Y30727180D01*
X2217082Y30536167D01*
X2109897Y30325802D01*
X2036935Y30101251D01*
X2012979Y29950000D01*
X1200000Y29950000D01*
X1200000Y39929858D01*
X15450000Y39929858D01*
X15450000Y39670141D01*
X15490630Y39413617D01*
X15570885Y39166620D01*
X15688796Y38935207D01*
X15688801Y38935200D01*
X15799707Y38782551D01*
X16652392Y39635235D01*
X16657370Y39616657D01*
X16719905Y39508343D01*
X16808343Y39419905D01*
X16916657Y39357370D01*
X16935235Y39352392D01*
X16082551Y38499707D01*
X16235200Y38388801D01*
X16235207Y38388796D01*
X16466620Y38270885D01*
X16713617Y38190630D01*
X16970141Y38150000D01*
X17229858Y38150000D01*
X17486382Y38190630D01*
X17733379Y38270885D01*
X17964791Y38388796D01*
X18117447Y38499707D01*
X17264764Y39352391D01*
X17283343Y39357370D01*
X17391657Y39419905D01*
X17480095Y39508343D01*
X17542630Y39616657D01*
X17547607Y39635233D01*
X18400290Y38782551D01*
X18400291Y38782551D01*
X18511203Y38935208D01*
X18629114Y39166620D01*
X18709369Y39413617D01*
X18749999Y39670141D01*
X18750000Y39670147D01*
X18750000Y39929852D01*
X18749999Y39929858D01*
X18709369Y40186382D01*
X18629114Y40433379D01*
X18511203Y40664791D01*
X18400291Y40817447D01*
X18400290Y40817447D01*
X17547607Y39964764D01*
X17542630Y39983343D01*
X17480095Y40091657D01*
X17391657Y40180095D01*
X17283343Y40242630D01*
X17264764Y40247607D01*
X18117447Y41100290D01*
X18117447Y41100291D01*
X17964791Y41211203D01*
X17733379Y41329114D01*
X17486382Y41409369D01*
X17229858Y41449999D01*
X17229853Y41450000D01*
X16970147Y41450000D01*
X16970141Y41449999D01*
X16713617Y41409369D01*
X16466620Y41329114D01*
X16235208Y41211203D01*
X16082551Y41100291D01*
X16082551Y41100290D01*
X16935233Y40247607D01*
X16916657Y40242630D01*
X16808343Y40180095D01*
X16719905Y40091657D01*
X16657370Y39983343D01*
X16652391Y39964763D01*
X15799707Y40817447D01*
X15688796Y40664791D01*
X15570885Y40433379D01*
X15490630Y40186382D01*
X15450000Y39929858D01*
X1200000Y39929858D01*
X1200000Y42950000D01*
X2012979Y42950000D01*
X3038120Y42950000D01*
X3034075Y42942993D01*
X3000000Y42815826D01*
X3000000Y42684174D01*
X3034075Y42557007D01*
X3038120Y42550000D01*
X2012979Y42550000D01*
X2036935Y42398748D01*
X2109897Y42174197D01*
X2217082Y41963832D01*
X2355861Y41772819D01*
X2355867Y41772812D01*
X2522812Y41605867D01*
X2522819Y41605861D01*
X2713832Y41467082D01*
X2924197Y41359897D01*
X3148748Y41286935D01*
X3299999Y41262979D01*
X3300000Y41262979D01*
X3300000Y42288120D01*
X3307007Y42284075D01*
X3434174Y42250000D01*
X3565826Y42250000D01*
X3692993Y42284075D01*
X3700000Y42288120D01*
X3700000Y41262979D01*
X3851251Y41286935D01*
X4075802Y41359897D01*
X4286167Y41467082D01*
X4477180Y41605861D01*
X4477187Y41605867D01*
X4644132Y41772812D01*
X4644138Y41772819D01*
X4782917Y41963832D01*
X4890102Y42174197D01*
X4963064Y42398748D01*
X4987021Y42550000D01*
X3961880Y42550000D01*
X3965925Y42557007D01*
X4000000Y42684174D01*
X4000000Y42815826D01*
X3965925Y42942993D01*
X3961880Y42950000D01*
X4987020Y42950000D01*
X4963064Y43101251D01*
X4890102Y43325802D01*
X4782917Y43536167D01*
X4644138Y43727180D01*
X4644132Y43727187D01*
X4594768Y43776551D01*
X4558792Y43838863D01*
X4558791Y43910815D01*
X4594766Y43973127D01*
X4620083Y43993145D01*
X4631421Y44000138D01*
X4631424Y44000140D01*
X4749860Y44118576D01*
X4837790Y44261132D01*
X4890475Y44420125D01*
X4900500Y44518253D01*
X4900499Y45638346D01*
X15549500Y45638346D01*
X15549500Y43961659D01*
X15549501Y43961652D01*
X15560175Y43857160D01*
X15560175Y43857158D01*
X15616281Y43687844D01*
X15709915Y43536041D01*
X15836041Y43409915D01*
X15836040Y43409915D01*
X15987844Y43316281D01*
X16157157Y43260176D01*
X16157162Y43260175D01*
X16261655Y43249500D01*
X16261659Y43249500D01*
X17938340Y43249500D01*
X17938347Y43249501D01*
X18042839Y43260175D01*
X18042841Y43260175D01*
X18155385Y43297469D01*
X18212153Y43316280D01*
X18227591Y43325802D01*
X18363958Y43409915D01*
X18363961Y43409917D01*
X18490083Y43536039D01*
X18583720Y43687847D01*
X18639824Y43857158D01*
X18650500Y43961659D01*
X18650499Y45638340D01*
X18639824Y45742842D01*
X18583720Y45912153D01*
X18490083Y46063961D01*
X18363961Y46190083D01*
X18212153Y46283720D01*
X18042842Y46339824D01*
X17938341Y46350500D01*
X16261660Y46350499D01*
X16261659Y46350499D01*
X16261656Y46350498D01*
X16157158Y46339824D01*
X15987847Y46283720D01*
X15836039Y46190083D01*
X15709917Y46063961D01*
X15709915Y46063958D01*
X15659210Y45981752D01*
X15616280Y45912153D01*
X15560176Y45742842D01*
X15560175Y45742837D01*
X15549500Y45638346D01*
X4900499Y45638346D01*
X4900499Y45981746D01*
X4890475Y46079875D01*
X4837790Y46238868D01*
X4749860Y46381424D01*
X4631424Y46499860D01*
X4488868Y46587790D01*
X4329875Y46640475D01*
X4231747Y46650500D01*
X2768254Y46650499D01*
X2768253Y46650499D01*
X2768250Y46650498D01*
X2670125Y46640475D01*
X2511132Y46587790D01*
X2368576Y46499860D01*
X2250140Y46381424D01*
X2250138Y46381421D01*
X2162210Y46238868D01*
X2109525Y46079875D01*
X2109524Y46079870D01*
X2099500Y45981752D01*
X2099500Y44518253D01*
X2099501Y44518246D01*
X2109524Y44420127D01*
X2109524Y44420125D01*
X2162210Y44261131D01*
X2250138Y44118578D01*
X2368578Y44000138D01*
X2379918Y43993144D01*
X2429293Y43940807D01*
X2445885Y43870794D01*
X2425248Y43801866D01*
X2405232Y43776552D01*
X2355867Y43727187D01*
X2355861Y43727180D01*
X2217082Y43536167D01*
X2109897Y43325802D01*
X2036935Y43101251D01*
X2012979Y42950000D01*
X1200000Y42950000D01*
X1200000Y51829858D01*
X15450000Y51829858D01*
X15450000Y51570141D01*
X15490630Y51313617D01*
X15570885Y51066620D01*
X15688796Y50835207D01*
X15688801Y50835200D01*
X15799707Y50682551D01*
X16652392Y51535235D01*
X16657370Y51516657D01*
X16719905Y51408343D01*
X16808343Y51319905D01*
X16916657Y51257370D01*
X16935235Y51252392D01*
X16082551Y50399707D01*
X16235200Y50288801D01*
X16235207Y50288796D01*
X16466620Y50170885D01*
X16713617Y50090630D01*
X16970141Y50050000D01*
X17229858Y50050000D01*
X17486382Y50090630D01*
X17733379Y50170885D01*
X17964791Y50288796D01*
X18117447Y50399707D01*
X17264764Y51252391D01*
X17283343Y51257370D01*
X17391657Y51319905D01*
X17480095Y51408343D01*
X17542630Y51516657D01*
X17547607Y51535233D01*
X18400290Y50682551D01*
X18400291Y50682551D01*
X18511203Y50835208D01*
X18629114Y51066620D01*
X18709369Y51313617D01*
X18749999Y51570141D01*
X18750000Y51570147D01*
X18750000Y51829852D01*
X18749999Y51829858D01*
X18709369Y52086382D01*
X18629114Y52333379D01*
X18511203Y52564791D01*
X18400291Y52717447D01*
X18400290Y52717447D01*
X17547607Y51864764D01*
X17542630Y51883343D01*
X17480095Y51991657D01*
X17391657Y52080095D01*
X17283343Y52142630D01*
X17264764Y52147607D01*
X18117447Y53000290D01*
X18117447Y53000291D01*
X17964791Y53111203D01*
X17733379Y53229114D01*
X17486382Y53309369D01*
X17229858Y53349999D01*
X17229853Y53350000D01*
X16970147Y53350000D01*
X16970141Y53349999D01*
X16713617Y53309369D01*
X16466620Y53229114D01*
X16235208Y53111203D01*
X16082551Y53000291D01*
X16082551Y53000290D01*
X16935233Y52147607D01*
X16916657Y52142630D01*
X16808343Y52080095D01*
X16719905Y51991657D01*
X16657370Y51883343D01*
X16652391Y51864763D01*
X15799707Y52717447D01*
X15688796Y52564791D01*
X15570885Y52333379D01*
X15490630Y52086382D01*
X15450000Y51829858D01*
X1200000Y51829858D01*
X1200000Y57538346D01*
X15549500Y57538346D01*
X15549500Y55861659D01*
X15549501Y55861652D01*
X15560175Y55757160D01*
X15560175Y55757158D01*
X15616281Y55587844D01*
X15709915Y55436041D01*
X15836041Y55309915D01*
X15836040Y55309915D01*
X15987844Y55216281D01*
X16157157Y55160176D01*
X16157162Y55160175D01*
X16261655Y55149500D01*
X16261659Y55149500D01*
X17938340Y55149500D01*
X17938347Y55149501D01*
X18042839Y55160175D01*
X18042841Y55160175D01*
X18155385Y55197469D01*
X18212153Y55216280D01*
X18363961Y55309917D01*
X18490083Y55436039D01*
X18583720Y55587847D01*
X18639824Y55757158D01*
X18650500Y55861659D01*
X18650499Y57538340D01*
X18639824Y57642842D01*
X18583720Y57812153D01*
X18490083Y57963961D01*
X18363961Y58090083D01*
X18212153Y58183720D01*
X18042842Y58239824D01*
X17938341Y58250500D01*
X16261660Y58250499D01*
X16261659Y58250499D01*
X16261656Y58250498D01*
X16157158Y58239824D01*
X15987847Y58183720D01*
X15836039Y58090083D01*
X15709917Y57963961D01*
X15709915Y57963958D01*
X15616281Y57812155D01*
X15560176Y57642842D01*
X15560175Y57642837D01*
X15549500Y57538346D01*
X1200000Y57538346D01*
X1200000Y63129858D01*
X4950000Y63129858D01*
X4950000Y62870141D01*
X4990630Y62613617D01*
X5070885Y62366620D01*
X5188796Y62135207D01*
X5188801Y62135200D01*
X5299707Y61982551D01*
X6152392Y62835235D01*
X6157370Y62816657D01*
X6219905Y62708343D01*
X6308343Y62619905D01*
X6416657Y62557370D01*
X6435235Y62552392D01*
X5582551Y61699707D01*
X5735200Y61588801D01*
X5735207Y61588796D01*
X5966620Y61470885D01*
X6213617Y61390630D01*
X6470141Y61350000D01*
X6729858Y61350000D01*
X6986382Y61390630D01*
X7233379Y61470885D01*
X7464791Y61588796D01*
X7617447Y61699707D01*
X6764764Y62552391D01*
X6783343Y62557370D01*
X6891657Y62619905D01*
X6980095Y62708343D01*
X7042630Y62816657D01*
X7047607Y62835233D01*
X7900290Y61982551D01*
X7900291Y61982551D01*
X8011203Y62135208D01*
X8129114Y62366620D01*
X8209369Y62613617D01*
X8249999Y62870141D01*
X8250000Y62870147D01*
X8250000Y63129852D01*
X8249999Y63129858D01*
X8209369Y63386382D01*
X8129114Y63633380D01*
X8064370Y63760448D01*
X8034998Y63818092D01*
X17449500Y63818092D01*
X17449500Y63581908D01*
X17471559Y63442630D01*
X17486447Y63348631D01*
X17559433Y63124005D01*
X17666654Y62913570D01*
X17805480Y62722492D01*
X17972492Y62555480D01*
X18163570Y62416654D01*
X18374005Y62309433D01*
X18598631Y62236447D01*
X18676390Y62224131D01*
X18831908Y62199500D01*
X18831910Y62199500D01*
X19068090Y62199500D01*
X19068092Y62199500D01*
X19301368Y62236447D01*
X19525992Y62309432D01*
X19525994Y62309433D01*
X19736429Y62416654D01*
X19927507Y62555480D01*
X19991932Y62619905D01*
X20094517Y62722490D01*
X20112547Y62747306D01*
X20168464Y62792586D01*
X20239530Y62803841D01*
X20306703Y62778056D01*
X20337453Y62747306D01*
X20355480Y62722493D01*
X20355481Y62722492D01*
X20522492Y62555480D01*
X20713570Y62416654D01*
X20924005Y62309433D01*
X21148631Y62236447D01*
X21226390Y62224131D01*
X21381908Y62199500D01*
X21381910Y62199500D01*
X21618090Y62199500D01*
X21618092Y62199500D01*
X21851368Y62236447D01*
X22075992Y62309432D01*
X22075994Y62309433D01*
X22286429Y62416654D01*
X22477507Y62555480D01*
X22541932Y62619905D01*
X22644517Y62722490D01*
X22662547Y62747306D01*
X22718464Y62792586D01*
X22789530Y62803841D01*
X22856703Y62778056D01*
X22887453Y62747306D01*
X22905480Y62722493D01*
X22905481Y62722492D01*
X23072492Y62555480D01*
X23263570Y62416654D01*
X23474005Y62309433D01*
X23698631Y62236447D01*
X23776390Y62224131D01*
X23931908Y62199500D01*
X23931910Y62199500D01*
X24168090Y62199500D01*
X24168092Y62199500D01*
X24401368Y62236447D01*
X24625992Y62309432D01*
X24625994Y62309433D01*
X24836429Y62416654D01*
X25027507Y62555480D01*
X25194519Y62722492D01*
X25333345Y62913570D01*
X25399117Y63042656D01*
X25440568Y63124008D01*
X25513553Y63348632D01*
X25550500Y63581908D01*
X25550500Y63818092D01*
X25513553Y64051368D01*
X25440568Y64275992D01*
X25333343Y64486433D01*
X25194517Y64677510D01*
X25027510Y64844517D01*
X24836433Y64983343D01*
X24625992Y65090568D01*
X24401368Y65163553D01*
X24168092Y65200500D01*
X23931908Y65200500D01*
X23698632Y65163553D01*
X23474008Y65090568D01*
X23432707Y65069524D01*
X23263570Y64983345D01*
X23263567Y64983343D01*
X23222943Y64953828D01*
X23072492Y64844519D01*
X22905482Y64677509D01*
X22887454Y64652695D01*
X22831538Y64607414D01*
X22760472Y64596157D01*
X22693299Y64621942D01*
X22662546Y64652695D01*
X22660577Y64655405D01*
X22644517Y64677510D01*
X22477510Y64844517D01*
X22286433Y64983343D01*
X22075992Y65090568D01*
X21851368Y65163553D01*
X21618092Y65200500D01*
X21381908Y65200500D01*
X21148632Y65163553D01*
X20924008Y65090568D01*
X20882707Y65069524D01*
X20713570Y64983345D01*
X20713567Y64983343D01*
X20672943Y64953828D01*
X20522492Y64844519D01*
X20355482Y64677509D01*
X20337454Y64652695D01*
X20281538Y64607414D01*
X20210472Y64596157D01*
X20143299Y64621942D01*
X20112546Y64652695D01*
X20110577Y64655405D01*
X20094517Y64677510D01*
X19927510Y64844517D01*
X19736433Y64983343D01*
X19525992Y65090568D01*
X19301368Y65163553D01*
X19068092Y65200500D01*
X18831908Y65200500D01*
X18598632Y65163553D01*
X18374008Y65090568D01*
X18332707Y65069524D01*
X18163570Y64983345D01*
X18163567Y64983343D01*
X18122943Y64953828D01*
X17972492Y64844519D01*
X17805480Y64677507D01*
X17666654Y64486429D01*
X17628325Y64411203D01*
X17559432Y64275992D01*
X17486447Y64051368D01*
X17449500Y63818092D01*
X8034998Y63818092D01*
X8011203Y63864791D01*
X7900291Y64017447D01*
X7900290Y64017447D01*
X7047607Y63164764D01*
X7042630Y63183343D01*
X6980095Y63291657D01*
X6891657Y63380095D01*
X6783343Y63442630D01*
X6764764Y63447607D01*
X7617447Y64300290D01*
X7617447Y64300291D01*
X7464791Y64411203D01*
X7233379Y64529114D01*
X6986382Y64609369D01*
X6729858Y64649999D01*
X6729853Y64650000D01*
X6470147Y64650000D01*
X6470141Y64649999D01*
X6213617Y64609369D01*
X5966620Y64529114D01*
X5735208Y64411203D01*
X5582551Y64300291D01*
X5582551Y64300290D01*
X6435233Y63447607D01*
X6416657Y63442630D01*
X6308343Y63380095D01*
X6219905Y63291657D01*
X6157370Y63183343D01*
X6152391Y63164763D01*
X5299707Y64017447D01*
X5188796Y63864791D01*
X5070885Y63633379D01*
X4990630Y63386382D01*
X4950000Y63129858D01*
X1200000Y63129858D01*
X1200000Y68838346D01*
X5049500Y68838346D01*
X5049500Y67161659D01*
X5049501Y67161652D01*
X5060175Y67057160D01*
X5060175Y67057158D01*
X5116281Y66887844D01*
X5209915Y66736041D01*
X5336041Y66609915D01*
X5336040Y66609915D01*
X5487844Y66516281D01*
X5657157Y66460176D01*
X5657162Y66460175D01*
X5761655Y66449500D01*
X5761659Y66449500D01*
X7438340Y66449500D01*
X7438347Y66449501D01*
X7542839Y66460175D01*
X7542841Y66460175D01*
X7655385Y66497469D01*
X7712153Y66516280D01*
X7863961Y66609917D01*
X7990083Y66736039D01*
X8083720Y66887847D01*
X8139824Y67057158D01*
X8150500Y67161659D01*
X8150499Y68838340D01*
X8139824Y68942842D01*
X8083720Y69112153D01*
X7990083Y69263961D01*
X7863961Y69390083D01*
X7712153Y69483720D01*
X7542842Y69539824D01*
X7438341Y69550500D01*
X5761660Y69550499D01*
X5761659Y69550499D01*
X5761656Y69550498D01*
X5657158Y69539824D01*
X5487847Y69483720D01*
X5336039Y69390083D01*
X5209917Y69263961D01*
X5209915Y69263958D01*
X5116281Y69112155D01*
X5060176Y68942842D01*
X5060175Y68942837D01*
X5049500Y68838346D01*
X1200000Y68838346D01*
X1200000Y87911428D01*
X6100000Y87911428D01*
X6100000Y87688571D01*
X6129086Y87467641D01*
X6129087Y87467635D01*
X6186761Y87252388D01*
X6186766Y87252375D01*
X6272042Y87046500D01*
X6272043Y87046499D01*
X6383470Y86853500D01*
X6464742Y86747585D01*
X7352392Y87635234D01*
X7357370Y87616657D01*
X7419905Y87508343D01*
X7508343Y87419905D01*
X7616657Y87357370D01*
X7635234Y87352392D01*
X6747585Y86464742D01*
X6853500Y86383470D01*
X7046499Y86272043D01*
X7046500Y86272042D01*
X7252375Y86186766D01*
X7252388Y86186761D01*
X7467635Y86129087D01*
X7467641Y86129086D01*
X7688571Y86100000D01*
X7911428Y86100000D01*
X8132358Y86129086D01*
X8132364Y86129087D01*
X8347611Y86186761D01*
X8347624Y86186766D01*
X8553499Y86272042D01*
X8553500Y86272043D01*
X8746500Y86383471D01*
X8852413Y86464742D01*
X7964765Y87352392D01*
X7983343Y87357370D01*
X8091657Y87419905D01*
X8180095Y87508343D01*
X8242630Y87616657D01*
X8247607Y87635233D01*
X9135256Y86747584D01*
X9216528Y86853499D01*
X9327956Y87046499D01*
X9327957Y87046500D01*
X9413233Y87252375D01*
X9413238Y87252388D01*
X9470912Y87467635D01*
X9470913Y87467641D01*
X9499999Y87688571D01*
X9500000Y87688581D01*
X9500000Y87911418D01*
X9499999Y87911428D01*
X9470913Y88132358D01*
X9470912Y88132364D01*
X9413238Y88347611D01*
X9413233Y88347624D01*
X9327957Y88553499D01*
X9327956Y88553500D01*
X9216532Y88746494D01*
X9216526Y88746503D01*
X9135255Y88852413D01*
X8247607Y87964765D01*
X8242630Y87983343D01*
X8180095Y88091657D01*
X8091657Y88180095D01*
X7983343Y88242630D01*
X7964765Y88247607D01*
X8852414Y89135256D01*
X8746503Y89216526D01*
X8746494Y89216532D01*
X8553500Y89327956D01*
X8553499Y89327957D01*
X8347624Y89413233D01*
X8347611Y89413238D01*
X8132364Y89470912D01*
X8132358Y89470913D01*
X7911428Y89499999D01*
X7911419Y89500000D01*
X7688581Y89500000D01*
X7688571Y89499999D01*
X7467641Y89470913D01*
X7467635Y89470912D01*
X7252388Y89413238D01*
X7252375Y89413233D01*
X7046500Y89327957D01*
X7046499Y89327956D01*
X6853499Y89216528D01*
X6747584Y89135256D01*
X7635234Y88247607D01*
X7616657Y88242630D01*
X7508343Y88180095D01*
X7419905Y88091657D01*
X7357370Y87983343D01*
X7352391Y87964764D01*
X6464742Y88852413D01*
X6383471Y88746500D01*
X6272043Y88553500D01*
X6272042Y88553499D01*
X6186766Y88347624D01*
X6186761Y88347611D01*
X6129087Y88132364D01*
X6129086Y88132358D01*
X6100000Y87911428D01*
X1200000Y87911428D01*
X1200000Y93719456D01*
X6199500Y93719456D01*
X6199500Y91880549D01*
X6199501Y91880542D01*
X6209709Y91780615D01*
X6209710Y91780609D01*
X6263362Y91618695D01*
X6352905Y91473525D01*
X6473525Y91352905D01*
X6618694Y91263363D01*
X6780610Y91209710D01*
X6780615Y91209709D01*
X6880545Y91199500D01*
X6880549Y91199500D01*
X8719450Y91199500D01*
X8719457Y91199501D01*
X8819384Y91209709D01*
X8819390Y91209710D01*
X8981304Y91263362D01*
X9126474Y91352905D01*
X9126476Y91352907D01*
X9126479Y91352909D01*
X9247091Y91473521D01*
X9247092Y91473523D01*
X9247094Y91473525D01*
X9336636Y91618694D01*
X9336638Y91618697D01*
X9390290Y91780611D01*
X9400500Y91880549D01*
X9400499Y93719450D01*
X9390290Y93819389D01*
X9336638Y93981303D01*
X9247091Y94126479D01*
X9126479Y94247091D01*
X8981303Y94336638D01*
X8819389Y94390290D01*
X8719451Y94400500D01*
X6880550Y94400499D01*
X6880549Y94400499D01*
X6880546Y94400498D01*
X6780611Y94390290D01*
X6618697Y94336638D01*
X6618695Y94336637D01*
X6473525Y94247094D01*
X6473523Y94247092D01*
X6473521Y94247091D01*
X6352909Y94126479D01*
X6352907Y94126476D01*
X6352905Y94126474D01*
X6299635Y94040110D01*
X6263362Y93981303D01*
X6247146Y93932364D01*
X6209710Y93819389D01*
X6209709Y93819384D01*
X6199500Y93719456D01*
X1200000Y93719456D01*
X1200000Y94942424D01*
X1218622Y95011924D01*
X1240712Y95040712D01*
X3459288Y97259288D01*
X3521600Y97295264D01*
X3557576Y97300000D01*
X34842424Y97300000D01*
X34911924Y97281378D01*
G37*
%TD.AperFunction*%
%TD*%
M02*
