M48
; DRILL file KiCad 10.0.1 date 2026-05-15T00:19:15
; FORMAT={-:-/ absolute / metric / decimal}
; #@! TF.CreationDate,2026-05-15T00:19:15+09:00
; #@! TF.GenerationSoftware,Kicad,Pcbnew,10.0.1
; #@! TF.FileFunction,Plated,1,2,PTH
FMAT,2
METRIC
; #@! TA.AperFunction,Plated,PTH,ViaDrill
T1C0.600
; #@! TA.AperFunction,Plated,PTH,ComponentDrill
T2C0.780
; #@! TA.AperFunction,Plated,PTH,ComponentDrill
T3C0.800
; #@! TA.AperFunction,Plated,PTH,ComponentDrill
T4C0.850
; #@! TA.AperFunction,Plated,PTH,ComponentDrill
T5C0.870
; #@! TA.AperFunction,Plated,PTH,ComponentDrill
T6C0.880
; #@! TA.AperFunction,Plated,PTH,ComponentDrill
T7C0.930
; #@! TA.AperFunction,Plated,PTH,ComponentDrill
T8C0.950
; #@! TA.AperFunction,Plated,PTH,ComponentDrill
T9C1.000
; #@! TA.AperFunction,Plated,PTH,ComponentDrill
T10C1.050
; #@! TA.AperFunction,Plated,PTH,ComponentDrill
T11C1.100
; #@! TA.AperFunction,Plated,PTH,ComponentDrill
T12C1.150
; #@! TA.AperFunction,Plated,PTH,ComponentDrill
T13C1.200
; #@! TA.AperFunction,Plated,PTH,ComponentDrill
T14C1.270
; #@! TA.AperFunction,Plated,PTH,ComponentDrill
T15C1.740
; #@! TA.AperFunction,Plated,PTH,ComponentDrill
T16C3.500
%
G90
G05
T1
X9.5Y48.0
X11.5Y19.5
X11.5Y16.0
X12.0Y48.0
X17.5Y90.5
X21.72Y18.055
X23.5Y6.5
X23.5Y4.0
X24.0Y49.5
X24.0Y37.5
X26.5Y49.5
X27.0Y37.5
X33.0Y17.0
X38.0Y17.0
X49.5Y63.9
X51.0Y27.0
X51.0Y23.5
X51.0Y21.5
X51.0Y19.0
X54.5Y12.0
X56.6Y25.95
X57.175Y20.05
X57.3Y57.78
X57.5Y12.0
X59.76Y24.95
X63.0Y7.0
X66.0Y7.0
X66.26Y56.0
X66.29Y50.36
X68.425Y9.05
X69.82Y15.99
X71.0Y27.5
X71.0Y21.5
X71.0Y19.5
X71.47Y24.94
X71.9Y13.0
X72.0Y9.5
X74.0Y9.5
X74.225Y39.7
X77.64Y10.6
X84.32Y16.31
X84.5Y22.0
X86.0Y10.5
X87.5Y22.0
X90.5Y22.0
X92.5Y8.0
X99.5Y15.0
X99.8Y12.5
X102.5Y3.5
X106.5Y10.5
X106.5Y8.5
X111.0Y16.85
X111.0Y6.625
X112.5Y22.0
X115.5Y15.0
X115.5Y13.0
X116.275Y3.45
X122.6Y17.825
X122.7Y11.45
X123.5Y9.0
X125.0Y9.0
X127.0Y19.5
X131.0Y19.5
X143.6Y20.7
T2
X79.93Y4.285
X82.47Y6.825
X85.01Y4.285
T3
X48.09Y46.31
X48.09Y38.69
X50.63Y46.31
X50.63Y38.69
X53.17Y46.31
X53.17Y38.69
X55.71Y46.31
X55.71Y38.69
X95.99Y16.31
X95.99Y13.77
X95.99Y11.23
X95.99Y8.69
X103.61Y16.31
X103.61Y13.77
X103.61Y11.23
X103.61Y8.69
X137.92Y32.0
X148.08Y32.0
T4
X96.06Y59.2
X101.14Y59.2
T5
X18.95Y63.7
X21.5Y63.7
X24.05Y63.7
X24.3Y92.45
X24.3Y89.9
X24.3Y87.35
X33.075Y34.1
X35.625Y34.1
X38.175Y34.1
T6
X83.65Y31.34
X85.75Y38.66
X122.955Y84.75
X122.965Y80.05
X130.275Y82.65
X130.285Y77.95
T7
X95.0Y83.3
X95.0Y68.7
X102.5Y72.5
X117.5Y72.5
T8
X6.6Y68.0
X6.6Y63.0
X7.8Y92.8
X7.8Y87.8
X17.1Y56.7
X17.1Y51.7
X17.1Y44.8
X17.1Y39.8
X35.8Y26.0
X35.8Y21.0
X35.8Y11.5
X35.8Y6.5
T9
X3.5Y45.25
X3.5Y42.75
X3.5Y32.25
X3.5Y29.75
X3.5Y27.25
X3.5Y24.75
X3.5Y22.25
X3.5Y19.75
X101.1Y80.7
X117.1Y80.7
X118.0Y62.0
X134.0Y62.0
T10
X76.9Y94.2
X76.9Y81.2
X86.9Y94.2
X86.9Y81.2
T11
X33.65Y93.6
X33.65Y88.6
X33.65Y83.6
X33.65Y78.6
X33.65Y73.6
X33.65Y68.6
X51.15Y93.6
X51.15Y88.6
X51.15Y83.6
X51.15Y78.6
X51.15Y73.6
X51.15Y68.6
X60.1Y95.36
X60.1Y75.04
X83.5Y64.75
X83.5Y57.25
X128.9Y48.8
X128.9Y43.2
X128.9Y33.2
X128.9Y27.6
T12
X107.25Y55.89
X108.75Y63.51
T13
X101.2Y49.0
X101.2Y27.0
X111.2Y49.0
X111.2Y27.0
T14
X66.15Y74.8
X73.65Y74.8
X81.15Y74.8
X88.65Y74.8
T15
X101.0Y94.5
X101.0Y89.5
X113.0Y94.5
X113.0Y89.5
X124.3Y71.1
X126.5Y93.0
X129.3Y71.1
X131.5Y93.0
X140.5Y93.0
X142.5Y64.0
X142.5Y54.0
X142.5Y44.0
X145.5Y93.0
X147.5Y64.0
X147.5Y54.0
X147.5Y44.0
T16
X16.0Y75.0
X16.0Y5.0
X136.0Y75.0
T11
G00X91.9Y36.25
M15
G01X91.9Y39.75
M16
G05
G00X120.5Y36.25
M15
G01X120.5Y39.75
M16
G05
M30
