%TF.GenerationSoftware,KiCad,Pcbnew,10.0.1*%
%TF.CreationDate,2026-05-15T00:19:06+09:00*%
%TF.ProjectId,POWER_BD_SV5,504f5745-525f-4424-945f-5356352e6b69,rev?*%
%TF.SameCoordinates,Original*%
%TF.FileFunction,Soldermask,Bot*%
%TF.FilePolarity,Negative*%
%FSLAX46Y46*%
G04 Gerber Fmt 4.6, Leading zero omitted, Abs format (unit mm)*
G04 Created by KiCad (PCBNEW 10.0.1) date 2026-05-15 00:19:06*
%MOMM*%
%LPD*%
G01*
G04 APERTURE LIST*
G04 Aperture macros list*
%AMRoundRect*
0 Rectangle with rounded corners*
0 $1 Rounding radius*
0 $2 $3 $4 $5 $6 $7 $8 $9 X,Y pos of 4 corners*
0 Add a 4 corners polygon primitive as box body*
4,1,4,$2,$3,$4,$5,$6,$7,$8,$9,$2,$3,0*
0 Add four circle primitives for the rounded corners*
1,1,$1+$1,$2,$3*
1,1,$1+$1,$4,$5*
1,1,$1+$1,$6,$7*
1,1,$1+$1,$8,$9*
0 Add four rect primitives between the rounded corners*
20,1,$1+$1,$2,$3,$4,$5,0*
20,1,$1+$1,$4,$5,$6,$7,0*
20,1,$1+$1,$6,$7,$8,$9,0*
20,1,$1+$1,$8,$9,$2,$3,0*%
G04 Aperture macros list end*
%ADD10C,7.500000*%
%ADD11C,2.000000*%
%ADD12RoundRect,0.500000X0.900000X0.900000X-0.900000X0.900000X-0.900000X-0.900000X0.900000X-0.900000X0*%
%ADD13C,2.800000*%
%ADD14O,4.300000X3.400000*%
%ADD15O,3.400000X4.300000*%
%ADD16C,1.850000*%
%ADD17C,2.200000*%
%ADD18RoundRect,0.262500X-0.787500X0.787500X-0.787500X-0.787500X0.787500X-0.787500X0.787500X0.787500X0*%
%ADD19C,2.100000*%
%ADD20RoundRect,0.216000X-0.684000X0.684000X-0.684000X-0.684000X0.684000X-0.684000X0.684000X0.684000X0*%
%ADD21C,1.800000*%
%ADD22C,1.700000*%
%ADD23RoundRect,0.366667X0.733333X-0.733333X0.733333X0.733333X-0.733333X0.733333X-0.733333X-0.733333X0*%
%ADD24RoundRect,0.286416X-0.413584X-0.413584X0.413584X-0.413584X0.413584X0.413584X-0.413584X0.413584X0*%
%ADD25C,1.400000*%
%ADD26C,3.500000*%
%ADD27RoundRect,0.250000X-0.800000X0.800000X-0.800000X-0.800000X0.800000X-0.800000X0.800000X0.800000X0*%
%ADD28RoundRect,0.291667X0.758333X-0.758333X0.758333X0.758333X-0.758333X0.758333X-0.758333X-0.758333X0*%
%ADD29C,2.300000*%
%ADD30RoundRect,0.260417X0.989583X0.989583X-0.989583X0.989583X-0.989583X-0.989583X0.989583X-0.989583X0*%
%ADD31C,2.500000*%
%ADD32C,2.400000*%
%ADD33O,2.500000X6.000000*%
%ADD34C,1.600000*%
%ADD35RoundRect,0.229167X-0.870833X0.870833X-0.870833X-0.870833X0.870833X-0.870833X0.870833X0.870833X0*%
%ADD36RoundRect,0.250000X-0.850000X-0.550000X0.850000X-0.550000X0.850000X0.550000X-0.850000X0.550000X0*%
%ADD37O,2.200000X1.600000*%
%ADD38RoundRect,0.250000X-0.550000X0.850000X-0.550000X-0.850000X0.550000X-0.850000X0.550000X0.850000X0*%
%ADD39O,1.600000X2.200000*%
G04 APERTURE END LIST*
D10*
%TO.C,H1*%
X136000000Y75000000D03*
%TD*%
%TO.C,H4*%
X16000000Y5000000D03*
%TD*%
%TO.C,H3*%
X16000000Y75000000D03*
%TD*%
D11*
%TO.C,D7*%
X33075000Y34100000D03*
X35625000Y34100000D03*
X38175000Y34100000D03*
%TD*%
%TO.C,D6*%
X18950000Y63700000D03*
X21500000Y63700000D03*
X24050000Y63700000D03*
%TD*%
%TO.C,D5*%
X24300000Y92450000D03*
X24300000Y89900000D03*
X24300000Y87350000D03*
%TD*%
D12*
%TO.C,D1*%
X88650000Y74800000D03*
D13*
X81150000Y74800000D03*
X73650000Y74800000D03*
X66150000Y74800000D03*
%TD*%
D14*
%TO.C,ACN1*%
X101000000Y89500000D03*
X101000000Y94500000D03*
%TD*%
%TO.C,ACL1*%
X113000000Y89500000D03*
X113000000Y94500000D03*
%TD*%
D15*
%TO.C,ACL2*%
X126500000Y93000000D03*
X131500000Y93000000D03*
%TD*%
%TO.C,A2*%
X142500000Y64000000D03*
X147500000Y64000000D03*
%TD*%
%TO.C,ACN2*%
X140500000Y93000000D03*
X145500000Y93000000D03*
%TD*%
%TO.C,FG1*%
X124300000Y71100000D03*
X129300000Y71100000D03*
%TD*%
%TO.C,G1*%
X142500000Y44000000D03*
X147500000Y44000000D03*
%TD*%
%TO.C,A1*%
X142500000Y54000000D03*
X147500000Y54000000D03*
%TD*%
D16*
%TO.C,C3*%
X102500000Y72500000D03*
X117500000Y72500000D03*
%TD*%
D17*
%TO.C,C33*%
X117100000Y80700000D03*
X101100000Y80700000D03*
%TD*%
D18*
%TO.C,C21*%
X17100000Y56700000D03*
D19*
X17100000Y51700000D03*
%TD*%
D20*
%TO.C,J2*%
X3500000Y32250000D03*
D21*
X3500000Y29750000D03*
X3500000Y27250000D03*
X3500000Y24750000D03*
X3500000Y22250000D03*
X3500000Y19750000D03*
%TD*%
D22*
%TO.C,C2*%
X130285000Y77950000D03*
X122965000Y80050000D03*
%TD*%
D23*
%TO.C,T2*%
X51150000Y68600000D03*
D17*
X51150000Y73600000D03*
X51150000Y78600000D03*
X51150000Y83600000D03*
X51150000Y88600000D03*
X51150000Y93600000D03*
X33650000Y93600000D03*
X33650000Y88600000D03*
X33650000Y83600000D03*
X33650000Y78600000D03*
X33650000Y73600000D03*
X33650000Y68600000D03*
%TD*%
D24*
%TO.C,RV2*%
X79930000Y4285000D03*
D25*
X82470000Y6825000D03*
X85010000Y4285000D03*
%TD*%
D17*
%TO.C,C32*%
X118000000Y62000000D03*
X134000000Y62000000D03*
%TD*%
D18*
%TO.C,C24*%
X17100000Y44800000D03*
D19*
X17100000Y39800000D03*
%TD*%
D26*
%TO.C,H2*%
X136000000Y5000000D03*
%TD*%
D27*
%TO.C,C4*%
X83500000Y64750000D03*
D19*
X83500000Y57250000D03*
%TD*%
D28*
%TO.C,LF1*%
X86900000Y81200000D03*
D19*
X86900000Y94200000D03*
X76900000Y94200000D03*
X76900000Y81200000D03*
%TD*%
D29*
%TO.C,RV1*%
X108750000Y63510000D03*
X107250000Y55890000D03*
%TD*%
D22*
%TO.C,C1*%
X122955000Y84750000D03*
X130275000Y82650000D03*
%TD*%
D30*
%TO.C,T1*%
X111200000Y49000000D03*
D31*
X101200000Y49000000D03*
D32*
X101200000Y27000000D03*
D31*
X111200000Y27000000D03*
D33*
X91900000Y38000000D03*
X120500000Y38000000D03*
%TD*%
D29*
%TO.C,R5*%
X60100000Y75040000D03*
X60100000Y95360000D03*
%TD*%
D34*
%TO.C,F1*%
X101140000Y59200000D03*
X96060000Y59200000D03*
%TD*%
D18*
%TO.C,C23*%
X6600000Y68000000D03*
D19*
X6600000Y63000000D03*
%TD*%
D35*
%TO.C,C20*%
X7800000Y92800000D03*
D17*
X7800000Y87800000D03*
%TD*%
D21*
%TO.C,R1*%
X95000000Y68700000D03*
X95000000Y83300000D03*
%TD*%
D32*
%TO.C,C31*%
X128900000Y27600000D03*
X128900000Y48800000D03*
X128900000Y33200000D03*
X128900000Y43200000D03*
%TD*%
D18*
%TO.C,C25*%
X35800000Y11500000D03*
D19*
X35800000Y6500000D03*
%TD*%
D36*
%TO.C,U4*%
X95990000Y16310000D03*
D37*
X95990000Y13770000D03*
X95990000Y11230000D03*
X95990000Y8690000D03*
X103610000Y8690000D03*
X103610000Y11230000D03*
X103610000Y13770000D03*
X103610000Y16310000D03*
%TD*%
D20*
%TO.C,J3*%
X3500000Y45250000D03*
D21*
X3500000Y42750000D03*
%TD*%
D38*
%TO.C,U1*%
X55710000Y46310000D03*
D39*
X53170000Y46310000D03*
X50630000Y46310000D03*
X48090000Y46310000D03*
X48090000Y38690000D03*
X50630000Y38690000D03*
X53170000Y38690000D03*
X55710000Y38690000D03*
%TD*%
D34*
%TO.C,R26*%
X137920000Y32000000D03*
X148080000Y32000000D03*
%TD*%
D18*
%TO.C,C22*%
X35800000Y26000000D03*
D19*
X35800000Y21000000D03*
%TD*%
D22*
%TO.C,C14*%
X85750000Y38660000D03*
X83650000Y31340000D03*
%TD*%
M02*
