%TF.GenerationSoftware,KiCad,Pcbnew,10.0.1*%
%TF.CreationDate,2026-07-14T16:36:26+09:00*%
%TF.ProjectId,SMD_DISPLAY_BD_SV5,534d445f-4449-4535-904c-41595f42445f,rev?*%
%TF.SameCoordinates,Original*%
%TF.FileFunction,Drillmap*%
%TF.FilePolarity,Positive*%
%FSLAX45Y45*%
G04 Gerber Fmt 4.5, Leading zero omitted, Abs format (unit mm)*
G04 Created by KiCad (PCBNEW 10.0.1) date 2026-07-14 16:36:26*
%MOMM*%
%LPD*%
G01*
G04 APERTURE LIST*
%ADD10C,0.100000*%
%ADD11C,0.200000*%
%ADD12C,0.140000*%
G04 APERTURE END LIST*
D10*
X0Y7500000D02*
X16000000Y7500000D01*
X16000000Y0D01*
X0Y0D01*
X0Y7500000D01*
D11*
D10*
X8752500Y1555000D02*
X8792500Y1515000D01*
X8792500Y1555000D02*
X8752500Y1515000D01*
X9142500Y3780000D02*
X9182500Y3740000D01*
X9182500Y3780000D02*
X9142500Y3740000D01*
X9920000Y3590000D02*
X9960000Y3550000D01*
X9960000Y3590000D02*
X9920000Y3550000D01*
X10257500Y3670000D02*
X10297500Y3630000D01*
X10297500Y3670000D02*
X10257500Y3630000D01*
X10492500Y1282500D02*
X10532500Y1242500D01*
X10532500Y1282500D02*
X10492500Y1242500D01*
X11637500Y685000D02*
X11677500Y645000D01*
X11677500Y685000D02*
X11637500Y645000D01*
X970000Y1737500D02*
G75*
G02*
X920000Y1737500I-25000J0D01*
G01*
X920000Y1737500D02*
G75*
G02*
X970000Y1737500I25000J0D01*
G01*
X970000Y662500D02*
G75*
G02*
X920000Y662500I-25000J0D01*
G01*
X920000Y662500D02*
G75*
G02*
X970000Y662500I25000J0D01*
G01*
X1098000Y5207500D02*
G75*
G02*
X1048000Y5207500I-25000J0D01*
G01*
X1048000Y5207500D02*
G75*
G02*
X1098000Y5207500I25000J0D01*
G01*
X1362500Y657500D02*
G75*
G02*
X1312500Y657500I-25000J0D01*
G01*
X1312500Y657500D02*
G75*
G02*
X1362500Y657500I25000J0D01*
G01*
X1430000Y1722500D02*
G75*
G02*
X1380000Y1722500I-25000J0D01*
G01*
X1380000Y1722500D02*
G75*
G02*
X1430000Y1722500I25000J0D01*
G01*
X1537500Y6207500D02*
G75*
G02*
X1487500Y6207500I-25000J0D01*
G01*
X1487500Y6207500D02*
G75*
G02*
X1537500Y6207500I25000J0D01*
G01*
X1537500Y5207500D02*
G75*
G02*
X1487500Y5207500I-25000J0D01*
G01*
X1487500Y5207500D02*
G75*
G02*
X1537500Y5207500I25000J0D01*
G01*
X1547500Y7215000D02*
G75*
G02*
X1497500Y7215000I-25000J0D01*
G01*
X1497500Y7215000D02*
G75*
G02*
X1547500Y7215000I25000J0D01*
G01*
X1930000Y1892500D02*
G75*
G02*
X1880000Y1892500I-25000J0D01*
G01*
X1880000Y1892500D02*
G75*
G02*
X1930000Y1892500I25000J0D01*
G01*
X2115000Y4065000D02*
G75*
G02*
X2065000Y4065000I-25000J0D01*
G01*
X2065000Y4065000D02*
G75*
G02*
X2115000Y4065000I25000J0D01*
G01*
X2535000Y5367500D02*
G75*
G02*
X2485000Y5367500I-25000J0D01*
G01*
X2485000Y5367500D02*
G75*
G02*
X2535000Y5367500I25000J0D01*
G01*
X2537500Y6205000D02*
G75*
G02*
X2487500Y6205000I-25000J0D01*
G01*
X2487500Y6205000D02*
G75*
G02*
X2537500Y6205000I25000J0D01*
G01*
X2545000Y4537500D02*
G75*
G02*
X2495000Y4537500I-25000J0D01*
G01*
X2495000Y4537500D02*
G75*
G02*
X2545000Y4537500I25000J0D01*
G01*
X2555000Y3685000D02*
G75*
G02*
X2505000Y3685000I-25000J0D01*
G01*
X2505000Y3685000D02*
G75*
G02*
X2555000Y3685000I25000J0D01*
G01*
X3542500Y1987500D02*
G75*
G02*
X3492500Y1987500I-25000J0D01*
G01*
X3492500Y1987500D02*
G75*
G02*
X3542500Y1987500I25000J0D01*
G01*
X3595000Y2900000D02*
G75*
G02*
X3545000Y2900000I-25000J0D01*
G01*
X3545000Y2900000D02*
G75*
G02*
X3595000Y2900000I25000J0D01*
G01*
X3595000Y2505000D02*
G75*
G02*
X3545000Y2505000I-25000J0D01*
G01*
X3545000Y2505000D02*
G75*
G02*
X3595000Y2505000I25000J0D01*
G01*
X3782500Y3682500D02*
G75*
G02*
X3732500Y3682500I-25000J0D01*
G01*
X3732500Y3682500D02*
G75*
G02*
X3782500Y3682500I25000J0D01*
G01*
X4077500Y4685000D02*
G75*
G02*
X4027500Y4685000I-25000J0D01*
G01*
X4027500Y4685000D02*
G75*
G02*
X4077500Y4685000I25000J0D01*
G01*
X4725000Y2500000D02*
G75*
G02*
X4675000Y2500000I-25000J0D01*
G01*
X4675000Y2500000D02*
G75*
G02*
X4725000Y2500000I25000J0D01*
G01*
X4765000Y6000000D02*
G75*
G02*
X4715000Y6000000I-25000J0D01*
G01*
X4715000Y6000000D02*
G75*
G02*
X4765000Y6000000I25000J0D01*
G01*
X4765000Y5700000D02*
G75*
G02*
X4715000Y5700000I-25000J0D01*
G01*
X4715000Y5700000D02*
G75*
G02*
X4765000Y5700000I25000J0D01*
G01*
X4765000Y5410000D02*
G75*
G02*
X4715000Y5410000I-25000J0D01*
G01*
X4715000Y5410000D02*
G75*
G02*
X4765000Y5410000I25000J0D01*
G01*
X5307500Y4547500D02*
G75*
G02*
X5257500Y4547500I-25000J0D01*
G01*
X5257500Y4547500D02*
G75*
G02*
X5307500Y4547500I25000J0D01*
G01*
X5845000Y6700000D02*
G75*
G02*
X5795000Y6700000I-25000J0D01*
G01*
X5795000Y6700000D02*
G75*
G02*
X5845000Y6700000I25000J0D01*
G01*
X6065000Y6700000D02*
G75*
G02*
X6015000Y6700000I-25000J0D01*
G01*
X6015000Y6700000D02*
G75*
G02*
X6065000Y6700000I25000J0D01*
G01*
X6263500Y3786000D02*
G75*
G02*
X6213500Y3786000I-25000J0D01*
G01*
X6213500Y3786000D02*
G75*
G02*
X6263500Y3786000I25000J0D01*
G01*
X6285000Y6700000D02*
G75*
G02*
X6235000Y6700000I-25000J0D01*
G01*
X6235000Y6700000D02*
G75*
G02*
X6285000Y6700000I25000J0D01*
G01*
X6300000Y1685000D02*
G75*
G02*
X6250000Y1685000I-25000J0D01*
G01*
X6250000Y1685000D02*
G75*
G02*
X6300000Y1685000I25000J0D01*
G01*
X6525000Y3527500D02*
G75*
G02*
X6475000Y3527500I-25000J0D01*
G01*
X6475000Y3527500D02*
G75*
G02*
X6525000Y3527500I25000J0D01*
G01*
X6720000Y4087500D02*
G75*
G02*
X6670000Y4087500I-25000J0D01*
G01*
X6670000Y4087500D02*
G75*
G02*
X6720000Y4087500I25000J0D01*
G01*
X6722500Y3795000D02*
G75*
G02*
X6672500Y3795000I-25000J0D01*
G01*
X6672500Y3795000D02*
G75*
G02*
X6722500Y3795000I25000J0D01*
G01*
X6925000Y2500000D02*
G75*
G02*
X6875000Y2500000I-25000J0D01*
G01*
X6875000Y2500000D02*
G75*
G02*
X6925000Y2500000I25000J0D01*
G01*
X7025000Y5180000D02*
G75*
G02*
X6975000Y5180000I-25000J0D01*
G01*
X6975000Y5180000D02*
G75*
G02*
X7025000Y5180000I25000J0D01*
G01*
X7095000Y4830000D02*
G75*
G02*
X7045000Y4830000I-25000J0D01*
G01*
X7045000Y4830000D02*
G75*
G02*
X7095000Y4830000I25000J0D01*
G01*
X7165000Y6550000D02*
G75*
G02*
X7115000Y6550000I-25000J0D01*
G01*
X7115000Y6550000D02*
G75*
G02*
X7165000Y6550000I25000J0D01*
G01*
X7395000Y4830000D02*
G75*
G02*
X7345000Y4830000I-25000J0D01*
G01*
X7345000Y4830000D02*
G75*
G02*
X7395000Y4830000I25000J0D01*
G01*
X7525000Y6550000D02*
G75*
G02*
X7475000Y6550000I-25000J0D01*
G01*
X7475000Y6550000D02*
G75*
G02*
X7525000Y6550000I25000J0D01*
G01*
X7855000Y7280000D02*
G75*
G02*
X7805000Y7280000I-25000J0D01*
G01*
X7805000Y7280000D02*
G75*
G02*
X7855000Y7280000I25000J0D01*
G01*
X8335000Y6090000D02*
G75*
G02*
X8285000Y6090000I-25000J0D01*
G01*
X8285000Y6090000D02*
G75*
G02*
X8335000Y6090000I25000J0D01*
G01*
X8500000Y1670000D02*
G75*
G02*
X8450000Y1670000I-25000J0D01*
G01*
X8450000Y1670000D02*
G75*
G02*
X8500000Y1670000I25000J0D01*
G01*
X8655000Y6090000D02*
G75*
G02*
X8605000Y6090000I-25000J0D01*
G01*
X8605000Y6090000D02*
G75*
G02*
X8655000Y6090000I25000J0D01*
G01*
X8725000Y4110000D02*
G75*
G02*
X8675000Y4110000I-25000J0D01*
G01*
X8675000Y4110000D02*
G75*
G02*
X8725000Y4110000I25000J0D01*
G01*
X8725000Y3740000D02*
G75*
G02*
X8675000Y3740000I-25000J0D01*
G01*
X8675000Y3740000D02*
G75*
G02*
X8725000Y3740000I25000J0D01*
G01*
X8885000Y7280000D02*
G75*
G02*
X8835000Y7280000I-25000J0D01*
G01*
X8835000Y7280000D02*
G75*
G02*
X8885000Y7280000I25000J0D01*
G01*
X8945000Y5060000D02*
G75*
G02*
X8895000Y5060000I-25000J0D01*
G01*
X8895000Y5060000D02*
G75*
G02*
X8945000Y5060000I25000J0D01*
G01*
X9060000Y7100000D02*
G75*
G02*
X9010000Y7100000I-25000J0D01*
G01*
X9010000Y7100000D02*
G75*
G02*
X9060000Y7100000I25000J0D01*
G01*
X9125000Y2500000D02*
G75*
G02*
X9075000Y2500000I-25000J0D01*
G01*
X9075000Y2500000D02*
G75*
G02*
X9125000Y2500000I25000J0D01*
G01*
X9205000Y6720000D02*
G75*
G02*
X9155000Y6720000I-25000J0D01*
G01*
X9155000Y6720000D02*
G75*
G02*
X9205000Y6720000I25000J0D01*
G01*
X9235000Y5060000D02*
G75*
G02*
X9185000Y5060000I-25000J0D01*
G01*
X9185000Y5060000D02*
G75*
G02*
X9235000Y5060000I25000J0D01*
G01*
X9275000Y6080000D02*
G75*
G02*
X9225000Y6080000I-25000J0D01*
G01*
X9225000Y6080000D02*
G75*
G02*
X9275000Y6080000I25000J0D01*
G01*
X9275000Y3380000D02*
G75*
G02*
X9225000Y3380000I-25000J0D01*
G01*
X9225000Y3380000D02*
G75*
G02*
X9275000Y3380000I25000J0D01*
G01*
X9380000Y4297500D02*
G75*
G02*
X9330000Y4297500I-25000J0D01*
G01*
X9330000Y4297500D02*
G75*
G02*
X9380000Y4297500I25000J0D01*
G01*
X9380000Y3752500D02*
G75*
G02*
X9330000Y3752500I-25000J0D01*
G01*
X9330000Y3752500D02*
G75*
G02*
X9380000Y3752500I25000J0D01*
G01*
X9445000Y6720000D02*
G75*
G02*
X9395000Y6720000I-25000J0D01*
G01*
X9395000Y6720000D02*
G75*
G02*
X9445000Y6720000I25000J0D01*
G01*
X9555000Y6080000D02*
G75*
G02*
X9505000Y6080000I-25000J0D01*
G01*
X9505000Y6080000D02*
G75*
G02*
X9555000Y6080000I25000J0D01*
G01*
X9575000Y1692500D02*
G75*
G02*
X9525000Y1692500I-25000J0D01*
G01*
X9525000Y1692500D02*
G75*
G02*
X9575000Y1692500I25000J0D01*
G01*
X9577500Y5462500D02*
G75*
G02*
X9527500Y5462500I-25000J0D01*
G01*
X9527500Y5462500D02*
G75*
G02*
X9577500Y5462500I25000J0D01*
G01*
X9625000Y4400000D02*
G75*
G02*
X9575000Y4400000I-25000J0D01*
G01*
X9575000Y4400000D02*
G75*
G02*
X9625000Y4400000I25000J0D01*
G01*
X9625000Y3380000D02*
G75*
G02*
X9575000Y3380000I-25000J0D01*
G01*
X9575000Y3380000D02*
G75*
G02*
X9625000Y3380000I25000J0D01*
G01*
X9775000Y1342500D02*
G75*
G02*
X9725000Y1342500I-25000J0D01*
G01*
X9725000Y1342500D02*
G75*
G02*
X9775000Y1342500I25000J0D01*
G01*
X9845000Y4400000D02*
G75*
G02*
X9795000Y4400000I-25000J0D01*
G01*
X9795000Y4400000D02*
G75*
G02*
X9845000Y4400000I25000J0D01*
G01*
X9865000Y5390000D02*
G75*
G02*
X9815000Y5390000I-25000J0D01*
G01*
X9815000Y5390000D02*
G75*
G02*
X9865000Y5390000I25000J0D01*
G01*
X10065000Y1702500D02*
G75*
G02*
X10015000Y1702500I-25000J0D01*
G01*
X10015000Y1702500D02*
G75*
G02*
X10065000Y1702500I25000J0D01*
G01*
X10082500Y3035000D02*
G75*
G02*
X10032500Y3035000I-25000J0D01*
G01*
X10032500Y3035000D02*
G75*
G02*
X10082500Y3035000I25000J0D01*
G01*
X10082500Y2490000D02*
G75*
G02*
X10032500Y2490000I-25000J0D01*
G01*
X10032500Y2490000D02*
G75*
G02*
X10082500Y2490000I25000J0D01*
G01*
X10140000Y5682500D02*
G75*
G02*
X10090000Y5682500I-25000J0D01*
G01*
X10090000Y5682500D02*
G75*
G02*
X10140000Y5682500I25000J0D01*
G01*
X10215000Y6470000D02*
G75*
G02*
X10165000Y6470000I-25000J0D01*
G01*
X10165000Y6470000D02*
G75*
G02*
X10215000Y6470000I25000J0D01*
G01*
X10215000Y6080000D02*
G75*
G02*
X10165000Y6080000I-25000J0D01*
G01*
X10165000Y6080000D02*
G75*
G02*
X10215000Y6080000I25000J0D01*
G01*
X10215000Y5390000D02*
G75*
G02*
X10165000Y5390000I-25000J0D01*
G01*
X10165000Y5390000D02*
G75*
G02*
X10215000Y5390000I25000J0D01*
G01*
X10315000Y4100000D02*
G75*
G02*
X10265000Y4100000I-25000J0D01*
G01*
X10265000Y4100000D02*
G75*
G02*
X10315000Y4100000I25000J0D01*
G01*
X10320000Y1337500D02*
G75*
G02*
X10270000Y1337500I-25000J0D01*
G01*
X10270000Y1337500D02*
G75*
G02*
X10320000Y1337500I25000J0D01*
G01*
X10525000Y4100000D02*
G75*
G02*
X10475000Y4100000I-25000J0D01*
G01*
X10475000Y4100000D02*
G75*
G02*
X10525000Y4100000I25000J0D01*
G01*
X10605000Y5420000D02*
G75*
G02*
X10555000Y5420000I-25000J0D01*
G01*
X10555000Y5420000D02*
G75*
G02*
X10605000Y5420000I25000J0D01*
G01*
X10622500Y2500000D02*
G75*
G02*
X10572500Y2500000I-25000J0D01*
G01*
X10572500Y2500000D02*
G75*
G02*
X10622500Y2500000I25000J0D01*
G01*
X10745000Y4100000D02*
G75*
G02*
X10695000Y4100000I-25000J0D01*
G01*
X10695000Y4100000D02*
G75*
G02*
X10745000Y4100000I25000J0D01*
G01*
X10792500Y1887500D02*
G75*
G02*
X10742500Y1887500I-25000J0D01*
G01*
X10742500Y1887500D02*
G75*
G02*
X10792500Y1887500I25000J0D01*
G01*
X11142500Y2500000D02*
G75*
G02*
X11092500Y2500000I-25000J0D01*
G01*
X11092500Y2500000D02*
G75*
G02*
X11142500Y2500000I25000J0D01*
G01*
X11185000Y3830000D02*
G75*
G02*
X11135000Y3830000I-25000J0D01*
G01*
X11135000Y3830000D02*
G75*
G02*
X11185000Y3830000I25000J0D01*
G01*
X11185000Y3510000D02*
G75*
G02*
X11135000Y3510000I-25000J0D01*
G01*
X11135000Y3510000D02*
G75*
G02*
X11185000Y3510000I25000J0D01*
G01*
X11187500Y1350000D02*
G75*
G02*
X11137500Y1350000I-25000J0D01*
G01*
X11137500Y1350000D02*
G75*
G02*
X11187500Y1350000I25000J0D01*
G01*
X11190000Y1887500D02*
G75*
G02*
X11140000Y1887500I-25000J0D01*
G01*
X11140000Y1887500D02*
G75*
G02*
X11190000Y1887500I25000J0D01*
G01*
X11335000Y3830000D02*
G75*
G02*
X11285000Y3830000I-25000J0D01*
G01*
X11285000Y3830000D02*
G75*
G02*
X11335000Y3830000I25000J0D01*
G01*
X11335000Y3510000D02*
G75*
G02*
X11285000Y3510000I-25000J0D01*
G01*
X11285000Y3510000D02*
G75*
G02*
X11335000Y3510000I25000J0D01*
G01*
X11562500Y2500000D02*
G75*
G02*
X11512500Y2500000I-25000J0D01*
G01*
X11512500Y2500000D02*
G75*
G02*
X11562500Y2500000I25000J0D01*
G01*
X11567500Y1350000D02*
G75*
G02*
X11517500Y1350000I-25000J0D01*
G01*
X11517500Y1350000D02*
G75*
G02*
X11567500Y1350000I25000J0D01*
G01*
X11925000Y650000D02*
G75*
G02*
X11875000Y650000I-25000J0D01*
G01*
X11875000Y650000D02*
G75*
G02*
X11925000Y650000I25000J0D01*
G01*
X11925000Y200000D02*
G75*
G02*
X11875000Y200000I-25000J0D01*
G01*
X11875000Y200000D02*
G75*
G02*
X11925000Y200000I25000J0D01*
G01*
X11940000Y1350000D02*
G75*
G02*
X11890000Y1350000I-25000J0D01*
G01*
X11890000Y1350000D02*
G75*
G02*
X11940000Y1350000I25000J0D01*
G01*
X12315000Y3270000D02*
G75*
G02*
X12265000Y3270000I-25000J0D01*
G01*
X12265000Y3270000D02*
G75*
G02*
X12315000Y3270000I25000J0D01*
G01*
X12315000Y650000D02*
G75*
G02*
X12265000Y650000I-25000J0D01*
G01*
X12265000Y650000D02*
G75*
G02*
X12315000Y650000I25000J0D01*
G01*
X12315000Y200000D02*
G75*
G02*
X12265000Y200000I-25000J0D01*
G01*
X12265000Y200000D02*
G75*
G02*
X12315000Y200000I25000J0D01*
G01*
X12535000Y3270000D02*
G75*
G02*
X12485000Y3270000I-25000J0D01*
G01*
X12485000Y3270000D02*
G75*
G02*
X12535000Y3270000I25000J0D01*
G01*
X12625000Y1350000D02*
G75*
G02*
X12575000Y1350000I-25000J0D01*
G01*
X12575000Y1350000D02*
G75*
G02*
X12625000Y1350000I25000J0D01*
G01*
X12695000Y200000D02*
G75*
G02*
X12645000Y200000I-25000J0D01*
G01*
X12645000Y200000D02*
G75*
G02*
X12695000Y200000I25000J0D01*
G01*
X12755000Y3270000D02*
G75*
G02*
X12705000Y3270000I-25000J0D01*
G01*
X12705000Y3270000D02*
G75*
G02*
X12755000Y3270000I25000J0D01*
G01*
X13445000Y3590000D02*
G75*
G02*
X13395000Y3590000I-25000J0D01*
G01*
X13395000Y3590000D02*
G75*
G02*
X13445000Y3590000I25000J0D01*
G01*
X13445000Y3270000D02*
G75*
G02*
X13395000Y3270000I-25000J0D01*
G01*
X13395000Y3270000D02*
G75*
G02*
X13445000Y3270000I25000J0D01*
G01*
X13445000Y2940000D02*
G75*
G02*
X13395000Y2940000I-25000J0D01*
G01*
X13395000Y2940000D02*
G75*
G02*
X13445000Y2940000I25000J0D01*
G01*
X14505000Y6200000D02*
G75*
G02*
X14455000Y6200000I-25000J0D01*
G01*
X14455000Y6200000D02*
G75*
G02*
X14505000Y6200000I25000J0D01*
G01*
X14505000Y5640000D02*
G75*
G02*
X14455000Y5640000I-25000J0D01*
G01*
X14455000Y5640000D02*
G75*
G02*
X14505000Y5640000I25000J0D01*
G01*
X14505000Y5080000D02*
G75*
G02*
X14455000Y5080000I-25000J0D01*
G01*
X14455000Y5080000D02*
G75*
G02*
X14505000Y5080000I25000J0D01*
G01*
X14505000Y3770000D02*
G75*
G02*
X14455000Y3770000I-25000J0D01*
G01*
X14455000Y3770000D02*
G75*
G02*
X14505000Y3770000I25000J0D01*
G01*
X14505000Y3270000D02*
G75*
G02*
X14455000Y3270000I-25000J0D01*
G01*
X14455000Y3270000D02*
G75*
G02*
X14505000Y3270000I25000J0D01*
G01*
X14505000Y2710000D02*
G75*
G02*
X14455000Y2710000I-25000J0D01*
G01*
X14455000Y2710000D02*
G75*
G02*
X14505000Y2710000I25000J0D01*
G01*
X2873000Y6595000D02*
X2873000Y6505000D01*
X2828000Y6550000D02*
X2918000Y6550000D01*
X2873000Y5745000D02*
X2873000Y5655000D01*
X2828000Y5700000D02*
X2918000Y5700000D01*
X2873000Y4895000D02*
X2873000Y4805000D01*
X2828000Y4850000D02*
X2918000Y4850000D01*
X2873000Y4045000D02*
X2873000Y3955000D01*
X2828000Y4000000D02*
X2918000Y4000000D01*
X3127000Y6595000D02*
X3127000Y6505000D01*
X3082000Y6550000D02*
X3172000Y6550000D01*
X3127000Y5745000D02*
X3127000Y5655000D01*
X3082000Y5700000D02*
X3172000Y5700000D01*
X3127000Y4895000D02*
X3127000Y4805000D01*
X3082000Y4850000D02*
X3172000Y4850000D01*
X3127000Y4045000D02*
X3127000Y3955000D01*
X3082000Y4000000D02*
X3172000Y4000000D01*
X7365000Y6757000D02*
X7365000Y6667000D01*
X7320000Y6712000D02*
X7410000Y6712000D01*
X7365000Y5233000D02*
X7365000Y5143000D01*
X7320000Y5188000D02*
X7410000Y5188000D01*
X7619000Y6757000D02*
X7619000Y6667000D01*
X7574000Y6712000D02*
X7664000Y6712000D01*
X7619000Y5233000D02*
X7619000Y5143000D01*
X7574000Y5188000D02*
X7664000Y5188000D01*
X7873000Y6757000D02*
X7873000Y6667000D01*
X7828000Y6712000D02*
X7918000Y6712000D01*
X7873000Y5233000D02*
X7873000Y5143000D01*
X7828000Y5188000D02*
X7918000Y5188000D01*
X8127000Y6757000D02*
X8127000Y6667000D01*
X8082000Y6712000D02*
X8172000Y6712000D01*
X8127000Y5233000D02*
X8127000Y5143000D01*
X8082000Y5188000D02*
X8172000Y5188000D01*
X8381000Y6757000D02*
X8381000Y6667000D01*
X8336000Y6712000D02*
X8426000Y6712000D01*
X8381000Y5233000D02*
X8381000Y5143000D01*
X8336000Y5188000D02*
X8426000Y5188000D01*
X8635000Y6757000D02*
X8635000Y6667000D01*
X8590000Y6712000D02*
X8680000Y6712000D01*
X8635000Y5233000D02*
X8635000Y5143000D01*
X8590000Y5188000D02*
X8680000Y5188000D01*
X12873000Y6595000D02*
X12873000Y6505000D01*
X12828000Y6550000D02*
X12918000Y6550000D01*
X12873000Y5745000D02*
X12873000Y5655000D01*
X12828000Y5700000D02*
X12918000Y5700000D01*
X12873000Y4895000D02*
X12873000Y4805000D01*
X12828000Y4850000D02*
X12918000Y4850000D01*
X12873000Y4045000D02*
X12873000Y3955000D01*
X12828000Y4000000D02*
X12918000Y4000000D01*
X13127000Y6595000D02*
X13127000Y6505000D01*
X13082000Y6550000D02*
X13172000Y6550000D01*
X13127000Y5745000D02*
X13127000Y5655000D01*
X13082000Y5700000D02*
X13172000Y5700000D01*
X13127000Y4895000D02*
X13127000Y4805000D01*
X13082000Y4850000D02*
X13172000Y4850000D01*
X13127000Y4045000D02*
X13127000Y3955000D01*
X13082000Y4000000D02*
X13172000Y4000000D01*
X1106588Y4028412D02*
X1106588Y4095588D01*
X1039412Y4095588D01*
X1039412Y4028412D01*
X1106588Y4028412D01*
X1106588Y3774412D02*
X1106588Y3841588D01*
X1039412Y3841588D01*
X1039412Y3774412D01*
X1106588Y3774412D01*
X1106588Y3520412D02*
X1106588Y3587588D01*
X1039412Y3587588D01*
X1039412Y3520412D01*
X1106588Y3520412D01*
X1106588Y3266412D02*
X1106588Y3333588D01*
X1039412Y3333588D01*
X1039412Y3266412D01*
X1106588Y3266412D01*
X1106588Y3012412D02*
X1106588Y3079588D01*
X1039412Y3079588D01*
X1039412Y3012412D01*
X1106588Y3012412D01*
X1106588Y2758412D02*
X1106588Y2825588D01*
X1039412Y2825588D01*
X1039412Y2758412D01*
X1106588Y2758412D01*
X1106588Y2504412D02*
X1106588Y2571588D01*
X1039412Y2571588D01*
X1039412Y2504412D01*
X1106588Y2504412D01*
X1360588Y4028412D02*
X1360588Y4095588D01*
X1293412Y4095588D01*
X1293412Y4028412D01*
X1360588Y4028412D01*
X1360588Y3774412D02*
X1360588Y3841588D01*
X1293412Y3841588D01*
X1293412Y3774412D01*
X1360588Y3774412D01*
X1360588Y3520412D02*
X1360588Y3587588D01*
X1293412Y3587588D01*
X1293412Y3520412D01*
X1360588Y3520412D01*
X1360588Y3266412D02*
X1360588Y3333588D01*
X1293412Y3333588D01*
X1293412Y3266412D01*
X1360588Y3266412D01*
X1360588Y3012412D02*
X1360588Y3079588D01*
X1293412Y3079588D01*
X1293412Y3012412D01*
X1360588Y3012412D01*
X1360588Y2758412D02*
X1360588Y2825588D01*
X1293412Y2825588D01*
X1293412Y2758412D01*
X1360588Y2758412D01*
X1360588Y2504412D02*
X1360588Y2571588D01*
X1293412Y2571588D01*
X1293412Y2504412D01*
X1360588Y2504412D01*
D12*
X4075000Y2680000D02*
X4145000Y2750000D01*
X4075000Y2820000D01*
X4005000Y2750000D01*
X4075000Y2680000D01*
X4075000Y2180000D02*
X4145000Y2250000D01*
X4075000Y2320000D01*
X4005000Y2250000D01*
X4075000Y2180000D01*
X5325000Y2680000D02*
X5395000Y2750000D01*
X5325000Y2820000D01*
X5255000Y2750000D01*
X5325000Y2680000D01*
X5325000Y2180000D02*
X5395000Y2250000D01*
X5325000Y2320000D01*
X5255000Y2250000D01*
X5325000Y2180000D01*
X6275000Y2680000D02*
X6345000Y2750000D01*
X6275000Y2820000D01*
X6205000Y2750000D01*
X6275000Y2680000D01*
X6275000Y2180000D02*
X6345000Y2250000D01*
X6275000Y2320000D01*
X6205000Y2250000D01*
X6275000Y2180000D01*
X7525000Y2680000D02*
X7595000Y2750000D01*
X7525000Y2820000D01*
X7455000Y2750000D01*
X7525000Y2680000D01*
X7525000Y2180000D02*
X7595000Y2250000D01*
X7525000Y2320000D01*
X7455000Y2250000D01*
X7525000Y2180000D01*
X8475000Y2680000D02*
X8545000Y2750000D01*
X8475000Y2820000D01*
X8405000Y2750000D01*
X8475000Y2680000D01*
X8475000Y2180000D02*
X8545000Y2250000D01*
X8475000Y2320000D01*
X8405000Y2250000D01*
X8475000Y2180000D01*
X9725000Y2680000D02*
X9795000Y2750000D01*
X9725000Y2820000D01*
X9655000Y2750000D01*
X9725000Y2680000D01*
X9725000Y2180000D02*
X9795000Y2250000D01*
X9725000Y2320000D01*
X9655000Y2250000D01*
X9725000Y2180000D01*
X10675000Y2680000D02*
X10745000Y2750000D01*
X10675000Y2820000D01*
X10605000Y2750000D01*
X10675000Y2680000D01*
X10675000Y2180000D02*
X10745000Y2250000D01*
X10675000Y2320000D01*
X10605000Y2250000D01*
X10675000Y2180000D01*
X11925000Y2680000D02*
X11995000Y2750000D01*
X11925000Y2820000D01*
X11855000Y2750000D01*
X11925000Y2680000D01*
X11925000Y2180000D02*
X11995000Y2250000D01*
X11925000Y2320000D01*
X11855000Y2250000D01*
X11925000Y2180000D01*
D11*
X255777Y-316484D02*
X255777Y-116484D01*
X255777Y-116484D02*
X303396Y-116484D01*
X303396Y-116484D02*
X331967Y-126008D01*
X331967Y-126008D02*
X351015Y-145055D01*
X351015Y-145055D02*
X360539Y-164103D01*
X360539Y-164103D02*
X370062Y-202198D01*
X370062Y-202198D02*
X370062Y-230769D01*
X370062Y-230769D02*
X360539Y-268865D01*
X360539Y-268865D02*
X351015Y-287912D01*
X351015Y-287912D02*
X331967Y-306960D01*
X331967Y-306960D02*
X303396Y-316484D01*
X303396Y-316484D02*
X255777Y-316484D01*
X455777Y-316484D02*
X455777Y-183150D01*
X455777Y-221246D02*
X465301Y-202198D01*
X465301Y-202198D02*
X474824Y-192674D01*
X474824Y-192674D02*
X493872Y-183150D01*
X493872Y-183150D02*
X512920Y-183150D01*
X579586Y-316484D02*
X579586Y-183150D01*
X579586Y-116484D02*
X570063Y-126008D01*
X570063Y-126008D02*
X579586Y-135531D01*
X579586Y-135531D02*
X589110Y-126008D01*
X589110Y-126008D02*
X579586Y-116484D01*
X579586Y-116484D02*
X579586Y-135531D01*
X703396Y-316484D02*
X684348Y-306960D01*
X684348Y-306960D02*
X674824Y-287912D01*
X674824Y-287912D02*
X674824Y-116484D01*
X808158Y-316484D02*
X789110Y-306960D01*
X789110Y-306960D02*
X779586Y-287912D01*
X779586Y-287912D02*
X779586Y-116484D01*
X1036729Y-316484D02*
X1036729Y-116484D01*
X1036729Y-116484D02*
X1103396Y-259341D01*
X1103396Y-259341D02*
X1170063Y-116484D01*
X1170063Y-116484D02*
X1170063Y-316484D01*
X1351015Y-316484D02*
X1351015Y-211722D01*
X1351015Y-211722D02*
X1341491Y-192674D01*
X1341491Y-192674D02*
X1322444Y-183150D01*
X1322444Y-183150D02*
X1284348Y-183150D01*
X1284348Y-183150D02*
X1265301Y-192674D01*
X1351015Y-306960D02*
X1331967Y-316484D01*
X1331967Y-316484D02*
X1284348Y-316484D01*
X1284348Y-316484D02*
X1265301Y-306960D01*
X1265301Y-306960D02*
X1255777Y-287912D01*
X1255777Y-287912D02*
X1255777Y-268865D01*
X1255777Y-268865D02*
X1265301Y-249817D01*
X1265301Y-249817D02*
X1284348Y-240293D01*
X1284348Y-240293D02*
X1331967Y-240293D01*
X1331967Y-240293D02*
X1351015Y-230769D01*
X1446253Y-183150D02*
X1446253Y-383150D01*
X1446253Y-192674D02*
X1465301Y-183150D01*
X1465301Y-183150D02*
X1503396Y-183150D01*
X1503396Y-183150D02*
X1522443Y-192674D01*
X1522443Y-192674D02*
X1531967Y-202198D01*
X1531967Y-202198D02*
X1541491Y-221246D01*
X1541491Y-221246D02*
X1541491Y-278389D01*
X1541491Y-278389D02*
X1531967Y-297436D01*
X1531967Y-297436D02*
X1522443Y-306960D01*
X1522443Y-306960D02*
X1503396Y-316484D01*
X1503396Y-316484D02*
X1465301Y-316484D01*
X1465301Y-316484D02*
X1446253Y-306960D01*
X1627205Y-297436D02*
X1636729Y-306960D01*
X1636729Y-306960D02*
X1627205Y-316484D01*
X1627205Y-316484D02*
X1617682Y-306960D01*
X1617682Y-306960D02*
X1627205Y-297436D01*
X1627205Y-297436D02*
X1627205Y-316484D01*
X1627205Y-192674D02*
X1636729Y-202198D01*
X1636729Y-202198D02*
X1627205Y-211722D01*
X1627205Y-211722D02*
X1617682Y-202198D01*
X1617682Y-202198D02*
X1627205Y-192674D01*
X1627205Y-192674D02*
X1627205Y-211722D01*
D10*
X-45000Y-625000D02*
X-5000Y-665000D01*
X-5000Y-625000D02*
X-45000Y-665000D01*
D11*
X293872Y-536484D02*
X312920Y-536484D01*
X312920Y-536484D02*
X331967Y-546008D01*
X331967Y-546008D02*
X341491Y-555531D01*
X341491Y-555531D02*
X351015Y-574579D01*
X351015Y-574579D02*
X360539Y-612674D01*
X360539Y-612674D02*
X360539Y-660293D01*
X360539Y-660293D02*
X351015Y-698389D01*
X351015Y-698389D02*
X341491Y-717436D01*
X341491Y-717436D02*
X331967Y-726960D01*
X331967Y-726960D02*
X312920Y-736484D01*
X312920Y-736484D02*
X293872Y-736484D01*
X293872Y-736484D02*
X274824Y-726960D01*
X274824Y-726960D02*
X265301Y-717436D01*
X265301Y-717436D02*
X255777Y-698389D01*
X255777Y-698389D02*
X246253Y-660293D01*
X246253Y-660293D02*
X246253Y-612674D01*
X246253Y-612674D02*
X255777Y-574579D01*
X255777Y-574579D02*
X265301Y-555531D01*
X265301Y-555531D02*
X274824Y-546008D01*
X274824Y-546008D02*
X293872Y-536484D01*
X446253Y-717436D02*
X455777Y-726960D01*
X455777Y-726960D02*
X446253Y-736484D01*
X446253Y-736484D02*
X436729Y-726960D01*
X436729Y-726960D02*
X446253Y-717436D01*
X446253Y-717436D02*
X446253Y-736484D01*
X627205Y-603150D02*
X627205Y-736484D01*
X579586Y-526960D02*
X531967Y-669817D01*
X531967Y-669817D02*
X655777Y-669817D01*
X770062Y-536484D02*
X789110Y-536484D01*
X789110Y-536484D02*
X808158Y-546008D01*
X808158Y-546008D02*
X817682Y-555531D01*
X817682Y-555531D02*
X827205Y-574579D01*
X827205Y-574579D02*
X836729Y-612674D01*
X836729Y-612674D02*
X836729Y-660293D01*
X836729Y-660293D02*
X827205Y-698389D01*
X827205Y-698389D02*
X817682Y-717436D01*
X817682Y-717436D02*
X808158Y-726960D01*
X808158Y-726960D02*
X789110Y-736484D01*
X789110Y-736484D02*
X770062Y-736484D01*
X770062Y-736484D02*
X751015Y-726960D01*
X751015Y-726960D02*
X741491Y-717436D01*
X741491Y-717436D02*
X731967Y-698389D01*
X731967Y-698389D02*
X722443Y-660293D01*
X722443Y-660293D02*
X722443Y-612674D01*
X722443Y-612674D02*
X731967Y-574579D01*
X731967Y-574579D02*
X741491Y-555531D01*
X741491Y-555531D02*
X751015Y-546008D01*
X751015Y-546008D02*
X770062Y-536484D01*
X960539Y-536484D02*
X979586Y-536484D01*
X979586Y-536484D02*
X998634Y-546008D01*
X998634Y-546008D02*
X1008158Y-555531D01*
X1008158Y-555531D02*
X1017682Y-574579D01*
X1017682Y-574579D02*
X1027205Y-612674D01*
X1027205Y-612674D02*
X1027205Y-660293D01*
X1027205Y-660293D02*
X1017682Y-698389D01*
X1017682Y-698389D02*
X1008158Y-717436D01*
X1008158Y-717436D02*
X998634Y-726960D01*
X998634Y-726960D02*
X979586Y-736484D01*
X979586Y-736484D02*
X960539Y-736484D01*
X960539Y-736484D02*
X941491Y-726960D01*
X941491Y-726960D02*
X931967Y-717436D01*
X931967Y-717436D02*
X922443Y-698389D01*
X922443Y-698389D02*
X912920Y-660293D01*
X912920Y-660293D02*
X912920Y-612674D01*
X912920Y-612674D02*
X922443Y-574579D01*
X922443Y-574579D02*
X931967Y-555531D01*
X931967Y-555531D02*
X941491Y-546008D01*
X941491Y-546008D02*
X960539Y-536484D01*
X1112920Y-736484D02*
X1112920Y-603150D01*
X1112920Y-622198D02*
X1122444Y-612674D01*
X1122444Y-612674D02*
X1141491Y-603150D01*
X1141491Y-603150D02*
X1170063Y-603150D01*
X1170063Y-603150D02*
X1189110Y-612674D01*
X1189110Y-612674D02*
X1198634Y-631722D01*
X1198634Y-631722D02*
X1198634Y-736484D01*
X1198634Y-631722D02*
X1208158Y-612674D01*
X1208158Y-612674D02*
X1227205Y-603150D01*
X1227205Y-603150D02*
X1255777Y-603150D01*
X1255777Y-603150D02*
X1274825Y-612674D01*
X1274825Y-612674D02*
X1284348Y-631722D01*
X1284348Y-631722D02*
X1284348Y-736484D01*
X1379586Y-736484D02*
X1379586Y-603150D01*
X1379586Y-622198D02*
X1389110Y-612674D01*
X1389110Y-612674D02*
X1408158Y-603150D01*
X1408158Y-603150D02*
X1436729Y-603150D01*
X1436729Y-603150D02*
X1455777Y-612674D01*
X1455777Y-612674D02*
X1465301Y-631722D01*
X1465301Y-631722D02*
X1465301Y-736484D01*
X1465301Y-631722D02*
X1474824Y-612674D01*
X1474824Y-612674D02*
X1493872Y-603150D01*
X1493872Y-603150D02*
X1522443Y-603150D01*
X1522443Y-603150D02*
X1541491Y-612674D01*
X1541491Y-612674D02*
X1551015Y-631722D01*
X1551015Y-631722D02*
X1551015Y-736484D01*
X1941491Y-526960D02*
X1770063Y-784103D01*
X2198634Y-536484D02*
X2217682Y-536484D01*
X2217682Y-536484D02*
X2236729Y-546008D01*
X2236729Y-546008D02*
X2246253Y-555531D01*
X2246253Y-555531D02*
X2255777Y-574579D01*
X2255777Y-574579D02*
X2265301Y-612674D01*
X2265301Y-612674D02*
X2265301Y-660293D01*
X2265301Y-660293D02*
X2255777Y-698389D01*
X2255777Y-698389D02*
X2246253Y-717436D01*
X2246253Y-717436D02*
X2236729Y-726960D01*
X2236729Y-726960D02*
X2217682Y-736484D01*
X2217682Y-736484D02*
X2198634Y-736484D01*
X2198634Y-736484D02*
X2179587Y-726960D01*
X2179587Y-726960D02*
X2170063Y-717436D01*
X2170063Y-717436D02*
X2160539Y-698389D01*
X2160539Y-698389D02*
X2151015Y-660293D01*
X2151015Y-660293D02*
X2151015Y-612674D01*
X2151015Y-612674D02*
X2160539Y-574579D01*
X2160539Y-574579D02*
X2170063Y-555531D01*
X2170063Y-555531D02*
X2179587Y-546008D01*
X2179587Y-546008D02*
X2198634Y-536484D01*
X2351015Y-717436D02*
X2360539Y-726960D01*
X2360539Y-726960D02*
X2351015Y-736484D01*
X2351015Y-736484D02*
X2341491Y-726960D01*
X2341491Y-726960D02*
X2351015Y-717436D01*
X2351015Y-717436D02*
X2351015Y-736484D01*
X2484348Y-536484D02*
X2503396Y-536484D01*
X2503396Y-536484D02*
X2522444Y-546008D01*
X2522444Y-546008D02*
X2531968Y-555531D01*
X2531968Y-555531D02*
X2541491Y-574579D01*
X2541491Y-574579D02*
X2551015Y-612674D01*
X2551015Y-612674D02*
X2551015Y-660293D01*
X2551015Y-660293D02*
X2541491Y-698389D01*
X2541491Y-698389D02*
X2531968Y-717436D01*
X2531968Y-717436D02*
X2522444Y-726960D01*
X2522444Y-726960D02*
X2503396Y-736484D01*
X2503396Y-736484D02*
X2484348Y-736484D01*
X2484348Y-736484D02*
X2465301Y-726960D01*
X2465301Y-726960D02*
X2455777Y-717436D01*
X2455777Y-717436D02*
X2446253Y-698389D01*
X2446253Y-698389D02*
X2436729Y-660293D01*
X2436729Y-660293D02*
X2436729Y-612674D01*
X2436729Y-612674D02*
X2446253Y-574579D01*
X2446253Y-574579D02*
X2455777Y-555531D01*
X2455777Y-555531D02*
X2465301Y-546008D01*
X2465301Y-546008D02*
X2484348Y-536484D01*
X2741491Y-736484D02*
X2627206Y-736484D01*
X2684348Y-736484D02*
X2684348Y-536484D01*
X2684348Y-536484D02*
X2665301Y-565055D01*
X2665301Y-565055D02*
X2646253Y-584103D01*
X2646253Y-584103D02*
X2627206Y-593627D01*
X2922444Y-536484D02*
X2827206Y-536484D01*
X2827206Y-536484D02*
X2817682Y-631722D01*
X2817682Y-631722D02*
X2827206Y-622198D01*
X2827206Y-622198D02*
X2846253Y-612674D01*
X2846253Y-612674D02*
X2893872Y-612674D01*
X2893872Y-612674D02*
X2912920Y-622198D01*
X2912920Y-622198D02*
X2922444Y-631722D01*
X2922444Y-631722D02*
X2931967Y-650770D01*
X2931967Y-650770D02*
X2931967Y-698389D01*
X2931967Y-698389D02*
X2922444Y-717436D01*
X2922444Y-717436D02*
X2912920Y-726960D01*
X2912920Y-726960D02*
X2893872Y-736484D01*
X2893872Y-736484D02*
X2846253Y-736484D01*
X2846253Y-736484D02*
X2827206Y-726960D01*
X2827206Y-726960D02*
X2817682Y-717436D01*
X2998634Y-536484D02*
X3131967Y-536484D01*
X3131967Y-536484D02*
X3046253Y-736484D01*
X3198634Y-536484D02*
X3198634Y-574579D01*
X3274825Y-536484D02*
X3274825Y-574579D01*
X3570063Y-812674D02*
X3560539Y-803150D01*
X3560539Y-803150D02*
X3541491Y-774579D01*
X3541491Y-774579D02*
X3531968Y-755531D01*
X3531968Y-755531D02*
X3522444Y-726960D01*
X3522444Y-726960D02*
X3512920Y-679341D01*
X3512920Y-679341D02*
X3512920Y-641246D01*
X3512920Y-641246D02*
X3522444Y-593627D01*
X3522444Y-593627D02*
X3531968Y-565055D01*
X3531968Y-565055D02*
X3541491Y-546008D01*
X3541491Y-546008D02*
X3560539Y-517436D01*
X3560539Y-517436D02*
X3570063Y-507912D01*
X3731968Y-536484D02*
X3693872Y-536484D01*
X3693872Y-536484D02*
X3674825Y-546008D01*
X3674825Y-546008D02*
X3665301Y-555531D01*
X3665301Y-555531D02*
X3646253Y-584103D01*
X3646253Y-584103D02*
X3636729Y-622198D01*
X3636729Y-622198D02*
X3636729Y-698389D01*
X3636729Y-698389D02*
X3646253Y-717436D01*
X3646253Y-717436D02*
X3655777Y-726960D01*
X3655777Y-726960D02*
X3674825Y-736484D01*
X3674825Y-736484D02*
X3712920Y-736484D01*
X3712920Y-736484D02*
X3731968Y-726960D01*
X3731968Y-726960D02*
X3741491Y-717436D01*
X3741491Y-717436D02*
X3751015Y-698389D01*
X3751015Y-698389D02*
X3751015Y-650770D01*
X3751015Y-650770D02*
X3741491Y-631722D01*
X3741491Y-631722D02*
X3731968Y-622198D01*
X3731968Y-622198D02*
X3712920Y-612674D01*
X3712920Y-612674D02*
X3674825Y-612674D01*
X3674825Y-612674D02*
X3655777Y-622198D01*
X3655777Y-622198D02*
X3646253Y-631722D01*
X3646253Y-631722D02*
X3636729Y-650770D01*
X3989110Y-736484D02*
X3989110Y-536484D01*
X4074825Y-736484D02*
X4074825Y-631722D01*
X4074825Y-631722D02*
X4065301Y-612674D01*
X4065301Y-612674D02*
X4046253Y-603150D01*
X4046253Y-603150D02*
X4017682Y-603150D01*
X4017682Y-603150D02*
X3998634Y-612674D01*
X3998634Y-612674D02*
X3989110Y-622198D01*
X4198634Y-736484D02*
X4179587Y-726960D01*
X4179587Y-726960D02*
X4170063Y-717436D01*
X4170063Y-717436D02*
X4160539Y-698389D01*
X4160539Y-698389D02*
X4160539Y-641246D01*
X4160539Y-641246D02*
X4170063Y-622198D01*
X4170063Y-622198D02*
X4179587Y-612674D01*
X4179587Y-612674D02*
X4198634Y-603150D01*
X4198634Y-603150D02*
X4227206Y-603150D01*
X4227206Y-603150D02*
X4246253Y-612674D01*
X4246253Y-612674D02*
X4255777Y-622198D01*
X4255777Y-622198D02*
X4265301Y-641246D01*
X4265301Y-641246D02*
X4265301Y-698389D01*
X4265301Y-698389D02*
X4255777Y-717436D01*
X4255777Y-717436D02*
X4246253Y-726960D01*
X4246253Y-726960D02*
X4227206Y-736484D01*
X4227206Y-736484D02*
X4198634Y-736484D01*
X4379587Y-736484D02*
X4360539Y-726960D01*
X4360539Y-726960D02*
X4351015Y-707912D01*
X4351015Y-707912D02*
X4351015Y-536484D01*
X4531968Y-726960D02*
X4512920Y-736484D01*
X4512920Y-736484D02*
X4474825Y-736484D01*
X4474825Y-736484D02*
X4455777Y-726960D01*
X4455777Y-726960D02*
X4446253Y-707912D01*
X4446253Y-707912D02*
X4446253Y-631722D01*
X4446253Y-631722D02*
X4455777Y-612674D01*
X4455777Y-612674D02*
X4474825Y-603150D01*
X4474825Y-603150D02*
X4512920Y-603150D01*
X4512920Y-603150D02*
X4531968Y-612674D01*
X4531968Y-612674D02*
X4541492Y-631722D01*
X4541492Y-631722D02*
X4541492Y-650770D01*
X4541492Y-650770D02*
X4446253Y-669817D01*
X4617682Y-726960D02*
X4636730Y-736484D01*
X4636730Y-736484D02*
X4674825Y-736484D01*
X4674825Y-736484D02*
X4693873Y-726960D01*
X4693873Y-726960D02*
X4703396Y-707912D01*
X4703396Y-707912D02*
X4703396Y-698389D01*
X4703396Y-698389D02*
X4693873Y-679341D01*
X4693873Y-679341D02*
X4674825Y-669817D01*
X4674825Y-669817D02*
X4646253Y-669817D01*
X4646253Y-669817D02*
X4627206Y-660293D01*
X4627206Y-660293D02*
X4617682Y-641246D01*
X4617682Y-641246D02*
X4617682Y-631722D01*
X4617682Y-631722D02*
X4627206Y-612674D01*
X4627206Y-612674D02*
X4646253Y-603150D01*
X4646253Y-603150D02*
X4674825Y-603150D01*
X4674825Y-603150D02*
X4693873Y-612674D01*
X4770063Y-812674D02*
X4779587Y-803150D01*
X4779587Y-803150D02*
X4798634Y-774579D01*
X4798634Y-774579D02*
X4808158Y-755531D01*
X4808158Y-755531D02*
X4817682Y-726960D01*
X4817682Y-726960D02*
X4827206Y-679341D01*
X4827206Y-679341D02*
X4827206Y-641246D01*
X4827206Y-641246D02*
X4817682Y-593627D01*
X4817682Y-593627D02*
X4808158Y-565055D01*
X4808158Y-565055D02*
X4798634Y-546008D01*
X4798634Y-546008D02*
X4779587Y-517436D01*
X4779587Y-517436D02*
X4770063Y-507912D01*
D10*
X-5000Y-909000D02*
G75*
G02*
X-55000Y-909000I-25000J0D01*
G01*
X-55000Y-909000D02*
G75*
G02*
X-5000Y-909000I25000J0D01*
G01*
D11*
X293872Y-800484D02*
X312920Y-800484D01*
X312920Y-800484D02*
X331967Y-810008D01*
X331967Y-810008D02*
X341491Y-819531D01*
X341491Y-819531D02*
X351015Y-838579D01*
X351015Y-838579D02*
X360539Y-876674D01*
X360539Y-876674D02*
X360539Y-924293D01*
X360539Y-924293D02*
X351015Y-962388D01*
X351015Y-962388D02*
X341491Y-981436D01*
X341491Y-981436D02*
X331967Y-990960D01*
X331967Y-990960D02*
X312920Y-1000484D01*
X312920Y-1000484D02*
X293872Y-1000484D01*
X293872Y-1000484D02*
X274824Y-990960D01*
X274824Y-990960D02*
X265301Y-981436D01*
X265301Y-981436D02*
X255777Y-962388D01*
X255777Y-962388D02*
X246253Y-924293D01*
X246253Y-924293D02*
X246253Y-876674D01*
X246253Y-876674D02*
X255777Y-838579D01*
X255777Y-838579D02*
X265301Y-819531D01*
X265301Y-819531D02*
X274824Y-810008D01*
X274824Y-810008D02*
X293872Y-800484D01*
X446253Y-981436D02*
X455777Y-990960D01*
X455777Y-990960D02*
X446253Y-1000484D01*
X446253Y-1000484D02*
X436729Y-990960D01*
X436729Y-990960D02*
X446253Y-981436D01*
X446253Y-981436D02*
X446253Y-1000484D01*
X636729Y-800484D02*
X541491Y-800484D01*
X541491Y-800484D02*
X531967Y-895722D01*
X531967Y-895722D02*
X541491Y-886198D01*
X541491Y-886198D02*
X560539Y-876674D01*
X560539Y-876674D02*
X608158Y-876674D01*
X608158Y-876674D02*
X627205Y-886198D01*
X627205Y-886198D02*
X636729Y-895722D01*
X636729Y-895722D02*
X646253Y-914769D01*
X646253Y-914769D02*
X646253Y-962388D01*
X646253Y-962388D02*
X636729Y-981436D01*
X636729Y-981436D02*
X627205Y-990960D01*
X627205Y-990960D02*
X608158Y-1000484D01*
X608158Y-1000484D02*
X560539Y-1000484D01*
X560539Y-1000484D02*
X541491Y-990960D01*
X541491Y-990960D02*
X531967Y-981436D01*
X770062Y-800484D02*
X789110Y-800484D01*
X789110Y-800484D02*
X808158Y-810008D01*
X808158Y-810008D02*
X817682Y-819531D01*
X817682Y-819531D02*
X827205Y-838579D01*
X827205Y-838579D02*
X836729Y-876674D01*
X836729Y-876674D02*
X836729Y-924293D01*
X836729Y-924293D02*
X827205Y-962388D01*
X827205Y-962388D02*
X817682Y-981436D01*
X817682Y-981436D02*
X808158Y-990960D01*
X808158Y-990960D02*
X789110Y-1000484D01*
X789110Y-1000484D02*
X770062Y-1000484D01*
X770062Y-1000484D02*
X751015Y-990960D01*
X751015Y-990960D02*
X741491Y-981436D01*
X741491Y-981436D02*
X731967Y-962388D01*
X731967Y-962388D02*
X722443Y-924293D01*
X722443Y-924293D02*
X722443Y-876674D01*
X722443Y-876674D02*
X731967Y-838579D01*
X731967Y-838579D02*
X741491Y-819531D01*
X741491Y-819531D02*
X751015Y-810008D01*
X751015Y-810008D02*
X770062Y-800484D01*
X960539Y-800484D02*
X979586Y-800484D01*
X979586Y-800484D02*
X998634Y-810008D01*
X998634Y-810008D02*
X1008158Y-819531D01*
X1008158Y-819531D02*
X1017682Y-838579D01*
X1017682Y-838579D02*
X1027205Y-876674D01*
X1027205Y-876674D02*
X1027205Y-924293D01*
X1027205Y-924293D02*
X1017682Y-962388D01*
X1017682Y-962388D02*
X1008158Y-981436D01*
X1008158Y-981436D02*
X998634Y-990960D01*
X998634Y-990960D02*
X979586Y-1000484D01*
X979586Y-1000484D02*
X960539Y-1000484D01*
X960539Y-1000484D02*
X941491Y-990960D01*
X941491Y-990960D02*
X931967Y-981436D01*
X931967Y-981436D02*
X922443Y-962388D01*
X922443Y-962388D02*
X912920Y-924293D01*
X912920Y-924293D02*
X912920Y-876674D01*
X912920Y-876674D02*
X922443Y-838579D01*
X922443Y-838579D02*
X931967Y-819531D01*
X931967Y-819531D02*
X941491Y-810008D01*
X941491Y-810008D02*
X960539Y-800484D01*
X1112920Y-1000484D02*
X1112920Y-867150D01*
X1112920Y-886198D02*
X1122444Y-876674D01*
X1122444Y-876674D02*
X1141491Y-867150D01*
X1141491Y-867150D02*
X1170063Y-867150D01*
X1170063Y-867150D02*
X1189110Y-876674D01*
X1189110Y-876674D02*
X1198634Y-895722D01*
X1198634Y-895722D02*
X1198634Y-1000484D01*
X1198634Y-895722D02*
X1208158Y-876674D01*
X1208158Y-876674D02*
X1227205Y-867150D01*
X1227205Y-867150D02*
X1255777Y-867150D01*
X1255777Y-867150D02*
X1274825Y-876674D01*
X1274825Y-876674D02*
X1284348Y-895722D01*
X1284348Y-895722D02*
X1284348Y-1000484D01*
X1379586Y-1000484D02*
X1379586Y-867150D01*
X1379586Y-886198D02*
X1389110Y-876674D01*
X1389110Y-876674D02*
X1408158Y-867150D01*
X1408158Y-867150D02*
X1436729Y-867150D01*
X1436729Y-867150D02*
X1455777Y-876674D01*
X1455777Y-876674D02*
X1465301Y-895722D01*
X1465301Y-895722D02*
X1465301Y-1000484D01*
X1465301Y-895722D02*
X1474824Y-876674D01*
X1474824Y-876674D02*
X1493872Y-867150D01*
X1493872Y-867150D02*
X1522443Y-867150D01*
X1522443Y-867150D02*
X1541491Y-876674D01*
X1541491Y-876674D02*
X1551015Y-895722D01*
X1551015Y-895722D02*
X1551015Y-1000484D01*
X1941491Y-790960D02*
X1770063Y-1048103D01*
X2198634Y-800484D02*
X2217682Y-800484D01*
X2217682Y-800484D02*
X2236729Y-810008D01*
X2236729Y-810008D02*
X2246253Y-819531D01*
X2246253Y-819531D02*
X2255777Y-838579D01*
X2255777Y-838579D02*
X2265301Y-876674D01*
X2265301Y-876674D02*
X2265301Y-924293D01*
X2265301Y-924293D02*
X2255777Y-962388D01*
X2255777Y-962388D02*
X2246253Y-981436D01*
X2246253Y-981436D02*
X2236729Y-990960D01*
X2236729Y-990960D02*
X2217682Y-1000484D01*
X2217682Y-1000484D02*
X2198634Y-1000484D01*
X2198634Y-1000484D02*
X2179587Y-990960D01*
X2179587Y-990960D02*
X2170063Y-981436D01*
X2170063Y-981436D02*
X2160539Y-962388D01*
X2160539Y-962388D02*
X2151015Y-924293D01*
X2151015Y-924293D02*
X2151015Y-876674D01*
X2151015Y-876674D02*
X2160539Y-838579D01*
X2160539Y-838579D02*
X2170063Y-819531D01*
X2170063Y-819531D02*
X2179587Y-810008D01*
X2179587Y-810008D02*
X2198634Y-800484D01*
X2351015Y-981436D02*
X2360539Y-990960D01*
X2360539Y-990960D02*
X2351015Y-1000484D01*
X2351015Y-1000484D02*
X2341491Y-990960D01*
X2341491Y-990960D02*
X2351015Y-981436D01*
X2351015Y-981436D02*
X2351015Y-1000484D01*
X2484348Y-800484D02*
X2503396Y-800484D01*
X2503396Y-800484D02*
X2522444Y-810008D01*
X2522444Y-810008D02*
X2531968Y-819531D01*
X2531968Y-819531D02*
X2541491Y-838579D01*
X2541491Y-838579D02*
X2551015Y-876674D01*
X2551015Y-876674D02*
X2551015Y-924293D01*
X2551015Y-924293D02*
X2541491Y-962388D01*
X2541491Y-962388D02*
X2531968Y-981436D01*
X2531968Y-981436D02*
X2522444Y-990960D01*
X2522444Y-990960D02*
X2503396Y-1000484D01*
X2503396Y-1000484D02*
X2484348Y-1000484D01*
X2484348Y-1000484D02*
X2465301Y-990960D01*
X2465301Y-990960D02*
X2455777Y-981436D01*
X2455777Y-981436D02*
X2446253Y-962388D01*
X2446253Y-962388D02*
X2436729Y-924293D01*
X2436729Y-924293D02*
X2436729Y-876674D01*
X2436729Y-876674D02*
X2446253Y-838579D01*
X2446253Y-838579D02*
X2455777Y-819531D01*
X2455777Y-819531D02*
X2465301Y-810008D01*
X2465301Y-810008D02*
X2484348Y-800484D01*
X2741491Y-1000484D02*
X2627206Y-1000484D01*
X2684348Y-1000484D02*
X2684348Y-800484D01*
X2684348Y-800484D02*
X2665301Y-829055D01*
X2665301Y-829055D02*
X2646253Y-848103D01*
X2646253Y-848103D02*
X2627206Y-857627D01*
X2836729Y-1000484D02*
X2874825Y-1000484D01*
X2874825Y-1000484D02*
X2893872Y-990960D01*
X2893872Y-990960D02*
X2903396Y-981436D01*
X2903396Y-981436D02*
X2922444Y-952865D01*
X2922444Y-952865D02*
X2931967Y-914769D01*
X2931967Y-914769D02*
X2931967Y-838579D01*
X2931967Y-838579D02*
X2922444Y-819531D01*
X2922444Y-819531D02*
X2912920Y-810008D01*
X2912920Y-810008D02*
X2893872Y-800484D01*
X2893872Y-800484D02*
X2855777Y-800484D01*
X2855777Y-800484D02*
X2836729Y-810008D01*
X2836729Y-810008D02*
X2827206Y-819531D01*
X2827206Y-819531D02*
X2817682Y-838579D01*
X2817682Y-838579D02*
X2817682Y-886198D01*
X2817682Y-886198D02*
X2827206Y-905246D01*
X2827206Y-905246D02*
X2836729Y-914769D01*
X2836729Y-914769D02*
X2855777Y-924293D01*
X2855777Y-924293D02*
X2893872Y-924293D01*
X2893872Y-924293D02*
X2912920Y-914769D01*
X2912920Y-914769D02*
X2922444Y-905246D01*
X2922444Y-905246D02*
X2931967Y-886198D01*
X2998634Y-800484D02*
X3131967Y-800484D01*
X3131967Y-800484D02*
X3046253Y-1000484D01*
X3198634Y-800484D02*
X3198634Y-838579D01*
X3274825Y-800484D02*
X3274825Y-838579D01*
X3570063Y-1076674D02*
X3560539Y-1067150D01*
X3560539Y-1067150D02*
X3541491Y-1038579D01*
X3541491Y-1038579D02*
X3531968Y-1019531D01*
X3531968Y-1019531D02*
X3522444Y-990960D01*
X3522444Y-990960D02*
X3512920Y-943341D01*
X3512920Y-943341D02*
X3512920Y-905246D01*
X3512920Y-905246D02*
X3522444Y-857627D01*
X3522444Y-857627D02*
X3531968Y-829055D01*
X3531968Y-829055D02*
X3541491Y-810008D01*
X3541491Y-810008D02*
X3560539Y-781436D01*
X3560539Y-781436D02*
X3570063Y-771912D01*
X3751015Y-1000484D02*
X3636729Y-1000484D01*
X3693872Y-1000484D02*
X3693872Y-800484D01*
X3693872Y-800484D02*
X3674825Y-829055D01*
X3674825Y-829055D02*
X3655777Y-848103D01*
X3655777Y-848103D02*
X3636729Y-857627D01*
X3874825Y-800484D02*
X3893872Y-800484D01*
X3893872Y-800484D02*
X3912920Y-810008D01*
X3912920Y-810008D02*
X3922444Y-819531D01*
X3922444Y-819531D02*
X3931968Y-838579D01*
X3931968Y-838579D02*
X3941491Y-876674D01*
X3941491Y-876674D02*
X3941491Y-924293D01*
X3941491Y-924293D02*
X3931968Y-962388D01*
X3931968Y-962388D02*
X3922444Y-981436D01*
X3922444Y-981436D02*
X3912920Y-990960D01*
X3912920Y-990960D02*
X3893872Y-1000484D01*
X3893872Y-1000484D02*
X3874825Y-1000484D01*
X3874825Y-1000484D02*
X3855777Y-990960D01*
X3855777Y-990960D02*
X3846253Y-981436D01*
X3846253Y-981436D02*
X3836729Y-962388D01*
X3836729Y-962388D02*
X3827206Y-924293D01*
X3827206Y-924293D02*
X3827206Y-876674D01*
X3827206Y-876674D02*
X3836729Y-838579D01*
X3836729Y-838579D02*
X3846253Y-819531D01*
X3846253Y-819531D02*
X3855777Y-810008D01*
X3855777Y-810008D02*
X3874825Y-800484D01*
X4122444Y-800484D02*
X4027206Y-800484D01*
X4027206Y-800484D02*
X4017682Y-895722D01*
X4017682Y-895722D02*
X4027206Y-886198D01*
X4027206Y-886198D02*
X4046253Y-876674D01*
X4046253Y-876674D02*
X4093872Y-876674D01*
X4093872Y-876674D02*
X4112920Y-886198D01*
X4112920Y-886198D02*
X4122444Y-895722D01*
X4122444Y-895722D02*
X4131968Y-914769D01*
X4131968Y-914769D02*
X4131968Y-962388D01*
X4131968Y-962388D02*
X4122444Y-981436D01*
X4122444Y-981436D02*
X4112920Y-990960D01*
X4112920Y-990960D02*
X4093872Y-1000484D01*
X4093872Y-1000484D02*
X4046253Y-1000484D01*
X4046253Y-1000484D02*
X4027206Y-990960D01*
X4027206Y-990960D02*
X4017682Y-981436D01*
X4370063Y-1000484D02*
X4370063Y-800484D01*
X4455777Y-1000484D02*
X4455777Y-895722D01*
X4455777Y-895722D02*
X4446253Y-876674D01*
X4446253Y-876674D02*
X4427206Y-867150D01*
X4427206Y-867150D02*
X4398634Y-867150D01*
X4398634Y-867150D02*
X4379587Y-876674D01*
X4379587Y-876674D02*
X4370063Y-886198D01*
X4579587Y-1000484D02*
X4560539Y-990960D01*
X4560539Y-990960D02*
X4551015Y-981436D01*
X4551015Y-981436D02*
X4541492Y-962388D01*
X4541492Y-962388D02*
X4541492Y-905246D01*
X4541492Y-905246D02*
X4551015Y-886198D01*
X4551015Y-886198D02*
X4560539Y-876674D01*
X4560539Y-876674D02*
X4579587Y-867150D01*
X4579587Y-867150D02*
X4608158Y-867150D01*
X4608158Y-867150D02*
X4627206Y-876674D01*
X4627206Y-876674D02*
X4636730Y-886198D01*
X4636730Y-886198D02*
X4646253Y-905246D01*
X4646253Y-905246D02*
X4646253Y-962388D01*
X4646253Y-962388D02*
X4636730Y-981436D01*
X4636730Y-981436D02*
X4627206Y-990960D01*
X4627206Y-990960D02*
X4608158Y-1000484D01*
X4608158Y-1000484D02*
X4579587Y-1000484D01*
X4760539Y-1000484D02*
X4741492Y-990960D01*
X4741492Y-990960D02*
X4731968Y-971912D01*
X4731968Y-971912D02*
X4731968Y-800484D01*
X4912920Y-990960D02*
X4893873Y-1000484D01*
X4893873Y-1000484D02*
X4855777Y-1000484D01*
X4855777Y-1000484D02*
X4836730Y-990960D01*
X4836730Y-990960D02*
X4827206Y-971912D01*
X4827206Y-971912D02*
X4827206Y-895722D01*
X4827206Y-895722D02*
X4836730Y-876674D01*
X4836730Y-876674D02*
X4855777Y-867150D01*
X4855777Y-867150D02*
X4893873Y-867150D01*
X4893873Y-867150D02*
X4912920Y-876674D01*
X4912920Y-876674D02*
X4922444Y-895722D01*
X4922444Y-895722D02*
X4922444Y-914769D01*
X4922444Y-914769D02*
X4827206Y-933817D01*
X4998634Y-990960D02*
X5017682Y-1000484D01*
X5017682Y-1000484D02*
X5055777Y-1000484D01*
X5055777Y-1000484D02*
X5074825Y-990960D01*
X5074825Y-990960D02*
X5084349Y-971912D01*
X5084349Y-971912D02*
X5084349Y-962388D01*
X5084349Y-962388D02*
X5074825Y-943341D01*
X5074825Y-943341D02*
X5055777Y-933817D01*
X5055777Y-933817D02*
X5027206Y-933817D01*
X5027206Y-933817D02*
X5008158Y-924293D01*
X5008158Y-924293D02*
X4998634Y-905246D01*
X4998634Y-905246D02*
X4998634Y-895722D01*
X4998634Y-895722D02*
X5008158Y-876674D01*
X5008158Y-876674D02*
X5027206Y-867150D01*
X5027206Y-867150D02*
X5055777Y-867150D01*
X5055777Y-867150D02*
X5074825Y-876674D01*
X5151015Y-1076674D02*
X5160539Y-1067150D01*
X5160539Y-1067150D02*
X5179587Y-1038579D01*
X5179587Y-1038579D02*
X5189111Y-1019531D01*
X5189111Y-1019531D02*
X5198634Y-990960D01*
X5198634Y-990960D02*
X5208158Y-943341D01*
X5208158Y-943341D02*
X5208158Y-905246D01*
X5208158Y-905246D02*
X5198634Y-857627D01*
X5198634Y-857627D02*
X5189111Y-829055D01*
X5189111Y-829055D02*
X5179587Y-810008D01*
X5179587Y-810008D02*
X5160539Y-781436D01*
X5160539Y-781436D02*
X5151015Y-771912D01*
D10*
X-50000Y-1128000D02*
X-50000Y-1218000D01*
X-95000Y-1173000D02*
X-5000Y-1173000D01*
D11*
X293872Y-1064484D02*
X312920Y-1064484D01*
X312920Y-1064484D02*
X331967Y-1074008D01*
X331967Y-1074008D02*
X341491Y-1083531D01*
X341491Y-1083531D02*
X351015Y-1102579D01*
X351015Y-1102579D02*
X360539Y-1140674D01*
X360539Y-1140674D02*
X360539Y-1188293D01*
X360539Y-1188293D02*
X351015Y-1226389D01*
X351015Y-1226389D02*
X341491Y-1245436D01*
X341491Y-1245436D02*
X331967Y-1254960D01*
X331967Y-1254960D02*
X312920Y-1264484D01*
X312920Y-1264484D02*
X293872Y-1264484D01*
X293872Y-1264484D02*
X274824Y-1254960D01*
X274824Y-1254960D02*
X265301Y-1245436D01*
X265301Y-1245436D02*
X255777Y-1226389D01*
X255777Y-1226389D02*
X246253Y-1188293D01*
X246253Y-1188293D02*
X246253Y-1140674D01*
X246253Y-1140674D02*
X255777Y-1102579D01*
X255777Y-1102579D02*
X265301Y-1083531D01*
X265301Y-1083531D02*
X274824Y-1074008D01*
X274824Y-1074008D02*
X293872Y-1064484D01*
X446253Y-1245436D02*
X455777Y-1254960D01*
X455777Y-1254960D02*
X446253Y-1264484D01*
X446253Y-1264484D02*
X436729Y-1254960D01*
X436729Y-1254960D02*
X446253Y-1245436D01*
X446253Y-1245436D02*
X446253Y-1264484D01*
X551015Y-1264484D02*
X589110Y-1264484D01*
X589110Y-1264484D02*
X608158Y-1254960D01*
X608158Y-1254960D02*
X617682Y-1245436D01*
X617682Y-1245436D02*
X636729Y-1216865D01*
X636729Y-1216865D02*
X646253Y-1178770D01*
X646253Y-1178770D02*
X646253Y-1102579D01*
X646253Y-1102579D02*
X636729Y-1083531D01*
X636729Y-1083531D02*
X627205Y-1074008D01*
X627205Y-1074008D02*
X608158Y-1064484D01*
X608158Y-1064484D02*
X570063Y-1064484D01*
X570063Y-1064484D02*
X551015Y-1074008D01*
X551015Y-1074008D02*
X541491Y-1083531D01*
X541491Y-1083531D02*
X531967Y-1102579D01*
X531967Y-1102579D02*
X531967Y-1150198D01*
X531967Y-1150198D02*
X541491Y-1169246D01*
X541491Y-1169246D02*
X551015Y-1178770D01*
X551015Y-1178770D02*
X570063Y-1188293D01*
X570063Y-1188293D02*
X608158Y-1188293D01*
X608158Y-1188293D02*
X627205Y-1178770D01*
X627205Y-1178770D02*
X636729Y-1169246D01*
X636729Y-1169246D02*
X646253Y-1150198D01*
X770062Y-1064484D02*
X789110Y-1064484D01*
X789110Y-1064484D02*
X808158Y-1074008D01*
X808158Y-1074008D02*
X817682Y-1083531D01*
X817682Y-1083531D02*
X827205Y-1102579D01*
X827205Y-1102579D02*
X836729Y-1140674D01*
X836729Y-1140674D02*
X836729Y-1188293D01*
X836729Y-1188293D02*
X827205Y-1226389D01*
X827205Y-1226389D02*
X817682Y-1245436D01*
X817682Y-1245436D02*
X808158Y-1254960D01*
X808158Y-1254960D02*
X789110Y-1264484D01*
X789110Y-1264484D02*
X770062Y-1264484D01*
X770062Y-1264484D02*
X751015Y-1254960D01*
X751015Y-1254960D02*
X741491Y-1245436D01*
X741491Y-1245436D02*
X731967Y-1226389D01*
X731967Y-1226389D02*
X722443Y-1188293D01*
X722443Y-1188293D02*
X722443Y-1140674D01*
X722443Y-1140674D02*
X731967Y-1102579D01*
X731967Y-1102579D02*
X741491Y-1083531D01*
X741491Y-1083531D02*
X751015Y-1074008D01*
X751015Y-1074008D02*
X770062Y-1064484D01*
X960539Y-1064484D02*
X979586Y-1064484D01*
X979586Y-1064484D02*
X998634Y-1074008D01*
X998634Y-1074008D02*
X1008158Y-1083531D01*
X1008158Y-1083531D02*
X1017682Y-1102579D01*
X1017682Y-1102579D02*
X1027205Y-1140674D01*
X1027205Y-1140674D02*
X1027205Y-1188293D01*
X1027205Y-1188293D02*
X1017682Y-1226389D01*
X1017682Y-1226389D02*
X1008158Y-1245436D01*
X1008158Y-1245436D02*
X998634Y-1254960D01*
X998634Y-1254960D02*
X979586Y-1264484D01*
X979586Y-1264484D02*
X960539Y-1264484D01*
X960539Y-1264484D02*
X941491Y-1254960D01*
X941491Y-1254960D02*
X931967Y-1245436D01*
X931967Y-1245436D02*
X922443Y-1226389D01*
X922443Y-1226389D02*
X912920Y-1188293D01*
X912920Y-1188293D02*
X912920Y-1140674D01*
X912920Y-1140674D02*
X922443Y-1102579D01*
X922443Y-1102579D02*
X931967Y-1083531D01*
X931967Y-1083531D02*
X941491Y-1074008D01*
X941491Y-1074008D02*
X960539Y-1064484D01*
X1112920Y-1264484D02*
X1112920Y-1131150D01*
X1112920Y-1150198D02*
X1122444Y-1140674D01*
X1122444Y-1140674D02*
X1141491Y-1131150D01*
X1141491Y-1131150D02*
X1170063Y-1131150D01*
X1170063Y-1131150D02*
X1189110Y-1140674D01*
X1189110Y-1140674D02*
X1198634Y-1159722D01*
X1198634Y-1159722D02*
X1198634Y-1264484D01*
X1198634Y-1159722D02*
X1208158Y-1140674D01*
X1208158Y-1140674D02*
X1227205Y-1131150D01*
X1227205Y-1131150D02*
X1255777Y-1131150D01*
X1255777Y-1131150D02*
X1274825Y-1140674D01*
X1274825Y-1140674D02*
X1284348Y-1159722D01*
X1284348Y-1159722D02*
X1284348Y-1264484D01*
X1379586Y-1264484D02*
X1379586Y-1131150D01*
X1379586Y-1150198D02*
X1389110Y-1140674D01*
X1389110Y-1140674D02*
X1408158Y-1131150D01*
X1408158Y-1131150D02*
X1436729Y-1131150D01*
X1436729Y-1131150D02*
X1455777Y-1140674D01*
X1455777Y-1140674D02*
X1465301Y-1159722D01*
X1465301Y-1159722D02*
X1465301Y-1264484D01*
X1465301Y-1159722D02*
X1474824Y-1140674D01*
X1474824Y-1140674D02*
X1493872Y-1131150D01*
X1493872Y-1131150D02*
X1522443Y-1131150D01*
X1522443Y-1131150D02*
X1541491Y-1140674D01*
X1541491Y-1140674D02*
X1551015Y-1159722D01*
X1551015Y-1159722D02*
X1551015Y-1264484D01*
X1941491Y-1054960D02*
X1770063Y-1312103D01*
X2198634Y-1064484D02*
X2217682Y-1064484D01*
X2217682Y-1064484D02*
X2236729Y-1074008D01*
X2236729Y-1074008D02*
X2246253Y-1083531D01*
X2246253Y-1083531D02*
X2255777Y-1102579D01*
X2255777Y-1102579D02*
X2265301Y-1140674D01*
X2265301Y-1140674D02*
X2265301Y-1188293D01*
X2265301Y-1188293D02*
X2255777Y-1226389D01*
X2255777Y-1226389D02*
X2246253Y-1245436D01*
X2246253Y-1245436D02*
X2236729Y-1254960D01*
X2236729Y-1254960D02*
X2217682Y-1264484D01*
X2217682Y-1264484D02*
X2198634Y-1264484D01*
X2198634Y-1264484D02*
X2179587Y-1254960D01*
X2179587Y-1254960D02*
X2170063Y-1245436D01*
X2170063Y-1245436D02*
X2160539Y-1226389D01*
X2160539Y-1226389D02*
X2151015Y-1188293D01*
X2151015Y-1188293D02*
X2151015Y-1140674D01*
X2151015Y-1140674D02*
X2160539Y-1102579D01*
X2160539Y-1102579D02*
X2170063Y-1083531D01*
X2170063Y-1083531D02*
X2179587Y-1074008D01*
X2179587Y-1074008D02*
X2198634Y-1064484D01*
X2351015Y-1245436D02*
X2360539Y-1254960D01*
X2360539Y-1254960D02*
X2351015Y-1264484D01*
X2351015Y-1264484D02*
X2341491Y-1254960D01*
X2341491Y-1254960D02*
X2351015Y-1245436D01*
X2351015Y-1245436D02*
X2351015Y-1264484D01*
X2484348Y-1064484D02*
X2503396Y-1064484D01*
X2503396Y-1064484D02*
X2522444Y-1074008D01*
X2522444Y-1074008D02*
X2531968Y-1083531D01*
X2531968Y-1083531D02*
X2541491Y-1102579D01*
X2541491Y-1102579D02*
X2551015Y-1140674D01*
X2551015Y-1140674D02*
X2551015Y-1188293D01*
X2551015Y-1188293D02*
X2541491Y-1226389D01*
X2541491Y-1226389D02*
X2531968Y-1245436D01*
X2531968Y-1245436D02*
X2522444Y-1254960D01*
X2522444Y-1254960D02*
X2503396Y-1264484D01*
X2503396Y-1264484D02*
X2484348Y-1264484D01*
X2484348Y-1264484D02*
X2465301Y-1254960D01*
X2465301Y-1254960D02*
X2455777Y-1245436D01*
X2455777Y-1245436D02*
X2446253Y-1226389D01*
X2446253Y-1226389D02*
X2436729Y-1188293D01*
X2436729Y-1188293D02*
X2436729Y-1140674D01*
X2436729Y-1140674D02*
X2446253Y-1102579D01*
X2446253Y-1102579D02*
X2455777Y-1083531D01*
X2455777Y-1083531D02*
X2465301Y-1074008D01*
X2465301Y-1074008D02*
X2484348Y-1064484D01*
X2617682Y-1064484D02*
X2741491Y-1064484D01*
X2741491Y-1064484D02*
X2674825Y-1140674D01*
X2674825Y-1140674D02*
X2703396Y-1140674D01*
X2703396Y-1140674D02*
X2722444Y-1150198D01*
X2722444Y-1150198D02*
X2731968Y-1159722D01*
X2731968Y-1159722D02*
X2741491Y-1178770D01*
X2741491Y-1178770D02*
X2741491Y-1226389D01*
X2741491Y-1226389D02*
X2731968Y-1245436D01*
X2731968Y-1245436D02*
X2722444Y-1254960D01*
X2722444Y-1254960D02*
X2703396Y-1264484D01*
X2703396Y-1264484D02*
X2646253Y-1264484D01*
X2646253Y-1264484D02*
X2627206Y-1254960D01*
X2627206Y-1254960D02*
X2617682Y-1245436D01*
X2922444Y-1064484D02*
X2827206Y-1064484D01*
X2827206Y-1064484D02*
X2817682Y-1159722D01*
X2817682Y-1159722D02*
X2827206Y-1150198D01*
X2827206Y-1150198D02*
X2846253Y-1140674D01*
X2846253Y-1140674D02*
X2893872Y-1140674D01*
X2893872Y-1140674D02*
X2912920Y-1150198D01*
X2912920Y-1150198D02*
X2922444Y-1159722D01*
X2922444Y-1159722D02*
X2931967Y-1178770D01*
X2931967Y-1178770D02*
X2931967Y-1226389D01*
X2931967Y-1226389D02*
X2922444Y-1245436D01*
X2922444Y-1245436D02*
X2912920Y-1254960D01*
X2912920Y-1254960D02*
X2893872Y-1264484D01*
X2893872Y-1264484D02*
X2846253Y-1264484D01*
X2846253Y-1264484D02*
X2827206Y-1254960D01*
X2827206Y-1254960D02*
X2817682Y-1245436D01*
X3103396Y-1131150D02*
X3103396Y-1264484D01*
X3055777Y-1054960D02*
X3008158Y-1197817D01*
X3008158Y-1197817D02*
X3131967Y-1197817D01*
X3198634Y-1064484D02*
X3198634Y-1102579D01*
X3274825Y-1064484D02*
X3274825Y-1102579D01*
X3570063Y-1340674D02*
X3560539Y-1331150D01*
X3560539Y-1331150D02*
X3541491Y-1302579D01*
X3541491Y-1302579D02*
X3531968Y-1283531D01*
X3531968Y-1283531D02*
X3522444Y-1254960D01*
X3522444Y-1254960D02*
X3512920Y-1207341D01*
X3512920Y-1207341D02*
X3512920Y-1169246D01*
X3512920Y-1169246D02*
X3522444Y-1121627D01*
X3522444Y-1121627D02*
X3531968Y-1093055D01*
X3531968Y-1093055D02*
X3541491Y-1074008D01*
X3541491Y-1074008D02*
X3560539Y-1045436D01*
X3560539Y-1045436D02*
X3570063Y-1035912D01*
X3636729Y-1083531D02*
X3646253Y-1074008D01*
X3646253Y-1074008D02*
X3665301Y-1064484D01*
X3665301Y-1064484D02*
X3712920Y-1064484D01*
X3712920Y-1064484D02*
X3731968Y-1074008D01*
X3731968Y-1074008D02*
X3741491Y-1083531D01*
X3741491Y-1083531D02*
X3751015Y-1102579D01*
X3751015Y-1102579D02*
X3751015Y-1121627D01*
X3751015Y-1121627D02*
X3741491Y-1150198D01*
X3741491Y-1150198D02*
X3627206Y-1264484D01*
X3627206Y-1264484D02*
X3751015Y-1264484D01*
X3865301Y-1150198D02*
X3846253Y-1140674D01*
X3846253Y-1140674D02*
X3836729Y-1131150D01*
X3836729Y-1131150D02*
X3827206Y-1112103D01*
X3827206Y-1112103D02*
X3827206Y-1102579D01*
X3827206Y-1102579D02*
X3836729Y-1083531D01*
X3836729Y-1083531D02*
X3846253Y-1074008D01*
X3846253Y-1074008D02*
X3865301Y-1064484D01*
X3865301Y-1064484D02*
X3903396Y-1064484D01*
X3903396Y-1064484D02*
X3922444Y-1074008D01*
X3922444Y-1074008D02*
X3931968Y-1083531D01*
X3931968Y-1083531D02*
X3941491Y-1102579D01*
X3941491Y-1102579D02*
X3941491Y-1112103D01*
X3941491Y-1112103D02*
X3931968Y-1131150D01*
X3931968Y-1131150D02*
X3922444Y-1140674D01*
X3922444Y-1140674D02*
X3903396Y-1150198D01*
X3903396Y-1150198D02*
X3865301Y-1150198D01*
X3865301Y-1150198D02*
X3846253Y-1159722D01*
X3846253Y-1159722D02*
X3836729Y-1169246D01*
X3836729Y-1169246D02*
X3827206Y-1188293D01*
X3827206Y-1188293D02*
X3827206Y-1226389D01*
X3827206Y-1226389D02*
X3836729Y-1245436D01*
X3836729Y-1245436D02*
X3846253Y-1254960D01*
X3846253Y-1254960D02*
X3865301Y-1264484D01*
X3865301Y-1264484D02*
X3903396Y-1264484D01*
X3903396Y-1264484D02*
X3922444Y-1254960D01*
X3922444Y-1254960D02*
X3931968Y-1245436D01*
X3931968Y-1245436D02*
X3941491Y-1226389D01*
X3941491Y-1226389D02*
X3941491Y-1188293D01*
X3941491Y-1188293D02*
X3931968Y-1169246D01*
X3931968Y-1169246D02*
X3922444Y-1159722D01*
X3922444Y-1159722D02*
X3903396Y-1150198D01*
X4179587Y-1264484D02*
X4179587Y-1064484D01*
X4265301Y-1264484D02*
X4265301Y-1159722D01*
X4265301Y-1159722D02*
X4255777Y-1140674D01*
X4255777Y-1140674D02*
X4236730Y-1131150D01*
X4236730Y-1131150D02*
X4208158Y-1131150D01*
X4208158Y-1131150D02*
X4189110Y-1140674D01*
X4189110Y-1140674D02*
X4179587Y-1150198D01*
X4389111Y-1264484D02*
X4370063Y-1254960D01*
X4370063Y-1254960D02*
X4360539Y-1245436D01*
X4360539Y-1245436D02*
X4351015Y-1226389D01*
X4351015Y-1226389D02*
X4351015Y-1169246D01*
X4351015Y-1169246D02*
X4360539Y-1150198D01*
X4360539Y-1150198D02*
X4370063Y-1140674D01*
X4370063Y-1140674D02*
X4389111Y-1131150D01*
X4389111Y-1131150D02*
X4417682Y-1131150D01*
X4417682Y-1131150D02*
X4436730Y-1140674D01*
X4436730Y-1140674D02*
X4446253Y-1150198D01*
X4446253Y-1150198D02*
X4455777Y-1169246D01*
X4455777Y-1169246D02*
X4455777Y-1226389D01*
X4455777Y-1226389D02*
X4446253Y-1245436D01*
X4446253Y-1245436D02*
X4436730Y-1254960D01*
X4436730Y-1254960D02*
X4417682Y-1264484D01*
X4417682Y-1264484D02*
X4389111Y-1264484D01*
X4570063Y-1264484D02*
X4551015Y-1254960D01*
X4551015Y-1254960D02*
X4541492Y-1235912D01*
X4541492Y-1235912D02*
X4541492Y-1064484D01*
X4722444Y-1254960D02*
X4703396Y-1264484D01*
X4703396Y-1264484D02*
X4665301Y-1264484D01*
X4665301Y-1264484D02*
X4646253Y-1254960D01*
X4646253Y-1254960D02*
X4636730Y-1235912D01*
X4636730Y-1235912D02*
X4636730Y-1159722D01*
X4636730Y-1159722D02*
X4646253Y-1140674D01*
X4646253Y-1140674D02*
X4665301Y-1131150D01*
X4665301Y-1131150D02*
X4703396Y-1131150D01*
X4703396Y-1131150D02*
X4722444Y-1140674D01*
X4722444Y-1140674D02*
X4731968Y-1159722D01*
X4731968Y-1159722D02*
X4731968Y-1178770D01*
X4731968Y-1178770D02*
X4636730Y-1197817D01*
X4808158Y-1254960D02*
X4827206Y-1264484D01*
X4827206Y-1264484D02*
X4865301Y-1264484D01*
X4865301Y-1264484D02*
X4884349Y-1254960D01*
X4884349Y-1254960D02*
X4893873Y-1235912D01*
X4893873Y-1235912D02*
X4893873Y-1226389D01*
X4893873Y-1226389D02*
X4884349Y-1207341D01*
X4884349Y-1207341D02*
X4865301Y-1197817D01*
X4865301Y-1197817D02*
X4836730Y-1197817D01*
X4836730Y-1197817D02*
X4817682Y-1188293D01*
X4817682Y-1188293D02*
X4808158Y-1169246D01*
X4808158Y-1169246D02*
X4808158Y-1159722D01*
X4808158Y-1159722D02*
X4817682Y-1140674D01*
X4817682Y-1140674D02*
X4836730Y-1131150D01*
X4836730Y-1131150D02*
X4865301Y-1131150D01*
X4865301Y-1131150D02*
X4884349Y-1140674D01*
X4960539Y-1340674D02*
X4970063Y-1331150D01*
X4970063Y-1331150D02*
X4989111Y-1302579D01*
X4989111Y-1302579D02*
X4998634Y-1283531D01*
X4998634Y-1283531D02*
X5008158Y-1254960D01*
X5008158Y-1254960D02*
X5017682Y-1207341D01*
X5017682Y-1207341D02*
X5017682Y-1169246D01*
X5017682Y-1169246D02*
X5008158Y-1121627D01*
X5008158Y-1121627D02*
X4998634Y-1093055D01*
X4998634Y-1093055D02*
X4989111Y-1074008D01*
X4989111Y-1074008D02*
X4970063Y-1045436D01*
X4970063Y-1045436D02*
X4960539Y-1035912D01*
D10*
X-18912Y-1470588D02*
X-18912Y-1403412D01*
X-86088Y-1403412D01*
X-86088Y-1470588D01*
X-18912Y-1470588D01*
D11*
X293872Y-1328484D02*
X312920Y-1328484D01*
X312920Y-1328484D02*
X331967Y-1338008D01*
X331967Y-1338008D02*
X341491Y-1347531D01*
X341491Y-1347531D02*
X351015Y-1366579D01*
X351015Y-1366579D02*
X360539Y-1404674D01*
X360539Y-1404674D02*
X360539Y-1452293D01*
X360539Y-1452293D02*
X351015Y-1490388D01*
X351015Y-1490388D02*
X341491Y-1509436D01*
X341491Y-1509436D02*
X331967Y-1518960D01*
X331967Y-1518960D02*
X312920Y-1528484D01*
X312920Y-1528484D02*
X293872Y-1528484D01*
X293872Y-1528484D02*
X274824Y-1518960D01*
X274824Y-1518960D02*
X265301Y-1509436D01*
X265301Y-1509436D02*
X255777Y-1490388D01*
X255777Y-1490388D02*
X246253Y-1452293D01*
X246253Y-1452293D02*
X246253Y-1404674D01*
X246253Y-1404674D02*
X255777Y-1366579D01*
X255777Y-1366579D02*
X265301Y-1347531D01*
X265301Y-1347531D02*
X274824Y-1338008D01*
X274824Y-1338008D02*
X293872Y-1328484D01*
X446253Y-1509436D02*
X455777Y-1518960D01*
X455777Y-1518960D02*
X446253Y-1528484D01*
X446253Y-1528484D02*
X436729Y-1518960D01*
X436729Y-1518960D02*
X446253Y-1509436D01*
X446253Y-1509436D02*
X446253Y-1528484D01*
X551015Y-1528484D02*
X589110Y-1528484D01*
X589110Y-1528484D02*
X608158Y-1518960D01*
X608158Y-1518960D02*
X617682Y-1509436D01*
X617682Y-1509436D02*
X636729Y-1480865D01*
X636729Y-1480865D02*
X646253Y-1442769D01*
X646253Y-1442769D02*
X646253Y-1366579D01*
X646253Y-1366579D02*
X636729Y-1347531D01*
X636729Y-1347531D02*
X627205Y-1338008D01*
X627205Y-1338008D02*
X608158Y-1328484D01*
X608158Y-1328484D02*
X570063Y-1328484D01*
X570063Y-1328484D02*
X551015Y-1338008D01*
X551015Y-1338008D02*
X541491Y-1347531D01*
X541491Y-1347531D02*
X531967Y-1366579D01*
X531967Y-1366579D02*
X531967Y-1414198D01*
X531967Y-1414198D02*
X541491Y-1433246D01*
X541491Y-1433246D02*
X551015Y-1442769D01*
X551015Y-1442769D02*
X570063Y-1452293D01*
X570063Y-1452293D02*
X608158Y-1452293D01*
X608158Y-1452293D02*
X627205Y-1442769D01*
X627205Y-1442769D02*
X636729Y-1433246D01*
X636729Y-1433246D02*
X646253Y-1414198D01*
X827205Y-1328484D02*
X731967Y-1328484D01*
X731967Y-1328484D02*
X722443Y-1423722D01*
X722443Y-1423722D02*
X731967Y-1414198D01*
X731967Y-1414198D02*
X751015Y-1404674D01*
X751015Y-1404674D02*
X798634Y-1404674D01*
X798634Y-1404674D02*
X817682Y-1414198D01*
X817682Y-1414198D02*
X827205Y-1423722D01*
X827205Y-1423722D02*
X836729Y-1442769D01*
X836729Y-1442769D02*
X836729Y-1490388D01*
X836729Y-1490388D02*
X827205Y-1509436D01*
X827205Y-1509436D02*
X817682Y-1518960D01*
X817682Y-1518960D02*
X798634Y-1528484D01*
X798634Y-1528484D02*
X751015Y-1528484D01*
X751015Y-1528484D02*
X731967Y-1518960D01*
X731967Y-1518960D02*
X722443Y-1509436D01*
X960539Y-1328484D02*
X979586Y-1328484D01*
X979586Y-1328484D02*
X998634Y-1338008D01*
X998634Y-1338008D02*
X1008158Y-1347531D01*
X1008158Y-1347531D02*
X1017682Y-1366579D01*
X1017682Y-1366579D02*
X1027205Y-1404674D01*
X1027205Y-1404674D02*
X1027205Y-1452293D01*
X1027205Y-1452293D02*
X1017682Y-1490388D01*
X1017682Y-1490388D02*
X1008158Y-1509436D01*
X1008158Y-1509436D02*
X998634Y-1518960D01*
X998634Y-1518960D02*
X979586Y-1528484D01*
X979586Y-1528484D02*
X960539Y-1528484D01*
X960539Y-1528484D02*
X941491Y-1518960D01*
X941491Y-1518960D02*
X931967Y-1509436D01*
X931967Y-1509436D02*
X922443Y-1490388D01*
X922443Y-1490388D02*
X912920Y-1452293D01*
X912920Y-1452293D02*
X912920Y-1404674D01*
X912920Y-1404674D02*
X922443Y-1366579D01*
X922443Y-1366579D02*
X931967Y-1347531D01*
X931967Y-1347531D02*
X941491Y-1338008D01*
X941491Y-1338008D02*
X960539Y-1328484D01*
X1112920Y-1528484D02*
X1112920Y-1395150D01*
X1112920Y-1414198D02*
X1122444Y-1404674D01*
X1122444Y-1404674D02*
X1141491Y-1395150D01*
X1141491Y-1395150D02*
X1170063Y-1395150D01*
X1170063Y-1395150D02*
X1189110Y-1404674D01*
X1189110Y-1404674D02*
X1198634Y-1423722D01*
X1198634Y-1423722D02*
X1198634Y-1528484D01*
X1198634Y-1423722D02*
X1208158Y-1404674D01*
X1208158Y-1404674D02*
X1227205Y-1395150D01*
X1227205Y-1395150D02*
X1255777Y-1395150D01*
X1255777Y-1395150D02*
X1274825Y-1404674D01*
X1274825Y-1404674D02*
X1284348Y-1423722D01*
X1284348Y-1423722D02*
X1284348Y-1528484D01*
X1379586Y-1528484D02*
X1379586Y-1395150D01*
X1379586Y-1414198D02*
X1389110Y-1404674D01*
X1389110Y-1404674D02*
X1408158Y-1395150D01*
X1408158Y-1395150D02*
X1436729Y-1395150D01*
X1436729Y-1395150D02*
X1455777Y-1404674D01*
X1455777Y-1404674D02*
X1465301Y-1423722D01*
X1465301Y-1423722D02*
X1465301Y-1528484D01*
X1465301Y-1423722D02*
X1474824Y-1404674D01*
X1474824Y-1404674D02*
X1493872Y-1395150D01*
X1493872Y-1395150D02*
X1522443Y-1395150D01*
X1522443Y-1395150D02*
X1541491Y-1404674D01*
X1541491Y-1404674D02*
X1551015Y-1423722D01*
X1551015Y-1423722D02*
X1551015Y-1528484D01*
X1941491Y-1318960D02*
X1770063Y-1576103D01*
X2198634Y-1328484D02*
X2217682Y-1328484D01*
X2217682Y-1328484D02*
X2236729Y-1338008D01*
X2236729Y-1338008D02*
X2246253Y-1347531D01*
X2246253Y-1347531D02*
X2255777Y-1366579D01*
X2255777Y-1366579D02*
X2265301Y-1404674D01*
X2265301Y-1404674D02*
X2265301Y-1452293D01*
X2265301Y-1452293D02*
X2255777Y-1490388D01*
X2255777Y-1490388D02*
X2246253Y-1509436D01*
X2246253Y-1509436D02*
X2236729Y-1518960D01*
X2236729Y-1518960D02*
X2217682Y-1528484D01*
X2217682Y-1528484D02*
X2198634Y-1528484D01*
X2198634Y-1528484D02*
X2179587Y-1518960D01*
X2179587Y-1518960D02*
X2170063Y-1509436D01*
X2170063Y-1509436D02*
X2160539Y-1490388D01*
X2160539Y-1490388D02*
X2151015Y-1452293D01*
X2151015Y-1452293D02*
X2151015Y-1404674D01*
X2151015Y-1404674D02*
X2160539Y-1366579D01*
X2160539Y-1366579D02*
X2170063Y-1347531D01*
X2170063Y-1347531D02*
X2179587Y-1338008D01*
X2179587Y-1338008D02*
X2198634Y-1328484D01*
X2351015Y-1509436D02*
X2360539Y-1518960D01*
X2360539Y-1518960D02*
X2351015Y-1528484D01*
X2351015Y-1528484D02*
X2341491Y-1518960D01*
X2341491Y-1518960D02*
X2351015Y-1509436D01*
X2351015Y-1509436D02*
X2351015Y-1528484D01*
X2484348Y-1328484D02*
X2503396Y-1328484D01*
X2503396Y-1328484D02*
X2522444Y-1338008D01*
X2522444Y-1338008D02*
X2531968Y-1347531D01*
X2531968Y-1347531D02*
X2541491Y-1366579D01*
X2541491Y-1366579D02*
X2551015Y-1404674D01*
X2551015Y-1404674D02*
X2551015Y-1452293D01*
X2551015Y-1452293D02*
X2541491Y-1490388D01*
X2541491Y-1490388D02*
X2531968Y-1509436D01*
X2531968Y-1509436D02*
X2522444Y-1518960D01*
X2522444Y-1518960D02*
X2503396Y-1528484D01*
X2503396Y-1528484D02*
X2484348Y-1528484D01*
X2484348Y-1528484D02*
X2465301Y-1518960D01*
X2465301Y-1518960D02*
X2455777Y-1509436D01*
X2455777Y-1509436D02*
X2446253Y-1490388D01*
X2446253Y-1490388D02*
X2436729Y-1452293D01*
X2436729Y-1452293D02*
X2436729Y-1404674D01*
X2436729Y-1404674D02*
X2446253Y-1366579D01*
X2446253Y-1366579D02*
X2455777Y-1347531D01*
X2455777Y-1347531D02*
X2465301Y-1338008D01*
X2465301Y-1338008D02*
X2484348Y-1328484D01*
X2617682Y-1328484D02*
X2741491Y-1328484D01*
X2741491Y-1328484D02*
X2674825Y-1404674D01*
X2674825Y-1404674D02*
X2703396Y-1404674D01*
X2703396Y-1404674D02*
X2722444Y-1414198D01*
X2722444Y-1414198D02*
X2731968Y-1423722D01*
X2731968Y-1423722D02*
X2741491Y-1442769D01*
X2741491Y-1442769D02*
X2741491Y-1490388D01*
X2741491Y-1490388D02*
X2731968Y-1509436D01*
X2731968Y-1509436D02*
X2722444Y-1518960D01*
X2722444Y-1518960D02*
X2703396Y-1528484D01*
X2703396Y-1528484D02*
X2646253Y-1528484D01*
X2646253Y-1528484D02*
X2627206Y-1518960D01*
X2627206Y-1518960D02*
X2617682Y-1509436D01*
X2808158Y-1328484D02*
X2941491Y-1328484D01*
X2941491Y-1328484D02*
X2855777Y-1528484D01*
X3103396Y-1395150D02*
X3103396Y-1528484D01*
X3055777Y-1318960D02*
X3008158Y-1461817D01*
X3008158Y-1461817D02*
X3131967Y-1461817D01*
X3198634Y-1328484D02*
X3198634Y-1366579D01*
X3274825Y-1328484D02*
X3274825Y-1366579D01*
X3570063Y-1604674D02*
X3560539Y-1595150D01*
X3560539Y-1595150D02*
X3541491Y-1566579D01*
X3541491Y-1566579D02*
X3531968Y-1547531D01*
X3531968Y-1547531D02*
X3522444Y-1518960D01*
X3522444Y-1518960D02*
X3512920Y-1471341D01*
X3512920Y-1471341D02*
X3512920Y-1433246D01*
X3512920Y-1433246D02*
X3522444Y-1385627D01*
X3522444Y-1385627D02*
X3531968Y-1357055D01*
X3531968Y-1357055D02*
X3541491Y-1338008D01*
X3541491Y-1338008D02*
X3560539Y-1309436D01*
X3560539Y-1309436D02*
X3570063Y-1299912D01*
X3751015Y-1528484D02*
X3636729Y-1528484D01*
X3693872Y-1528484D02*
X3693872Y-1328484D01*
X3693872Y-1328484D02*
X3674825Y-1357055D01*
X3674825Y-1357055D02*
X3655777Y-1376103D01*
X3655777Y-1376103D02*
X3636729Y-1385627D01*
X3922444Y-1395150D02*
X3922444Y-1528484D01*
X3874825Y-1318960D02*
X3827206Y-1461817D01*
X3827206Y-1461817D02*
X3951015Y-1461817D01*
X4179587Y-1528484D02*
X4179587Y-1328484D01*
X4265301Y-1528484D02*
X4265301Y-1423722D01*
X4265301Y-1423722D02*
X4255777Y-1404674D01*
X4255777Y-1404674D02*
X4236730Y-1395150D01*
X4236730Y-1395150D02*
X4208158Y-1395150D01*
X4208158Y-1395150D02*
X4189110Y-1404674D01*
X4189110Y-1404674D02*
X4179587Y-1414198D01*
X4389111Y-1528484D02*
X4370063Y-1518960D01*
X4370063Y-1518960D02*
X4360539Y-1509436D01*
X4360539Y-1509436D02*
X4351015Y-1490388D01*
X4351015Y-1490388D02*
X4351015Y-1433246D01*
X4351015Y-1433246D02*
X4360539Y-1414198D01*
X4360539Y-1414198D02*
X4370063Y-1404674D01*
X4370063Y-1404674D02*
X4389111Y-1395150D01*
X4389111Y-1395150D02*
X4417682Y-1395150D01*
X4417682Y-1395150D02*
X4436730Y-1404674D01*
X4436730Y-1404674D02*
X4446253Y-1414198D01*
X4446253Y-1414198D02*
X4455777Y-1433246D01*
X4455777Y-1433246D02*
X4455777Y-1490388D01*
X4455777Y-1490388D02*
X4446253Y-1509436D01*
X4446253Y-1509436D02*
X4436730Y-1518960D01*
X4436730Y-1518960D02*
X4417682Y-1528484D01*
X4417682Y-1528484D02*
X4389111Y-1528484D01*
X4570063Y-1528484D02*
X4551015Y-1518960D01*
X4551015Y-1518960D02*
X4541492Y-1499912D01*
X4541492Y-1499912D02*
X4541492Y-1328484D01*
X4722444Y-1518960D02*
X4703396Y-1528484D01*
X4703396Y-1528484D02*
X4665301Y-1528484D01*
X4665301Y-1528484D02*
X4646253Y-1518960D01*
X4646253Y-1518960D02*
X4636730Y-1499912D01*
X4636730Y-1499912D02*
X4636730Y-1423722D01*
X4636730Y-1423722D02*
X4646253Y-1404674D01*
X4646253Y-1404674D02*
X4665301Y-1395150D01*
X4665301Y-1395150D02*
X4703396Y-1395150D01*
X4703396Y-1395150D02*
X4722444Y-1404674D01*
X4722444Y-1404674D02*
X4731968Y-1423722D01*
X4731968Y-1423722D02*
X4731968Y-1442769D01*
X4731968Y-1442769D02*
X4636730Y-1461817D01*
X4808158Y-1518960D02*
X4827206Y-1528484D01*
X4827206Y-1528484D02*
X4865301Y-1528484D01*
X4865301Y-1528484D02*
X4884349Y-1518960D01*
X4884349Y-1518960D02*
X4893873Y-1499912D01*
X4893873Y-1499912D02*
X4893873Y-1490388D01*
X4893873Y-1490388D02*
X4884349Y-1471341D01*
X4884349Y-1471341D02*
X4865301Y-1461817D01*
X4865301Y-1461817D02*
X4836730Y-1461817D01*
X4836730Y-1461817D02*
X4817682Y-1452293D01*
X4817682Y-1452293D02*
X4808158Y-1433246D01*
X4808158Y-1433246D02*
X4808158Y-1423722D01*
X4808158Y-1423722D02*
X4817682Y-1404674D01*
X4817682Y-1404674D02*
X4836730Y-1395150D01*
X4836730Y-1395150D02*
X4865301Y-1395150D01*
X4865301Y-1395150D02*
X4884349Y-1404674D01*
X4960539Y-1604674D02*
X4970063Y-1595150D01*
X4970063Y-1595150D02*
X4989111Y-1566579D01*
X4989111Y-1566579D02*
X4998634Y-1547531D01*
X4998634Y-1547531D02*
X5008158Y-1518960D01*
X5008158Y-1518960D02*
X5017682Y-1471341D01*
X5017682Y-1471341D02*
X5017682Y-1433246D01*
X5017682Y-1433246D02*
X5008158Y-1385627D01*
X5008158Y-1385627D02*
X4998634Y-1357055D01*
X4998634Y-1357055D02*
X4989111Y-1338008D01*
X4989111Y-1338008D02*
X4970063Y-1309436D01*
X4970063Y-1309436D02*
X4960539Y-1299912D01*
D12*
X-75000Y-1771000D02*
X-5000Y-1701000D01*
X-75000Y-1631000D01*
X-145000Y-1701000D01*
X-75000Y-1771000D01*
D11*
X360539Y-1792484D02*
X246253Y-1792484D01*
X303396Y-1792484D02*
X303396Y-1592484D01*
X303396Y-1592484D02*
X284348Y-1621055D01*
X284348Y-1621055D02*
X265301Y-1640103D01*
X265301Y-1640103D02*
X246253Y-1649627D01*
X446253Y-1773436D02*
X455777Y-1782960D01*
X455777Y-1782960D02*
X446253Y-1792484D01*
X446253Y-1792484D02*
X436729Y-1782960D01*
X436729Y-1782960D02*
X446253Y-1773436D01*
X446253Y-1773436D02*
X446253Y-1792484D01*
X627205Y-1659150D02*
X627205Y-1792484D01*
X579586Y-1582960D02*
X531967Y-1725817D01*
X531967Y-1725817D02*
X655777Y-1725817D01*
X770062Y-1592484D02*
X789110Y-1592484D01*
X789110Y-1592484D02*
X808158Y-1602008D01*
X808158Y-1602008D02*
X817682Y-1611531D01*
X817682Y-1611531D02*
X827205Y-1630579D01*
X827205Y-1630579D02*
X836729Y-1668674D01*
X836729Y-1668674D02*
X836729Y-1716293D01*
X836729Y-1716293D02*
X827205Y-1754388D01*
X827205Y-1754388D02*
X817682Y-1773436D01*
X817682Y-1773436D02*
X808158Y-1782960D01*
X808158Y-1782960D02*
X789110Y-1792484D01*
X789110Y-1792484D02*
X770062Y-1792484D01*
X770062Y-1792484D02*
X751015Y-1782960D01*
X751015Y-1782960D02*
X741491Y-1773436D01*
X741491Y-1773436D02*
X731967Y-1754388D01*
X731967Y-1754388D02*
X722443Y-1716293D01*
X722443Y-1716293D02*
X722443Y-1668674D01*
X722443Y-1668674D02*
X731967Y-1630579D01*
X731967Y-1630579D02*
X741491Y-1611531D01*
X741491Y-1611531D02*
X751015Y-1602008D01*
X751015Y-1602008D02*
X770062Y-1592484D01*
X960539Y-1592484D02*
X979586Y-1592484D01*
X979586Y-1592484D02*
X998634Y-1602008D01*
X998634Y-1602008D02*
X1008158Y-1611531D01*
X1008158Y-1611531D02*
X1017682Y-1630579D01*
X1017682Y-1630579D02*
X1027205Y-1668674D01*
X1027205Y-1668674D02*
X1027205Y-1716293D01*
X1027205Y-1716293D02*
X1017682Y-1754388D01*
X1017682Y-1754388D02*
X1008158Y-1773436D01*
X1008158Y-1773436D02*
X998634Y-1782960D01*
X998634Y-1782960D02*
X979586Y-1792484D01*
X979586Y-1792484D02*
X960539Y-1792484D01*
X960539Y-1792484D02*
X941491Y-1782960D01*
X941491Y-1782960D02*
X931967Y-1773436D01*
X931967Y-1773436D02*
X922443Y-1754388D01*
X922443Y-1754388D02*
X912920Y-1716293D01*
X912920Y-1716293D02*
X912920Y-1668674D01*
X912920Y-1668674D02*
X922443Y-1630579D01*
X922443Y-1630579D02*
X931967Y-1611531D01*
X931967Y-1611531D02*
X941491Y-1602008D01*
X941491Y-1602008D02*
X960539Y-1592484D01*
X1112920Y-1792484D02*
X1112920Y-1659150D01*
X1112920Y-1678198D02*
X1122444Y-1668674D01*
X1122444Y-1668674D02*
X1141491Y-1659150D01*
X1141491Y-1659150D02*
X1170063Y-1659150D01*
X1170063Y-1659150D02*
X1189110Y-1668674D01*
X1189110Y-1668674D02*
X1198634Y-1687722D01*
X1198634Y-1687722D02*
X1198634Y-1792484D01*
X1198634Y-1687722D02*
X1208158Y-1668674D01*
X1208158Y-1668674D02*
X1227205Y-1659150D01*
X1227205Y-1659150D02*
X1255777Y-1659150D01*
X1255777Y-1659150D02*
X1274825Y-1668674D01*
X1274825Y-1668674D02*
X1284348Y-1687722D01*
X1284348Y-1687722D02*
X1284348Y-1792484D01*
X1379586Y-1792484D02*
X1379586Y-1659150D01*
X1379586Y-1678198D02*
X1389110Y-1668674D01*
X1389110Y-1668674D02*
X1408158Y-1659150D01*
X1408158Y-1659150D02*
X1436729Y-1659150D01*
X1436729Y-1659150D02*
X1455777Y-1668674D01*
X1455777Y-1668674D02*
X1465301Y-1687722D01*
X1465301Y-1687722D02*
X1465301Y-1792484D01*
X1465301Y-1687722D02*
X1474824Y-1668674D01*
X1474824Y-1668674D02*
X1493872Y-1659150D01*
X1493872Y-1659150D02*
X1522443Y-1659150D01*
X1522443Y-1659150D02*
X1541491Y-1668674D01*
X1541491Y-1668674D02*
X1551015Y-1687722D01*
X1551015Y-1687722D02*
X1551015Y-1792484D01*
X1941491Y-1582960D02*
X1770063Y-1840103D01*
X2198634Y-1592484D02*
X2217682Y-1592484D01*
X2217682Y-1592484D02*
X2236729Y-1602008D01*
X2236729Y-1602008D02*
X2246253Y-1611531D01*
X2246253Y-1611531D02*
X2255777Y-1630579D01*
X2255777Y-1630579D02*
X2265301Y-1668674D01*
X2265301Y-1668674D02*
X2265301Y-1716293D01*
X2265301Y-1716293D02*
X2255777Y-1754388D01*
X2255777Y-1754388D02*
X2246253Y-1773436D01*
X2246253Y-1773436D02*
X2236729Y-1782960D01*
X2236729Y-1782960D02*
X2217682Y-1792484D01*
X2217682Y-1792484D02*
X2198634Y-1792484D01*
X2198634Y-1792484D02*
X2179587Y-1782960D01*
X2179587Y-1782960D02*
X2170063Y-1773436D01*
X2170063Y-1773436D02*
X2160539Y-1754388D01*
X2160539Y-1754388D02*
X2151015Y-1716293D01*
X2151015Y-1716293D02*
X2151015Y-1668674D01*
X2151015Y-1668674D02*
X2160539Y-1630579D01*
X2160539Y-1630579D02*
X2170063Y-1611531D01*
X2170063Y-1611531D02*
X2179587Y-1602008D01*
X2179587Y-1602008D02*
X2198634Y-1592484D01*
X2351015Y-1773436D02*
X2360539Y-1782960D01*
X2360539Y-1782960D02*
X2351015Y-1792484D01*
X2351015Y-1792484D02*
X2341491Y-1782960D01*
X2341491Y-1782960D02*
X2351015Y-1773436D01*
X2351015Y-1773436D02*
X2351015Y-1792484D01*
X2484348Y-1592484D02*
X2503396Y-1592484D01*
X2503396Y-1592484D02*
X2522444Y-1602008D01*
X2522444Y-1602008D02*
X2531968Y-1611531D01*
X2531968Y-1611531D02*
X2541491Y-1630579D01*
X2541491Y-1630579D02*
X2551015Y-1668674D01*
X2551015Y-1668674D02*
X2551015Y-1716293D01*
X2551015Y-1716293D02*
X2541491Y-1754388D01*
X2541491Y-1754388D02*
X2531968Y-1773436D01*
X2531968Y-1773436D02*
X2522444Y-1782960D01*
X2522444Y-1782960D02*
X2503396Y-1792484D01*
X2503396Y-1792484D02*
X2484348Y-1792484D01*
X2484348Y-1792484D02*
X2465301Y-1782960D01*
X2465301Y-1782960D02*
X2455777Y-1773436D01*
X2455777Y-1773436D02*
X2446253Y-1754388D01*
X2446253Y-1754388D02*
X2436729Y-1716293D01*
X2436729Y-1716293D02*
X2436729Y-1668674D01*
X2436729Y-1668674D02*
X2446253Y-1630579D01*
X2446253Y-1630579D02*
X2455777Y-1611531D01*
X2455777Y-1611531D02*
X2465301Y-1602008D01*
X2465301Y-1602008D02*
X2484348Y-1592484D01*
X2731968Y-1592484D02*
X2636729Y-1592484D01*
X2636729Y-1592484D02*
X2627206Y-1687722D01*
X2627206Y-1687722D02*
X2636729Y-1678198D01*
X2636729Y-1678198D02*
X2655777Y-1668674D01*
X2655777Y-1668674D02*
X2703396Y-1668674D01*
X2703396Y-1668674D02*
X2722444Y-1678198D01*
X2722444Y-1678198D02*
X2731968Y-1687722D01*
X2731968Y-1687722D02*
X2741491Y-1706769D01*
X2741491Y-1706769D02*
X2741491Y-1754388D01*
X2741491Y-1754388D02*
X2731968Y-1773436D01*
X2731968Y-1773436D02*
X2722444Y-1782960D01*
X2722444Y-1782960D02*
X2703396Y-1792484D01*
X2703396Y-1792484D02*
X2655777Y-1792484D01*
X2655777Y-1792484D02*
X2636729Y-1782960D01*
X2636729Y-1782960D02*
X2627206Y-1773436D01*
X2922444Y-1592484D02*
X2827206Y-1592484D01*
X2827206Y-1592484D02*
X2817682Y-1687722D01*
X2817682Y-1687722D02*
X2827206Y-1678198D01*
X2827206Y-1678198D02*
X2846253Y-1668674D01*
X2846253Y-1668674D02*
X2893872Y-1668674D01*
X2893872Y-1668674D02*
X2912920Y-1678198D01*
X2912920Y-1678198D02*
X2922444Y-1687722D01*
X2922444Y-1687722D02*
X2931967Y-1706769D01*
X2931967Y-1706769D02*
X2931967Y-1754388D01*
X2931967Y-1754388D02*
X2922444Y-1773436D01*
X2922444Y-1773436D02*
X2912920Y-1782960D01*
X2912920Y-1782960D02*
X2893872Y-1792484D01*
X2893872Y-1792484D02*
X2846253Y-1792484D01*
X2846253Y-1792484D02*
X2827206Y-1782960D01*
X2827206Y-1782960D02*
X2817682Y-1773436D01*
X3122444Y-1792484D02*
X3008158Y-1792484D01*
X3065301Y-1792484D02*
X3065301Y-1592484D01*
X3065301Y-1592484D02*
X3046253Y-1621055D01*
X3046253Y-1621055D02*
X3027206Y-1640103D01*
X3027206Y-1640103D02*
X3008158Y-1649627D01*
X3198634Y-1592484D02*
X3198634Y-1630579D01*
X3274825Y-1592484D02*
X3274825Y-1630579D01*
X3570063Y-1868674D02*
X3560539Y-1859150D01*
X3560539Y-1859150D02*
X3541491Y-1830579D01*
X3541491Y-1830579D02*
X3531968Y-1811531D01*
X3531968Y-1811531D02*
X3522444Y-1782960D01*
X3522444Y-1782960D02*
X3512920Y-1735341D01*
X3512920Y-1735341D02*
X3512920Y-1697246D01*
X3512920Y-1697246D02*
X3522444Y-1649627D01*
X3522444Y-1649627D02*
X3531968Y-1621055D01*
X3531968Y-1621055D02*
X3541491Y-1602008D01*
X3541491Y-1602008D02*
X3560539Y-1573436D01*
X3560539Y-1573436D02*
X3570063Y-1563912D01*
X3751015Y-1792484D02*
X3636729Y-1792484D01*
X3693872Y-1792484D02*
X3693872Y-1592484D01*
X3693872Y-1592484D02*
X3674825Y-1621055D01*
X3674825Y-1621055D02*
X3655777Y-1640103D01*
X3655777Y-1640103D02*
X3636729Y-1649627D01*
X3922444Y-1592484D02*
X3884348Y-1592484D01*
X3884348Y-1592484D02*
X3865301Y-1602008D01*
X3865301Y-1602008D02*
X3855777Y-1611531D01*
X3855777Y-1611531D02*
X3836729Y-1640103D01*
X3836729Y-1640103D02*
X3827206Y-1678198D01*
X3827206Y-1678198D02*
X3827206Y-1754388D01*
X3827206Y-1754388D02*
X3836729Y-1773436D01*
X3836729Y-1773436D02*
X3846253Y-1782960D01*
X3846253Y-1782960D02*
X3865301Y-1792484D01*
X3865301Y-1792484D02*
X3903396Y-1792484D01*
X3903396Y-1792484D02*
X3922444Y-1782960D01*
X3922444Y-1782960D02*
X3931968Y-1773436D01*
X3931968Y-1773436D02*
X3941491Y-1754388D01*
X3941491Y-1754388D02*
X3941491Y-1706769D01*
X3941491Y-1706769D02*
X3931968Y-1687722D01*
X3931968Y-1687722D02*
X3922444Y-1678198D01*
X3922444Y-1678198D02*
X3903396Y-1668674D01*
X3903396Y-1668674D02*
X3865301Y-1668674D01*
X3865301Y-1668674D02*
X3846253Y-1678198D01*
X3846253Y-1678198D02*
X3836729Y-1687722D01*
X3836729Y-1687722D02*
X3827206Y-1706769D01*
X4179587Y-1792484D02*
X4179587Y-1592484D01*
X4265301Y-1792484D02*
X4265301Y-1687722D01*
X4265301Y-1687722D02*
X4255777Y-1668674D01*
X4255777Y-1668674D02*
X4236730Y-1659150D01*
X4236730Y-1659150D02*
X4208158Y-1659150D01*
X4208158Y-1659150D02*
X4189110Y-1668674D01*
X4189110Y-1668674D02*
X4179587Y-1678198D01*
X4389111Y-1792484D02*
X4370063Y-1782960D01*
X4370063Y-1782960D02*
X4360539Y-1773436D01*
X4360539Y-1773436D02*
X4351015Y-1754388D01*
X4351015Y-1754388D02*
X4351015Y-1697246D01*
X4351015Y-1697246D02*
X4360539Y-1678198D01*
X4360539Y-1678198D02*
X4370063Y-1668674D01*
X4370063Y-1668674D02*
X4389111Y-1659150D01*
X4389111Y-1659150D02*
X4417682Y-1659150D01*
X4417682Y-1659150D02*
X4436730Y-1668674D01*
X4436730Y-1668674D02*
X4446253Y-1678198D01*
X4446253Y-1678198D02*
X4455777Y-1697246D01*
X4455777Y-1697246D02*
X4455777Y-1754388D01*
X4455777Y-1754388D02*
X4446253Y-1773436D01*
X4446253Y-1773436D02*
X4436730Y-1782960D01*
X4436730Y-1782960D02*
X4417682Y-1792484D01*
X4417682Y-1792484D02*
X4389111Y-1792484D01*
X4570063Y-1792484D02*
X4551015Y-1782960D01*
X4551015Y-1782960D02*
X4541492Y-1763912D01*
X4541492Y-1763912D02*
X4541492Y-1592484D01*
X4722444Y-1782960D02*
X4703396Y-1792484D01*
X4703396Y-1792484D02*
X4665301Y-1792484D01*
X4665301Y-1792484D02*
X4646253Y-1782960D01*
X4646253Y-1782960D02*
X4636730Y-1763912D01*
X4636730Y-1763912D02*
X4636730Y-1687722D01*
X4636730Y-1687722D02*
X4646253Y-1668674D01*
X4646253Y-1668674D02*
X4665301Y-1659150D01*
X4665301Y-1659150D02*
X4703396Y-1659150D01*
X4703396Y-1659150D02*
X4722444Y-1668674D01*
X4722444Y-1668674D02*
X4731968Y-1687722D01*
X4731968Y-1687722D02*
X4731968Y-1706769D01*
X4731968Y-1706769D02*
X4636730Y-1725817D01*
X4808158Y-1782960D02*
X4827206Y-1792484D01*
X4827206Y-1792484D02*
X4865301Y-1792484D01*
X4865301Y-1792484D02*
X4884349Y-1782960D01*
X4884349Y-1782960D02*
X4893873Y-1763912D01*
X4893873Y-1763912D02*
X4893873Y-1754388D01*
X4893873Y-1754388D02*
X4884349Y-1735341D01*
X4884349Y-1735341D02*
X4865301Y-1725817D01*
X4865301Y-1725817D02*
X4836730Y-1725817D01*
X4836730Y-1725817D02*
X4817682Y-1716293D01*
X4817682Y-1716293D02*
X4808158Y-1697246D01*
X4808158Y-1697246D02*
X4808158Y-1687722D01*
X4808158Y-1687722D02*
X4817682Y-1668674D01*
X4817682Y-1668674D02*
X4836730Y-1659150D01*
X4836730Y-1659150D02*
X4865301Y-1659150D01*
X4865301Y-1659150D02*
X4884349Y-1668674D01*
X4960539Y-1868674D02*
X4970063Y-1859150D01*
X4970063Y-1859150D02*
X4989111Y-1830579D01*
X4989111Y-1830579D02*
X4998634Y-1811531D01*
X4998634Y-1811531D02*
X5008158Y-1782960D01*
X5008158Y-1782960D02*
X5017682Y-1735341D01*
X5017682Y-1735341D02*
X5017682Y-1697246D01*
X5017682Y-1697246D02*
X5008158Y-1649627D01*
X5008158Y-1649627D02*
X4998634Y-1621055D01*
X4998634Y-1621055D02*
X4989111Y-1602008D01*
X4989111Y-1602008D02*
X4970063Y-1573436D01*
X4970063Y-1573436D02*
X4960539Y-1563912D01*
M02*
