%TF.GenerationSoftware,KiCad,Pcbnew,10.0.1*%
%TF.CreationDate,2026-07-14T16:36:56+09:00*%
%TF.ProjectId,SMD_DISPLAY_BD_SV5,534d445f-4449-4535-904c-41595f42445f,rev?*%
%TF.SameCoordinates,Original*%
%TF.FileFunction,Copper,L2,Bot*%
%TF.FilePolarity,Positive*%
%FSLAX46Y46*%
G04 Gerber Fmt 4.6, Leading zero omitted, Abs format (unit mm)*
G04 Created by KiCad (PCBNEW 10.0.1) date 2026-07-14 16:36:56*
%MOMM*%
%LPD*%
G01*
G04 APERTURE LIST*
G04 Aperture macros list*
%AMRoundRect*
0 Rectangle with rounded corners*
0 $1 Rounding radius*
0 $2 $3 $4 $5 $6 $7 $8 $9 X,Y pos of 4 corners*
0 Add a 4 corners polygon primitive as box body*
4,1,4,$2,$3,$4,$5,$6,$7,$8,$9,$2,$3,0*
0 Add four circle primitives for the rounded corners*
1,1,$1+$1,$2,$3*
1,1,$1+$1,$4,$5*
1,1,$1+$1,$6,$7*
1,1,$1+$1,$8,$9*
0 Add four rect primitives between the rounded corners*
20,1,$1+$1,$2,$3,$4,$5,0*
20,1,$1+$1,$4,$5,$6,$7,0*
20,1,$1+$1,$6,$7,$8,$9,0*
20,1,$1+$1,$8,$9,$2,$3,0*%
G04 Aperture macros list end*
%TA.AperFunction,ComponentPad*%
%ADD10C,1.700000*%
%TD*%
%TA.AperFunction,ComponentPad*%
%ADD11RoundRect,0.250000X0.600000X-0.600000X0.600000X0.600000X-0.600000X0.600000X-0.600000X-0.600000X0*%
%TD*%
%TA.AperFunction,ComponentPad*%
%ADD12C,1.900000*%
%TD*%
%TA.AperFunction,ComponentPad*%
%ADD13RoundRect,0.250000X0.700000X0.700000X-0.700000X0.700000X-0.700000X-0.700000X0.700000X-0.700000X0*%
%TD*%
%TA.AperFunction,ComponentPad*%
%ADD14C,2.800000*%
%TD*%
%TA.AperFunction,ComponentPad*%
%ADD15RoundRect,0.279412X-0.670588X-0.670588X0.670588X-0.670588X0.670588X0.670588X-0.670588X0.670588X0*%
%TD*%
%TA.AperFunction,ViaPad*%
%ADD16C,0.800000*%
%TD*%
%TA.AperFunction,ViaPad*%
%ADD17C,0.600000*%
%TD*%
%TA.AperFunction,Conductor*%
%ADD18C,0.500000*%
%TD*%
%TA.AperFunction,Conductor*%
%ADD19C,0.600000*%
%TD*%
%TA.AperFunction,Conductor*%
%ADD20C,0.700000*%
%TD*%
G04 APERTURE END LIST*
D10*
%TO.P,U4,12,CC1_12*%
%TO.N,Net-(U1-O8)*%
X73650000Y67120000D03*
%TO.P,U4,11,a_11*%
%TO.N,Net-(U4-a)*%
X76190000Y67120000D03*
%TO.P,U4,10,f_10*%
%TO.N,Net-(U4-f)*%
X78730000Y67120000D03*
%TO.P,U4,9,CC2_9*%
%TO.N,Net-(U1-O7)*%
X81270000Y67120000D03*
%TO.P,U4,8,CC3_8*%
%TO.N,Net-(U1-O6)*%
X83810000Y67120000D03*
%TO.P,U4,7,b_7*%
%TO.N,Net-(U4-b)*%
X86350000Y67120000D03*
%TO.P,U4,6,CC4_6*%
%TO.N,Net-(U1-O5)*%
X86350000Y51880000D03*
%TO.P,U4,5,g_5*%
%TO.N,Net-(U4-g)*%
X83810000Y51880000D03*
%TO.P,U4,4,c_4*%
%TO.N,Net-(U4-c)*%
X81270000Y51880000D03*
%TO.P,U4,3,DPX_3*%
%TO.N,Net-(U4-DPX)*%
X78730000Y51880000D03*
%TO.P,U4,2,d_2*%
%TO.N,Net-(U4-d)*%
X76190000Y51880000D03*
D11*
%TO.P,U4,1,e_1*%
%TO.N,Net-(U4-e)*%
X73650000Y51880000D03*
%TD*%
D12*
%TO.P,LED4,1,K_1*%
%TO.N,/ADRY*%
X31270000Y65500000D03*
D13*
%TO.P,LED4,2,A_2*%
%TO.N,Net-(LED4-A)*%
X28730000Y65500000D03*
%TD*%
D12*
%TO.P,LED1,1,K_1*%
%TO.N,/BDRY*%
X131270000Y65500000D03*
D13*
%TO.P,LED1,2,A_2*%
%TO.N,Net-(LED1-A)*%
X128730000Y65500000D03*
%TD*%
D12*
%TO.P,LED5,1,K_1*%
%TO.N,/APURGE*%
X31270000Y57000000D03*
D13*
%TO.P,LED5,2,A_2*%
%TO.N,Net-(LED5-A)*%
X28730000Y57000000D03*
%TD*%
D12*
%TO.P,LED8,1,K_1*%
%TO.N,/LOCAL*%
X131270000Y40000000D03*
D13*
%TO.P,LED8,2,A_2*%
%TO.N,Net-(LED8-A)*%
X128730000Y40000000D03*
%TD*%
D12*
%TO.P,LED3,1,K_1*%
%TO.N,/PRESSURE*%
X31270000Y48500000D03*
D13*
%TO.P,LED3,2,A_2*%
%TO.N,Net-(LED3-A)*%
X28730000Y48500000D03*
%TD*%
D14*
%TO.P,TS2,1*%
%TO.N,/MODE_UP*%
X62750000Y22500000D03*
%TO.P,TS2,2*%
X75250000Y22500000D03*
%TO.P,TS2,3*%
%TO.N,GND*%
X75250000Y27500000D03*
%TO.P,TS2,4*%
X62750000Y27500000D03*
%TD*%
D12*
%TO.P,LED7,1,K_1*%
%TO.N,/LOWPRE*%
X31270000Y40000000D03*
D13*
%TO.P,LED7,2,A_2*%
%TO.N,Net-(LED7-A)*%
X28730000Y40000000D03*
%TD*%
D14*
%TO.P,TS1,1*%
%TO.N,/MODE*%
X40750000Y22500000D03*
%TO.P,TS1,2*%
X53250000Y22500000D03*
%TO.P,TS1,3*%
%TO.N,GND*%
X53250000Y27500000D03*
%TO.P,TS1,4*%
X40750000Y27500000D03*
%TD*%
%TO.P,TS4,1*%
%TO.N,/SAVE*%
X106750000Y22500000D03*
%TO.P,TS4,2*%
X119250000Y22500000D03*
%TO.P,TS4,3*%
%TO.N,GND*%
X119250000Y27500000D03*
%TO.P,TS4,4*%
X106750000Y27500000D03*
%TD*%
D12*
%TO.P,LED6,1,K_1*%
%TO.N,/BPURGE*%
X131270000Y57000000D03*
D13*
%TO.P,LED6,2,A_2*%
%TO.N,Net-(LED6-A)*%
X128730000Y57000000D03*
%TD*%
D12*
%TO.P,LED2,1,K_1*%
%TO.N,/REMOTE*%
X131270000Y48500000D03*
D13*
%TO.P,LED2,2,A_2*%
%TO.N,Net-(LED2-A)*%
X128730000Y48500000D03*
%TD*%
D14*
%TO.P,TS3,1*%
%TO.N,/MODE_DN*%
X84750000Y22500000D03*
%TO.P,TS3,2*%
X97250000Y22500000D03*
%TO.P,TS3,3*%
%TO.N,GND*%
X97250000Y27500000D03*
%TO.P,TS3,4*%
X84750000Y27500000D03*
%TD*%
D15*
%TO.P,J1,1,Pin_1_1*%
%TO.N,/BPURGE*%
X10730000Y25380000D03*
D12*
%TO.P,J1,2,Pin_2_2*%
%TO.N,/LOWPRE*%
X13270000Y25380000D03*
%TO.P,J1,3,Pin_3_3*%
%TO.N,unconnected-(J1-Pin_3-Pad3)*%
X10730000Y27920000D03*
%TO.P,J1,4,Pin_4_4*%
%TO.N,/LOCAL*%
X13270000Y27920000D03*
%TO.P,J1,5,Pin_5_5*%
%TO.N,/MODE*%
X10730000Y30460000D03*
%TO.P,J1,6,Pin_6_6*%
%TO.N,/REMOTE*%
X13270000Y30460000D03*
%TO.P,J1,7,Pin_7_7*%
%TO.N,/MODE_UP*%
X10730000Y33000000D03*
%TO.P,J1,8,Pin_8_8*%
%TO.N,/SRC1*%
X13270000Y33000000D03*
%TO.P,J1,9,Pin_9_9*%
%TO.N,/MODE_DN*%
X10730000Y35540000D03*
%TO.P,J1,10,Pin_10_10*%
%TO.N,/RC1*%
X13270000Y35540000D03*
%TO.P,J1,11,Pin_11_11*%
%TO.N,/SAVE*%
X10730000Y38080000D03*
%TO.P,J1,12,Pin_12_12*%
%TO.N,/SDI1*%
X13270000Y38080000D03*
%TO.P,J1,13,Pin_13_13*%
%TO.N,GND*%
X10730000Y40620000D03*
%TO.P,J1,14,Pin_14_14*%
%TO.N,+5V*%
X13270000Y40620000D03*
%TD*%
D16*
%TO.N,GND*%
X35700000Y29000000D03*
X70000000Y51800000D03*
X73700000Y48300000D03*
X70700000Y48300000D03*
X92500000Y33800000D03*
X96000000Y33800000D03*
X144800000Y50800000D03*
X144800000Y56400000D03*
X144800000Y62000000D03*
X144800000Y27100000D03*
X144800000Y37700000D03*
X144800000Y32700000D03*
X134200000Y29400000D03*
X134200000Y35900000D03*
X134200000Y32700000D03*
X127300000Y32700000D03*
X125100000Y32700000D03*
X122900000Y32700000D03*
X113100000Y35100000D03*
X111600000Y35100000D03*
X113100000Y38300000D03*
X111600000Y38300000D03*
X98200000Y44000000D03*
X96000000Y44000000D03*
X105000000Y41000000D03*
X107200000Y41000000D03*
X102900000Y41000000D03*
X87000000Y37400000D03*
X87000000Y41100000D03*
X92100000Y50600000D03*
X89200000Y50600000D03*
X98400000Y53900000D03*
X101900000Y53900000D03*
X101900000Y64700000D03*
X101900000Y60800000D03*
X95300000Y60800000D03*
X92500000Y60800000D03*
X83100000Y60900000D03*
X86300000Y60900000D03*
X75000000Y65500000D03*
X94200000Y67200000D03*
X91800000Y67200000D03*
X88600000Y72800000D03*
X71400000Y65500000D03*
X78300000Y72800000D03*
X62600000Y67000000D03*
X60400000Y67000000D03*
X58200000Y67000000D03*
X47400000Y60000000D03*
X47400000Y57000000D03*
X47400000Y54100000D03*
X66950000Y40875000D03*
X66975000Y37950000D03*
X65000000Y35275000D03*
X13375000Y6575000D03*
X9450000Y6625000D03*
X9450000Y17375000D03*
X14050000Y17225000D03*
X19050000Y18925000D03*
X126700000Y2000000D03*
X122900000Y2000000D03*
X119000000Y2000000D03*
X122900000Y6500000D03*
X119000000Y6500000D03*
X126000000Y13500000D03*
X119150000Y13500000D03*
X115425000Y13500000D03*
X111625000Y13500000D03*
X102950000Y13375000D03*
X97500000Y13425000D03*
X100400000Y17025000D03*
X95500000Y16925000D03*
X100575000Y30350000D03*
X100575000Y24900000D03*
X105975000Y25000000D03*
X111175000Y25000000D03*
X115375000Y25000000D03*
X91000000Y25000000D03*
X69000000Y25000000D03*
X47000000Y25000000D03*
X35700000Y25050000D03*
X37575000Y36825000D03*
X25300000Y36850000D03*
X25200000Y45375000D03*
X25100000Y53675000D03*
X25125000Y62050000D03*
X15225000Y72150000D03*
X15125000Y62075000D03*
X15125000Y52075000D03*
X10730000Y52075000D03*
%TO.N,Net-(U4-c)*%
X95525000Y54625000D03*
%TO.N,Net-(U4-d)*%
X101150000Y56825000D03*
%TO.N,Net-(U4-e)*%
X105800000Y54200000D03*
%TO.N,/BDRY*%
X62385000Y37860000D03*
%TO.N,+5V*%
X52825000Y45475000D03*
%TO.N,/ADRY*%
X40525000Y46850000D03*
%TO.N,Net-(U4-b)*%
X90350000Y71000000D03*
%TO.N,+5V*%
X111650000Y18875000D03*
X107675000Y18875000D03*
X93550000Y42975000D03*
X93550000Y37525000D03*
%TO.N,/MODE_DN*%
X84750000Y16700000D03*
%TO.N,/MODE_UP*%
X62750000Y16850000D03*
%TO.N,+5V*%
X20900000Y40650000D03*
X35175000Y19875000D03*
D17*
%TO.N,/SAVE*%
X105125000Y12625000D03*
%TO.N,/SDI1*%
X87725000Y15350000D03*
%TO.N,/RC1*%
X99400000Y35700000D03*
%TO.N,/LOCAL*%
X116575000Y6650000D03*
%TO.N,/SRC1*%
X102775000Y36500000D03*
X91625000Y37600000D03*
%TD*%
%TO.N,Net-(U4-c)*%
D18*
X82425000Y54625000D02*
X95525000Y54625000D01*
X81270000Y53470000D02*
X82425000Y54625000D01*
X81270000Y51880000D02*
X81270000Y53470000D01*
%TO.N,Net-(U4-b)*%
D19*
X90350000Y71000000D02*
X88450000Y71000000D01*
X88450000Y71000000D02*
X86350000Y68900000D01*
X86350000Y68900000D02*
X86350000Y67120000D01*
%TO.N,Net-(U4-d)*%
D18*
X78150000Y56825000D02*
X101150000Y56825000D01*
X76190000Y54865000D02*
X78150000Y56825000D01*
X76190000Y51880000D02*
X76190000Y54865000D01*
%TO.N,Net-(U4-e)*%
X73650000Y55350000D02*
X73650000Y51880000D01*
X77175000Y58875000D02*
X73650000Y55350000D01*
X105800000Y54225000D02*
X101150000Y58875000D01*
X105800000Y54200000D02*
X105800000Y54225000D01*
X101150000Y58875000D02*
X77175000Y58875000D01*
%TO.N,/BDRY*%
X131270000Y67105000D02*
X131270000Y65500000D01*
X127900000Y70475000D02*
X131270000Y67105000D01*
X100450000Y70475000D02*
X127900000Y70475000D01*
X93650000Y63675000D02*
X100450000Y70475000D01*
X67900000Y63675000D02*
X93650000Y63675000D01*
X65350000Y61125000D02*
X67900000Y63675000D01*
X65350000Y39825000D02*
X65350000Y61125000D01*
X63385000Y37860000D02*
X65350000Y39825000D01*
X62385000Y37860000D02*
X63385000Y37860000D01*
%TO.N,+5V*%
D20*
X33875000Y34700000D02*
X33850000Y34725000D01*
X33875000Y25850000D02*
X33875000Y34700000D01*
X33850000Y34725000D02*
X42075000Y34725000D01*
X25075000Y34725000D02*
X33850000Y34725000D01*
X42075000Y34725000D02*
X52825000Y45475000D01*
X25037500Y34687500D02*
X25075000Y34725000D01*
X25037500Y34687500D02*
X20900000Y38825000D01*
%TO.N,/ADRY*%
D18*
X32925000Y65500000D02*
X31270000Y65500000D01*
X36100000Y62325000D02*
X32925000Y65500000D01*
X36100000Y51275000D02*
X36100000Y62325000D01*
X40525000Y46850000D02*
X36100000Y51275000D01*
%TO.N,+5V*%
D20*
X107675000Y18875000D02*
X111650000Y18875000D01*
%TO.N,/SAVE*%
D18*
X106100000Y21850000D02*
X106750000Y22500000D01*
X106100000Y13600000D02*
X106100000Y21850000D01*
X105125000Y12625000D02*
X106100000Y13600000D01*
%TO.N,+5V*%
X93550000Y37525000D02*
X93550000Y42975000D01*
%TO.N,/MODE_DN*%
X84775000Y22475000D02*
X84750000Y22500000D01*
X84775000Y16725000D02*
X84775000Y22475000D01*
X84750000Y16700000D02*
X84775000Y16725000D01*
%TO.N,/MODE_UP*%
X62750000Y16850000D02*
X62750000Y22500000D01*
%TO.N,+5V*%
D20*
X20870000Y40620000D02*
X13270000Y40620000D01*
X20900000Y40650000D02*
X20870000Y40620000D01*
X20900000Y38825000D02*
X20900000Y40650000D01*
X33875000Y25850000D02*
X25037500Y34687500D01*
X33875000Y21175000D02*
X33875000Y25850000D01*
X35175000Y19875000D02*
X33875000Y21175000D01*
%TO.N,/SDI1*%
D18*
X31075000Y24700000D02*
X17720000Y38055000D01*
X17720000Y38080000D02*
X13270000Y38080000D01*
X36500000Y15375000D02*
X31075000Y20800000D01*
X87600000Y15375000D02*
X36500000Y15375000D01*
X17720000Y38055000D02*
X17720000Y38080000D01*
X87625000Y15350000D02*
X87600000Y15375000D01*
X87725000Y15350000D02*
X87625000Y15350000D01*
X31075000Y20800000D02*
X31075000Y24700000D01*
%TO.N,/RC1*%
X16885000Y35540000D02*
X13270000Y35540000D01*
X35450000Y13125000D02*
X28850000Y19725000D01*
X94900000Y13125000D02*
X35450000Y13125000D01*
X28850000Y19725000D02*
X28850000Y23575000D01*
X99425000Y17650000D02*
X94900000Y13125000D01*
X99425000Y35625000D02*
X99425000Y17650000D01*
X99400000Y35650000D02*
X99425000Y35625000D01*
X28850000Y23575000D02*
X16885000Y35540000D01*
X99400000Y35700000D02*
X99400000Y35650000D01*
%TO.N,/SRC1*%
X101625000Y36500000D02*
X100875000Y36500000D01*
X101650000Y36475000D02*
X101625000Y36500000D01*
X26575000Y18500000D02*
X34300000Y10775000D01*
X97325000Y10775000D02*
X101650000Y15100000D01*
X101650000Y15100000D02*
X101650000Y36475000D01*
X16150000Y33000000D02*
X26575000Y22575000D01*
X34300000Y10775000D02*
X97325000Y10775000D01*
X13270000Y33000000D02*
X16150000Y33000000D01*
X26575000Y22575000D02*
X26575000Y18500000D01*
%TO.N,/REMOTE*%
X134300000Y48500000D02*
X131270000Y48500000D01*
X136850000Y45950000D02*
X134300000Y48500000D01*
X124025000Y8750000D02*
X136850000Y21575000D01*
X32950000Y8750000D02*
X124025000Y8750000D01*
X24325000Y17375000D02*
X32950000Y8750000D01*
X136850000Y21575000D02*
X136850000Y45950000D01*
X15650000Y30475000D02*
X24325000Y21800000D01*
X24325000Y21800000D02*
X24325000Y17375000D01*
X13285000Y30475000D02*
X15650000Y30475000D01*
X13270000Y30460000D02*
X13285000Y30475000D01*
%TO.N,/LOCAL*%
X116500000Y6725000D02*
X116575000Y6650000D01*
X22100000Y16150000D02*
X31525000Y6725000D01*
X31525000Y6725000D02*
X116500000Y6725000D01*
X22100000Y20775000D02*
X22100000Y16150000D01*
X14955000Y27920000D02*
X22100000Y20775000D01*
X13270000Y27920000D02*
X14955000Y27920000D01*
%TO.N,GND*%
X119250000Y27500000D02*
X106750000Y27500000D01*
%TO.N,/BPURGE*%
X139250000Y19925000D02*
X139250000Y53275000D01*
X135525000Y57000000D02*
X131270000Y57000000D01*
X29850000Y4525000D02*
X123850000Y4525000D01*
X123850000Y4525000D02*
X139250000Y19925000D01*
X139250000Y53275000D02*
X135525000Y57000000D01*
X10730000Y23645000D02*
X29850000Y4525000D01*
X10730000Y25380000D02*
X10730000Y23645000D01*
%TO.N,/SRC1*%
X92725000Y36500000D02*
X100875000Y36500000D01*
X100875000Y36500000D02*
X102775000Y36500000D01*
X91625000Y37600000D02*
X92725000Y36500000D01*
%TO.N,/SAVE*%
X106750000Y22500000D02*
X119250000Y22500000D01*
%TO.N,/MODE_DN*%
X84750000Y22500000D02*
X97250000Y22500000D01*
%TO.N,/MODE_UP*%
X62750000Y22500000D02*
X75250000Y22500000D01*
%TO.N,/MODE*%
X40750000Y22500000D02*
X53250000Y22500000D01*
%TD*%
%TA.AperFunction,Conductor*%
%TO.N,GND*%
G36*
X100825000Y35729538D02*
G01*
X100879538Y35675000D01*
X100899500Y35600500D01*
X100899500Y15472585D01*
X100879538Y15398085D01*
X100855859Y15367226D01*
X97057773Y11569141D01*
X96990978Y11530577D01*
X96952414Y11525500D01*
X34672586Y11525500D01*
X34598086Y11545462D01*
X34567227Y11569141D01*
X27369141Y18767227D01*
X27330577Y18834022D01*
X27325500Y18872586D01*
X27325500Y22648913D01*
X27325500Y22648918D01*
X27296658Y22793913D01*
X27240084Y22930495D01*
X27157951Y23053416D01*
X27053416Y23157951D01*
X16628416Y33582952D01*
X16554729Y33632186D01*
X16505495Y33665084D01*
X16368913Y33721658D01*
X16223918Y33750500D01*
X16223914Y33750500D01*
X14593566Y33750500D01*
X14519066Y33770462D01*
X14473023Y33811919D01*
X14459262Y33830859D01*
X14376379Y33944937D01*
X14214937Y34106379D01*
X14155642Y34149459D01*
X14107107Y34209396D01*
X14095041Y34285575D01*
X14122681Y34357580D01*
X14155639Y34390538D01*
X14214937Y34433621D01*
X14376379Y34595063D01*
X14473023Y34728081D01*
X14532963Y34776619D01*
X14593566Y34789500D01*
X16512414Y34789500D01*
X16586914Y34769538D01*
X16617773Y34745859D01*
X28055859Y23307773D01*
X28094423Y23240978D01*
X28099500Y23202414D01*
X28099500Y19651078D01*
X28128341Y19506088D01*
X28184913Y19369510D01*
X28184918Y19369502D01*
X28209416Y19332838D01*
X28209415Y19332837D01*
X28267043Y19246589D01*
X28267049Y19246582D01*
X34867049Y12646584D01*
X34971580Y12542052D01*
X34971584Y12542048D01*
X35063567Y12480587D01*
X35094505Y12459916D01*
X35094506Y12459915D01*
X35094507Y12459915D01*
X35151082Y12436480D01*
X35151081Y12436479D01*
X35231086Y12403341D01*
X35231088Y12403340D01*
X35313860Y12386876D01*
X35347241Y12380236D01*
X35376082Y12374500D01*
X35376083Y12374500D01*
X35376085Y12374500D01*
X94973921Y12374500D01*
X95118911Y12403341D01*
X95198918Y12436481D01*
X95255495Y12459916D01*
X95255497Y12459917D01*
X95304728Y12492812D01*
X95304729Y12492812D01*
X95378410Y12542043D01*
X95378417Y12542049D01*
X100007947Y17171580D01*
X100007951Y17171584D01*
X100078080Y17276539D01*
X100090083Y17294502D01*
X100126783Y17383105D01*
X100146658Y17431087D01*
X100175500Y17576082D01*
X100175500Y17723917D01*
X100175500Y35480799D01*
X100178334Y35509722D01*
X100178350Y35509803D01*
X100200500Y35621158D01*
X100200500Y35621741D01*
X100202020Y35629423D01*
X100215947Y35657735D01*
X100227055Y35687266D01*
X100232789Y35691973D01*
X100236064Y35698631D01*
X100262278Y35716185D01*
X100286666Y35736207D01*
X100294805Y35737965D01*
X100300151Y35741545D01*
X100316362Y35742623D01*
X100348186Y35749500D01*
X100750500Y35749500D01*
X100825000Y35729538D01*
G37*
%TD.AperFunction*%
%TA.AperFunction,Conductor*%
G36*
X17396914Y37309538D02*
G01*
X17427773Y37285859D01*
X30280859Y24432773D01*
X30319423Y24365978D01*
X30324500Y24327414D01*
X30324500Y20726078D01*
X30353341Y20581088D01*
X30409913Y20444510D01*
X30409920Y20444497D01*
X30425422Y20421296D01*
X30425423Y20421297D01*
X30492047Y20321585D01*
X30492048Y20321583D01*
X35917049Y14896584D01*
X36021580Y14792052D01*
X36021584Y14792048D01*
X36113567Y14730587D01*
X36144505Y14709916D01*
X36144506Y14709915D01*
X36144507Y14709915D01*
X36201082Y14686480D01*
X36201081Y14686479D01*
X36281086Y14653341D01*
X36281088Y14653340D01*
X36363860Y14636876D01*
X36397241Y14630236D01*
X36426082Y14624500D01*
X36426083Y14624500D01*
X36573918Y14624500D01*
X87355067Y14624500D01*
X87412086Y14613158D01*
X87491501Y14580263D01*
X87491505Y14580262D01*
X87646158Y14549500D01*
X87803842Y14549500D01*
X87958494Y14580262D01*
X87958498Y14580263D01*
X88104176Y14640604D01*
X88123238Y14653341D01*
X88235289Y14728211D01*
X88346789Y14839711D01*
X88434394Y14970821D01*
X88494737Y15116503D01*
X88525500Y15271158D01*
X88525500Y15428842D01*
X88494737Y15583497D01*
X88434394Y15729179D01*
X88346789Y15860289D01*
X88235289Y15971789D01*
X88104179Y16059394D01*
X87958497Y16119737D01*
X87803842Y16150500D01*
X87646158Y16150500D01*
X87534867Y16128363D01*
X87505799Y16125500D01*
X85709723Y16125500D01*
X85635223Y16145462D01*
X85580685Y16200000D01*
X85560723Y16274500D01*
X85572065Y16331519D01*
X85615893Y16437332D01*
X85615894Y16437334D01*
X85645731Y16587334D01*
X85650500Y16611308D01*
X85650500Y16788691D01*
X85629039Y16896582D01*
X85615894Y16962666D01*
X85548013Y17126547D01*
X85548009Y17126552D01*
X85544563Y17133001D01*
X85546715Y17134151D01*
X85525821Y17195661D01*
X85525500Y17205438D01*
X85525500Y20667201D01*
X85545462Y20741701D01*
X85600000Y20796239D01*
X85771728Y20895386D01*
X85808127Y20916401D01*
X86005776Y21068062D01*
X86181938Y21244224D01*
X86333599Y21441873D01*
X86418546Y21589006D01*
X86458165Y21657628D01*
X86460315Y21661989D01*
X86460601Y21661847D01*
X86460603Y21661851D01*
X86460650Y21661823D01*
X86461211Y21661547D01*
X86505069Y21718707D01*
X86576325Y21748225D01*
X86595777Y21749500D01*
X95404223Y21749500D01*
X95478723Y21729538D01*
X95533261Y21675000D01*
X95539678Y21661985D01*
X95539685Y21661989D01*
X95541834Y21657628D01*
X95666400Y21441874D01*
X95818063Y21244222D01*
X95994222Y21068063D01*
X96191874Y20916400D01*
X96407622Y20791838D01*
X96637789Y20696499D01*
X96878442Y20632016D01*
X97125429Y20599500D01*
X97125435Y20599500D01*
X97374570Y20599500D01*
X97621557Y20632016D01*
X97621563Y20632017D01*
X97621565Y20632018D01*
X97862207Y20696498D01*
X97862208Y20696498D01*
X97862210Y20696499D01*
X97957548Y20735989D01*
X98092373Y20791836D01*
X98092375Y20791837D01*
X98092377Y20791838D01*
X98271728Y20895386D01*
X98308127Y20916401D01*
X98398949Y20986091D01*
X98434795Y21013596D01*
X98506053Y21043111D01*
X98582521Y21033044D01*
X98643710Y20986091D01*
X98673225Y20914833D01*
X98674500Y20895386D01*
X98674500Y18022585D01*
X98654538Y17948085D01*
X98630859Y17917226D01*
X94632773Y13919141D01*
X94565978Y13880577D01*
X94527414Y13875500D01*
X35822585Y13875500D01*
X35748085Y13895462D01*
X35717226Y13919141D01*
X29644141Y19992226D01*
X29605577Y20059021D01*
X29600500Y20097585D01*
X29600500Y23648913D01*
X29600500Y23648918D01*
X29571658Y23793913D01*
X29515084Y23930495D01*
X29511521Y23935827D01*
X29491535Y23965739D01*
X29432951Y24053416D01*
X29328416Y24157951D01*
X17363416Y36122952D01*
X17289729Y36172186D01*
X17240495Y36205084D01*
X17103913Y36261658D01*
X16958918Y36290500D01*
X16958914Y36290500D01*
X14593566Y36290500D01*
X14519066Y36310462D01*
X14473023Y36351919D01*
X14463489Y36365041D01*
X14376379Y36484937D01*
X14214937Y36646379D01*
X14155642Y36689459D01*
X14107107Y36749396D01*
X14095041Y36825575D01*
X14122681Y36897580D01*
X14155639Y36930538D01*
X14214937Y36973621D01*
X14376379Y37135063D01*
X14473023Y37268081D01*
X14532963Y37316619D01*
X14593566Y37329500D01*
X17322414Y37329500D01*
X17396914Y37309538D01*
G37*
%TD.AperFunction*%
%TA.AperFunction,Conductor*%
G36*
X11916862Y39786689D02*
G01*
X11985341Y39792079D01*
X11985452Y39790660D01*
X12015262Y39795382D01*
X12087268Y39767744D01*
X12120233Y39734780D01*
X12163616Y39675069D01*
X12163623Y39675061D01*
X12325066Y39513618D01*
X12361941Y39486826D01*
X12384355Y39470541D01*
X12432893Y39410603D01*
X12444958Y39334424D01*
X12417317Y39262419D01*
X12384356Y39229458D01*
X12325063Y39186379D01*
X12163621Y39024937D01*
X12120540Y38965642D01*
X12060604Y38917107D01*
X11984425Y38905041D01*
X11912420Y38932681D01*
X11879461Y38965639D01*
X11836379Y39024937D01*
X11674937Y39186379D01*
X11615217Y39229767D01*
X11566683Y39289704D01*
X11554617Y39365883D01*
X11558893Y39377022D01*
X11563309Y39433136D01*
X10838996Y40157449D01*
X10913343Y40177370D01*
X11021657Y40239905D01*
X11110095Y40328343D01*
X11172630Y40436657D01*
X11192550Y40511001D01*
X11916862Y39786689D01*
G37*
%TD.AperFunction*%
%TA.AperFunction,Conductor*%
G36*
X159425000Y74479538D02*
G01*
X159479538Y74425000D01*
X159499500Y74350500D01*
X159499500Y649500D01*
X159479538Y575000D01*
X159425000Y520462D01*
X159350500Y500500D01*
X649500Y500500D01*
X575000Y520462D01*
X520462Y575000D01*
X500500Y649500D01*
X500500Y7300000D01*
X16400000Y7300000D01*
X16400000Y2700000D01*
X17700000Y1400000D01*
X22290000Y1400000D01*
X23599999Y2699998D01*
X23600000Y2700000D01*
X23600000Y7300000D01*
X22300000Y8600000D01*
X17700000Y8600000D01*
X16400000Y7300000D01*
X500500Y7300000D01*
X500500Y38194157D01*
X9279500Y38194157D01*
X9279500Y37965843D01*
X9315216Y37740340D01*
X9385769Y37523201D01*
X9385771Y37523195D01*
X9385772Y37523195D01*
X9489420Y37319773D01*
X9623618Y37135066D01*
X9785066Y36973618D01*
X9821941Y36946826D01*
X9844355Y36930541D01*
X9892893Y36870603D01*
X9904958Y36794424D01*
X9877317Y36722419D01*
X9844356Y36689458D01*
X9785063Y36646379D01*
X9623621Y36484937D01*
X9489421Y36300228D01*
X9385769Y36096799D01*
X9315216Y35879660D01*
X9279500Y35654157D01*
X9279500Y35425843D01*
X9315216Y35200340D01*
X9385769Y34983201D01*
X9385771Y34983195D01*
X9385772Y34983195D01*
X9489420Y34779773D01*
X9623618Y34595066D01*
X9785066Y34433618D01*
X9821941Y34406826D01*
X9844355Y34390541D01*
X9892893Y34330603D01*
X9904958Y34254424D01*
X9877317Y34182419D01*
X9844356Y34149458D01*
X9785063Y34106379D01*
X9623621Y33944937D01*
X9489421Y33760228D01*
X9385769Y33556799D01*
X9315216Y33339660D01*
X9279500Y33114157D01*
X9279500Y32885843D01*
X9315216Y32660340D01*
X9385769Y32443201D01*
X9385771Y32443195D01*
X9385772Y32443195D01*
X9489420Y32239773D01*
X9623618Y32055066D01*
X9785066Y31893618D01*
X9821941Y31866826D01*
X9844355Y31850541D01*
X9892893Y31790603D01*
X9904958Y31714424D01*
X9877317Y31642419D01*
X9844356Y31609458D01*
X9785063Y31566379D01*
X9623621Y31404937D01*
X9489421Y31220228D01*
X9385769Y31016799D01*
X9315216Y30799660D01*
X9279500Y30574157D01*
X9279500Y30345843D01*
X9315216Y30120340D01*
X9385769Y29903201D01*
X9385771Y29903195D01*
X9385772Y29903195D01*
X9489420Y29699773D01*
X9623618Y29515066D01*
X9785066Y29353618D01*
X9821941Y29326826D01*
X9844355Y29310541D01*
X9892893Y29250603D01*
X9904958Y29174424D01*
X9877317Y29102419D01*
X9844356Y29069458D01*
X9785063Y29026379D01*
X9623621Y28864937D01*
X9489421Y28680228D01*
X9385769Y28476799D01*
X9315216Y28259660D01*
X9279500Y28034157D01*
X9279500Y27805843D01*
X9306050Y27638213D01*
X9315216Y27580340D01*
X9381783Y27375467D01*
X9385769Y27363201D01*
X9385771Y27363195D01*
X9385772Y27363195D01*
X9489420Y27159773D01*
X9623618Y26975066D01*
X9661745Y26936939D01*
X9700308Y26870143D01*
X9700307Y26793015D01*
X9661743Y26726221D01*
X9635658Y26705419D01*
X9570068Y26664206D01*
X9445794Y26539932D01*
X9384355Y26442152D01*
X9352289Y26391120D01*
X9294242Y26225230D01*
X9279500Y26094386D01*
X9279500Y24665614D01*
X9294242Y24534768D01*
X9352289Y24368879D01*
X9445794Y24220068D01*
X9570068Y24095794D01*
X9718879Y24002289D01*
X9879711Y23946012D01*
X9943438Y23902564D01*
X9976902Y23833074D01*
X9979500Y23805373D01*
X9979500Y23571078D01*
X10008341Y23426087D01*
X10008342Y23426085D01*
X10064912Y23289511D01*
X10064919Y23289498D01*
X10069881Y23282073D01*
X10069882Y23282073D01*
X10147047Y23166585D01*
X10147048Y23166583D01*
X29371580Y3942052D01*
X29371585Y3942048D01*
X29494502Y3859916D01*
X29631089Y3803341D01*
X29631087Y3803341D01*
X29776078Y3774500D01*
X29776082Y3774500D01*
X123923921Y3774500D01*
X124068911Y3803341D01*
X124205497Y3859917D01*
X124254728Y3892812D01*
X124254729Y3892812D01*
X124328410Y3942043D01*
X124328418Y3942050D01*
X127686368Y7300000D01*
X136400000Y7300000D01*
X136400000Y2700000D01*
X137700000Y1400000D01*
X142290000Y1400000D01*
X143599999Y2699998D01*
X143600000Y2700000D01*
X143600000Y7300000D01*
X142300000Y8600000D01*
X137700000Y8600000D01*
X136400000Y7300000D01*
X127686368Y7300000D01*
X139832951Y19446583D01*
X139832952Y19446584D01*
X139892447Y19535626D01*
X139915084Y19569505D01*
X139971658Y19706087D01*
X140000500Y19851082D01*
X140000500Y53348918D01*
X139975520Y53474500D01*
X139971659Y53493912D01*
X139938518Y53573920D01*
X139915084Y53630495D01*
X139832951Y53753416D01*
X139728416Y53857951D01*
X136003416Y57582952D01*
X135929729Y57632186D01*
X135880495Y57665084D01*
X135743913Y57721658D01*
X135598918Y57750500D01*
X135598914Y57750500D01*
X132593566Y57750500D01*
X132519066Y57770462D01*
X132473023Y57811919D01*
X132443322Y57852798D01*
X132376379Y57944937D01*
X132214937Y58106379D01*
X132030228Y58240579D01*
X131826799Y58344231D01*
X131609660Y58414784D01*
X131384157Y58450500D01*
X131155843Y58450500D01*
X130930340Y58414784D01*
X130713201Y58344231D01*
X130509772Y58240579D01*
X130325063Y58106379D01*
X130295062Y58076378D01*
X130228270Y58037816D01*
X130151142Y58037816D01*
X130084347Y58076380D01*
X130062889Y58103518D01*
X130062260Y58104538D01*
X130022712Y58168656D01*
X129898656Y58292712D01*
X129749334Y58384814D01*
X129582797Y58439999D01*
X129480009Y58450500D01*
X127979992Y58450499D01*
X127877203Y58439999D01*
X127710666Y58384814D01*
X127561344Y58292712D01*
X127437288Y58168656D01*
X127345186Y58019334D01*
X127290001Y57852797D01*
X127279500Y57750009D01*
X127279500Y57750004D01*
X127279500Y56249996D01*
X127290001Y56147202D01*
X127345186Y55980666D01*
X127437288Y55831343D01*
X127561343Y55707288D01*
X127710666Y55615186D01*
X127877201Y55560001D01*
X127911465Y55556500D01*
X127979991Y55549500D01*
X127979994Y55549500D01*
X127979995Y55549500D01*
X129480003Y55549500D01*
X129582797Y55560001D01*
X129749334Y55615186D01*
X129898656Y55707288D01*
X130022712Y55831344D01*
X130061125Y55893621D01*
X130062890Y55896482D01*
X130118991Y55949410D01*
X130194040Y55967197D01*
X130267928Y55945076D01*
X130295063Y55923620D01*
X130325053Y55893630D01*
X130325066Y55893618D01*
X130509773Y55759420D01*
X130713195Y55655772D01*
X130713201Y55655769D01*
X130930340Y55585216D01*
X131155843Y55549500D01*
X131155847Y55549500D01*
X131384153Y55549500D01*
X131384157Y55549500D01*
X131609660Y55585216D01*
X131826799Y55655769D01*
X132030228Y55759421D01*
X132214937Y55893621D01*
X132376379Y56055063D01*
X132473023Y56188081D01*
X132532963Y56236619D01*
X132593566Y56249500D01*
X135152414Y56249500D01*
X135226914Y56229538D01*
X135257773Y56205859D01*
X138455859Y53007773D01*
X138494423Y52940978D01*
X138499500Y52902414D01*
X138499500Y20297586D01*
X138479538Y20223086D01*
X138455859Y20192227D01*
X123582773Y5319141D01*
X123515978Y5280577D01*
X123477414Y5275500D01*
X30222585Y5275500D01*
X30148085Y5295462D01*
X30117226Y5319141D01*
X21463782Y13972585D01*
X11681343Y23755023D01*
X11642781Y23821816D01*
X11642781Y23898944D01*
X11681345Y23965739D01*
X11733618Y23998586D01*
X11733583Y23998659D01*
X11734227Y23998969D01*
X11737483Y24001015D01*
X11741115Y24002286D01*
X11741118Y24002287D01*
X11822493Y24053419D01*
X11889932Y24095794D01*
X12014206Y24220068D01*
X12055419Y24285658D01*
X12111958Y24338118D01*
X12187153Y24355281D01*
X12260854Y24332547D01*
X12286939Y24311745D01*
X12325066Y24273618D01*
X12509773Y24139420D01*
X12713195Y24035772D01*
X12713201Y24035769D01*
X12930340Y23965216D01*
X13155843Y23929500D01*
X13155847Y23929500D01*
X13384153Y23929500D01*
X13384157Y23929500D01*
X13609660Y23965216D01*
X13826799Y24035769D01*
X14030228Y24139421D01*
X14214937Y24273621D01*
X14376379Y24435063D01*
X14510579Y24619772D01*
X14614231Y24823201D01*
X14684784Y25040340D01*
X14720500Y25265843D01*
X14720500Y25494157D01*
X14684784Y25719660D01*
X14614231Y25936799D01*
X14510579Y26140228D01*
X14376379Y26324937D01*
X14214937Y26486379D01*
X14155642Y26529459D01*
X14107107Y26589396D01*
X14095041Y26665575D01*
X14122681Y26737580D01*
X14155639Y26770538D01*
X14214937Y26813621D01*
X14376379Y26975063D01*
X14459664Y27089694D01*
X14468330Y27101621D01*
X14528271Y27150159D01*
X14604449Y27162224D01*
X14676454Y27134583D01*
X14694232Y27119399D01*
X21305859Y20507773D01*
X21344423Y20440978D01*
X21349500Y20402414D01*
X21349500Y16076078D01*
X21378341Y15931088D01*
X21434913Y15794510D01*
X21434920Y15794497D01*
X21467812Y15745270D01*
X21517041Y15671591D01*
X21517048Y15671583D01*
X31046583Y6142048D01*
X31046591Y6142041D01*
X31120269Y6092813D01*
X31169497Y6059920D01*
X31169510Y6059913D01*
X31306089Y6003341D01*
X31306087Y6003341D01*
X31451078Y5974500D01*
X31451082Y5974500D01*
X31451083Y5974500D01*
X31598918Y5974500D01*
X116099896Y5974500D01*
X116174396Y5954538D01*
X116182677Y5949388D01*
X116195816Y5940607D01*
X116195822Y5940605D01*
X116341501Y5880263D01*
X116341505Y5880262D01*
X116496158Y5849500D01*
X116653842Y5849500D01*
X116808494Y5880262D01*
X116808498Y5880263D01*
X116954176Y5940604D01*
X116967322Y5949388D01*
X117085289Y6028211D01*
X117196789Y6139711D01*
X117284394Y6270821D01*
X117344737Y6416503D01*
X117375500Y6571158D01*
X117375500Y6728842D01*
X117344737Y6883497D01*
X117284394Y7029179D01*
X117196789Y7160289D01*
X117085289Y7271789D01*
X116954179Y7359394D01*
X116808497Y7419737D01*
X116775571Y7426285D01*
X116747631Y7434761D01*
X116718913Y7446658D01*
X116573918Y7475500D01*
X116573914Y7475500D01*
X31897586Y7475500D01*
X31823086Y7495462D01*
X31792227Y7519141D01*
X22894141Y16417227D01*
X22855577Y16484022D01*
X22850500Y16522586D01*
X22850500Y20848913D01*
X22850500Y20848918D01*
X22821658Y20993913D01*
X22765084Y21130495D01*
X22737269Y21172123D01*
X22728722Y21184915D01*
X22728720Y21184917D01*
X22710099Y21212786D01*
X22682952Y21253416D01*
X15433416Y28502952D01*
X15359729Y28552186D01*
X15310495Y28585084D01*
X15173913Y28641658D01*
X15028918Y28670500D01*
X15028914Y28670500D01*
X14593566Y28670500D01*
X14519066Y28690462D01*
X14473023Y28731919D01*
X14463489Y28745041D01*
X14376379Y28864937D01*
X14214937Y29026379D01*
X14155642Y29069459D01*
X14107107Y29129396D01*
X14095041Y29205575D01*
X14122681Y29277580D01*
X14155639Y29310538D01*
X14214937Y29353621D01*
X14376379Y29515063D01*
X14483921Y29663081D01*
X14543861Y29711619D01*
X14604464Y29724500D01*
X15277414Y29724500D01*
X15351914Y29704538D01*
X15382773Y29680859D01*
X23530859Y21532773D01*
X23569423Y21465978D01*
X23574500Y21427414D01*
X23574500Y17301078D01*
X23603341Y17156087D01*
X23603342Y17156085D01*
X23659913Y17019509D01*
X23683029Y16984915D01*
X23683030Y16984913D01*
X23742045Y16896586D01*
X23742050Y16896582D01*
X32471583Y8167048D01*
X32471591Y8167041D01*
X32545269Y8117813D01*
X32594497Y8084920D01*
X32594510Y8084913D01*
X32731089Y8028341D01*
X32731087Y8028341D01*
X32876078Y7999500D01*
X32876082Y7999500D01*
X124098921Y7999500D01*
X124243911Y8028341D01*
X124312204Y8056629D01*
X124380495Y8084916D01*
X124380497Y8084917D01*
X124429728Y8117812D01*
X124429729Y8117812D01*
X124503410Y8167043D01*
X124503418Y8167050D01*
X137432950Y21096582D01*
X137432956Y21096589D01*
X137513421Y21217016D01*
X137513428Y21217027D01*
X137513442Y21217048D01*
X137515084Y21219505D01*
X137515085Y21219508D01*
X137515087Y21219511D01*
X137571657Y21356085D01*
X137571658Y21356087D01*
X137588722Y21441873D01*
X137600500Y21501082D01*
X137600500Y46023918D01*
X137593730Y46057951D01*
X137571659Y46168912D01*
X137527316Y46275965D01*
X137515084Y46305495D01*
X137432951Y46428416D01*
X137328416Y46532951D01*
X134778416Y49082952D01*
X134704729Y49132186D01*
X134655495Y49165084D01*
X134518913Y49221658D01*
X134373918Y49250500D01*
X134373914Y49250500D01*
X132593566Y49250500D01*
X132519066Y49270462D01*
X132473023Y49311919D01*
X132443322Y49352798D01*
X132376379Y49444937D01*
X132214937Y49606379D01*
X132030228Y49740579D01*
X131826799Y49844231D01*
X131609660Y49914784D01*
X131384157Y49950500D01*
X131155843Y49950500D01*
X130930340Y49914784D01*
X130713201Y49844231D01*
X130509772Y49740579D01*
X130325063Y49606379D01*
X130295062Y49576378D01*
X130228270Y49537816D01*
X130151142Y49537816D01*
X130084347Y49576380D01*
X130062889Y49603518D01*
X130022712Y49668656D01*
X129898656Y49792712D01*
X129749334Y49884814D01*
X129582797Y49939999D01*
X129480009Y49950500D01*
X127979992Y49950499D01*
X127877203Y49939999D01*
X127710666Y49884814D01*
X127561344Y49792712D01*
X127437288Y49668656D01*
X127345186Y49519334D01*
X127290001Y49352797D01*
X127279500Y49250009D01*
X127279500Y49250004D01*
X127279500Y47749996D01*
X127290001Y47647202D01*
X127345186Y47480666D01*
X127437288Y47331343D01*
X127561343Y47207288D01*
X127710666Y47115186D01*
X127877201Y47060001D01*
X127911465Y47056500D01*
X127979991Y47049500D01*
X127979994Y47049500D01*
X127979995Y47049500D01*
X129480003Y47049500D01*
X129582797Y47060001D01*
X129749334Y47115186D01*
X129898656Y47207288D01*
X130022712Y47331344D01*
X130061125Y47393621D01*
X130062890Y47396482D01*
X130118991Y47449410D01*
X130194040Y47467197D01*
X130267928Y47445076D01*
X130295063Y47423620D01*
X130325053Y47393630D01*
X130325066Y47393618D01*
X130509773Y47259420D01*
X130713195Y47155772D01*
X130713201Y47155769D01*
X130930340Y47085216D01*
X131155843Y47049500D01*
X131155847Y47049500D01*
X131384153Y47049500D01*
X131384157Y47049500D01*
X131609660Y47085216D01*
X131826799Y47155769D01*
X132030228Y47259421D01*
X132214937Y47393621D01*
X132376379Y47555063D01*
X132473023Y47688081D01*
X132532963Y47736619D01*
X132593566Y47749500D01*
X133927414Y47749500D01*
X134001914Y47729538D01*
X134032773Y47705859D01*
X136055859Y45682773D01*
X136094423Y45615978D01*
X136099500Y45577414D01*
X136099500Y21947586D01*
X136079538Y21873086D01*
X136055859Y21842227D01*
X123757773Y9544141D01*
X123690978Y9505577D01*
X123652414Y9500500D01*
X33322586Y9500500D01*
X33248086Y9520462D01*
X33217227Y9544141D01*
X25119141Y17642227D01*
X25080577Y17709022D01*
X25075500Y17747586D01*
X25075500Y21873917D01*
X25060846Y21947586D01*
X25052002Y21992049D01*
X25046659Y22018912D01*
X25004991Y22119506D01*
X24990084Y22155495D01*
X24907951Y22278416D01*
X24803416Y22382951D01*
X16128416Y31057952D01*
X16054729Y31107186D01*
X16005495Y31140084D01*
X15868913Y31196658D01*
X15723918Y31225500D01*
X15723914Y31225500D01*
X14582668Y31225500D01*
X14508168Y31245462D01*
X14462125Y31286919D01*
X14454723Y31297107D01*
X14376379Y31404937D01*
X14214937Y31566379D01*
X14155642Y31609459D01*
X14107107Y31669396D01*
X14095041Y31745575D01*
X14122681Y31817580D01*
X14155639Y31850538D01*
X14214937Y31893621D01*
X14376379Y32055063D01*
X14473023Y32188081D01*
X14532963Y32236619D01*
X14593566Y32249500D01*
X15777414Y32249500D01*
X15851914Y32229538D01*
X15882773Y32205859D01*
X25780859Y22307773D01*
X25819423Y22240978D01*
X25824500Y22202414D01*
X25824500Y18426078D01*
X25853341Y18281088D01*
X25909915Y18144505D01*
X25920666Y18128417D01*
X25920667Y18128415D01*
X25992047Y18021585D01*
X25992048Y18021583D01*
X33821583Y10192048D01*
X33821591Y10192041D01*
X33895269Y10142813D01*
X33944497Y10109920D01*
X33944510Y10109913D01*
X34081089Y10053341D01*
X34081087Y10053341D01*
X34226078Y10024500D01*
X34226082Y10024500D01*
X97398921Y10024500D01*
X97543911Y10053341D01*
X97612204Y10081629D01*
X97680495Y10109916D01*
X97680497Y10109917D01*
X97729728Y10142812D01*
X97729729Y10142812D01*
X97803410Y10192043D01*
X97803417Y10192049D01*
X97803418Y10192050D01*
X100315209Y12703842D01*
X104324500Y12703842D01*
X104324500Y12546157D01*
X104355262Y12391505D01*
X104355263Y12391501D01*
X104415604Y12245823D01*
X104415609Y12245816D01*
X104503210Y12114712D01*
X104503214Y12114707D01*
X104614707Y12003214D01*
X104745823Y11915604D01*
X104891501Y11855263D01*
X104891505Y11855262D01*
X105046158Y11824500D01*
X105203842Y11824500D01*
X105358494Y11855262D01*
X105358498Y11855263D01*
X105504176Y11915604D01*
X105504179Y11915606D01*
X105635289Y12003211D01*
X105746789Y12114711D01*
X105834394Y12245821D01*
X105842288Y12264879D01*
X105874587Y12313219D01*
X106682947Y13121580D01*
X106682951Y13121584D01*
X106715759Y13170685D01*
X106765083Y13244502D01*
X106802317Y13334394D01*
X106821658Y13381087D01*
X106850500Y13526082D01*
X106850500Y13673917D01*
X106850500Y18066283D01*
X106870462Y18140783D01*
X106925000Y18195321D01*
X106999500Y18215283D01*
X107074000Y18195321D01*
X107094699Y18179437D01*
X107095308Y18180179D01*
X107100968Y18175533D01*
X107248451Y18076987D01*
X107248453Y18076986D01*
X107412332Y18009106D01*
X107412336Y18009105D01*
X107586309Y17974500D01*
X107763691Y17974500D01*
X107937661Y18009104D01*
X107937666Y18009106D01*
X107947452Y18013159D01*
X108004468Y18024500D01*
X111320532Y18024500D01*
X111377547Y18013159D01*
X111384434Y18010306D01*
X111387338Y18009104D01*
X111561309Y17974500D01*
X111738691Y17974500D01*
X111912663Y18009105D01*
X111912667Y18009106D01*
X112076546Y18076986D01*
X112076548Y18076987D01*
X112224031Y18175533D01*
X112224036Y18175537D01*
X112349462Y18300963D01*
X112349466Y18300968D01*
X112448012Y18448451D01*
X112448013Y18448453D01*
X112515893Y18612332D01*
X112515894Y18612334D01*
X112550500Y18786309D01*
X112550500Y18963691D01*
X112515894Y19137666D01*
X112448013Y19301547D01*
X112349464Y19449035D01*
X112224035Y19574464D01*
X112076547Y19673013D01*
X111912666Y19740894D01*
X111738691Y19775500D01*
X111561309Y19775500D01*
X111387338Y19740895D01*
X111387337Y19740894D01*
X111387334Y19740894D01*
X111377547Y19736840D01*
X111320532Y19725500D01*
X108004468Y19725500D01*
X107947452Y19736840D01*
X107937666Y19740894D01*
X107763691Y19775500D01*
X107586309Y19775500D01*
X107412334Y19740894D01*
X107328304Y19706088D01*
X107248453Y19673013D01*
X107248451Y19673012D01*
X107157644Y19612336D01*
X107100965Y19574464D01*
X107100963Y19574462D01*
X107095308Y19569821D01*
X107093624Y19571871D01*
X107038064Y19539794D01*
X106960936Y19539794D01*
X106894141Y19578358D01*
X106855577Y19645153D01*
X106850500Y19683717D01*
X106850500Y20465662D01*
X106870462Y20540162D01*
X106925000Y20594700D01*
X106980052Y20613387D01*
X107121557Y20632016D01*
X107121563Y20632017D01*
X107121565Y20632018D01*
X107362207Y20696498D01*
X107362208Y20696498D01*
X107362210Y20696499D01*
X107457548Y20735989D01*
X107592373Y20791836D01*
X107592375Y20791837D01*
X107592377Y20791838D01*
X107771728Y20895386D01*
X107808127Y20916401D01*
X108005776Y21068062D01*
X108181938Y21244224D01*
X108333599Y21441873D01*
X108418546Y21589006D01*
X108458165Y21657628D01*
X108460315Y21661989D01*
X108460601Y21661847D01*
X108460603Y21661851D01*
X108460650Y21661823D01*
X108461211Y21661547D01*
X108505069Y21718707D01*
X108576325Y21748225D01*
X108595777Y21749500D01*
X117404223Y21749500D01*
X117478723Y21729538D01*
X117533261Y21675000D01*
X117539678Y21661985D01*
X117539685Y21661989D01*
X117541834Y21657628D01*
X117666400Y21441874D01*
X117818063Y21244222D01*
X117994222Y21068063D01*
X118191874Y20916400D01*
X118407622Y20791838D01*
X118637789Y20696499D01*
X118878442Y20632016D01*
X119125429Y20599500D01*
X119125435Y20599500D01*
X119374570Y20599500D01*
X119621557Y20632016D01*
X119621563Y20632017D01*
X119621565Y20632018D01*
X119862207Y20696498D01*
X119862208Y20696498D01*
X119862210Y20696499D01*
X119957548Y20735989D01*
X120092373Y20791836D01*
X120092375Y20791837D01*
X120092377Y20791838D01*
X120271728Y20895386D01*
X120308127Y20916401D01*
X120505776Y21068062D01*
X120681938Y21244224D01*
X120833599Y21441873D01*
X120958164Y21657627D01*
X121053502Y21887793D01*
X121117982Y22128435D01*
X121121545Y22155495D01*
X121150499Y22375429D01*
X121150500Y22375435D01*
X121150500Y22624565D01*
X121150499Y22624570D01*
X121147294Y22648913D01*
X121117982Y22871565D01*
X121053502Y23112207D01*
X120958164Y23342373D01*
X120833599Y23558127D01*
X120681938Y23755776D01*
X120505776Y23931938D01*
X120308127Y24083599D01*
X120092373Y24208164D01*
X119862207Y24303502D01*
X119621565Y24367982D01*
X119374565Y24400500D01*
X119125435Y24400500D01*
X118945586Y24376822D01*
X118878442Y24367983D01*
X118878441Y24367982D01*
X118878435Y24367982D01*
X118637793Y24303502D01*
X118407627Y24208164D01*
X118191873Y24083599D01*
X117994224Y23931938D01*
X117818062Y23755776D01*
X117666401Y23558127D01*
X117666400Y23558125D01*
X117541834Y23342371D01*
X117539685Y23338011D01*
X117539398Y23338152D01*
X117539397Y23338149D01*
X117539349Y23338176D01*
X117538788Y23338452D01*
X117494931Y23281293D01*
X117423675Y23251775D01*
X117404223Y23250500D01*
X108595777Y23250500D01*
X108521277Y23270462D01*
X108466739Y23325000D01*
X108460321Y23338014D01*
X108460315Y23338011D01*
X108458165Y23342371D01*
X108409833Y23426085D01*
X108333599Y23558127D01*
X108181938Y23755776D01*
X108005776Y23931938D01*
X107808127Y24083599D01*
X107592373Y24208164D01*
X107362207Y24303502D01*
X107121565Y24367982D01*
X106874565Y24400500D01*
X106625435Y24400500D01*
X106445586Y24376822D01*
X106378442Y24367983D01*
X106378441Y24367982D01*
X106378435Y24367982D01*
X106137793Y24303502D01*
X105907627Y24208164D01*
X105691873Y24083599D01*
X105494224Y23931938D01*
X105318062Y23755776D01*
X105166401Y23558127D01*
X105041836Y23342373D01*
X104946498Y23112207D01*
X104897809Y22930497D01*
X104882016Y22871557D01*
X104849500Y22624570D01*
X104849500Y22375429D01*
X104882016Y22128442D01*
X104946499Y21887789D01*
X105041838Y21657622D01*
X105166400Y21441874D01*
X105318710Y21243380D01*
X105348225Y21172123D01*
X105349500Y21152675D01*
X105349500Y13972585D01*
X105329538Y13898085D01*
X105305859Y13867226D01*
X104813219Y13374587D01*
X104764879Y13342288D01*
X104745821Y13334394D01*
X104745818Y13334392D01*
X104745816Y13334391D01*
X104701525Y13304796D01*
X104614711Y13246789D01*
X104503211Y13135289D01*
X104415606Y13004179D01*
X104415604Y13004176D01*
X104355263Y12858498D01*
X104355262Y12858494D01*
X104324500Y12703842D01*
X100315209Y12703842D01*
X102232952Y14621585D01*
X102291972Y14709916D01*
X102315084Y14744505D01*
X102367722Y14871584D01*
X102371659Y14881088D01*
X102400500Y15026083D01*
X102400500Y15173918D01*
X102400500Y27624538D01*
X104850000Y27624538D01*
X104850000Y27375461D01*
X104882507Y27128540D01*
X104946973Y26887951D01*
X105042287Y26657843D01*
X105166817Y26442152D01*
X105241399Y26344953D01*
X106110690Y27214243D01*
X106129668Y27168426D01*
X106206274Y27053776D01*
X106303776Y26956274D01*
X106418426Y26879668D01*
X106464243Y26860689D01*
X105594953Y25991400D01*
X105692152Y25916817D01*
X105907843Y25792287D01*
X106137951Y25696973D01*
X106378540Y25632507D01*
X106625461Y25600000D01*
X106874538Y25600000D01*
X107121459Y25632507D01*
X107362048Y25696973D01*
X107592156Y25792287D01*
X107807851Y25916819D01*
X107807853Y25916820D01*
X107905045Y25991399D01*
X107035755Y26860689D01*
X107081574Y26879668D01*
X107196224Y26956274D01*
X107293726Y27053776D01*
X107370332Y27168426D01*
X107389309Y27214242D01*
X108258599Y26344952D01*
X108333179Y26442146D01*
X108333180Y26442148D01*
X108457712Y26657843D01*
X108553026Y26887951D01*
X108617492Y27128540D01*
X108649999Y27375461D01*
X108650000Y27375467D01*
X108650000Y27624533D01*
X108649999Y27624538D01*
X117350000Y27624538D01*
X117350000Y27375461D01*
X117382507Y27128540D01*
X117446973Y26887951D01*
X117542287Y26657843D01*
X117666817Y26442152D01*
X117741400Y26344953D01*
X118610690Y27214243D01*
X118629668Y27168426D01*
X118706274Y27053776D01*
X118803776Y26956274D01*
X118918426Y26879668D01*
X118964243Y26860689D01*
X118094953Y25991400D01*
X118192152Y25916817D01*
X118407843Y25792287D01*
X118637951Y25696973D01*
X118878540Y25632507D01*
X119125461Y25600000D01*
X119374538Y25600000D01*
X119621459Y25632507D01*
X119862048Y25696973D01*
X120092156Y25792287D01*
X120307851Y25916819D01*
X120307853Y25916820D01*
X120405045Y25991399D01*
X119535755Y26860689D01*
X119581574Y26879668D01*
X119696224Y26956274D01*
X119793726Y27053776D01*
X119870332Y27168426D01*
X119889309Y27214242D01*
X120758599Y26344952D01*
X120833179Y26442146D01*
X120833180Y26442148D01*
X120957712Y26657843D01*
X121053026Y26887951D01*
X121117492Y27128540D01*
X121149999Y27375461D01*
X121150000Y27375467D01*
X121150000Y27624533D01*
X121149999Y27624538D01*
X121117492Y27871459D01*
X121053026Y28112048D01*
X120957712Y28342157D01*
X120833182Y28557849D01*
X120758599Y28655045D01*
X120758599Y28655046D01*
X119889309Y27785756D01*
X119870332Y27831574D01*
X119793726Y27946224D01*
X119696224Y28043726D01*
X119581574Y28120332D01*
X119535756Y28139309D01*
X120405046Y29008599D01*
X120307849Y29083182D01*
X120092157Y29207712D01*
X119862048Y29303026D01*
X119621459Y29367492D01*
X119374538Y29399999D01*
X119374533Y29400000D01*
X119125467Y29400000D01*
X119125461Y29399999D01*
X118878540Y29367492D01*
X118637951Y29303026D01*
X118407843Y29207712D01*
X118192148Y29083180D01*
X118192146Y29083179D01*
X118094952Y29008599D01*
X118964242Y28139309D01*
X118918426Y28120332D01*
X118803776Y28043726D01*
X118706274Y27946224D01*
X118629668Y27831574D01*
X118610689Y27785755D01*
X117741399Y28655045D01*
X117666820Y28557853D01*
X117666819Y28557851D01*
X117542287Y28342156D01*
X117446973Y28112048D01*
X117382507Y27871459D01*
X117350000Y27624538D01*
X108649999Y27624538D01*
X108617492Y27871459D01*
X108553026Y28112048D01*
X108457712Y28342157D01*
X108333182Y28557849D01*
X108258599Y28655045D01*
X108258599Y28655046D01*
X107389309Y27785756D01*
X107370332Y27831574D01*
X107293726Y27946224D01*
X107196224Y28043726D01*
X107081574Y28120332D01*
X107035756Y28139309D01*
X107905046Y29008599D01*
X107807849Y29083182D01*
X107592157Y29207712D01*
X107362048Y29303026D01*
X107121459Y29367492D01*
X106874538Y29399999D01*
X106874533Y29400000D01*
X106625467Y29400000D01*
X106625461Y29399999D01*
X106378540Y29367492D01*
X106137951Y29303026D01*
X105907843Y29207712D01*
X105692148Y29083180D01*
X105692146Y29083179D01*
X105594952Y29008599D01*
X106464242Y28139309D01*
X106418426Y28120332D01*
X106303776Y28043726D01*
X106206274Y27946224D01*
X106129668Y27831574D01*
X106110689Y27785755D01*
X105241399Y28655045D01*
X105166820Y28557853D01*
X105166819Y28557851D01*
X105042287Y28342156D01*
X104946973Y28112048D01*
X104882507Y27871459D01*
X104850000Y27624538D01*
X102400500Y27624538D01*
X102400500Y35576753D01*
X102420462Y35651253D01*
X102475000Y35705791D01*
X102549500Y35725753D01*
X102578568Y35722890D01*
X102696158Y35699500D01*
X102853842Y35699500D01*
X103008494Y35730262D01*
X103008498Y35730263D01*
X103154176Y35790604D01*
X103154179Y35790606D01*
X103285289Y35878211D01*
X103396789Y35989711D01*
X103484394Y36120821D01*
X103544737Y36266503D01*
X103575500Y36421158D01*
X103575500Y36578842D01*
X103544737Y36733497D01*
X103484394Y36879179D01*
X103396789Y37010289D01*
X103285289Y37121789D01*
X103154179Y37209394D01*
X103008497Y37269737D01*
X102853842Y37300500D01*
X102696158Y37300500D01*
X102541503Y37269737D01*
X102541501Y37269736D01*
X102522442Y37261842D01*
X102465423Y37250500D01*
X94595097Y37250500D01*
X94520597Y37270462D01*
X94466059Y37325000D01*
X94446097Y37399500D01*
X94448959Y37428562D01*
X94450500Y37436309D01*
X94450500Y37613691D01*
X94415894Y37787666D01*
X94348013Y37951547D01*
X94325610Y37985073D01*
X94300819Y38058105D01*
X94300500Y38067852D01*
X94300500Y40750009D01*
X127279500Y40750009D01*
X127279500Y40750004D01*
X127279500Y39249996D01*
X127290001Y39147202D01*
X127345186Y38980666D01*
X127437288Y38831343D01*
X127561343Y38707288D01*
X127710666Y38615186D01*
X127877201Y38560001D01*
X127911465Y38556500D01*
X127979991Y38549500D01*
X127979994Y38549500D01*
X127979995Y38549500D01*
X129480003Y38549500D01*
X129582797Y38560001D01*
X129633855Y38576920D01*
X129749334Y38615186D01*
X129898656Y38707288D01*
X130022712Y38831344D01*
X130062890Y38896482D01*
X130118991Y38949410D01*
X130194040Y38967197D01*
X130267928Y38945076D01*
X130295063Y38923620D01*
X130325053Y38893630D01*
X130325066Y38893618D01*
X130509773Y38759420D01*
X130699105Y38662951D01*
X130713201Y38655769D01*
X130930340Y38585216D01*
X131155843Y38549500D01*
X131155847Y38549500D01*
X131384153Y38549500D01*
X131384157Y38549500D01*
X131609660Y38585216D01*
X131826799Y38655769D01*
X132030228Y38759421D01*
X132183251Y38870599D01*
X132214933Y38893618D01*
X132214937Y38893621D01*
X132376379Y39055063D01*
X132510579Y39239772D01*
X132614231Y39443201D01*
X132684784Y39660340D01*
X132720500Y39885843D01*
X132720500Y40114157D01*
X132684784Y40339660D01*
X132614231Y40556799D01*
X132510579Y40760228D01*
X132376379Y40944937D01*
X132214937Y41106379D01*
X132030228Y41240579D01*
X131826799Y41344231D01*
X131609660Y41414784D01*
X131384157Y41450500D01*
X131155843Y41450500D01*
X130930340Y41414784D01*
X130713201Y41344231D01*
X130509772Y41240579D01*
X130325063Y41106379D01*
X130295062Y41076378D01*
X130228270Y41037816D01*
X130151142Y41037816D01*
X130084347Y41076380D01*
X130062889Y41103518D01*
X130022712Y41168656D01*
X129898656Y41292712D01*
X129749334Y41384814D01*
X129582797Y41439999D01*
X129480009Y41450500D01*
X127979992Y41450499D01*
X127877203Y41439999D01*
X127710666Y41384814D01*
X127561344Y41292712D01*
X127437288Y41168656D01*
X127345186Y41019334D01*
X127290001Y40852797D01*
X127279500Y40750009D01*
X94300500Y40750009D01*
X94300500Y42432145D01*
X94320462Y42506645D01*
X94325611Y42514924D01*
X94348009Y42548445D01*
X94348013Y42548453D01*
X94415893Y42712332D01*
X94415894Y42712334D01*
X94450500Y42886309D01*
X94450500Y43063691D01*
X94415894Y43237666D01*
X94348013Y43401547D01*
X94249464Y43549035D01*
X94124035Y43674464D01*
X93976547Y43773013D01*
X93812666Y43840894D01*
X93638691Y43875500D01*
X93461309Y43875500D01*
X93287334Y43840894D01*
X93287332Y43840893D01*
X93123453Y43773013D01*
X93123451Y43773012D01*
X92975968Y43674466D01*
X92975963Y43674462D01*
X92850537Y43549036D01*
X92850533Y43549031D01*
X92751987Y43401548D01*
X92751986Y43401546D01*
X92684106Y43237667D01*
X92684105Y43237663D01*
X92649500Y43063691D01*
X92649500Y42886308D01*
X92684105Y42712336D01*
X92684106Y42712332D01*
X92751986Y42548453D01*
X92751990Y42548445D01*
X92774389Y42514924D01*
X92799181Y42441889D01*
X92799500Y42432145D01*
X92799500Y38067852D01*
X92784165Y38002015D01*
X92779834Y37993222D01*
X92751987Y37951547D01*
X92713286Y37858114D01*
X92711145Y37853767D01*
X92688813Y37828277D01*
X92668186Y37801395D01*
X92663595Y37799493D01*
X92660319Y37795754D01*
X92628230Y37784844D01*
X92596929Y37771879D01*
X92592001Y37772527D01*
X92587296Y37770928D01*
X92554059Y37777522D01*
X92520461Y37781946D01*
X92515685Y37785136D01*
X92511643Y37785939D01*
X92502511Y37793939D01*
X92472124Y37814242D01*
X92374585Y37911781D01*
X92342287Y37960123D01*
X92334397Y37979172D01*
X92334394Y37979178D01*
X92334394Y37979179D01*
X92246789Y38110289D01*
X92135289Y38221789D01*
X92004179Y38309394D01*
X91858497Y38369737D01*
X91703842Y38400500D01*
X91546158Y38400500D01*
X91391503Y38369737D01*
X91245821Y38309394D01*
X91114711Y38221789D01*
X91003211Y38110289D01*
X90968343Y38058105D01*
X90915604Y37979176D01*
X90855263Y37833498D01*
X90855262Y37833494D01*
X90824500Y37678842D01*
X90824500Y37521157D01*
X90855262Y37366505D01*
X90855263Y37366501D01*
X90915604Y37220823D01*
X90955887Y37160536D01*
X90989988Y37109500D01*
X91003214Y37089707D01*
X91114707Y36978214D01*
X91114712Y36978210D01*
X91186051Y36930543D01*
X91245821Y36890606D01*
X91245824Y36890604D01*
X91245829Y36890602D01*
X91264886Y36882708D01*
X91313218Y36850412D01*
X92246581Y35917050D01*
X92246589Y35917043D01*
X92304708Y35878210D01*
X92304709Y35878211D01*
X92369502Y35834917D01*
X92369510Y35834913D01*
X92506089Y35778341D01*
X92506087Y35778341D01*
X92651078Y35749500D01*
X92651082Y35749500D01*
X92651083Y35749500D01*
X92798917Y35749500D01*
X98451814Y35749500D01*
X98526314Y35729538D01*
X98580852Y35675000D01*
X98595573Y35639671D01*
X98599500Y35625258D01*
X98599500Y35621158D01*
X98630263Y35466503D01*
X98666775Y35378353D01*
X98669259Y35369238D01*
X98669314Y35356137D01*
X98674500Y35330067D01*
X98674500Y29103982D01*
X98654538Y29029482D01*
X98600000Y28974944D01*
X98525500Y28954982D01*
X98451000Y28974944D01*
X98434794Y28985773D01*
X98307853Y29083179D01*
X98307851Y29083180D01*
X98092156Y29207712D01*
X97862048Y29303026D01*
X97621459Y29367492D01*
X97374538Y29399999D01*
X97374533Y29400000D01*
X97125467Y29400000D01*
X97125461Y29399999D01*
X96878540Y29367492D01*
X96637951Y29303026D01*
X96407843Y29207712D01*
X96192148Y29083180D01*
X96192146Y29083179D01*
X96094952Y29008599D01*
X96964243Y28139309D01*
X96918426Y28120332D01*
X96803776Y28043726D01*
X96706274Y27946224D01*
X96629668Y27831574D01*
X96610689Y27785755D01*
X95741399Y28655045D01*
X95666820Y28557853D01*
X95666819Y28557851D01*
X95542287Y28342156D01*
X95446973Y28112048D01*
X95382507Y27871459D01*
X95350000Y27624538D01*
X95350000Y27375461D01*
X95382507Y27128540D01*
X95446973Y26887951D01*
X95542287Y26657843D01*
X95666817Y26442152D01*
X95741399Y26344953D01*
X96610690Y27214243D01*
X96629668Y27168426D01*
X96706274Y27053776D01*
X96803776Y26956274D01*
X96918426Y26879668D01*
X96964243Y26860690D01*
X96094953Y25991400D01*
X96192152Y25916817D01*
X96407843Y25792287D01*
X96637951Y25696973D01*
X96878540Y25632507D01*
X97125461Y25600000D01*
X97374538Y25600000D01*
X97621459Y25632507D01*
X97862048Y25696973D01*
X98092156Y25792287D01*
X98307847Y25916817D01*
X98434794Y26014227D01*
X98506052Y26043742D01*
X98582520Y26033675D01*
X98643710Y25986723D01*
X98673225Y25915465D01*
X98674500Y25896017D01*
X98674500Y24104613D01*
X98654538Y24030113D01*
X98600000Y23975575D01*
X98525500Y23955613D01*
X98451000Y23975575D01*
X98434799Y23986399D01*
X98308127Y24083599D01*
X98092373Y24208164D01*
X97862207Y24303502D01*
X97621565Y24367982D01*
X97374565Y24400500D01*
X97125435Y24400500D01*
X96945586Y24376822D01*
X96878442Y24367983D01*
X96878441Y24367982D01*
X96878435Y24367982D01*
X96637793Y24303502D01*
X96407627Y24208164D01*
X96191873Y24083599D01*
X95994224Y23931938D01*
X95818062Y23755776D01*
X95666401Y23558127D01*
X95666400Y23558125D01*
X95541834Y23342371D01*
X95539685Y23338011D01*
X95539398Y23338152D01*
X95539397Y23338149D01*
X95539349Y23338176D01*
X95538788Y23338452D01*
X95494931Y23281293D01*
X95423675Y23251775D01*
X95404223Y23250500D01*
X86595777Y23250500D01*
X86521277Y23270462D01*
X86466739Y23325000D01*
X86460321Y23338014D01*
X86460315Y23338011D01*
X86458165Y23342371D01*
X86409833Y23426085D01*
X86333599Y23558127D01*
X86181938Y23755776D01*
X86005776Y23931938D01*
X85808127Y24083599D01*
X85592373Y24208164D01*
X85362207Y24303502D01*
X85121565Y24367982D01*
X84874565Y24400500D01*
X84625435Y24400500D01*
X84445586Y24376822D01*
X84378442Y24367983D01*
X84378441Y24367982D01*
X84378435Y24367982D01*
X84137793Y24303502D01*
X83907627Y24208164D01*
X83691873Y24083599D01*
X83494224Y23931938D01*
X83318062Y23755776D01*
X83166401Y23558127D01*
X83041836Y23342373D01*
X82946498Y23112207D01*
X82897809Y22930497D01*
X82882016Y22871557D01*
X82849500Y22624570D01*
X82849500Y22375429D01*
X82882016Y22128442D01*
X82946499Y21887789D01*
X83041838Y21657622D01*
X83166400Y21441874D01*
X83318063Y21244222D01*
X83494222Y21068063D01*
X83691874Y20916400D01*
X83907626Y20791836D01*
X83907629Y20791834D01*
X83932524Y20781522D01*
X83993713Y20734568D01*
X84023226Y20663310D01*
X84024500Y20643866D01*
X84024500Y17280267D01*
X84004538Y17205767D01*
X83999394Y17197496D01*
X83974500Y17160239D01*
X83951988Y17126549D01*
X83951983Y17126539D01*
X83884106Y16962667D01*
X83884105Y16962663D01*
X83849500Y16788691D01*
X83849500Y16611308D01*
X83884105Y16437336D01*
X83884106Y16437332D01*
X83927935Y16331519D01*
X83938002Y16255051D01*
X83908486Y16183794D01*
X83847296Y16136842D01*
X83790277Y16125500D01*
X63627687Y16125500D01*
X63553187Y16145462D01*
X63498649Y16200000D01*
X63478687Y16274500D01*
X63498649Y16349000D01*
X63503798Y16357280D01*
X63548012Y16423450D01*
X63548013Y16423453D01*
X63615893Y16587332D01*
X63615894Y16587334D01*
X63650500Y16761309D01*
X63650500Y16938691D01*
X63615894Y17112666D01*
X63548013Y17276547D01*
X63525610Y17310073D01*
X63500819Y17383105D01*
X63500500Y17392852D01*
X63500500Y20654222D01*
X63520462Y20728722D01*
X63575000Y20783260D01*
X63588008Y20789675D01*
X63588005Y20789682D01*
X63592373Y20791836D01*
X63691242Y20848918D01*
X63808127Y20916401D01*
X64005776Y21068062D01*
X64181938Y21244224D01*
X64333599Y21441873D01*
X64418546Y21589006D01*
X64458165Y21657628D01*
X64460315Y21661989D01*
X64460601Y21661847D01*
X64460603Y21661851D01*
X64460650Y21661823D01*
X64461211Y21661547D01*
X64505069Y21718707D01*
X64576325Y21748225D01*
X64595777Y21749500D01*
X73404223Y21749500D01*
X73478723Y21729538D01*
X73533261Y21675000D01*
X73539678Y21661985D01*
X73539685Y21661989D01*
X73541834Y21657628D01*
X73666400Y21441874D01*
X73818063Y21244222D01*
X73994222Y21068063D01*
X74191874Y20916400D01*
X74407622Y20791838D01*
X74637789Y20696499D01*
X74878442Y20632016D01*
X75125429Y20599500D01*
X75125435Y20599500D01*
X75374570Y20599500D01*
X75621557Y20632016D01*
X75621563Y20632017D01*
X75621565Y20632018D01*
X75862207Y20696498D01*
X75862208Y20696498D01*
X75862210Y20696499D01*
X75957548Y20735989D01*
X76092373Y20791836D01*
X76092375Y20791837D01*
X76092377Y20791838D01*
X76271728Y20895386D01*
X76308127Y20916401D01*
X76505776Y21068062D01*
X76681938Y21244224D01*
X76833599Y21441873D01*
X76958164Y21657627D01*
X77053502Y21887793D01*
X77117982Y22128435D01*
X77121545Y22155495D01*
X77150499Y22375429D01*
X77150500Y22375435D01*
X77150500Y22624565D01*
X77150499Y22624570D01*
X77147294Y22648913D01*
X77117982Y22871565D01*
X77053502Y23112207D01*
X76958164Y23342373D01*
X76833599Y23558127D01*
X76681938Y23755776D01*
X76505776Y23931938D01*
X76308127Y24083599D01*
X76092373Y24208164D01*
X75862207Y24303502D01*
X75621565Y24367982D01*
X75374565Y24400500D01*
X75125435Y24400500D01*
X74945586Y24376822D01*
X74878442Y24367983D01*
X74878441Y24367982D01*
X74878435Y24367982D01*
X74637793Y24303502D01*
X74407627Y24208164D01*
X74191873Y24083599D01*
X73994224Y23931938D01*
X73818062Y23755776D01*
X73666401Y23558127D01*
X73666400Y23558125D01*
X73541834Y23342371D01*
X73539685Y23338011D01*
X73539398Y23338152D01*
X73539397Y23338149D01*
X73539349Y23338176D01*
X73538788Y23338452D01*
X73494931Y23281293D01*
X73423675Y23251775D01*
X73404223Y23250500D01*
X64595777Y23250500D01*
X64521277Y23270462D01*
X64466739Y23325000D01*
X64460321Y23338014D01*
X64460315Y23338011D01*
X64458165Y23342371D01*
X64409833Y23426085D01*
X64333599Y23558127D01*
X64181938Y23755776D01*
X64005776Y23931938D01*
X63808127Y24083599D01*
X63592373Y24208164D01*
X63362207Y24303502D01*
X63121565Y24367982D01*
X62874565Y24400500D01*
X62625435Y24400500D01*
X62445586Y24376822D01*
X62378442Y24367983D01*
X62378441Y24367982D01*
X62378435Y24367982D01*
X62137793Y24303502D01*
X61907627Y24208164D01*
X61691873Y24083599D01*
X61494224Y23931938D01*
X61318062Y23755776D01*
X61166401Y23558127D01*
X61041836Y23342373D01*
X60946498Y23112207D01*
X60897809Y22930497D01*
X60882016Y22871557D01*
X60849500Y22624570D01*
X60849500Y22375429D01*
X60882016Y22128442D01*
X60946499Y21887789D01*
X61041838Y21657622D01*
X61166400Y21441874D01*
X61318063Y21244222D01*
X61494222Y21068063D01*
X61691874Y20916400D01*
X61907626Y20791836D01*
X61911995Y20789682D01*
X61911554Y20788788D01*
X61968718Y20744917D01*
X61998227Y20673657D01*
X61999500Y20654222D01*
X61999500Y17392852D01*
X61979538Y17318352D01*
X61974404Y17310097D01*
X61951987Y17276547D01*
X61951986Y17276544D01*
X61951983Y17276539D01*
X61884106Y17112667D01*
X61884105Y17112663D01*
X61849500Y16938691D01*
X61849500Y16761308D01*
X61884105Y16587336D01*
X61884106Y16587332D01*
X61951986Y16423453D01*
X61951987Y16423450D01*
X61996202Y16357280D01*
X62020994Y16284245D01*
X62005947Y16208599D01*
X61955093Y16150611D01*
X61882058Y16125819D01*
X61872313Y16125500D01*
X36872585Y16125500D01*
X36798085Y16145462D01*
X36767226Y16169141D01*
X31869141Y21067226D01*
X31830577Y21134021D01*
X31825500Y21172585D01*
X31825500Y24773913D01*
X31825500Y24773918D01*
X31796658Y24918913D01*
X31740084Y25055495D01*
X31657951Y25178416D01*
X31553416Y25282951D01*
X18363662Y38472704D01*
X18345136Y38495280D01*
X18302953Y38558413D01*
X18302949Y38558418D01*
X18250867Y38610500D01*
X18198416Y38662951D01*
X18081260Y38741232D01*
X18075497Y38745083D01*
X18075495Y38745084D01*
X17938913Y38801658D01*
X17793918Y38830500D01*
X17793914Y38830500D01*
X14593566Y38830500D01*
X14519066Y38850462D01*
X14473023Y38891919D01*
X14463489Y38905041D01*
X14376379Y39024937D01*
X14214937Y39186379D01*
X14155642Y39229459D01*
X14107107Y39289396D01*
X14095041Y39365575D01*
X14122681Y39437580D01*
X14155639Y39470538D01*
X14214937Y39513621D01*
X14376379Y39675063D01*
X14400369Y39708082D01*
X14460306Y39756618D01*
X14520910Y39769500D01*
X19900500Y39769500D01*
X19975000Y39749538D01*
X20029538Y39695000D01*
X20049500Y39620500D01*
X20049500Y38741232D01*
X20082183Y38576920D01*
X20082185Y38576913D01*
X20100203Y38533416D01*
X20146297Y38422134D01*
X20146298Y38422132D01*
X20239370Y38282841D01*
X20239376Y38282834D01*
X32980859Y25541352D01*
X33019423Y25474557D01*
X33024500Y25435993D01*
X33024500Y21091232D01*
X33057182Y20926923D01*
X33057185Y20926912D01*
X33064228Y20909912D01*
X33121297Y20772134D01*
X33121298Y20772132D01*
X33214370Y20632841D01*
X33214376Y20632834D01*
X34340636Y19506573D01*
X34372933Y19458240D01*
X34376986Y19448455D01*
X34376990Y19448446D01*
X34475533Y19300968D01*
X34475537Y19300963D01*
X34600963Y19175537D01*
X34600968Y19175533D01*
X34748451Y19076987D01*
X34748453Y19076986D01*
X34912332Y19009106D01*
X34912336Y19009105D01*
X35086309Y18974500D01*
X35263691Y18974500D01*
X35437663Y19009105D01*
X35437667Y19009106D01*
X35601546Y19076986D01*
X35601548Y19076987D01*
X35749031Y19175533D01*
X35749036Y19175537D01*
X35874462Y19300963D01*
X35874466Y19300968D01*
X35973012Y19448451D01*
X35973013Y19448453D01*
X35988407Y19485618D01*
X36040894Y19612334D01*
X36075500Y19786309D01*
X36075500Y19963691D01*
X36040894Y20137666D01*
X35973013Y20301547D01*
X35874464Y20449035D01*
X35749035Y20574464D01*
X35601548Y20673012D01*
X35601549Y20673012D01*
X35599992Y20673657D01*
X35591766Y20677064D01*
X35543425Y20709362D01*
X34769139Y21483649D01*
X34730577Y21550442D01*
X34725500Y21589006D01*
X34725500Y22624570D01*
X38849500Y22624570D01*
X38849500Y22375429D01*
X38882016Y22128442D01*
X38946499Y21887789D01*
X39041838Y21657622D01*
X39166400Y21441874D01*
X39318063Y21244222D01*
X39494222Y21068063D01*
X39691874Y20916400D01*
X39907622Y20791838D01*
X40137789Y20696499D01*
X40378442Y20632016D01*
X40625429Y20599500D01*
X40625435Y20599500D01*
X40874570Y20599500D01*
X41121557Y20632016D01*
X41121563Y20632017D01*
X41121565Y20632018D01*
X41362207Y20696498D01*
X41362208Y20696498D01*
X41362210Y20696499D01*
X41457548Y20735989D01*
X41592373Y20791836D01*
X41592375Y20791837D01*
X41592377Y20791838D01*
X41771728Y20895386D01*
X41808127Y20916401D01*
X42005776Y21068062D01*
X42181938Y21244224D01*
X42333599Y21441873D01*
X42418546Y21589006D01*
X42458165Y21657628D01*
X42460315Y21661989D01*
X42460601Y21661847D01*
X42460603Y21661851D01*
X42460650Y21661823D01*
X42461211Y21661547D01*
X42505069Y21718707D01*
X42576325Y21748225D01*
X42595777Y21749500D01*
X51404223Y21749500D01*
X51478723Y21729538D01*
X51533261Y21675000D01*
X51539678Y21661985D01*
X51539685Y21661989D01*
X51541834Y21657628D01*
X51666400Y21441874D01*
X51818063Y21244222D01*
X51994222Y21068063D01*
X52191874Y20916400D01*
X52407622Y20791838D01*
X52637789Y20696499D01*
X52878442Y20632016D01*
X53125429Y20599500D01*
X53125435Y20599500D01*
X53374570Y20599500D01*
X53621557Y20632016D01*
X53621563Y20632017D01*
X53621565Y20632018D01*
X53862207Y20696498D01*
X53862208Y20696498D01*
X53862210Y20696499D01*
X53957548Y20735989D01*
X54092373Y20791836D01*
X54092375Y20791837D01*
X54092377Y20791838D01*
X54271728Y20895386D01*
X54308127Y20916401D01*
X54505776Y21068062D01*
X54681938Y21244224D01*
X54833599Y21441873D01*
X54958164Y21657627D01*
X55053502Y21887793D01*
X55117982Y22128435D01*
X55121545Y22155495D01*
X55150499Y22375429D01*
X55150500Y22375435D01*
X55150500Y22624565D01*
X55150499Y22624570D01*
X55147294Y22648913D01*
X55117982Y22871565D01*
X55053502Y23112207D01*
X54958164Y23342373D01*
X54833599Y23558127D01*
X54681938Y23755776D01*
X54505776Y23931938D01*
X54308127Y24083599D01*
X54092373Y24208164D01*
X53862207Y24303502D01*
X53621565Y24367982D01*
X53374565Y24400500D01*
X53125435Y24400500D01*
X52945586Y24376822D01*
X52878442Y24367983D01*
X52878441Y24367982D01*
X52878435Y24367982D01*
X52637793Y24303502D01*
X52407627Y24208164D01*
X52191873Y24083599D01*
X51994224Y23931938D01*
X51818062Y23755776D01*
X51666401Y23558127D01*
X51666400Y23558125D01*
X51541834Y23342371D01*
X51539685Y23338011D01*
X51539398Y23338152D01*
X51539397Y23338149D01*
X51539349Y23338176D01*
X51538788Y23338452D01*
X51494931Y23281293D01*
X51423675Y23251775D01*
X51404223Y23250500D01*
X42595777Y23250500D01*
X42521277Y23270462D01*
X42466739Y23325000D01*
X42460321Y23338014D01*
X42460315Y23338011D01*
X42458165Y23342371D01*
X42409833Y23426085D01*
X42333599Y23558127D01*
X42181938Y23755776D01*
X42005776Y23931938D01*
X41808127Y24083599D01*
X41592373Y24208164D01*
X41362207Y24303502D01*
X41121565Y24367982D01*
X40874565Y24400500D01*
X40625435Y24400500D01*
X40445586Y24376822D01*
X40378442Y24367983D01*
X40378441Y24367982D01*
X40378435Y24367982D01*
X40137793Y24303502D01*
X39907627Y24208164D01*
X39691873Y24083599D01*
X39494224Y23931938D01*
X39318062Y23755776D01*
X39166401Y23558127D01*
X39041836Y23342373D01*
X38946498Y23112207D01*
X38897809Y22930497D01*
X38882016Y22871557D01*
X38849500Y22624570D01*
X34725500Y22624570D01*
X34725500Y27624538D01*
X38850000Y27624538D01*
X38850000Y27375461D01*
X38882507Y27128540D01*
X38946973Y26887951D01*
X39042287Y26657843D01*
X39166817Y26442152D01*
X39241399Y26344953D01*
X40110690Y27214243D01*
X40129668Y27168426D01*
X40206274Y27053776D01*
X40303776Y26956274D01*
X40418426Y26879668D01*
X40464243Y26860689D01*
X39594953Y25991400D01*
X39692152Y25916817D01*
X39907843Y25792287D01*
X40137951Y25696973D01*
X40378540Y25632507D01*
X40625461Y25600000D01*
X40874538Y25600000D01*
X41121459Y25632507D01*
X41362048Y25696973D01*
X41592156Y25792287D01*
X41807851Y25916819D01*
X41807853Y25916820D01*
X41905046Y25991399D01*
X41035756Y26860689D01*
X41081574Y26879668D01*
X41196224Y26956274D01*
X41293726Y27053776D01*
X41370332Y27168426D01*
X41389309Y27214242D01*
X42258599Y26344952D01*
X42333179Y26442146D01*
X42333180Y26442148D01*
X42457712Y26657843D01*
X42553026Y26887951D01*
X42617492Y27128540D01*
X42649999Y27375461D01*
X42650000Y27375467D01*
X42650000Y27624533D01*
X42649999Y27624538D01*
X51350000Y27624538D01*
X51350000Y27375461D01*
X51382507Y27128540D01*
X51446973Y26887951D01*
X51542287Y26657843D01*
X51666817Y26442152D01*
X51741400Y26344953D01*
X52610690Y27214243D01*
X52629668Y27168426D01*
X52706274Y27053776D01*
X52803776Y26956274D01*
X52918426Y26879668D01*
X52964243Y26860689D01*
X52094953Y25991400D01*
X52192152Y25916817D01*
X52407843Y25792287D01*
X52637951Y25696973D01*
X52878540Y25632507D01*
X53125461Y25600000D01*
X53374538Y25600000D01*
X53621459Y25632507D01*
X53862048Y25696973D01*
X54092156Y25792287D01*
X54307851Y25916819D01*
X54307853Y25916820D01*
X54405046Y25991399D01*
X53535756Y26860689D01*
X53581574Y26879668D01*
X53696224Y26956274D01*
X53793726Y27053776D01*
X53870332Y27168426D01*
X53889309Y27214242D01*
X54758599Y26344952D01*
X54833179Y26442146D01*
X54833180Y26442148D01*
X54957712Y26657843D01*
X55053026Y26887951D01*
X55117492Y27128540D01*
X55149999Y27375461D01*
X55150000Y27375467D01*
X55150000Y27624533D01*
X55149999Y27624538D01*
X60850000Y27624538D01*
X60850000Y27375461D01*
X60882507Y27128540D01*
X60946973Y26887951D01*
X61042287Y26657843D01*
X61166817Y26442152D01*
X61241400Y26344953D01*
X62110690Y27214243D01*
X62129668Y27168426D01*
X62206274Y27053776D01*
X62303776Y26956274D01*
X62418426Y26879668D01*
X62464243Y26860689D01*
X61594953Y25991400D01*
X61692152Y25916817D01*
X61907843Y25792287D01*
X62137951Y25696973D01*
X62378540Y25632507D01*
X62625461Y25600000D01*
X62874538Y25600000D01*
X63121459Y25632507D01*
X63362048Y25696973D01*
X63592156Y25792287D01*
X63807851Y25916819D01*
X63807853Y25916820D01*
X63905046Y25991399D01*
X63035756Y26860689D01*
X63081574Y26879668D01*
X63196224Y26956274D01*
X63293726Y27053776D01*
X63370332Y27168426D01*
X63389309Y27214242D01*
X64258599Y26344952D01*
X64333179Y26442146D01*
X64333180Y26442148D01*
X64457712Y26657843D01*
X64553026Y26887951D01*
X64617492Y27128540D01*
X64649999Y27375461D01*
X64650000Y27375467D01*
X64650000Y27624533D01*
X64649999Y27624538D01*
X73350000Y27624538D01*
X73350000Y27375461D01*
X73382507Y27128540D01*
X73446973Y26887951D01*
X73542287Y26657843D01*
X73666817Y26442152D01*
X73741399Y26344953D01*
X74610690Y27214243D01*
X74629668Y27168426D01*
X74706274Y27053776D01*
X74803776Y26956274D01*
X74918426Y26879668D01*
X74964243Y26860689D01*
X74094953Y25991400D01*
X74192152Y25916817D01*
X74407843Y25792287D01*
X74637951Y25696973D01*
X74878540Y25632507D01*
X75125461Y25600000D01*
X75374538Y25600000D01*
X75621459Y25632507D01*
X75862048Y25696973D01*
X76092156Y25792287D01*
X76307851Y25916819D01*
X76307853Y25916820D01*
X76405046Y25991399D01*
X75535756Y26860689D01*
X75581574Y26879668D01*
X75696224Y26956274D01*
X75793726Y27053776D01*
X75870332Y27168426D01*
X75889309Y27214242D01*
X76758599Y26344952D01*
X76833179Y26442146D01*
X76833180Y26442148D01*
X76957712Y26657843D01*
X77053026Y26887951D01*
X77117492Y27128540D01*
X77149999Y27375461D01*
X77150000Y27375467D01*
X77150000Y27624533D01*
X77149999Y27624538D01*
X82850000Y27624538D01*
X82850000Y27375461D01*
X82882507Y27128540D01*
X82946973Y26887951D01*
X83042287Y26657843D01*
X83166817Y26442152D01*
X83241400Y26344953D01*
X84110690Y27214243D01*
X84129668Y27168426D01*
X84206274Y27053776D01*
X84303776Y26956274D01*
X84418426Y26879668D01*
X84464243Y26860689D01*
X83594953Y25991400D01*
X83692152Y25916817D01*
X83907843Y25792287D01*
X84137951Y25696973D01*
X84378540Y25632507D01*
X84625461Y25600000D01*
X84874538Y25600000D01*
X85121459Y25632507D01*
X85362048Y25696973D01*
X85592156Y25792287D01*
X85807851Y25916819D01*
X85807853Y25916820D01*
X85905046Y25991399D01*
X85035756Y26860689D01*
X85081574Y26879668D01*
X85196224Y26956274D01*
X85293726Y27053776D01*
X85370332Y27168426D01*
X85389309Y27214242D01*
X86258599Y26344952D01*
X86333179Y26442146D01*
X86333180Y26442148D01*
X86457712Y26657843D01*
X86553026Y26887951D01*
X86617492Y27128540D01*
X86649999Y27375461D01*
X86650000Y27375467D01*
X86650000Y27624533D01*
X86649999Y27624538D01*
X86617492Y27871459D01*
X86553026Y28112048D01*
X86457712Y28342157D01*
X86333182Y28557849D01*
X86258599Y28655045D01*
X86258599Y28655046D01*
X85389309Y27785756D01*
X85370332Y27831574D01*
X85293726Y27946224D01*
X85196224Y28043726D01*
X85081574Y28120332D01*
X85035756Y28139309D01*
X85905046Y29008599D01*
X85807849Y29083182D01*
X85592157Y29207712D01*
X85362048Y29303026D01*
X85121459Y29367492D01*
X84874538Y29399999D01*
X84874533Y29400000D01*
X84625467Y29400000D01*
X84625461Y29399999D01*
X84378540Y29367492D01*
X84137951Y29303026D01*
X83907843Y29207712D01*
X83692148Y29083180D01*
X83692146Y29083179D01*
X83594952Y29008599D01*
X84464242Y28139309D01*
X84418426Y28120332D01*
X84303776Y28043726D01*
X84206274Y27946224D01*
X84129668Y27831574D01*
X84110689Y27785755D01*
X83241399Y28655045D01*
X83166820Y28557853D01*
X83166819Y28557851D01*
X83042287Y28342156D01*
X82946973Y28112048D01*
X82882507Y27871459D01*
X82850000Y27624538D01*
X77149999Y27624538D01*
X77117492Y27871459D01*
X77053026Y28112048D01*
X76957712Y28342157D01*
X76833182Y28557849D01*
X76758599Y28655045D01*
X76758599Y28655046D01*
X75889309Y27785756D01*
X75870332Y27831574D01*
X75793726Y27946224D01*
X75696224Y28043726D01*
X75581574Y28120332D01*
X75535756Y28139309D01*
X76405046Y29008599D01*
X76307849Y29083182D01*
X76092157Y29207712D01*
X75862048Y29303026D01*
X75621459Y29367492D01*
X75374538Y29399999D01*
X75374533Y29400000D01*
X75125467Y29400000D01*
X75125461Y29399999D01*
X74878540Y29367492D01*
X74637951Y29303026D01*
X74407843Y29207712D01*
X74192148Y29083180D01*
X74192146Y29083179D01*
X74094952Y29008599D01*
X74964242Y28139309D01*
X74918426Y28120332D01*
X74803776Y28043726D01*
X74706274Y27946224D01*
X74629668Y27831574D01*
X74610689Y27785755D01*
X73741399Y28655045D01*
X73666820Y28557853D01*
X73666819Y28557851D01*
X73542287Y28342156D01*
X73446973Y28112048D01*
X73382507Y27871459D01*
X73350000Y27624538D01*
X64649999Y27624538D01*
X64617492Y27871459D01*
X64553026Y28112048D01*
X64457712Y28342157D01*
X64333182Y28557849D01*
X64258599Y28655045D01*
X64258599Y28655046D01*
X63389309Y27785756D01*
X63370332Y27831574D01*
X63293726Y27946224D01*
X63196224Y28043726D01*
X63081574Y28120332D01*
X63035756Y28139309D01*
X63905046Y29008599D01*
X63807849Y29083182D01*
X63592157Y29207712D01*
X63362048Y29303026D01*
X63121459Y29367492D01*
X62874538Y29399999D01*
X62874533Y29400000D01*
X62625467Y29400000D01*
X62625461Y29399999D01*
X62378540Y29367492D01*
X62137951Y29303026D01*
X61907843Y29207712D01*
X61692148Y29083180D01*
X61692146Y29083179D01*
X61594952Y29008599D01*
X62464242Y28139309D01*
X62418426Y28120332D01*
X62303776Y28043726D01*
X62206274Y27946224D01*
X62129668Y27831574D01*
X62110689Y27785755D01*
X61241399Y28655045D01*
X61166820Y28557853D01*
X61166819Y28557851D01*
X61042287Y28342156D01*
X60946973Y28112048D01*
X60882507Y27871459D01*
X60850000Y27624538D01*
X55149999Y27624538D01*
X55117492Y27871459D01*
X55053026Y28112048D01*
X54957712Y28342157D01*
X54833182Y28557849D01*
X54758599Y28655045D01*
X54758599Y28655046D01*
X53889309Y27785756D01*
X53870332Y27831574D01*
X53793726Y27946224D01*
X53696224Y28043726D01*
X53581574Y28120332D01*
X53535756Y28139309D01*
X54405046Y29008599D01*
X54307849Y29083182D01*
X54092157Y29207712D01*
X53862048Y29303026D01*
X53621459Y29367492D01*
X53374538Y29399999D01*
X53374533Y29400000D01*
X53125467Y29400000D01*
X53125461Y29399999D01*
X52878540Y29367492D01*
X52637951Y29303026D01*
X52407843Y29207712D01*
X52192148Y29083180D01*
X52192146Y29083179D01*
X52094952Y29008599D01*
X52964242Y28139309D01*
X52918426Y28120332D01*
X52803776Y28043726D01*
X52706274Y27946224D01*
X52629668Y27831574D01*
X52610689Y27785755D01*
X51741399Y28655045D01*
X51666820Y28557853D01*
X51666819Y28557851D01*
X51542287Y28342156D01*
X51446973Y28112048D01*
X51382507Y27871459D01*
X51350000Y27624538D01*
X42649999Y27624538D01*
X42617492Y27871459D01*
X42553026Y28112048D01*
X42457712Y28342157D01*
X42333182Y28557849D01*
X42258599Y28655045D01*
X42258599Y28655046D01*
X41389309Y27785756D01*
X41370332Y27831574D01*
X41293726Y27946224D01*
X41196224Y28043726D01*
X41081574Y28120332D01*
X41035756Y28139309D01*
X41905046Y29008599D01*
X41807849Y29083182D01*
X41592157Y29207712D01*
X41362048Y29303026D01*
X41121459Y29367492D01*
X40874538Y29399999D01*
X40874533Y29400000D01*
X40625467Y29400000D01*
X40625461Y29399999D01*
X40378540Y29367492D01*
X40137951Y29303026D01*
X39907843Y29207712D01*
X39692148Y29083180D01*
X39692146Y29083179D01*
X39594952Y29008599D01*
X40464242Y28139309D01*
X40418426Y28120332D01*
X40303776Y28043726D01*
X40206274Y27946224D01*
X40129668Y27831574D01*
X40110689Y27785755D01*
X39241399Y28655045D01*
X39166820Y28557853D01*
X39166819Y28557851D01*
X39042287Y28342156D01*
X38946973Y28112048D01*
X38882507Y27871459D01*
X38850000Y27624538D01*
X34725500Y27624538D01*
X34725500Y33725500D01*
X34745462Y33800000D01*
X34800000Y33854538D01*
X34874500Y33874500D01*
X42158767Y33874500D01*
X42323080Y33907183D01*
X42323082Y33907184D01*
X42368416Y33925962D01*
X42477862Y33971295D01*
X42477867Y33971298D01*
X42617158Y34064370D01*
X42617165Y34064376D01*
X46501480Y37948691D01*
X61484500Y37948691D01*
X61484500Y37771308D01*
X61519105Y37597336D01*
X61519106Y37597332D01*
X61586986Y37433453D01*
X61586987Y37433451D01*
X61685533Y37285968D01*
X61685537Y37285963D01*
X61810963Y37160537D01*
X61810968Y37160533D01*
X61958451Y37061987D01*
X61958453Y37061986D01*
X62122332Y36994106D01*
X62122336Y36994105D01*
X62296309Y36959500D01*
X62473691Y36959500D01*
X62647663Y36994105D01*
X62647667Y36994106D01*
X62811546Y37061986D01*
X62811551Y37061989D01*
X62845073Y37084388D01*
X62918108Y37109181D01*
X62927854Y37109500D01*
X63458921Y37109500D01*
X63603911Y37138341D01*
X63740489Y37194913D01*
X63740504Y37194921D01*
X63823678Y37250496D01*
X63823679Y37250497D01*
X63823683Y37250500D01*
X63863416Y37277048D01*
X65932952Y39346585D01*
X65997508Y39443201D01*
X66015084Y39469505D01*
X66040349Y39530500D01*
X66071659Y39606088D01*
X66100500Y39751083D01*
X66100500Y39898918D01*
X66100500Y52530009D01*
X72299500Y52530009D01*
X72299500Y52530008D01*
X72299500Y52530004D01*
X72299500Y51229996D01*
X72310001Y51127202D01*
X72365186Y50960666D01*
X72457288Y50811343D01*
X72581343Y50687288D01*
X72730666Y50595186D01*
X72897201Y50540001D01*
X72931465Y50536500D01*
X72999991Y50529500D01*
X72999994Y50529500D01*
X72999995Y50529500D01*
X74300003Y50529500D01*
X74402797Y50540001D01*
X74569334Y50595186D01*
X74718656Y50687288D01*
X74842712Y50811344D01*
X74934814Y50960666D01*
X74934814Y50960668D01*
X74936839Y50963950D01*
X74992940Y51016879D01*
X75067989Y51034666D01*
X75141877Y51012546D01*
X75169015Y50991088D01*
X75310205Y50849898D01*
X75310209Y50849895D01*
X75482182Y50724950D01*
X75482184Y50724949D01*
X75671588Y50628443D01*
X75671593Y50628441D01*
X75671594Y50628441D01*
X75873756Y50562754D01*
X75908749Y50557211D01*
X76083713Y50529500D01*
X76083718Y50529500D01*
X76296282Y50529500D01*
X76296287Y50529500D01*
X76506243Y50562754D01*
X76708412Y50628443D01*
X76897816Y50724949D01*
X76897817Y50724950D01*
X76897818Y50724950D01*
X77016729Y50811344D01*
X77069792Y50849896D01*
X77220104Y51000208D01*
X77312371Y51127203D01*
X77339456Y51164482D01*
X77399396Y51213020D01*
X77475575Y51225086D01*
X77547580Y51197446D01*
X77580544Y51164482D01*
X77699895Y51000209D01*
X77699897Y51000206D01*
X77850206Y50849897D01*
X77850209Y50849895D01*
X78022182Y50724950D01*
X78022184Y50724949D01*
X78211588Y50628443D01*
X78211593Y50628441D01*
X78211594Y50628441D01*
X78413756Y50562754D01*
X78448749Y50557211D01*
X78623713Y50529500D01*
X78623718Y50529500D01*
X78836282Y50529500D01*
X78836287Y50529500D01*
X79046243Y50562754D01*
X79248412Y50628443D01*
X79437816Y50724949D01*
X79437817Y50724950D01*
X79437818Y50724950D01*
X79556729Y50811344D01*
X79609792Y50849896D01*
X79760104Y51000208D01*
X79852371Y51127203D01*
X79879456Y51164482D01*
X79939396Y51213020D01*
X80015575Y51225086D01*
X80087580Y51197446D01*
X80120544Y51164482D01*
X80239895Y51000209D01*
X80239897Y51000206D01*
X80390206Y50849897D01*
X80390209Y50849895D01*
X80562182Y50724950D01*
X80562184Y50724949D01*
X80751588Y50628443D01*
X80751593Y50628441D01*
X80751594Y50628441D01*
X80953756Y50562754D01*
X80988749Y50557211D01*
X81163713Y50529500D01*
X81163718Y50529500D01*
X81376282Y50529500D01*
X81376287Y50529500D01*
X81586243Y50562754D01*
X81788412Y50628443D01*
X81977816Y50724949D01*
X81977817Y50724950D01*
X81977818Y50724950D01*
X82096729Y50811344D01*
X82149792Y50849896D01*
X82300104Y51000208D01*
X82392371Y51127203D01*
X82419456Y51164482D01*
X82479396Y51213020D01*
X82555575Y51225086D01*
X82627580Y51197446D01*
X82660544Y51164482D01*
X82779895Y51000209D01*
X82779897Y51000206D01*
X82930206Y50849897D01*
X82930209Y50849895D01*
X83102182Y50724950D01*
X83102184Y50724949D01*
X83291588Y50628443D01*
X83291593Y50628441D01*
X83291594Y50628441D01*
X83493756Y50562754D01*
X83528749Y50557211D01*
X83703713Y50529500D01*
X83703718Y50529500D01*
X83916282Y50529500D01*
X83916287Y50529500D01*
X84126243Y50562754D01*
X84328412Y50628443D01*
X84517816Y50724949D01*
X84517817Y50724950D01*
X84517818Y50724950D01*
X84636729Y50811344D01*
X84689792Y50849896D01*
X84840104Y51000208D01*
X84932371Y51127203D01*
X84959456Y51164482D01*
X85019396Y51213020D01*
X85095575Y51225086D01*
X85167580Y51197446D01*
X85200544Y51164482D01*
X85319895Y51000209D01*
X85319897Y51000206D01*
X85470206Y50849897D01*
X85470209Y50849895D01*
X85642182Y50724950D01*
X85642184Y50724949D01*
X85831588Y50628443D01*
X85831593Y50628441D01*
X85831594Y50628441D01*
X86033756Y50562754D01*
X86068749Y50557211D01*
X86243713Y50529500D01*
X86243718Y50529500D01*
X86456282Y50529500D01*
X86456287Y50529500D01*
X86666243Y50562754D01*
X86868412Y50628443D01*
X87057816Y50724949D01*
X87057817Y50724950D01*
X87057818Y50724950D01*
X87176729Y50811344D01*
X87229792Y50849896D01*
X87380104Y51000208D01*
X87505051Y51172184D01*
X87601557Y51361588D01*
X87667246Y51563757D01*
X87700500Y51773713D01*
X87700500Y51986287D01*
X87667246Y52196243D01*
X87601557Y52398412D01*
X87505051Y52587816D01*
X87380104Y52759792D01*
X87229792Y52910104D01*
X87057816Y53035051D01*
X86868412Y53131557D01*
X86666243Y53197246D01*
X86456287Y53230500D01*
X86243713Y53230500D01*
X86033757Y53197246D01*
X85831588Y53131557D01*
X85642184Y53035051D01*
X85470208Y52910104D01*
X85470206Y52910102D01*
X85319897Y52759793D01*
X85319895Y52759790D01*
X85200544Y52595517D01*
X85140604Y52546979D01*
X85064426Y52534913D01*
X84992420Y52562553D01*
X84959456Y52595517D01*
X84954368Y52602519D01*
X84840104Y52759792D01*
X84689792Y52910104D01*
X84517816Y53035051D01*
X84328412Y53131557D01*
X84126243Y53197246D01*
X83916287Y53230500D01*
X83703713Y53230500D01*
X83493757Y53197246D01*
X83291588Y53131557D01*
X83102184Y53035051D01*
X82930208Y52910104D01*
X82930206Y52910102D01*
X82779897Y52759793D01*
X82779895Y52759790D01*
X82660544Y52595517D01*
X82600604Y52546979D01*
X82524426Y52534913D01*
X82452420Y52562553D01*
X82419456Y52595517D01*
X82414368Y52602519D01*
X82300104Y52759792D01*
X82149792Y52910104D01*
X82081920Y52959415D01*
X82062399Y52983520D01*
X82040462Y53005458D01*
X82038398Y53013158D01*
X82033383Y53019352D01*
X82020500Y53079958D01*
X82020500Y53097414D01*
X82040462Y53171914D01*
X82064141Y53202773D01*
X82692226Y53830859D01*
X82759021Y53869423D01*
X82797585Y53874500D01*
X94982146Y53874500D01*
X95056646Y53854538D01*
X95064927Y53849388D01*
X95098448Y53826989D01*
X95098453Y53826986D01*
X95262332Y53759106D01*
X95262336Y53759105D01*
X95436309Y53724500D01*
X95613691Y53724500D01*
X95787663Y53759105D01*
X95787667Y53759106D01*
X95951546Y53826986D01*
X95951548Y53826987D01*
X96099031Y53925533D01*
X96099036Y53925537D01*
X96224462Y54050963D01*
X96224466Y54050968D01*
X96323012Y54198451D01*
X96323013Y54198453D01*
X96390893Y54362332D01*
X96390894Y54362334D01*
X96425500Y54536309D01*
X96425500Y54713691D01*
X96390894Y54887666D01*
X96323013Y55051547D01*
X96224464Y55199035D01*
X96099035Y55324464D01*
X95951547Y55423013D01*
X95787666Y55490894D01*
X95613691Y55525500D01*
X95436309Y55525500D01*
X95262334Y55490894D01*
X95262332Y55490893D01*
X95098453Y55423013D01*
X95098448Y55423010D01*
X95064927Y55400612D01*
X94991892Y55375819D01*
X94982146Y55375500D01*
X82351082Y55375500D01*
X82322241Y55369763D01*
X82206088Y55346659D01*
X82126080Y55313518D01*
X82069505Y55290084D01*
X82069501Y55290081D01*
X82069500Y55290081D01*
X81987374Y55235206D01*
X81987373Y55235205D01*
X81946585Y55207952D01*
X80687048Y53948416D01*
X80637813Y53874729D01*
X80624322Y53854538D01*
X80604915Y53825494D01*
X80548341Y53688911D01*
X80519500Y53543921D01*
X80519500Y53079958D01*
X80499538Y53005458D01*
X80458080Y52959415D01*
X80396998Y52915037D01*
X80390212Y52910107D01*
X80390206Y52910102D01*
X80239897Y52759793D01*
X80239895Y52759790D01*
X80120544Y52595517D01*
X80060604Y52546979D01*
X79984426Y52534913D01*
X79912420Y52562553D01*
X79879456Y52595517D01*
X79874368Y52602519D01*
X79760104Y52759792D01*
X79609792Y52910104D01*
X79437816Y53035051D01*
X79248412Y53131557D01*
X79046243Y53197246D01*
X78836287Y53230500D01*
X78623713Y53230500D01*
X78413757Y53197246D01*
X78211588Y53131557D01*
X78022184Y53035051D01*
X77850208Y52910104D01*
X77850206Y52910102D01*
X77699897Y52759793D01*
X77699895Y52759790D01*
X77580544Y52595517D01*
X77520604Y52546979D01*
X77444426Y52534913D01*
X77372420Y52562553D01*
X77339456Y52595517D01*
X77334368Y52602519D01*
X77220104Y52759792D01*
X77069792Y52910104D01*
X77001920Y52959415D01*
X76953383Y53019352D01*
X76940500Y53079958D01*
X76940500Y54492414D01*
X76960462Y54566914D01*
X76984141Y54597773D01*
X78417226Y56030859D01*
X78484021Y56069423D01*
X78522585Y56074500D01*
X100607146Y56074500D01*
X100681646Y56054538D01*
X100689927Y56049388D01*
X100723448Y56026989D01*
X100723453Y56026986D01*
X100887332Y55959106D01*
X100887336Y55959105D01*
X101061309Y55924500D01*
X101238691Y55924500D01*
X101412663Y55959105D01*
X101412667Y55959106D01*
X101576546Y56026986D01*
X101576548Y56026987D01*
X101724031Y56125533D01*
X101724036Y56125537D01*
X101849462Y56250963D01*
X101849466Y56250968D01*
X101948012Y56398451D01*
X101948013Y56398453D01*
X102015894Y56562334D01*
X102025453Y56610391D01*
X102059565Y56679565D01*
X102123695Y56722415D01*
X102200658Y56727460D01*
X102269832Y56693348D01*
X102276949Y56686682D01*
X104879253Y54084377D01*
X104917817Y54017582D01*
X104920031Y54008089D01*
X104934106Y53937332D01*
X105001986Y53773453D01*
X105001987Y53773451D01*
X105100533Y53625968D01*
X105100537Y53625963D01*
X105225963Y53500537D01*
X105225968Y53500533D01*
X105373451Y53401987D01*
X105373453Y53401986D01*
X105537332Y53334106D01*
X105537336Y53334105D01*
X105711309Y53299500D01*
X105888691Y53299500D01*
X106062663Y53334105D01*
X106062667Y53334106D01*
X106226546Y53401986D01*
X106226548Y53401987D01*
X106374031Y53500533D01*
X106374036Y53500537D01*
X106499462Y53625963D01*
X106499466Y53625968D01*
X106598012Y53773451D01*
X106598013Y53773453D01*
X106637765Y53869423D01*
X106665894Y53937334D01*
X106700500Y54111309D01*
X106700500Y54288691D01*
X106665894Y54462666D01*
X106598013Y54626547D01*
X106499464Y54774035D01*
X106374035Y54899464D01*
X106275709Y54965163D01*
X106226549Y54998012D01*
X106226547Y54998013D01*
X106062666Y55065894D01*
X106054331Y55067551D01*
X105985157Y55101660D01*
X105978051Y55108315D01*
X101628416Y59457952D01*
X101554729Y59507186D01*
X101505495Y59540084D01*
X101368913Y59596658D01*
X101223918Y59625500D01*
X77101082Y59625500D01*
X76956087Y59596658D01*
X76819505Y59540084D01*
X76819499Y59540080D01*
X76819497Y59540079D01*
X76770272Y59507188D01*
X76770270Y59507186D01*
X76696584Y59457952D01*
X76696581Y59457949D01*
X73067049Y55828417D01*
X73020949Y55759422D01*
X73020948Y55759422D01*
X72984921Y55705504D01*
X72984913Y55705489D01*
X72928341Y55568911D01*
X72899500Y55423921D01*
X72899500Y53328353D01*
X72879538Y53253853D01*
X72825000Y53199315D01*
X72797371Y53186918D01*
X72730666Y53164814D01*
X72581344Y53072712D01*
X72457288Y52948656D01*
X72365186Y52799334D01*
X72310001Y52632797D01*
X72299500Y52530009D01*
X66100500Y52530009D01*
X66100500Y60752414D01*
X66120462Y60826914D01*
X66144141Y60857773D01*
X68167226Y62880859D01*
X68234021Y62919423D01*
X68272585Y62924500D01*
X93723921Y62924500D01*
X93868911Y62953341D01*
X94005497Y63009917D01*
X94054728Y63042812D01*
X94054729Y63042812D01*
X94128410Y63092043D01*
X94128417Y63092049D01*
X97389166Y66352798D01*
X100717226Y69680859D01*
X100784021Y69719423D01*
X100822585Y69724500D01*
X127527414Y69724500D01*
X127601914Y69704538D01*
X127632773Y69680859D01*
X130423064Y66890567D01*
X130427082Y66883607D01*
X130433581Y66878877D01*
X130446150Y66850580D01*
X130461628Y66823772D01*
X130461628Y66815735D01*
X130464891Y66808390D01*
X130461628Y66777602D01*
X130461628Y66746644D01*
X130457609Y66739682D01*
X130456762Y66731691D01*
X130441587Y66711931D01*
X130423064Y66679849D01*
X130411374Y66669332D01*
X130408392Y66666922D01*
X130325063Y66606379D01*
X130289490Y66570806D01*
X130283375Y66565863D01*
X130255078Y66553293D01*
X130228270Y66537816D01*
X130220234Y66537816D01*
X130212888Y66534553D01*
X130182101Y66537816D01*
X130151142Y66537816D01*
X130144180Y66541834D01*
X130136189Y66542682D01*
X130111158Y66560900D01*
X130084347Y66576380D01*
X130076830Y66585886D01*
X130073830Y66588070D01*
X130072197Y66591745D01*
X130062889Y66603518D01*
X130061126Y66606376D01*
X130022712Y66668656D01*
X129898656Y66792712D01*
X129749334Y66884814D01*
X129582797Y66939999D01*
X129480009Y66950500D01*
X127979992Y66950499D01*
X127877203Y66939999D01*
X127710666Y66884814D01*
X127561344Y66792712D01*
X127437288Y66668656D01*
X127345186Y66519334D01*
X127345186Y66519333D01*
X127305643Y66400000D01*
X127290001Y66352797D01*
X127279500Y66250009D01*
X127279500Y66250004D01*
X127279500Y64749996D01*
X127290001Y64647202D01*
X127345186Y64480666D01*
X127437288Y64331343D01*
X127561343Y64207288D01*
X127710666Y64115186D01*
X127877201Y64060001D01*
X127911465Y64056500D01*
X127979991Y64049500D01*
X127979994Y64049500D01*
X127979995Y64049500D01*
X129480003Y64049500D01*
X129582797Y64060001D01*
X129749334Y64115186D01*
X129898656Y64207288D01*
X130022712Y64331344D01*
X130040592Y64360332D01*
X130062890Y64396482D01*
X130118991Y64449410D01*
X130194040Y64467197D01*
X130267928Y64445076D01*
X130295063Y64423620D01*
X130325053Y64393630D01*
X130325066Y64393618D01*
X130509773Y64259420D01*
X130713195Y64155772D01*
X130713201Y64155769D01*
X130930340Y64085216D01*
X131155843Y64049500D01*
X131155847Y64049500D01*
X131384153Y64049500D01*
X131384157Y64049500D01*
X131609660Y64085216D01*
X131826799Y64155769D01*
X132030228Y64259421D01*
X132214937Y64393621D01*
X132376379Y64555063D01*
X132510579Y64739772D01*
X132614231Y64943201D01*
X132684784Y65160340D01*
X132720500Y65385843D01*
X132720500Y65614157D01*
X132684784Y65839660D01*
X132614231Y66056799D01*
X132510579Y66260228D01*
X132376379Y66444937D01*
X132214937Y66606379D01*
X132081919Y66703023D01*
X132033381Y66762963D01*
X132020500Y66823566D01*
X132020500Y67178913D01*
X132020500Y67178918D01*
X132013598Y67213616D01*
X131991659Y67323912D01*
X131935356Y67459835D01*
X131935208Y67460309D01*
X131902186Y67509730D01*
X131902183Y67509734D01*
X131885702Y67534399D01*
X131852952Y67583416D01*
X128378416Y71057952D01*
X128294827Y71113803D01*
X128255495Y71140084D01*
X128118913Y71196658D01*
X127973918Y71225500D01*
X100523917Y71225500D01*
X100376082Y71225500D01*
X100231087Y71196658D01*
X100144956Y71160981D01*
X100094502Y71140083D01*
X100020685Y71090759D01*
X99971584Y71057951D01*
X99971580Y71057947D01*
X93382773Y64469141D01*
X93315978Y64430577D01*
X93277414Y64425500D01*
X67826082Y64425500D01*
X67797241Y64419763D01*
X67681088Y64396659D01*
X67601080Y64363518D01*
X67544505Y64340084D01*
X67531425Y64331344D01*
X67465342Y64287189D01*
X67421590Y64257956D01*
X67421586Y64257952D01*
X67421585Y64257952D01*
X64767048Y61603416D01*
X64717813Y61529729D01*
X64695831Y61496831D01*
X64684915Y61480494D01*
X64628341Y61343911D01*
X64599500Y61198921D01*
X64599500Y40197585D01*
X64579538Y40123085D01*
X64555859Y40092226D01*
X63117773Y38654141D01*
X63100785Y38644333D01*
X63086914Y38630462D01*
X63067965Y38625384D01*
X63050978Y38615577D01*
X63012414Y38610500D01*
X62927854Y38610500D01*
X62853354Y38630462D01*
X62845073Y38635612D01*
X62811551Y38658010D01*
X62811548Y38658012D01*
X62811547Y38658013D01*
X62647666Y38725894D01*
X62473691Y38760500D01*
X62296309Y38760500D01*
X62122334Y38725894D01*
X62122332Y38725893D01*
X61958453Y38658013D01*
X61958451Y38658012D01*
X61810968Y38559466D01*
X61810963Y38559462D01*
X61685537Y38434036D01*
X61685533Y38434031D01*
X61586987Y38286548D01*
X61586986Y38286546D01*
X61519106Y38122667D01*
X61519105Y38122663D01*
X61484500Y37948691D01*
X46501480Y37948691D01*
X53193424Y44640635D01*
X53241756Y44672931D01*
X53251538Y44676983D01*
X53251539Y44676983D01*
X53251547Y44676987D01*
X53399035Y44775536D01*
X53524464Y44900965D01*
X53623013Y45048453D01*
X53690894Y45212334D01*
X53725500Y45386309D01*
X53725500Y45563691D01*
X53690894Y45737666D01*
X53623013Y45901547D01*
X53524464Y46049035D01*
X53399035Y46174464D01*
X53251547Y46273013D01*
X53087666Y46340894D01*
X52913691Y46375500D01*
X52736309Y46375500D01*
X52562334Y46340894D01*
X52405587Y46275968D01*
X52398453Y46273013D01*
X52398451Y46273012D01*
X52252936Y46175781D01*
X52250965Y46174464D01*
X52125536Y46049035D01*
X52026987Y45901547D01*
X52026983Y45901539D01*
X52026983Y45901538D01*
X52022931Y45891756D01*
X51990635Y45843424D01*
X41766352Y35619141D01*
X41699557Y35580577D01*
X41660993Y35575500D01*
X25414007Y35575500D01*
X25339507Y35595462D01*
X25308648Y35619141D01*
X21794141Y39133648D01*
X21755577Y39200443D01*
X21750500Y39239007D01*
X21750500Y40320532D01*
X21761840Y40377547D01*
X21765894Y40387334D01*
X21799736Y40557465D01*
X21800500Y40561308D01*
X21800500Y40738691D01*
X21798249Y40750009D01*
X27279500Y40750009D01*
X27279500Y40750004D01*
X27279500Y39249996D01*
X27290001Y39147202D01*
X27345186Y38980666D01*
X27437288Y38831343D01*
X27561343Y38707288D01*
X27710666Y38615186D01*
X27877201Y38560001D01*
X27911465Y38556500D01*
X27979991Y38549500D01*
X27979994Y38549500D01*
X27979995Y38549500D01*
X29480003Y38549500D01*
X29582797Y38560001D01*
X29633855Y38576920D01*
X29749334Y38615186D01*
X29898656Y38707288D01*
X30022712Y38831344D01*
X30062890Y38896482D01*
X30118991Y38949410D01*
X30194040Y38967197D01*
X30267928Y38945076D01*
X30295063Y38923620D01*
X30325053Y38893630D01*
X30325066Y38893618D01*
X30509773Y38759420D01*
X30699105Y38662951D01*
X30713201Y38655769D01*
X30930340Y38585216D01*
X31155843Y38549500D01*
X31155847Y38549500D01*
X31384153Y38549500D01*
X31384157Y38549500D01*
X31609660Y38585216D01*
X31826799Y38655769D01*
X32030228Y38759421D01*
X32183251Y38870599D01*
X32214933Y38893618D01*
X32214937Y38893621D01*
X32376379Y39055063D01*
X32510579Y39239772D01*
X32614231Y39443201D01*
X32684784Y39660340D01*
X32720500Y39885843D01*
X32720500Y40114157D01*
X32684784Y40339660D01*
X32614231Y40556799D01*
X32510579Y40760228D01*
X32376379Y40944937D01*
X32214937Y41106379D01*
X32030228Y41240579D01*
X31826799Y41344231D01*
X31609660Y41414784D01*
X31384157Y41450500D01*
X31155843Y41450500D01*
X30930340Y41414784D01*
X30713201Y41344231D01*
X30509772Y41240579D01*
X30325063Y41106379D01*
X30295062Y41076378D01*
X30228270Y41037816D01*
X30151142Y41037816D01*
X30084347Y41076380D01*
X30062889Y41103518D01*
X30022712Y41168656D01*
X29898656Y41292712D01*
X29749334Y41384814D01*
X29582797Y41439999D01*
X29480009Y41450500D01*
X27979992Y41450499D01*
X27877203Y41439999D01*
X27710666Y41384814D01*
X27561344Y41292712D01*
X27437288Y41168656D01*
X27345186Y41019334D01*
X27290001Y40852797D01*
X27279500Y40750009D01*
X21798249Y40750009D01*
X21787640Y40803343D01*
X21765894Y40912666D01*
X21698013Y41076547D01*
X21599464Y41224035D01*
X21474035Y41349464D01*
X21326547Y41448013D01*
X21162666Y41515894D01*
X20988691Y41550500D01*
X20811309Y41550500D01*
X20637334Y41515894D01*
X20590145Y41496347D01*
X20555124Y41481842D01*
X20498105Y41470500D01*
X14520910Y41470500D01*
X14446410Y41490462D01*
X14400370Y41531916D01*
X14376379Y41564937D01*
X14214937Y41726379D01*
X14030228Y41860579D01*
X13826799Y41964231D01*
X13609660Y42034784D01*
X13384157Y42070500D01*
X13155843Y42070500D01*
X12930340Y42034784D01*
X12713201Y41964231D01*
X12509772Y41860579D01*
X12325063Y41726379D01*
X12163621Y41564937D01*
X12163614Y41564927D01*
X12120234Y41505220D01*
X12060295Y41456682D01*
X11984116Y41444616D01*
X11972970Y41448894D01*
X11916863Y41453310D01*
X11192550Y40728997D01*
X11172630Y40803343D01*
X11110095Y40911657D01*
X11021657Y41000095D01*
X10913343Y41062630D01*
X10838997Y41082550D01*
X11563310Y41806863D01*
X11489967Y41860149D01*
X11286609Y41963767D01*
X11069548Y42034294D01*
X11069548Y42034295D01*
X10844113Y42070000D01*
X10615887Y42070000D01*
X10390451Y42034295D01*
X10390451Y42034294D01*
X10173390Y41963767D01*
X9970032Y41860149D01*
X9970023Y41860144D01*
X9896689Y41806864D01*
X9896689Y41806862D01*
X10621002Y41082550D01*
X10546657Y41062630D01*
X10438343Y41000095D01*
X10349905Y40911657D01*
X10287370Y40803343D01*
X10267449Y40728996D01*
X9543136Y41453309D01*
X9543135Y41453309D01*
X9489850Y41379967D01*
X9386232Y41176609D01*
X9315705Y40959548D01*
X9315704Y40959548D01*
X9280000Y40734113D01*
X9280000Y40505886D01*
X9315704Y40280451D01*
X9386232Y40063390D01*
X9489849Y39860033D01*
X9543135Y39786689D01*
X9543136Y39786689D01*
X10267449Y40511002D01*
X10287370Y40436657D01*
X10349905Y40328343D01*
X10438343Y40239905D01*
X10546657Y40177370D01*
X10621003Y40157449D01*
X9896689Y39433136D01*
X9902079Y39364657D01*
X9900658Y39364545D01*
X9905379Y39334717D01*
X9877731Y39262714D01*
X9844777Y39229764D01*
X9785063Y39186379D01*
X9623621Y39024937D01*
X9489421Y38840228D01*
X9385769Y38636799D01*
X9315216Y38419660D01*
X9279500Y38194157D01*
X500500Y38194157D01*
X500500Y49250009D01*
X27279500Y49250009D01*
X27279500Y49250004D01*
X27279500Y47749996D01*
X27290001Y47647202D01*
X27345186Y47480666D01*
X27437288Y47331343D01*
X27561343Y47207288D01*
X27710666Y47115186D01*
X27877201Y47060001D01*
X27911465Y47056500D01*
X27979991Y47049500D01*
X27979994Y47049500D01*
X27979995Y47049500D01*
X29480003Y47049500D01*
X29582797Y47060001D01*
X29749334Y47115186D01*
X29898656Y47207288D01*
X30022712Y47331344D01*
X30061125Y47393621D01*
X30062890Y47396482D01*
X30118991Y47449410D01*
X30194040Y47467197D01*
X30267928Y47445076D01*
X30295063Y47423620D01*
X30325053Y47393630D01*
X30325066Y47393618D01*
X30509773Y47259420D01*
X30713195Y47155772D01*
X30713201Y47155769D01*
X30930340Y47085216D01*
X31155843Y47049500D01*
X31155847Y47049500D01*
X31384153Y47049500D01*
X31384157Y47049500D01*
X31609660Y47085216D01*
X31826799Y47155769D01*
X32030228Y47259421D01*
X32214937Y47393621D01*
X32376379Y47555063D01*
X32510579Y47739772D01*
X32614231Y47943201D01*
X32684784Y48160340D01*
X32720500Y48385843D01*
X32720500Y48614157D01*
X32684784Y48839660D01*
X32614231Y49056799D01*
X32510579Y49260228D01*
X32376379Y49444937D01*
X32214937Y49606379D01*
X32030228Y49740579D01*
X31826799Y49844231D01*
X31609660Y49914784D01*
X31384157Y49950500D01*
X31155843Y49950500D01*
X30930340Y49914784D01*
X30713201Y49844231D01*
X30509772Y49740579D01*
X30325063Y49606379D01*
X30295062Y49576378D01*
X30228270Y49537816D01*
X30151142Y49537816D01*
X30084347Y49576380D01*
X30062889Y49603518D01*
X30022712Y49668656D01*
X29898656Y49792712D01*
X29749334Y49884814D01*
X29582797Y49939999D01*
X29480009Y49950500D01*
X27979992Y49950499D01*
X27877203Y49939999D01*
X27710666Y49884814D01*
X27561344Y49792712D01*
X27437288Y49668656D01*
X27345186Y49519334D01*
X27290001Y49352797D01*
X27279500Y49250009D01*
X500500Y49250009D01*
X500500Y57750009D01*
X27279500Y57750009D01*
X27279500Y57750004D01*
X27279500Y56249996D01*
X27290001Y56147202D01*
X27345186Y55980666D01*
X27437288Y55831343D01*
X27561343Y55707288D01*
X27710666Y55615186D01*
X27877201Y55560001D01*
X27911465Y55556500D01*
X27979991Y55549500D01*
X27979994Y55549500D01*
X27979995Y55549500D01*
X29480003Y55549500D01*
X29582797Y55560001D01*
X29749334Y55615186D01*
X29898656Y55707288D01*
X30022712Y55831344D01*
X30061125Y55893621D01*
X30062890Y55896482D01*
X30118991Y55949410D01*
X30194040Y55967197D01*
X30267928Y55945076D01*
X30295063Y55923620D01*
X30325053Y55893630D01*
X30325066Y55893618D01*
X30509773Y55759420D01*
X30713195Y55655772D01*
X30713201Y55655769D01*
X30930340Y55585216D01*
X31155843Y55549500D01*
X31155847Y55549500D01*
X31384153Y55549500D01*
X31384157Y55549500D01*
X31609660Y55585216D01*
X31826799Y55655769D01*
X32030228Y55759421D01*
X32214937Y55893621D01*
X32376379Y56055063D01*
X32510579Y56239772D01*
X32614231Y56443201D01*
X32684784Y56660340D01*
X32720500Y56885843D01*
X32720500Y57114157D01*
X32684784Y57339660D01*
X32614231Y57556799D01*
X32510579Y57760228D01*
X32376379Y57944937D01*
X32214937Y58106379D01*
X32030228Y58240579D01*
X31826799Y58344231D01*
X31609660Y58414784D01*
X31384157Y58450500D01*
X31155843Y58450500D01*
X30930340Y58414784D01*
X30713201Y58344231D01*
X30509772Y58240579D01*
X30325063Y58106379D01*
X30295062Y58076378D01*
X30228270Y58037816D01*
X30151142Y58037816D01*
X30084347Y58076380D01*
X30062889Y58103518D01*
X30062260Y58104538D01*
X30022712Y58168656D01*
X29898656Y58292712D01*
X29749334Y58384814D01*
X29582797Y58439999D01*
X29480009Y58450500D01*
X27979992Y58450499D01*
X27877203Y58439999D01*
X27710666Y58384814D01*
X27561344Y58292712D01*
X27437288Y58168656D01*
X27345186Y58019334D01*
X27290001Y57852797D01*
X27279500Y57750009D01*
X500500Y57750009D01*
X500500Y66250009D01*
X27279500Y66250009D01*
X27279500Y66250004D01*
X27279500Y64749996D01*
X27290001Y64647202D01*
X27345186Y64480666D01*
X27437288Y64331343D01*
X27561343Y64207288D01*
X27710666Y64115186D01*
X27877201Y64060001D01*
X27911465Y64056500D01*
X27979991Y64049500D01*
X27979994Y64049500D01*
X27979995Y64049500D01*
X29480003Y64049500D01*
X29582797Y64060001D01*
X29749334Y64115186D01*
X29898656Y64207288D01*
X30022712Y64331344D01*
X30040592Y64360332D01*
X30062890Y64396482D01*
X30118991Y64449410D01*
X30194040Y64467197D01*
X30267928Y64445076D01*
X30295063Y64423620D01*
X30325053Y64393630D01*
X30325066Y64393618D01*
X30509773Y64259420D01*
X30713195Y64155772D01*
X30713201Y64155769D01*
X30930340Y64085216D01*
X31155843Y64049500D01*
X31155847Y64049500D01*
X31384153Y64049500D01*
X31384157Y64049500D01*
X31609660Y64085216D01*
X31826799Y64155769D01*
X32030228Y64259421D01*
X32214937Y64393621D01*
X32376379Y64555063D01*
X32455706Y64664247D01*
X32515645Y64712784D01*
X32591823Y64724849D01*
X32663829Y64697208D01*
X32681607Y64682024D01*
X35305859Y62057773D01*
X35344423Y61990978D01*
X35349500Y61952414D01*
X35349500Y51201078D01*
X35378341Y51056088D01*
X35434913Y50919510D01*
X35434920Y50919497D01*
X35467812Y50870270D01*
X35517041Y50796591D01*
X35517048Y50796583D01*
X39610461Y46703169D01*
X39649025Y46636374D01*
X39651239Y46626881D01*
X39659106Y46587333D01*
X39726986Y46423453D01*
X39726987Y46423451D01*
X39825533Y46275968D01*
X39825536Y46275965D01*
X39950963Y46150537D01*
X39950968Y46150533D01*
X40098451Y46051987D01*
X40098453Y46051986D01*
X40262332Y45984106D01*
X40262336Y45984105D01*
X40436309Y45949500D01*
X40613691Y45949500D01*
X40787663Y45984105D01*
X40787667Y45984106D01*
X40951546Y46051986D01*
X40951548Y46051987D01*
X41099031Y46150533D01*
X41099036Y46150537D01*
X41224464Y46275965D01*
X41224466Y46275968D01*
X41323012Y46423451D01*
X41323013Y46423453D01*
X41390893Y46587332D01*
X41390894Y46587334D01*
X41425500Y46761309D01*
X41425500Y46938691D01*
X41390894Y47112666D01*
X41323013Y47276547D01*
X41224464Y47424035D01*
X41099035Y47549464D01*
X40951547Y47648013D01*
X40787666Y47715894D01*
X40748119Y47723760D01*
X40678945Y47757872D01*
X40671843Y47764523D01*
X36894139Y51542228D01*
X36855577Y51609021D01*
X36850500Y51647585D01*
X36850500Y62398913D01*
X36850500Y62398918D01*
X36821658Y62543913D01*
X36765084Y62680495D01*
X36765082Y62680498D01*
X36732186Y62729730D01*
X36732183Y62729734D01*
X36715702Y62754399D01*
X36682952Y62803416D01*
X33403416Y66082952D01*
X33329729Y66132186D01*
X33280495Y66165084D01*
X33143913Y66221658D01*
X32998918Y66250500D01*
X32998914Y66250500D01*
X32593566Y66250500D01*
X32519066Y66270462D01*
X32473023Y66311919D01*
X32443322Y66352798D01*
X32376379Y66444937D01*
X32214937Y66606379D01*
X32030228Y66740579D01*
X31826799Y66844231D01*
X31609660Y66914784D01*
X31384157Y66950500D01*
X31155843Y66950500D01*
X30930340Y66914784D01*
X30713201Y66844231D01*
X30509772Y66740579D01*
X30325063Y66606379D01*
X30295062Y66576378D01*
X30228270Y66537816D01*
X30151142Y66537816D01*
X30084347Y66576380D01*
X30062889Y66603518D01*
X30061126Y66606376D01*
X30022712Y66668656D01*
X29898656Y66792712D01*
X29749334Y66884814D01*
X29582797Y66939999D01*
X29480009Y66950500D01*
X27979992Y66950499D01*
X27877203Y66939999D01*
X27710666Y66884814D01*
X27561344Y66792712D01*
X27437288Y66668656D01*
X27345186Y66519334D01*
X27345186Y66519333D01*
X27305643Y66400000D01*
X27290001Y66352797D01*
X27279500Y66250009D01*
X500500Y66250009D01*
X500500Y72300000D01*
X16400000Y72300000D01*
X16400000Y67700000D01*
X17700000Y66400000D01*
X22290000Y66400000D01*
X23122643Y67226287D01*
X72299500Y67226287D01*
X72299500Y67013713D01*
X72315169Y66914784D01*
X72332754Y66803756D01*
X72376651Y66668656D01*
X72398443Y66601588D01*
X72398445Y66601582D01*
X72398446Y66601582D01*
X72494950Y66412182D01*
X72494950Y66412181D01*
X72619895Y66240209D01*
X72619897Y66240206D01*
X72770206Y66089897D01*
X72770209Y66089895D01*
X72942182Y65964950D01*
X72942184Y65964949D01*
X73131588Y65868443D01*
X73131593Y65868441D01*
X73131594Y65868441D01*
X73333756Y65802754D01*
X73368749Y65797211D01*
X73543713Y65769500D01*
X73543718Y65769500D01*
X73756282Y65769500D01*
X73756287Y65769500D01*
X73966243Y65802754D01*
X74168412Y65868443D01*
X74357816Y65964949D01*
X74357817Y65964950D01*
X74357818Y65964950D01*
X74484228Y66056792D01*
X74529792Y66089896D01*
X74680104Y66240208D01*
X74761905Y66352798D01*
X74799456Y66404482D01*
X74859396Y66453020D01*
X74935575Y66465086D01*
X75007580Y66437446D01*
X75040544Y66404482D01*
X75159895Y66240209D01*
X75159897Y66240206D01*
X75310206Y66089897D01*
X75310209Y66089895D01*
X75482182Y65964950D01*
X75482184Y65964949D01*
X75671588Y65868443D01*
X75671593Y65868441D01*
X75671594Y65868441D01*
X75873756Y65802754D01*
X75908749Y65797211D01*
X76083713Y65769500D01*
X76083718Y65769500D01*
X76296282Y65769500D01*
X76296287Y65769500D01*
X76506243Y65802754D01*
X76708412Y65868443D01*
X76897816Y65964949D01*
X76897817Y65964950D01*
X76897818Y65964950D01*
X77024228Y66056792D01*
X77069792Y66089896D01*
X77220104Y66240208D01*
X77301905Y66352798D01*
X77339456Y66404482D01*
X77399396Y66453020D01*
X77475575Y66465086D01*
X77547580Y66437446D01*
X77580544Y66404482D01*
X77699895Y66240209D01*
X77699897Y66240206D01*
X77850206Y66089897D01*
X77850209Y66089895D01*
X78022182Y65964950D01*
X78022184Y65964949D01*
X78211588Y65868443D01*
X78211593Y65868441D01*
X78211594Y65868441D01*
X78413756Y65802754D01*
X78448749Y65797211D01*
X78623713Y65769500D01*
X78623718Y65769500D01*
X78836282Y65769500D01*
X78836287Y65769500D01*
X79046243Y65802754D01*
X79248412Y65868443D01*
X79437816Y65964949D01*
X79437817Y65964950D01*
X79437818Y65964950D01*
X79564228Y66056792D01*
X79609792Y66089896D01*
X79760104Y66240208D01*
X79841905Y66352798D01*
X79879456Y66404482D01*
X79939396Y66453020D01*
X80015575Y66465086D01*
X80087580Y66437446D01*
X80120544Y66404482D01*
X80239895Y66240209D01*
X80239897Y66240206D01*
X80390206Y66089897D01*
X80390209Y66089895D01*
X80562182Y65964950D01*
X80562184Y65964949D01*
X80751588Y65868443D01*
X80751593Y65868441D01*
X80751594Y65868441D01*
X80953756Y65802754D01*
X80988749Y65797211D01*
X81163713Y65769500D01*
X81163718Y65769500D01*
X81376282Y65769500D01*
X81376287Y65769500D01*
X81586243Y65802754D01*
X81788412Y65868443D01*
X81977816Y65964949D01*
X81977817Y65964950D01*
X81977818Y65964950D01*
X82104228Y66056792D01*
X82149792Y66089896D01*
X82300104Y66240208D01*
X82381905Y66352798D01*
X82419456Y66404482D01*
X82479396Y66453020D01*
X82555575Y66465086D01*
X82627580Y66437446D01*
X82660544Y66404482D01*
X82779895Y66240209D01*
X82779897Y66240206D01*
X82930206Y66089897D01*
X82930209Y66089895D01*
X83102182Y65964950D01*
X83102184Y65964949D01*
X83291588Y65868443D01*
X83291593Y65868441D01*
X83291594Y65868441D01*
X83493756Y65802754D01*
X83528749Y65797211D01*
X83703713Y65769500D01*
X83703718Y65769500D01*
X83916282Y65769500D01*
X83916287Y65769500D01*
X84126243Y65802754D01*
X84328412Y65868443D01*
X84517816Y65964949D01*
X84517817Y65964950D01*
X84517818Y65964950D01*
X84644228Y66056792D01*
X84689792Y66089896D01*
X84840104Y66240208D01*
X84921905Y66352798D01*
X84959456Y66404482D01*
X85019396Y66453020D01*
X85095575Y66465086D01*
X85167580Y66437446D01*
X85200544Y66404482D01*
X85319895Y66240209D01*
X85319897Y66240206D01*
X85470206Y66089897D01*
X85470209Y66089895D01*
X85642182Y65964950D01*
X85642184Y65964949D01*
X85831588Y65868443D01*
X85831593Y65868441D01*
X85831594Y65868441D01*
X86033756Y65802754D01*
X86068749Y65797211D01*
X86243713Y65769500D01*
X86243718Y65769500D01*
X86456282Y65769500D01*
X86456287Y65769500D01*
X86666243Y65802754D01*
X86868412Y65868443D01*
X87057816Y65964949D01*
X87057817Y65964950D01*
X87057818Y65964950D01*
X87184228Y66056792D01*
X87229792Y66089896D01*
X87380104Y66240208D01*
X87505051Y66412184D01*
X87601557Y66601588D01*
X87667246Y66803757D01*
X87700500Y67013713D01*
X87700500Y67226287D01*
X87667246Y67436243D01*
X87601557Y67638412D01*
X87505051Y67827816D01*
X87380104Y67999792D01*
X87229792Y68150104D01*
X87211920Y68163088D01*
X87192398Y68187194D01*
X87170462Y68209131D01*
X87168399Y68216829D01*
X87163383Y68223024D01*
X87150500Y68283631D01*
X87150500Y68506704D01*
X87170462Y68581204D01*
X87194141Y68612063D01*
X88737937Y70155859D01*
X88804732Y70194423D01*
X88843296Y70199500D01*
X89899820Y70199500D01*
X89956839Y70188158D01*
X90087332Y70134106D01*
X90087336Y70134105D01*
X90261309Y70099500D01*
X90438691Y70099500D01*
X90612663Y70134105D01*
X90612667Y70134106D01*
X90776546Y70201986D01*
X90776548Y70201987D01*
X90924031Y70300533D01*
X90924036Y70300537D01*
X91049462Y70425963D01*
X91049466Y70425968D01*
X91148012Y70573451D01*
X91148013Y70573453D01*
X91215893Y70737332D01*
X91215894Y70737334D01*
X91250500Y70911309D01*
X91250500Y71088691D01*
X91215894Y71262666D01*
X91148013Y71426547D01*
X91049464Y71574035D01*
X90924035Y71699464D01*
X90776547Y71798013D01*
X90612666Y71865894D01*
X90438691Y71900500D01*
X90261309Y71900500D01*
X90087334Y71865894D01*
X90087332Y71865893D01*
X89956839Y71811842D01*
X89899820Y71800500D01*
X88371157Y71800500D01*
X88216502Y71769737D01*
X88216499Y71769736D01*
X88173838Y71752064D01*
X88173833Y71752063D01*
X88173834Y71752063D01*
X88081964Y71714009D01*
X88070821Y71709394D01*
X88070818Y71709392D01*
X88070816Y71709391D01*
X88026525Y71679796D01*
X87939711Y71621789D01*
X87939710Y71621788D01*
X85839711Y69521789D01*
X85728211Y69410289D01*
X85640606Y69279179D01*
X85640604Y69279176D01*
X85580263Y69133498D01*
X85580262Y69133494D01*
X85549500Y68978842D01*
X85549500Y68283631D01*
X85529538Y68209131D01*
X85488080Y68163088D01*
X85470208Y68150104D01*
X85470204Y68150100D01*
X85319897Y67999793D01*
X85319895Y67999790D01*
X85200544Y67835517D01*
X85140604Y67786979D01*
X85064426Y67774913D01*
X84992420Y67802553D01*
X84959456Y67835517D01*
X84954368Y67842519D01*
X84840104Y67999792D01*
X84689792Y68150104D01*
X84517816Y68275051D01*
X84328412Y68371557D01*
X84126243Y68437246D01*
X83916287Y68470500D01*
X83703713Y68470500D01*
X83493757Y68437246D01*
X83291588Y68371557D01*
X83102184Y68275051D01*
X82930208Y68150104D01*
X82930206Y68150102D01*
X82779897Y67999793D01*
X82779895Y67999790D01*
X82660544Y67835517D01*
X82600604Y67786979D01*
X82524426Y67774913D01*
X82452420Y67802553D01*
X82419456Y67835517D01*
X82414368Y67842519D01*
X82300104Y67999792D01*
X82149792Y68150104D01*
X81977816Y68275051D01*
X81788412Y68371557D01*
X81586243Y68437246D01*
X81376287Y68470500D01*
X81163713Y68470500D01*
X80953757Y68437246D01*
X80751588Y68371557D01*
X80562184Y68275051D01*
X80390208Y68150104D01*
X80390206Y68150102D01*
X80239897Y67999793D01*
X80239895Y67999790D01*
X80120544Y67835517D01*
X80060604Y67786979D01*
X79984426Y67774913D01*
X79912420Y67802553D01*
X79879456Y67835517D01*
X79874368Y67842519D01*
X79760104Y67999792D01*
X79609792Y68150104D01*
X79437816Y68275051D01*
X79248412Y68371557D01*
X79046243Y68437246D01*
X78836287Y68470500D01*
X78623713Y68470500D01*
X78413757Y68437246D01*
X78211588Y68371557D01*
X78022184Y68275051D01*
X77850208Y68150104D01*
X77850206Y68150102D01*
X77699897Y67999793D01*
X77699895Y67999790D01*
X77580544Y67835517D01*
X77520604Y67786979D01*
X77444426Y67774913D01*
X77372420Y67802553D01*
X77339456Y67835517D01*
X77334368Y67842519D01*
X77220104Y67999792D01*
X77069792Y68150104D01*
X76897816Y68275051D01*
X76708412Y68371557D01*
X76506243Y68437246D01*
X76296287Y68470500D01*
X76083713Y68470500D01*
X75873757Y68437246D01*
X75671588Y68371557D01*
X75482184Y68275051D01*
X75310208Y68150104D01*
X75310206Y68150102D01*
X75159897Y67999793D01*
X75159895Y67999790D01*
X75040544Y67835517D01*
X74980604Y67786979D01*
X74904426Y67774913D01*
X74832420Y67802553D01*
X74799456Y67835517D01*
X74794368Y67842519D01*
X74680104Y67999792D01*
X74529792Y68150104D01*
X74357816Y68275051D01*
X74168412Y68371557D01*
X73966243Y68437246D01*
X73756287Y68470500D01*
X73543713Y68470500D01*
X73333757Y68437246D01*
X73131588Y68371557D01*
X72942184Y68275051D01*
X72770208Y68150104D01*
X72619896Y67999792D01*
X72494949Y67827816D01*
X72398443Y67638412D01*
X72332754Y67436243D01*
X72299500Y67226287D01*
X23122643Y67226287D01*
X23235118Y67337903D01*
X23599999Y67699998D01*
X23600000Y67700000D01*
X23600000Y72300000D01*
X136400000Y72300000D01*
X136400000Y67700000D01*
X137700000Y66400000D01*
X142290000Y66400000D01*
X143599999Y67699998D01*
X143600000Y67700000D01*
X143600000Y72300000D01*
X142300000Y73600000D01*
X137700000Y73600000D01*
X136400000Y72300000D01*
X23600000Y72300000D01*
X22300000Y73600000D01*
X17700000Y73600000D01*
X16400000Y72300000D01*
X500500Y72300000D01*
X500500Y74350500D01*
X520462Y74425000D01*
X575000Y74479538D01*
X649500Y74499500D01*
X159350500Y74499500D01*
X159425000Y74479538D01*
G37*
%TD.AperFunction*%
%TD*%
M02*
