%TF.GenerationSoftware,KiCad,Pcbnew,10.0.1*%
%TF.CreationDate,2026-07-14T16:36:56+09:00*%
%TF.ProjectId,SMD_DISPLAY_BD_SV5,534d445f-4449-4535-904c-41595f42445f,rev?*%
%TF.SameCoordinates,Original*%
%TF.FileFunction,Soldermask,Top*%
%TF.FilePolarity,Negative*%
%FSLAX46Y46*%
G04 Gerber Fmt 4.6, Leading zero omitted, Abs format (unit mm)*
G04 Created by KiCad (PCBNEW 10.0.1) date 2026-07-14 16:36:56*
%MOMM*%
%LPD*%
G01*
G04 APERTURE LIST*
G04 Aperture macros list*
%AMRoundRect*
0 Rectangle with rounded corners*
0 $1 Rounding radius*
0 $2 $3 $4 $5 $6 $7 $8 $9 X,Y pos of 4 corners*
0 Add a 4 corners polygon primitive as box body*
4,1,4,$2,$3,$4,$5,$6,$7,$8,$9,$2,$3,0*
0 Add four circle primitives for the rounded corners*
1,1,$1+$1,$2,$3*
1,1,$1+$1,$4,$5*
1,1,$1+$1,$6,$7*
1,1,$1+$1,$8,$9*
0 Add four rect primitives between the rounded corners*
20,1,$1+$1,$2,$3,$4,$5,0*
20,1,$1+$1,$4,$5,$6,$7,0*
20,1,$1+$1,$6,$7,$8,$9,0*
20,1,$1+$1,$8,$9,$2,$3,0*%
G04 Aperture macros list end*
%ADD10C,3.500000*%
%ADD11RoundRect,0.150000X-0.750000X0.530000X-0.750000X-0.530000X0.750000X-0.530000X0.750000X0.530000X0*%
%ADD12C,1.700000*%
%ADD13RoundRect,0.250000X0.600000X-0.600000X0.600000X0.600000X-0.600000X0.600000X-0.600000X-0.600000X0*%
%ADD14RoundRect,0.150000X0.530000X0.750000X-0.530000X0.750000X-0.530000X-0.750000X0.530000X-0.750000X0*%
%ADD15RoundRect,0.150000X0.850000X0.150000X-0.850000X0.150000X-0.850000X-0.150000X0.850000X-0.150000X0*%
%ADD16C,1.900000*%
%ADD17RoundRect,0.250000X0.700000X0.700000X-0.700000X0.700000X-0.700000X-0.700000X0.700000X-0.700000X0*%
%ADD18RoundRect,0.150000X-0.530000X-0.750000X0.530000X-0.750000X0.530000X0.750000X-0.530000X0.750000X0*%
%ADD19RoundRect,0.162500X-0.162500X0.787500X-0.162500X-0.787500X0.162500X-0.787500X0.162500X0.787500X0*%
%ADD20C,2.800000*%
%ADD21RoundRect,0.162500X-0.787500X-0.162500X0.787500X-0.162500X0.787500X0.162500X-0.787500X0.162500X0*%
%ADD22RoundRect,0.279412X-0.670588X-0.670588X0.670588X-0.670588X0.670588X0.670588X-0.670588X0.670588X0*%
G04 APERTURE END LIST*
D10*
%TO.C,H1*%
X20000000Y5000000D03*
%TD*%
%TO.C,H3*%
X20000000Y70000000D03*
%TD*%
%TO.C,H4*%
X140000000Y70000000D03*
%TD*%
%TO.C,H2*%
X140000000Y5000000D03*
%TD*%
D11*
%TO.C,R6*%
X107500000Y57850000D03*
X107500000Y61150000D03*
%TD*%
D12*
%TO.C,U4*%
X73650000Y67120000D03*
X76190000Y67120000D03*
X78730000Y67120000D03*
X81270000Y67120000D03*
X83810000Y67120000D03*
X86350000Y67120000D03*
X86350000Y51880000D03*
X83810000Y51880000D03*
X81270000Y51880000D03*
X78730000Y51880000D03*
X76190000Y51880000D03*
D13*
X73650000Y51880000D03*
%TD*%
D11*
%TO.C,R13*%
X103500000Y22150000D03*
X103500000Y18850000D03*
%TD*%
%TO.C,R12*%
X81500000Y22150000D03*
X81500000Y18850000D03*
%TD*%
%TO.C,R5*%
X107500000Y54150000D03*
X107500000Y50850000D03*
%TD*%
%TO.C,C3*%
X37500000Y30650000D03*
X37500000Y27350000D03*
%TD*%
D14*
%TO.C,R14*%
X25650000Y50500000D03*
X22350000Y50500000D03*
%TD*%
D15*
%TO.C,U1*%
X69730000Y35320000D03*
X69730000Y36590000D03*
X69730000Y37860000D03*
X69730000Y39130000D03*
X69730000Y40400000D03*
X69730000Y41670000D03*
X69730000Y42940000D03*
X69730000Y44210000D03*
X69730000Y45480000D03*
X60270000Y45480000D03*
X60270000Y44210000D03*
X60270000Y42940000D03*
X60270000Y41670000D03*
X60270000Y40400000D03*
X60270000Y39130000D03*
X60270000Y37860000D03*
X60270000Y36590000D03*
X60270000Y35320000D03*
%TD*%
D14*
%TO.C,R20*%
X118150000Y40000000D03*
X114850000Y40000000D03*
%TD*%
%TO.C,R18*%
X118150000Y57000000D03*
X114850000Y57000000D03*
%TD*%
D11*
%TO.C,R7*%
X107500000Y68150000D03*
X107500000Y64850000D03*
%TD*%
D14*
%TO.C,R17*%
X25650000Y59000000D03*
X22350000Y59000000D03*
%TD*%
D16*
%TO.C,LED4*%
X31270000Y65500000D03*
D17*
X28730000Y65500000D03*
%TD*%
D16*
%TO.C,LED1*%
X131270000Y65500000D03*
D17*
X128730000Y65500000D03*
%TD*%
D11*
%TO.C,C4*%
X59500000Y30650000D03*
X59500000Y27350000D03*
%TD*%
D16*
%TO.C,LED5*%
X31270000Y57000000D03*
D17*
X28730000Y57000000D03*
%TD*%
D14*
%TO.C,R19*%
X25650000Y42000000D03*
X22350000Y42000000D03*
%TD*%
%TO.C,R15*%
X25650000Y65500000D03*
X22350000Y65500000D03*
%TD*%
D18*
%TO.C,C2*%
X116350000Y33800000D03*
X119650000Y33800000D03*
%TD*%
D19*
%TO.C,U2*%
X109445000Y43736000D03*
X108175000Y43736000D03*
X106905000Y43736000D03*
X105635000Y43736000D03*
X104365000Y43736000D03*
X103095000Y43736000D03*
X101825000Y43736000D03*
X100555000Y43736000D03*
X100555000Y38264000D03*
X101825000Y38264000D03*
X103095000Y38264000D03*
X104365000Y38264000D03*
X105635000Y38264000D03*
X106905000Y38264000D03*
X108175000Y38264000D03*
X109445000Y38264000D03*
%TD*%
D16*
%TO.C,LED8*%
X131270000Y40000000D03*
D17*
X128730000Y40000000D03*
%TD*%
D16*
%TO.C,LED3*%
X31270000Y48500000D03*
D17*
X28730000Y48500000D03*
%TD*%
D11*
%TO.C,C5*%
X81500000Y30650000D03*
X81500000Y27350000D03*
%TD*%
D18*
%TO.C,C1*%
X94350000Y33800000D03*
X97650000Y33800000D03*
%TD*%
D20*
%TO.C,TS2*%
X62750000Y22500000D03*
X75250000Y22500000D03*
X75250000Y27500000D03*
X62750000Y27500000D03*
%TD*%
D21*
%TO.C,U3*%
X84264000Y43945000D03*
X84264000Y42675000D03*
X84264000Y41405000D03*
X84264000Y40135000D03*
X84264000Y38865000D03*
X84264000Y37595000D03*
X84264000Y36325000D03*
X84264000Y35055000D03*
X89736000Y35055000D03*
X89736000Y36325000D03*
X89736000Y37595000D03*
X89736000Y38865000D03*
X89736000Y40135000D03*
X89736000Y41405000D03*
X89736000Y42675000D03*
X89736000Y43945000D03*
%TD*%
D16*
%TO.C,LED7*%
X31270000Y40000000D03*
D17*
X28730000Y40000000D03*
%TD*%
D20*
%TO.C,TS1*%
X40750000Y22500000D03*
X53250000Y22500000D03*
X53250000Y27500000D03*
X40750000Y27500000D03*
%TD*%
D14*
%TO.C,R1*%
X109650000Y33800000D03*
X106350000Y33800000D03*
%TD*%
%TO.C,R21*%
X118150000Y48500000D03*
X114850000Y48500000D03*
%TD*%
D11*
%TO.C,C6*%
X103500000Y30650000D03*
X103500000Y27350000D03*
%TD*%
%TO.C,R11*%
X59500000Y22150000D03*
X59500000Y18850000D03*
%TD*%
D20*
%TO.C,TS4*%
X106750000Y22500000D03*
X119250000Y22500000D03*
X119250000Y27500000D03*
X106750000Y27500000D03*
%TD*%
D18*
%TO.C,R4*%
X81350000Y71000000D03*
X84650000Y71000000D03*
%TD*%
D14*
%TO.C,R9*%
X76150000Y71000000D03*
X72850000Y71000000D03*
%TD*%
D18*
%TO.C,R2*%
X78350000Y48000000D03*
X81650000Y48000000D03*
%TD*%
%TO.C,R8*%
X92350000Y71000000D03*
X95650000Y71000000D03*
%TD*%
D16*
%TO.C,LED6*%
X131270000Y57000000D03*
D17*
X128730000Y57000000D03*
%TD*%
D16*
%TO.C,LED2*%
X131270000Y48500000D03*
D17*
X128730000Y48500000D03*
%TD*%
D18*
%TO.C,R3*%
X97350000Y48000000D03*
X100650000Y48000000D03*
%TD*%
D20*
%TO.C,TS3*%
X84750000Y22500000D03*
X97250000Y22500000D03*
X97250000Y27500000D03*
X84750000Y27500000D03*
%TD*%
D11*
%TO.C,R10*%
X37500000Y22150000D03*
X37500000Y18850000D03*
%TD*%
D14*
%TO.C,R16*%
X118150000Y65500000D03*
X114850000Y65500000D03*
%TD*%
D22*
%TO.C,J1*%
X10730000Y25380000D03*
D16*
X13270000Y25380000D03*
X10730000Y27920000D03*
X13270000Y27920000D03*
X10730000Y30460000D03*
X13270000Y30460000D03*
X10730000Y33000000D03*
X13270000Y33000000D03*
X10730000Y35540000D03*
X13270000Y35540000D03*
X10730000Y38080000D03*
X13270000Y38080000D03*
X10730000Y40620000D03*
X13270000Y40620000D03*
%TD*%
M02*
