%TF.GenerationSoftware,KiCad,Pcbnew,10.0.1*%
%TF.CreationDate,2026-07-14T16:36:56+09:00*%
%TF.ProjectId,SMD_DISPLAY_BD_SV5,534d445f-4449-4535-904c-41595f42445f,rev?*%
%TF.SameCoordinates,Original*%
%TF.FileFunction,Legend,Top*%
%TF.FilePolarity,Positive*%
%FSLAX46Y46*%
G04 Gerber Fmt 4.6, Leading zero omitted, Abs format (unit mm)*
G04 Created by KiCad (PCBNEW 10.0.1) date 2026-07-14 16:36:56*
%MOMM*%
%LPD*%
G01*
G04 APERTURE LIST*
%ADD10C,0.250000*%
%ADD11C,0.150000*%
%ADD12C,0.158750*%
%ADD13C,0.180000*%
%ADD14C,0.120000*%
G04 APERTURE END LIST*
D10*
X59594234Y8044000D02*
X59822806Y7958285D01*
X59822806Y7958285D02*
X60203758Y7958285D01*
X60203758Y7958285D02*
X60356139Y8044000D01*
X60356139Y8044000D02*
X60432330Y8129714D01*
X60432330Y8129714D02*
X60508520Y8301142D01*
X60508520Y8301142D02*
X60508520Y8472571D01*
X60508520Y8472571D02*
X60432330Y8644000D01*
X60432330Y8644000D02*
X60356139Y8729714D01*
X60356139Y8729714D02*
X60203758Y8815428D01*
X60203758Y8815428D02*
X59898996Y8901142D01*
X59898996Y8901142D02*
X59746615Y8986857D01*
X59746615Y8986857D02*
X59670425Y9072571D01*
X59670425Y9072571D02*
X59594234Y9244000D01*
X59594234Y9244000D02*
X59594234Y9415428D01*
X59594234Y9415428D02*
X59670425Y9586857D01*
X59670425Y9586857D02*
X59746615Y9672571D01*
X59746615Y9672571D02*
X59898996Y9758285D01*
X59898996Y9758285D02*
X60279949Y9758285D01*
X60279949Y9758285D02*
X60508520Y9672571D01*
X61194235Y7958285D02*
X61194235Y9758285D01*
X61194235Y9758285D02*
X61727568Y8472571D01*
X61727568Y8472571D02*
X62260902Y9758285D01*
X62260902Y9758285D02*
X62260902Y7958285D01*
X63022806Y7958285D02*
X63022806Y9758285D01*
X63022806Y9758285D02*
X63403758Y9758285D01*
X63403758Y9758285D02*
X63632330Y9672571D01*
X63632330Y9672571D02*
X63784711Y9501142D01*
X63784711Y9501142D02*
X63860901Y9329714D01*
X63860901Y9329714D02*
X63937092Y8986857D01*
X63937092Y8986857D02*
X63937092Y8729714D01*
X63937092Y8729714D02*
X63860901Y8386857D01*
X63860901Y8386857D02*
X63784711Y8215428D01*
X63784711Y8215428D02*
X63632330Y8044000D01*
X63632330Y8044000D02*
X63403758Y7958285D01*
X63403758Y7958285D02*
X63022806Y7958285D01*
X59594234Y3886857D02*
X59670425Y3972571D01*
X59670425Y3972571D02*
X59822806Y4058285D01*
X59822806Y4058285D02*
X60203758Y4058285D01*
X60203758Y4058285D02*
X60356139Y3972571D01*
X60356139Y3972571D02*
X60432330Y3886857D01*
X60432330Y3886857D02*
X60508520Y3715428D01*
X60508520Y3715428D02*
X60508520Y3544000D01*
X60508520Y3544000D02*
X60432330Y3286857D01*
X60432330Y3286857D02*
X59518044Y2258285D01*
X59518044Y2258285D02*
X60508520Y2258285D01*
X61498997Y4058285D02*
X61651378Y4058285D01*
X61651378Y4058285D02*
X61803759Y3972571D01*
X61803759Y3972571D02*
X61879949Y3886857D01*
X61879949Y3886857D02*
X61956140Y3715428D01*
X61956140Y3715428D02*
X62032330Y3372571D01*
X62032330Y3372571D02*
X62032330Y2944000D01*
X62032330Y2944000D02*
X61956140Y2601142D01*
X61956140Y2601142D02*
X61879949Y2429714D01*
X61879949Y2429714D02*
X61803759Y2344000D01*
X61803759Y2344000D02*
X61651378Y2258285D01*
X61651378Y2258285D02*
X61498997Y2258285D01*
X61498997Y2258285D02*
X61346616Y2344000D01*
X61346616Y2344000D02*
X61270425Y2429714D01*
X61270425Y2429714D02*
X61194235Y2601142D01*
X61194235Y2601142D02*
X61118044Y2944000D01*
X61118044Y2944000D02*
X61118044Y3372571D01*
X61118044Y3372571D02*
X61194235Y3715428D01*
X61194235Y3715428D02*
X61270425Y3886857D01*
X61270425Y3886857D02*
X61346616Y3972571D01*
X61346616Y3972571D02*
X61498997Y4058285D01*
X62641854Y3886857D02*
X62718045Y3972571D01*
X62718045Y3972571D02*
X62870426Y4058285D01*
X62870426Y4058285D02*
X63251378Y4058285D01*
X63251378Y4058285D02*
X63403759Y3972571D01*
X63403759Y3972571D02*
X63479950Y3886857D01*
X63479950Y3886857D02*
X63556140Y3715428D01*
X63556140Y3715428D02*
X63556140Y3544000D01*
X63556140Y3544000D02*
X63479950Y3286857D01*
X63479950Y3286857D02*
X62565664Y2258285D01*
X62565664Y2258285D02*
X63556140Y2258285D01*
X64927569Y4058285D02*
X64622807Y4058285D01*
X64622807Y4058285D02*
X64470426Y3972571D01*
X64470426Y3972571D02*
X64394236Y3886857D01*
X64394236Y3886857D02*
X64241855Y3629714D01*
X64241855Y3629714D02*
X64165664Y3286857D01*
X64165664Y3286857D02*
X64165664Y2601142D01*
X64165664Y2601142D02*
X64241855Y2429714D01*
X64241855Y2429714D02*
X64318045Y2344000D01*
X64318045Y2344000D02*
X64470426Y2258285D01*
X64470426Y2258285D02*
X64775188Y2258285D01*
X64775188Y2258285D02*
X64927569Y2344000D01*
X64927569Y2344000D02*
X65003760Y2429714D01*
X65003760Y2429714D02*
X65079950Y2601142D01*
X65079950Y2601142D02*
X65079950Y3029714D01*
X65079950Y3029714D02*
X65003760Y3201142D01*
X65003760Y3201142D02*
X64927569Y3286857D01*
X64927569Y3286857D02*
X64775188Y3372571D01*
X64775188Y3372571D02*
X64470426Y3372571D01*
X64470426Y3372571D02*
X64318045Y3286857D01*
X64318045Y3286857D02*
X64241855Y3201142D01*
X64241855Y3201142D02*
X64165664Y3029714D01*
X65765665Y2429714D02*
X65841855Y2344000D01*
X65841855Y2344000D02*
X65765665Y2258285D01*
X65765665Y2258285D02*
X65689474Y2344000D01*
X65689474Y2344000D02*
X65765665Y2429714D01*
X65765665Y2429714D02*
X65765665Y2258285D01*
X66832332Y4058285D02*
X66984713Y4058285D01*
X66984713Y4058285D02*
X67137094Y3972571D01*
X67137094Y3972571D02*
X67213284Y3886857D01*
X67213284Y3886857D02*
X67289475Y3715428D01*
X67289475Y3715428D02*
X67365665Y3372571D01*
X67365665Y3372571D02*
X67365665Y2944000D01*
X67365665Y2944000D02*
X67289475Y2601142D01*
X67289475Y2601142D02*
X67213284Y2429714D01*
X67213284Y2429714D02*
X67137094Y2344000D01*
X67137094Y2344000D02*
X66984713Y2258285D01*
X66984713Y2258285D02*
X66832332Y2258285D01*
X66832332Y2258285D02*
X66679951Y2344000D01*
X66679951Y2344000D02*
X66603760Y2429714D01*
X66603760Y2429714D02*
X66527570Y2601142D01*
X66527570Y2601142D02*
X66451379Y2944000D01*
X66451379Y2944000D02*
X66451379Y3372571D01*
X66451379Y3372571D02*
X66527570Y3715428D01*
X66527570Y3715428D02*
X66603760Y3886857D01*
X66603760Y3886857D02*
X66679951Y3972571D01*
X66679951Y3972571D02*
X66832332Y4058285D01*
X67898999Y4058285D02*
X68965666Y4058285D01*
X68965666Y4058285D02*
X68279951Y2258285D01*
X69575190Y2429714D02*
X69651380Y2344000D01*
X69651380Y2344000D02*
X69575190Y2258285D01*
X69575190Y2258285D02*
X69498999Y2344000D01*
X69498999Y2344000D02*
X69575190Y2429714D01*
X69575190Y2429714D02*
X69575190Y2258285D01*
X72775191Y2429714D02*
X72851381Y2344000D01*
X72851381Y2344000D02*
X72775191Y2258285D01*
X72775191Y2258285D02*
X72699000Y2344000D01*
X72699000Y2344000D02*
X72775191Y2429714D01*
X72775191Y2429714D02*
X72775191Y2258285D01*
X59694234Y5672571D02*
X60456139Y5672571D01*
X59541853Y5158285D02*
X60075187Y6958285D01*
X60075187Y6958285D02*
X60608520Y5158285D01*
X61141854Y5844000D02*
X62360902Y5844000D01*
X63122806Y5158285D02*
X63122806Y6958285D01*
X63122806Y6958285D02*
X63503758Y6958285D01*
X63503758Y6958285D02*
X63732330Y6872571D01*
X63732330Y6872571D02*
X63884711Y6701142D01*
X63884711Y6701142D02*
X63960901Y6529714D01*
X63960901Y6529714D02*
X64037092Y6186857D01*
X64037092Y6186857D02*
X64037092Y5929714D01*
X64037092Y5929714D02*
X63960901Y5586857D01*
X63960901Y5586857D02*
X63884711Y5415428D01*
X63884711Y5415428D02*
X63732330Y5244000D01*
X63732330Y5244000D02*
X63503758Y5158285D01*
X63503758Y5158285D02*
X63122806Y5158285D01*
X65941854Y5158285D02*
X65941854Y6958285D01*
X65941854Y6958285D02*
X66322806Y6958285D01*
X66322806Y6958285D02*
X66551378Y6872571D01*
X66551378Y6872571D02*
X66703759Y6701142D01*
X66703759Y6701142D02*
X66779949Y6529714D01*
X66779949Y6529714D02*
X66856140Y6186857D01*
X66856140Y6186857D02*
X66856140Y5929714D01*
X66856140Y5929714D02*
X66779949Y5586857D01*
X66779949Y5586857D02*
X66703759Y5415428D01*
X66703759Y5415428D02*
X66551378Y5244000D01*
X66551378Y5244000D02*
X66322806Y5158285D01*
X66322806Y5158285D02*
X65941854Y5158285D01*
X67541854Y5158285D02*
X67541854Y6358285D01*
X67541854Y6958285D02*
X67465663Y6872571D01*
X67465663Y6872571D02*
X67541854Y6786857D01*
X67541854Y6786857D02*
X67618044Y6872571D01*
X67618044Y6872571D02*
X67541854Y6958285D01*
X67541854Y6958285D02*
X67541854Y6786857D01*
X68227568Y5244000D02*
X68379949Y5158285D01*
X68379949Y5158285D02*
X68684711Y5158285D01*
X68684711Y5158285D02*
X68837092Y5244000D01*
X68837092Y5244000D02*
X68913283Y5415428D01*
X68913283Y5415428D02*
X68913283Y5501142D01*
X68913283Y5501142D02*
X68837092Y5672571D01*
X68837092Y5672571D02*
X68684711Y5758285D01*
X68684711Y5758285D02*
X68456140Y5758285D01*
X68456140Y5758285D02*
X68303759Y5844000D01*
X68303759Y5844000D02*
X68227568Y6015428D01*
X68227568Y6015428D02*
X68227568Y6101142D01*
X68227568Y6101142D02*
X68303759Y6272571D01*
X68303759Y6272571D02*
X68456140Y6358285D01*
X68456140Y6358285D02*
X68684711Y6358285D01*
X68684711Y6358285D02*
X68837092Y6272571D01*
X69598997Y6358285D02*
X69598997Y4558285D01*
X69598997Y6272571D02*
X69751378Y6358285D01*
X69751378Y6358285D02*
X70056140Y6358285D01*
X70056140Y6358285D02*
X70208521Y6272571D01*
X70208521Y6272571D02*
X70284711Y6186857D01*
X70284711Y6186857D02*
X70360902Y6015428D01*
X70360902Y6015428D02*
X70360902Y5501142D01*
X70360902Y5501142D02*
X70284711Y5329714D01*
X70284711Y5329714D02*
X70208521Y5244000D01*
X70208521Y5244000D02*
X70056140Y5158285D01*
X70056140Y5158285D02*
X69751378Y5158285D01*
X69751378Y5158285D02*
X69598997Y5244000D01*
X71275187Y5158285D02*
X71122806Y5244000D01*
X71122806Y5244000D02*
X71046616Y5415428D01*
X71046616Y5415428D02*
X71046616Y6958285D01*
X72570425Y5158285D02*
X72570425Y6101142D01*
X72570425Y6101142D02*
X72494235Y6272571D01*
X72494235Y6272571D02*
X72341854Y6358285D01*
X72341854Y6358285D02*
X72037092Y6358285D01*
X72037092Y6358285D02*
X71884711Y6272571D01*
X72570425Y5244000D02*
X72418044Y5158285D01*
X72418044Y5158285D02*
X72037092Y5158285D01*
X72037092Y5158285D02*
X71884711Y5244000D01*
X71884711Y5244000D02*
X71808520Y5415428D01*
X71808520Y5415428D02*
X71808520Y5586857D01*
X71808520Y5586857D02*
X71884711Y5758285D01*
X71884711Y5758285D02*
X72037092Y5844000D01*
X72037092Y5844000D02*
X72418044Y5844000D01*
X72418044Y5844000D02*
X72570425Y5929714D01*
X73179949Y6358285D02*
X73560901Y5158285D01*
X73941854Y6358285D02*
X73560901Y5158285D01*
X73560901Y5158285D02*
X73408520Y4729714D01*
X73408520Y4729714D02*
X73332330Y4644000D01*
X73332330Y4644000D02*
X73179949Y4558285D01*
X75541854Y6958285D02*
X76075188Y5158285D01*
X76075188Y5158285D02*
X76608521Y6958285D01*
X77903760Y6958285D02*
X77141855Y6958285D01*
X77141855Y6958285D02*
X77065664Y6101142D01*
X77065664Y6101142D02*
X77141855Y6186857D01*
X77141855Y6186857D02*
X77294236Y6272571D01*
X77294236Y6272571D02*
X77675188Y6272571D01*
X77675188Y6272571D02*
X77827569Y6186857D01*
X77827569Y6186857D02*
X77903760Y6101142D01*
X77903760Y6101142D02*
X77979950Y5929714D01*
X77979950Y5929714D02*
X77979950Y5501142D01*
X77979950Y5501142D02*
X77903760Y5329714D01*
X77903760Y5329714D02*
X77827569Y5244000D01*
X77827569Y5244000D02*
X77675188Y5158285D01*
X77675188Y5158285D02*
X77294236Y5158285D01*
X77294236Y5158285D02*
X77141855Y5244000D01*
X77141855Y5244000D02*
X77065664Y5329714D01*
X78665665Y5329714D02*
X78741855Y5244000D01*
X78741855Y5244000D02*
X78665665Y5158285D01*
X78665665Y5158285D02*
X78589474Y5244000D01*
X78589474Y5244000D02*
X78665665Y5329714D01*
X78665665Y5329714D02*
X78665665Y5158285D01*
X79732332Y6958285D02*
X79884713Y6958285D01*
X79884713Y6958285D02*
X80037094Y6872571D01*
X80037094Y6872571D02*
X80113284Y6786857D01*
X80113284Y6786857D02*
X80189475Y6615428D01*
X80189475Y6615428D02*
X80265665Y6272571D01*
X80265665Y6272571D02*
X80265665Y5844000D01*
X80265665Y5844000D02*
X80189475Y5501142D01*
X80189475Y5501142D02*
X80113284Y5329714D01*
X80113284Y5329714D02*
X80037094Y5244000D01*
X80037094Y5244000D02*
X79884713Y5158285D01*
X79884713Y5158285D02*
X79732332Y5158285D01*
X79732332Y5158285D02*
X79579951Y5244000D01*
X79579951Y5244000D02*
X79503760Y5329714D01*
X79503760Y5329714D02*
X79427570Y5501142D01*
X79427570Y5501142D02*
X79351379Y5844000D01*
X79351379Y5844000D02*
X79351379Y6272571D01*
X79351379Y6272571D02*
X79427570Y6615428D01*
X79427570Y6615428D02*
X79503760Y6786857D01*
X79503760Y6786857D02*
X79579951Y6872571D01*
X79579951Y6872571D02*
X79732332Y6958285D01*
D11*
X109516667Y58998919D02*
X109150000Y59522728D01*
X108888095Y58998919D02*
X108888095Y60098919D01*
X108888095Y60098919D02*
X109307143Y60098919D01*
X109307143Y60098919D02*
X109411905Y60046538D01*
X109411905Y60046538D02*
X109464286Y59994157D01*
X109464286Y59994157D02*
X109516667Y59889395D01*
X109516667Y59889395D02*
X109516667Y59732252D01*
X109516667Y59732252D02*
X109464286Y59627490D01*
X109464286Y59627490D02*
X109411905Y59575109D01*
X109411905Y59575109D02*
X109307143Y59522728D01*
X109307143Y59522728D02*
X108888095Y59522728D01*
X110459524Y60098919D02*
X110250000Y60098919D01*
X110250000Y60098919D02*
X110145238Y60046538D01*
X110145238Y60046538D02*
X110092857Y59994157D01*
X110092857Y59994157D02*
X109988095Y59837014D01*
X109988095Y59837014D02*
X109935714Y59627490D01*
X109935714Y59627490D02*
X109935714Y59208442D01*
X109935714Y59208442D02*
X109988095Y59103680D01*
X109988095Y59103680D02*
X110040476Y59051300D01*
X110040476Y59051300D02*
X110145238Y58998919D01*
X110145238Y58998919D02*
X110354762Y58998919D01*
X110354762Y58998919D02*
X110459524Y59051300D01*
X110459524Y59051300D02*
X110511905Y59103680D01*
X110511905Y59103680D02*
X110564286Y59208442D01*
X110564286Y59208442D02*
X110564286Y59470347D01*
X110564286Y59470347D02*
X110511905Y59575109D01*
X110511905Y59575109D02*
X110459524Y59627490D01*
X110459524Y59627490D02*
X110354762Y59679871D01*
X110354762Y59679871D02*
X110145238Y59679871D01*
X110145238Y59679871D02*
X110040476Y59627490D01*
X110040476Y59627490D02*
X109988095Y59575109D01*
X109988095Y59575109D02*
X109935714Y59470347D01*
X56832380Y71265273D02*
X56832380Y70237178D01*
X56832380Y70237178D02*
X56892857Y70116226D01*
X56892857Y70116226D02*
X56953333Y70055750D01*
X56953333Y70055750D02*
X57074285Y69995273D01*
X57074285Y69995273D02*
X57316190Y69995273D01*
X57316190Y69995273D02*
X57437142Y70055750D01*
X57437142Y70055750D02*
X57497619Y70116226D01*
X57497619Y70116226D02*
X57558095Y70237178D01*
X57558095Y70237178D02*
X57558095Y71265273D01*
X58707142Y70841940D02*
X58707142Y69995273D01*
X58404761Y71325750D02*
X58102380Y70418607D01*
X58102380Y70418607D02*
X58888571Y70418607D01*
X102642857Y16573919D02*
X102276190Y17097728D01*
X102014285Y16573919D02*
X102014285Y17673919D01*
X102014285Y17673919D02*
X102433333Y17673919D01*
X102433333Y17673919D02*
X102538095Y17621538D01*
X102538095Y17621538D02*
X102590476Y17569157D01*
X102590476Y17569157D02*
X102642857Y17464395D01*
X102642857Y17464395D02*
X102642857Y17307252D01*
X102642857Y17307252D02*
X102590476Y17202490D01*
X102590476Y17202490D02*
X102538095Y17150109D01*
X102538095Y17150109D02*
X102433333Y17097728D01*
X102433333Y17097728D02*
X102014285Y17097728D01*
X103690476Y16573919D02*
X103061904Y16573919D01*
X103376190Y16573919D02*
X103376190Y17673919D01*
X103376190Y17673919D02*
X103271428Y17516776D01*
X103271428Y17516776D02*
X103166666Y17412014D01*
X103166666Y17412014D02*
X103061904Y17359633D01*
X104057142Y17673919D02*
X104738095Y17673919D01*
X104738095Y17673919D02*
X104371428Y17254871D01*
X104371428Y17254871D02*
X104528571Y17254871D01*
X104528571Y17254871D02*
X104633333Y17202490D01*
X104633333Y17202490D02*
X104685714Y17150109D01*
X104685714Y17150109D02*
X104738095Y17045347D01*
X104738095Y17045347D02*
X104738095Y16783442D01*
X104738095Y16783442D02*
X104685714Y16678680D01*
X104685714Y16678680D02*
X104633333Y16626300D01*
X104633333Y16626300D02*
X104528571Y16573919D01*
X104528571Y16573919D02*
X104214285Y16573919D01*
X104214285Y16573919D02*
X104109523Y16626300D01*
X104109523Y16626300D02*
X104057142Y16678680D01*
X80567857Y16473919D02*
X80201190Y16997728D01*
X79939285Y16473919D02*
X79939285Y17573919D01*
X79939285Y17573919D02*
X80358333Y17573919D01*
X80358333Y17573919D02*
X80463095Y17521538D01*
X80463095Y17521538D02*
X80515476Y17469157D01*
X80515476Y17469157D02*
X80567857Y17364395D01*
X80567857Y17364395D02*
X80567857Y17207252D01*
X80567857Y17207252D02*
X80515476Y17102490D01*
X80515476Y17102490D02*
X80463095Y17050109D01*
X80463095Y17050109D02*
X80358333Y16997728D01*
X80358333Y16997728D02*
X79939285Y16997728D01*
X81615476Y16473919D02*
X80986904Y16473919D01*
X81301190Y16473919D02*
X81301190Y17573919D01*
X81301190Y17573919D02*
X81196428Y17416776D01*
X81196428Y17416776D02*
X81091666Y17312014D01*
X81091666Y17312014D02*
X80986904Y17259633D01*
X82034523Y17469157D02*
X82086904Y17521538D01*
X82086904Y17521538D02*
X82191666Y17573919D01*
X82191666Y17573919D02*
X82453571Y17573919D01*
X82453571Y17573919D02*
X82558333Y17521538D01*
X82558333Y17521538D02*
X82610714Y17469157D01*
X82610714Y17469157D02*
X82663095Y17364395D01*
X82663095Y17364395D02*
X82663095Y17259633D01*
X82663095Y17259633D02*
X82610714Y17102490D01*
X82610714Y17102490D02*
X81982142Y16473919D01*
X81982142Y16473919D02*
X82663095Y16473919D01*
X109516667Y52098919D02*
X109150000Y52622728D01*
X108888095Y52098919D02*
X108888095Y53198919D01*
X108888095Y53198919D02*
X109307143Y53198919D01*
X109307143Y53198919D02*
X109411905Y53146538D01*
X109411905Y53146538D02*
X109464286Y53094157D01*
X109464286Y53094157D02*
X109516667Y52989395D01*
X109516667Y52989395D02*
X109516667Y52832252D01*
X109516667Y52832252D02*
X109464286Y52727490D01*
X109464286Y52727490D02*
X109411905Y52675109D01*
X109411905Y52675109D02*
X109307143Y52622728D01*
X109307143Y52622728D02*
X108888095Y52622728D01*
X110511905Y53198919D02*
X109988095Y53198919D01*
X109988095Y53198919D02*
X109935714Y52675109D01*
X109935714Y52675109D02*
X109988095Y52727490D01*
X109988095Y52727490D02*
X110092857Y52779871D01*
X110092857Y52779871D02*
X110354762Y52779871D01*
X110354762Y52779871D02*
X110459524Y52727490D01*
X110459524Y52727490D02*
X110511905Y52675109D01*
X110511905Y52675109D02*
X110564286Y52570347D01*
X110564286Y52570347D02*
X110564286Y52308442D01*
X110564286Y52308442D02*
X110511905Y52203680D01*
X110511905Y52203680D02*
X110459524Y52151300D01*
X110459524Y52151300D02*
X110354762Y52098919D01*
X110354762Y52098919D02*
X110092857Y52098919D01*
X110092857Y52098919D02*
X109988095Y52151300D01*
X109988095Y52151300D02*
X109935714Y52203680D01*
X37241667Y31853680D02*
X37189286Y31801300D01*
X37189286Y31801300D02*
X37032143Y31748919D01*
X37032143Y31748919D02*
X36927381Y31748919D01*
X36927381Y31748919D02*
X36770238Y31801300D01*
X36770238Y31801300D02*
X36665476Y31906061D01*
X36665476Y31906061D02*
X36613095Y32010823D01*
X36613095Y32010823D02*
X36560714Y32220347D01*
X36560714Y32220347D02*
X36560714Y32377490D01*
X36560714Y32377490D02*
X36613095Y32587014D01*
X36613095Y32587014D02*
X36665476Y32691776D01*
X36665476Y32691776D02*
X36770238Y32796538D01*
X36770238Y32796538D02*
X36927381Y32848919D01*
X36927381Y32848919D02*
X37032143Y32848919D01*
X37032143Y32848919D02*
X37189286Y32796538D01*
X37189286Y32796538D02*
X37241667Y32744157D01*
X37608333Y32848919D02*
X38289286Y32848919D01*
X38289286Y32848919D02*
X37922619Y32429871D01*
X37922619Y32429871D02*
X38079762Y32429871D01*
X38079762Y32429871D02*
X38184524Y32377490D01*
X38184524Y32377490D02*
X38236905Y32325109D01*
X38236905Y32325109D02*
X38289286Y32220347D01*
X38289286Y32220347D02*
X38289286Y31958442D01*
X38289286Y31958442D02*
X38236905Y31853680D01*
X38236905Y31853680D02*
X38184524Y31801300D01*
X38184524Y31801300D02*
X38079762Y31748919D01*
X38079762Y31748919D02*
X37765476Y31748919D01*
X37765476Y31748919D02*
X37660714Y31801300D01*
X37660714Y31801300D02*
X37608333Y31853680D01*
X23292857Y48148919D02*
X22926190Y48672728D01*
X22664285Y48148919D02*
X22664285Y49248919D01*
X22664285Y49248919D02*
X23083333Y49248919D01*
X23083333Y49248919D02*
X23188095Y49196538D01*
X23188095Y49196538D02*
X23240476Y49144157D01*
X23240476Y49144157D02*
X23292857Y49039395D01*
X23292857Y49039395D02*
X23292857Y48882252D01*
X23292857Y48882252D02*
X23240476Y48777490D01*
X23240476Y48777490D02*
X23188095Y48725109D01*
X23188095Y48725109D02*
X23083333Y48672728D01*
X23083333Y48672728D02*
X22664285Y48672728D01*
X24340476Y48148919D02*
X23711904Y48148919D01*
X24026190Y48148919D02*
X24026190Y49248919D01*
X24026190Y49248919D02*
X23921428Y49091776D01*
X23921428Y49091776D02*
X23816666Y48987014D01*
X23816666Y48987014D02*
X23711904Y48934633D01*
X25283333Y48882252D02*
X25283333Y48148919D01*
X25021428Y49301300D02*
X24759523Y48515585D01*
X24759523Y48515585D02*
X25440476Y48515585D01*
X63932380Y47940273D02*
X63932380Y46912178D01*
X63932380Y46912178D02*
X63992857Y46791226D01*
X63992857Y46791226D02*
X64053333Y46730750D01*
X64053333Y46730750D02*
X64174285Y46670273D01*
X64174285Y46670273D02*
X64416190Y46670273D01*
X64416190Y46670273D02*
X64537142Y46730750D01*
X64537142Y46730750D02*
X64597619Y46791226D01*
X64597619Y46791226D02*
X64658095Y46912178D01*
X64658095Y46912178D02*
X64658095Y47940273D01*
X65928095Y46670273D02*
X65202380Y46670273D01*
X65565237Y46670273D02*
X65565237Y47940273D01*
X65565237Y47940273D02*
X65444285Y47758845D01*
X65444285Y47758845D02*
X65323333Y47637892D01*
X65323333Y47637892D02*
X65202380Y47577416D01*
X115792857Y37648919D02*
X115426190Y38172728D01*
X115164285Y37648919D02*
X115164285Y38748919D01*
X115164285Y38748919D02*
X115583333Y38748919D01*
X115583333Y38748919D02*
X115688095Y38696538D01*
X115688095Y38696538D02*
X115740476Y38644157D01*
X115740476Y38644157D02*
X115792857Y38539395D01*
X115792857Y38539395D02*
X115792857Y38382252D01*
X115792857Y38382252D02*
X115740476Y38277490D01*
X115740476Y38277490D02*
X115688095Y38225109D01*
X115688095Y38225109D02*
X115583333Y38172728D01*
X115583333Y38172728D02*
X115164285Y38172728D01*
X116211904Y38644157D02*
X116264285Y38696538D01*
X116264285Y38696538D02*
X116369047Y38748919D01*
X116369047Y38748919D02*
X116630952Y38748919D01*
X116630952Y38748919D02*
X116735714Y38696538D01*
X116735714Y38696538D02*
X116788095Y38644157D01*
X116788095Y38644157D02*
X116840476Y38539395D01*
X116840476Y38539395D02*
X116840476Y38434633D01*
X116840476Y38434633D02*
X116788095Y38277490D01*
X116788095Y38277490D02*
X116159523Y37648919D01*
X116159523Y37648919D02*
X116840476Y37648919D01*
X117521428Y38748919D02*
X117626190Y38748919D01*
X117626190Y38748919D02*
X117730952Y38696538D01*
X117730952Y38696538D02*
X117783333Y38644157D01*
X117783333Y38644157D02*
X117835714Y38539395D01*
X117835714Y38539395D02*
X117888095Y38329871D01*
X117888095Y38329871D02*
X117888095Y38067966D01*
X117888095Y38067966D02*
X117835714Y37858442D01*
X117835714Y37858442D02*
X117783333Y37753680D01*
X117783333Y37753680D02*
X117730952Y37701300D01*
X117730952Y37701300D02*
X117626190Y37648919D01*
X117626190Y37648919D02*
X117521428Y37648919D01*
X117521428Y37648919D02*
X117416666Y37701300D01*
X117416666Y37701300D02*
X117364285Y37753680D01*
X117364285Y37753680D02*
X117311904Y37858442D01*
X117311904Y37858442D02*
X117259523Y38067966D01*
X117259523Y38067966D02*
X117259523Y38329871D01*
X117259523Y38329871D02*
X117311904Y38539395D01*
X117311904Y38539395D02*
X117364285Y38644157D01*
X117364285Y38644157D02*
X117416666Y38696538D01*
X117416666Y38696538D02*
X117521428Y38748919D01*
X115792857Y54648919D02*
X115426190Y55172728D01*
X115164285Y54648919D02*
X115164285Y55748919D01*
X115164285Y55748919D02*
X115583333Y55748919D01*
X115583333Y55748919D02*
X115688095Y55696538D01*
X115688095Y55696538D02*
X115740476Y55644157D01*
X115740476Y55644157D02*
X115792857Y55539395D01*
X115792857Y55539395D02*
X115792857Y55382252D01*
X115792857Y55382252D02*
X115740476Y55277490D01*
X115740476Y55277490D02*
X115688095Y55225109D01*
X115688095Y55225109D02*
X115583333Y55172728D01*
X115583333Y55172728D02*
X115164285Y55172728D01*
X116840476Y54648919D02*
X116211904Y54648919D01*
X116526190Y54648919D02*
X116526190Y55748919D01*
X116526190Y55748919D02*
X116421428Y55591776D01*
X116421428Y55591776D02*
X116316666Y55487014D01*
X116316666Y55487014D02*
X116211904Y55434633D01*
X117469047Y55277490D02*
X117364285Y55329871D01*
X117364285Y55329871D02*
X117311904Y55382252D01*
X117311904Y55382252D02*
X117259523Y55487014D01*
X117259523Y55487014D02*
X117259523Y55539395D01*
X117259523Y55539395D02*
X117311904Y55644157D01*
X117311904Y55644157D02*
X117364285Y55696538D01*
X117364285Y55696538D02*
X117469047Y55748919D01*
X117469047Y55748919D02*
X117678571Y55748919D01*
X117678571Y55748919D02*
X117783333Y55696538D01*
X117783333Y55696538D02*
X117835714Y55644157D01*
X117835714Y55644157D02*
X117888095Y55539395D01*
X117888095Y55539395D02*
X117888095Y55487014D01*
X117888095Y55487014D02*
X117835714Y55382252D01*
X117835714Y55382252D02*
X117783333Y55329871D01*
X117783333Y55329871D02*
X117678571Y55277490D01*
X117678571Y55277490D02*
X117469047Y55277490D01*
X117469047Y55277490D02*
X117364285Y55225109D01*
X117364285Y55225109D02*
X117311904Y55172728D01*
X117311904Y55172728D02*
X117259523Y55067966D01*
X117259523Y55067966D02*
X117259523Y54858442D01*
X117259523Y54858442D02*
X117311904Y54753680D01*
X117311904Y54753680D02*
X117364285Y54701300D01*
X117364285Y54701300D02*
X117469047Y54648919D01*
X117469047Y54648919D02*
X117678571Y54648919D01*
X117678571Y54648919D02*
X117783333Y54701300D01*
X117783333Y54701300D02*
X117835714Y54753680D01*
X117835714Y54753680D02*
X117888095Y54858442D01*
X117888095Y54858442D02*
X117888095Y55067966D01*
X117888095Y55067966D02*
X117835714Y55172728D01*
X117835714Y55172728D02*
X117783333Y55225109D01*
X117783333Y55225109D02*
X117678571Y55277490D01*
X109491667Y66148919D02*
X109125000Y66672728D01*
X108863095Y66148919D02*
X108863095Y67248919D01*
X108863095Y67248919D02*
X109282143Y67248919D01*
X109282143Y67248919D02*
X109386905Y67196538D01*
X109386905Y67196538D02*
X109439286Y67144157D01*
X109439286Y67144157D02*
X109491667Y67039395D01*
X109491667Y67039395D02*
X109491667Y66882252D01*
X109491667Y66882252D02*
X109439286Y66777490D01*
X109439286Y66777490D02*
X109386905Y66725109D01*
X109386905Y66725109D02*
X109282143Y66672728D01*
X109282143Y66672728D02*
X108863095Y66672728D01*
X109858333Y67248919D02*
X110591667Y67248919D01*
X110591667Y67248919D02*
X110120238Y66148919D01*
X23292857Y56648919D02*
X22926190Y57172728D01*
X22664285Y56648919D02*
X22664285Y57748919D01*
X22664285Y57748919D02*
X23083333Y57748919D01*
X23083333Y57748919D02*
X23188095Y57696538D01*
X23188095Y57696538D02*
X23240476Y57644157D01*
X23240476Y57644157D02*
X23292857Y57539395D01*
X23292857Y57539395D02*
X23292857Y57382252D01*
X23292857Y57382252D02*
X23240476Y57277490D01*
X23240476Y57277490D02*
X23188095Y57225109D01*
X23188095Y57225109D02*
X23083333Y57172728D01*
X23083333Y57172728D02*
X22664285Y57172728D01*
X24340476Y56648919D02*
X23711904Y56648919D01*
X24026190Y56648919D02*
X24026190Y57748919D01*
X24026190Y57748919D02*
X23921428Y57591776D01*
X23921428Y57591776D02*
X23816666Y57487014D01*
X23816666Y57487014D02*
X23711904Y57434633D01*
X24707142Y57748919D02*
X25440476Y57748919D01*
X25440476Y57748919D02*
X24969047Y56648919D01*
X28880952Y61085180D02*
X28404762Y61085180D01*
X28404762Y61085180D02*
X28404762Y62085180D01*
X29214286Y61608990D02*
X29547619Y61608990D01*
X29690476Y61085180D02*
X29214286Y61085180D01*
X29214286Y61085180D02*
X29214286Y62085180D01*
X29214286Y62085180D02*
X29690476Y62085180D01*
X30119048Y61085180D02*
X30119048Y62085180D01*
X30119048Y62085180D02*
X30357143Y62085180D01*
X30357143Y62085180D02*
X30500000Y62037561D01*
X30500000Y62037561D02*
X30595238Y61942323D01*
X30595238Y61942323D02*
X30642857Y61847085D01*
X30642857Y61847085D02*
X30690476Y61656609D01*
X30690476Y61656609D02*
X30690476Y61513752D01*
X30690476Y61513752D02*
X30642857Y61323276D01*
X30642857Y61323276D02*
X30595238Y61228038D01*
X30595238Y61228038D02*
X30500000Y61132800D01*
X30500000Y61132800D02*
X30357143Y61085180D01*
X30357143Y61085180D02*
X30119048Y61085180D01*
X31547619Y61751847D02*
X31547619Y61085180D01*
X31309524Y62132800D02*
X31071429Y61418514D01*
X31071429Y61418514D02*
X31690476Y61418514D01*
D12*
X33583333Y65183585D02*
X34188095Y65183585D01*
X33462381Y64820728D02*
X33885714Y66090728D01*
X33885714Y66090728D02*
X34309048Y64820728D01*
X34732380Y64820728D02*
X34732380Y66090728D01*
X34732380Y66090728D02*
X35034761Y66090728D01*
X35034761Y66090728D02*
X35216190Y66030252D01*
X35216190Y66030252D02*
X35337142Y65909300D01*
X35337142Y65909300D02*
X35397619Y65788347D01*
X35397619Y65788347D02*
X35458095Y65546443D01*
X35458095Y65546443D02*
X35458095Y65365014D01*
X35458095Y65365014D02*
X35397619Y65123109D01*
X35397619Y65123109D02*
X35337142Y65002157D01*
X35337142Y65002157D02*
X35216190Y64881205D01*
X35216190Y64881205D02*
X35034761Y64820728D01*
X35034761Y64820728D02*
X34732380Y64820728D01*
X36728095Y64820728D02*
X36304761Y65425490D01*
X36002380Y64820728D02*
X36002380Y66090728D01*
X36002380Y66090728D02*
X36486190Y66090728D01*
X36486190Y66090728D02*
X36607142Y66030252D01*
X36607142Y66030252D02*
X36667619Y65969776D01*
X36667619Y65969776D02*
X36728095Y65848824D01*
X36728095Y65848824D02*
X36728095Y65667395D01*
X36728095Y65667395D02*
X36667619Y65546443D01*
X36667619Y65546443D02*
X36607142Y65485966D01*
X36607142Y65485966D02*
X36486190Y65425490D01*
X36486190Y65425490D02*
X36002380Y65425490D01*
X37514285Y65425490D02*
X37514285Y64820728D01*
X37090952Y66090728D02*
X37514285Y65425490D01*
X37514285Y65425490D02*
X37937619Y66090728D01*
D11*
X128880952Y61085180D02*
X128404762Y61085180D01*
X128404762Y61085180D02*
X128404762Y62085180D01*
X129214286Y61608990D02*
X129547619Y61608990D01*
X129690476Y61085180D02*
X129214286Y61085180D01*
X129214286Y61085180D02*
X129214286Y62085180D01*
X129214286Y62085180D02*
X129690476Y62085180D01*
X130119048Y61085180D02*
X130119048Y62085180D01*
X130119048Y62085180D02*
X130357143Y62085180D01*
X130357143Y62085180D02*
X130500000Y62037561D01*
X130500000Y62037561D02*
X130595238Y61942323D01*
X130595238Y61942323D02*
X130642857Y61847085D01*
X130642857Y61847085D02*
X130690476Y61656609D01*
X130690476Y61656609D02*
X130690476Y61513752D01*
X130690476Y61513752D02*
X130642857Y61323276D01*
X130642857Y61323276D02*
X130595238Y61228038D01*
X130595238Y61228038D02*
X130500000Y61132800D01*
X130500000Y61132800D02*
X130357143Y61085180D01*
X130357143Y61085180D02*
X130119048Y61085180D01*
X131642857Y61085180D02*
X131071429Y61085180D01*
X131357143Y61085180D02*
X131357143Y62085180D01*
X131357143Y62085180D02*
X131261905Y61942323D01*
X131261905Y61942323D02*
X131166667Y61847085D01*
X131166667Y61847085D02*
X131071429Y61799466D01*
D12*
X122451429Y65585966D02*
X122632857Y65525490D01*
X122632857Y65525490D02*
X122693334Y65465014D01*
X122693334Y65465014D02*
X122753810Y65344062D01*
X122753810Y65344062D02*
X122753810Y65162633D01*
X122753810Y65162633D02*
X122693334Y65041681D01*
X122693334Y65041681D02*
X122632857Y64981205D01*
X122632857Y64981205D02*
X122511905Y64920728D01*
X122511905Y64920728D02*
X122028095Y64920728D01*
X122028095Y64920728D02*
X122028095Y66190728D01*
X122028095Y66190728D02*
X122451429Y66190728D01*
X122451429Y66190728D02*
X122572381Y66130252D01*
X122572381Y66130252D02*
X122632857Y66069776D01*
X122632857Y66069776D02*
X122693334Y65948824D01*
X122693334Y65948824D02*
X122693334Y65827871D01*
X122693334Y65827871D02*
X122632857Y65706919D01*
X122632857Y65706919D02*
X122572381Y65646443D01*
X122572381Y65646443D02*
X122451429Y65585966D01*
X122451429Y65585966D02*
X122028095Y65585966D01*
X123298095Y64920728D02*
X123298095Y66190728D01*
X123298095Y66190728D02*
X123600476Y66190728D01*
X123600476Y66190728D02*
X123781905Y66130252D01*
X123781905Y66130252D02*
X123902857Y66009300D01*
X123902857Y66009300D02*
X123963334Y65888347D01*
X123963334Y65888347D02*
X124023810Y65646443D01*
X124023810Y65646443D02*
X124023810Y65465014D01*
X124023810Y65465014D02*
X123963334Y65223109D01*
X123963334Y65223109D02*
X123902857Y65102157D01*
X123902857Y65102157D02*
X123781905Y64981205D01*
X123781905Y64981205D02*
X123600476Y64920728D01*
X123600476Y64920728D02*
X123298095Y64920728D01*
X125293810Y64920728D02*
X124870476Y65525490D01*
X124568095Y64920728D02*
X124568095Y66190728D01*
X124568095Y66190728D02*
X125051905Y66190728D01*
X125051905Y66190728D02*
X125172857Y66130252D01*
X125172857Y66130252D02*
X125233334Y66069776D01*
X125233334Y66069776D02*
X125293810Y65948824D01*
X125293810Y65948824D02*
X125293810Y65767395D01*
X125293810Y65767395D02*
X125233334Y65646443D01*
X125233334Y65646443D02*
X125172857Y65585966D01*
X125172857Y65585966D02*
X125051905Y65525490D01*
X125051905Y65525490D02*
X124568095Y65525490D01*
X126080000Y65525490D02*
X126080000Y64920728D01*
X125656667Y66190728D02*
X126080000Y65525490D01*
X126080000Y65525490D02*
X126503334Y66190728D01*
D11*
X59291667Y31828680D02*
X59239286Y31776300D01*
X59239286Y31776300D02*
X59082143Y31723919D01*
X59082143Y31723919D02*
X58977381Y31723919D01*
X58977381Y31723919D02*
X58820238Y31776300D01*
X58820238Y31776300D02*
X58715476Y31881061D01*
X58715476Y31881061D02*
X58663095Y31985823D01*
X58663095Y31985823D02*
X58610714Y32195347D01*
X58610714Y32195347D02*
X58610714Y32352490D01*
X58610714Y32352490D02*
X58663095Y32562014D01*
X58663095Y32562014D02*
X58715476Y32666776D01*
X58715476Y32666776D02*
X58820238Y32771538D01*
X58820238Y32771538D02*
X58977381Y32823919D01*
X58977381Y32823919D02*
X59082143Y32823919D01*
X59082143Y32823919D02*
X59239286Y32771538D01*
X59239286Y32771538D02*
X59291667Y32719157D01*
X60234524Y32457252D02*
X60234524Y31723919D01*
X59972619Y32876300D02*
X59710714Y32090585D01*
X59710714Y32090585D02*
X60391667Y32090585D01*
X28880952Y52585180D02*
X28404762Y52585180D01*
X28404762Y52585180D02*
X28404762Y53585180D01*
X29214286Y53108990D02*
X29547619Y53108990D01*
X29690476Y52585180D02*
X29214286Y52585180D01*
X29214286Y52585180D02*
X29214286Y53585180D01*
X29214286Y53585180D02*
X29690476Y53585180D01*
X30119048Y52585180D02*
X30119048Y53585180D01*
X30119048Y53585180D02*
X30357143Y53585180D01*
X30357143Y53585180D02*
X30500000Y53537561D01*
X30500000Y53537561D02*
X30595238Y53442323D01*
X30595238Y53442323D02*
X30642857Y53347085D01*
X30642857Y53347085D02*
X30690476Y53156609D01*
X30690476Y53156609D02*
X30690476Y53013752D01*
X30690476Y53013752D02*
X30642857Y52823276D01*
X30642857Y52823276D02*
X30595238Y52728038D01*
X30595238Y52728038D02*
X30500000Y52632800D01*
X30500000Y52632800D02*
X30357143Y52585180D01*
X30357143Y52585180D02*
X30119048Y52585180D01*
X31595238Y53585180D02*
X31119048Y53585180D01*
X31119048Y53585180D02*
X31071429Y53108990D01*
X31071429Y53108990D02*
X31119048Y53156609D01*
X31119048Y53156609D02*
X31214286Y53204228D01*
X31214286Y53204228D02*
X31452381Y53204228D01*
X31452381Y53204228D02*
X31547619Y53156609D01*
X31547619Y53156609D02*
X31595238Y53108990D01*
X31595238Y53108990D02*
X31642857Y53013752D01*
X31642857Y53013752D02*
X31642857Y52775657D01*
X31642857Y52775657D02*
X31595238Y52680419D01*
X31595238Y52680419D02*
X31547619Y52632800D01*
X31547619Y52632800D02*
X31452381Y52585180D01*
X31452381Y52585180D02*
X31214286Y52585180D01*
X31214286Y52585180D02*
X31119048Y52632800D01*
X31119048Y52632800D02*
X31071429Y52680419D01*
D12*
X33552857Y56783585D02*
X34157619Y56783585D01*
X33431905Y56420728D02*
X33855238Y57690728D01*
X33855238Y57690728D02*
X34278572Y56420728D01*
X34701904Y56420728D02*
X34701904Y57690728D01*
X34701904Y57690728D02*
X35185714Y57690728D01*
X35185714Y57690728D02*
X35306666Y57630252D01*
X35306666Y57630252D02*
X35367143Y57569776D01*
X35367143Y57569776D02*
X35427619Y57448824D01*
X35427619Y57448824D02*
X35427619Y57267395D01*
X35427619Y57267395D02*
X35367143Y57146443D01*
X35367143Y57146443D02*
X35306666Y57085966D01*
X35306666Y57085966D02*
X35185714Y57025490D01*
X35185714Y57025490D02*
X34701904Y57025490D01*
X35971904Y57690728D02*
X35971904Y56662633D01*
X35971904Y56662633D02*
X36032381Y56541681D01*
X36032381Y56541681D02*
X36092857Y56481205D01*
X36092857Y56481205D02*
X36213809Y56420728D01*
X36213809Y56420728D02*
X36455714Y56420728D01*
X36455714Y56420728D02*
X36576666Y56481205D01*
X36576666Y56481205D02*
X36637143Y56541681D01*
X36637143Y56541681D02*
X36697619Y56662633D01*
X36697619Y56662633D02*
X36697619Y57690728D01*
X38028095Y56420728D02*
X37604761Y57025490D01*
X37302380Y56420728D02*
X37302380Y57690728D01*
X37302380Y57690728D02*
X37786190Y57690728D01*
X37786190Y57690728D02*
X37907142Y57630252D01*
X37907142Y57630252D02*
X37967619Y57569776D01*
X37967619Y57569776D02*
X38028095Y57448824D01*
X38028095Y57448824D02*
X38028095Y57267395D01*
X38028095Y57267395D02*
X37967619Y57146443D01*
X37967619Y57146443D02*
X37907142Y57085966D01*
X37907142Y57085966D02*
X37786190Y57025490D01*
X37786190Y57025490D02*
X37302380Y57025490D01*
X39237619Y57630252D02*
X39116666Y57690728D01*
X39116666Y57690728D02*
X38935238Y57690728D01*
X38935238Y57690728D02*
X38753809Y57630252D01*
X38753809Y57630252D02*
X38632857Y57509300D01*
X38632857Y57509300D02*
X38572380Y57388347D01*
X38572380Y57388347D02*
X38511904Y57146443D01*
X38511904Y57146443D02*
X38511904Y56965014D01*
X38511904Y56965014D02*
X38572380Y56723109D01*
X38572380Y56723109D02*
X38632857Y56602157D01*
X38632857Y56602157D02*
X38753809Y56481205D01*
X38753809Y56481205D02*
X38935238Y56420728D01*
X38935238Y56420728D02*
X39056190Y56420728D01*
X39056190Y56420728D02*
X39237619Y56481205D01*
X39237619Y56481205D02*
X39298095Y56541681D01*
X39298095Y56541681D02*
X39298095Y56965014D01*
X39298095Y56965014D02*
X39056190Y56965014D01*
X39842380Y57085966D02*
X40265714Y57085966D01*
X40447142Y56420728D02*
X39842380Y56420728D01*
X39842380Y56420728D02*
X39842380Y57690728D01*
X39842380Y57690728D02*
X40447142Y57690728D01*
D11*
X23292857Y39648919D02*
X22926190Y40172728D01*
X22664285Y39648919D02*
X22664285Y40748919D01*
X22664285Y40748919D02*
X23083333Y40748919D01*
X23083333Y40748919D02*
X23188095Y40696538D01*
X23188095Y40696538D02*
X23240476Y40644157D01*
X23240476Y40644157D02*
X23292857Y40539395D01*
X23292857Y40539395D02*
X23292857Y40382252D01*
X23292857Y40382252D02*
X23240476Y40277490D01*
X23240476Y40277490D02*
X23188095Y40225109D01*
X23188095Y40225109D02*
X23083333Y40172728D01*
X23083333Y40172728D02*
X22664285Y40172728D01*
X24340476Y39648919D02*
X23711904Y39648919D01*
X24026190Y39648919D02*
X24026190Y40748919D01*
X24026190Y40748919D02*
X23921428Y40591776D01*
X23921428Y40591776D02*
X23816666Y40487014D01*
X23816666Y40487014D02*
X23711904Y40434633D01*
X24864285Y39648919D02*
X25073809Y39648919D01*
X25073809Y39648919D02*
X25178571Y39701300D01*
X25178571Y39701300D02*
X25230952Y39753680D01*
X25230952Y39753680D02*
X25335714Y39910823D01*
X25335714Y39910823D02*
X25388095Y40120347D01*
X25388095Y40120347D02*
X25388095Y40539395D01*
X25388095Y40539395D02*
X25335714Y40644157D01*
X25335714Y40644157D02*
X25283333Y40696538D01*
X25283333Y40696538D02*
X25178571Y40748919D01*
X25178571Y40748919D02*
X24969047Y40748919D01*
X24969047Y40748919D02*
X24864285Y40696538D01*
X24864285Y40696538D02*
X24811904Y40644157D01*
X24811904Y40644157D02*
X24759523Y40539395D01*
X24759523Y40539395D02*
X24759523Y40277490D01*
X24759523Y40277490D02*
X24811904Y40172728D01*
X24811904Y40172728D02*
X24864285Y40120347D01*
X24864285Y40120347D02*
X24969047Y40067966D01*
X24969047Y40067966D02*
X25178571Y40067966D01*
X25178571Y40067966D02*
X25283333Y40120347D01*
X25283333Y40120347D02*
X25335714Y40172728D01*
X25335714Y40172728D02*
X25388095Y40277490D01*
X23292857Y63148919D02*
X22926190Y63672728D01*
X22664285Y63148919D02*
X22664285Y64248919D01*
X22664285Y64248919D02*
X23083333Y64248919D01*
X23083333Y64248919D02*
X23188095Y64196538D01*
X23188095Y64196538D02*
X23240476Y64144157D01*
X23240476Y64144157D02*
X23292857Y64039395D01*
X23292857Y64039395D02*
X23292857Y63882252D01*
X23292857Y63882252D02*
X23240476Y63777490D01*
X23240476Y63777490D02*
X23188095Y63725109D01*
X23188095Y63725109D02*
X23083333Y63672728D01*
X23083333Y63672728D02*
X22664285Y63672728D01*
X24340476Y63148919D02*
X23711904Y63148919D01*
X24026190Y63148919D02*
X24026190Y64248919D01*
X24026190Y64248919D02*
X23921428Y64091776D01*
X23921428Y64091776D02*
X23816666Y63987014D01*
X23816666Y63987014D02*
X23711904Y63934633D01*
X25335714Y64248919D02*
X24811904Y64248919D01*
X24811904Y64248919D02*
X24759523Y63725109D01*
X24759523Y63725109D02*
X24811904Y63777490D01*
X24811904Y63777490D02*
X24916666Y63829871D01*
X24916666Y63829871D02*
X25178571Y63829871D01*
X25178571Y63829871D02*
X25283333Y63777490D01*
X25283333Y63777490D02*
X25335714Y63725109D01*
X25335714Y63725109D02*
X25388095Y63620347D01*
X25388095Y63620347D02*
X25388095Y63358442D01*
X25388095Y63358442D02*
X25335714Y63253680D01*
X25335714Y63253680D02*
X25283333Y63201300D01*
X25283333Y63201300D02*
X25178571Y63148919D01*
X25178571Y63148919D02*
X24916666Y63148919D01*
X24916666Y63148919D02*
X24811904Y63201300D01*
X24811904Y63201300D02*
X24759523Y63253680D01*
X117816667Y35253680D02*
X117764286Y35201300D01*
X117764286Y35201300D02*
X117607143Y35148919D01*
X117607143Y35148919D02*
X117502381Y35148919D01*
X117502381Y35148919D02*
X117345238Y35201300D01*
X117345238Y35201300D02*
X117240476Y35306061D01*
X117240476Y35306061D02*
X117188095Y35410823D01*
X117188095Y35410823D02*
X117135714Y35620347D01*
X117135714Y35620347D02*
X117135714Y35777490D01*
X117135714Y35777490D02*
X117188095Y35987014D01*
X117188095Y35987014D02*
X117240476Y36091776D01*
X117240476Y36091776D02*
X117345238Y36196538D01*
X117345238Y36196538D02*
X117502381Y36248919D01*
X117502381Y36248919D02*
X117607143Y36248919D01*
X117607143Y36248919D02*
X117764286Y36196538D01*
X117764286Y36196538D02*
X117816667Y36144157D01*
X118235714Y36144157D02*
X118288095Y36196538D01*
X118288095Y36196538D02*
X118392857Y36248919D01*
X118392857Y36248919D02*
X118654762Y36248919D01*
X118654762Y36248919D02*
X118759524Y36196538D01*
X118759524Y36196538D02*
X118811905Y36144157D01*
X118811905Y36144157D02*
X118864286Y36039395D01*
X118864286Y36039395D02*
X118864286Y35934633D01*
X118864286Y35934633D02*
X118811905Y35777490D01*
X118811905Y35777490D02*
X118183333Y35148919D01*
X118183333Y35148919D02*
X118864286Y35148919D01*
X110561904Y42098919D02*
X110561904Y41208442D01*
X110561904Y41208442D02*
X110614285Y41103680D01*
X110614285Y41103680D02*
X110666666Y41051300D01*
X110666666Y41051300D02*
X110771428Y40998919D01*
X110771428Y40998919D02*
X110980952Y40998919D01*
X110980952Y40998919D02*
X111085714Y41051300D01*
X111085714Y41051300D02*
X111138095Y41103680D01*
X111138095Y41103680D02*
X111190476Y41208442D01*
X111190476Y41208442D02*
X111190476Y42098919D01*
X111661904Y41994157D02*
X111714285Y42046538D01*
X111714285Y42046538D02*
X111819047Y42098919D01*
X111819047Y42098919D02*
X112080952Y42098919D01*
X112080952Y42098919D02*
X112185714Y42046538D01*
X112185714Y42046538D02*
X112238095Y41994157D01*
X112238095Y41994157D02*
X112290476Y41889395D01*
X112290476Y41889395D02*
X112290476Y41784633D01*
X112290476Y41784633D02*
X112238095Y41627490D01*
X112238095Y41627490D02*
X111609523Y40998919D01*
X111609523Y40998919D02*
X112290476Y40998919D01*
X128880952Y35585180D02*
X128404762Y35585180D01*
X128404762Y35585180D02*
X128404762Y36585180D01*
X129214286Y36108990D02*
X129547619Y36108990D01*
X129690476Y35585180D02*
X129214286Y35585180D01*
X129214286Y35585180D02*
X129214286Y36585180D01*
X129214286Y36585180D02*
X129690476Y36585180D01*
X130119048Y35585180D02*
X130119048Y36585180D01*
X130119048Y36585180D02*
X130357143Y36585180D01*
X130357143Y36585180D02*
X130500000Y36537561D01*
X130500000Y36537561D02*
X130595238Y36442323D01*
X130595238Y36442323D02*
X130642857Y36347085D01*
X130642857Y36347085D02*
X130690476Y36156609D01*
X130690476Y36156609D02*
X130690476Y36013752D01*
X130690476Y36013752D02*
X130642857Y35823276D01*
X130642857Y35823276D02*
X130595238Y35728038D01*
X130595238Y35728038D02*
X130500000Y35632800D01*
X130500000Y35632800D02*
X130357143Y35585180D01*
X130357143Y35585180D02*
X130119048Y35585180D01*
X131261905Y36156609D02*
X131166667Y36204228D01*
X131166667Y36204228D02*
X131119048Y36251847D01*
X131119048Y36251847D02*
X131071429Y36347085D01*
X131071429Y36347085D02*
X131071429Y36394704D01*
X131071429Y36394704D02*
X131119048Y36489942D01*
X131119048Y36489942D02*
X131166667Y36537561D01*
X131166667Y36537561D02*
X131261905Y36585180D01*
X131261905Y36585180D02*
X131452381Y36585180D01*
X131452381Y36585180D02*
X131547619Y36537561D01*
X131547619Y36537561D02*
X131595238Y36489942D01*
X131595238Y36489942D02*
X131642857Y36394704D01*
X131642857Y36394704D02*
X131642857Y36347085D01*
X131642857Y36347085D02*
X131595238Y36251847D01*
X131595238Y36251847D02*
X131547619Y36204228D01*
X131547619Y36204228D02*
X131452381Y36156609D01*
X131452381Y36156609D02*
X131261905Y36156609D01*
X131261905Y36156609D02*
X131166667Y36108990D01*
X131166667Y36108990D02*
X131119048Y36061371D01*
X131119048Y36061371D02*
X131071429Y35966133D01*
X131071429Y35966133D02*
X131071429Y35775657D01*
X131071429Y35775657D02*
X131119048Y35680419D01*
X131119048Y35680419D02*
X131166667Y35632800D01*
X131166667Y35632800D02*
X131261905Y35585180D01*
X131261905Y35585180D02*
X131452381Y35585180D01*
X131452381Y35585180D02*
X131547619Y35632800D01*
X131547619Y35632800D02*
X131595238Y35680419D01*
X131595238Y35680419D02*
X131642857Y35775657D01*
X131642857Y35775657D02*
X131642857Y35966133D01*
X131642857Y35966133D02*
X131595238Y36061371D01*
X131595238Y36061371D02*
X131547619Y36108990D01*
X131547619Y36108990D02*
X131452381Y36156609D01*
D12*
X121859524Y39395728D02*
X121254762Y39395728D01*
X121254762Y39395728D02*
X121254762Y40665728D01*
X122524762Y40665728D02*
X122766667Y40665728D01*
X122766667Y40665728D02*
X122887619Y40605252D01*
X122887619Y40605252D02*
X123008572Y40484300D01*
X123008572Y40484300D02*
X123069048Y40242395D01*
X123069048Y40242395D02*
X123069048Y39819062D01*
X123069048Y39819062D02*
X123008572Y39577157D01*
X123008572Y39577157D02*
X122887619Y39456205D01*
X122887619Y39456205D02*
X122766667Y39395728D01*
X122766667Y39395728D02*
X122524762Y39395728D01*
X122524762Y39395728D02*
X122403810Y39456205D01*
X122403810Y39456205D02*
X122282857Y39577157D01*
X122282857Y39577157D02*
X122222381Y39819062D01*
X122222381Y39819062D02*
X122222381Y40242395D01*
X122222381Y40242395D02*
X122282857Y40484300D01*
X122282857Y40484300D02*
X122403810Y40605252D01*
X122403810Y40605252D02*
X122524762Y40665728D01*
X124339048Y39516681D02*
X124278572Y39456205D01*
X124278572Y39456205D02*
X124097143Y39395728D01*
X124097143Y39395728D02*
X123976191Y39395728D01*
X123976191Y39395728D02*
X123794762Y39456205D01*
X123794762Y39456205D02*
X123673810Y39577157D01*
X123673810Y39577157D02*
X123613333Y39698109D01*
X123613333Y39698109D02*
X123552857Y39940014D01*
X123552857Y39940014D02*
X123552857Y40121443D01*
X123552857Y40121443D02*
X123613333Y40363347D01*
X123613333Y40363347D02*
X123673810Y40484300D01*
X123673810Y40484300D02*
X123794762Y40605252D01*
X123794762Y40605252D02*
X123976191Y40665728D01*
X123976191Y40665728D02*
X124097143Y40665728D01*
X124097143Y40665728D02*
X124278572Y40605252D01*
X124278572Y40605252D02*
X124339048Y40544776D01*
X124822857Y39758585D02*
X125427619Y39758585D01*
X124701905Y39395728D02*
X125125238Y40665728D01*
X125125238Y40665728D02*
X125548572Y39395728D01*
X126576666Y39395728D02*
X125971904Y39395728D01*
X125971904Y39395728D02*
X125971904Y40665728D01*
D11*
X28880952Y44085180D02*
X28404762Y44085180D01*
X28404762Y44085180D02*
X28404762Y45085180D01*
X29214286Y44608990D02*
X29547619Y44608990D01*
X29690476Y44085180D02*
X29214286Y44085180D01*
X29214286Y44085180D02*
X29214286Y45085180D01*
X29214286Y45085180D02*
X29690476Y45085180D01*
X30119048Y44085180D02*
X30119048Y45085180D01*
X30119048Y45085180D02*
X30357143Y45085180D01*
X30357143Y45085180D02*
X30500000Y45037561D01*
X30500000Y45037561D02*
X30595238Y44942323D01*
X30595238Y44942323D02*
X30642857Y44847085D01*
X30642857Y44847085D02*
X30690476Y44656609D01*
X30690476Y44656609D02*
X30690476Y44513752D01*
X30690476Y44513752D02*
X30642857Y44323276D01*
X30642857Y44323276D02*
X30595238Y44228038D01*
X30595238Y44228038D02*
X30500000Y44132800D01*
X30500000Y44132800D02*
X30357143Y44085180D01*
X30357143Y44085180D02*
X30119048Y44085180D01*
X31023810Y45085180D02*
X31642857Y45085180D01*
X31642857Y45085180D02*
X31309524Y44704228D01*
X31309524Y44704228D02*
X31452381Y44704228D01*
X31452381Y44704228D02*
X31547619Y44656609D01*
X31547619Y44656609D02*
X31595238Y44608990D01*
X31595238Y44608990D02*
X31642857Y44513752D01*
X31642857Y44513752D02*
X31642857Y44275657D01*
X31642857Y44275657D02*
X31595238Y44180419D01*
X31595238Y44180419D02*
X31547619Y44132800D01*
X31547619Y44132800D02*
X31452381Y44085180D01*
X31452381Y44085180D02*
X31166667Y44085180D01*
X31166667Y44085180D02*
X31071429Y44132800D01*
X31071429Y44132800D02*
X31023810Y44180419D01*
D12*
X33432856Y47920728D02*
X33432856Y49190728D01*
X33432856Y49190728D02*
X33916666Y49190728D01*
X33916666Y49190728D02*
X34037618Y49130252D01*
X34037618Y49130252D02*
X34098095Y49069776D01*
X34098095Y49069776D02*
X34158571Y48948824D01*
X34158571Y48948824D02*
X34158571Y48767395D01*
X34158571Y48767395D02*
X34098095Y48646443D01*
X34098095Y48646443D02*
X34037618Y48585966D01*
X34037618Y48585966D02*
X33916666Y48525490D01*
X33916666Y48525490D02*
X33432856Y48525490D01*
X35428571Y47920728D02*
X35005237Y48525490D01*
X34702856Y47920728D02*
X34702856Y49190728D01*
X34702856Y49190728D02*
X35186666Y49190728D01*
X35186666Y49190728D02*
X35307618Y49130252D01*
X35307618Y49130252D02*
X35368095Y49069776D01*
X35368095Y49069776D02*
X35428571Y48948824D01*
X35428571Y48948824D02*
X35428571Y48767395D01*
X35428571Y48767395D02*
X35368095Y48646443D01*
X35368095Y48646443D02*
X35307618Y48585966D01*
X35307618Y48585966D02*
X35186666Y48525490D01*
X35186666Y48525490D02*
X34702856Y48525490D01*
X35972856Y48585966D02*
X36396190Y48585966D01*
X36577618Y47920728D02*
X35972856Y47920728D01*
X35972856Y47920728D02*
X35972856Y49190728D01*
X35972856Y49190728D02*
X36577618Y49190728D01*
D11*
X81366667Y31928680D02*
X81314286Y31876300D01*
X81314286Y31876300D02*
X81157143Y31823919D01*
X81157143Y31823919D02*
X81052381Y31823919D01*
X81052381Y31823919D02*
X80895238Y31876300D01*
X80895238Y31876300D02*
X80790476Y31981061D01*
X80790476Y31981061D02*
X80738095Y32085823D01*
X80738095Y32085823D02*
X80685714Y32295347D01*
X80685714Y32295347D02*
X80685714Y32452490D01*
X80685714Y32452490D02*
X80738095Y32662014D01*
X80738095Y32662014D02*
X80790476Y32766776D01*
X80790476Y32766776D02*
X80895238Y32871538D01*
X80895238Y32871538D02*
X81052381Y32923919D01*
X81052381Y32923919D02*
X81157143Y32923919D01*
X81157143Y32923919D02*
X81314286Y32871538D01*
X81314286Y32871538D02*
X81366667Y32819157D01*
X82361905Y32923919D02*
X81838095Y32923919D01*
X81838095Y32923919D02*
X81785714Y32400109D01*
X81785714Y32400109D02*
X81838095Y32452490D01*
X81838095Y32452490D02*
X81942857Y32504871D01*
X81942857Y32504871D02*
X82204762Y32504871D01*
X82204762Y32504871D02*
X82309524Y32452490D01*
X82309524Y32452490D02*
X82361905Y32400109D01*
X82361905Y32400109D02*
X82414286Y32295347D01*
X82414286Y32295347D02*
X82414286Y32033442D01*
X82414286Y32033442D02*
X82361905Y31928680D01*
X82361905Y31928680D02*
X82309524Y31876300D01*
X82309524Y31876300D02*
X82204762Y31823919D01*
X82204762Y31823919D02*
X81942857Y31823919D01*
X81942857Y31823919D02*
X81838095Y31876300D01*
X81838095Y31876300D02*
X81785714Y31928680D01*
X95916667Y35303680D02*
X95864286Y35251300D01*
X95864286Y35251300D02*
X95707143Y35198919D01*
X95707143Y35198919D02*
X95602381Y35198919D01*
X95602381Y35198919D02*
X95445238Y35251300D01*
X95445238Y35251300D02*
X95340476Y35356061D01*
X95340476Y35356061D02*
X95288095Y35460823D01*
X95288095Y35460823D02*
X95235714Y35670347D01*
X95235714Y35670347D02*
X95235714Y35827490D01*
X95235714Y35827490D02*
X95288095Y36037014D01*
X95288095Y36037014D02*
X95340476Y36141776D01*
X95340476Y36141776D02*
X95445238Y36246538D01*
X95445238Y36246538D02*
X95602381Y36298919D01*
X95602381Y36298919D02*
X95707143Y36298919D01*
X95707143Y36298919D02*
X95864286Y36246538D01*
X95864286Y36246538D02*
X95916667Y36194157D01*
X96964286Y35198919D02*
X96335714Y35198919D01*
X96650000Y35198919D02*
X96650000Y36298919D01*
X96650000Y36298919D02*
X96545238Y36141776D01*
X96545238Y36141776D02*
X96440476Y36037014D01*
X96440476Y36037014D02*
X96335714Y35984633D01*
X67218095Y33508919D02*
X67846667Y33508919D01*
X67532381Y32408919D02*
X67532381Y33508919D01*
X68160952Y32461300D02*
X68318095Y32408919D01*
X68318095Y32408919D02*
X68580000Y32408919D01*
X68580000Y32408919D02*
X68684762Y32461300D01*
X68684762Y32461300D02*
X68737143Y32513680D01*
X68737143Y32513680D02*
X68789524Y32618442D01*
X68789524Y32618442D02*
X68789524Y32723204D01*
X68789524Y32723204D02*
X68737143Y32827966D01*
X68737143Y32827966D02*
X68684762Y32880347D01*
X68684762Y32880347D02*
X68580000Y32932728D01*
X68580000Y32932728D02*
X68370476Y32985109D01*
X68370476Y32985109D02*
X68265714Y33037490D01*
X68265714Y33037490D02*
X68213333Y33089871D01*
X68213333Y33089871D02*
X68160952Y33194633D01*
X68160952Y33194633D02*
X68160952Y33299395D01*
X68160952Y33299395D02*
X68213333Y33404157D01*
X68213333Y33404157D02*
X68265714Y33456538D01*
X68265714Y33456538D02*
X68370476Y33508919D01*
X68370476Y33508919D02*
X68632381Y33508919D01*
X68632381Y33508919D02*
X68789524Y33456538D01*
X69208571Y33404157D02*
X69260952Y33456538D01*
X69260952Y33456538D02*
X69365714Y33508919D01*
X69365714Y33508919D02*
X69627619Y33508919D01*
X69627619Y33508919D02*
X69732381Y33456538D01*
X69732381Y33456538D02*
X69784762Y33404157D01*
X69784762Y33404157D02*
X69837143Y33299395D01*
X69837143Y33299395D02*
X69837143Y33194633D01*
X69837143Y33194633D02*
X69784762Y33037490D01*
X69784762Y33037490D02*
X69156190Y32408919D01*
X69156190Y32408919D02*
X69837143Y32408919D01*
X67702142Y17190273D02*
X67702142Y16162178D01*
X67702142Y16162178D02*
X67762619Y16041226D01*
X67762619Y16041226D02*
X67823095Y15980750D01*
X67823095Y15980750D02*
X67944047Y15920273D01*
X67944047Y15920273D02*
X68185952Y15920273D01*
X68185952Y15920273D02*
X68306904Y15980750D01*
X68306904Y15980750D02*
X68367381Y16041226D01*
X68367381Y16041226D02*
X68427857Y16162178D01*
X68427857Y16162178D02*
X68427857Y17190273D01*
X69032618Y15920273D02*
X69032618Y17190273D01*
X69032618Y17190273D02*
X69516428Y17190273D01*
X69516428Y17190273D02*
X69637380Y17129797D01*
X69637380Y17129797D02*
X69697857Y17069321D01*
X69697857Y17069321D02*
X69758333Y16948369D01*
X69758333Y16948369D02*
X69758333Y16766940D01*
X69758333Y16766940D02*
X69697857Y16645988D01*
X69697857Y16645988D02*
X69637380Y16585511D01*
X69637380Y16585511D02*
X69516428Y16525035D01*
X69516428Y16525035D02*
X69032618Y16525035D01*
X86161904Y45998919D02*
X86161904Y45108442D01*
X86161904Y45108442D02*
X86214285Y45003680D01*
X86214285Y45003680D02*
X86266666Y44951300D01*
X86266666Y44951300D02*
X86371428Y44898919D01*
X86371428Y44898919D02*
X86580952Y44898919D01*
X86580952Y44898919D02*
X86685714Y44951300D01*
X86685714Y44951300D02*
X86738095Y45003680D01*
X86738095Y45003680D02*
X86790476Y45108442D01*
X86790476Y45108442D02*
X86790476Y45998919D01*
X87209523Y45998919D02*
X87890476Y45998919D01*
X87890476Y45998919D02*
X87523809Y45579871D01*
X87523809Y45579871D02*
X87680952Y45579871D01*
X87680952Y45579871D02*
X87785714Y45527490D01*
X87785714Y45527490D02*
X87838095Y45475109D01*
X87838095Y45475109D02*
X87890476Y45370347D01*
X87890476Y45370347D02*
X87890476Y45108442D01*
X87890476Y45108442D02*
X87838095Y45003680D01*
X87838095Y45003680D02*
X87785714Y44951300D01*
X87785714Y44951300D02*
X87680952Y44898919D01*
X87680952Y44898919D02*
X87366666Y44898919D01*
X87366666Y44898919D02*
X87261904Y44951300D01*
X87261904Y44951300D02*
X87209523Y45003680D01*
X28880952Y35585180D02*
X28404762Y35585180D01*
X28404762Y35585180D02*
X28404762Y36585180D01*
X29214286Y36108990D02*
X29547619Y36108990D01*
X29690476Y35585180D02*
X29214286Y35585180D01*
X29214286Y35585180D02*
X29214286Y36585180D01*
X29214286Y36585180D02*
X29690476Y36585180D01*
X30119048Y35585180D02*
X30119048Y36585180D01*
X30119048Y36585180D02*
X30357143Y36585180D01*
X30357143Y36585180D02*
X30500000Y36537561D01*
X30500000Y36537561D02*
X30595238Y36442323D01*
X30595238Y36442323D02*
X30642857Y36347085D01*
X30642857Y36347085D02*
X30690476Y36156609D01*
X30690476Y36156609D02*
X30690476Y36013752D01*
X30690476Y36013752D02*
X30642857Y35823276D01*
X30642857Y35823276D02*
X30595238Y35728038D01*
X30595238Y35728038D02*
X30500000Y35632800D01*
X30500000Y35632800D02*
X30357143Y35585180D01*
X30357143Y35585180D02*
X30119048Y35585180D01*
X31023810Y36585180D02*
X31690476Y36585180D01*
X31690476Y36585180D02*
X31261905Y35585180D01*
D12*
X34032618Y39445728D02*
X33427856Y39445728D01*
X33427856Y39445728D02*
X33427856Y40715728D01*
X34697856Y40715728D02*
X34939761Y40715728D01*
X34939761Y40715728D02*
X35060713Y40655252D01*
X35060713Y40655252D02*
X35181666Y40534300D01*
X35181666Y40534300D02*
X35242142Y40292395D01*
X35242142Y40292395D02*
X35242142Y39869062D01*
X35242142Y39869062D02*
X35181666Y39627157D01*
X35181666Y39627157D02*
X35060713Y39506205D01*
X35060713Y39506205D02*
X34939761Y39445728D01*
X34939761Y39445728D02*
X34697856Y39445728D01*
X34697856Y39445728D02*
X34576904Y39506205D01*
X34576904Y39506205D02*
X34455951Y39627157D01*
X34455951Y39627157D02*
X34395475Y39869062D01*
X34395475Y39869062D02*
X34395475Y40292395D01*
X34395475Y40292395D02*
X34455951Y40534300D01*
X34455951Y40534300D02*
X34576904Y40655252D01*
X34576904Y40655252D02*
X34697856Y40715728D01*
X35665475Y40715728D02*
X35967856Y39445728D01*
X35967856Y39445728D02*
X36209761Y40352871D01*
X36209761Y40352871D02*
X36451666Y39445728D01*
X36451666Y39445728D02*
X36754047Y40715728D01*
X37237856Y39445728D02*
X37237856Y40715728D01*
X37237856Y40715728D02*
X37721666Y40715728D01*
X37721666Y40715728D02*
X37842618Y40655252D01*
X37842618Y40655252D02*
X37903095Y40594776D01*
X37903095Y40594776D02*
X37963571Y40473824D01*
X37963571Y40473824D02*
X37963571Y40292395D01*
X37963571Y40292395D02*
X37903095Y40171443D01*
X37903095Y40171443D02*
X37842618Y40110966D01*
X37842618Y40110966D02*
X37721666Y40050490D01*
X37721666Y40050490D02*
X37237856Y40050490D01*
X39233571Y39445728D02*
X38810237Y40050490D01*
X38507856Y39445728D02*
X38507856Y40715728D01*
X38507856Y40715728D02*
X38991666Y40715728D01*
X38991666Y40715728D02*
X39112618Y40655252D01*
X39112618Y40655252D02*
X39173095Y40594776D01*
X39173095Y40594776D02*
X39233571Y40473824D01*
X39233571Y40473824D02*
X39233571Y40292395D01*
X39233571Y40292395D02*
X39173095Y40171443D01*
X39173095Y40171443D02*
X39112618Y40110966D01*
X39112618Y40110966D02*
X38991666Y40050490D01*
X38991666Y40050490D02*
X38507856Y40050490D01*
X39777856Y40110966D02*
X40201190Y40110966D01*
X40382618Y39445728D02*
X39777856Y39445728D01*
X39777856Y39445728D02*
X39777856Y40715728D01*
X39777856Y40715728D02*
X40382618Y40715728D01*
D11*
X45218095Y33508919D02*
X45846667Y33508919D01*
X45532381Y32408919D02*
X45532381Y33508919D01*
X46160952Y32461300D02*
X46318095Y32408919D01*
X46318095Y32408919D02*
X46580000Y32408919D01*
X46580000Y32408919D02*
X46684762Y32461300D01*
X46684762Y32461300D02*
X46737143Y32513680D01*
X46737143Y32513680D02*
X46789524Y32618442D01*
X46789524Y32618442D02*
X46789524Y32723204D01*
X46789524Y32723204D02*
X46737143Y32827966D01*
X46737143Y32827966D02*
X46684762Y32880347D01*
X46684762Y32880347D02*
X46580000Y32932728D01*
X46580000Y32932728D02*
X46370476Y32985109D01*
X46370476Y32985109D02*
X46265714Y33037490D01*
X46265714Y33037490D02*
X46213333Y33089871D01*
X46213333Y33089871D02*
X46160952Y33194633D01*
X46160952Y33194633D02*
X46160952Y33299395D01*
X46160952Y33299395D02*
X46213333Y33404157D01*
X46213333Y33404157D02*
X46265714Y33456538D01*
X46265714Y33456538D02*
X46370476Y33508919D01*
X46370476Y33508919D02*
X46632381Y33508919D01*
X46632381Y33508919D02*
X46789524Y33456538D01*
X47837143Y32408919D02*
X47208571Y32408919D01*
X47522857Y32408919D02*
X47522857Y33508919D01*
X47522857Y33508919D02*
X47418095Y33351776D01*
X47418095Y33351776D02*
X47313333Y33247014D01*
X47313333Y33247014D02*
X47208571Y33194633D01*
X44701904Y15820273D02*
X44701904Y17090273D01*
X44701904Y17090273D02*
X45125238Y16183130D01*
X45125238Y16183130D02*
X45548571Y17090273D01*
X45548571Y17090273D02*
X45548571Y15820273D01*
X46395238Y17090273D02*
X46637143Y17090273D01*
X46637143Y17090273D02*
X46758095Y17029797D01*
X46758095Y17029797D02*
X46879048Y16908845D01*
X46879048Y16908845D02*
X46939524Y16666940D01*
X46939524Y16666940D02*
X46939524Y16243607D01*
X46939524Y16243607D02*
X46879048Y16001702D01*
X46879048Y16001702D02*
X46758095Y15880750D01*
X46758095Y15880750D02*
X46637143Y15820273D01*
X46637143Y15820273D02*
X46395238Y15820273D01*
X46395238Y15820273D02*
X46274286Y15880750D01*
X46274286Y15880750D02*
X46153333Y16001702D01*
X46153333Y16001702D02*
X46092857Y16243607D01*
X46092857Y16243607D02*
X46092857Y16666940D01*
X46092857Y16666940D02*
X46153333Y16908845D01*
X46153333Y16908845D02*
X46274286Y17029797D01*
X46274286Y17029797D02*
X46395238Y17090273D01*
X47483809Y15820273D02*
X47483809Y17090273D01*
X47483809Y17090273D02*
X47786190Y17090273D01*
X47786190Y17090273D02*
X47967619Y17029797D01*
X47967619Y17029797D02*
X48088571Y16908845D01*
X48088571Y16908845D02*
X48149048Y16787892D01*
X48149048Y16787892D02*
X48209524Y16545988D01*
X48209524Y16545988D02*
X48209524Y16364559D01*
X48209524Y16364559D02*
X48149048Y16122654D01*
X48149048Y16122654D02*
X48088571Y16001702D01*
X48088571Y16001702D02*
X47967619Y15880750D01*
X47967619Y15880750D02*
X47786190Y15820273D01*
X47786190Y15820273D02*
X47483809Y15820273D01*
X48753809Y16485511D02*
X49177143Y16485511D01*
X49358571Y15820273D02*
X48753809Y15820273D01*
X48753809Y15820273D02*
X48753809Y17090273D01*
X48753809Y17090273D02*
X49358571Y17090273D01*
X107691667Y35148919D02*
X107325000Y35672728D01*
X107063095Y35148919D02*
X107063095Y36248919D01*
X107063095Y36248919D02*
X107482143Y36248919D01*
X107482143Y36248919D02*
X107586905Y36196538D01*
X107586905Y36196538D02*
X107639286Y36144157D01*
X107639286Y36144157D02*
X107691667Y36039395D01*
X107691667Y36039395D02*
X107691667Y35882252D01*
X107691667Y35882252D02*
X107639286Y35777490D01*
X107639286Y35777490D02*
X107586905Y35725109D01*
X107586905Y35725109D02*
X107482143Y35672728D01*
X107482143Y35672728D02*
X107063095Y35672728D01*
X108739286Y35148919D02*
X108110714Y35148919D01*
X108425000Y35148919D02*
X108425000Y36248919D01*
X108425000Y36248919D02*
X108320238Y36091776D01*
X108320238Y36091776D02*
X108215476Y35987014D01*
X108215476Y35987014D02*
X108110714Y35934633D01*
X115792857Y46148919D02*
X115426190Y46672728D01*
X115164285Y46148919D02*
X115164285Y47248919D01*
X115164285Y47248919D02*
X115583333Y47248919D01*
X115583333Y47248919D02*
X115688095Y47196538D01*
X115688095Y47196538D02*
X115740476Y47144157D01*
X115740476Y47144157D02*
X115792857Y47039395D01*
X115792857Y47039395D02*
X115792857Y46882252D01*
X115792857Y46882252D02*
X115740476Y46777490D01*
X115740476Y46777490D02*
X115688095Y46725109D01*
X115688095Y46725109D02*
X115583333Y46672728D01*
X115583333Y46672728D02*
X115164285Y46672728D01*
X116211904Y47144157D02*
X116264285Y47196538D01*
X116264285Y47196538D02*
X116369047Y47248919D01*
X116369047Y47248919D02*
X116630952Y47248919D01*
X116630952Y47248919D02*
X116735714Y47196538D01*
X116735714Y47196538D02*
X116788095Y47144157D01*
X116788095Y47144157D02*
X116840476Y47039395D01*
X116840476Y47039395D02*
X116840476Y46934633D01*
X116840476Y46934633D02*
X116788095Y46777490D01*
X116788095Y46777490D02*
X116159523Y46148919D01*
X116159523Y46148919D02*
X116840476Y46148919D01*
X117888095Y46148919D02*
X117259523Y46148919D01*
X117573809Y46148919D02*
X117573809Y47248919D01*
X117573809Y47248919D02*
X117469047Y47091776D01*
X117469047Y47091776D02*
X117364285Y46987014D01*
X117364285Y46987014D02*
X117259523Y46934633D01*
X103316667Y31903680D02*
X103264286Y31851300D01*
X103264286Y31851300D02*
X103107143Y31798919D01*
X103107143Y31798919D02*
X103002381Y31798919D01*
X103002381Y31798919D02*
X102845238Y31851300D01*
X102845238Y31851300D02*
X102740476Y31956061D01*
X102740476Y31956061D02*
X102688095Y32060823D01*
X102688095Y32060823D02*
X102635714Y32270347D01*
X102635714Y32270347D02*
X102635714Y32427490D01*
X102635714Y32427490D02*
X102688095Y32637014D01*
X102688095Y32637014D02*
X102740476Y32741776D01*
X102740476Y32741776D02*
X102845238Y32846538D01*
X102845238Y32846538D02*
X103002381Y32898919D01*
X103002381Y32898919D02*
X103107143Y32898919D01*
X103107143Y32898919D02*
X103264286Y32846538D01*
X103264286Y32846538D02*
X103316667Y32794157D01*
X104259524Y32898919D02*
X104050000Y32898919D01*
X104050000Y32898919D02*
X103945238Y32846538D01*
X103945238Y32846538D02*
X103892857Y32794157D01*
X103892857Y32794157D02*
X103788095Y32637014D01*
X103788095Y32637014D02*
X103735714Y32427490D01*
X103735714Y32427490D02*
X103735714Y32008442D01*
X103735714Y32008442D02*
X103788095Y31903680D01*
X103788095Y31903680D02*
X103840476Y31851300D01*
X103840476Y31851300D02*
X103945238Y31798919D01*
X103945238Y31798919D02*
X104154762Y31798919D01*
X104154762Y31798919D02*
X104259524Y31851300D01*
X104259524Y31851300D02*
X104311905Y31903680D01*
X104311905Y31903680D02*
X104364286Y32008442D01*
X104364286Y32008442D02*
X104364286Y32270347D01*
X104364286Y32270347D02*
X104311905Y32375109D01*
X104311905Y32375109D02*
X104259524Y32427490D01*
X104259524Y32427490D02*
X104154762Y32479871D01*
X104154762Y32479871D02*
X103945238Y32479871D01*
X103945238Y32479871D02*
X103840476Y32427490D01*
X103840476Y32427490D02*
X103788095Y32375109D01*
X103788095Y32375109D02*
X103735714Y32270347D01*
X58792857Y16498919D02*
X58426190Y17022728D01*
X58164285Y16498919D02*
X58164285Y17598919D01*
X58164285Y17598919D02*
X58583333Y17598919D01*
X58583333Y17598919D02*
X58688095Y17546538D01*
X58688095Y17546538D02*
X58740476Y17494157D01*
X58740476Y17494157D02*
X58792857Y17389395D01*
X58792857Y17389395D02*
X58792857Y17232252D01*
X58792857Y17232252D02*
X58740476Y17127490D01*
X58740476Y17127490D02*
X58688095Y17075109D01*
X58688095Y17075109D02*
X58583333Y17022728D01*
X58583333Y17022728D02*
X58164285Y17022728D01*
X59840476Y16498919D02*
X59211904Y16498919D01*
X59526190Y16498919D02*
X59526190Y17598919D01*
X59526190Y17598919D02*
X59421428Y17441776D01*
X59421428Y17441776D02*
X59316666Y17337014D01*
X59316666Y17337014D02*
X59211904Y17284633D01*
X60888095Y16498919D02*
X60259523Y16498919D01*
X60573809Y16498919D02*
X60573809Y17598919D01*
X60573809Y17598919D02*
X60469047Y17441776D01*
X60469047Y17441776D02*
X60364285Y17337014D01*
X60364285Y17337014D02*
X60259523Y17284633D01*
X111218095Y33508919D02*
X111846667Y33508919D01*
X111532381Y32408919D02*
X111532381Y33508919D01*
X112160952Y32461300D02*
X112318095Y32408919D01*
X112318095Y32408919D02*
X112580000Y32408919D01*
X112580000Y32408919D02*
X112684762Y32461300D01*
X112684762Y32461300D02*
X112737143Y32513680D01*
X112737143Y32513680D02*
X112789524Y32618442D01*
X112789524Y32618442D02*
X112789524Y32723204D01*
X112789524Y32723204D02*
X112737143Y32827966D01*
X112737143Y32827966D02*
X112684762Y32880347D01*
X112684762Y32880347D02*
X112580000Y32932728D01*
X112580000Y32932728D02*
X112370476Y32985109D01*
X112370476Y32985109D02*
X112265714Y33037490D01*
X112265714Y33037490D02*
X112213333Y33089871D01*
X112213333Y33089871D02*
X112160952Y33194633D01*
X112160952Y33194633D02*
X112160952Y33299395D01*
X112160952Y33299395D02*
X112213333Y33404157D01*
X112213333Y33404157D02*
X112265714Y33456538D01*
X112265714Y33456538D02*
X112370476Y33508919D01*
X112370476Y33508919D02*
X112632381Y33508919D01*
X112632381Y33508919D02*
X112789524Y33456538D01*
X113732381Y33142252D02*
X113732381Y32408919D01*
X113470476Y33561300D02*
X113208571Y32775585D01*
X113208571Y32775585D02*
X113889524Y32775585D01*
X110874047Y15780750D02*
X111055476Y15720273D01*
X111055476Y15720273D02*
X111357857Y15720273D01*
X111357857Y15720273D02*
X111478809Y15780750D01*
X111478809Y15780750D02*
X111539285Y15841226D01*
X111539285Y15841226D02*
X111599762Y15962178D01*
X111599762Y15962178D02*
X111599762Y16083130D01*
X111599762Y16083130D02*
X111539285Y16204083D01*
X111539285Y16204083D02*
X111478809Y16264559D01*
X111478809Y16264559D02*
X111357857Y16325035D01*
X111357857Y16325035D02*
X111115952Y16385511D01*
X111115952Y16385511D02*
X110995000Y16445988D01*
X110995000Y16445988D02*
X110934523Y16506464D01*
X110934523Y16506464D02*
X110874047Y16627416D01*
X110874047Y16627416D02*
X110874047Y16748369D01*
X110874047Y16748369D02*
X110934523Y16869321D01*
X110934523Y16869321D02*
X110995000Y16929797D01*
X110995000Y16929797D02*
X111115952Y16990273D01*
X111115952Y16990273D02*
X111418333Y16990273D01*
X111418333Y16990273D02*
X111599762Y16929797D01*
X112083571Y16083130D02*
X112688333Y16083130D01*
X111962619Y15720273D02*
X112385952Y16990273D01*
X112385952Y16990273D02*
X112809286Y15720273D01*
X113051190Y16990273D02*
X113474523Y15720273D01*
X113474523Y15720273D02*
X113897857Y16990273D01*
X114321189Y16385511D02*
X114744523Y16385511D01*
X114925951Y15720273D02*
X114321189Y15720273D01*
X114321189Y15720273D02*
X114321189Y16990273D01*
X114321189Y16990273D02*
X114925951Y16990273D01*
X82491667Y72373919D02*
X82125000Y72897728D01*
X81863095Y72373919D02*
X81863095Y73473919D01*
X81863095Y73473919D02*
X82282143Y73473919D01*
X82282143Y73473919D02*
X82386905Y73421538D01*
X82386905Y73421538D02*
X82439286Y73369157D01*
X82439286Y73369157D02*
X82491667Y73264395D01*
X82491667Y73264395D02*
X82491667Y73107252D01*
X82491667Y73107252D02*
X82439286Y73002490D01*
X82439286Y73002490D02*
X82386905Y72950109D01*
X82386905Y72950109D02*
X82282143Y72897728D01*
X82282143Y72897728D02*
X81863095Y72897728D01*
X83434524Y73107252D02*
X83434524Y72373919D01*
X83172619Y73526300D02*
X82910714Y72740585D01*
X82910714Y72740585D02*
X83591667Y72740585D01*
X74316667Y72473919D02*
X73950000Y72997728D01*
X73688095Y72473919D02*
X73688095Y73573919D01*
X73688095Y73573919D02*
X74107143Y73573919D01*
X74107143Y73573919D02*
X74211905Y73521538D01*
X74211905Y73521538D02*
X74264286Y73469157D01*
X74264286Y73469157D02*
X74316667Y73364395D01*
X74316667Y73364395D02*
X74316667Y73207252D01*
X74316667Y73207252D02*
X74264286Y73102490D01*
X74264286Y73102490D02*
X74211905Y73050109D01*
X74211905Y73050109D02*
X74107143Y72997728D01*
X74107143Y72997728D02*
X73688095Y72997728D01*
X74840476Y72473919D02*
X75050000Y72473919D01*
X75050000Y72473919D02*
X75154762Y72526300D01*
X75154762Y72526300D02*
X75207143Y72578680D01*
X75207143Y72578680D02*
X75311905Y72735823D01*
X75311905Y72735823D02*
X75364286Y72945347D01*
X75364286Y72945347D02*
X75364286Y73364395D01*
X75364286Y73364395D02*
X75311905Y73469157D01*
X75311905Y73469157D02*
X75259524Y73521538D01*
X75259524Y73521538D02*
X75154762Y73573919D01*
X75154762Y73573919D02*
X74945238Y73573919D01*
X74945238Y73573919D02*
X74840476Y73521538D01*
X74840476Y73521538D02*
X74788095Y73469157D01*
X74788095Y73469157D02*
X74735714Y73364395D01*
X74735714Y73364395D02*
X74735714Y73102490D01*
X74735714Y73102490D02*
X74788095Y72997728D01*
X74788095Y72997728D02*
X74840476Y72945347D01*
X74840476Y72945347D02*
X74945238Y72892966D01*
X74945238Y72892966D02*
X75154762Y72892966D01*
X75154762Y72892966D02*
X75259524Y72945347D01*
X75259524Y72945347D02*
X75311905Y72997728D01*
X75311905Y72997728D02*
X75364286Y73102490D01*
X83616667Y47398919D02*
X83250000Y47922728D01*
X82988095Y47398919D02*
X82988095Y48498919D01*
X82988095Y48498919D02*
X83407143Y48498919D01*
X83407143Y48498919D02*
X83511905Y48446538D01*
X83511905Y48446538D02*
X83564286Y48394157D01*
X83564286Y48394157D02*
X83616667Y48289395D01*
X83616667Y48289395D02*
X83616667Y48132252D01*
X83616667Y48132252D02*
X83564286Y48027490D01*
X83564286Y48027490D02*
X83511905Y47975109D01*
X83511905Y47975109D02*
X83407143Y47922728D01*
X83407143Y47922728D02*
X82988095Y47922728D01*
X84035714Y48394157D02*
X84088095Y48446538D01*
X84088095Y48446538D02*
X84192857Y48498919D01*
X84192857Y48498919D02*
X84454762Y48498919D01*
X84454762Y48498919D02*
X84559524Y48446538D01*
X84559524Y48446538D02*
X84611905Y48394157D01*
X84611905Y48394157D02*
X84664286Y48289395D01*
X84664286Y48289395D02*
X84664286Y48184633D01*
X84664286Y48184633D02*
X84611905Y48027490D01*
X84611905Y48027490D02*
X83983333Y47398919D01*
X83983333Y47398919D02*
X84664286Y47398919D01*
X93816667Y72348919D02*
X93450000Y72872728D01*
X93188095Y72348919D02*
X93188095Y73448919D01*
X93188095Y73448919D02*
X93607143Y73448919D01*
X93607143Y73448919D02*
X93711905Y73396538D01*
X93711905Y73396538D02*
X93764286Y73344157D01*
X93764286Y73344157D02*
X93816667Y73239395D01*
X93816667Y73239395D02*
X93816667Y73082252D01*
X93816667Y73082252D02*
X93764286Y72977490D01*
X93764286Y72977490D02*
X93711905Y72925109D01*
X93711905Y72925109D02*
X93607143Y72872728D01*
X93607143Y72872728D02*
X93188095Y72872728D01*
X94445238Y72977490D02*
X94340476Y73029871D01*
X94340476Y73029871D02*
X94288095Y73082252D01*
X94288095Y73082252D02*
X94235714Y73187014D01*
X94235714Y73187014D02*
X94235714Y73239395D01*
X94235714Y73239395D02*
X94288095Y73344157D01*
X94288095Y73344157D02*
X94340476Y73396538D01*
X94340476Y73396538D02*
X94445238Y73448919D01*
X94445238Y73448919D02*
X94654762Y73448919D01*
X94654762Y73448919D02*
X94759524Y73396538D01*
X94759524Y73396538D02*
X94811905Y73344157D01*
X94811905Y73344157D02*
X94864286Y73239395D01*
X94864286Y73239395D02*
X94864286Y73187014D01*
X94864286Y73187014D02*
X94811905Y73082252D01*
X94811905Y73082252D02*
X94759524Y73029871D01*
X94759524Y73029871D02*
X94654762Y72977490D01*
X94654762Y72977490D02*
X94445238Y72977490D01*
X94445238Y72977490D02*
X94340476Y72925109D01*
X94340476Y72925109D02*
X94288095Y72872728D01*
X94288095Y72872728D02*
X94235714Y72767966D01*
X94235714Y72767966D02*
X94235714Y72558442D01*
X94235714Y72558442D02*
X94288095Y72453680D01*
X94288095Y72453680D02*
X94340476Y72401300D01*
X94340476Y72401300D02*
X94445238Y72348919D01*
X94445238Y72348919D02*
X94654762Y72348919D01*
X94654762Y72348919D02*
X94759524Y72401300D01*
X94759524Y72401300D02*
X94811905Y72453680D01*
X94811905Y72453680D02*
X94864286Y72558442D01*
X94864286Y72558442D02*
X94864286Y72767966D01*
X94864286Y72767966D02*
X94811905Y72872728D01*
X94811905Y72872728D02*
X94759524Y72925109D01*
X94759524Y72925109D02*
X94654762Y72977490D01*
X128880952Y52585180D02*
X128404762Y52585180D01*
X128404762Y52585180D02*
X128404762Y53585180D01*
X129214286Y53108990D02*
X129547619Y53108990D01*
X129690476Y52585180D02*
X129214286Y52585180D01*
X129214286Y52585180D02*
X129214286Y53585180D01*
X129214286Y53585180D02*
X129690476Y53585180D01*
X130119048Y52585180D02*
X130119048Y53585180D01*
X130119048Y53585180D02*
X130357143Y53585180D01*
X130357143Y53585180D02*
X130500000Y53537561D01*
X130500000Y53537561D02*
X130595238Y53442323D01*
X130595238Y53442323D02*
X130642857Y53347085D01*
X130642857Y53347085D02*
X130690476Y53156609D01*
X130690476Y53156609D02*
X130690476Y53013752D01*
X130690476Y53013752D02*
X130642857Y52823276D01*
X130642857Y52823276D02*
X130595238Y52728038D01*
X130595238Y52728038D02*
X130500000Y52632800D01*
X130500000Y52632800D02*
X130357143Y52585180D01*
X130357143Y52585180D02*
X130119048Y52585180D01*
X131547619Y53585180D02*
X131357143Y53585180D01*
X131357143Y53585180D02*
X131261905Y53537561D01*
X131261905Y53537561D02*
X131214286Y53489942D01*
X131214286Y53489942D02*
X131119048Y53347085D01*
X131119048Y53347085D02*
X131071429Y53156609D01*
X131071429Y53156609D02*
X131071429Y52775657D01*
X131071429Y52775657D02*
X131119048Y52680419D01*
X131119048Y52680419D02*
X131166667Y52632800D01*
X131166667Y52632800D02*
X131261905Y52585180D01*
X131261905Y52585180D02*
X131452381Y52585180D01*
X131452381Y52585180D02*
X131547619Y52632800D01*
X131547619Y52632800D02*
X131595238Y52680419D01*
X131595238Y52680419D02*
X131642857Y52775657D01*
X131642857Y52775657D02*
X131642857Y53013752D01*
X131642857Y53013752D02*
X131595238Y53108990D01*
X131595238Y53108990D02*
X131547619Y53156609D01*
X131547619Y53156609D02*
X131452381Y53204228D01*
X131452381Y53204228D02*
X131261905Y53204228D01*
X131261905Y53204228D02*
X131166667Y53156609D01*
X131166667Y53156609D02*
X131119048Y53108990D01*
X131119048Y53108990D02*
X131071429Y53013752D01*
D12*
X119995952Y57135966D02*
X120177380Y57075490D01*
X120177380Y57075490D02*
X120237857Y57015014D01*
X120237857Y57015014D02*
X120298333Y56894062D01*
X120298333Y56894062D02*
X120298333Y56712633D01*
X120298333Y56712633D02*
X120237857Y56591681D01*
X120237857Y56591681D02*
X120177380Y56531205D01*
X120177380Y56531205D02*
X120056428Y56470728D01*
X120056428Y56470728D02*
X119572618Y56470728D01*
X119572618Y56470728D02*
X119572618Y57740728D01*
X119572618Y57740728D02*
X119995952Y57740728D01*
X119995952Y57740728D02*
X120116904Y57680252D01*
X120116904Y57680252D02*
X120177380Y57619776D01*
X120177380Y57619776D02*
X120237857Y57498824D01*
X120237857Y57498824D02*
X120237857Y57377871D01*
X120237857Y57377871D02*
X120177380Y57256919D01*
X120177380Y57256919D02*
X120116904Y57196443D01*
X120116904Y57196443D02*
X119995952Y57135966D01*
X119995952Y57135966D02*
X119572618Y57135966D01*
X120842618Y56470728D02*
X120842618Y57740728D01*
X120842618Y57740728D02*
X121326428Y57740728D01*
X121326428Y57740728D02*
X121447380Y57680252D01*
X121447380Y57680252D02*
X121507857Y57619776D01*
X121507857Y57619776D02*
X121568333Y57498824D01*
X121568333Y57498824D02*
X121568333Y57317395D01*
X121568333Y57317395D02*
X121507857Y57196443D01*
X121507857Y57196443D02*
X121447380Y57135966D01*
X121447380Y57135966D02*
X121326428Y57075490D01*
X121326428Y57075490D02*
X120842618Y57075490D01*
X122112618Y57740728D02*
X122112618Y56712633D01*
X122112618Y56712633D02*
X122173095Y56591681D01*
X122173095Y56591681D02*
X122233571Y56531205D01*
X122233571Y56531205D02*
X122354523Y56470728D01*
X122354523Y56470728D02*
X122596428Y56470728D01*
X122596428Y56470728D02*
X122717380Y56531205D01*
X122717380Y56531205D02*
X122777857Y56591681D01*
X122777857Y56591681D02*
X122838333Y56712633D01*
X122838333Y56712633D02*
X122838333Y57740728D01*
X124168809Y56470728D02*
X123745475Y57075490D01*
X123443094Y56470728D02*
X123443094Y57740728D01*
X123443094Y57740728D02*
X123926904Y57740728D01*
X123926904Y57740728D02*
X124047856Y57680252D01*
X124047856Y57680252D02*
X124108333Y57619776D01*
X124108333Y57619776D02*
X124168809Y57498824D01*
X124168809Y57498824D02*
X124168809Y57317395D01*
X124168809Y57317395D02*
X124108333Y57196443D01*
X124108333Y57196443D02*
X124047856Y57135966D01*
X124047856Y57135966D02*
X123926904Y57075490D01*
X123926904Y57075490D02*
X123443094Y57075490D01*
X125378333Y57680252D02*
X125257380Y57740728D01*
X125257380Y57740728D02*
X125075952Y57740728D01*
X125075952Y57740728D02*
X124894523Y57680252D01*
X124894523Y57680252D02*
X124773571Y57559300D01*
X124773571Y57559300D02*
X124713094Y57438347D01*
X124713094Y57438347D02*
X124652618Y57196443D01*
X124652618Y57196443D02*
X124652618Y57015014D01*
X124652618Y57015014D02*
X124713094Y56773109D01*
X124713094Y56773109D02*
X124773571Y56652157D01*
X124773571Y56652157D02*
X124894523Y56531205D01*
X124894523Y56531205D02*
X125075952Y56470728D01*
X125075952Y56470728D02*
X125196904Y56470728D01*
X125196904Y56470728D02*
X125378333Y56531205D01*
X125378333Y56531205D02*
X125438809Y56591681D01*
X125438809Y56591681D02*
X125438809Y57015014D01*
X125438809Y57015014D02*
X125196904Y57015014D01*
X125983094Y57135966D02*
X126406428Y57135966D01*
X126587856Y56470728D02*
X125983094Y56470728D01*
X125983094Y56470728D02*
X125983094Y57740728D01*
X125983094Y57740728D02*
X126587856Y57740728D01*
D11*
X128880952Y44085180D02*
X128404762Y44085180D01*
X128404762Y44085180D02*
X128404762Y45085180D01*
X129214286Y44608990D02*
X129547619Y44608990D01*
X129690476Y44085180D02*
X129214286Y44085180D01*
X129214286Y44085180D02*
X129214286Y45085180D01*
X129214286Y45085180D02*
X129690476Y45085180D01*
X130119048Y44085180D02*
X130119048Y45085180D01*
X130119048Y45085180D02*
X130357143Y45085180D01*
X130357143Y45085180D02*
X130500000Y45037561D01*
X130500000Y45037561D02*
X130595238Y44942323D01*
X130595238Y44942323D02*
X130642857Y44847085D01*
X130642857Y44847085D02*
X130690476Y44656609D01*
X130690476Y44656609D02*
X130690476Y44513752D01*
X130690476Y44513752D02*
X130642857Y44323276D01*
X130642857Y44323276D02*
X130595238Y44228038D01*
X130595238Y44228038D02*
X130500000Y44132800D01*
X130500000Y44132800D02*
X130357143Y44085180D01*
X130357143Y44085180D02*
X130119048Y44085180D01*
X131071429Y44989942D02*
X131119048Y45037561D01*
X131119048Y45037561D02*
X131214286Y45085180D01*
X131214286Y45085180D02*
X131452381Y45085180D01*
X131452381Y45085180D02*
X131547619Y45037561D01*
X131547619Y45037561D02*
X131595238Y44989942D01*
X131595238Y44989942D02*
X131642857Y44894704D01*
X131642857Y44894704D02*
X131642857Y44799466D01*
X131642857Y44799466D02*
X131595238Y44656609D01*
X131595238Y44656609D02*
X131023810Y44085180D01*
X131023810Y44085180D02*
X131642857Y44085180D01*
D12*
X120544285Y47895728D02*
X120120951Y48500490D01*
X119818570Y47895728D02*
X119818570Y49165728D01*
X119818570Y49165728D02*
X120302380Y49165728D01*
X120302380Y49165728D02*
X120423332Y49105252D01*
X120423332Y49105252D02*
X120483809Y49044776D01*
X120483809Y49044776D02*
X120544285Y48923824D01*
X120544285Y48923824D02*
X120544285Y48742395D01*
X120544285Y48742395D02*
X120483809Y48621443D01*
X120483809Y48621443D02*
X120423332Y48560966D01*
X120423332Y48560966D02*
X120302380Y48500490D01*
X120302380Y48500490D02*
X119818570Y48500490D01*
X121088570Y48560966D02*
X121511904Y48560966D01*
X121693332Y47895728D02*
X121088570Y47895728D01*
X121088570Y47895728D02*
X121088570Y49165728D01*
X121088570Y49165728D02*
X121693332Y49165728D01*
X122237618Y47895728D02*
X122237618Y49165728D01*
X122237618Y49165728D02*
X122660952Y48258585D01*
X122660952Y48258585D02*
X123084285Y49165728D01*
X123084285Y49165728D02*
X123084285Y47895728D01*
X123930952Y49165728D02*
X124172857Y49165728D01*
X124172857Y49165728D02*
X124293809Y49105252D01*
X124293809Y49105252D02*
X124414762Y48984300D01*
X124414762Y48984300D02*
X124475238Y48742395D01*
X124475238Y48742395D02*
X124475238Y48319062D01*
X124475238Y48319062D02*
X124414762Y48077157D01*
X124414762Y48077157D02*
X124293809Y47956205D01*
X124293809Y47956205D02*
X124172857Y47895728D01*
X124172857Y47895728D02*
X123930952Y47895728D01*
X123930952Y47895728D02*
X123810000Y47956205D01*
X123810000Y47956205D02*
X123689047Y48077157D01*
X123689047Y48077157D02*
X123628571Y48319062D01*
X123628571Y48319062D02*
X123628571Y48742395D01*
X123628571Y48742395D02*
X123689047Y48984300D01*
X123689047Y48984300D02*
X123810000Y49105252D01*
X123810000Y49105252D02*
X123930952Y49165728D01*
X124838095Y49165728D02*
X125563809Y49165728D01*
X125200952Y47895728D02*
X125200952Y49165728D01*
X125987142Y48560966D02*
X126410476Y48560966D01*
X126591904Y47895728D02*
X125987142Y47895728D01*
X125987142Y47895728D02*
X125987142Y49165728D01*
X125987142Y49165728D02*
X126591904Y49165728D01*
D11*
X102491667Y47373919D02*
X102125000Y47897728D01*
X101863095Y47373919D02*
X101863095Y48473919D01*
X101863095Y48473919D02*
X102282143Y48473919D01*
X102282143Y48473919D02*
X102386905Y48421538D01*
X102386905Y48421538D02*
X102439286Y48369157D01*
X102439286Y48369157D02*
X102491667Y48264395D01*
X102491667Y48264395D02*
X102491667Y48107252D01*
X102491667Y48107252D02*
X102439286Y48002490D01*
X102439286Y48002490D02*
X102386905Y47950109D01*
X102386905Y47950109D02*
X102282143Y47897728D01*
X102282143Y47897728D02*
X101863095Y47897728D01*
X102858333Y48473919D02*
X103539286Y48473919D01*
X103539286Y48473919D02*
X103172619Y48054871D01*
X103172619Y48054871D02*
X103329762Y48054871D01*
X103329762Y48054871D02*
X103434524Y48002490D01*
X103434524Y48002490D02*
X103486905Y47950109D01*
X103486905Y47950109D02*
X103539286Y47845347D01*
X103539286Y47845347D02*
X103539286Y47583442D01*
X103539286Y47583442D02*
X103486905Y47478680D01*
X103486905Y47478680D02*
X103434524Y47426300D01*
X103434524Y47426300D02*
X103329762Y47373919D01*
X103329762Y47373919D02*
X103015476Y47373919D01*
X103015476Y47373919D02*
X102910714Y47426300D01*
X102910714Y47426300D02*
X102858333Y47478680D01*
X89218095Y33508919D02*
X89846667Y33508919D01*
X89532381Y32408919D02*
X89532381Y33508919D01*
X90160952Y32461300D02*
X90318095Y32408919D01*
X90318095Y32408919D02*
X90580000Y32408919D01*
X90580000Y32408919D02*
X90684762Y32461300D01*
X90684762Y32461300D02*
X90737143Y32513680D01*
X90737143Y32513680D02*
X90789524Y32618442D01*
X90789524Y32618442D02*
X90789524Y32723204D01*
X90789524Y32723204D02*
X90737143Y32827966D01*
X90737143Y32827966D02*
X90684762Y32880347D01*
X90684762Y32880347D02*
X90580000Y32932728D01*
X90580000Y32932728D02*
X90370476Y32985109D01*
X90370476Y32985109D02*
X90265714Y33037490D01*
X90265714Y33037490D02*
X90213333Y33089871D01*
X90213333Y33089871D02*
X90160952Y33194633D01*
X90160952Y33194633D02*
X90160952Y33299395D01*
X90160952Y33299395D02*
X90213333Y33404157D01*
X90213333Y33404157D02*
X90265714Y33456538D01*
X90265714Y33456538D02*
X90370476Y33508919D01*
X90370476Y33508919D02*
X90632381Y33508919D01*
X90632381Y33508919D02*
X90789524Y33456538D01*
X91156190Y33508919D02*
X91837143Y33508919D01*
X91837143Y33508919D02*
X91470476Y33089871D01*
X91470476Y33089871D02*
X91627619Y33089871D01*
X91627619Y33089871D02*
X91732381Y33037490D01*
X91732381Y33037490D02*
X91784762Y32985109D01*
X91784762Y32985109D02*
X91837143Y32880347D01*
X91837143Y32880347D02*
X91837143Y32618442D01*
X91837143Y32618442D02*
X91784762Y32513680D01*
X91784762Y32513680D02*
X91732381Y32461300D01*
X91732381Y32461300D02*
X91627619Y32408919D01*
X91627619Y32408919D02*
X91313333Y32408919D01*
X91313333Y32408919D02*
X91208571Y32461300D01*
X91208571Y32461300D02*
X91156190Y32513680D01*
X88811190Y15620273D02*
X88811190Y16890273D01*
X88811190Y16890273D02*
X89113571Y16890273D01*
X89113571Y16890273D02*
X89295000Y16829797D01*
X89295000Y16829797D02*
X89415952Y16708845D01*
X89415952Y16708845D02*
X89476429Y16587892D01*
X89476429Y16587892D02*
X89536905Y16345988D01*
X89536905Y16345988D02*
X89536905Y16164559D01*
X89536905Y16164559D02*
X89476429Y15922654D01*
X89476429Y15922654D02*
X89415952Y15801702D01*
X89415952Y15801702D02*
X89295000Y15680750D01*
X89295000Y15680750D02*
X89113571Y15620273D01*
X89113571Y15620273D02*
X88811190Y15620273D01*
X90323095Y16890273D02*
X90565000Y16890273D01*
X90565000Y16890273D02*
X90685952Y16829797D01*
X90685952Y16829797D02*
X90806905Y16708845D01*
X90806905Y16708845D02*
X90867381Y16466940D01*
X90867381Y16466940D02*
X90867381Y16043607D01*
X90867381Y16043607D02*
X90806905Y15801702D01*
X90806905Y15801702D02*
X90685952Y15680750D01*
X90685952Y15680750D02*
X90565000Y15620273D01*
X90565000Y15620273D02*
X90323095Y15620273D01*
X90323095Y15620273D02*
X90202143Y15680750D01*
X90202143Y15680750D02*
X90081190Y15801702D01*
X90081190Y15801702D02*
X90020714Y16043607D01*
X90020714Y16043607D02*
X90020714Y16466940D01*
X90020714Y16466940D02*
X90081190Y16708845D01*
X90081190Y16708845D02*
X90202143Y16829797D01*
X90202143Y16829797D02*
X90323095Y16890273D01*
X91290714Y16890273D02*
X91593095Y15620273D01*
X91593095Y15620273D02*
X91835000Y16527416D01*
X91835000Y16527416D02*
X92076905Y15620273D01*
X92076905Y15620273D02*
X92379286Y16890273D01*
X92863095Y15620273D02*
X92863095Y16890273D01*
X92863095Y16890273D02*
X93588810Y15620273D01*
X93588810Y15620273D02*
X93588810Y16890273D01*
X36717857Y16523919D02*
X36351190Y17047728D01*
X36089285Y16523919D02*
X36089285Y17623919D01*
X36089285Y17623919D02*
X36508333Y17623919D01*
X36508333Y17623919D02*
X36613095Y17571538D01*
X36613095Y17571538D02*
X36665476Y17519157D01*
X36665476Y17519157D02*
X36717857Y17414395D01*
X36717857Y17414395D02*
X36717857Y17257252D01*
X36717857Y17257252D02*
X36665476Y17152490D01*
X36665476Y17152490D02*
X36613095Y17100109D01*
X36613095Y17100109D02*
X36508333Y17047728D01*
X36508333Y17047728D02*
X36089285Y17047728D01*
X37765476Y16523919D02*
X37136904Y16523919D01*
X37451190Y16523919D02*
X37451190Y17623919D01*
X37451190Y17623919D02*
X37346428Y17466776D01*
X37346428Y17466776D02*
X37241666Y17362014D01*
X37241666Y17362014D02*
X37136904Y17309633D01*
X38446428Y17623919D02*
X38551190Y17623919D01*
X38551190Y17623919D02*
X38655952Y17571538D01*
X38655952Y17571538D02*
X38708333Y17519157D01*
X38708333Y17519157D02*
X38760714Y17414395D01*
X38760714Y17414395D02*
X38813095Y17204871D01*
X38813095Y17204871D02*
X38813095Y16942966D01*
X38813095Y16942966D02*
X38760714Y16733442D01*
X38760714Y16733442D02*
X38708333Y16628680D01*
X38708333Y16628680D02*
X38655952Y16576300D01*
X38655952Y16576300D02*
X38551190Y16523919D01*
X38551190Y16523919D02*
X38446428Y16523919D01*
X38446428Y16523919D02*
X38341666Y16576300D01*
X38341666Y16576300D02*
X38289285Y16628680D01*
X38289285Y16628680D02*
X38236904Y16733442D01*
X38236904Y16733442D02*
X38184523Y16942966D01*
X38184523Y16942966D02*
X38184523Y17204871D01*
X38184523Y17204871D02*
X38236904Y17414395D01*
X38236904Y17414395D02*
X38289285Y17519157D01*
X38289285Y17519157D02*
X38341666Y17571538D01*
X38341666Y17571538D02*
X38446428Y17623919D01*
X115792857Y63148919D02*
X115426190Y63672728D01*
X115164285Y63148919D02*
X115164285Y64248919D01*
X115164285Y64248919D02*
X115583333Y64248919D01*
X115583333Y64248919D02*
X115688095Y64196538D01*
X115688095Y64196538D02*
X115740476Y64144157D01*
X115740476Y64144157D02*
X115792857Y64039395D01*
X115792857Y64039395D02*
X115792857Y63882252D01*
X115792857Y63882252D02*
X115740476Y63777490D01*
X115740476Y63777490D02*
X115688095Y63725109D01*
X115688095Y63725109D02*
X115583333Y63672728D01*
X115583333Y63672728D02*
X115164285Y63672728D01*
X116840476Y63148919D02*
X116211904Y63148919D01*
X116526190Y63148919D02*
X116526190Y64248919D01*
X116526190Y64248919D02*
X116421428Y64091776D01*
X116421428Y64091776D02*
X116316666Y63987014D01*
X116316666Y63987014D02*
X116211904Y63934633D01*
X117783333Y64248919D02*
X117573809Y64248919D01*
X117573809Y64248919D02*
X117469047Y64196538D01*
X117469047Y64196538D02*
X117416666Y64144157D01*
X117416666Y64144157D02*
X117311904Y63987014D01*
X117311904Y63987014D02*
X117259523Y63777490D01*
X117259523Y63777490D02*
X117259523Y63358442D01*
X117259523Y63358442D02*
X117311904Y63253680D01*
X117311904Y63253680D02*
X117364285Y63201300D01*
X117364285Y63201300D02*
X117469047Y63148919D01*
X117469047Y63148919D02*
X117678571Y63148919D01*
X117678571Y63148919D02*
X117783333Y63201300D01*
X117783333Y63201300D02*
X117835714Y63253680D01*
X117835714Y63253680D02*
X117888095Y63358442D01*
X117888095Y63358442D02*
X117888095Y63620347D01*
X117888095Y63620347D02*
X117835714Y63725109D01*
X117835714Y63725109D02*
X117783333Y63777490D01*
X117783333Y63777490D02*
X117678571Y63829871D01*
X117678571Y63829871D02*
X117469047Y63829871D01*
X117469047Y63829871D02*
X117364285Y63777490D01*
X117364285Y63777490D02*
X117311904Y63725109D01*
X117311904Y63725109D02*
X117259523Y63620347D01*
%TO.C,H1*%
D13*
X21631502Y5000000D02*
G75*
G02*
X18368498Y5000000I-1631502J0D01*
G01*
X18368498Y5000000D02*
G75*
G02*
X21631502Y5000000I1631502J0D01*
G01*
%TO.C,H3*%
X21631502Y70000000D02*
G75*
G02*
X18368498Y70000000I-1631502J0D01*
G01*
X18368498Y70000000D02*
G75*
G02*
X21631502Y70000000I1631502J0D01*
G01*
%TO.C,H4*%
X141631502Y70000000D02*
G75*
G02*
X138368498Y70000000I-1631502J0D01*
G01*
X138368498Y70000000D02*
G75*
G02*
X141631502Y70000000I1631502J0D01*
G01*
%TO.C,H2*%
X141631502Y5000000D02*
G75*
G02*
X138368498Y5000000I-1631502J0D01*
G01*
X138368498Y5000000D02*
G75*
G02*
X141631502Y5000000I1631502J0D01*
G01*
%TO.C,R6*%
D11*
X108520000Y57200000D02*
G75*
G02*
X108370000Y57050000I-150000J0D01*
G01*
X108370000Y61950000D02*
G75*
G02*
X108520000Y61800000I0J-150000D01*
G01*
X106630000Y57050000D02*
G75*
G02*
X106480000Y57200000I0J150000D01*
G01*
X106480000Y61800000D02*
G75*
G02*
X106630000Y61950000I150000J0D01*
G01*
X108520000Y61800000D02*
X108520000Y57200000D01*
X108370000Y57050000D02*
X106630000Y57050000D01*
X108370000Y61950000D02*
X106630000Y61950000D01*
X106480000Y61800000D02*
X106480000Y57200000D01*
%TO.C,U4*%
X105270000Y49880000D02*
X105270000Y69120000D01*
X105270000Y69120000D02*
X54730000Y69120000D01*
X72620000Y49590000D02*
X74620000Y49590000D01*
X54730000Y49880000D02*
X105270000Y49880000D01*
X54730000Y49880000D02*
X54730000Y69120000D01*
%TO.C,R13*%
X102480000Y22800000D02*
X102480000Y18200000D01*
X104370000Y22950000D02*
X102630000Y22950000D01*
X104370000Y18050000D02*
X102630000Y18050000D01*
X104520000Y22800000D02*
X104520000Y18200000D01*
X102480000Y22800000D02*
G75*
G02*
X102630000Y22950000I150000J0D01*
G01*
X102630000Y18050000D02*
G75*
G02*
X102480000Y18200000I0J150000D01*
G01*
X104370000Y22950000D02*
G75*
G02*
X104520000Y22800000I0J-150000D01*
G01*
X104520000Y18200000D02*
G75*
G02*
X104370000Y18050000I-150000J0D01*
G01*
%TO.C,R12*%
X80480000Y22800000D02*
X80480000Y18200000D01*
X82370000Y22950000D02*
X80630000Y22950000D01*
X82370000Y18050000D02*
X80630000Y18050000D01*
X82520000Y22800000D02*
X82520000Y18200000D01*
X80480000Y22800000D02*
G75*
G02*
X80630000Y22950000I150000J0D01*
G01*
X80630000Y18050000D02*
G75*
G02*
X80480000Y18200000I0J150000D01*
G01*
X82370000Y22950000D02*
G75*
G02*
X82520000Y22800000I0J-150000D01*
G01*
X82520000Y18200000D02*
G75*
G02*
X82370000Y18050000I-150000J0D01*
G01*
%TO.C,R5*%
X106480000Y54800000D02*
X106480000Y50200000D01*
X108370000Y54950000D02*
X106630000Y54950000D01*
X108370000Y50050000D02*
X106630000Y50050000D01*
X108520000Y54800000D02*
X108520000Y50200000D01*
X106480000Y54800000D02*
G75*
G02*
X106630000Y54950000I150000J0D01*
G01*
X106630000Y50050000D02*
G75*
G02*
X106480000Y50200000I0J150000D01*
G01*
X108370000Y54950000D02*
G75*
G02*
X108520000Y54800000I0J-150000D01*
G01*
X108520000Y50200000D02*
G75*
G02*
X108370000Y50050000I-150000J0D01*
G01*
%TO.C,C3*%
X36480000Y31300000D02*
X36480000Y26700000D01*
X38370000Y31450000D02*
X36630000Y31450000D01*
X38370000Y26550000D02*
X36630000Y26550000D01*
X38520000Y31300000D02*
X38520000Y26700000D01*
X36480000Y31300000D02*
G75*
G02*
X36630000Y31450000I150000J0D01*
G01*
X36630000Y26550000D02*
G75*
G02*
X36480000Y26700000I0J150000D01*
G01*
X38370000Y31450000D02*
G75*
G02*
X38520000Y31300000I0J-150000D01*
G01*
X38520000Y26700000D02*
G75*
G02*
X38370000Y26550000I-150000J0D01*
G01*
%TO.C,R14*%
X21550000Y49630000D02*
X21550000Y51370000D01*
X26300000Y51520000D02*
X21700000Y51520000D01*
X26300000Y49480000D02*
X21700000Y49480000D01*
X26450000Y49630000D02*
X26450000Y51370000D01*
X21550000Y51370000D02*
G75*
G02*
X21700000Y51520000I150000J0D01*
G01*
X21700000Y49480000D02*
G75*
G02*
X21550000Y49630000I0J150000D01*
G01*
X26300000Y51520000D02*
G75*
G02*
X26450000Y51370000I0J-150000D01*
G01*
X26450000Y49630000D02*
G75*
G02*
X26300000Y49480000I-150000J0D01*
G01*
%TO.C,U1*%
X61142500Y46267500D02*
X68857500Y46267500D01*
X61142500Y46040000D02*
X61142500Y46267500D01*
X61142500Y34532500D02*
X61142500Y34760000D01*
X68857500Y46267500D02*
X68857500Y46040000D01*
X68857500Y34760000D02*
X68857500Y34532500D01*
X68857500Y34532500D02*
X61142500Y34532500D01*
D14*
X70070000Y34290000D02*
X69390000Y34290000D01*
X69730000Y34760000D01*
X70070000Y34290000D01*
G36*
X70070000Y34290000D02*
G01*
X69390000Y34290000D01*
X69730000Y34760000D01*
X70070000Y34290000D01*
G37*
%TO.C,R20*%
D11*
X114050000Y39130000D02*
X114050000Y40870000D01*
X118800000Y41020000D02*
X114200000Y41020000D01*
X118800000Y38980000D02*
X114200000Y38980000D01*
X118950000Y39130000D02*
X118950000Y40870000D01*
X114050000Y40870000D02*
G75*
G02*
X114200000Y41020000I150000J0D01*
G01*
X114200000Y38980000D02*
G75*
G02*
X114050000Y39130000I0J150000D01*
G01*
X118800000Y41020000D02*
G75*
G02*
X118950000Y40870000I0J-150000D01*
G01*
X118950000Y39130000D02*
G75*
G02*
X118800000Y38980000I-150000J0D01*
G01*
%TO.C,R18*%
X114050000Y56130000D02*
X114050000Y57870000D01*
X118800000Y58020000D02*
X114200000Y58020000D01*
X118800000Y55980000D02*
X114200000Y55980000D01*
X118950000Y56130000D02*
X118950000Y57870000D01*
X114050000Y57870000D02*
G75*
G02*
X114200000Y58020000I150000J0D01*
G01*
X114200000Y55980000D02*
G75*
G02*
X114050000Y56130000I0J150000D01*
G01*
X118800000Y58020000D02*
G75*
G02*
X118950000Y57870000I0J-150000D01*
G01*
X118950000Y56130000D02*
G75*
G02*
X118800000Y55980000I-150000J0D01*
G01*
%TO.C,R7*%
X106480000Y68800000D02*
X106480000Y64200000D01*
X108370000Y68950000D02*
X106630000Y68950000D01*
X108370000Y64050000D02*
X106630000Y64050000D01*
X108520000Y68800000D02*
X108520000Y64200000D01*
X106480000Y68800000D02*
G75*
G02*
X106630000Y68950000I150000J0D01*
G01*
X106630000Y64050000D02*
G75*
G02*
X106480000Y64200000I0J150000D01*
G01*
X108370000Y68950000D02*
G75*
G02*
X108520000Y68800000I0J-150000D01*
G01*
X108520000Y64200000D02*
G75*
G02*
X108370000Y64050000I-150000J0D01*
G01*
%TO.C,R17*%
X21550000Y58130000D02*
X21550000Y59870000D01*
X26300000Y60020000D02*
X21700000Y60020000D01*
X26300000Y57980000D02*
X21700000Y57980000D01*
X26450000Y58130000D02*
X26450000Y59870000D01*
X21550000Y59870000D02*
G75*
G02*
X21700000Y60020000I150000J0D01*
G01*
X21700000Y57980000D02*
G75*
G02*
X21550000Y58130000I0J150000D01*
G01*
X26300000Y60020000D02*
G75*
G02*
X26450000Y59870000I0J-150000D01*
G01*
X26450000Y58130000D02*
G75*
G02*
X26300000Y57980000I-150000J0D01*
G01*
%TO.C,LED4*%
X32560000Y63955000D02*
X32560000Y67045000D01*
X27010000Y65500000D02*
G75*
G02*
X32560000Y67044830I2990000J0D01*
G01*
X32560000Y63955170D02*
G75*
G02*
X27010000Y65500000I-2560000J1544830D01*
G01*
D14*
X32500000Y65500000D02*
G75*
G02*
X27500000Y65500000I-2500000J0D01*
G01*
X27500000Y65500000D02*
G75*
G02*
X32500000Y65500000I2500000J0D01*
G01*
%TO.C,LED1*%
D11*
X132560000Y63955000D02*
X132560000Y67045000D01*
X127010000Y65500000D02*
G75*
G02*
X132560000Y67044830I2990000J0D01*
G01*
X132560000Y63955170D02*
G75*
G02*
X127010000Y65500000I-2560000J1544830D01*
G01*
D14*
X132500000Y65500000D02*
G75*
G02*
X127500000Y65500000I-2500000J0D01*
G01*
X127500000Y65500000D02*
G75*
G02*
X132500000Y65500000I2500000J0D01*
G01*
%TO.C,C4*%
D11*
X58480000Y31300000D02*
X58480000Y26700000D01*
X60370000Y31450000D02*
X58630000Y31450000D01*
X60370000Y26550000D02*
X58630000Y26550000D01*
X60520000Y31300000D02*
X60520000Y26700000D01*
X58480000Y31300000D02*
G75*
G02*
X58630000Y31450000I150000J0D01*
G01*
X58630000Y26550000D02*
G75*
G02*
X58480000Y26700000I0J150000D01*
G01*
X60370000Y31450000D02*
G75*
G02*
X60520000Y31300000I0J-150000D01*
G01*
X60520000Y26700000D02*
G75*
G02*
X60370000Y26550000I-150000J0D01*
G01*
%TO.C,LED5*%
X32560000Y55455000D02*
X32560000Y58545000D01*
X27010000Y57000000D02*
G75*
G02*
X32560000Y58544830I2990000J0D01*
G01*
X32560000Y55455170D02*
G75*
G02*
X27010000Y57000000I-2560000J1544830D01*
G01*
D14*
X32500000Y57000000D02*
G75*
G02*
X27500000Y57000000I-2500000J0D01*
G01*
X27500000Y57000000D02*
G75*
G02*
X32500000Y57000000I2500000J0D01*
G01*
%TO.C,R19*%
D11*
X21550000Y41130000D02*
X21550000Y42870000D01*
X26300000Y43020000D02*
X21700000Y43020000D01*
X26300000Y40980000D02*
X21700000Y40980000D01*
X26450000Y41130000D02*
X26450000Y42870000D01*
X21550000Y42870000D02*
G75*
G02*
X21700000Y43020000I150000J0D01*
G01*
X21700000Y40980000D02*
G75*
G02*
X21550000Y41130000I0J150000D01*
G01*
X26300000Y43020000D02*
G75*
G02*
X26450000Y42870000I0J-150000D01*
G01*
X26450000Y41130000D02*
G75*
G02*
X26300000Y40980000I-150000J0D01*
G01*
%TO.C,R15*%
X21550000Y64630000D02*
X21550000Y66370000D01*
X26300000Y66520000D02*
X21700000Y66520000D01*
X26300000Y64480000D02*
X21700000Y64480000D01*
X26450000Y64630000D02*
X26450000Y66370000D01*
X21550000Y66370000D02*
G75*
G02*
X21700000Y66520000I150000J0D01*
G01*
X21700000Y64480000D02*
G75*
G02*
X21550000Y64630000I0J150000D01*
G01*
X26300000Y66520000D02*
G75*
G02*
X26450000Y66370000I0J-150000D01*
G01*
X26450000Y64630000D02*
G75*
G02*
X26300000Y64480000I-150000J0D01*
G01*
%TO.C,C2*%
X115550000Y34670000D02*
X115550000Y32930000D01*
X115700000Y34820000D02*
X120300000Y34820000D01*
X115700000Y32780000D02*
X120300000Y32780000D01*
X120450000Y34670000D02*
X120450000Y32930000D01*
X115550000Y34670000D02*
G75*
G02*
X115700000Y34820000I150000J0D01*
G01*
X115700000Y32780000D02*
G75*
G02*
X115550000Y32930000I0J150000D01*
G01*
X120300000Y34820000D02*
G75*
G02*
X120450000Y34670000I0J-150000D01*
G01*
X120450000Y32930000D02*
G75*
G02*
X120300000Y32780000I-150000J0D01*
G01*
%TO.C,U2*%
D14*
X99940000Y43060000D02*
X99970000Y43060000D01*
X99940000Y38940000D02*
X99940000Y43060000D01*
X99970000Y38940000D02*
X99940000Y38940000D01*
X110030000Y43060000D02*
X110060000Y43060000D01*
X110060000Y43060000D02*
X110060000Y38940000D01*
X110060000Y38940000D02*
X110030000Y38940000D01*
X110360000Y43630000D02*
X110030000Y43870000D01*
X110360000Y44110000D01*
X110360000Y43630000D01*
G36*
X110360000Y43630000D02*
G01*
X110030000Y43870000D01*
X110360000Y44110000D01*
X110360000Y43630000D01*
G37*
%TO.C,LED8*%
D11*
X132560000Y38455000D02*
X132560000Y41545000D01*
X127010000Y40000000D02*
G75*
G02*
X132560000Y41544830I2990000J0D01*
G01*
X132560000Y38455170D02*
G75*
G02*
X127010000Y40000000I-2560000J1544830D01*
G01*
D14*
X132500000Y40000000D02*
G75*
G02*
X127500000Y40000000I-2500000J0D01*
G01*
X127500000Y40000000D02*
G75*
G02*
X132500000Y40000000I2500000J0D01*
G01*
%TO.C,LED3*%
D11*
X32560000Y46955000D02*
X32560000Y50045000D01*
X27010000Y48500000D02*
G75*
G02*
X32560000Y50044830I2990000J0D01*
G01*
X32560000Y46955170D02*
G75*
G02*
X27010000Y48500000I-2560000J1544830D01*
G01*
D14*
X32500000Y48500000D02*
G75*
G02*
X27500000Y48500000I-2500000J0D01*
G01*
X27500000Y48500000D02*
G75*
G02*
X32500000Y48500000I2500000J0D01*
G01*
%TO.C,C5*%
D11*
X80480000Y31300000D02*
X80480000Y26700000D01*
X82370000Y31450000D02*
X80630000Y31450000D01*
X82370000Y26550000D02*
X80630000Y26550000D01*
X82520000Y31300000D02*
X82520000Y26700000D01*
X80480000Y31300000D02*
G75*
G02*
X80630000Y31450000I150000J0D01*
G01*
X80630000Y26550000D02*
G75*
G02*
X80480000Y26700000I0J150000D01*
G01*
X82370000Y31450000D02*
G75*
G02*
X82520000Y31300000I0J-150000D01*
G01*
X82520000Y26700000D02*
G75*
G02*
X82370000Y26550000I-150000J0D01*
G01*
%TO.C,C1*%
X93550000Y34670000D02*
X93550000Y32930000D01*
X93700000Y34820000D02*
X98300000Y34820000D01*
X93700000Y32780000D02*
X98300000Y32780000D01*
X98450000Y34670000D02*
X98450000Y32930000D01*
X93550000Y34670000D02*
G75*
G02*
X93700000Y34820000I150000J0D01*
G01*
X93700000Y32780000D02*
G75*
G02*
X93550000Y32930000I0J150000D01*
G01*
X98300000Y34820000D02*
G75*
G02*
X98450000Y34670000I0J-150000D01*
G01*
X98450000Y32930000D02*
G75*
G02*
X98300000Y32780000I-150000J0D01*
G01*
%TO.C,TS2*%
X62890000Y31110000D02*
X62890000Y29000000D01*
X62890000Y31110000D02*
X75110000Y31110000D01*
X62890000Y26000000D02*
X62890000Y24000000D01*
X62890000Y21000000D02*
X62890000Y18890000D01*
X75110000Y31110000D02*
X75110000Y29000000D01*
X75110000Y26000000D02*
X75110000Y24000000D01*
X75110000Y21000000D02*
X75110000Y18890000D01*
X75110000Y18890000D02*
X62890000Y18890000D01*
D14*
X72550000Y25000000D02*
G75*
G02*
X65450000Y25000000I-3550000J0D01*
G01*
X65450000Y25000000D02*
G75*
G02*
X72550000Y25000000I3550000J0D01*
G01*
%TO.C,U3*%
X84940000Y44560000D02*
X89060000Y44560000D01*
X84940000Y44530000D02*
X84940000Y44560000D01*
X84940000Y34440000D02*
X84940000Y34470000D01*
X89060000Y44560000D02*
X89060000Y44530000D01*
X89060000Y34470000D02*
X89060000Y34440000D01*
X89060000Y34440000D02*
X84940000Y34440000D01*
X84130000Y44530000D02*
X83890000Y44860000D01*
X84370000Y44860000D01*
X84130000Y44530000D01*
G36*
X84130000Y44530000D02*
G01*
X83890000Y44860000D01*
X84370000Y44860000D01*
X84130000Y44530000D01*
G37*
%TO.C,LED7*%
D11*
X32560000Y38455000D02*
X32560000Y41545000D01*
X27010000Y40000000D02*
G75*
G02*
X32560000Y41544830I2990000J0D01*
G01*
X32560000Y38455170D02*
G75*
G02*
X27010000Y40000000I-2560000J1544830D01*
G01*
D14*
X32500000Y40000000D02*
G75*
G02*
X27500000Y40000000I-2500000J0D01*
G01*
X27500000Y40000000D02*
G75*
G02*
X32500000Y40000000I2500000J0D01*
G01*
%TO.C,TS1*%
D11*
X40890000Y31110000D02*
X40890000Y29000000D01*
X40890000Y31110000D02*
X53110000Y31110000D01*
X40890000Y26000000D02*
X40890000Y24000000D01*
X40890000Y21000000D02*
X40890000Y18890000D01*
X53110000Y31110000D02*
X53110000Y29000000D01*
X53110000Y26000000D02*
X53110000Y24000000D01*
X53110000Y21000000D02*
X53110000Y18890000D01*
X53110000Y18890000D02*
X40890000Y18890000D01*
D14*
X50550000Y25000000D02*
G75*
G02*
X43450000Y25000000I-3550000J0D01*
G01*
X43450000Y25000000D02*
G75*
G02*
X50550000Y25000000I3550000J0D01*
G01*
%TO.C,R1*%
D11*
X105550000Y32930000D02*
X105550000Y34670000D01*
X110300000Y34820000D02*
X105700000Y34820000D01*
X110300000Y32780000D02*
X105700000Y32780000D01*
X110450000Y32930000D02*
X110450000Y34670000D01*
X105550000Y34670000D02*
G75*
G02*
X105700000Y34820000I150000J0D01*
G01*
X105700000Y32780000D02*
G75*
G02*
X105550000Y32930000I0J150000D01*
G01*
X110300000Y34820000D02*
G75*
G02*
X110450000Y34670000I0J-150000D01*
G01*
X110450000Y32930000D02*
G75*
G02*
X110300000Y32780000I-150000J0D01*
G01*
%TO.C,R21*%
X114050000Y47630000D02*
X114050000Y49370000D01*
X118800000Y49520000D02*
X114200000Y49520000D01*
X118800000Y47480000D02*
X114200000Y47480000D01*
X118950000Y47630000D02*
X118950000Y49370000D01*
X114050000Y49370000D02*
G75*
G02*
X114200000Y49520000I150000J0D01*
G01*
X114200000Y47480000D02*
G75*
G02*
X114050000Y47630000I0J150000D01*
G01*
X118800000Y49520000D02*
G75*
G02*
X118950000Y49370000I0J-150000D01*
G01*
X118950000Y47630000D02*
G75*
G02*
X118800000Y47480000I-150000J0D01*
G01*
%TO.C,C6*%
X102480000Y31300000D02*
X102480000Y26700000D01*
X104370000Y31450000D02*
X102630000Y31450000D01*
X104370000Y26550000D02*
X102630000Y26550000D01*
X104520000Y31300000D02*
X104520000Y26700000D01*
X102480000Y31300000D02*
G75*
G02*
X102630000Y31450000I150000J0D01*
G01*
X102630000Y26550000D02*
G75*
G02*
X102480000Y26700000I0J150000D01*
G01*
X104370000Y31450000D02*
G75*
G02*
X104520000Y31300000I0J-150000D01*
G01*
X104520000Y26700000D02*
G75*
G02*
X104370000Y26550000I-150000J0D01*
G01*
%TO.C,R11*%
X58480000Y22800000D02*
X58480000Y18200000D01*
X60370000Y22950000D02*
X58630000Y22950000D01*
X60370000Y18050000D02*
X58630000Y18050000D01*
X60520000Y22800000D02*
X60520000Y18200000D01*
X58480000Y22800000D02*
G75*
G02*
X58630000Y22950000I150000J0D01*
G01*
X58630000Y18050000D02*
G75*
G02*
X58480000Y18200000I0J150000D01*
G01*
X60370000Y22950000D02*
G75*
G02*
X60520000Y22800000I0J-150000D01*
G01*
X60520000Y18200000D02*
G75*
G02*
X60370000Y18050000I-150000J0D01*
G01*
%TO.C,TS4*%
X106890000Y31110000D02*
X106890000Y29000000D01*
X106890000Y31110000D02*
X119110000Y31110000D01*
X106890000Y26000000D02*
X106890000Y24000000D01*
X106890000Y21000000D02*
X106890000Y18890000D01*
X119110000Y31110000D02*
X119110000Y29000000D01*
X119110000Y26000000D02*
X119110000Y24000000D01*
X119110000Y21000000D02*
X119110000Y18890000D01*
X119110000Y18890000D02*
X106890000Y18890000D01*
D14*
X116550000Y25000000D02*
G75*
G02*
X109450000Y25000000I-3550000J0D01*
G01*
X109450000Y25000000D02*
G75*
G02*
X116550000Y25000000I3550000J0D01*
G01*
%TO.C,R4*%
D11*
X80550000Y71870000D02*
X80550000Y70130000D01*
X80700000Y72020000D02*
X85300000Y72020000D01*
X80700000Y69980000D02*
X85300000Y69980000D01*
X85450000Y71870000D02*
X85450000Y70130000D01*
X80550000Y71870000D02*
G75*
G02*
X80700000Y72020000I150000J0D01*
G01*
X80700000Y69980000D02*
G75*
G02*
X80550000Y70130000I0J150000D01*
G01*
X85300000Y72020000D02*
G75*
G02*
X85450000Y71870000I0J-150000D01*
G01*
X85450000Y70130000D02*
G75*
G02*
X85300000Y69980000I-150000J0D01*
G01*
%TO.C,R9*%
X76950000Y70130000D02*
X76950000Y71870000D01*
X76800000Y69980000D02*
X72200000Y69980000D01*
X76800000Y72020000D02*
X72200000Y72020000D01*
X72050000Y70130000D02*
X72050000Y71870000D01*
X76950000Y70130000D02*
G75*
G02*
X76800000Y69980000I-150000J0D01*
G01*
X76800000Y72020000D02*
G75*
G02*
X76950000Y71870000I0J-150000D01*
G01*
X72200000Y69980000D02*
G75*
G02*
X72050000Y70130000I0J150000D01*
G01*
X72050000Y71870000D02*
G75*
G02*
X72200000Y72020000I150000J0D01*
G01*
%TO.C,R2*%
X77550000Y48870000D02*
X77550000Y47130000D01*
X77700000Y49020000D02*
X82300000Y49020000D01*
X77700000Y46980000D02*
X82300000Y46980000D01*
X82450000Y48870000D02*
X82450000Y47130000D01*
X77550000Y48870000D02*
G75*
G02*
X77700000Y49020000I150000J0D01*
G01*
X77700000Y46980000D02*
G75*
G02*
X77550000Y47130000I0J150000D01*
G01*
X82300000Y49020000D02*
G75*
G02*
X82450000Y48870000I0J-150000D01*
G01*
X82450000Y47130000D02*
G75*
G02*
X82300000Y46980000I-150000J0D01*
G01*
%TO.C,R8*%
X91550000Y71870000D02*
X91550000Y70130000D01*
X91700000Y72020000D02*
X96300000Y72020000D01*
X91700000Y69980000D02*
X96300000Y69980000D01*
X96450000Y71870000D02*
X96450000Y70130000D01*
X91550000Y71870000D02*
G75*
G02*
X91700000Y72020000I150000J0D01*
G01*
X91700000Y69980000D02*
G75*
G02*
X91550000Y70130000I0J150000D01*
G01*
X96300000Y72020000D02*
G75*
G02*
X96450000Y71870000I0J-150000D01*
G01*
X96450000Y70130000D02*
G75*
G02*
X96300000Y69980000I-150000J0D01*
G01*
%TO.C,LED6*%
X132560000Y55455000D02*
X132560000Y58545000D01*
X127010000Y57000000D02*
G75*
G02*
X132560000Y58544830I2990000J0D01*
G01*
X132560000Y55455170D02*
G75*
G02*
X127010000Y57000000I-2560000J1544830D01*
G01*
D14*
X132500000Y57000000D02*
G75*
G02*
X127500000Y57000000I-2500000J0D01*
G01*
X127500000Y57000000D02*
G75*
G02*
X132500000Y57000000I2500000J0D01*
G01*
%TO.C,LED2*%
D11*
X132560000Y46955000D02*
X132560000Y50045000D01*
X127010000Y48500000D02*
G75*
G02*
X132560000Y50044830I2990000J0D01*
G01*
X132560000Y46955170D02*
G75*
G02*
X127010000Y48500000I-2560000J1544830D01*
G01*
D14*
X132500000Y48500000D02*
G75*
G02*
X127500000Y48500000I-2500000J0D01*
G01*
X127500000Y48500000D02*
G75*
G02*
X132500000Y48500000I2500000J0D01*
G01*
%TO.C,R3*%
D11*
X96550000Y48870000D02*
X96550000Y47130000D01*
X96700000Y49020000D02*
X101300000Y49020000D01*
X96700000Y46980000D02*
X101300000Y46980000D01*
X101450000Y48870000D02*
X101450000Y47130000D01*
X96550000Y48870000D02*
G75*
G02*
X96700000Y49020000I150000J0D01*
G01*
X96700000Y46980000D02*
G75*
G02*
X96550000Y47130000I0J150000D01*
G01*
X101300000Y49020000D02*
G75*
G02*
X101450000Y48870000I0J-150000D01*
G01*
X101450000Y47130000D02*
G75*
G02*
X101300000Y46980000I-150000J0D01*
G01*
%TO.C,TS3*%
X84890000Y31110000D02*
X84890000Y29000000D01*
X84890000Y31110000D02*
X97110000Y31110000D01*
X84890000Y26000000D02*
X84890000Y24000000D01*
X84890000Y21000000D02*
X84890000Y18890000D01*
X97110000Y31110000D02*
X97110000Y29000000D01*
X97110000Y26000000D02*
X97110000Y24000000D01*
X97110000Y21000000D02*
X97110000Y18890000D01*
X97110000Y18890000D02*
X84890000Y18890000D01*
D14*
X94550000Y25000000D02*
G75*
G02*
X87450000Y25000000I-3550000J0D01*
G01*
X87450000Y25000000D02*
G75*
G02*
X94550000Y25000000I3550000J0D01*
G01*
%TO.C,R10*%
D11*
X36480000Y22800000D02*
X36480000Y18200000D01*
X38370000Y22950000D02*
X36630000Y22950000D01*
X38370000Y18050000D02*
X36630000Y18050000D01*
X38520000Y22800000D02*
X38520000Y18200000D01*
X36480000Y22800000D02*
G75*
G02*
X36630000Y22950000I150000J0D01*
G01*
X36630000Y18050000D02*
G75*
G02*
X36480000Y18200000I0J150000D01*
G01*
X38370000Y22950000D02*
G75*
G02*
X38520000Y22800000I0J-150000D01*
G01*
X38520000Y18200000D02*
G75*
G02*
X38370000Y18050000I-150000J0D01*
G01*
%TO.C,R16*%
X114050000Y64630000D02*
X114050000Y66370000D01*
X118800000Y66520000D02*
X114200000Y66520000D01*
X118800000Y64480000D02*
X114200000Y64480000D01*
X118950000Y64630000D02*
X118950000Y66370000D01*
X114050000Y66370000D02*
G75*
G02*
X114200000Y66520000I150000J0D01*
G01*
X114200000Y64480000D02*
G75*
G02*
X114050000Y64630000I0J150000D01*
G01*
X118800000Y66520000D02*
G75*
G02*
X118950000Y66370000I0J-150000D01*
G01*
X118950000Y64630000D02*
G75*
G02*
X118800000Y64480000I-150000J0D01*
G01*
%TD*%
M02*
