M48
; DRILL file KiCad 10.0.1 date 2026-07-14T16:36:26
; FORMAT={-:-/ absolute / metric / decimal}
; #@! TF.CreationDate,2026-07-14T16:36:26+09:00
; #@! TF.GenerationSoftware,Kicad,Pcbnew,10.0.1
; #@! TF.FileFunction,Plated,1,2,PTH
FMAT,2
METRIC
; #@! TA.AperFunction,Plated,PTH,ViaDrill
T1C0.400
; #@! TA.AperFunction,Plated,PTH,ViaDrill
T2C0.500
; #@! TA.AperFunction,Plated,PTH,ComponentDrill
T3C0.900
; #@! TA.AperFunction,Plated,PTH,ComponentDrill
T4C0.950
; #@! TA.AperFunction,Plated,PTH,ComponentDrill
T5C1.400
%
G90
G05
T1
X87.725Y15.35
X91.625Y37.6
X99.4Y35.7
X102.775Y36.5
X105.125Y12.625
X116.575Y6.65
T2
X9.45Y17.375
X9.45Y6.625
X10.73Y52.075
X13.375Y6.575
X14.05Y17.225
X15.125Y62.075
X15.125Y52.075
X15.225Y72.15
X19.05Y18.925
X20.9Y40.65
X25.1Y53.675
X25.125Y62.05
X25.2Y45.375
X25.3Y36.85
X35.175Y19.875
X35.7Y29.0
X35.7Y25.05
X37.575Y36.825
X40.525Y46.85
X47.0Y25.0
X47.4Y60.0
X47.4Y57.0
X47.4Y54.1
X52.825Y45.475
X58.2Y67.0
X60.4Y67.0
X62.385Y37.86
X62.6Y67.0
X62.75Y16.85
X65.0Y35.275
X66.95Y40.875
X66.975Y37.95
X69.0Y25.0
X70.0Y51.8
X70.7Y48.3
X71.4Y65.5
X73.7Y48.3
X75.0Y65.5
X78.3Y72.8
X83.1Y60.9
X84.75Y16.7
X86.3Y60.9
X87.0Y41.1
X87.0Y37.4
X88.6Y72.8
X89.2Y50.6
X90.35Y71.0
X91.0Y25.0
X91.8Y67.2
X92.1Y50.6
X92.5Y60.8
X92.5Y33.8
X93.55Y42.975
X93.55Y37.525
X94.2Y67.2
X95.3Y60.8
X95.5Y16.925
X95.525Y54.625
X96.0Y44.0
X96.0Y33.8
X97.5Y13.425
X98.2Y44.0
X98.4Y53.9
X100.4Y17.025
X100.575Y30.35
X100.575Y24.9
X101.15Y56.825
X101.9Y64.7
X101.9Y60.8
X101.9Y53.9
X102.9Y41.0
X102.95Y13.375
X105.0Y41.0
X105.8Y54.2
X105.975Y25.0
X107.2Y41.0
X107.675Y18.875
X111.175Y25.0
X111.6Y38.3
X111.6Y35.1
X111.625Y13.5
X111.65Y18.875
X113.1Y38.3
X113.1Y35.1
X115.375Y25.0
X115.425Y13.5
X119.0Y6.5
X119.0Y2.0
X119.15Y13.5
X122.9Y32.7
X122.9Y6.5
X122.9Y2.0
X125.1Y32.7
X126.0Y13.5
X126.7Y2.0
X127.3Y32.7
X134.2Y35.9
X134.2Y32.7
X134.2Y29.4
X144.8Y62.0
X144.8Y56.4
X144.8Y50.8
X144.8Y37.7
X144.8Y32.7
X144.8Y27.1
T3
X28.73Y65.5
X28.73Y57.0
X28.73Y48.5
X28.73Y40.0
X31.27Y65.5
X31.27Y57.0
X31.27Y48.5
X31.27Y40.0
X73.65Y67.12
X73.65Y51.88
X76.19Y67.12
X76.19Y51.88
X78.73Y67.12
X78.73Y51.88
X81.27Y67.12
X81.27Y51.88
X83.81Y67.12
X83.81Y51.88
X86.35Y67.12
X86.35Y51.88
X128.73Y65.5
X128.73Y57.0
X128.73Y48.5
X128.73Y40.0
X131.27Y65.5
X131.27Y57.0
X131.27Y48.5
X131.27Y40.0
T4
X10.73Y40.62
X10.73Y38.08
X10.73Y35.54
X10.73Y33.0
X10.73Y30.46
X10.73Y27.92
X10.73Y25.38
X13.27Y40.62
X13.27Y38.08
X13.27Y35.54
X13.27Y33.0
X13.27Y30.46
X13.27Y27.92
X13.27Y25.38
T5
X40.75Y27.5
X40.75Y22.5
X53.25Y27.5
X53.25Y22.5
X62.75Y27.5
X62.75Y22.5
X75.25Y27.5
X75.25Y22.5
X84.75Y27.5
X84.75Y22.5
X97.25Y27.5
X97.25Y22.5
X106.75Y27.5
X106.75Y22.5
X119.25Y27.5
X119.25Y22.5
M30
