%TF.GenerationSoftware,KiCad,Pcbnew,10.0.1*%
%TF.CreationDate,2026-07-14T16:36:56+09:00*%
%TF.ProjectId,SMD_DISPLAY_BD_SV5,534d445f-4449-4535-904c-41595f42445f,rev?*%
%TF.SameCoordinates,Original*%
%TF.FileFunction,Soldermask,Bot*%
%TF.FilePolarity,Negative*%
%FSLAX46Y46*%
G04 Gerber Fmt 4.6, Leading zero omitted, Abs format (unit mm)*
G04 Created by KiCad (PCBNEW 10.0.1) date 2026-07-14 16:36:56*
%MOMM*%
%LPD*%
G01*
G04 APERTURE LIST*
G04 Aperture macros list*
%AMRoundRect*
0 Rectangle with rounded corners*
0 $1 Rounding radius*
0 $2 $3 $4 $5 $6 $7 $8 $9 X,Y pos of 4 corners*
0 Add a 4 corners polygon primitive as box body*
4,1,4,$2,$3,$4,$5,$6,$7,$8,$9,$2,$3,0*
0 Add four circle primitives for the rounded corners*
1,1,$1+$1,$2,$3*
1,1,$1+$1,$4,$5*
1,1,$1+$1,$6,$7*
1,1,$1+$1,$8,$9*
0 Add four rect primitives between the rounded corners*
20,1,$1+$1,$2,$3,$4,$5,0*
20,1,$1+$1,$4,$5,$6,$7,0*
20,1,$1+$1,$6,$7,$8,$9,0*
20,1,$1+$1,$8,$9,$2,$3,0*%
G04 Aperture macros list end*
%ADD10C,3.500000*%
%ADD11C,1.700000*%
%ADD12RoundRect,0.250000X0.600000X-0.600000X0.600000X0.600000X-0.600000X0.600000X-0.600000X-0.600000X0*%
%ADD13C,1.900000*%
%ADD14RoundRect,0.250000X0.700000X0.700000X-0.700000X0.700000X-0.700000X-0.700000X0.700000X-0.700000X0*%
%ADD15C,2.800000*%
%ADD16RoundRect,0.279412X-0.670588X-0.670588X0.670588X-0.670588X0.670588X0.670588X-0.670588X0.670588X0*%
G04 APERTURE END LIST*
D10*
%TO.C,H1*%
X20000000Y5000000D03*
%TD*%
%TO.C,H3*%
X20000000Y70000000D03*
%TD*%
%TO.C,H4*%
X140000000Y70000000D03*
%TD*%
%TO.C,H2*%
X140000000Y5000000D03*
%TD*%
D11*
%TO.C,U4*%
X73650000Y67120000D03*
X76190000Y67120000D03*
X78730000Y67120000D03*
X81270000Y67120000D03*
X83810000Y67120000D03*
X86350000Y67120000D03*
X86350000Y51880000D03*
X83810000Y51880000D03*
X81270000Y51880000D03*
X78730000Y51880000D03*
X76190000Y51880000D03*
D12*
X73650000Y51880000D03*
%TD*%
D13*
%TO.C,LED4*%
X31270000Y65500000D03*
D14*
X28730000Y65500000D03*
%TD*%
D13*
%TO.C,LED1*%
X131270000Y65500000D03*
D14*
X128730000Y65500000D03*
%TD*%
D13*
%TO.C,LED5*%
X31270000Y57000000D03*
D14*
X28730000Y57000000D03*
%TD*%
D13*
%TO.C,LED8*%
X131270000Y40000000D03*
D14*
X128730000Y40000000D03*
%TD*%
D13*
%TO.C,LED3*%
X31270000Y48500000D03*
D14*
X28730000Y48500000D03*
%TD*%
D15*
%TO.C,TS2*%
X62750000Y22500000D03*
X75250000Y22500000D03*
X75250000Y27500000D03*
X62750000Y27500000D03*
%TD*%
D13*
%TO.C,LED7*%
X31270000Y40000000D03*
D14*
X28730000Y40000000D03*
%TD*%
D15*
%TO.C,TS1*%
X40750000Y22500000D03*
X53250000Y22500000D03*
X53250000Y27500000D03*
X40750000Y27500000D03*
%TD*%
%TO.C,TS4*%
X106750000Y22500000D03*
X119250000Y22500000D03*
X119250000Y27500000D03*
X106750000Y27500000D03*
%TD*%
D13*
%TO.C,LED6*%
X131270000Y57000000D03*
D14*
X128730000Y57000000D03*
%TD*%
D13*
%TO.C,LED2*%
X131270000Y48500000D03*
D14*
X128730000Y48500000D03*
%TD*%
D15*
%TO.C,TS3*%
X84750000Y22500000D03*
X97250000Y22500000D03*
X97250000Y27500000D03*
X84750000Y27500000D03*
%TD*%
D16*
%TO.C,J1*%
X10730000Y25380000D03*
D13*
X13270000Y25380000D03*
X10730000Y27920000D03*
X13270000Y27920000D03*
X10730000Y30460000D03*
X13270000Y30460000D03*
X10730000Y33000000D03*
X13270000Y33000000D03*
X10730000Y35540000D03*
X13270000Y35540000D03*
X10730000Y38080000D03*
X13270000Y38080000D03*
X10730000Y40620000D03*
X13270000Y40620000D03*
%TD*%
M02*
