%TF.GenerationSoftware,KiCad,Pcbnew,10.0.1*%
%TF.CreationDate,2026-07-14T16:36:56+09:00*%
%TF.ProjectId,SMD_DISPLAY_BD_SV5,534d445f-4449-4535-904c-41595f42445f,rev?*%
%TF.SameCoordinates,Original*%
%TF.FileFunction,Legend,Bot*%
%TF.FilePolarity,Positive*%
%FSLAX46Y46*%
G04 Gerber Fmt 4.6, Leading zero omitted, Abs format (unit mm)*
G04 Created by KiCad (PCBNEW 10.0.1) date 2026-07-14 16:36:56*
%MOMM*%
%LPD*%
G01*
G04 APERTURE LIST*
%ADD10C,0.150000*%
%ADD11C,0.120000*%
G04 APERTURE END LIST*
D10*
X12333333Y19825180D02*
X12333333Y19110895D01*
X12333333Y19110895D02*
X12380952Y18968038D01*
X12380952Y18968038D02*
X12476190Y18872800D01*
X12476190Y18872800D02*
X12619047Y18825180D01*
X12619047Y18825180D02*
X12714285Y18825180D01*
X11333333Y18825180D02*
X11904761Y18825180D01*
X11619047Y18825180D02*
X11619047Y19825180D01*
X11619047Y19825180D02*
X11714285Y19682323D01*
X11714285Y19682323D02*
X11809523Y19587085D01*
X11809523Y19587085D02*
X11904761Y19539466D01*
%TO.C,J1*%
D11*
X6050000Y25880000D02*
X7050000Y25380000D01*
X6050000Y24880000D02*
X6050000Y25880000D01*
X7050000Y25380000D02*
X6050000Y24880000D01*
X7440000Y45830000D02*
X7440000Y20170000D01*
X7440000Y30950000D02*
X8750000Y30950000D01*
X7440000Y20170000D02*
X16560000Y20170000D01*
X8750000Y44530000D02*
X8750000Y35050000D01*
X8750000Y35050000D02*
X7440000Y35050000D01*
X8750000Y30950000D02*
X8750000Y21470000D01*
X8750000Y21470000D02*
X15250000Y21470000D01*
X15250000Y44530000D02*
X8750000Y44530000D01*
X15250000Y21470000D02*
X15250000Y44530000D01*
X16560000Y45830000D02*
X7440000Y45830000D01*
X16560000Y20170000D02*
X16560000Y45830000D01*
%TD*%
M02*
