M48
; DRILL file {KiCad 9.0.7} date 2026-02-24T00:51:52+0900
; FORMAT={-:-/ absolute / metric / decimal}
; #@! TF.CreationDate,2026-02-24T00:51:52+09:00
; #@! TF.GenerationSoftware,Kicad,Pcbnew,9.0.7
; #@! TF.FileFunction,Plated,1,2,PTH
FMAT,2
METRIC
; #@! TA.AperFunction,Plated,PTH,ViaDrill
T1C0.600
; #@! TA.AperFunction,Plated,PTH,ComponentDrill
T2C0.730
; #@! TA.AperFunction,Plated,PTH,ComponentDrill
T3C0.750
; #@! TA.AperFunction,Plated,PTH,ComponentDrill
T4C0.780
; #@! TA.AperFunction,Plated,PTH,ComponentDrill
T5C0.800
; #@! TA.AperFunction,Plated,PTH,ComponentDrill
T6C0.850
; #@! TA.AperFunction,Plated,PTH,ComponentDrill
T7C0.880
; #@! TA.AperFunction,Plated,PTH,ComponentDrill
T8C0.930
; #@! TA.AperFunction,Plated,PTH,ComponentDrill
T9C0.950
; #@! TA.AperFunction,Plated,PTH,ComponentDrill
T10C1.000
; #@! TA.AperFunction,Plated,PTH,ComponentDrill
T11C1.050
; #@! TA.AperFunction,Plated,PTH,ComponentDrill
T12C1.100
; #@! TA.AperFunction,Plated,PTH,ComponentDrill
T13C1.150
; #@! TA.AperFunction,Plated,PTH,ComponentDrill
T14C1.200
; #@! TA.AperFunction,Plated,PTH,ComponentDrill
T15C1.350
; #@! TA.AperFunction,Plated,PTH,ComponentDrill
T16C1.830
; #@! TA.AperFunction,Plated,PTH,ComponentDrill
T17C3.500
%
G90
G05
T1
X17.5Y90.5
X51.99Y18.51
X63.01Y50.48
X68.16Y9.71
X69.82Y15.99
X71.47Y24.94
X72.74Y12.98
X77.64Y10.6
X84.32Y16.31
X121.44Y16.82
T2
X55.5Y27.5
X55.5Y25.0
X55.5Y22.5
T3
X17.1Y29.25
X17.1Y26.75
X21.4Y80.1
X26.4Y80.1
X35.5Y52.0
X40.5Y52.0
X44.5Y26.0
X49.5Y26.0
T4
X79.93Y4.285
X82.47Y6.825
X85.01Y4.285
T5
X48.09Y46.31
X48.09Y38.69
X50.63Y46.31
X50.63Y38.69
X53.17Y46.31
X53.17Y38.69
X55.71Y46.31
X55.71Y38.69
X65.8Y80.4
X70.8Y80.4
X72.7Y46.1
X72.7Y44.1
X76.33Y38.795
X76.33Y31.175
X78.87Y38.795
X78.87Y31.175
X79.39Y46.2
X87.01Y46.2
X95.99Y16.31
X95.99Y13.77
X95.99Y11.23
X95.99Y8.69
X103.61Y16.31
X103.61Y13.77
X103.61Y11.23
X103.61Y8.69
X110.29Y13.804
X110.29Y11.264
X110.29Y8.724
X117.91Y13.804
X117.91Y11.264
X117.91Y8.724
X125.99Y16.82
X125.99Y9.2
X128.53Y16.82
X128.53Y9.2
X131.07Y16.82
X131.07Y9.2
X137.92Y32.0
X148.08Y32.0
T6
X96.06Y59.2
X101.14Y59.2
T7
X83.65Y31.34
X85.75Y38.66
X122.955Y84.75
X122.965Y80.05
X130.275Y82.65
X130.285Y77.95
T8
X64.237Y68.0
X64.237Y53.4
X70.2Y68.0
X70.2Y53.4
X95.0Y83.3
X95.0Y68.7
X102.5Y72.5
X116.4Y2.9
X117.5Y72.5
X131.0Y2.9
X146.0Y18.3
X146.0Y3.7
T9
X3.35Y77.5
X6.6Y68.0
X6.6Y63.0
X6.85Y77.5
X7.8Y92.8
X7.8Y87.8
X17.1Y56.7
X17.1Y51.7
X17.1Y44.8
X17.1Y39.8
X18.95Y63.7
X21.5Y63.7
X24.05Y63.7
X24.3Y92.45
X24.3Y89.9
X24.3Y87.35
X33.075Y34.1
X35.625Y34.1
X35.8Y26.0
X35.8Y21.0
X35.8Y11.5
X35.8Y6.5
X36.8Y44.55
X36.8Y41.05
X38.175Y34.1
X45.65Y14.4
X49.15Y14.4
X58.725Y63.73
X58.725Y53.57
X66.4Y95.48
X66.4Y85.32
T10
X3.5Y45.25
X3.5Y42.75
X3.5Y32.25
X3.5Y29.75
X3.5Y27.25
X3.5Y24.75
X3.5Y22.25
X3.5Y19.75
X101.1Y80.7
X117.1Y80.7
X118.0Y62.0
X134.0Y62.0
T11
X76.9Y94.2
X76.9Y81.2
X86.9Y94.2
X86.9Y81.2
T12
X25.7Y30.34
X25.7Y27.8
X25.7Y25.26
X33.65Y93.6
X33.65Y88.6
X33.65Y83.6
X33.65Y78.6
X33.65Y73.6
X33.65Y68.6
X51.15Y93.6
X51.15Y88.6
X51.15Y83.6
X51.15Y78.6
X51.15Y73.6
X51.15Y68.6
X60.1Y95.36
X60.1Y75.04
X83.5Y64.75
X83.5Y57.25
X128.9Y48.8
X128.9Y43.2
X128.9Y33.2
X128.9Y27.6
T13
X107.25Y55.89
X108.75Y63.51
T14
X101.2Y49.0
X101.2Y27.0
X111.2Y49.0
X111.2Y27.0
T15
X66.15Y74.8
X73.65Y74.8
X81.15Y74.8
X88.65Y74.8
T16
X101.0Y94.5
X101.0Y89.5
X113.0Y94.5
X113.0Y89.5
X124.3Y71.1
X126.5Y93.0
X129.3Y71.1
X131.5Y93.0
X140.5Y93.0
X142.5Y64.0
X142.5Y54.0
X142.5Y44.0
X145.5Y93.0
X147.5Y64.0
X147.5Y54.0
X147.5Y44.0
T17
X16.0Y75.0
X16.0Y5.0
X136.0Y75.0
T12
G00X91.9Y36.25
M15
G01X91.9Y39.75
M16
G05
G00X120.5Y36.25
M15
G01X120.5Y39.75
M16
G05
M30
