M48
; DRILL file {KiCad 9.0.7} date 2026-02-04T14:48:41+0900
; FORMAT={-:-/ absolute / metric / decimal}
; #@! TF.CreationDate,2026-02-04T14:48:41+09:00
; #@! TF.GenerationSoftware,Kicad,Pcbnew,9.0.7
; #@! TF.FileFunction,Plated,1,2,PTH
FMAT,2
METRIC
; #@! TA.AperFunction,Plated,PTH,ComponentDrill
T1C0.730
; #@! TA.AperFunction,Plated,PTH,ComponentDrill
T2C0.750
; #@! TA.AperFunction,Plated,PTH,ComponentDrill
T3C0.800
; #@! TA.AperFunction,Plated,PTH,ComponentDrill
T4C0.850
; #@! TA.AperFunction,Plated,PTH,ComponentDrill
T5C0.880
; #@! TA.AperFunction,Plated,PTH,ComponentDrill
T6C0.930
; #@! TA.AperFunction,Plated,PTH,ComponentDrill
T7C0.950
; #@! TA.AperFunction,Plated,PTH,ComponentDrill
T8C1.000
; #@! TA.AperFunction,Plated,PTH,ComponentDrill
T9C1.100
; #@! TA.AperFunction,Plated,PTH,ComponentDrill
T10C1.150
; #@! TA.AperFunction,Plated,PTH,ComponentDrill
T11C1.200
; #@! TA.AperFunction,Plated,PTH,ComponentDrill
T12C1.410
; #@! TA.AperFunction,Plated,PTH,ComponentDrill
T13C1.830
; #@! TA.AperFunction,Plated,PTH,ComponentDrill
T14C3.500
%
G90
G05
T1
X54.875Y17.1
X54.875Y14.6
X54.875Y12.1
T2
X17.1Y29.25
X17.1Y26.75
X17.9Y17.6
X17.9Y12.6
X21.4Y80.1
X23.4Y17.6
X23.4Y12.6
X25.75Y75.1
X25.75Y70.1
X26.4Y80.1
X27.7Y45.0
X27.7Y40.0
X35.125Y52.5
X40.125Y52.5
X48.5Y58.3
X48.5Y53.3
X48.9Y24.1
X53.0Y58.3
X53.0Y53.3
X53.9Y24.1
X62.2Y33.5
X65.4Y7.825
X65.4Y2.825
X67.2Y33.5
X70.9Y7.825
X70.9Y2.825
X88.3Y7.825
X88.3Y2.825
X123.4Y15.975
X123.4Y10.975
T3
X18.2Y94.455
X18.2Y84.295
X30.02Y57.0
X40.18Y57.0
X42.22Y4.5
X43.92Y29.0
X48.09Y46.31
X48.09Y38.69
X50.63Y46.31
X50.63Y38.69
X52.38Y4.5
X53.17Y46.31
X53.17Y38.69
X54.08Y29.0
X55.71Y46.31
X55.71Y38.69
X61.42Y23.6
X61.42Y20.6
X61.42Y17.6
X61.42Y14.6
X64.0Y49.08
X64.0Y38.92
X65.8Y80.4
X67.0Y49.08
X67.0Y38.92
X70.8Y80.4
X71.58Y23.6
X71.58Y20.6
X71.58Y17.6
X71.58Y14.6
X72.7Y46.1
X72.7Y44.1
X76.33Y38.795
X76.33Y31.175
X77.8Y7.9
X77.8Y2.9
X78.42Y23.6
X78.42Y20.6
X78.42Y17.6
X78.42Y14.6
X78.42Y11.6
X78.87Y38.795
X78.87Y31.175
X79.39Y46.2
X82.987Y7.9
X82.987Y2.9
X87.01Y46.2
X88.58Y23.6
X88.58Y20.6
X88.58Y17.6
X88.58Y14.6
X88.58Y11.6
X95.99Y19.21
X95.99Y16.67
X95.99Y14.13
X95.99Y11.59
X96.02Y6.1
X96.02Y3.0
X103.61Y19.21
X103.61Y16.67
X103.61Y14.13
X103.61Y11.59
X106.18Y6.1
X106.18Y3.0
X110.29Y17.04
X110.29Y14.5
X110.29Y11.96
X117.91Y17.04
X117.91Y14.5
X117.91Y11.96
X128.0Y21.08
X128.0Y10.92
X133.46Y20.01
X133.46Y12.39
X136.0Y20.01
X136.0Y12.39
X137.92Y32.0
X137.92Y25.0
X138.54Y20.01
X138.54Y12.39
X148.08Y32.0
X148.08Y25.0
T4
X96.06Y59.2
X101.14Y59.2
T5
X83.65Y31.34
X85.75Y38.66
X122.955Y84.75
X122.965Y80.05
X130.275Y82.65
X130.285Y77.95
T6
X64.237Y68.0
X64.237Y53.4
X70.2Y68.0
X70.2Y53.4
X95.0Y83.3
X95.0Y68.7
X102.5Y72.5
X116.4Y2.9
X117.5Y72.5
X131.0Y2.9
X146.0Y18.3
X146.0Y3.7
T7
X3.35Y77.5
X6.6Y68.0
X6.6Y63.0
X6.85Y77.5
X7.8Y92.8
X7.8Y87.8
X17.1Y56.7
X17.1Y51.7
X17.1Y44.8
X17.1Y39.8
X35.8Y26.0
X35.8Y21.0
X35.8Y11.5
X35.8Y6.5
X36.8Y44.55
X36.8Y41.05
X45.65Y14.4
X49.15Y14.4
X56.23Y5.2
X58.725Y63.73
X58.725Y53.57
X58.77Y5.2
X66.4Y95.48
X66.4Y85.32
X76.9Y94.2
X76.9Y81.2
X86.9Y94.2
X86.9Y81.2
X111.6Y4.57
X111.6Y2.03
T8
X3.5Y45.25
X3.5Y42.75
X3.5Y32.25
X3.5Y29.75
X3.5Y27.25
X3.5Y24.75
X3.5Y22.25
X3.5Y19.75
X101.1Y80.7
X117.1Y80.7
X118.0Y62.0
X134.0Y62.0
T9
X18.95Y63.7
X21.5Y63.7
X24.05Y63.7
X24.3Y92.45
X24.3Y89.9
X24.3Y87.35
X25.7Y30.34
X25.7Y27.8
X25.7Y25.26
X33.075Y34.1
X33.65Y93.6
X33.65Y88.6
X33.65Y83.6
X33.65Y78.6
X33.65Y73.6
X33.65Y68.6
X35.625Y34.1
X38.175Y34.1
X51.15Y93.6
X51.15Y88.6
X51.15Y83.6
X51.15Y78.6
X51.15Y73.6
X51.15Y68.6
X60.1Y95.36
X60.1Y75.04
X83.5Y64.75
X83.5Y57.25
X129.7Y48.1
X129.7Y26.9
T10
X107.25Y55.89
X108.75Y63.51
T11
X101.2Y49.0
X101.2Y27.0
X111.2Y49.0
X111.2Y27.0
T12
X65.97Y74.8
X73.59Y74.8
X81.21Y74.8
X88.83Y74.8
T13
X101.0Y94.5
X101.0Y89.5
X113.0Y94.5
X113.0Y89.5
X124.3Y71.1
X126.5Y93.0
X129.3Y71.1
X131.5Y93.0
X140.5Y93.0
X142.5Y64.0
X142.5Y54.0
X142.5Y44.0
X145.5Y93.0
X147.5Y64.0
X147.5Y54.0
X147.5Y44.0
T14
X16.0Y75.0
X16.0Y5.0
X136.0Y75.0
T9
G00X91.9Y36.25
M15
G01X91.9Y39.75
M16
G05
G00X120.5Y36.25
M15
G01X120.5Y39.75
M16
G05
M30
