%TF.GenerationSoftware,KiCad,Pcbnew,10.0.1*%
%TF.CreationDate,2026-08-01T12:15:36+09:00*%
%TF.ProjectId,CTC_BD_01,4354435f-4244-45f3-9031-2e6b69636164,rev?*%
%TF.SameCoordinates,Original*%
%TF.FileFunction,Legend,Top*%
%TF.FilePolarity,Positive*%
%FSLAX46Y46*%
G04 Gerber Fmt 4.6, Leading zero omitted, Abs format (unit mm)*
G04 Created by KiCad (PCBNEW 10.0.1) date 2026-08-01 12:15:36*
%MOMM*%
%LPD*%
G01*
G04 APERTURE LIST*
%ADD10C,0.200000*%
G04 APERTURE END LIST*
D10*
X10176667Y12592873D02*
X10176667Y11685730D01*
X10176667Y11685730D02*
X10116190Y11504302D01*
X10116190Y11504302D02*
X9995238Y11383350D01*
X9995238Y11383350D02*
X9813809Y11322873D01*
X9813809Y11322873D02*
X9692857Y11322873D01*
X10720952Y12471921D02*
X10781428Y12532397D01*
X10781428Y12532397D02*
X10902381Y12592873D01*
X10902381Y12592873D02*
X11204762Y12592873D01*
X11204762Y12592873D02*
X11325714Y12532397D01*
X11325714Y12532397D02*
X11386190Y12471921D01*
X11386190Y12471921D02*
X11446667Y12350969D01*
X11446667Y12350969D02*
X11446667Y12230016D01*
X11446667Y12230016D02*
X11386190Y12048588D01*
X11386190Y12048588D02*
X10660476Y11322873D01*
X10660476Y11322873D02*
X11446667Y11322873D01*
%TO.C,J2*%
X6500000Y10900000D02*
X13900000Y10900000D01*
X6500000Y9600000D02*
X7750000Y10900000D01*
X6500000Y5750000D02*
X13900000Y5750000D01*
X6500000Y5100000D02*
X6500000Y10900000D01*
X6500000Y5100000D02*
X13900000Y5100000D01*
X13900000Y5100000D02*
X13900000Y10900000D01*
%TD*%
M02*
