%TF.GenerationSoftware,KiCad,Pcbnew,10.0.1*%
%TF.CreationDate,2026-09-04T22:29:03+09:00*%
%TF.ProjectId,CTC_BD_03,4354435f-4244-45f3-9033-2e6b69636164,rev?*%
%TF.SameCoordinates,Original*%
%TF.FileFunction,Drillmap*%
%TF.FilePolarity,Positive*%
%FSLAX45Y45*%
G04 Gerber Fmt 4.5, Leading zero omitted, Abs format (unit mm)*
G04 Created by KiCad (PCBNEW 10.0.1) date 2026-09-04 22:29:03*
%MOMM*%
%LPD*%
G01*
G04 APERTURE LIST*
%ADD10C,0.050000*%
%ADD11C,0.200000*%
%ADD12C,0.100000*%
G04 APERTURE END LIST*
D10*
X-10000Y840000D02*
G75*
G02*
X240000Y840000I125000J0D01*
G01*
X-10000Y640000D02*
X-10000Y840000D01*
X240000Y640000D02*
X240000Y840000D01*
X240000Y640000D02*
G75*
G02*
X-10000Y640000I-125000J0D01*
G01*
X2760000Y840000D02*
G75*
G02*
X3010000Y840000I125000J0D01*
G01*
X2760000Y640000D02*
X2760000Y840000D01*
X3010000Y640000D02*
X3010000Y840000D01*
X3010000Y640000D02*
G75*
G02*
X2760000Y640000I-125000J0D01*
G01*
X-200000Y1760000D02*
X-200000Y0D01*
X-200000Y1760000D02*
X3200000Y1760000D01*
X-200000Y0D02*
X3200000Y0D01*
X3200000Y1760000D02*
X3200000Y0D01*
D11*
D12*
X878000Y587000D02*
X928000Y537000D01*
X928000Y587000D02*
X878000Y537000D01*
X878000Y587000D02*
X928000Y537000D01*
X928000Y587000D02*
X878000Y537000D01*
X1369000Y563000D02*
X1419000Y513000D01*
X1419000Y563000D02*
X1369000Y513000D01*
X1598000Y565000D02*
X1648000Y515000D01*
X1648000Y565000D02*
X1598000Y515000D01*
X2074000Y577000D02*
X2124000Y527000D01*
X2124000Y577000D02*
X2074000Y527000D01*
X900000Y740000D02*
G75*
G02*
X800000Y740000I-50000J0D01*
G01*
X800000Y740000D02*
G75*
G02*
X900000Y740000I50000J0D01*
G01*
X1330000Y740000D02*
G75*
G02*
X1230000Y740000I-50000J0D01*
G01*
X1230000Y740000D02*
G75*
G02*
X1330000Y740000I50000J0D01*
G01*
X1770000Y740000D02*
G75*
G02*
X1670000Y740000I-50000J0D01*
G01*
X1670000Y740000D02*
G75*
G02*
X1770000Y740000I50000J0D01*
G01*
X2200000Y740000D02*
G75*
G02*
X2100000Y740000I-50000J0D01*
G01*
X2100000Y740000D02*
G75*
G02*
X2200000Y740000I50000J0D01*
G01*
D11*
X58277Y-313984D02*
X58277Y-113984D01*
X58277Y-113984D02*
X105896Y-113984D01*
X105896Y-113984D02*
X134467Y-123508D01*
X134467Y-123508D02*
X153515Y-142555D01*
X153515Y-142555D02*
X163039Y-161603D01*
X163039Y-161603D02*
X172563Y-199698D01*
X172563Y-199698D02*
X172563Y-228269D01*
X172563Y-228269D02*
X163039Y-266365D01*
X163039Y-266365D02*
X153515Y-285412D01*
X153515Y-285412D02*
X134467Y-304460D01*
X134467Y-304460D02*
X105896Y-313984D01*
X105896Y-313984D02*
X58277Y-313984D01*
X258277Y-313984D02*
X258277Y-180650D01*
X258277Y-218746D02*
X267801Y-199698D01*
X267801Y-199698D02*
X277324Y-190174D01*
X277324Y-190174D02*
X296372Y-180650D01*
X296372Y-180650D02*
X315420Y-180650D01*
X382086Y-313984D02*
X382086Y-180650D01*
X382086Y-113984D02*
X372562Y-123508D01*
X372562Y-123508D02*
X382086Y-133031D01*
X382086Y-133031D02*
X391610Y-123508D01*
X391610Y-123508D02*
X382086Y-113984D01*
X382086Y-113984D02*
X382086Y-133031D01*
X505896Y-313984D02*
X486848Y-304460D01*
X486848Y-304460D02*
X477324Y-285412D01*
X477324Y-285412D02*
X477324Y-113984D01*
X610658Y-313984D02*
X591610Y-304460D01*
X591610Y-304460D02*
X582086Y-285412D01*
X582086Y-285412D02*
X582086Y-113984D01*
X839229Y-313984D02*
X839229Y-113984D01*
X839229Y-113984D02*
X905896Y-256841D01*
X905896Y-256841D02*
X972562Y-113984D01*
X972562Y-113984D02*
X972562Y-313984D01*
X1153515Y-313984D02*
X1153515Y-209222D01*
X1153515Y-209222D02*
X1143991Y-190174D01*
X1143991Y-190174D02*
X1124944Y-180650D01*
X1124944Y-180650D02*
X1086848Y-180650D01*
X1086848Y-180650D02*
X1067801Y-190174D01*
X1153515Y-304460D02*
X1134467Y-313984D01*
X1134467Y-313984D02*
X1086848Y-313984D01*
X1086848Y-313984D02*
X1067801Y-304460D01*
X1067801Y-304460D02*
X1058277Y-285412D01*
X1058277Y-285412D02*
X1058277Y-266365D01*
X1058277Y-266365D02*
X1067801Y-247317D01*
X1067801Y-247317D02*
X1086848Y-237793D01*
X1086848Y-237793D02*
X1134467Y-237793D01*
X1134467Y-237793D02*
X1153515Y-228269D01*
X1248753Y-180650D02*
X1248753Y-380650D01*
X1248753Y-190174D02*
X1267801Y-180650D01*
X1267801Y-180650D02*
X1305896Y-180650D01*
X1305896Y-180650D02*
X1324944Y-190174D01*
X1324944Y-190174D02*
X1334467Y-199698D01*
X1334467Y-199698D02*
X1343991Y-218746D01*
X1343991Y-218746D02*
X1343991Y-275889D01*
X1343991Y-275889D02*
X1334467Y-294936D01*
X1334467Y-294936D02*
X1324944Y-304460D01*
X1324944Y-304460D02*
X1305896Y-313984D01*
X1305896Y-313984D02*
X1267801Y-313984D01*
X1267801Y-313984D02*
X1248753Y-304460D01*
X1429705Y-294936D02*
X1439229Y-304460D01*
X1439229Y-304460D02*
X1429705Y-313984D01*
X1429705Y-313984D02*
X1420182Y-304460D01*
X1420182Y-304460D02*
X1429705Y-294936D01*
X1429705Y-294936D02*
X1429705Y-313984D01*
X1429705Y-190174D02*
X1439229Y-199698D01*
X1439229Y-199698D02*
X1429705Y-209222D01*
X1429705Y-209222D02*
X1420182Y-199698D01*
X1420182Y-199698D02*
X1429705Y-190174D01*
X1429705Y-190174D02*
X1429705Y-209222D01*
D12*
X-252500Y-617500D02*
X-202500Y-667500D01*
X-202500Y-617500D02*
X-252500Y-667500D01*
D11*
X96372Y-533984D02*
X115420Y-533984D01*
X115420Y-533984D02*
X134467Y-543508D01*
X134467Y-543508D02*
X143991Y-553031D01*
X143991Y-553031D02*
X153515Y-572079D01*
X153515Y-572079D02*
X163039Y-610174D01*
X163039Y-610174D02*
X163039Y-657793D01*
X163039Y-657793D02*
X153515Y-695889D01*
X153515Y-695889D02*
X143991Y-714936D01*
X143991Y-714936D02*
X134467Y-724460D01*
X134467Y-724460D02*
X115420Y-733984D01*
X115420Y-733984D02*
X96372Y-733984D01*
X96372Y-733984D02*
X77324Y-724460D01*
X77324Y-724460D02*
X67801Y-714936D01*
X67801Y-714936D02*
X58277Y-695889D01*
X58277Y-695889D02*
X48753Y-657793D01*
X48753Y-657793D02*
X48753Y-610174D01*
X48753Y-610174D02*
X58277Y-572079D01*
X58277Y-572079D02*
X67801Y-553031D01*
X67801Y-553031D02*
X77324Y-543508D01*
X77324Y-543508D02*
X96372Y-533984D01*
X248753Y-714936D02*
X258277Y-724460D01*
X258277Y-724460D02*
X248753Y-733984D01*
X248753Y-733984D02*
X239229Y-724460D01*
X239229Y-724460D02*
X248753Y-714936D01*
X248753Y-714936D02*
X248753Y-733984D01*
X439229Y-533984D02*
X343991Y-533984D01*
X343991Y-533984D02*
X334467Y-629222D01*
X334467Y-629222D02*
X343991Y-619698D01*
X343991Y-619698D02*
X363039Y-610174D01*
X363039Y-610174D02*
X410658Y-610174D01*
X410658Y-610174D02*
X429705Y-619698D01*
X429705Y-619698D02*
X439229Y-629222D01*
X439229Y-629222D02*
X448753Y-648270D01*
X448753Y-648270D02*
X448753Y-695889D01*
X448753Y-695889D02*
X439229Y-714936D01*
X439229Y-714936D02*
X429705Y-724460D01*
X429705Y-724460D02*
X410658Y-733984D01*
X410658Y-733984D02*
X363039Y-733984D01*
X363039Y-733984D02*
X343991Y-724460D01*
X343991Y-724460D02*
X334467Y-714936D01*
X572563Y-533984D02*
X591610Y-533984D01*
X591610Y-533984D02*
X610658Y-543508D01*
X610658Y-543508D02*
X620182Y-553031D01*
X620182Y-553031D02*
X629705Y-572079D01*
X629705Y-572079D02*
X639229Y-610174D01*
X639229Y-610174D02*
X639229Y-657793D01*
X639229Y-657793D02*
X629705Y-695889D01*
X629705Y-695889D02*
X620182Y-714936D01*
X620182Y-714936D02*
X610658Y-724460D01*
X610658Y-724460D02*
X591610Y-733984D01*
X591610Y-733984D02*
X572563Y-733984D01*
X572563Y-733984D02*
X553515Y-724460D01*
X553515Y-724460D02*
X543991Y-714936D01*
X543991Y-714936D02*
X534467Y-695889D01*
X534467Y-695889D02*
X524944Y-657793D01*
X524944Y-657793D02*
X524944Y-610174D01*
X524944Y-610174D02*
X534467Y-572079D01*
X534467Y-572079D02*
X543991Y-553031D01*
X543991Y-553031D02*
X553515Y-543508D01*
X553515Y-543508D02*
X572563Y-533984D01*
X763039Y-533984D02*
X782086Y-533984D01*
X782086Y-533984D02*
X801134Y-543508D01*
X801134Y-543508D02*
X810658Y-553031D01*
X810658Y-553031D02*
X820182Y-572079D01*
X820182Y-572079D02*
X829705Y-610174D01*
X829705Y-610174D02*
X829705Y-657793D01*
X829705Y-657793D02*
X820182Y-695889D01*
X820182Y-695889D02*
X810658Y-714936D01*
X810658Y-714936D02*
X801134Y-724460D01*
X801134Y-724460D02*
X782086Y-733984D01*
X782086Y-733984D02*
X763039Y-733984D01*
X763039Y-733984D02*
X743991Y-724460D01*
X743991Y-724460D02*
X734467Y-714936D01*
X734467Y-714936D02*
X724943Y-695889D01*
X724943Y-695889D02*
X715420Y-657793D01*
X715420Y-657793D02*
X715420Y-610174D01*
X715420Y-610174D02*
X724943Y-572079D01*
X724943Y-572079D02*
X734467Y-553031D01*
X734467Y-553031D02*
X743991Y-543508D01*
X743991Y-543508D02*
X763039Y-533984D01*
X915420Y-733984D02*
X915420Y-600650D01*
X915420Y-619698D02*
X924943Y-610174D01*
X924943Y-610174D02*
X943991Y-600650D01*
X943991Y-600650D02*
X972563Y-600650D01*
X972563Y-600650D02*
X991610Y-610174D01*
X991610Y-610174D02*
X1001134Y-629222D01*
X1001134Y-629222D02*
X1001134Y-733984D01*
X1001134Y-629222D02*
X1010658Y-610174D01*
X1010658Y-610174D02*
X1029705Y-600650D01*
X1029705Y-600650D02*
X1058277Y-600650D01*
X1058277Y-600650D02*
X1077325Y-610174D01*
X1077325Y-610174D02*
X1086848Y-629222D01*
X1086848Y-629222D02*
X1086848Y-733984D01*
X1182086Y-733984D02*
X1182086Y-600650D01*
X1182086Y-619698D02*
X1191610Y-610174D01*
X1191610Y-610174D02*
X1210658Y-600650D01*
X1210658Y-600650D02*
X1239229Y-600650D01*
X1239229Y-600650D02*
X1258277Y-610174D01*
X1258277Y-610174D02*
X1267801Y-629222D01*
X1267801Y-629222D02*
X1267801Y-733984D01*
X1267801Y-629222D02*
X1277325Y-610174D01*
X1277325Y-610174D02*
X1296372Y-600650D01*
X1296372Y-600650D02*
X1324944Y-600650D01*
X1324944Y-600650D02*
X1343991Y-610174D01*
X1343991Y-610174D02*
X1353515Y-629222D01*
X1353515Y-629222D02*
X1353515Y-733984D01*
X1743991Y-524460D02*
X1572563Y-781603D01*
X2001134Y-533984D02*
X2020182Y-533984D01*
X2020182Y-533984D02*
X2039229Y-543508D01*
X2039229Y-543508D02*
X2048753Y-553031D01*
X2048753Y-553031D02*
X2058277Y-572079D01*
X2058277Y-572079D02*
X2067801Y-610174D01*
X2067801Y-610174D02*
X2067801Y-657793D01*
X2067801Y-657793D02*
X2058277Y-695889D01*
X2058277Y-695889D02*
X2048753Y-714936D01*
X2048753Y-714936D02*
X2039229Y-724460D01*
X2039229Y-724460D02*
X2020182Y-733984D01*
X2020182Y-733984D02*
X2001134Y-733984D01*
X2001134Y-733984D02*
X1982086Y-724460D01*
X1982086Y-724460D02*
X1972563Y-714936D01*
X1972563Y-714936D02*
X1963039Y-695889D01*
X1963039Y-695889D02*
X1953515Y-657793D01*
X1953515Y-657793D02*
X1953515Y-610174D01*
X1953515Y-610174D02*
X1963039Y-572079D01*
X1963039Y-572079D02*
X1972563Y-553031D01*
X1972563Y-553031D02*
X1982086Y-543508D01*
X1982086Y-543508D02*
X2001134Y-533984D01*
X2153515Y-714936D02*
X2163039Y-724460D01*
X2163039Y-724460D02*
X2153515Y-733984D01*
X2153515Y-733984D02*
X2143991Y-724460D01*
X2143991Y-724460D02*
X2153515Y-714936D01*
X2153515Y-714936D02*
X2153515Y-733984D01*
X2286848Y-533984D02*
X2305896Y-533984D01*
X2305896Y-533984D02*
X2324944Y-543508D01*
X2324944Y-543508D02*
X2334468Y-553031D01*
X2334468Y-553031D02*
X2343991Y-572079D01*
X2343991Y-572079D02*
X2353515Y-610174D01*
X2353515Y-610174D02*
X2353515Y-657793D01*
X2353515Y-657793D02*
X2343991Y-695889D01*
X2343991Y-695889D02*
X2334468Y-714936D01*
X2334468Y-714936D02*
X2324944Y-724460D01*
X2324944Y-724460D02*
X2305896Y-733984D01*
X2305896Y-733984D02*
X2286848Y-733984D01*
X2286848Y-733984D02*
X2267801Y-724460D01*
X2267801Y-724460D02*
X2258277Y-714936D01*
X2258277Y-714936D02*
X2248753Y-695889D01*
X2248753Y-695889D02*
X2239229Y-657793D01*
X2239229Y-657793D02*
X2239229Y-610174D01*
X2239229Y-610174D02*
X2248753Y-572079D01*
X2248753Y-572079D02*
X2258277Y-553031D01*
X2258277Y-553031D02*
X2267801Y-543508D01*
X2267801Y-543508D02*
X2286848Y-533984D01*
X2543991Y-733984D02*
X2429706Y-733984D01*
X2486848Y-733984D02*
X2486848Y-533984D01*
X2486848Y-533984D02*
X2467801Y-562555D01*
X2467801Y-562555D02*
X2448753Y-581603D01*
X2448753Y-581603D02*
X2429706Y-591127D01*
X2639229Y-733984D02*
X2677325Y-733984D01*
X2677325Y-733984D02*
X2696372Y-724460D01*
X2696372Y-724460D02*
X2705896Y-714936D01*
X2705896Y-714936D02*
X2724944Y-686365D01*
X2724944Y-686365D02*
X2734468Y-648270D01*
X2734468Y-648270D02*
X2734468Y-572079D01*
X2734468Y-572079D02*
X2724944Y-553031D01*
X2724944Y-553031D02*
X2715420Y-543508D01*
X2715420Y-543508D02*
X2696372Y-533984D01*
X2696372Y-533984D02*
X2658277Y-533984D01*
X2658277Y-533984D02*
X2639229Y-543508D01*
X2639229Y-543508D02*
X2629706Y-553031D01*
X2629706Y-553031D02*
X2620182Y-572079D01*
X2620182Y-572079D02*
X2620182Y-619698D01*
X2620182Y-619698D02*
X2629706Y-638746D01*
X2629706Y-638746D02*
X2639229Y-648270D01*
X2639229Y-648270D02*
X2658277Y-657793D01*
X2658277Y-657793D02*
X2696372Y-657793D01*
X2696372Y-657793D02*
X2715420Y-648270D01*
X2715420Y-648270D02*
X2724944Y-638746D01*
X2724944Y-638746D02*
X2734468Y-619698D01*
X2801134Y-533984D02*
X2934467Y-533984D01*
X2934467Y-533984D02*
X2848753Y-733984D01*
X3001134Y-533984D02*
X3001134Y-572079D01*
X3077325Y-533984D02*
X3077325Y-572079D01*
X3372563Y-810174D02*
X3363039Y-800650D01*
X3363039Y-800650D02*
X3343991Y-772079D01*
X3343991Y-772079D02*
X3334468Y-753031D01*
X3334468Y-753031D02*
X3324944Y-724460D01*
X3324944Y-724460D02*
X3315420Y-676841D01*
X3315420Y-676841D02*
X3315420Y-638746D01*
X3315420Y-638746D02*
X3324944Y-591127D01*
X3324944Y-591127D02*
X3334468Y-562555D01*
X3334468Y-562555D02*
X3343991Y-543508D01*
X3343991Y-543508D02*
X3363039Y-514936D01*
X3363039Y-514936D02*
X3372563Y-505412D01*
X3543991Y-533984D02*
X3448753Y-533984D01*
X3448753Y-533984D02*
X3439229Y-629222D01*
X3439229Y-629222D02*
X3448753Y-619698D01*
X3448753Y-619698D02*
X3467801Y-610174D01*
X3467801Y-610174D02*
X3515420Y-610174D01*
X3515420Y-610174D02*
X3534468Y-619698D01*
X3534468Y-619698D02*
X3543991Y-629222D01*
X3543991Y-629222D02*
X3553515Y-648270D01*
X3553515Y-648270D02*
X3553515Y-695889D01*
X3553515Y-695889D02*
X3543991Y-714936D01*
X3543991Y-714936D02*
X3534468Y-724460D01*
X3534468Y-724460D02*
X3515420Y-733984D01*
X3515420Y-733984D02*
X3467801Y-733984D01*
X3467801Y-733984D02*
X3448753Y-724460D01*
X3448753Y-724460D02*
X3439229Y-714936D01*
X3791610Y-733984D02*
X3791610Y-533984D01*
X3877325Y-733984D02*
X3877325Y-629222D01*
X3877325Y-629222D02*
X3867801Y-610174D01*
X3867801Y-610174D02*
X3848753Y-600650D01*
X3848753Y-600650D02*
X3820182Y-600650D01*
X3820182Y-600650D02*
X3801134Y-610174D01*
X3801134Y-610174D02*
X3791610Y-619698D01*
X4001134Y-733984D02*
X3982087Y-724460D01*
X3982087Y-724460D02*
X3972563Y-714936D01*
X3972563Y-714936D02*
X3963039Y-695889D01*
X3963039Y-695889D02*
X3963039Y-638746D01*
X3963039Y-638746D02*
X3972563Y-619698D01*
X3972563Y-619698D02*
X3982087Y-610174D01*
X3982087Y-610174D02*
X4001134Y-600650D01*
X4001134Y-600650D02*
X4029706Y-600650D01*
X4029706Y-600650D02*
X4048753Y-610174D01*
X4048753Y-610174D02*
X4058277Y-619698D01*
X4058277Y-619698D02*
X4067801Y-638746D01*
X4067801Y-638746D02*
X4067801Y-695889D01*
X4067801Y-695889D02*
X4058277Y-714936D01*
X4058277Y-714936D02*
X4048753Y-724460D01*
X4048753Y-724460D02*
X4029706Y-733984D01*
X4029706Y-733984D02*
X4001134Y-733984D01*
X4182087Y-733984D02*
X4163039Y-724460D01*
X4163039Y-724460D02*
X4153515Y-705412D01*
X4153515Y-705412D02*
X4153515Y-533984D01*
X4334468Y-724460D02*
X4315420Y-733984D01*
X4315420Y-733984D02*
X4277325Y-733984D01*
X4277325Y-733984D02*
X4258277Y-724460D01*
X4258277Y-724460D02*
X4248753Y-705412D01*
X4248753Y-705412D02*
X4248753Y-629222D01*
X4248753Y-629222D02*
X4258277Y-610174D01*
X4258277Y-610174D02*
X4277325Y-600650D01*
X4277325Y-600650D02*
X4315420Y-600650D01*
X4315420Y-600650D02*
X4334468Y-610174D01*
X4334468Y-610174D02*
X4343992Y-629222D01*
X4343992Y-629222D02*
X4343992Y-648270D01*
X4343992Y-648270D02*
X4248753Y-667317D01*
X4420182Y-724460D02*
X4439230Y-733984D01*
X4439230Y-733984D02*
X4477325Y-733984D01*
X4477325Y-733984D02*
X4496373Y-724460D01*
X4496373Y-724460D02*
X4505896Y-705412D01*
X4505896Y-705412D02*
X4505896Y-695889D01*
X4505896Y-695889D02*
X4496373Y-676841D01*
X4496373Y-676841D02*
X4477325Y-667317D01*
X4477325Y-667317D02*
X4448753Y-667317D01*
X4448753Y-667317D02*
X4429706Y-657793D01*
X4429706Y-657793D02*
X4420182Y-638746D01*
X4420182Y-638746D02*
X4420182Y-629222D01*
X4420182Y-629222D02*
X4429706Y-610174D01*
X4429706Y-610174D02*
X4448753Y-600650D01*
X4448753Y-600650D02*
X4477325Y-600650D01*
X4477325Y-600650D02*
X4496373Y-610174D01*
X4572563Y-810174D02*
X4582087Y-800650D01*
X4582087Y-800650D02*
X4601134Y-772079D01*
X4601134Y-772079D02*
X4610658Y-753031D01*
X4610658Y-753031D02*
X4620182Y-724460D01*
X4620182Y-724460D02*
X4629706Y-676841D01*
X4629706Y-676841D02*
X4629706Y-638746D01*
X4629706Y-638746D02*
X4620182Y-591127D01*
X4620182Y-591127D02*
X4610658Y-562555D01*
X4610658Y-562555D02*
X4601134Y-543508D01*
X4601134Y-543508D02*
X4582087Y-514936D01*
X4582087Y-514936D02*
X4572563Y-505412D01*
D12*
X-202500Y-906500D02*
G75*
G02*
X-302500Y-906500I-50000J0D01*
G01*
X-302500Y-906500D02*
G75*
G02*
X-202500Y-906500I50000J0D01*
G01*
D11*
X163039Y-997984D02*
X48753Y-997984D01*
X105896Y-997984D02*
X105896Y-797984D01*
X105896Y-797984D02*
X86848Y-826555D01*
X86848Y-826555D02*
X67801Y-845603D01*
X67801Y-845603D02*
X48753Y-855127D01*
X248753Y-978936D02*
X258277Y-988460D01*
X258277Y-988460D02*
X248753Y-997984D01*
X248753Y-997984D02*
X239229Y-988460D01*
X239229Y-988460D02*
X248753Y-978936D01*
X248753Y-978936D02*
X248753Y-997984D01*
X382086Y-797984D02*
X401134Y-797984D01*
X401134Y-797984D02*
X420182Y-807508D01*
X420182Y-807508D02*
X429705Y-817031D01*
X429705Y-817031D02*
X439229Y-836079D01*
X439229Y-836079D02*
X448753Y-874174D01*
X448753Y-874174D02*
X448753Y-921793D01*
X448753Y-921793D02*
X439229Y-959888D01*
X439229Y-959888D02*
X429705Y-978936D01*
X429705Y-978936D02*
X420182Y-988460D01*
X420182Y-988460D02*
X401134Y-997984D01*
X401134Y-997984D02*
X382086Y-997984D01*
X382086Y-997984D02*
X363039Y-988460D01*
X363039Y-988460D02*
X353515Y-978936D01*
X353515Y-978936D02*
X343991Y-959888D01*
X343991Y-959888D02*
X334467Y-921793D01*
X334467Y-921793D02*
X334467Y-874174D01*
X334467Y-874174D02*
X343991Y-836079D01*
X343991Y-836079D02*
X353515Y-817031D01*
X353515Y-817031D02*
X363039Y-807508D01*
X363039Y-807508D02*
X382086Y-797984D01*
X572563Y-797984D02*
X591610Y-797984D01*
X591610Y-797984D02*
X610658Y-807508D01*
X610658Y-807508D02*
X620182Y-817031D01*
X620182Y-817031D02*
X629705Y-836079D01*
X629705Y-836079D02*
X639229Y-874174D01*
X639229Y-874174D02*
X639229Y-921793D01*
X639229Y-921793D02*
X629705Y-959888D01*
X629705Y-959888D02*
X620182Y-978936D01*
X620182Y-978936D02*
X610658Y-988460D01*
X610658Y-988460D02*
X591610Y-997984D01*
X591610Y-997984D02*
X572563Y-997984D01*
X572563Y-997984D02*
X553515Y-988460D01*
X553515Y-988460D02*
X543991Y-978936D01*
X543991Y-978936D02*
X534467Y-959888D01*
X534467Y-959888D02*
X524944Y-921793D01*
X524944Y-921793D02*
X524944Y-874174D01*
X524944Y-874174D02*
X534467Y-836079D01*
X534467Y-836079D02*
X543991Y-817031D01*
X543991Y-817031D02*
X553515Y-807508D01*
X553515Y-807508D02*
X572563Y-797984D01*
X763039Y-797984D02*
X782086Y-797984D01*
X782086Y-797984D02*
X801134Y-807508D01*
X801134Y-807508D02*
X810658Y-817031D01*
X810658Y-817031D02*
X820182Y-836079D01*
X820182Y-836079D02*
X829705Y-874174D01*
X829705Y-874174D02*
X829705Y-921793D01*
X829705Y-921793D02*
X820182Y-959888D01*
X820182Y-959888D02*
X810658Y-978936D01*
X810658Y-978936D02*
X801134Y-988460D01*
X801134Y-988460D02*
X782086Y-997984D01*
X782086Y-997984D02*
X763039Y-997984D01*
X763039Y-997984D02*
X743991Y-988460D01*
X743991Y-988460D02*
X734467Y-978936D01*
X734467Y-978936D02*
X724943Y-959888D01*
X724943Y-959888D02*
X715420Y-921793D01*
X715420Y-921793D02*
X715420Y-874174D01*
X715420Y-874174D02*
X724943Y-836079D01*
X724943Y-836079D02*
X734467Y-817031D01*
X734467Y-817031D02*
X743991Y-807508D01*
X743991Y-807508D02*
X763039Y-797984D01*
X915420Y-997984D02*
X915420Y-864650D01*
X915420Y-883698D02*
X924943Y-874174D01*
X924943Y-874174D02*
X943991Y-864650D01*
X943991Y-864650D02*
X972563Y-864650D01*
X972563Y-864650D02*
X991610Y-874174D01*
X991610Y-874174D02*
X1001134Y-893222D01*
X1001134Y-893222D02*
X1001134Y-997984D01*
X1001134Y-893222D02*
X1010658Y-874174D01*
X1010658Y-874174D02*
X1029705Y-864650D01*
X1029705Y-864650D02*
X1058277Y-864650D01*
X1058277Y-864650D02*
X1077325Y-874174D01*
X1077325Y-874174D02*
X1086848Y-893222D01*
X1086848Y-893222D02*
X1086848Y-997984D01*
X1182086Y-997984D02*
X1182086Y-864650D01*
X1182086Y-883698D02*
X1191610Y-874174D01*
X1191610Y-874174D02*
X1210658Y-864650D01*
X1210658Y-864650D02*
X1239229Y-864650D01*
X1239229Y-864650D02*
X1258277Y-874174D01*
X1258277Y-874174D02*
X1267801Y-893222D01*
X1267801Y-893222D02*
X1267801Y-997984D01*
X1267801Y-893222D02*
X1277325Y-874174D01*
X1277325Y-874174D02*
X1296372Y-864650D01*
X1296372Y-864650D02*
X1324944Y-864650D01*
X1324944Y-864650D02*
X1343991Y-874174D01*
X1343991Y-874174D02*
X1353515Y-893222D01*
X1353515Y-893222D02*
X1353515Y-997984D01*
X1743991Y-788460D02*
X1572563Y-1045603D01*
X2001134Y-797984D02*
X2020182Y-797984D01*
X2020182Y-797984D02*
X2039229Y-807508D01*
X2039229Y-807508D02*
X2048753Y-817031D01*
X2048753Y-817031D02*
X2058277Y-836079D01*
X2058277Y-836079D02*
X2067801Y-874174D01*
X2067801Y-874174D02*
X2067801Y-921793D01*
X2067801Y-921793D02*
X2058277Y-959888D01*
X2058277Y-959888D02*
X2048753Y-978936D01*
X2048753Y-978936D02*
X2039229Y-988460D01*
X2039229Y-988460D02*
X2020182Y-997984D01*
X2020182Y-997984D02*
X2001134Y-997984D01*
X2001134Y-997984D02*
X1982086Y-988460D01*
X1982086Y-988460D02*
X1972563Y-978936D01*
X1972563Y-978936D02*
X1963039Y-959888D01*
X1963039Y-959888D02*
X1953515Y-921793D01*
X1953515Y-921793D02*
X1953515Y-874174D01*
X1953515Y-874174D02*
X1963039Y-836079D01*
X1963039Y-836079D02*
X1972563Y-817031D01*
X1972563Y-817031D02*
X1982086Y-807508D01*
X1982086Y-807508D02*
X2001134Y-797984D01*
X2153515Y-978936D02*
X2163039Y-988460D01*
X2163039Y-988460D02*
X2153515Y-997984D01*
X2153515Y-997984D02*
X2143991Y-988460D01*
X2143991Y-988460D02*
X2153515Y-978936D01*
X2153515Y-978936D02*
X2153515Y-997984D01*
X2286848Y-797984D02*
X2305896Y-797984D01*
X2305896Y-797984D02*
X2324944Y-807508D01*
X2324944Y-807508D02*
X2334468Y-817031D01*
X2334468Y-817031D02*
X2343991Y-836079D01*
X2343991Y-836079D02*
X2353515Y-874174D01*
X2353515Y-874174D02*
X2353515Y-921793D01*
X2353515Y-921793D02*
X2343991Y-959888D01*
X2343991Y-959888D02*
X2334468Y-978936D01*
X2334468Y-978936D02*
X2324944Y-988460D01*
X2324944Y-988460D02*
X2305896Y-997984D01*
X2305896Y-997984D02*
X2286848Y-997984D01*
X2286848Y-997984D02*
X2267801Y-988460D01*
X2267801Y-988460D02*
X2258277Y-978936D01*
X2258277Y-978936D02*
X2248753Y-959888D01*
X2248753Y-959888D02*
X2239229Y-921793D01*
X2239229Y-921793D02*
X2239229Y-874174D01*
X2239229Y-874174D02*
X2248753Y-836079D01*
X2248753Y-836079D02*
X2258277Y-817031D01*
X2258277Y-817031D02*
X2267801Y-807508D01*
X2267801Y-807508D02*
X2286848Y-797984D01*
X2420182Y-797984D02*
X2543991Y-797984D01*
X2543991Y-797984D02*
X2477325Y-874174D01*
X2477325Y-874174D02*
X2505896Y-874174D01*
X2505896Y-874174D02*
X2524944Y-883698D01*
X2524944Y-883698D02*
X2534468Y-893222D01*
X2534468Y-893222D02*
X2543991Y-912269D01*
X2543991Y-912269D02*
X2543991Y-959888D01*
X2543991Y-959888D02*
X2534468Y-978936D01*
X2534468Y-978936D02*
X2524944Y-988460D01*
X2524944Y-988460D02*
X2505896Y-997984D01*
X2505896Y-997984D02*
X2448753Y-997984D01*
X2448753Y-997984D02*
X2429706Y-988460D01*
X2429706Y-988460D02*
X2420182Y-978936D01*
X2639229Y-997984D02*
X2677325Y-997984D01*
X2677325Y-997984D02*
X2696372Y-988460D01*
X2696372Y-988460D02*
X2705896Y-978936D01*
X2705896Y-978936D02*
X2724944Y-950365D01*
X2724944Y-950365D02*
X2734468Y-912269D01*
X2734468Y-912269D02*
X2734468Y-836079D01*
X2734468Y-836079D02*
X2724944Y-817031D01*
X2724944Y-817031D02*
X2715420Y-807508D01*
X2715420Y-807508D02*
X2696372Y-797984D01*
X2696372Y-797984D02*
X2658277Y-797984D01*
X2658277Y-797984D02*
X2639229Y-807508D01*
X2639229Y-807508D02*
X2629706Y-817031D01*
X2629706Y-817031D02*
X2620182Y-836079D01*
X2620182Y-836079D02*
X2620182Y-883698D01*
X2620182Y-883698D02*
X2629706Y-902746D01*
X2629706Y-902746D02*
X2639229Y-912269D01*
X2639229Y-912269D02*
X2658277Y-921793D01*
X2658277Y-921793D02*
X2696372Y-921793D01*
X2696372Y-921793D02*
X2715420Y-912269D01*
X2715420Y-912269D02*
X2724944Y-902746D01*
X2724944Y-902746D02*
X2734468Y-883698D01*
X2905896Y-864650D02*
X2905896Y-997984D01*
X2858277Y-788460D02*
X2810658Y-931317D01*
X2810658Y-931317D02*
X2934467Y-931317D01*
X3001134Y-797984D02*
X3001134Y-836079D01*
X3077325Y-797984D02*
X3077325Y-836079D01*
X3372563Y-1074174D02*
X3363039Y-1064650D01*
X3363039Y-1064650D02*
X3343991Y-1036079D01*
X3343991Y-1036079D02*
X3334468Y-1017031D01*
X3334468Y-1017031D02*
X3324944Y-988460D01*
X3324944Y-988460D02*
X3315420Y-940841D01*
X3315420Y-940841D02*
X3315420Y-902746D01*
X3315420Y-902746D02*
X3324944Y-855127D01*
X3324944Y-855127D02*
X3334468Y-826555D01*
X3334468Y-826555D02*
X3343991Y-807508D01*
X3343991Y-807508D02*
X3363039Y-778936D01*
X3363039Y-778936D02*
X3372563Y-769412D01*
X3534468Y-864650D02*
X3534468Y-997984D01*
X3486848Y-788460D02*
X3439229Y-931317D01*
X3439229Y-931317D02*
X3563039Y-931317D01*
X3791610Y-997984D02*
X3791610Y-797984D01*
X3877325Y-997984D02*
X3877325Y-893222D01*
X3877325Y-893222D02*
X3867801Y-874174D01*
X3867801Y-874174D02*
X3848753Y-864650D01*
X3848753Y-864650D02*
X3820182Y-864650D01*
X3820182Y-864650D02*
X3801134Y-874174D01*
X3801134Y-874174D02*
X3791610Y-883698D01*
X4001134Y-997984D02*
X3982087Y-988460D01*
X3982087Y-988460D02*
X3972563Y-978936D01*
X3972563Y-978936D02*
X3963039Y-959888D01*
X3963039Y-959888D02*
X3963039Y-902746D01*
X3963039Y-902746D02*
X3972563Y-883698D01*
X3972563Y-883698D02*
X3982087Y-874174D01*
X3982087Y-874174D02*
X4001134Y-864650D01*
X4001134Y-864650D02*
X4029706Y-864650D01*
X4029706Y-864650D02*
X4048753Y-874174D01*
X4048753Y-874174D02*
X4058277Y-883698D01*
X4058277Y-883698D02*
X4067801Y-902746D01*
X4067801Y-902746D02*
X4067801Y-959888D01*
X4067801Y-959888D02*
X4058277Y-978936D01*
X4058277Y-978936D02*
X4048753Y-988460D01*
X4048753Y-988460D02*
X4029706Y-997984D01*
X4029706Y-997984D02*
X4001134Y-997984D01*
X4182087Y-997984D02*
X4163039Y-988460D01*
X4163039Y-988460D02*
X4153515Y-969412D01*
X4153515Y-969412D02*
X4153515Y-797984D01*
X4334468Y-988460D02*
X4315420Y-997984D01*
X4315420Y-997984D02*
X4277325Y-997984D01*
X4277325Y-997984D02*
X4258277Y-988460D01*
X4258277Y-988460D02*
X4248753Y-969412D01*
X4248753Y-969412D02*
X4248753Y-893222D01*
X4248753Y-893222D02*
X4258277Y-874174D01*
X4258277Y-874174D02*
X4277325Y-864650D01*
X4277325Y-864650D02*
X4315420Y-864650D01*
X4315420Y-864650D02*
X4334468Y-874174D01*
X4334468Y-874174D02*
X4343992Y-893222D01*
X4343992Y-893222D02*
X4343992Y-912269D01*
X4343992Y-912269D02*
X4248753Y-931317D01*
X4420182Y-988460D02*
X4439230Y-997984D01*
X4439230Y-997984D02*
X4477325Y-997984D01*
X4477325Y-997984D02*
X4496373Y-988460D01*
X4496373Y-988460D02*
X4505896Y-969412D01*
X4505896Y-969412D02*
X4505896Y-959888D01*
X4505896Y-959888D02*
X4496373Y-940841D01*
X4496373Y-940841D02*
X4477325Y-931317D01*
X4477325Y-931317D02*
X4448753Y-931317D01*
X4448753Y-931317D02*
X4429706Y-921793D01*
X4429706Y-921793D02*
X4420182Y-902746D01*
X4420182Y-902746D02*
X4420182Y-893222D01*
X4420182Y-893222D02*
X4429706Y-874174D01*
X4429706Y-874174D02*
X4448753Y-864650D01*
X4448753Y-864650D02*
X4477325Y-864650D01*
X4477325Y-864650D02*
X4496373Y-874174D01*
X4572563Y-1074174D02*
X4582087Y-1064650D01*
X4582087Y-1064650D02*
X4601134Y-1036079D01*
X4601134Y-1036079D02*
X4610658Y-1017031D01*
X4610658Y-1017031D02*
X4620182Y-988460D01*
X4620182Y-988460D02*
X4629706Y-940841D01*
X4629706Y-940841D02*
X4629706Y-902746D01*
X4629706Y-902746D02*
X4620182Y-855127D01*
X4620182Y-855127D02*
X4610658Y-826555D01*
X4610658Y-826555D02*
X4601134Y-807508D01*
X4601134Y-807508D02*
X4582087Y-778936D01*
X4582087Y-778936D02*
X4572563Y-769412D01*
M02*
