%TF.GenerationSoftware,KiCad,Pcbnew,10.0.1*%
%TF.CreationDate,2026-09-04T22:29:03+09:00*%
%TF.ProjectId,CTC_BD_03,4354435f-4244-45f3-9033-2e6b69636164,rev?*%
%TF.SameCoordinates,Original*%
%TF.FileFunction,Drillmap*%
%TF.FilePolarity,Positive*%
%FSLAX45Y45*%
G04 Gerber Fmt 4.5, Leading zero omitted, Abs format (unit mm)*
G04 Created by KiCad (PCBNEW 10.0.1) date 2026-09-04 22:29:03*
%MOMM*%
%LPD*%
G01*
G04 APERTURE LIST*
%ADD10C,0.050000*%
%ADD11C,0.200000*%
%ADD12C,0.160000*%
G04 APERTURE END LIST*
D10*
X-10000Y840000D02*
G75*
G02*
X240000Y840000I125000J0D01*
G01*
X-10000Y640000D02*
X-10000Y840000D01*
X240000Y640000D02*
X240000Y840000D01*
X240000Y640000D02*
G75*
G02*
X-10000Y640000I-125000J0D01*
G01*
X2760000Y840000D02*
G75*
G02*
X3010000Y840000I125000J0D01*
G01*
X2760000Y640000D02*
X2760000Y840000D01*
X3010000Y640000D02*
X3010000Y840000D01*
X3010000Y640000D02*
G75*
G02*
X2760000Y640000I-125000J0D01*
G01*
X-200000Y1760000D02*
X-200000Y0D01*
X-200000Y1760000D02*
X3200000Y1760000D01*
X-200000Y0D02*
X3200000Y0D01*
X3200000Y1760000D02*
X3200000Y0D01*
D11*
D12*
X764000Y1091000D02*
X924000Y931000D01*
X924000Y1091000D02*
X764000Y931000D01*
X2076000Y1091000D02*
X2236000Y931000D01*
X2236000Y1091000D02*
X2076000Y931000D01*
D11*
X58277Y-313984D02*
X58277Y-113984D01*
X58277Y-113984D02*
X105896Y-113984D01*
X105896Y-113984D02*
X134467Y-123508D01*
X134467Y-123508D02*
X153515Y-142555D01*
X153515Y-142555D02*
X163039Y-161603D01*
X163039Y-161603D02*
X172563Y-199698D01*
X172563Y-199698D02*
X172563Y-228269D01*
X172563Y-228269D02*
X163039Y-266365D01*
X163039Y-266365D02*
X153515Y-285412D01*
X153515Y-285412D02*
X134467Y-304460D01*
X134467Y-304460D02*
X105896Y-313984D01*
X105896Y-313984D02*
X58277Y-313984D01*
X258277Y-313984D02*
X258277Y-180650D01*
X258277Y-218746D02*
X267801Y-199698D01*
X267801Y-199698D02*
X277324Y-190174D01*
X277324Y-190174D02*
X296372Y-180650D01*
X296372Y-180650D02*
X315420Y-180650D01*
X382086Y-313984D02*
X382086Y-180650D01*
X382086Y-113984D02*
X372562Y-123508D01*
X372562Y-123508D02*
X382086Y-133031D01*
X382086Y-133031D02*
X391610Y-123508D01*
X391610Y-123508D02*
X382086Y-113984D01*
X382086Y-113984D02*
X382086Y-133031D01*
X505896Y-313984D02*
X486848Y-304460D01*
X486848Y-304460D02*
X477324Y-285412D01*
X477324Y-285412D02*
X477324Y-113984D01*
X610658Y-313984D02*
X591610Y-304460D01*
X591610Y-304460D02*
X582086Y-285412D01*
X582086Y-285412D02*
X582086Y-113984D01*
X839229Y-313984D02*
X839229Y-113984D01*
X839229Y-113984D02*
X905896Y-256841D01*
X905896Y-256841D02*
X972562Y-113984D01*
X972562Y-113984D02*
X972562Y-313984D01*
X1153515Y-313984D02*
X1153515Y-209222D01*
X1153515Y-209222D02*
X1143991Y-190174D01*
X1143991Y-190174D02*
X1124944Y-180650D01*
X1124944Y-180650D02*
X1086848Y-180650D01*
X1086848Y-180650D02*
X1067801Y-190174D01*
X1153515Y-304460D02*
X1134467Y-313984D01*
X1134467Y-313984D02*
X1086848Y-313984D01*
X1086848Y-313984D02*
X1067801Y-304460D01*
X1067801Y-304460D02*
X1058277Y-285412D01*
X1058277Y-285412D02*
X1058277Y-266365D01*
X1058277Y-266365D02*
X1067801Y-247317D01*
X1067801Y-247317D02*
X1086848Y-237793D01*
X1086848Y-237793D02*
X1134467Y-237793D01*
X1134467Y-237793D02*
X1153515Y-228269D01*
X1248753Y-180650D02*
X1248753Y-380650D01*
X1248753Y-190174D02*
X1267801Y-180650D01*
X1267801Y-180650D02*
X1305896Y-180650D01*
X1305896Y-180650D02*
X1324944Y-190174D01*
X1324944Y-190174D02*
X1334467Y-199698D01*
X1334467Y-199698D02*
X1343991Y-218746D01*
X1343991Y-218746D02*
X1343991Y-275889D01*
X1343991Y-275889D02*
X1334467Y-294936D01*
X1334467Y-294936D02*
X1324944Y-304460D01*
X1324944Y-304460D02*
X1305896Y-313984D01*
X1305896Y-313984D02*
X1267801Y-313984D01*
X1267801Y-313984D02*
X1248753Y-304460D01*
X1429705Y-294936D02*
X1439229Y-304460D01*
X1439229Y-304460D02*
X1429705Y-313984D01*
X1429705Y-313984D02*
X1420182Y-304460D01*
X1420182Y-304460D02*
X1429705Y-294936D01*
X1429705Y-294936D02*
X1429705Y-313984D01*
X1429705Y-190174D02*
X1439229Y-199698D01*
X1439229Y-199698D02*
X1429705Y-209222D01*
X1429705Y-209222D02*
X1420182Y-199698D01*
X1420182Y-199698D02*
X1429705Y-190174D01*
X1429705Y-190174D02*
X1429705Y-209222D01*
D12*
X-362500Y-562500D02*
X-202500Y-722500D01*
X-202500Y-562500D02*
X-362500Y-722500D01*
D11*
X163039Y-733984D02*
X48753Y-733984D01*
X105896Y-733984D02*
X105896Y-533984D01*
X105896Y-533984D02*
X86848Y-562555D01*
X86848Y-562555D02*
X67801Y-581603D01*
X67801Y-581603D02*
X48753Y-591127D01*
X248753Y-714936D02*
X258277Y-724460D01*
X258277Y-724460D02*
X248753Y-733984D01*
X248753Y-733984D02*
X239229Y-724460D01*
X239229Y-724460D02*
X248753Y-714936D01*
X248753Y-714936D02*
X248753Y-733984D01*
X429705Y-533984D02*
X391610Y-533984D01*
X391610Y-533984D02*
X372562Y-543508D01*
X372562Y-543508D02*
X363039Y-553031D01*
X363039Y-553031D02*
X343991Y-581603D01*
X343991Y-581603D02*
X334467Y-619698D01*
X334467Y-619698D02*
X334467Y-695889D01*
X334467Y-695889D02*
X343991Y-714936D01*
X343991Y-714936D02*
X353515Y-724460D01*
X353515Y-724460D02*
X372562Y-733984D01*
X372562Y-733984D02*
X410658Y-733984D01*
X410658Y-733984D02*
X429705Y-724460D01*
X429705Y-724460D02*
X439229Y-714936D01*
X439229Y-714936D02*
X448753Y-695889D01*
X448753Y-695889D02*
X448753Y-648270D01*
X448753Y-648270D02*
X439229Y-629222D01*
X439229Y-629222D02*
X429705Y-619698D01*
X429705Y-619698D02*
X410658Y-610174D01*
X410658Y-610174D02*
X372562Y-610174D01*
X372562Y-610174D02*
X353515Y-619698D01*
X353515Y-619698D02*
X343991Y-629222D01*
X343991Y-629222D02*
X334467Y-648270D01*
X572563Y-533984D02*
X591610Y-533984D01*
X591610Y-533984D02*
X610658Y-543508D01*
X610658Y-543508D02*
X620182Y-553031D01*
X620182Y-553031D02*
X629705Y-572079D01*
X629705Y-572079D02*
X639229Y-610174D01*
X639229Y-610174D02*
X639229Y-657793D01*
X639229Y-657793D02*
X629705Y-695889D01*
X629705Y-695889D02*
X620182Y-714936D01*
X620182Y-714936D02*
X610658Y-724460D01*
X610658Y-724460D02*
X591610Y-733984D01*
X591610Y-733984D02*
X572563Y-733984D01*
X572563Y-733984D02*
X553515Y-724460D01*
X553515Y-724460D02*
X543991Y-714936D01*
X543991Y-714936D02*
X534467Y-695889D01*
X534467Y-695889D02*
X524944Y-657793D01*
X524944Y-657793D02*
X524944Y-610174D01*
X524944Y-610174D02*
X534467Y-572079D01*
X534467Y-572079D02*
X543991Y-553031D01*
X543991Y-553031D02*
X553515Y-543508D01*
X553515Y-543508D02*
X572563Y-533984D01*
X763039Y-533984D02*
X782086Y-533984D01*
X782086Y-533984D02*
X801134Y-543508D01*
X801134Y-543508D02*
X810658Y-553031D01*
X810658Y-553031D02*
X820182Y-572079D01*
X820182Y-572079D02*
X829705Y-610174D01*
X829705Y-610174D02*
X829705Y-657793D01*
X829705Y-657793D02*
X820182Y-695889D01*
X820182Y-695889D02*
X810658Y-714936D01*
X810658Y-714936D02*
X801134Y-724460D01*
X801134Y-724460D02*
X782086Y-733984D01*
X782086Y-733984D02*
X763039Y-733984D01*
X763039Y-733984D02*
X743991Y-724460D01*
X743991Y-724460D02*
X734467Y-714936D01*
X734467Y-714936D02*
X724943Y-695889D01*
X724943Y-695889D02*
X715420Y-657793D01*
X715420Y-657793D02*
X715420Y-610174D01*
X715420Y-610174D02*
X724943Y-572079D01*
X724943Y-572079D02*
X734467Y-553031D01*
X734467Y-553031D02*
X743991Y-543508D01*
X743991Y-543508D02*
X763039Y-533984D01*
X915420Y-733984D02*
X915420Y-600650D01*
X915420Y-619698D02*
X924943Y-610174D01*
X924943Y-610174D02*
X943991Y-600650D01*
X943991Y-600650D02*
X972563Y-600650D01*
X972563Y-600650D02*
X991610Y-610174D01*
X991610Y-610174D02*
X1001134Y-629222D01*
X1001134Y-629222D02*
X1001134Y-733984D01*
X1001134Y-629222D02*
X1010658Y-610174D01*
X1010658Y-610174D02*
X1029705Y-600650D01*
X1029705Y-600650D02*
X1058277Y-600650D01*
X1058277Y-600650D02*
X1077325Y-610174D01*
X1077325Y-610174D02*
X1086848Y-629222D01*
X1086848Y-629222D02*
X1086848Y-733984D01*
X1182086Y-733984D02*
X1182086Y-600650D01*
X1182086Y-619698D02*
X1191610Y-610174D01*
X1191610Y-610174D02*
X1210658Y-600650D01*
X1210658Y-600650D02*
X1239229Y-600650D01*
X1239229Y-600650D02*
X1258277Y-610174D01*
X1258277Y-610174D02*
X1267801Y-629222D01*
X1267801Y-629222D02*
X1267801Y-733984D01*
X1267801Y-629222D02*
X1277325Y-610174D01*
X1277325Y-610174D02*
X1296372Y-600650D01*
X1296372Y-600650D02*
X1324944Y-600650D01*
X1324944Y-600650D02*
X1343991Y-610174D01*
X1343991Y-610174D02*
X1353515Y-629222D01*
X1353515Y-629222D02*
X1353515Y-733984D01*
X1743991Y-524460D02*
X1572563Y-781603D01*
X2001134Y-533984D02*
X2020182Y-533984D01*
X2020182Y-533984D02*
X2039229Y-543508D01*
X2039229Y-543508D02*
X2048753Y-553031D01*
X2048753Y-553031D02*
X2058277Y-572079D01*
X2058277Y-572079D02*
X2067801Y-610174D01*
X2067801Y-610174D02*
X2067801Y-657793D01*
X2067801Y-657793D02*
X2058277Y-695889D01*
X2058277Y-695889D02*
X2048753Y-714936D01*
X2048753Y-714936D02*
X2039229Y-724460D01*
X2039229Y-724460D02*
X2020182Y-733984D01*
X2020182Y-733984D02*
X2001134Y-733984D01*
X2001134Y-733984D02*
X1982086Y-724460D01*
X1982086Y-724460D02*
X1972563Y-714936D01*
X1972563Y-714936D02*
X1963039Y-695889D01*
X1963039Y-695889D02*
X1953515Y-657793D01*
X1953515Y-657793D02*
X1953515Y-610174D01*
X1953515Y-610174D02*
X1963039Y-572079D01*
X1963039Y-572079D02*
X1972563Y-553031D01*
X1972563Y-553031D02*
X1982086Y-543508D01*
X1982086Y-543508D02*
X2001134Y-533984D01*
X2153515Y-714936D02*
X2163039Y-724460D01*
X2163039Y-724460D02*
X2153515Y-733984D01*
X2153515Y-733984D02*
X2143991Y-724460D01*
X2143991Y-724460D02*
X2153515Y-714936D01*
X2153515Y-714936D02*
X2153515Y-733984D01*
X2286848Y-533984D02*
X2305896Y-533984D01*
X2305896Y-533984D02*
X2324944Y-543508D01*
X2324944Y-543508D02*
X2334468Y-553031D01*
X2334468Y-553031D02*
X2343991Y-572079D01*
X2343991Y-572079D02*
X2353515Y-610174D01*
X2353515Y-610174D02*
X2353515Y-657793D01*
X2353515Y-657793D02*
X2343991Y-695889D01*
X2343991Y-695889D02*
X2334468Y-714936D01*
X2334468Y-714936D02*
X2324944Y-724460D01*
X2324944Y-724460D02*
X2305896Y-733984D01*
X2305896Y-733984D02*
X2286848Y-733984D01*
X2286848Y-733984D02*
X2267801Y-724460D01*
X2267801Y-724460D02*
X2258277Y-714936D01*
X2258277Y-714936D02*
X2248753Y-695889D01*
X2248753Y-695889D02*
X2239229Y-657793D01*
X2239229Y-657793D02*
X2239229Y-610174D01*
X2239229Y-610174D02*
X2248753Y-572079D01*
X2248753Y-572079D02*
X2258277Y-553031D01*
X2258277Y-553031D02*
X2267801Y-543508D01*
X2267801Y-543508D02*
X2286848Y-533984D01*
X2524944Y-533984D02*
X2486848Y-533984D01*
X2486848Y-533984D02*
X2467801Y-543508D01*
X2467801Y-543508D02*
X2458277Y-553031D01*
X2458277Y-553031D02*
X2439229Y-581603D01*
X2439229Y-581603D02*
X2429706Y-619698D01*
X2429706Y-619698D02*
X2429706Y-695889D01*
X2429706Y-695889D02*
X2439229Y-714936D01*
X2439229Y-714936D02*
X2448753Y-724460D01*
X2448753Y-724460D02*
X2467801Y-733984D01*
X2467801Y-733984D02*
X2505896Y-733984D01*
X2505896Y-733984D02*
X2524944Y-724460D01*
X2524944Y-724460D02*
X2534468Y-714936D01*
X2534468Y-714936D02*
X2543991Y-695889D01*
X2543991Y-695889D02*
X2543991Y-648270D01*
X2543991Y-648270D02*
X2534468Y-629222D01*
X2534468Y-629222D02*
X2524944Y-619698D01*
X2524944Y-619698D02*
X2505896Y-610174D01*
X2505896Y-610174D02*
X2467801Y-610174D01*
X2467801Y-610174D02*
X2448753Y-619698D01*
X2448753Y-619698D02*
X2439229Y-629222D01*
X2439229Y-629222D02*
X2429706Y-648270D01*
X2610658Y-533984D02*
X2734468Y-533984D01*
X2734468Y-533984D02*
X2667801Y-610174D01*
X2667801Y-610174D02*
X2696372Y-610174D01*
X2696372Y-610174D02*
X2715420Y-619698D01*
X2715420Y-619698D02*
X2724944Y-629222D01*
X2724944Y-629222D02*
X2734468Y-648270D01*
X2734468Y-648270D02*
X2734468Y-695889D01*
X2734468Y-695889D02*
X2724944Y-714936D01*
X2724944Y-714936D02*
X2715420Y-724460D01*
X2715420Y-724460D02*
X2696372Y-733984D01*
X2696372Y-733984D02*
X2639229Y-733984D01*
X2639229Y-733984D02*
X2620182Y-724460D01*
X2620182Y-724460D02*
X2610658Y-714936D01*
X2858277Y-533984D02*
X2877325Y-533984D01*
X2877325Y-533984D02*
X2896372Y-543508D01*
X2896372Y-543508D02*
X2905896Y-553031D01*
X2905896Y-553031D02*
X2915420Y-572079D01*
X2915420Y-572079D02*
X2924944Y-610174D01*
X2924944Y-610174D02*
X2924944Y-657793D01*
X2924944Y-657793D02*
X2915420Y-695889D01*
X2915420Y-695889D02*
X2905896Y-714936D01*
X2905896Y-714936D02*
X2896372Y-724460D01*
X2896372Y-724460D02*
X2877325Y-733984D01*
X2877325Y-733984D02*
X2858277Y-733984D01*
X2858277Y-733984D02*
X2839229Y-724460D01*
X2839229Y-724460D02*
X2829706Y-714936D01*
X2829706Y-714936D02*
X2820182Y-695889D01*
X2820182Y-695889D02*
X2810658Y-657793D01*
X2810658Y-657793D02*
X2810658Y-610174D01*
X2810658Y-610174D02*
X2820182Y-572079D01*
X2820182Y-572079D02*
X2829706Y-553031D01*
X2829706Y-553031D02*
X2839229Y-543508D01*
X2839229Y-543508D02*
X2858277Y-533984D01*
X3001134Y-533984D02*
X3001134Y-572079D01*
X3077325Y-533984D02*
X3077325Y-572079D01*
X3372563Y-810174D02*
X3363039Y-800650D01*
X3363039Y-800650D02*
X3343991Y-772079D01*
X3343991Y-772079D02*
X3334468Y-753031D01*
X3334468Y-753031D02*
X3324944Y-724460D01*
X3324944Y-724460D02*
X3315420Y-676841D01*
X3315420Y-676841D02*
X3315420Y-638746D01*
X3315420Y-638746D02*
X3324944Y-591127D01*
X3324944Y-591127D02*
X3334468Y-562555D01*
X3334468Y-562555D02*
X3343991Y-543508D01*
X3343991Y-543508D02*
X3363039Y-514936D01*
X3363039Y-514936D02*
X3372563Y-505412D01*
X3439229Y-553031D02*
X3448753Y-543508D01*
X3448753Y-543508D02*
X3467801Y-533984D01*
X3467801Y-533984D02*
X3515420Y-533984D01*
X3515420Y-533984D02*
X3534468Y-543508D01*
X3534468Y-543508D02*
X3543991Y-553031D01*
X3543991Y-553031D02*
X3553515Y-572079D01*
X3553515Y-572079D02*
X3553515Y-591127D01*
X3553515Y-591127D02*
X3543991Y-619698D01*
X3543991Y-619698D02*
X3429706Y-733984D01*
X3429706Y-733984D02*
X3553515Y-733984D01*
X3791610Y-733984D02*
X3791610Y-533984D01*
X3877325Y-733984D02*
X3877325Y-629222D01*
X3877325Y-629222D02*
X3867801Y-610174D01*
X3867801Y-610174D02*
X3848753Y-600650D01*
X3848753Y-600650D02*
X3820182Y-600650D01*
X3820182Y-600650D02*
X3801134Y-610174D01*
X3801134Y-610174D02*
X3791610Y-619698D01*
X4001134Y-733984D02*
X3982087Y-724460D01*
X3982087Y-724460D02*
X3972563Y-714936D01*
X3972563Y-714936D02*
X3963039Y-695889D01*
X3963039Y-695889D02*
X3963039Y-638746D01*
X3963039Y-638746D02*
X3972563Y-619698D01*
X3972563Y-619698D02*
X3982087Y-610174D01*
X3982087Y-610174D02*
X4001134Y-600650D01*
X4001134Y-600650D02*
X4029706Y-600650D01*
X4029706Y-600650D02*
X4048753Y-610174D01*
X4048753Y-610174D02*
X4058277Y-619698D01*
X4058277Y-619698D02*
X4067801Y-638746D01*
X4067801Y-638746D02*
X4067801Y-695889D01*
X4067801Y-695889D02*
X4058277Y-714936D01*
X4058277Y-714936D02*
X4048753Y-724460D01*
X4048753Y-724460D02*
X4029706Y-733984D01*
X4029706Y-733984D02*
X4001134Y-733984D01*
X4182087Y-733984D02*
X4163039Y-724460D01*
X4163039Y-724460D02*
X4153515Y-705412D01*
X4153515Y-705412D02*
X4153515Y-533984D01*
X4334468Y-724460D02*
X4315420Y-733984D01*
X4315420Y-733984D02*
X4277325Y-733984D01*
X4277325Y-733984D02*
X4258277Y-724460D01*
X4258277Y-724460D02*
X4248753Y-705412D01*
X4248753Y-705412D02*
X4248753Y-629222D01*
X4248753Y-629222D02*
X4258277Y-610174D01*
X4258277Y-610174D02*
X4277325Y-600650D01*
X4277325Y-600650D02*
X4315420Y-600650D01*
X4315420Y-600650D02*
X4334468Y-610174D01*
X4334468Y-610174D02*
X4343992Y-629222D01*
X4343992Y-629222D02*
X4343992Y-648270D01*
X4343992Y-648270D02*
X4248753Y-667317D01*
X4420182Y-724460D02*
X4439230Y-733984D01*
X4439230Y-733984D02*
X4477325Y-733984D01*
X4477325Y-733984D02*
X4496373Y-724460D01*
X4496373Y-724460D02*
X4505896Y-705412D01*
X4505896Y-705412D02*
X4505896Y-695889D01*
X4505896Y-695889D02*
X4496373Y-676841D01*
X4496373Y-676841D02*
X4477325Y-667317D01*
X4477325Y-667317D02*
X4448753Y-667317D01*
X4448753Y-667317D02*
X4429706Y-657793D01*
X4429706Y-657793D02*
X4420182Y-638746D01*
X4420182Y-638746D02*
X4420182Y-629222D01*
X4420182Y-629222D02*
X4429706Y-610174D01*
X4429706Y-610174D02*
X4448753Y-600650D01*
X4448753Y-600650D02*
X4477325Y-600650D01*
X4477325Y-600650D02*
X4496373Y-610174D01*
X4572563Y-810174D02*
X4582087Y-800650D01*
X4582087Y-800650D02*
X4601134Y-772079D01*
X4601134Y-772079D02*
X4610658Y-753031D01*
X4610658Y-753031D02*
X4620182Y-724460D01*
X4620182Y-724460D02*
X4629706Y-676841D01*
X4629706Y-676841D02*
X4629706Y-638746D01*
X4629706Y-638746D02*
X4620182Y-591127D01*
X4620182Y-591127D02*
X4610658Y-562555D01*
X4610658Y-562555D02*
X4601134Y-543508D01*
X4601134Y-543508D02*
X4582087Y-514936D01*
X4582087Y-514936D02*
X4572563Y-505412D01*
X4934468Y-810174D02*
X4924944Y-800650D01*
X4924944Y-800650D02*
X4905896Y-772079D01*
X4905896Y-772079D02*
X4896373Y-753031D01*
X4896373Y-753031D02*
X4886849Y-724460D01*
X4886849Y-724460D02*
X4877325Y-676841D01*
X4877325Y-676841D02*
X4877325Y-638746D01*
X4877325Y-638746D02*
X4886849Y-591127D01*
X4886849Y-591127D02*
X4896373Y-562555D01*
X4896373Y-562555D02*
X4905896Y-543508D01*
X4905896Y-543508D02*
X4924944Y-514936D01*
X4924944Y-514936D02*
X4934468Y-505412D01*
X5010658Y-600650D02*
X5010658Y-733984D01*
X5010658Y-619698D02*
X5020182Y-610174D01*
X5020182Y-610174D02*
X5039230Y-600650D01*
X5039230Y-600650D02*
X5067801Y-600650D01*
X5067801Y-600650D02*
X5086849Y-610174D01*
X5086849Y-610174D02*
X5096373Y-629222D01*
X5096373Y-629222D02*
X5096373Y-733984D01*
X5220182Y-733984D02*
X5201134Y-724460D01*
X5201134Y-724460D02*
X5191611Y-714936D01*
X5191611Y-714936D02*
X5182087Y-695889D01*
X5182087Y-695889D02*
X5182087Y-638746D01*
X5182087Y-638746D02*
X5191611Y-619698D01*
X5191611Y-619698D02*
X5201134Y-610174D01*
X5201134Y-610174D02*
X5220182Y-600650D01*
X5220182Y-600650D02*
X5248754Y-600650D01*
X5248754Y-600650D02*
X5267801Y-610174D01*
X5267801Y-610174D02*
X5277325Y-619698D01*
X5277325Y-619698D02*
X5286849Y-638746D01*
X5286849Y-638746D02*
X5286849Y-695889D01*
X5286849Y-695889D02*
X5277325Y-714936D01*
X5277325Y-714936D02*
X5267801Y-724460D01*
X5267801Y-724460D02*
X5248754Y-733984D01*
X5248754Y-733984D02*
X5220182Y-733984D01*
X5343992Y-600650D02*
X5420182Y-600650D01*
X5372563Y-533984D02*
X5372563Y-705412D01*
X5372563Y-705412D02*
X5382087Y-724460D01*
X5382087Y-724460D02*
X5401134Y-733984D01*
X5401134Y-733984D02*
X5420182Y-733984D01*
X5639230Y-600650D02*
X5639230Y-800650D01*
X5639230Y-610174D02*
X5658277Y-600650D01*
X5658277Y-600650D02*
X5696373Y-600650D01*
X5696373Y-600650D02*
X5715420Y-610174D01*
X5715420Y-610174D02*
X5724944Y-619698D01*
X5724944Y-619698D02*
X5734468Y-638746D01*
X5734468Y-638746D02*
X5734468Y-695889D01*
X5734468Y-695889D02*
X5724944Y-714936D01*
X5724944Y-714936D02*
X5715420Y-724460D01*
X5715420Y-724460D02*
X5696373Y-733984D01*
X5696373Y-733984D02*
X5658277Y-733984D01*
X5658277Y-733984D02*
X5639230Y-724460D01*
X5848753Y-733984D02*
X5829706Y-724460D01*
X5829706Y-724460D02*
X5820182Y-705412D01*
X5820182Y-705412D02*
X5820182Y-533984D01*
X6010658Y-733984D02*
X6010658Y-629222D01*
X6010658Y-629222D02*
X6001134Y-610174D01*
X6001134Y-610174D02*
X5982087Y-600650D01*
X5982087Y-600650D02*
X5943992Y-600650D01*
X5943992Y-600650D02*
X5924944Y-610174D01*
X6010658Y-724460D02*
X5991611Y-733984D01*
X5991611Y-733984D02*
X5943992Y-733984D01*
X5943992Y-733984D02*
X5924944Y-724460D01*
X5924944Y-724460D02*
X5915420Y-705412D01*
X5915420Y-705412D02*
X5915420Y-686365D01*
X5915420Y-686365D02*
X5924944Y-667317D01*
X5924944Y-667317D02*
X5943992Y-657793D01*
X5943992Y-657793D02*
X5991611Y-657793D01*
X5991611Y-657793D02*
X6010658Y-648270D01*
X6077325Y-600650D02*
X6153515Y-600650D01*
X6105896Y-533984D02*
X6105896Y-705412D01*
X6105896Y-705412D02*
X6115420Y-724460D01*
X6115420Y-724460D02*
X6134468Y-733984D01*
X6134468Y-733984D02*
X6153515Y-733984D01*
X6296373Y-724460D02*
X6277325Y-733984D01*
X6277325Y-733984D02*
X6239230Y-733984D01*
X6239230Y-733984D02*
X6220182Y-724460D01*
X6220182Y-724460D02*
X6210658Y-705412D01*
X6210658Y-705412D02*
X6210658Y-629222D01*
X6210658Y-629222D02*
X6220182Y-610174D01*
X6220182Y-610174D02*
X6239230Y-600650D01*
X6239230Y-600650D02*
X6277325Y-600650D01*
X6277325Y-600650D02*
X6296373Y-610174D01*
X6296373Y-610174D02*
X6305896Y-629222D01*
X6305896Y-629222D02*
X6305896Y-648270D01*
X6305896Y-648270D02*
X6210658Y-667317D01*
X6477325Y-733984D02*
X6477325Y-533984D01*
X6477325Y-724460D02*
X6458277Y-733984D01*
X6458277Y-733984D02*
X6420182Y-733984D01*
X6420182Y-733984D02*
X6401134Y-724460D01*
X6401134Y-724460D02*
X6391611Y-714936D01*
X6391611Y-714936D02*
X6382087Y-695889D01*
X6382087Y-695889D02*
X6382087Y-638746D01*
X6382087Y-638746D02*
X6391611Y-619698D01*
X6391611Y-619698D02*
X6401134Y-610174D01*
X6401134Y-610174D02*
X6420182Y-600650D01*
X6420182Y-600650D02*
X6458277Y-600650D01*
X6458277Y-600650D02*
X6477325Y-610174D01*
X6553515Y-810174D02*
X6563039Y-800650D01*
X6563039Y-800650D02*
X6582087Y-772079D01*
X6582087Y-772079D02*
X6591611Y-753031D01*
X6591611Y-753031D02*
X6601134Y-724460D01*
X6601134Y-724460D02*
X6610658Y-676841D01*
X6610658Y-676841D02*
X6610658Y-638746D01*
X6610658Y-638746D02*
X6601134Y-591127D01*
X6601134Y-591127D02*
X6591611Y-562555D01*
X6591611Y-562555D02*
X6582087Y-543508D01*
X6582087Y-543508D02*
X6563039Y-514936D01*
X6563039Y-514936D02*
X6553515Y-505412D01*
M02*
