%TF.GenerationSoftware,KiCad,Pcbnew,10.0.1*%
%TF.CreationDate,2026-07-16T14:48:57+09:00*%
%TF.ProjectId,SMD_POWER_BD_SV5,534d445f-504f-4574-9552-5f42445f5356,rev?*%
%TF.SameCoordinates,Original*%
%TF.FileFunction,Soldermask,Top*%
%TF.FilePolarity,Negative*%
%FSLAX46Y46*%
G04 Gerber Fmt 4.6, Leading zero omitted, Abs format (unit mm)*
G04 Created by KiCad (PCBNEW 10.0.1) date 2026-07-16 14:48:57*
%MOMM*%
%LPD*%
G01*
G04 APERTURE LIST*
G04 Aperture macros list*
%AMRoundRect*
0 Rectangle with rounded corners*
0 $1 Rounding radius*
0 $2 $3 $4 $5 $6 $7 $8 $9 X,Y pos of 4 corners*
0 Add a 4 corners polygon primitive as box body*
4,1,4,$2,$3,$4,$5,$6,$7,$8,$9,$2,$3,0*
0 Add four circle primitives for the rounded corners*
1,1,$1+$1,$2,$3*
1,1,$1+$1,$4,$5*
1,1,$1+$1,$6,$7*
1,1,$1+$1,$8,$9*
0 Add four rect primitives between the rounded corners*
20,1,$1+$1,$2,$3,$4,$5,0*
20,1,$1+$1,$4,$5,$6,$7,0*
20,1,$1+$1,$6,$7,$8,$9,0*
20,1,$1+$1,$8,$9,$2,$3,0*%
G04 Aperture macros list end*
%ADD10C,2.200000*%
%ADD11C,3.500000*%
%ADD12RoundRect,0.250000X0.750000X-0.800000X0.750000X0.800000X-0.750000X0.800000X-0.750000X-0.800000X0*%
%ADD13O,2.000000X2.100000*%
%ADD14RoundRect,0.150000X0.750000X-0.530000X0.750000X0.530000X-0.750000X0.530000X-0.750000X-0.530000X0*%
%ADD15RoundRect,0.138095X0.561905X-0.441905X0.561905X0.441905X-0.561905X0.441905X-0.561905X-0.441905X0*%
%ADD16RoundRect,0.250000X-1.400000X0.850000X-1.400000X-0.850000X1.400000X-0.850000X1.400000X0.850000X0*%
%ADD17C,2.100000*%
%ADD18RoundRect,0.350000X0.350000X-0.650000X0.350000X0.650000X-0.350000X0.650000X-0.350000X-0.650000X0*%
%ADD19RoundRect,0.150000X0.530000X0.750000X-0.530000X0.750000X-0.530000X-0.750000X0.530000X-0.750000X0*%
%ADD20RoundRect,0.250000X-0.350000X1.150000X-0.350000X-1.150000X0.350000X-1.150000X0.350000X1.150000X0*%
%ADD21RoundRect,0.249997X-2.650003X3.150003X-2.650003X-3.150003X2.650003X-3.150003X2.650003X3.150003X0*%
%ADD22RoundRect,0.150000X-0.750000X0.530000X-0.750000X-0.530000X0.750000X-0.530000X0.750000X0.530000X0*%
%ADD23RoundRect,0.262500X-0.787500X0.787500X-0.787500X-0.787500X0.787500X-0.787500X0.787500X0.787500X0*%
%ADD24RoundRect,0.500000X-0.900000X0.900000X-0.900000X-0.900000X0.900000X-0.900000X0.900000X0.900000X0*%
%ADD25C,2.800000*%
%ADD26C,1.700000*%
%ADD27RoundRect,0.249999X-1.425001X0.450001X-1.425001X-0.450001X1.425001X-0.450001X1.425001X0.450001X0*%
%ADD28RoundRect,0.250000X-1.500000X-0.550000X1.500000X-0.550000X1.500000X0.550000X-1.500000X0.550000X0*%
%ADD29RoundRect,0.250000X0.250000X0.350000X-0.250000X0.350000X-0.250000X-0.350000X0.250000X-0.350000X0*%
%ADD30RoundRect,0.366667X0.733333X-0.733333X0.733333X0.733333X-0.733333X0.733333X-0.733333X-0.733333X0*%
%ADD31C,1.600000*%
%ADD32RoundRect,0.800000X-0.950000X-0.950000X0.950000X-0.950000X0.950000X0.950000X-0.950000X0.950000X0*%
%ADD33RoundRect,0.150000X-0.530000X-0.750000X0.530000X-0.750000X0.530000X0.750000X-0.530000X0.750000X0*%
%ADD34RoundRect,0.279412X0.670588X0.670588X-0.670588X0.670588X-0.670588X-0.670588X0.670588X-0.670588X0*%
%ADD35C,1.900000*%
%ADD36RoundRect,0.250000X-2.250000X-0.750000X2.250000X-0.750000X2.250000X0.750000X-2.250000X0.750000X0*%
%ADD37RoundRect,0.250000X0.400000X1.450000X-0.400000X1.450000X-0.400000X-1.450000X0.400000X-1.450000X0*%
%ADD38RoundRect,0.210000X-0.490000X0.915000X-0.490000X-0.915000X0.490000X-0.915000X0.490000X0.915000X0*%
%ADD39RoundRect,0.350000X-0.650000X-0.350000X0.650000X-0.350000X0.650000X0.350000X-0.650000X0.350000X0*%
%ADD40RoundRect,0.279412X0.670588X-0.670588X0.670588X0.670588X-0.670588X0.670588X-0.670588X-0.670588X0*%
%ADD41RoundRect,0.250000X-0.800000X-0.800000X0.800000X-0.800000X0.800000X0.800000X-0.800000X0.800000X0*%
%ADD42RoundRect,0.137500X-0.137500X0.600000X-0.137500X-0.600000X0.137500X-0.600000X0.137500X0.600000X0*%
%ADD43RoundRect,0.137500X-0.600000X0.137500X-0.600000X-0.137500X0.600000X-0.137500X0.600000X0.137500X0*%
%ADD44RoundRect,0.250000X-0.550000X1.500000X-0.550000X-1.500000X0.550000X-1.500000X0.550000X1.500000X0*%
%ADD45RoundRect,0.291667X-0.758333X-0.758333X0.758333X-0.758333X0.758333X0.758333X-0.758333X0.758333X0*%
%ADD46C,7.500000*%
%ADD47RoundRect,0.090000X0.760000X0.210000X-0.760000X0.210000X-0.760000X-0.210000X0.760000X-0.210000X0*%
%ADD48RoundRect,0.255000X0.595000X0.645000X-0.595000X0.645000X-0.595000X-0.645000X0.595000X-0.645000X0*%
%ADD49RoundRect,0.250000X-0.650000X1.000000X-0.650000X-1.000000X0.650000X-1.000000X0.650000X1.000000X0*%
%ADD50C,2.300000*%
%ADD51RoundRect,0.250000X1.150000X0.350000X-1.150000X0.350000X-1.150000X-0.350000X1.150000X-0.350000X0*%
%ADD52RoundRect,0.249997X3.150003X2.650003X-3.150003X2.650003X-3.150003X-2.650003X3.150003X-2.650003X0*%
%ADD53RoundRect,0.150000X0.512500X0.150000X-0.512500X0.150000X-0.512500X-0.150000X0.512500X-0.150000X0*%
%ADD54C,1.800000*%
%ADD55RoundRect,0.250000X0.650000X-1.000000X0.650000X1.000000X-0.650000X1.000000X-0.650000X-1.000000X0*%
G04 APERTURE END LIST*
D10*
%TO.C,C19*%
X134500000Y36000000D03*
X134500000Y21000000D03*
%TD*%
D11*
%TO.C,H6*%
X165000000Y90000000D03*
%TD*%
%TO.C,H5*%
X5000000Y90000000D03*
%TD*%
D12*
%TO.C,Q5*%
X107000000Y27460000D03*
D13*
X107000000Y30000000D03*
X107000000Y32540000D03*
%TD*%
D14*
%TO.C,R32*%
X33000000Y35650000D03*
X33000000Y38950000D03*
%TD*%
D15*
%TO.C,LED1*%
X65800000Y74530000D03*
X65800000Y72470000D03*
%TD*%
D16*
%TO.C,L2*%
X93500000Y93450000D03*
X93500000Y87550000D03*
%TD*%
D17*
%TO.C,RV6*%
X104500000Y21500000D03*
X109500000Y21500000D03*
%TD*%
D18*
%TO.C,U11*%
X14730000Y29300000D03*
X17270000Y29300000D03*
X17270000Y38700000D03*
X14730000Y38700000D03*
%TD*%
D14*
%TO.C,R39*%
X14000000Y22350000D03*
X14000000Y25650000D03*
%TD*%
D19*
%TO.C,C11*%
X103250000Y84000000D03*
X99950000Y84000000D03*
%TD*%
D20*
%TO.C,U2*%
X65980000Y93010000D03*
D21*
X63700000Y86010000D03*
D20*
X61420000Y93010000D03*
%TD*%
D17*
%TO.C,RV7*%
X119500000Y21500000D03*
X124500000Y21500000D03*
%TD*%
D22*
%TO.C,R10*%
X152850000Y62450000D03*
X152850000Y59150000D03*
%TD*%
D19*
%TO.C,C27*%
X14650000Y81500000D03*
X11350000Y81500000D03*
%TD*%
D23*
%TO.C,C5*%
X84000000Y79500000D03*
D17*
X84000000Y74500000D03*
%TD*%
D19*
%TO.C,C21*%
X159050000Y62200000D03*
X155750000Y62200000D03*
%TD*%
D24*
%TO.C,D1*%
X165300000Y82750000D03*
D25*
X165300000Y75250000D03*
X165300000Y67750000D03*
X165300000Y60250000D03*
%TD*%
D26*
%TO.C,C26*%
X149840000Y22350000D03*
X157160000Y20250000D03*
%TD*%
D27*
%TO.C,R5*%
X160900000Y74050000D03*
X160900000Y67950000D03*
%TD*%
D28*
%TO.C,C8*%
X135200000Y44500000D03*
X140800000Y44500000D03*
%TD*%
D17*
%TO.C,RV3*%
X59500000Y21500000D03*
X64500000Y21500000D03*
%TD*%
%TO.C,RV4*%
X74500000Y21500000D03*
X79500000Y21500000D03*
%TD*%
D29*
%TO.C,D5*%
X144650000Y50000000D03*
X141350000Y50000000D03*
%TD*%
D14*
%TO.C,C2*%
X145000000Y71350000D03*
X145000000Y74650000D03*
%TD*%
D30*
%TO.C,T1*%
X132950000Y66200000D03*
D10*
X132950000Y71200000D03*
X132950000Y76200000D03*
X132950000Y81200000D03*
X132950000Y86200000D03*
X132950000Y91200000D03*
X115450000Y91200000D03*
X115450000Y86200000D03*
X115450000Y81200000D03*
X115450000Y76200000D03*
X115450000Y71200000D03*
X115450000Y66200000D03*
%TD*%
D31*
%TO.C,FB1*%
X7000000Y28920000D03*
X7000000Y39080000D03*
%TD*%
D19*
%TO.C,C12*%
X47150000Y87200000D03*
X43850000Y87200000D03*
%TD*%
D12*
%TO.C,Q3*%
X77000000Y27460000D03*
D13*
X77000000Y30000000D03*
X77000000Y32540000D03*
%TD*%
D17*
%TO.C,RV5*%
X89500000Y21500000D03*
X94500000Y21500000D03*
%TD*%
D32*
%TO.C,J4*%
X17070000Y10600000D03*
D11*
X24690000Y10600000D03*
X32310000Y10600000D03*
X39930000Y10600000D03*
%TD*%
D33*
%TO.C,C9*%
X34850000Y87200000D03*
X38150000Y87200000D03*
%TD*%
D14*
%TO.C,R25*%
X50500000Y28350000D03*
X50500000Y31650000D03*
%TD*%
%TO.C,R18*%
X98700000Y60350000D03*
X98700000Y63650000D03*
%TD*%
D34*
%TO.C,J1*%
X13270000Y54380000D03*
D35*
X10730000Y54380000D03*
X13270000Y56920000D03*
X10730000Y56920000D03*
X13270000Y59460000D03*
X10730000Y59460000D03*
X13270000Y62000000D03*
X10730000Y62000000D03*
X13270000Y64540000D03*
X10730000Y64540000D03*
X13270000Y67080000D03*
X10730000Y67080000D03*
X13270000Y69620000D03*
X10730000Y69620000D03*
%TD*%
D14*
%TO.C,R2*%
X65800000Y77350000D03*
X65800000Y80650000D03*
%TD*%
D19*
%TO.C,L3*%
X50150000Y54000000D03*
X46850000Y54000000D03*
%TD*%
D16*
%TO.C,L1*%
X93500000Y80750000D03*
X93500000Y74850000D03*
%TD*%
D19*
%TO.C,R20*%
X64650000Y50000000D03*
X61350000Y50000000D03*
%TD*%
%TO.C,C22*%
X159050000Y59500000D03*
X155750000Y59500000D03*
%TD*%
D36*
%TO.C,Y1*%
X36250000Y91600000D03*
X45750000Y91600000D03*
%TD*%
D12*
%TO.C,Q1*%
X47000000Y27460000D03*
D13*
X47000000Y30000000D03*
X47000000Y32540000D03*
%TD*%
D19*
%TO.C,R11*%
X144650000Y53000000D03*
X141350000Y53000000D03*
%TD*%
D27*
%TO.C,R4*%
X156600000Y74050000D03*
X156600000Y67950000D03*
%TD*%
D37*
%TO.C,R3*%
X110225000Y72100000D03*
X105775000Y72100000D03*
%TD*%
D19*
%TO.C,C3*%
X52650000Y83500000D03*
X49350000Y83500000D03*
%TD*%
%TO.C,R17*%
X8650000Y81500000D03*
X5350000Y81500000D03*
%TD*%
D14*
%TO.C,R37*%
X101500000Y28350000D03*
X101500000Y31650000D03*
%TD*%
%TO.C,C29*%
X30000000Y22350000D03*
X30000000Y25650000D03*
%TD*%
D33*
%TO.C,C18*%
X91350000Y84700000D03*
X94650000Y84700000D03*
%TD*%
D38*
%TO.C,U7*%
X79540000Y46540000D03*
X77000000Y46540000D03*
X74460000Y46540000D03*
X74460000Y37460000D03*
X77000000Y37460000D03*
X79540000Y37460000D03*
%TD*%
D23*
%TO.C,C6*%
X73000000Y79500000D03*
D17*
X73000000Y74500000D03*
%TD*%
D33*
%TO.C,R14*%
X98350000Y66500000D03*
X101650000Y66500000D03*
%TD*%
D39*
%TO.C,U4*%
X125300000Y60270000D03*
X125300000Y57730000D03*
X134700000Y57730000D03*
X134700000Y60270000D03*
%TD*%
D14*
%TO.C,R33*%
X41500000Y28350000D03*
X41500000Y31650000D03*
%TD*%
D32*
%TO.C,J3*%
X145990000Y10600000D03*
D11*
X153610000Y10600000D03*
%TD*%
%TO.C,H4*%
X5000000Y5000000D03*
%TD*%
D40*
%TO.C,J2*%
X14920000Y88230000D03*
D35*
X14920000Y90770000D03*
X17460000Y88230000D03*
X17460000Y90770000D03*
X20000000Y88230000D03*
X20000000Y90770000D03*
X22540000Y88230000D03*
X22540000Y90770000D03*
X25080000Y88230000D03*
X25080000Y90770000D03*
%TD*%
D19*
%TO.C,R23*%
X108650000Y50000000D03*
X105350000Y50000000D03*
%TD*%
%TO.C,R21*%
X79650000Y50000000D03*
X76350000Y50000000D03*
%TD*%
D12*
%TO.C,Q6*%
X122000000Y27460000D03*
D13*
X122000000Y30000000D03*
X122000000Y32540000D03*
%TD*%
D14*
%TO.C,C15*%
X51000000Y87350000D03*
X51000000Y90650000D03*
%TD*%
D41*
%TO.C,C1*%
X149450000Y85500000D03*
D17*
X156950000Y85500000D03*
%TD*%
D14*
%TO.C,R30*%
X125500000Y28350000D03*
X125500000Y31650000D03*
%TD*%
D12*
%TO.C,Q2*%
X62000000Y27460000D03*
D13*
X62000000Y30000000D03*
X62000000Y32540000D03*
%TD*%
D19*
%TO.C,R15*%
X116650000Y56000000D03*
X113350000Y56000000D03*
%TD*%
D14*
%TO.C,R31*%
X21000000Y35650000D03*
X21000000Y38950000D03*
%TD*%
%TO.C,R38*%
X116500000Y28350000D03*
X116500000Y31650000D03*
%TD*%
D33*
%TO.C,R6*%
X141350000Y55800000D03*
X144650000Y55800000D03*
%TD*%
D19*
%TO.C,R22*%
X93650000Y50000000D03*
X90350000Y50000000D03*
%TD*%
D22*
%TO.C,R16*%
X109000000Y57150000D03*
X109000000Y53850000D03*
%TD*%
D14*
%TO.C,R34*%
X56500000Y28350000D03*
X56500000Y31650000D03*
%TD*%
D42*
%TO.C,U1*%
X45000000Y77662500D03*
X44200000Y77662500D03*
X43400000Y77662500D03*
X42600000Y77662500D03*
X41800000Y77662500D03*
X41000000Y77662500D03*
X40200000Y77662500D03*
X39400000Y77662500D03*
X38600000Y77662500D03*
X37800000Y77662500D03*
X37000000Y77662500D03*
D43*
X35337500Y76000000D03*
X35337500Y75200000D03*
X35337500Y74400000D03*
X35337500Y73600000D03*
X35337500Y72800000D03*
X35337500Y72000000D03*
X35337500Y71200000D03*
X35337500Y70400000D03*
X35337500Y69600000D03*
X35337500Y68800000D03*
X35337500Y68000000D03*
D42*
X37000000Y66337500D03*
X37800000Y66337500D03*
X38600000Y66337500D03*
X39400000Y66337500D03*
X40200000Y66337500D03*
X41000000Y66337500D03*
X41800000Y66337500D03*
X42600000Y66337500D03*
X43400000Y66337500D03*
X44200000Y66337500D03*
X45000000Y66337500D03*
D43*
X46662500Y68000000D03*
X46662500Y68800000D03*
X46662500Y69600000D03*
X46662500Y70400000D03*
X46662500Y71200000D03*
X46662500Y72000000D03*
X46662500Y72800000D03*
X46662500Y73600000D03*
X46662500Y74400000D03*
X46662500Y75200000D03*
X46662500Y76000000D03*
%TD*%
D12*
%TO.C,Q4*%
X92000000Y27460000D03*
D13*
X92000000Y30000000D03*
X92000000Y32540000D03*
%TD*%
D14*
%TO.C,R28*%
X95500000Y28350000D03*
X95500000Y31650000D03*
%TD*%
D19*
%TO.C,C4*%
X103250000Y71200000D03*
X99950000Y71200000D03*
%TD*%
D14*
%TO.C,R26*%
X65500000Y28350000D03*
X65500000Y31650000D03*
%TD*%
D19*
%TO.C,R19*%
X49650000Y50000000D03*
X46350000Y50000000D03*
%TD*%
D33*
%TO.C,R13*%
X113350000Y59000000D03*
X116650000Y59000000D03*
%TD*%
D44*
%TO.C,C14*%
X56200000Y92200000D03*
X56200000Y86800000D03*
%TD*%
D37*
%TO.C,R7*%
X110225000Y84900000D03*
X105775000Y84900000D03*
%TD*%
D45*
%TO.C,LF1*%
X154000000Y43500000D03*
D17*
X167000000Y43500000D03*
X167000000Y53500000D03*
X154000000Y53500000D03*
%TD*%
D46*
%TO.C,H2*%
X165000000Y5000000D03*
%TD*%
D47*
%TO.C,U3*%
X146900000Y59900000D03*
X146900000Y61200000D03*
X146900000Y62500000D03*
X146900000Y63800000D03*
X146900000Y65100000D03*
D48*
X141100000Y64500000D03*
X141100000Y62500000D03*
X141100000Y60500000D03*
%TD*%
D22*
%TO.C,R8*%
X149500000Y53150000D03*
X149500000Y49850000D03*
%TD*%
D33*
%TO.C,C7*%
X91350000Y72000000D03*
X94650000Y72000000D03*
%TD*%
D38*
%TO.C,U6*%
X64540000Y46540000D03*
X62000000Y46540000D03*
X59460000Y46540000D03*
X59460000Y37460000D03*
X62000000Y37460000D03*
X64540000Y37460000D03*
%TD*%
%TO.C,U8*%
X94540000Y46540000D03*
X92000000Y46540000D03*
X89460000Y46540000D03*
X89460000Y37460000D03*
X92000000Y37460000D03*
X94540000Y37460000D03*
%TD*%
D49*
%TO.C,D2*%
X148500000Y74000000D03*
X148500000Y70000000D03*
%TD*%
D26*
%TO.C,C25*%
X139840000Y22350000D03*
X147160000Y20250000D03*
%TD*%
D50*
%TO.C,R1*%
X140300000Y69840000D03*
X140300000Y90160000D03*
%TD*%
D51*
%TO.C,D6*%
X109510000Y88720000D03*
D52*
X102510000Y91000000D03*
D51*
X109510000Y93280000D03*
%TD*%
D14*
%TO.C,R36*%
X86500000Y28350000D03*
X86500000Y31650000D03*
%TD*%
%TO.C,C28*%
X18000000Y22350000D03*
X18000000Y25650000D03*
%TD*%
D50*
%TO.C,RV1*%
X152310000Y26050000D03*
X144690000Y27550000D03*
%TD*%
D33*
%TO.C,C20*%
X41350000Y54000000D03*
X44650000Y54000000D03*
%TD*%
D14*
%TO.C,R35*%
X71500000Y28350000D03*
X71500000Y31650000D03*
%TD*%
%TO.C,R29*%
X110500000Y28350000D03*
X110500000Y31650000D03*
%TD*%
%TO.C,R40*%
X26000000Y22350000D03*
X26000000Y25650000D03*
%TD*%
D53*
%TO.C,VR1*%
X106137500Y61350000D03*
X106137500Y63250000D03*
X103862500Y62300000D03*
%TD*%
D31*
%TO.C,F1*%
X164500000Y19040000D03*
X164500000Y13960000D03*
%TD*%
D14*
%TO.C,R27*%
X80500000Y28350000D03*
X80500000Y31650000D03*
%TD*%
D54*
%TO.C,R9*%
X166000000Y22900000D03*
X166000000Y37500000D03*
%TD*%
D55*
%TO.C,D3*%
X152500000Y70000000D03*
X152500000Y74000000D03*
%TD*%
D19*
%TO.C,R24*%
X121650000Y50000000D03*
X118350000Y50000000D03*
%TD*%
D38*
%TO.C,U5*%
X49540000Y46540000D03*
X47000000Y46540000D03*
X44460000Y46540000D03*
X44460000Y37460000D03*
X47000000Y37460000D03*
X49540000Y37460000D03*
%TD*%
D23*
%TO.C,C17*%
X73000000Y91500000D03*
D17*
X73000000Y86500000D03*
%TD*%
D18*
%TO.C,U12*%
X26730000Y29300000D03*
X29270000Y29300000D03*
X29270000Y38700000D03*
X26730000Y38700000D03*
%TD*%
D33*
%TO.C,R12*%
X105350000Y66500000D03*
X108650000Y66500000D03*
%TD*%
D51*
%TO.C,D4*%
X109510000Y76020000D03*
D52*
X102510000Y78300000D03*
D51*
X109510000Y80580000D03*
%TD*%
D17*
%TO.C,RV2*%
X44500000Y21500000D03*
X49500000Y21500000D03*
%TD*%
D22*
%TO.C,C23*%
X105500000Y57150000D03*
X105500000Y53850000D03*
%TD*%
D32*
%TO.C,J5*%
X51090000Y10600000D03*
D11*
X58710000Y10600000D03*
X66330000Y10600000D03*
X73950000Y10600000D03*
X81570000Y10600000D03*
X89190000Y10600000D03*
X96810000Y10600000D03*
X104430000Y10600000D03*
X112050000Y10600000D03*
X119670000Y10600000D03*
X127290000Y10600000D03*
X134910000Y10600000D03*
%TD*%
D10*
%TO.C,C10*%
X156500000Y35000000D03*
X140500000Y35000000D03*
%TD*%
D23*
%TO.C,C16*%
X84000000Y91500000D03*
D17*
X84000000Y86500000D03*
%TD*%
D38*
%TO.C,U9*%
X109540000Y46540000D03*
X107000000Y46540000D03*
X104460000Y46540000D03*
X104460000Y37460000D03*
X107000000Y37460000D03*
X109540000Y37460000D03*
%TD*%
D14*
%TO.C,C24*%
X102000000Y53850000D03*
X102000000Y57150000D03*
%TD*%
D26*
%TO.C,C13*%
X133660000Y52950000D03*
X126340000Y55050000D03*
%TD*%
D38*
%TO.C,U10*%
X124540000Y46540000D03*
X122000000Y46540000D03*
X119460000Y46540000D03*
X119460000Y37460000D03*
X122000000Y37460000D03*
X124540000Y37460000D03*
%TD*%
M02*
