M48
; DRILL file KiCad 10.0.1 date 2026-08-05T23:40:24
; FORMAT={-:-/ absolute / metric / decimal}
; #@! TF.CreationDate,2026-08-05T23:40:24+09:00
; #@! TF.GenerationSoftware,Kicad,Pcbnew,10.0.1
; #@! TF.FileFunction,Plated,1,2,PTH
FMAT,2
METRIC
; #@! TA.AperFunction,Plated,PTH,ViaDrill
T1C0.300
; #@! TA.AperFunction,Plated,PTH,ViaDrill
T2C0.400
; #@! TA.AperFunction,Plated,PTH,ViaDrill
T3C0.500
; #@! TA.AperFunction,Plated,PTH,ComponentDrill
T4C0.780
; #@! TA.AperFunction,Plated,PTH,ComponentDrill
T5C0.850
; #@! TA.AperFunction,Plated,PTH,ComponentDrill
T6C0.900
; #@! TA.AperFunction,Plated,PTH,ComponentDrill
T7C0.950
; #@! TA.AperFunction,Plated,PTH,ComponentDrill
T8C1.000
; #@! TA.AperFunction,Plated,PTH,ComponentDrill
T9C1.050
; #@! TA.AperFunction,Plated,PTH,ComponentDrill
T10C1.150
; #@! TA.AperFunction,Plated,PTH,ComponentDrill
T11C1.400
; #@! TA.AperFunction,Plated,PTH,ComponentDrill
T12C1.500
; #@! TA.AperFunction,Plated,PTH,ComponentDrill
T13C1.740
; #@! TA.AperFunction,Plated,PTH,ComponentDrill
T14C3.500
%
G90
G05
T1
X5.0Y6.0
X7.0Y6.0
X10.24Y75.47
X10.24Y74.47
X12.0Y41.0
X12.0Y39.0
X12.0Y37.0
X12.0Y15.1
X12.0Y13.0
X13.0Y67.0
X14.0Y67.0
X15.0Y67.0
X16.0Y6.0
X18.0Y6.0
X23.0Y13.0
X23.0Y11.0
X25.0Y2.0
X25.6Y57.0
X25.6Y55.0
X27.0Y2.0
X30.5Y74.0
X30.5Y73.0
X32.57Y10.98
X33.0Y87.0
X33.0Y61.0
X33.0Y60.0
X33.0Y41.0
X34.0Y87.0
X35.0Y41.0
X35.0Y7.5
X36.0Y68.0
X36.0Y36.0
X36.0Y34.0
X36.0Y7.5
X36.11Y52.82
X36.96Y37.7
X37.0Y67.0
X38.24Y30.69
X39.0Y79.4
X39.0Y78.0
X39.6Y24.72
X40.9Y19.5
X41.0Y68.0
X42.0Y67.0
X42.0Y9.9
X43.0Y9.9
X43.305Y53.485
X43.32Y55.03
X43.32Y48.5
X44.0Y9.9
X45.2Y44.0
X45.2Y37.6
X45.3Y31.3
X45.3Y25.3
X46.055Y48.595
X47.0Y44.0
X47.0Y37.6
X47.0Y31.3
X47.0Y25.3
X47.0Y19.0
X47.09Y51.99
X47.9Y63.4
X48.0Y19.0
X49.0Y52.0
X49.0Y51.0
X49.0Y50.0
X49.01Y19.07
X49.7Y53.32
X49.72Y55.03
X50.0Y57.0
X50.15Y48.58
X51.0Y13.0
X51.0Y11.0
X51.1Y57.0
X51.71Y42.59
X52.0Y92.0
X52.0Y90.0
X52.0Y88.0
X52.0Y68.0
X52.0Y34.0
X52.0Y31.9
X52.16Y37.69
X52.64Y41.49
X52.89Y51.98
X52.89Y50.98
X52.89Y49.98
X53.0Y68.0
X53.38Y38.99
X53.97Y75.2
X54.27Y64.76
X54.76Y72.0
X54.97Y64.19
X55.26Y49.38
X55.48Y63.49
X55.97Y62.68
X56.27Y18.55
X56.56Y61.94
X56.79Y52.15
X57.02Y43.48
X57.66Y63.0
X57.725Y53.615
X57.97Y61.12
X58.0Y72.0
X58.1Y12.9
X58.1Y11.1
X58.68Y52.9
X59.0Y73.0
X59.2Y40.2
X59.2Y34.4
X59.28Y63.92
X59.49Y60.81
X59.55Y59.73
X60.0Y18.99
X60.69Y56.07
X60.84Y96.42
X61.0Y87.0
X61.0Y26.9
X61.0Y25.0
X61.0Y23.0
X61.0Y19.0
X62.0Y87.0
X62.02Y67.17
X63.0Y8.0
X63.0Y7.0
X63.03Y18.76
X63.63Y74.6
X64.81Y70.89
X65.0Y84.0
X66.0Y84.0
X66.13Y4.58
X66.46Y70.22
X67.0Y84.0
X67.52Y69.47
X68.36Y5.05
X68.73Y68.75
X69.0Y87.0
X69.0Y86.0
X69.0Y54.0
X69.0Y52.0
X69.0Y50.12
X69.0Y48.0
X69.26Y41.5
X70.28Y39.25
X70.5Y17.0
X70.5Y16.0
X71.0Y90.0
X71.25Y37.18
X72.26Y34.93
X72.94Y79.86
X73.0Y90.0
X73.0Y77.0
X73.0Y76.0
X73.0Y75.0
X73.19Y32.66
X73.67Y29.12
X74.98Y18.64
X75.045Y84.755
X75.52Y34.28
X76.0Y30.0
X76.22Y32.975
X76.47Y25.53
X76.78Y32.325
X76.92Y33.625
X77.0Y30.0
X77.34Y31.675
X77.93Y85.85
X78.97Y18.57
X79.0Y93.0
X79.0Y91.0
X79.0Y80.0
X79.5Y72.3
X80.0Y80.0
X80.0Y45.0
X80.5Y72.3
X81.0Y80.0
X81.0Y45.0
X81.34Y27.88
X81.9Y86.82
X82.0Y45.0
X82.0Y31.5
X82.0Y30.5
X82.31Y58.0
X82.9Y32.7
X83.0Y17.0
X83.0Y16.0
X84.455Y18.565
X85.0Y65.0
X85.0Y64.0
X85.0Y63.0
X86.57Y25.86
X87.0Y53.0
X88.0Y53.0
X88.46Y50.12
X89.0Y53.0
X89.5Y35.5
X90.6Y35.5
X91.0Y78.0
X92.0Y78.0
X93.0Y94.0
X93.0Y93.0
X93.0Y92.0
X94.0Y81.0
X94.0Y35.5
X95.0Y81.0
X95.0Y44.0
X95.0Y35.5
X96.0Y69.0
X96.0Y44.0
X96.0Y3.0
X97.0Y60.0
X97.0Y3.0
X98.0Y69.0
X98.0Y60.0
X98.0Y3.0
X99.0Y60.0
X101.0Y16.0
X101.0Y15.0
X103.0Y86.0
X104.0Y86.0
X104.0Y63.0
X104.0Y62.0
X104.0Y61.0
X104.0Y35.5
X105.0Y86.0
X105.0Y44.0
X105.0Y35.5
X106.0Y44.0
X107.0Y44.0
X109.0Y75.0
X109.0Y74.0
X109.0Y73.0
X111.0Y35.5
X112.0Y35.5
X114.0Y29.0
X114.0Y28.0
X116.0Y97.0
X116.0Y76.0
X116.0Y66.0
X116.0Y65.0
X116.0Y64.0
X116.9Y23.4
X117.0Y97.0
X117.0Y76.0
X118.0Y97.0
X118.0Y76.0
X120.0Y55.0
X120.0Y54.0
X120.0Y53.0
X120.0Y44.0
X120.0Y18.0
X120.0Y17.0
X121.0Y44.0
X122.0Y44.0
X123.0Y88.5
X124.0Y88.5
X125.0Y29.2
X126.0Y22.0
X126.0Y21.0
X131.0Y34.0
X131.0Y33.0
X131.0Y32.0
X135.0Y26.0
X135.0Y25.0
T2
X3.97Y26.96
X6.61Y14.05
X22.0Y62.42
X22.0Y60.03
X34.57Y55.64
X35.14Y64.02
X42.74Y92.31
X42.851Y83.311
X43.66Y95.59
X45.46Y87.52
X45.58Y96.38
X50.07Y66.68
X58.97Y83.79
X58.98Y92.17
X71.31Y68.59
X71.65Y67.43
X75.86Y63.85
X75.87Y83.7
X75.87Y66.41
X83.7Y80.71
X89.54Y86.54
X94.18Y64.37
X96.95Y12.24
X101.0Y85.85
X101.535Y64.365
X102.72Y67.94
T3
X23.13Y24.75
X28.35Y27.2
X100.06Y48.82
X125.1Y75.23
T4
X106.46Y26.5
X109.0Y29.04
X111.54Y26.5
T5
X26.92Y96.54
X26.92Y91.46
X26.92Y87.54
X26.92Y82.46
X29.46Y96.54
X29.46Y91.46
X29.46Y87.54
X29.46Y82.46
X37.08Y96.54
X37.08Y91.46
X37.08Y87.54
X37.08Y82.46
T6
X25.0Y48.0
X27.5Y65.5
X33.0Y24.51
X33.0Y21.97
X33.0Y19.43
X33.0Y16.89
X88.0Y72.0
X89.9Y38.5
X92.44Y38.5
X94.98Y38.5
X95.0Y20.0
X95.0Y9.0
X97.52Y38.5
X98.0Y90.0
X98.0Y82.5
X99.0Y55.0
X100.06Y38.5
X102.6Y38.5
X105.14Y38.5
X107.68Y38.5
X110.22Y38.5
X112.76Y38.5
X115.3Y38.5
X117.0Y28.0
X117.0Y18.0
X120.38Y38.5
X122.92Y38.5
X123.0Y24.51
X123.0Y21.97
X123.0Y19.43
X123.0Y16.89
X123.6Y50.0
X125.46Y38.5
X128.0Y38.5
X144.0Y81.0
T7
X66.92Y94.77
X66.92Y92.23
X69.46Y94.77
X69.46Y92.23
X72.0Y94.77
X72.0Y92.23
X72.92Y7.77
X72.92Y5.23
X74.54Y94.77
X74.54Y92.23
X75.46Y7.77
X75.46Y5.23
X77.08Y94.77
X77.08Y92.23
X78.0Y7.77
X78.0Y5.23
X80.54Y7.77
X80.54Y5.23
X83.08Y7.77
X83.08Y5.23
T8
X4.95Y3.5
X7.0Y61.25
X7.0Y58.75
X7.45Y3.5
X7.5Y95.75
X7.5Y93.25
X7.5Y90.75
X7.5Y88.25
X9.95Y3.5
X12.45Y3.5
X14.95Y3.5
X17.45Y3.5
X40.75Y4.3
X43.25Y4.3
X45.75Y4.3
X48.25Y4.3
X50.75Y4.3
X53.25Y4.3
X55.75Y4.3
X58.25Y4.3
X152.5Y61.75
X152.5Y59.25
X152.5Y56.75
X152.5Y54.25
T9
X117.84Y38.5
T10
X132.0Y62.0
X132.0Y54.0
X142.0Y66.0
X142.0Y62.0
X142.0Y54.0
X142.0Y50.0
T11
X144.35Y20.5
X144.35Y5.5
X153.65Y3.5
T12
X153.65Y22.5
T13
X128.0Y8.0
X128.0Y3.0
X135.0Y8.0
X135.0Y3.0
X146.0Y34.5
X146.0Y29.5
X153.0Y34.5
X153.0Y29.5
T14
X18.0Y90.0
X18.0Y30.0
X20.5Y76.5
X20.5Y39.5
X135.5Y76.5
X135.5Y39.5
X138.0Y90.0
X138.0Y30.0
M30
