%TF.GenerationSoftware,KiCad,Pcbnew,10.0.1*%
%TF.CreationDate,2026-08-05T23:40:35+09:00*%
%TF.ProjectId,U-SONIC_Main_Stm_V1,552d534f-4e49-4435-9f4d-61696e5f5374,rev?*%
%TF.SameCoordinates,Original*%
%TF.FileFunction,Paste,Top*%
%TF.FilePolarity,Positive*%
%FSLAX46Y46*%
G04 Gerber Fmt 4.6, Leading zero omitted, Abs format (unit mm)*
G04 Created by KiCad (PCBNEW 10.0.1) date 2026-08-05 23:40:35*
%MOMM*%
%LPD*%
G01*
G04 APERTURE LIST*
G04 Aperture macros list*
%AMRoundRect*
0 Rectangle with rounded corners*
0 $1 Rounding radius*
0 $2 $3 $4 $5 $6 $7 $8 $9 X,Y pos of 4 corners*
0 Add a 4 corners polygon primitive as box body*
4,1,4,$2,$3,$4,$5,$6,$7,$8,$9,$2,$3,0*
0 Add four circle primitives for the rounded corners*
1,1,$1+$1,$2,$3*
1,1,$1+$1,$4,$5*
1,1,$1+$1,$6,$7*
1,1,$1+$1,$8,$9*
0 Add four rect primitives between the rounded corners*
20,1,$1+$1,$2,$3,$4,$5,0*
20,1,$1+$1,$4,$5,$6,$7,0*
20,1,$1+$1,$6,$7,$8,$9,0*
20,1,$1+$1,$8,$9,$2,$3,0*%
G04 Aperture macros list end*
%ADD10R,2.300000X2.300000*%
%ADD11RoundRect,0.150000X0.550000X-0.480000X0.550000X0.480000X-0.550000X0.480000X-0.550000X-0.480000X0*%
%ADD12RoundRect,0.150000X0.480000X0.550000X-0.480000X0.550000X-0.480000X-0.550000X0.480000X-0.550000X0*%
%ADD13RoundRect,0.150000X-0.150000X0.587500X-0.150000X-0.587500X0.150000X-0.587500X0.150000X0.587500X0*%
%ADD14RoundRect,0.250000X-2.250000X-0.750000X2.250000X-0.750000X2.250000X0.750000X-2.250000X0.750000X0*%
%ADD15RoundRect,0.150000X0.530000X0.750000X-0.530000X0.750000X-0.530000X-0.750000X0.530000X-0.750000X0*%
%ADD16RoundRect,0.150000X-0.480000X-0.550000X0.480000X-0.550000X0.480000X0.550000X-0.480000X0.550000X0*%
%ADD17RoundRect,0.250000X-0.461200X0.650005X-0.461200X-0.650005X0.461200X-0.650005X0.461200X0.650005X0*%
%ADD18RoundRect,0.250000X0.461200X-0.650005X0.461200X0.650005X-0.461200X0.650005X-0.461200X-0.650005X0*%
%ADD19RoundRect,0.250000X-0.250000X0.250000X-0.250000X-0.250000X0.250000X-0.250000X0.250000X0.250000X0*%
%ADD20RoundRect,0.150000X-0.530000X-0.750000X0.530000X-0.750000X0.530000X0.750000X-0.530000X0.750000X0*%
%ADD21RoundRect,0.249999X1.425001X-0.450001X1.425001X0.450001X-1.425001X0.450001X-1.425001X-0.450001X0*%
%ADD22RoundRect,0.150000X-0.150000X0.825000X-0.150000X-0.825000X0.150000X-0.825000X0.150000X0.825000X0*%
%ADD23RoundRect,0.150000X-0.550000X0.480000X-0.550000X-0.480000X0.550000X-0.480000X0.550000X0.480000X0*%
%ADD24RoundRect,0.150000X0.750000X-0.530000X0.750000X0.530000X-0.750000X0.530000X-0.750000X-0.530000X0*%
%ADD25RoundRect,0.150000X-0.825000X-0.150000X0.825000X-0.150000X0.825000X0.150000X-0.825000X0.150000X0*%
%ADD26RoundRect,0.249999X-1.425001X0.450001X-1.425001X-0.450001X1.425001X-0.450001X1.425001X0.450001X0*%
%ADD27RoundRect,0.250000X0.650005X0.461200X-0.650005X0.461200X-0.650005X-0.461200X0.650005X-0.461200X0*%
%ADD28RoundRect,0.250000X-0.650005X-0.461200X0.650005X-0.461200X0.650005X0.461200X-0.650005X0.461200X0*%
%ADD29RoundRect,0.250000X-0.550000X1.050000X-0.550000X-1.050000X0.550000X-1.050000X0.550000X1.050000X0*%
%ADD30RoundRect,0.150000X0.825000X0.150000X-0.825000X0.150000X-0.825000X-0.150000X0.825000X-0.150000X0*%
%ADD31RoundRect,0.150000X0.150000X-0.587500X0.150000X0.587500X-0.150000X0.587500X-0.150000X-0.587500X0*%
%ADD32RoundRect,0.150000X-0.750000X0.530000X-0.750000X-0.530000X0.750000X-0.530000X0.750000X0.530000X0*%
%ADD33RoundRect,0.375000X0.375000X-0.675000X0.375000X0.675000X-0.375000X0.675000X-0.375000X-0.675000X0*%
%ADD34RoundRect,0.525000X1.375000X-0.525000X1.375000X0.525000X-1.375000X0.525000X-1.375000X-0.525000X0*%
%ADD35RoundRect,0.250000X1.000000X0.650000X-1.000000X0.650000X-1.000000X-0.650000X1.000000X-0.650000X0*%
%ADD36RoundRect,0.138095X-0.561905X0.441905X-0.561905X-0.441905X0.561905X-0.441905X0.561905X0.441905X0*%
%ADD37RoundRect,0.138095X0.441905X0.561905X-0.441905X0.561905X-0.441905X-0.561905X0.441905X-0.561905X0*%
%ADD38RoundRect,0.150000X0.587500X0.150000X-0.587500X0.150000X-0.587500X-0.150000X0.587500X-0.150000X0*%
%ADD39RoundRect,0.100000X-0.637500X-0.100000X0.637500X-0.100000X0.637500X0.100000X-0.637500X0.100000X0*%
%ADD40RoundRect,0.250000X1.050000X0.550000X-1.050000X0.550000X-1.050000X-0.550000X1.050000X-0.550000X0*%
%ADD41RoundRect,0.075000X-0.662500X-0.075000X0.662500X-0.075000X0.662500X0.075000X-0.662500X0.075000X0*%
%ADD42RoundRect,0.075000X-0.075000X-0.662500X0.075000X-0.662500X0.075000X0.662500X-0.075000X0.662500X0*%
G04 APERTURE END LIST*
D10*
%TO.C,LS1*%
X5450000Y71450000D03*
X12550000Y71450000D03*
X12550000Y78550000D03*
X5450000Y78550000D03*
%TD*%
D11*
%TO.C,R47*%
X28000000Y16970000D03*
X28000000Y19030000D03*
%TD*%
D12*
%TO.C,R46*%
X49030000Y12000000D03*
X46970000Y12000000D03*
%TD*%
D13*
%TO.C,Q5*%
X27950000Y12937500D03*
X26050000Y12937500D03*
X27000000Y11062500D03*
%TD*%
D14*
%TO.C,Y1*%
X34250000Y74000000D03*
X43750000Y74000000D03*
%TD*%
D15*
%TO.C,C31*%
X31650000Y31000000D03*
X28350000Y31000000D03*
%TD*%
D16*
%TO.C,R10*%
X78470000Y70000000D03*
X80530000Y70000000D03*
%TD*%
D15*
%TO.C,R36*%
X27650000Y61500000D03*
X24350000Y61500000D03*
%TD*%
D17*
%TO.C,D8*%
X107310900Y65000000D03*
D18*
X110689100Y65000000D03*
%TD*%
D16*
%TO.C,R32*%
X44470000Y21000000D03*
X46530000Y21000000D03*
%TD*%
D15*
%TO.C,R23*%
X105000000Y12500000D03*
X101700000Y12500000D03*
%TD*%
D16*
%TO.C,R11*%
X86970000Y58000000D03*
X89030000Y58000000D03*
%TD*%
D19*
%TO.C,D12*%
X32500000Y57750000D03*
X32500000Y55250000D03*
%TD*%
D20*
%TO.C,C27*%
X80350000Y38000000D03*
X83650000Y38000000D03*
%TD*%
D21*
%TO.C,R14*%
X116000000Y1750000D03*
X116000000Y7850000D03*
%TD*%
D16*
%TO.C,R28*%
X84970000Y17000000D03*
X87030000Y17000000D03*
%TD*%
D12*
%TO.C,R27*%
X82030000Y84000000D03*
X79970000Y84000000D03*
%TD*%
D22*
%TO.C,Q1*%
X128905000Y84600000D03*
X127635000Y84600000D03*
X126365000Y84600000D03*
X125095000Y84600000D03*
X125095000Y79400000D03*
X126365000Y79400000D03*
X127635000Y79400000D03*
X128905000Y79400000D03*
%TD*%
D23*
%TO.C,R2*%
X87000000Y96030000D03*
X87000000Y93970000D03*
%TD*%
D12*
%TO.C,C46*%
X49030000Y17000000D03*
X46970000Y17000000D03*
%TD*%
D16*
%TO.C,R30*%
X44470000Y33000000D03*
X46530000Y33000000D03*
%TD*%
%TO.C,C33*%
X44470000Y29500000D03*
X46530000Y29500000D03*
%TD*%
D24*
%TO.C,R35*%
X18000000Y58350000D03*
X18000000Y61650000D03*
%TD*%
D12*
%TO.C,R49*%
X63030000Y12000000D03*
X60970000Y12000000D03*
%TD*%
D23*
%TO.C,R44*%
X9000000Y29030000D03*
X9000000Y26970000D03*
%TD*%
D16*
%TO.C,C1*%
X53970000Y78000000D03*
X56030000Y78000000D03*
%TD*%
D25*
%TO.C,Q2*%
X118400000Y61905000D03*
X118400000Y60635000D03*
X118400000Y59365000D03*
X118400000Y58095000D03*
X123600000Y58095000D03*
X123600000Y59365000D03*
X123600000Y60635000D03*
X123600000Y61905000D03*
%TD*%
D15*
%TO.C,R17*%
X116650000Y12500000D03*
X113350000Y12500000D03*
%TD*%
D20*
%TO.C,C35*%
X94350000Y50000000D03*
X97650000Y50000000D03*
%TD*%
D17*
%TO.C,D10*%
X107310900Y54000000D03*
D18*
X110689100Y54000000D03*
%TD*%
D20*
%TO.C,R25*%
X107350000Y57000000D03*
X110650000Y57000000D03*
%TD*%
D23*
%TO.C,R1*%
X59000000Y96030000D03*
X59000000Y93970000D03*
%TD*%
D20*
%TO.C,FB1*%
X28350000Y38000000D03*
X31650000Y38000000D03*
%TD*%
D26*
%TO.C,R18*%
X111000000Y7850000D03*
X111000000Y1750000D03*
%TD*%
D16*
%TO.C,C43*%
X14970000Y14000000D03*
X17030000Y14000000D03*
%TD*%
D15*
%TO.C,C11*%
X57650000Y36000000D03*
X54350000Y36000000D03*
%TD*%
D16*
%TO.C,C16*%
X41670000Y78500000D03*
X43730000Y78500000D03*
%TD*%
D15*
%TO.C,C21*%
X96650000Y71000000D03*
X93350000Y71000000D03*
%TD*%
D12*
%TO.C,R20*%
X81030000Y17000000D03*
X78970000Y17000000D03*
%TD*%
D16*
%TO.C,R31*%
X44470000Y27000000D03*
X46530000Y27000000D03*
%TD*%
D17*
%TO.C,D14*%
X26310900Y78000000D03*
D18*
X29689100Y78000000D03*
%TD*%
D27*
%TO.C,D15*%
X41000000Y95689100D03*
D28*
X41000000Y92310900D03*
%TD*%
D24*
%TO.C,R8*%
X135000000Y16350000D03*
X135000000Y19650000D03*
%TD*%
D23*
%TO.C,C20*%
X83000000Y76530000D03*
X83000000Y74470000D03*
%TD*%
D16*
%TO.C,C40*%
X30970000Y9000000D03*
X33030000Y9000000D03*
%TD*%
D20*
%TO.C,C28*%
X80350000Y41000000D03*
X83650000Y41000000D03*
%TD*%
D16*
%TO.C,R39*%
X30970000Y6000000D03*
X33030000Y6000000D03*
%TD*%
D19*
%TO.C,D3*%
X128500000Y28250000D03*
X128500000Y25750000D03*
%TD*%
D24*
%TO.C,C37*%
X11000000Y48350000D03*
X11000000Y51650000D03*
%TD*%
%TO.C,R33*%
X14000000Y58350000D03*
X14000000Y61650000D03*
%TD*%
D11*
%TO.C,C7*%
X90000000Y93970000D03*
X90000000Y96030000D03*
%TD*%
D12*
%TO.C,C6*%
X57030000Y33000000D03*
X54970000Y33000000D03*
%TD*%
D25*
%TO.C,U2*%
X104700000Y91605000D03*
X104700000Y90335000D03*
X104700000Y89065000D03*
X104700000Y87795000D03*
X109900000Y87795000D03*
X109900000Y89065000D03*
X109900000Y90335000D03*
X109900000Y91605000D03*
%TD*%
D12*
%TO.C,R43*%
X56030000Y12000000D03*
X53970000Y12000000D03*
%TD*%
D24*
%TO.C,C26*%
X102000000Y5850000D03*
X102000000Y9150000D03*
%TD*%
D20*
%TO.C,R6*%
X114350000Y85000000D03*
X117650000Y85000000D03*
%TD*%
D19*
%TO.C,D11*%
X32500000Y66250000D03*
X32500000Y63750000D03*
%TD*%
D16*
%TO.C,R13*%
X78470000Y74500000D03*
X80530000Y74500000D03*
%TD*%
D11*
%TO.C,C5*%
X56000000Y93970000D03*
X56000000Y96030000D03*
%TD*%
D20*
%TO.C,R29*%
X94350000Y47000000D03*
X97650000Y47000000D03*
%TD*%
D29*
%TO.C,C44*%
X9000000Y21800000D03*
X9000000Y18200000D03*
%TD*%
D20*
%TO.C,C41*%
X14850000Y11000000D03*
X18150000Y11000000D03*
%TD*%
D29*
%TO.C,C36*%
X16000000Y51800000D03*
X16000000Y48200000D03*
%TD*%
D19*
%TO.C,D9*%
X99000000Y9250000D03*
X99000000Y6750000D03*
%TD*%
D30*
%TO.C,U1*%
X91600000Y80190000D03*
X91600000Y81460000D03*
X91600000Y82730000D03*
X91600000Y84000000D03*
X91600000Y85270000D03*
X91600000Y86540000D03*
X91600000Y87810000D03*
X86400000Y87810000D03*
X86400000Y86540000D03*
X86400000Y85270000D03*
X86400000Y84000000D03*
X86400000Y82730000D03*
X86400000Y81460000D03*
X86400000Y80190000D03*
%TD*%
D20*
%TO.C,R12*%
X114350000Y79000000D03*
X117650000Y79000000D03*
%TD*%
D31*
%TO.C,Q6*%
X46050000Y93062500D03*
X47950000Y93062500D03*
X47000000Y94937500D03*
%TD*%
D12*
%TO.C,C17*%
X36330000Y78500000D03*
X34270000Y78500000D03*
%TD*%
D32*
%TO.C,C18*%
X132000000Y27150000D03*
X132000000Y23850000D03*
%TD*%
D24*
%TO.C,R9*%
X110000000Y16850000D03*
X110000000Y20150000D03*
%TD*%
D33*
%TO.C,U6*%
X15200000Y16800000D03*
X17500000Y16800000D03*
D34*
X17500000Y23200000D03*
D33*
X19800000Y16800000D03*
%TD*%
D20*
%TO.C,R26*%
X107350000Y51000000D03*
X110650000Y51000000D03*
%TD*%
D32*
%TO.C,C25*%
X113000000Y20150000D03*
X113000000Y16850000D03*
%TD*%
D24*
%TO.C,C14*%
X123000000Y68350000D03*
X123000000Y71650000D03*
%TD*%
D11*
%TO.C,C42*%
X24500000Y16970000D03*
X24500000Y19030000D03*
%TD*%
D24*
%TO.C,C38*%
X29000000Y54850000D03*
X29000000Y58150000D03*
%TD*%
D16*
%TO.C,R40*%
X30970000Y3000000D03*
X33030000Y3000000D03*
%TD*%
D24*
%TO.C,R34*%
X22000000Y64350000D03*
X22000000Y67650000D03*
%TD*%
D20*
%TO.C,R3*%
X122350000Y91000000D03*
X125650000Y91000000D03*
%TD*%
D35*
%TO.C,D1*%
X109100000Y95900000D03*
X105100000Y95900000D03*
%TD*%
D12*
%TO.C,C4*%
X61030000Y78000000D03*
X58970000Y78000000D03*
%TD*%
%TO.C,R45*%
X49030000Y14500000D03*
X46970000Y14500000D03*
%TD*%
D24*
%TO.C,C9*%
X118000000Y88350000D03*
X118000000Y91650000D03*
%TD*%
D17*
%TO.C,D4*%
X114310900Y82000000D03*
D18*
X117689100Y82000000D03*
%TD*%
D24*
%TO.C,R37*%
X22000000Y54850000D03*
X22000000Y58150000D03*
%TD*%
D25*
%TO.C,U4*%
X92400000Y66905000D03*
X92400000Y65635000D03*
X92400000Y64365000D03*
X92400000Y63095000D03*
X97600000Y63095000D03*
X97600000Y64365000D03*
X97600000Y65635000D03*
X97600000Y66905000D03*
%TD*%
D20*
%TO.C,C45*%
X53350000Y14700000D03*
X56650000Y14700000D03*
%TD*%
D24*
%TO.C,R15*%
X138000000Y16350000D03*
X138000000Y19650000D03*
%TD*%
D29*
%TO.C,C15*%
X118000000Y71800000D03*
X118000000Y68200000D03*
%TD*%
D12*
%TO.C,R48*%
X63030000Y14500000D03*
X60970000Y14500000D03*
%TD*%
D16*
%TO.C,C34*%
X44470000Y23500000D03*
X46530000Y23500000D03*
%TD*%
D36*
%TO.C,LED2*%
X9000000Y31970000D03*
X9000000Y34030000D03*
%TD*%
D37*
%TO.C,LED1*%
X35970000Y48500000D03*
X38030000Y48500000D03*
%TD*%
D32*
%TO.C,R5*%
X132000000Y21650000D03*
X132000000Y18350000D03*
%TD*%
D12*
%TO.C,C2*%
X57030000Y41500000D03*
X54970000Y41500000D03*
%TD*%
%TO.C,R42*%
X33030000Y48500000D03*
X30970000Y48500000D03*
%TD*%
D11*
%TO.C,C3*%
X79000000Y62970000D03*
X79000000Y65030000D03*
%TD*%
D15*
%TO.C,R24*%
X110650000Y12500000D03*
X107350000Y12500000D03*
%TD*%
D35*
%TO.C,D6*%
X97000000Y75000000D03*
X93000000Y75000000D03*
%TD*%
D38*
%TO.C,Q3*%
X28437500Y71050000D03*
X28437500Y72950000D03*
X26562500Y72000000D03*
%TD*%
D24*
%TO.C,C12*%
X109000000Y78350000D03*
X109000000Y81650000D03*
%TD*%
D20*
%TO.C,R4*%
X122350000Y97000000D03*
X125650000Y97000000D03*
%TD*%
D24*
%TO.C,C23*%
X105000000Y70850000D03*
X105000000Y74150000D03*
%TD*%
D19*
%TO.C,D7*%
X99000000Y14750000D03*
X99000000Y12250000D03*
%TD*%
D12*
%TO.C,R16*%
X93530000Y58000000D03*
X91470000Y58000000D03*
%TD*%
D27*
%TO.C,D13*%
X41000000Y86689100D03*
D28*
X41000000Y83310900D03*
%TD*%
D16*
%TO.C,R22*%
X72970000Y17000000D03*
X75030000Y17000000D03*
%TD*%
D20*
%TO.C,R19*%
X107350000Y62000000D03*
X110650000Y62000000D03*
%TD*%
D12*
%TO.C,C30*%
X31530000Y34500000D03*
X29470000Y34500000D03*
%TD*%
D16*
%TO.C,C32*%
X44470000Y35500000D03*
X46530000Y35500000D03*
%TD*%
D24*
%TO.C,C22*%
X102000000Y70850000D03*
X102000000Y74150000D03*
%TD*%
%TO.C,C8*%
X115000000Y88350000D03*
X115000000Y91650000D03*
%TD*%
D39*
%TO.C,U5*%
X79137500Y34925000D03*
X79137500Y34275000D03*
X79137500Y33625000D03*
X79137500Y32975000D03*
X79137500Y32325000D03*
X79137500Y31675000D03*
X79137500Y31025000D03*
X79137500Y30375000D03*
X79137500Y29725000D03*
X79137500Y29075000D03*
X84862500Y29075000D03*
X84862500Y29725000D03*
X84862500Y30375000D03*
X84862500Y31025000D03*
X84862500Y31675000D03*
X84862500Y32325000D03*
X84862500Y32975000D03*
X84862500Y33625000D03*
X84862500Y34275000D03*
X84862500Y34925000D03*
%TD*%
D11*
%TO.C,C19*%
X83000000Y67970000D03*
X83000000Y70030000D03*
%TD*%
D31*
%TO.C,Q4*%
X46050000Y84062500D03*
X47950000Y84062500D03*
X47000000Y85937500D03*
%TD*%
D23*
%TO.C,C39*%
X37000000Y16030000D03*
X37000000Y13970000D03*
%TD*%
D15*
%TO.C,C29*%
X105650000Y47000000D03*
X102350000Y47000000D03*
%TD*%
D19*
%TO.C,D5*%
X128500000Y23750000D03*
X128500000Y21250000D03*
%TD*%
D23*
%TO.C,R38*%
X40000000Y16030000D03*
X40000000Y13970000D03*
%TD*%
D40*
%TO.C,C24*%
X106300000Y18500000D03*
X102700000Y18500000D03*
%TD*%
D20*
%TO.C,R21*%
X107350000Y68000000D03*
X110650000Y68000000D03*
%TD*%
D29*
%TO.C,C13*%
X104000000Y81800000D03*
X104000000Y78200000D03*
%TD*%
D26*
%TO.C,R7*%
X121000000Y7850000D03*
X121000000Y1750000D03*
%TD*%
D12*
%TO.C,C10*%
X57030000Y39000000D03*
X54970000Y39000000D03*
%TD*%
%TO.C,C47*%
X63030000Y17000000D03*
X60970000Y17000000D03*
%TD*%
D17*
%TO.C,D2*%
X122310900Y94000000D03*
D18*
X125689100Y94000000D03*
%TD*%
D41*
%TO.C,U3*%
X52837500Y64750000D03*
X52837500Y64250000D03*
X52837500Y63750000D03*
X52837500Y63250000D03*
X52837500Y62750000D03*
X52837500Y62250000D03*
X52837500Y61750000D03*
X52837500Y61250000D03*
X52837500Y60750000D03*
X52837500Y60250000D03*
X52837500Y59750000D03*
X52837500Y59250000D03*
D42*
X54250000Y57837500D03*
X54750000Y57837500D03*
X55250000Y57837500D03*
X55750000Y57837500D03*
X56250000Y57837500D03*
X56750000Y57837500D03*
X57250000Y57837500D03*
X57750000Y57837500D03*
X58250000Y57837500D03*
X58750000Y57837500D03*
X59250000Y57837500D03*
X59750000Y57837500D03*
D41*
X61162500Y59250000D03*
X61162500Y59750000D03*
X61162500Y60250000D03*
X61162500Y60750000D03*
X61162500Y61250000D03*
X61162500Y61750000D03*
X61162500Y62250000D03*
X61162500Y62750000D03*
X61162500Y63250000D03*
X61162500Y63750000D03*
X61162500Y64250000D03*
X61162500Y64750000D03*
D42*
X59750000Y66162500D03*
X59250000Y66162500D03*
X58750000Y66162500D03*
X58250000Y66162500D03*
X57750000Y66162500D03*
X57250000Y66162500D03*
X56750000Y66162500D03*
X56250000Y66162500D03*
X55750000Y66162500D03*
X55250000Y66162500D03*
X54750000Y66162500D03*
X54250000Y66162500D03*
%TD*%
M02*
